<svg xmlns="http://www.w3.org/2000/svg" width="8" height="15" viewBox="0 0 8 15">
  <defs>
    <style>
      .cls-1 {
        fill: #343430;
        fill-rule: evenodd;
      }
    </style>
  </defs>
  <path id="T-FACEBOOK" class="cls-1" d="M1507.36,185.154H1505V182.5h2.36V182.13c0.02-.761-0.03-1.531.06-2.283a3.079,3.079,0,0,1,3.12-2.833c0.81-.047,1.62.026,2.46,0.045v2.43c-0.31,0-.6,0-0.9,0-0.28,0-.57.006-0.85,0.024a0.964,0.964,0,0,0-1.03.974c-0.03.653,0,1.308,0,2h2.71c-0.12.909-.24,1.776-0.36,2.672h-2.36V192h-2.85v-6.846Z" transform="translate(-1505 -177)"/>
</svg>
