<svg id="Insta" xmlns="http://www.w3.org/2000/svg" width="36" height="36" viewBox="0 0 36 36">
  <defs>
    <style>
      .cls-1 {
        fill: #31333a;
      }

      .cls-2 {
        fill: #fff;
        fill-rule: evenodd;
      }
    </style>
  </defs>
  <circle id="Ellipse_1297_copy_2" data-name="Ellipse 1297 copy 2" class="cls-1" cx="18" cy="18" r="18"/>
  <path class="cls-2" d="M1308.5,8772h-4.18a4.213,4.213,0,0,1-4.32-4.33v-8.36a4.21,4.21,0,0,1,4.3-4.31h8.4a4.21,4.21,0,0,1,4.3,4.31v8.36a4.213,4.213,0,0,1-4.32,4.33h-4.18Zm6.79-8.51v-4.08a2.494,2.494,0,0,0-2.71-2.7h-8.16a2.489,2.489,0,0,0-2.71,2.7v8.19a2.485,2.485,0,0,0,2.69,2.69h8.19a2.49,2.49,0,0,0,2.7-2.68v-4.12Zm-6.79-4.24a4.25,4.25,0,1,1-4.25,4.26A4.217,4.217,0,0,1,1308.5,8759.25Zm2.54,4.24a2.54,2.54,0,1,0-2.53,2.55A2.474,2.474,0,0,0,1311.04,8763.49Zm1.72-5.09a0.85,0.85,0,1,1-.87.83A0.869,0.869,0,0,1,1312.76,8758.4Z" transform="translate(-1290 -8745)"/>
</svg>
