<svg id="Layer_1" data-name="Layer 1" xmlns="http://www.w3.org/2000/svg" viewBox="0 0 1309.94 356.86"><defs><style>.cls-1{fill:#d52028;}.cls-2{fill:#fff;stroke:#fff;stroke-miterlimit:10;stroke-width:2px;}</style></defs><title>OR_Logo_webste</title><path class="cls-1" d="M1194.44,134.33c.36,0,16.58.09,16.93.11a10.4,10.4,0,0,0-1.81-4.2c-1.51-2.07-2.66-4.46-4.14-7l2.67-.75c6.22-1.69,12.34-3.84,17.23-8.61,2.11-2,3.48-5.11,5-7.83a3.35,3.35,0,0,0,.1-2.73c-2.53-3.58-5.22-7-8-10.72a16.67,16.67,0,0,1-10.33,9.22,114,114,0,0,0-12.14,4.71,54.68,54.68,0,0,0-9.71,5.78,7.38,7.38,0,0,0-2.37,9C1189.74,125.79,1192.2,130,1194.44,134.33Z" transform="translate(-1.56 -1.23)"/><path d="M1211.33,134.37c-5.66-.16-11.33-.34-17-.14a1.71,1.71,0,0,1,.18.61c.22,2.7.08,5.43.08,8.61-.83-.64-1.28-.92-1.66-1.28-14.78-13.76-39.69-10.32-51.75,4.36-9.58,11.65-12.34,25.16-10.4,39.69a33.14,33.14,0,0,0,11.44,20.89,4.81,4.81,0,0,1,2,4.14c-.11,9.25,2.78,17.39,9.43,24,9.61,9.54,22.51,8.85,31.13-1.63,8.48-10.31,9.94-29.3,3.11-40.74a30.36,30.36,0,0,0-2.9-4c-10.77-12.59-23.3-10.9-33.59.31-.6.65-1.11,1.38-2,2.52-.88-2.31-1.84-4-2.18-5.89a31.39,31.39,0,0,1,4-22.61c8.21-13.57,26.14-14.87,36.29-2.67a25.85,25.85,0,0,1,6,16.28c.11,4.49,0,9,0,13.61h17.78v-3.23c0-17.16,0-34.31,0-51.46C1211.36,135.24,1211.35,134.8,1211.33,134.37ZM1162.76,201c3.13-4.42,8.07-4.57,10.76.1,1.72,3,2.45,6.56,3.63,9.87l-.75.26a15.53,15.53,0,0,1-3.1,10.35c-2.93,3.72-7.11,3.68-10,0C1159.14,216.25,1158.89,206.42,1162.76,201Z" transform="translate(-1.56 -1.23)"/><path d="M943.41,240.66c-3.4,4-6.73,7.93-10.31,12.16l-3.29-3.8c-4.32-5.05-8.6-10.13-13-15.11a3.5,3.5,0,0,1-.68-3.94c5.43-17.44,7.29-35.14,3.34-53.16a36.39,36.39,0,0,0-7-14.59c-6.22-8-14.23-11.85-24.27-9.18S871.85,162.59,870,172.8c-.84,4.52-.32,9.33-.15,14,.05,1.46,1,2.9,1.66,4.85l2.08-2.84c7.54-10.29,21.06-11.68,30.51-3.14a30,30,0,0,1,10.15,22.51c.21,9.25-1.21,18-7.31,25.46-8.62,10.49-21.53,11.14-31.14,1.59-6.42-6.39-9.38-14.23-9.4-23.19a5.82,5.82,0,0,0-2.53-5.2c-6.56-5.26-10.06-12.58-11-20.73-1.78-14.82,1.59-28.31,11.5-39.94,13.86-16.29,46.76-19.48,62.68,5.62,8.57,13.5,11.9,28.2,11.13,44-.5,10.26-2,20.34-5.44,30.08a3.57,3.57,0,0,0,.66,2.87C936.58,232.74,940,236.62,943.41,240.66ZM898.53,211l.71-.24c-1.1-3.16-1.78-6.54-3.38-9.41-2.79-5-7.84-4.94-11.06-.25-3.76,5.49-3.5,15.09.56,20.33,3,3.83,7.21,3.84,10.18,0A15.74,15.74,0,0,0,898.53,211Z" transform="translate(-1.56 -1.23)"/><path d="M1239.53,191.72l2-2.82c7.57-10.41,21.21-11.79,30.7-3.12a30,30,0,0,1,10,22.29c.23,9.35-1.21,18.22-7.41,25.7-8.57,10.33-21.42,11-31,1.53-6.6-6.52-9.55-14.54-9.49-23.71a4.93,4.93,0,0,0-2.23-4.5c-6.79-5.35-10.36-12.81-11.35-21.15-1.72-14.6,1.61-27.93,11.27-39.49,13.87-16.59,46.92-19.8,62.89,5.25,8.48,13.31,11.87,27.83,11.21,43.43-.44,10.45-1.9,20.72-5.42,30.64a3.83,3.83,0,0,0,.73,3.09c3.18,3.95,6.52,7.76,10,11.8l-10.33,12.18c-5.73-6.71-11.35-13.18-16.79-19.78-.54-.65-.31-2.22,0-3.23,5.14-16.64,6.79-33.55,3.75-50.77a38,38,0,0,0-7.31-16.54c-6.19-8.13-14.21-12.16-24.4-9.51s-16.41,9.49-18.36,19.68c-.86,4.52-.33,9.33-.18,14C1237.93,188.17,1238.81,189.61,1239.53,191.72Zm27.09,19.33.75-.27c-1.2-3.3-1.95-6.86-3.7-9.84-2.65-4.53-7.5-4.37-10.6-.11-4,5.49-3.74,15.5.51,20.78,2.87,3.56,7,3.61,9.85,0C1265.93,218.57,1266.71,214.93,1266.62,211.05Z" transform="translate(-1.56 -1.23)"/><path d="M1095.27,241.84h-16.75V230.27a30.85,30.85,0,0,1-15.78,10.32c-17.43,5-34.9-4-39.43-20.46a32.31,32.31,0,0,1,.28-19.34,3.08,3.08,0,0,0-.34-2.63c-9.88-9.72-11.85-30.48-3.36-44.73,9.56-16,26.44-23.41,43.05-18.62A27.16,27.16,0,0,1,1077.32,145a5.79,5.79,0,0,1,.47,1l.59-.33V133.72h16.89Zm-60.58-56.13a23.09,23.09,0,0,1,18.57-1.74c.84.27,2.13,1.05,2.15,1.62.16,5.47.1,10.95.1,16.62-1.32-.37-2.18-.66-3.06-.87-5.49-1.29-10,.45-12.1,4.69a11,11,0,0,0,3,13.26,17.48,17.48,0,0,0,6,3.21c11.6,3.25,26.09-5.63,28.3-18.12,1.27-7.17.74-14.68.72-22a43.51,43.51,0,0,0-1.22-9.83c-3.11-13-12.94-20.72-25.33-20.18C1035.87,153,1026.05,171.8,1034.69,185.71Z" transform="translate(-1.56 -1.23)"/><path d="M967.55,175.7c5.12.57,10.15.62,14.92,1.75,15.14,3.58,25.18,16.62,25.66,32.66.25,8.32-1,16.22-6.64,22.78C991.07,245,973.14,245,962,233c-6.77-7.28-10.33-16.08-11.69-25.75-2.29-16.12-1.44-32,4.67-47.29,3-7.45,7.18-14.13,13.45-19.31,14-11.57,33.51-8.91,43.6,6l-10.12,13.71c-1.06-1.23-2-2.33-2.92-3.39-5.91-6.45-13-7-19.87-1.61C973.48,159.85,968.5,168.67,967.55,175.7ZM965,193.92c.23,8.86,1.47,17.21,7.12,24.07a16.28,16.28,0,0,0,7.2,4.73c5.65,1.86,10.87-.74,11.83-5.82,1.6-8.51-.55-17-10-21.06C976.1,193.63,970.81,193.69,965,193.92Z" transform="translate(-1.56 -1.23)"/><path d="M1105.17,133.6h16.57V241.85h-16.57Z" transform="translate(-1.56 -1.23)"/><path d="M935.3,125.16c-5.55,0-10.78,0-16-.06-.52,0-1.17-.74-1.51-1.29-9.58-15.35-28.93-15.36-38.53,0a3,3,0,0,1-2,1.34c-5.16.12-10.31.06-15.48.06,1.18-14.55,18.7-29.73,35.2-30.41C918.06,93.9,932.41,111.15,935.3,125.16Z" transform="translate(-1.56 -1.23)"/><path d="M791.76,241.87H775.14v-3.26c0-18.72.15-37.44-.1-56.16a54.88,54.88,0,0,0-2.18-15.21c-3-9.84-11.55-15.41-21.42-14.93-4.77.23-7.74,2.45-9.16,6.79,2.93.64,5.89,1.19,8.77,2a2.55,2.55,0,0,1,1.39,2c-.93,4.59-2.08,9.13-3.21,13.92-6.64-2.13-13.3-4.38-18.62,2.14-3.41,4.18-4.2,9-2.34,14.88,2.53-5.16,6.36-8.31,10.82-10.77,8.24-4.54,16.56-3.48,23.3,3.12,8.24,8.07,10.33,18.2,9.4,29.22a32.14,32.14,0,0,1-8,19c-7.71,8.72-19.48,9.73-28.43,2.29a30,30,0,0,1-11.25-22,4.38,4.38,0,0,0-2.34-3.92c-6.79-4.22-9.89-10.72-10.71-18.42-1.22-11.49,2-21.3,11.17-28.82a5.11,5.11,0,0,0,1.2-3.12c1.46-12.36,10-22.78,21.53-26.18,9.53-2.82,23.13-.08,29,9.52a5.27,5.27,0,0,1,.37,1l.74-.43v-11h16.68ZM739.06,211c1.24,3.48,1.94,6.87,3.58,9.72,2.84,4.91,7.93,4.76,11.13,0,3.64-5.38,3.39-14.43-.54-19.59-3-4-7.68-4.14-10.32.09C741.12,204.08,740.36,207.56,739.06,211Z" transform="translate(-1.56 -1.23)"/><path d="M581.07,208c-3.38-2.91-6.71-5.67-9.87-8.61-.44-.41-.36-1.87,0-2.57,3.29-6.1,8.39-10.42,14.14-14.09a43.77,43.77,0,0,0,6.76-4.74c3.38-3.22,5.17-7.22,3.82-12a4.41,4.41,0,0,0-7.3-2.09c-1.26,1.11-1.41,2.23-.85,3.88,2.2,6.56-1.25,12.33-7.69,13.17-5,.66-10.63-4.12-11.3-9.64C567,156.22,581.12,142.82,596,145.56c8.14,1.5,15.17,9.45,16.58,18.67,1.48,9.69-.7,18.12-8.51,24.62,11.43,8.64,11.73,20.2,8.13,32.07-3.74,12.33-13.13,19-25.7,20.46-23.55,2.8-41.4-9.24-48-32.67-7.09-25.3-1.34-58.29,25.28-78,1.39-1,2.88-1.93,4.52-3l10,13.89c-1.68,1.32-3.27,2.42-4.7,3.7-17.57,15.6-24.59,34.89-19.12,57.91,2.63,11.07,9.43,19.18,21.17,21.75A20.91,20.91,0,0,0,591,222.54q8-4.6,7.26-13.83c-.22-3-1.16-5.45-4.18-6.53-3.24-1.16-6.4-1.05-9.06,1.41C583.69,204.83,582.58,206.33,581.07,208Z" transform="translate(-1.56 -1.23)"/><path d="M699.47,200.22c-.72-.14-1.35-.2-2-.37-3.9-1.08-7.78-2.19-11.81-3.33a47.85,47.85,0,0,0-.09-27.27c-3.57-11.84-13.8-18.29-26.44-16.88-10.67,1.2-20,11.45-20.63,22.72-.37,6.52-.1,8.67,1.66,12.6l7.15-9.41c4.25,3.4,8.3,6.65,12.44,9.95-1.79,2.26-3.57,4.24-5,6.43-4.27,6.37-6.87,13.26-5.61,21.09a10.23,10.23,0,1,0,19.76-5l-3,4-11.84-9.46L674,178.35l11.1,9.31L679,197c6.19,8,7.55,16.89,4.81,26.44-3.36,11.7-12.63,18.57-24.82,18.47s-22.36-7.69-25.24-19.7c-1.17-4.9-.83-10.2-.83-15.31,0-2.24-.27-3.68-2.09-5.39-6.48-6.12-9.31-14.05-9.57-22.83-.47-15.53,4.92-28.59,17.37-38.19,15.76-12.16,49-10.82,60.84,18.69,5.14,12.78,5.27,25.86.93,38.95C700.16,198.85,699.8,199.48,699.47,200.22Z" transform="translate(-1.56 -1.23)"/><path d="M819.17,133.64V241.83H802.61V133.64Z" transform="translate(-1.56 -1.23)"/><path d="M627.61,125.17c3.73-17.42,20.38-30.78,37.62-30.46,16.46.31,33.23,14.11,36,29.86a16.19,16.19,0,0,1-2,.33c-2.49.08-5-.07-7.46.2-4.44.5-7.34-.53-10.38-4.61-9-12.1-27.86-10.45-35.52,2.61a3.57,3.57,0,0,1-3.65,2.11C637.39,125.08,632.6,125.17,627.61,125.17Z" transform="translate(-1.56 -1.23)"/><path class="cls-1" d="M675.06,262.43c0,6.77-3.82,11-9.94,11A10.09,10.09,0,0,1,654.71,263c0-6.68,4.18-11.54,10-11.56C671,251.4,675.05,255.73,675.06,262.43Z" transform="translate(-1.56 -1.23)"/><path d="M481.42,29.49c0-16.12-12.09-28.25-28.19-28.25q-211.82,0-423.62,0c-15.91,0-28,12.18-28,28.12q0,150.3,0,300.6a29.87,29.87,0,0,0,.83,7.12c3.14,12.65,14.08,21,27.47,21H453c16.34,0,28.46-12,28.46-28.26Q481.45,179.66,481.42,29.49Z" transform="translate(-1.56 -1.23)"/><path class="cls-2" d="M343.38,280.18v6.55H268.15V280.3c3.32-.48,6.63-.72,9.83-1.45,8.7-2,12.87-7.29,12.88-16.16q0-74.25,0-148.49c0-9.5-4.25-14.76-13.61-16.74-2.95-.62-6-.83-9.13-1.24V89.85h3.22c24.47,0,48.94,0,73.41.17,14.32.12,28.31,2.37,41.35,8.75,18.87,9.24,27.63,24.59,26.8,45.41-.85,21.49-13.27,37.51-34.64,44.93-4.23,1.47-8.61,2.5-13.29,3.83,2.43,3.32,4.79,6.57,7.17,9.81q21.51,29.22,43,58.42c1.37,1.86,2.79,3.68,4.31,5.41,6.11,6.95,12.87,12.82,22.92,13.28V287c-2,0-4,0-6,0-11.44-.12-22.89-.35-34.33-.31a6.05,6.05,0,0,1-5.66-2.85q-30.22-42.41-60.56-84.72a4.92,4.92,0,0,0-4.77-2.39c-3.58.17-7.19.05-11.24.05v3.35q0,30.61,0,61.23c0,10.42,5.59,16.79,15.93,18.09C338.2,279.72,340.67,279.91,343.38,280.18Zm-23.57-96.71c12.51.67,32.29-1.64,44.27-8a31.15,31.15,0,0,0,16.66-22.21,54.58,54.58,0,0,0-.54-24.42A30.75,30.75,0,0,0,363.77,108c-12.38-6.36-25.54-6.3-38.88-4.36a4.61,4.61,0,0,0-4.1,3.94,42.42,42.42,0,0,0-.94,7.66c-.07,21.77,0,43.55,0,65.32Z" transform="translate(-1.56 -1.23)"/><path class="cls-2" d="M144.61,117.52,133,104.19a67.88,67.88,0,0,1,17.7-10.32c36.3-14.58,85-5.48,107.46,40.31,17.11,34.87,17.16,70.8,0,105.79a82.16,82.16,0,0,1-131.86,22.78c-.58-.57-1.1-1.21-1.82-2l15.94-12.81c2.11,2.69,4.06,5.25,6.09,7.73,8.68,10.65,19.45,17.93,33.38,19.25,18.91,1.79,33-6.6,43.39-21.85,7.19-10.57,10.79-22.61,13.09-35,4.55-24.59,4.05-49.05-2.39-73.28a80.8,80.8,0,0,0-13.49-28.32c-19.62-25.94-58.87-21.58-74.41-.58C145.73,116.28,145.35,116.67,144.61,117.52Z" transform="translate(-1.56 -1.23)"/><path class="cls-1" d="M71.29,298.58c-53.39-69.07-45.5-183.12,19.22-240l14.24,16.23c-30.52,27.27-45.86,61.83-48.77,102s7,76.65,31.85,109.1Z" transform="translate(-1.56 -1.23)"/><path class="cls-1" d="M112.61,83.77l12.87,14.68c-23.58,22-37,48.89-39,81.07s7.5,60.61,28.19,85.6c-5.25,4-10.34,7.92-15.41,11.82C52.94,224.16,54.9,134.62,112.61,83.77Z" transform="translate(-1.56 -1.23)"/><path class="cls-1" d="M122.79,259.09a88.47,88.47,0,0,1-12.94-18.37A108.57,108.57,0,0,1,97.47,196c-1.52-23.84,2.21-46.53,14.12-67.51a77.61,77.61,0,0,1,19.85-23.23c3.59,4.1,7.2,8.13,10.66,12.29.32.39-.11,1.66-.5,2.34-3.9,6.69-8.42,13.08-11.71,20.05-15.08,32-13.11,63.61,2.55,94.82q1.49,3,3.15,5.84c1.11,1.91,2.32,3.75,3.63,5.85Z" transform="translate(-1.56 -1.23)"/><path class="cls-1" d="M149.53,126c3.92,4.5,7.63,9.07,11.69,13.3,2.47,2.58,2.52,4.63,1.09,7.93-11.12,25.63-10.81,51.28.76,76.72,1.06,2.35,1.05,3.61-1.19,5.19-4.88,3.45-9.51,7.24-14.27,10.9C127.25,208.63,126,161,149.53,126Z" transform="translate(-1.56 -1.23)"/><path class="cls-1" d="M166.2,185.5c0-10.49,7.05-18.75,16-19.13,10.51-.43,19,9.32,17.75,20.43-.88,7.87-6,14.24-12.84,16-9.76,2.57-19.54-4.67-20.76-15.38C166.23,186.64,166.22,185.81,166.2,185.5Z" transform="translate(-1.56 -1.23)"/></svg>