<svg xmlns="http://www.w3.org/2000/svg" width="12.78" height="20.281" viewBox="0 0 12.78 20.281">
  <defs>
    <style>
      .cls-1 {
        fill: red;
        fill-rule: evenodd;
      }
    </style>
  </defs>
  <path id="MOB_icn" class="cls-1" d="M1297.28,185.373v-7.912a2,2,0,0,1,2.12-2.2c2.86,0,5.73,0,8.59,0a1.978,1.978,0,0,1,2.08,2.116v16.023a1.979,1.979,0,0,1-2.08,2.117q-4.305,0-8.59,0a2,2,0,0,1-2.12-2.2v-7.953Zm1.98-8.051V189.41h8.83V177.322h-8.83Zm4.45,16.158c0.19,0,.38.012,0.57,0a0.893,0.893,0,0,0,.86-0.964,0.961,0.961,0,0,0-.86-1.025,9.839,9.839,0,0,0-1.19,0,1.023,1.023,0,0,0-.88,1.025,0.947,0.947,0,0,0,.88.962C1303.3,193.494,1303.5,193.481,1303.71,193.48Z" transform="translate(-1297.28 -175.25)"/>
</svg>
