<svg xmlns="http://www.w3.org/2000/svg" width="14" height="11" viewBox="0 0 14 11">
  <defs>
    <style>
      .cls-1 {
        fill: #323232;
        fill-rule: evenodd;
      }
    </style>
  </defs>
  <path id="T-twitter" class="cls-1" d="M1530,188.759a6.119,6.119,0,0,0,4.15-1.144,2.992,2.992,0,0,1-2.67-1.941h1.18c0.01-.021.01-0.042,0.02-0.063a3.09,3.09,0,0,1-1.58-.989,2.678,2.678,0,0,1-.63-1.7l1.16,0.3c0.01-.026.03-0.052,0.04-0.078a2.79,2.79,0,0,1-1.16-2.013,2.544,2.544,0,0,1,.38-1.615,8.389,8.389,0,0,0,5.95,2.881,3.045,3.045,0,0,1,.12-1.562,2.936,2.936,0,0,1,4.63-1.139,0.441,0.441,0,0,0,.49.108c0.49-.176.99-0.342,1.47-0.508a2.689,2.689,0,0,1-1.03,1.409c0.24-.048.49-0.086,0.72-0.148s0.47-.144.7-0.217l0.06,0.071c-0.38.372-.76,0.757-1.16,1.109a0.607,0.607,0,0,0-.26.524,7.919,7.919,0,0,1-5.89,7.63,8.492,8.492,0,0,1-6.48-.762c-0.04-.022-0.08-0.046-0.12-0.07A1.12,1.12,0,0,0,1530,188.759Z" transform="translate(-1530 -179)"/>
</svg>
