<svg xmlns="http://www.w3.org/2000/svg" width="17" height="12" viewBox="0 0 17 12">
  <defs>
    <style>
      .cls-1 {
        fill: #353535;
        fill-rule: evenodd;
      }
    </style>
  </defs>
  <path id="T-youtube" class="cls-1" d="M1593.56,190c-1.94-.092-3.88-0.179-5.81-0.282a3.876,3.876,0,0,1-.95-0.165,2.214,2.214,0,0,1-1.56-2.009,24.681,24.681,0,0,1-.2-4.859,21.331,21.331,0,0,1,.25-2.525,2.121,2.121,0,0,1,2.09-1.936c1.26-.116,2.52-0.215,3.78-0.222,2.3-.013,4.6.036,6.9,0.082a12.981,12.981,0,0,1,1.74.174,2.131,2.131,0,0,1,1.95,1.919,20.527,20.527,0,0,1,.26,4.5,28.3,28.3,0,0,1-.27,3.049,2.075,2.075,0,0,1-2.04,1.945c-1.23.117-2.47,0.179-3.71,0.231-0.81.034-1.62,0.006-2.43,0.006V190Zm2.69-6.049c-1.49-.862-2.95-1.7-4.42-2.553v5.108C1593.31,185.649,1594.76,184.81,1596.25,183.95Z" transform="translate(-1585 -178)"/>
</svg>
