<svg id="yotube" xmlns="http://www.w3.org/2000/svg" width="36" height="36" viewBox="0 0 36 36">
  <defs>
    <style>
      .cls-1 {
        fill: #31333a;
      }

      .cls-2 {
        fill: #fff;
        fill-rule: evenodd;
      }
    </style>
  </defs>
  <circle id="Ellipse_1297_copy_3" data-name="Ellipse 1297 copy 3" class="cls-1" cx="18" cy="18" r="18"/>
  <path class="cls-2" d="M1355.54,8769q-2.895-.135-5.8-0.28a3.871,3.871,0,0,1-.95-0.17,2.214,2.214,0,0,1-1.55-2.01,24.663,24.663,0,0,1-.2-4.86,21.289,21.289,0,0,1,.25-2.52,2.118,2.118,0,0,1,2.09-1.94c1.25-.11,2.51-0.21,3.77-0.22,2.29-.01,4.59.04,6.88,0.08a12.67,12.67,0,0,1,1.74.18,2.127,2.127,0,0,1,1.95,1.92,20.457,20.457,0,0,1,.26,4.49c-0.04,1.02-.13,2.04-0.27,3.05a2.08,2.08,0,0,1-2.04,1.95c-1.23.11-2.46,0.18-3.7,0.23-0.81.03-1.62,0-2.43,0v0.1Zm2.69-6.05c-1.49-.86-2.94-1.7-4.41-2.55v5.1C1355.3,8764.65,1356.74,8763.81,1358.23,8762.95Z" transform="translate(-1337 -8745)"/>
</svg>
