<svg id="ARROW" xmlns="http://www.w3.org/2000/svg" width="21.12" height="21.125" viewBox="0 0 21.12 21.125">
  <defs>
    <style>
      .cls-1 {
        fill: #ee3525;
      }

      .cls-2 {
        fill: #fff;
        fill-rule: evenodd;
      }
    </style>
  </defs>
  <ellipse class="cls-1" cx="10.56" cy="10.563" rx="10.56" ry="10.563"/>
  <path class="cls-2" d="M1020.22,399.978c0.4-.395.8-0.789,1.19-1.184,0.09-.091.18-0.186,0.28-0.286,1.29,1.3,2.58,2.587,3.87,3.879,1.29-1.293,2.58-2.582,3.88-3.887,0.06,0.062.1,0.118,0.15,0.167,0.44,0.438.87,0.874,1.31,1.311V400c-0.03.026-.06,0.051-0.09,0.08q-2.58,2.58-5.15,5.161a1.3,1.3,0,0,0-.08.1h-0.04a0.463,0.463,0,0,0-.07-0.1q-2.58-2.58-5.15-5.16c-0.03-.029-0.07-0.054-0.1-0.08v-0.021Z" transform="translate(-1015 -390.875)"/>
</svg>
