<svg id="insta" xmlns="http://www.w3.org/2000/svg" width="31.91" height="31.91" viewBox="0 0 31.91 31.91">
  <defs>
    <style>
      .cls-1 {
        fill: gray;
      }

      .cls-2 {
        fill: #fff;
        fill-rule: evenodd;
      }
    </style>
  </defs>
  <circle id="Ellipse_530_copy" data-name="Ellipse 530 copy" class="cls-1" cx="15.955" cy="15.955" r="15.955"/>
  <path class="cls-2" d="M1364.01,2047.96c0-1.26-.03-2.52.01-3.78a5.125,5.125,0,0,1,2.02-4.27,4.975,4.975,0,0,1,2.88-.89c2.38-.02,4.76-0.04,7.14.01a4.633,4.633,0,0,1,3.92,1.9,4.731,4.731,0,0,1,.93,2.66c0.07,2.43.08,4.86,0.09,7.3a8.935,8.935,0,0,1-.3,2.63,4.343,4.343,0,0,1-3.62,3.28,23.4,23.4,0,0,1-3.45.19c-1.56.02-3.13,0-4.7-.05a4.721,4.721,0,0,1-3.92-1.91,5.631,5.631,0,0,1-.99-3.24C1363.99,2050.51,1364.01,2049.23,1364.01,2047.96Zm15.53,0.02h-0.05c0-.71.02-1.41,0-2.12s-0.04-1.41-.09-2.11a3.051,3.051,0,0,0-2.5-2.99,10.4,10.4,0,0,0-1.93-.16c-2.16.01-4.32,0.01-6.47,0.09a2.88,2.88,0,0,0-2.8,2.51,10.97,10.97,0,0,0-.18,2.22c0,2.26,0,4.52.08,6.78a2.984,2.984,0,0,0,2.45,2.99,9.444,9.444,0,0,0,1.99.17c2.14-.01,4.29,0,6.44-0.09a3.054,3.054,0,0,0,2.92-3.09C1379.48,2050.78,1379.5,2049.38,1379.54,2047.98Zm-2.67-.01a4.381,4.381,0,1,1-4.37-4.61A4.485,4.485,0,0,1,1376.87,2047.97Zm-4.37-3a3.015,3.015,0,1,0,2.84,3.03A2.919,2.919,0,0,0,1372.5,2044.97Zm4.56-.73a1.04,1.04,0,0,1-1.02-1.06,1.056,1.056,0,0,1,1.02-1.1,1.069,1.069,0,0,1,1.01,1.08A1.056,1.056,0,0,1,1377.06,2044.24Z" transform="translate(-1357 -2032)"/>
</svg>
