<svg xmlns="http://www.w3.org/2000/svg" width="10" height="9" viewBox="0 0 10 9">
  <defs>
    <style>
      .cls-1 {
        fill: #e5001b;
        fill-rule: evenodd;
      }
    </style>
  </defs>
  <path id="next-story_arrow" class="cls-1" d="M1164,3517.52a0.462,0.462,0,0,0-.07.07c-1.26,1.44-2.52,2.89-3.78,4.33a0.922,0.922,0,0,0-.05.08c-0.37-.43-0.73-0.84-1.1-1.26q1.41-1.6,2.82-3.23-1.425-1.635-2.82-3.24c0.37-.42.73-0.83,1.11-1.27,0.01,0.01.02,0.05,0.04,0.08q1.89,2.16,3.78,4.34c0.02,0.02.05,0.04,0.07,0.06v0.04Zm-5,0a0.462,0.462,0,0,0-.07.07c-1.26,1.44-2.52,2.89-3.78,4.33a0.922,0.922,0,0,0-.05.08c-0.37-.43-0.73-0.84-1.1-1.26q1.41-1.6,2.82-3.23-1.425-1.635-2.82-3.24c0.37-.42.73-0.83,1.11-1.27,0.01,0.01.02,0.05,0.04,0.08q1.89,2.16,3.78,4.34c0.02,0.02.05,0.04,0.07,0.06v0.04Z" transform="translate(-1154 -3513)"/>
</svg>
