<svg id="print" xmlns="http://www.w3.org/2000/svg" width="33" height="25" viewBox="0 0 33 25">
  <defs>
    <style>
      .cls-1 {
        fill: #1a1a1a;
        fill-rule: evenodd;
      }

      .cls-2 {
        fill: none;
        stroke: #000;
        stroke-width: 1px;
      }
    </style>
  </defs>
  <path class="cls-1" d="M1098.19,403.4v-2.945c0-.368.11-0.457,0.52-0.457h8.58c0.41,0,.51.085,0.51,0.457V403.4c0.12,0,.22.013,0.31,0.013,0.63,0,1.27,0,1.9,0a0.875,0.875,0,0,1,.99.866v6.35a0.868,0.868,0,0,1-.99.866c-0.63,0-1.26,0-1.89,0h-0.32v3.07c0,0.335-.11.43-0.49,0.43h-8.58c-0.44,0-.54-0.084-0.54-0.464,0-.928,0-1.858.01-2.788,0-.192-0.06-0.256-0.29-0.252-0.64.012-1.28,0.007-1.92,0a0.859,0.859,0,0,1-.99-0.86v-6.35a0.871,0.871,0,0,1,1.01-.872c0.62,0,1.25,0,1.87,0C1097.97,403.414,1098.07,403.406,1098.19,403.4Zm9.62,7.48c0.08,0.007.15,0.017,0.22,0.017,0.63,0,1.27,0,1.9,0,0.32,0,.37-0.048.37-0.33v-6.209c0-.295-0.05-0.333-0.39-0.334-0.41,0-.82,0-1.23,0h-12.53c-0.43,0-.45.017-0.45,0.4v6.115c0,0.33.03,0.359,0.42,0.36h1.79c0.08,0,.17-0.007.26-0.011v-2.222c-0.33,0-.64,0-0.95,0a0.357,0.357,0,0,1-.43-0.3,0.341,0.341,0,0,1,.41-0.307c0.06,0,.11,0,0.16,0h11.28a0.7,0.7,0,0,1,.29.017,0.468,0.468,0,0,1,.25.249,0.483,0.483,0,0,1-.2.307,0.58,0.58,0,0,1-.29.035c-0.29,0-.58,0-0.88,0v2.215Zm-8.9-2.2V414.4h0.31c2.52,0,5.04,0,7.56,0,0.26,0,.33-0.056.33-0.285-0.01-1.727,0-3.453,0-5.179a2.444,2.444,0,0,0-.02-0.259h-8.18Zm0.01-8.078c-0.01.069-.02,0.1-0.02,0.129-0.01.835,0,1.671-.01,2.506,0,0.175.11,0.18,0.26,0.18q3.84,0,7.69,0c0.21,0,.27-0.053.27-0.239q-0.015-1.147,0-2.295c0.01-.225-0.07-0.289-0.32-0.289-2.53.009-5.06,0.006-7.59,0.006h-0.28Zm10.44,3.847a0.348,0.348,0,1,1-.36.343A0.343,0.343,0,0,1,1109.36,404.448Zm-1.85.349a0.338,0.338,0,0,1,.35-0.348,0.326,0.326,0,0,1,.33.355,0.344,0.344,0,0,1-.35.339A0.338,0.338,0,0,1,1107.51,404.8ZM1103,413.18h-2.8a0.515,0.515,0,0,1-.29-0.028,0.643,0.643,0,0,1-.23-0.366,0.585,0.585,0,0,1,.28-0.293,0.487,0.487,0,0,1,.24-0.013h5.6a0.451,0.451,0,0,1,.23.012,0.708,0.708,0,0,1,.3.3,0.3,0.3,0,0,1-.24.368,0.987,0.987,0,0,1-.29.024H1103Zm-0.96-1.775q-0.96,0-1.92,0a0.374,0.374,0,0,1-.46-0.338,0.37,0.37,0,0,1,.46-0.365c1.29,0,2.59,0,3.89,0a0.358,0.358,0,0,1,.44.352,0.367,0.367,0,0,1-.44.35C1103.35,411.407,1102.69,411.405,1102.04,411.405Z" transform="translate(-1086.5 -395.5)"/>
  <rect id="Rounded_Rectangle_545_copy" data-name="Rounded Rectangle 545 copy" class="cls-2" x="0.5" y="0.5" width="32" height="24" rx="4" ry="4"/>
</svg>
