<svg xmlns="http://www.w3.org/2000/svg" width="15" height="7.97" viewBox="0 0 15 7.97">
  <defs>
    <style>
      .cls-1 {
        fill: #fff;
        fill-rule: evenodd;
      }
    </style>
  </defs>
  <path id="READMORE" class="cls-1" d="M945,1822.86a1.086,1.086,0,0,1,.4-0.63,1.1,1.1,0,0,1,1.291-.01,1.315,1.315,0,0,1,.206.18q2.739,2.55,5.476,5.12a1.848,1.848,0,0,0,.176.15,0.441,0.441,0,0,1,.088-0.14q2.762-2.6,5.526-5.17a1.111,1.111,0,0,1,1.149-.29,0.96,0.96,0,0,1,.509,1.5c-0.047.05-.1,0.11-0.153,0.16q-3.183,2.985-6.368,5.95a1.074,1.074,0,0,1-1.323.19,1.638,1.638,0,0,1-.293-0.22c-2.062-1.93-4.121-3.85-6.184-5.78a1.441,1.441,0,0,1-.5-0.74v-0.27Z" transform="translate(-945 -1822.03)"/>
</svg>
