<svg xmlns="http://www.w3.org/2000/svg" width="16.844" height="24.94" viewBox="0 0 16.844 24.94">
  <defs>
    <style>
      .cls-1 {
        fill: #797878;
        fill-rule: evenodd;
      }
    </style>
  </defs>
  <path id="SAVE" class="cls-1" d="M932.878,992.469c0,3.791-.009,7.581,0,11.371a0.971,0.971,0,0,1-.465,1,0.82,0.82,0,0,1-.97-0.25c-2.217-1.94-4.454-3.87-6.671-5.817a0.383,0.383,0,0,0-.539-0.075,0.444,0.444,0,0,0-.075.075c-2.227,1.947-4.454,3.877-6.681,5.817a0.807,0.807,0,0,1-.97.25,0.976,0.976,0,0,1-.455-1V981.1a0.868,0.868,0,0,1,.6-1.069,0.846,0.846,0,0,1,.421-0.011h14.788c0.782,0,1.02.263,1.02,1.123v11.331h0Zm-15.272,9.861c0.178-.15.307-0.25,0.425-0.35q2.9-2.52,5.781-5.03a0.8,0.8,0,0,1,1.316.007l5.761,5c0.128,0.11.267,0.22,0.425,0.36V981.7H917.606v20.627h0Z" transform="translate(-916.031 -980)"/>
</svg>
