<svg xmlns="http://www.w3.org/2000/svg" width="22.218" height="23.155" viewBox="0 0 22.218 23.155">
  <defs>
    <style>
      .cls-1 {
        fill: #797878;
        fill-rule: evenodd;
      }
    </style>
  </defs>
  <path id="SHARE" class="cls-1" d="M954.781,988.4l5.565-3.026c0.269-.147.531-0.3,0.808-0.436a0.329,0.329,0,0,0,.2-0.457,4.056,4.056,0,0,1,2.88-4.962l0.109-.027a4.181,4.181,0,0,1,5.077,3.014,4.077,4.077,0,0,1-3.067,4.886l-0.145.031a4.132,4.132,0,0,1-3.871-1.2c-0.069-.068-0.133-0.142-0.225-0.241-0.435.235-.863,0.465-1.289,0.7-1.69.919-3.376,1.843-5.07,2.753a0.366,0.366,0,0,0-.245.457,0.344,0.344,0,0,0,.021.053,3.632,3.632,0,0,1-.013,2.071,0.293,0.293,0,0,0,.123.4,0.331,0.331,0,0,0,.033.015q3.151,1.7,6.3,3.421a0.159,0.159,0,0,0,.068.026,10.744,10.744,0,0,1,1.4-1,4,4,0,0,1,4.5.4,3.78,3.78,0,0,1,1.462,4.128,3.905,3.905,0,0,1-3.25,3.043,4.094,4.094,0,0,1-4.808-5.012,0.31,0.31,0,0,0-.138-0.447q-3.17-1.71-6.33-3.437a0.577,0.577,0,0,0-.1-0.036,4.274,4.274,0,0,1-6.019.486c-0.1-.085-0.2-0.175-0.288-0.269a4.033,4.033,0,0,1,.089-5.661,4.271,4.271,0,0,1,6.035.119C954.657,988.261,954.721,988.331,954.781,988.4Zm13.348-4.968a2.768,2.768,0,1,0-2.765,2.754A2.769,2.769,0,0,0,968.129,983.435Zm0,15.058a2.768,2.768,0,1,0-2.858,2.677h0.054a2.753,2.753,0,0,0,2.8-2.676h0Zm-16.616-10.249a2.708,2.708,0,1,0,2.764,2.724,2.735,2.735,0,0,0-2.747-2.723h-0.017Z" transform="translate(-947.344 -979.375)"/>
</svg>
