<svg xmlns="http://www.w3.org/2000/svg" width="18.718" height="20.438" viewBox="0 0 18.718 20.438">
  <defs>
    <style>
      .cls-1 {
        fill: #fff;
        fill-rule: evenodd;
      }
    </style>
  </defs>
  <path id="subscribe_icon" class="cls-1" d="M492.161,980.567c0.045,0.024.09,0.05,0.136,0.071a0.813,0.813,0,0,1,.509.748c0.01,0.265.008,0.532,0,.8a0.152,0.152,0,0,0,.151.183,5.919,5.919,0,0,1,4.844,4.7,7.265,7.265,0,0,1,.117,1.287c0.024,0.9-.018,1.8.038,2.691a5.451,5.451,0,0,0,1.894,3.829,1.625,1.625,0,0,1,.62,1.075,1.485,1.485,0,0,1-1.451,1.653c-0.053,0-.106,0-0.16,0q-6.9,0-13.8,0a1.553,1.553,0,0,1-1.312-.589,1.487,1.487,0,0,1,.252-2.072,5.856,5.856,0,0,0,1.362-1.728,5.776,5.776,0,0,0,.635-2.689c0-.817-0.009-1.636.006-2.453a5.946,5.946,0,0,1,4.921-5.7,0.183,0.183,0,0,0,.191-0.229c-0.011-.159.01-0.32,0-0.478a0.963,0.963,0,0,1,.651-1.1h0.4Zm-9.56,7.983a10.5,10.5,0,0,1,3.049-7.04,0.845,0.845,0,0,1,.9-0.264,0.816,0.816,0,0,1,.6.683,0.856,0.856,0,0,1-.279.774,8.888,8.888,0,0,0-2.578,6.03,2.285,2.285,0,0,1-.036.455,0.844,0.844,0,0,1-1.651-.062A4.1,4.1,0,0,1,482.6,988.55Zm18.724,0a4.138,4.138,0,0,1,0,.557,0.83,0.83,0,0,1-.9.724,0.84,0.84,0,0,1-.785-0.831,9.24,9.24,0,0,0-.479-2.9,8.83,8.83,0,0,0-1.937-3.22c-0.082-.088-0.167-0.172-0.245-0.263a0.841,0.841,0,0,1,.048-1.171,0.821,0.821,0,0,1,1.17,0,12.84,12.84,0,0,1,1.081,1.251A10.371,10.371,0,0,1,501.325,988.546Zm-12.478,9.907h6.216c0,1.161-1.492,2.467-2.9,2.547A3.194,3.194,0,0,1,488.847,998.453Z" transform="translate(-482.594 -980.562)"/>
</svg>
