<svg xmlns="http://www.w3.org/2000/svg" width="344.5" height="66" viewBox="0 0 344.5 66">
  <defs>
    <style>
      .cls-1 {
        stroke: #fff;
        stroke-width: 1px;
      }

      .cls-1, .cls-2, .cls-3 {
        fill-rule: evenodd;
      }

      .cls-2 {
        fill: #fff;
      }

      .cls-3 {
        fill: #d82027;
      }
    </style>
  </defs>
  <path id="Shape_1_copy" data-name="Shape 1 copy" class="cls-1" d="M123,224.143A5.011,5.011,0,0,0,117.887,219q-38.4-.006-76.794,0a5.008,5.008,0,0,0-5.084,5.122q-0.006,27.38,0,54.758a5.474,5.474,0,0,0,.151,1.3A5,5,0,0,0,41.145,284q19.161,0,38.322,0,19.186,0,38.372,0a5.014,5.014,0,0,0,5.16-5.147Q123,251.5,123,224.143Z" transform="translate(-35.5 -218.5)"/>
  <path id="Shape_2_copy" data-name="Shape 2 copy" class="cls-2" d="M97.947,269.524v1.19H84.318v-1.169c0.6-.086,1.2-0.13,1.779-0.263a2.709,2.709,0,0,0,2.334-2.939q0-13.5,0-26.993a2.754,2.754,0,0,0-2.465-3.042c-0.534-.113-1.085-0.151-1.654-0.227v-1.157h0.583c4.433,0.007,8.866-.009,13.3.03a17.056,17.056,0,0,1,7.491,1.591,8.155,8.155,0,0,1,4.856,8.254,8.694,8.694,0,0,1-6.276,8.17c-0.766.267-1.56,0.453-2.407,0.695,0.439,0.6.867,1.2,1.3,1.783q3.9,5.313,7.8,10.621c0.248,0.338.506,0.669,0.781,0.984a5.837,5.837,0,0,0,4.152,2.414v1.29c-0.37,0-.732,0-1.093,0-2.074-.021-4.148-0.062-6.221-0.055a1.1,1.1,0,0,1-1.026-.519q-5.474-7.709-10.97-15.4a0.889,0.889,0,0,0-.864-0.435c-0.65.031-1.3,0.009-2.037,0.009v0.61q0,5.565,0,11.129a3.023,3.023,0,0,0,2.886,3.291C97.007,269.441,97.455,269.475,97.947,269.524Zm-4.271-17.582a17.57,17.57,0,0,0,8.02-1.455,5.661,5.661,0,0,0,3.018-4.038,9.946,9.946,0,0,0-.1-4.439,5.59,5.59,0,0,0-2.975-3.787,11.3,11.3,0,0,0-7.044-.792,0.836,0.836,0,0,0-.744.717,7.726,7.726,0,0,0-.17,1.391c-0.013,3.958-.007,7.916-0.007,11.874v0.529ZM61.936,239.954l-2.107-2.423a12.266,12.266,0,0,1,3.207-1.877c6.575-2.649,15.4-1,19.467,7.328a21.015,21.015,0,0,1,0,19.231,14.855,14.855,0,0,1-23.887,4.142c-0.106-.1-0.2-0.22-0.331-0.365l2.887-2.329c0.384,0.489.737,0.954,1.1,1.406a8.732,8.732,0,0,0,6.047,3.5c3.426,0.326,5.982-1.2,7.861-3.972a16.419,16.419,0,0,0,2.371-6.37,30.108,30.108,0,0,0-.434-13.322,14.679,14.679,0,0,0-2.444-5.148c-3.554-4.715-10.664-3.923-13.48-.106C62.14,239.728,62.07,239.8,61.936,239.954Z" transform="translate(-35.5 -218.5)"/>
  <path id="Shape_3_copy" data-name="Shape 3 copy" class="cls-3" d="M48.617,272.931c-9.7-12.569-8.268-33.324,3.493-43.68l2.588,2.954a26.5,26.5,0,0,0-8.864,18.563,28.255,28.255,0,0,0,5.788,19.855Zm7.509-39.09,2.338,2.672a21.931,21.931,0,0,0-1.967,30.33l-2.8,2.15C45.283,259.389,45.64,243.1,56.127,233.841Zm1.849,31.9a16.116,16.116,0,0,1-2.352-3.341,19.816,19.816,0,0,1-2.25-8.136,21.508,21.508,0,0,1,2.565-12.284,14.139,14.139,0,0,1,3.607-4.227c0.653,0.745,1.309,1.48,1.938,2.237a0.557,0.557,0,0,1-.092.425c-0.708,1.217-1.529,2.38-2.127,3.648-2.741,5.816-2.383,11.577.463,17.256q0.27,0.54.573,1.063c0.2,0.347.422,0.682,0.66,1.064Zm4.859-24.213c0.712,0.818,1.386,1.65,2.124,2.421a1.116,1.116,0,0,1,.2,1.442,16.539,16.539,0,0,0,.138,13.962,0.624,0.624,0,0,1-.216.945c-0.886.627-1.729,1.316-2.592,1.983A19.492,19.492,0,0,1,62.835,241.531Zm3.03,10.823a3.107,3.107,0,1,1,6.128.236,3.312,3.312,0,0,1-2.333,2.921,3.1,3.1,0,0,1-3.772-2.8C65.871,252.562,65.868,252.411,65.865,252.354Z" transform="translate(-35.5 -218.5)"/>
  <path id="Shape_4_copy" data-name="Shape 4 copy" class="cls-2" d="M348.228,236.865c-1.8-.052-3.592-0.109-5.38-0.046a0.6,0.6,0,0,1,.056.194c0.07,0.861.025,1.731,0.025,2.742-0.265-.2-0.406-0.293-0.527-0.406-4.688-4.381-12.588-3.287-16.414,1.386a15.813,15.813,0,0,0-3.3,12.638,10.548,10.548,0,0,0,3.63,6.651,1.535,1.535,0,0,1,.623,1.318,10.179,10.179,0,0,0,2.992,7.642c3.048,3.039,7.14,2.819,9.874-.519,2.687-3.282,3.152-9.327.985-12.971a9.48,9.48,0,0,0-.919-1.286c-3.418-4.01-7.39-3.471-10.655.1-0.189.206-.351,0.437-0.641,0.8a12.433,12.433,0,0,1-.69-1.878,10.026,10.026,0,0,1,1.269-7.2,6.939,6.939,0,0,1,11.51-.849,8.236,8.236,0,0,1,1.908,5.182c0.036,1.43.007,2.86,0.007,4.334h5.64v-1.03c0-5.461-.015-10.923.016-16.384C348.239,237.143,348.235,237,348.228,236.865Zm-15.4,21.2c0.992-1.408,2.559-1.456,3.411.03a18.984,18.984,0,0,1,1.154,3.143l-0.24.084a4.965,4.965,0,0,1-.982,3.3,1.869,1.869,0,0,1-3.179-.008A6.106,6.106,0,0,1,332.824,258.064Zm-69.571,12.642-3.269,3.873c-0.373-.434-0.71-0.821-1.043-1.211-1.371-1.606-2.727-3.224-4.119-4.811a1.124,1.124,0,0,1-.215-1.255,32.7,32.7,0,0,0,1.059-16.924,11.6,11.6,0,0,0-2.219-4.647c-1.973-2.548-4.514-3.772-7.7-2.923a7.569,7.569,0,0,0-5.794,6.292,20.8,20.8,0,0,0-.046,4.458,6.173,6.173,0,0,0,.527,1.544c0.292-.4.475-0.653,0.658-0.9a6.366,6.366,0,0,1,9.679-1,9.56,9.56,0,0,1,3.218,7.166c0.066,2.945-.384,5.743-2.318,8.106-2.733,3.34-6.83,3.549-9.877.506a10.059,10.059,0,0,1-2.981-7.383,1.859,1.859,0,0,0-.8-1.655,9.71,9.71,0,0,1-3.5-6.6,15.912,15.912,0,0,1,3.648-12.718c4.4-5.184,14.83-6.2,19.881,1.791a23.388,23.388,0,0,1,3.53,14.009A33.041,33.041,0,0,1,259.847,266a1.133,1.133,0,0,0,.211.912C261.087,268.186,262.163,269.422,263.253,270.706Zm-14.235-9.443,0.226-.077a18.769,18.769,0,0,0-1.072-3c-0.883-1.589-2.488-1.574-3.509-.078a6.1,6.1,0,0,0,.178,6.472,1.877,1.877,0,0,0,3.231-.014A5.026,5.026,0,0,0,249.018,261.263Zm108.155-6.137,0.649-.9a6.374,6.374,0,0,1,9.739-.992,9.555,9.555,0,0,1,3.176,7.1c0.073,2.977-.383,5.8-2.35,8.183a6.3,6.3,0,0,1-9.819.487,10.112,10.112,0,0,1-3.008-7.549,1.585,1.585,0,0,0-.708-1.435,9.757,9.757,0,0,1-3.6-6.733,15.941,15.941,0,0,1,3.575-12.573c4.4-5.283,14.879-6.3,19.945,1.671a23.29,23.29,0,0,1,3.557,13.828,33.263,33.263,0,0,1-1.721,9.757,1.231,1.231,0,0,0,.233.983c1.008,1.257,2.069,2.471,3.159,3.756l-3.276,3.878c-1.818-2.134-3.6-4.194-5.327-6.3a1.352,1.352,0,0,1,0-1.026,34.142,34.142,0,0,0,1.189-16.166,12.133,12.133,0,0,0-2.318-5.267c-1.965-2.588-4.508-3.871-7.739-3.027a7.569,7.569,0,0,0-5.822,6.267,20.662,20.662,0,0,0-.057,4.458A6.705,6.705,0,0,0,357.173,255.126Zm8.592,6.155L366,261.2a18.845,18.845,0,0,0-1.174-3.136c-0.84-1.439-2.378-1.391-3.361-.032a6.072,6.072,0,0,0,.161,6.614,1.857,1.857,0,0,0,3.123.012A4.967,4.967,0,0,0,365.765,261.281Zm-54.347,9.8h-5.313V267.4a9.761,9.761,0,0,1-5,3.284c-5.526,1.588-11.067-1.274-12.5-6.514a10.292,10.292,0,0,1,.087-6.157,0.983,0.983,0,0,0-.108-0.837c-3.135-3.094-3.758-9.705-1.065-14.242,3.031-5.1,8.387-7.454,13.653-5.927a8.586,8.586,0,0,1,4.561,3.254,1.792,1.792,0,0,1,.15.308l0.187-.105v-3.806h5.356v34.426Zm-19.213-17.872a7.3,7.3,0,0,1,5.889-.555,1.065,1.065,0,0,1,.681.518c0.052,1.741.031,3.485,0.031,5.292-0.416-.12-0.689-0.211-0.967-0.277A3.156,3.156,0,0,0,294,259.681a3.512,3.512,0,0,0,.951,4.222,5.518,5.518,0,0,0,1.908,1.021c3.677,1.036,8.273-1.791,8.974-5.769a40.152,40.152,0,0,0,.229-7.015,13.777,13.777,0,0,0-.388-3.131c-0.984-4.135-4.1-6.6-8.034-6.424C292.578,242.808,289.466,248.782,292.205,253.211Zm-21.295-3.187a39.749,39.749,0,0,1,4.732.557,10.661,10.661,0,0,1,8.14,10.4c0.079,2.649-.319,5.164-2.109,7.252a8.258,8.258,0,0,1-12.529.046,14.757,14.757,0,0,1-3.71-8.2,29.029,29.029,0,0,1,1.483-15.057,14.941,14.941,0,0,1,4.265-6.148,9.219,9.219,0,0,1,13.83,1.92l-3.211,4.366c-0.335-.392-0.621-0.743-0.927-1.078a4.226,4.226,0,0,0-6.3-.514A11.14,11.14,0,0,0,270.91,250.024Zm-0.806,5.8c0.072,2.818.466,5.477,2.259,7.66A5.177,5.177,0,0,0,274.645,265c1.793,0.592,3.45-.237,3.753-1.853,0.507-2.709-.173-5.406-3.161-6.706A11.293,11.293,0,0,0,270.1,255.827Zm44.455-19.208h5.253v34.467h-5.253V236.619Zm-53.877-2.686c-1.762,0-3.419.012-5.076-.019a0.825,0.825,0,0,1-.48-0.412c-3.036-4.887-9.175-4.889-12.219-.01a0.955,0.955,0,0,1-.647.428c-1.635.036-3.271,0.02-4.91,0.02,0.374-4.635,5.932-9.467,11.164-9.683C255.215,223.979,259.763,229.473,260.682,233.933Zm-45.528,37.159h-5.271v-1.038c0-5.961.047-11.922-.031-17.881a17.483,17.483,0,0,0-.692-4.844,6.559,6.559,0,0,0-6.792-4.753,2.913,2.913,0,0,0-2.906,2.161c0.928,0.206,1.867.38,2.781,0.643a0.809,0.809,0,0,1,.441.651c-0.295,1.461-.658,2.909-1.018,4.433-2.1-.678-4.219-1.4-5.905.68a4.744,4.744,0,0,0-.745,4.739,7.734,7.734,0,0,1,3.433-3.429,5.848,5.848,0,0,1,7.391.993c2.612,2.569,3.277,5.8,2.98,9.3a10.261,10.261,0,0,1-2.532,6.062,6.256,6.256,0,0,1-9.019.728,9.554,9.554,0,0,1-3.567-7,1.4,1.4,0,0,0-.742-1.248,7.389,7.389,0,0,1-3.4-5.864,9.778,9.778,0,0,1,3.542-9.176,1.616,1.616,0,0,0,.381-0.993,9.862,9.862,0,0,1,6.829-8.338c3.022-.9,7.337-0.023,9.2,3.033a1.748,1.748,0,0,1,.118.328l0.233-.137v-3.517h5.29v34.465Zm-16.715-9.834a19.2,19.2,0,0,0,1.138,3.094c0.9,1.563,2.515,1.514,3.53.009a5.857,5.857,0,0,0-.174-6.238c-0.954-1.26-2.435-1.317-3.273.029A17.873,17.873,0,0,0,198.439,261.258Zm-50.109-.939c-1.073-.925-2.128-1.8-3.131-2.74a0.912,0.912,0,0,1,.006-0.816,12.389,12.389,0,0,1,4.483-4.488,13.9,13.9,0,0,0,2.146-1.51,3.682,3.682,0,0,0,1.209-3.82,1.4,1.4,0,0,0-2.313-.666,1,1,0,0,0-.272,1.237,3,3,0,0,1-2.438,4.194,3.549,3.549,0,0,1-3.584-3.072,7.545,7.545,0,0,1,8.642-8.21,7.1,7.1,0,0,1,5.261,5.945,7.937,7.937,0,0,1-2.7,7.839c3.624,2.749,3.72,6.431,2.578,10.21-1.186,3.927-4.165,6.036-8.151,6.513-7.471.894-13.131-2.941-15.213-10.4-2.249-8.056-.424-18.561,8.019-24.822,0.442-.327.912-0.615,1.433-0.964,1.09,1.51,2.127,2.948,3.188,4.42-0.534.42-1.037,0.773-1.492,1.178-5.572,4.968-7.8,11.11-6.064,18.44,0.834,3.524,2.992,6.106,6.714,6.924a6.6,6.6,0,0,0,4.831-.773,4.353,4.353,0,0,0,2.3-4.4,2.09,2.09,0,0,0-1.327-2.08,2.631,2.631,0,0,0-2.871.448C149.162,259.3,148.808,259.775,148.33,260.319Zm37.554-2.489c-0.229-.042-0.429-0.063-0.62-0.117-1.234-.345-2.467-0.7-3.745-1.059a15.32,15.32,0,0,0-.028-8.684,7.435,7.435,0,0,0-8.386-5.374,7.874,7.874,0,0,0-6.542,7.235,7.049,7.049,0,0,0,.524,4.011l2.27-3,3.944,3.169c-0.566.718-1.133,1.348-1.6,2.045a9.191,9.191,0,0,0-1.779,6.716,3.246,3.246,0,1,0,6.265-1.6c-0.323.436-.609,0.824-0.94,1.272l-3.758-3.011,6.315-8.566,3.523,2.965-1.94,2.985a9.029,9.029,0,0,1,1.526,8.418,7.744,7.744,0,0,1-7.873,5.881,8.078,8.078,0,0,1-8-6.272,21.242,21.242,0,0,1-.264-4.875,2,2,0,0,0-.663-1.716,10.032,10.032,0,0,1-3.037-7.268,14.014,14.014,0,0,1,5.51-12.16,12.8,12.8,0,0,1,19.3,5.95,17.624,17.624,0,0,1,.294,12.4A7.075,7.075,0,0,1,185.884,257.83Zm37.964-21.2V271.08H218.6V236.632h5.253Zm-60.755-2.7a12.448,12.448,0,0,1,11.931-9.7c5.22,0.1,10.538,4.492,11.422,9.508a5.072,5.072,0,0,1-.652.1c-0.789.028-1.585-.021-2.366,0.066a3.145,3.145,0,0,1-3.291-1.469,6.809,6.809,0,0,0-11.268.831,1.127,1.127,0,0,1-1.157.673C166.2,233.905,164.675,233.934,163.093,233.934Z" transform="translate(-35.5 -218.5)"/>
  <path id="Shape_5_copy" data-name="Shape 5 copy" class="cls-3" d="M177.716,277.558c0,2.119-1.192,3.447-3.1,3.446a3.147,3.147,0,0,1-3.241-3.273c0-2.091,1.3-3.612,3.1-3.618A3.134,3.134,0,0,1,177.716,277.558Z" transform="translate(-35.5 -218.5)"/>
  <path id="Shape_6_copy" data-name="Shape 6 copy" class="cls-3" d="M343.11,236.23c0.113-.006,5.269.031,5.381,0.035a3.3,3.3,0,0,0-.577-1.333c-0.48-.655-0.846-1.414-1.314-2.215,0.336-.095.591-0.169,0.848-0.239a11.974,11.974,0,0,0,5.477-2.732,10.814,10.814,0,0,0,1.59-2.484,1.055,1.055,0,0,0,.032-0.867c-0.8-1.136-1.659-2.222-2.558-3.4a5.287,5.287,0,0,1-3.283,2.925,36.125,36.125,0,0,0-3.86,1.5,17.361,17.361,0,0,0-3.085,1.833,2.337,2.337,0,0,0-.752,2.844C341.613,233.522,342.4,234.857,343.11,236.23Z" transform="translate(-35.5 -218.5)"/>
</svg>
