<svg xmlns="http://www.w3.org/2000/svg" viewBox="0 0 71.81 88.08"><title>Asset 1</title><g id="Layer_2" data-name="Layer 2"><g id="Layer_1-2" data-name="Layer 1"><path d="M71.81,64.73c-.79,1.92-1.48,3.84-2.35,5.68a56.27,56.27,0,0,1-8.59,13,12.16,12.16,0,0,1-7.49,4.46,13.14,13.14,0,0,1-7.1-1.12,24.52,24.52,0,0,0-6.63-2.1,17.58,17.58,0,0,0-8.38,1c-1.46.56-2.89,1.18-4.36,1.7A10,10,0,0,1,16,85.1,48,48,0,0,1,6,71.49,52.15,52.15,0,0,1,0,47c.09-6.52,1.7-12.6,6-17.72a20.91,20.91,0,0,1,15.13-7.81,17.76,17.76,0,0,1,7.48,1.37c1.88.69,3.75,1.43,5.64,2.1a6.26,6.26,0,0,0,4.33,0c2.6-.95,5.17-2,7.82-2.82a20.88,20.88,0,0,1,22.44,7.05c.19.25.37.52.56.77C55.92,38.14,56.77,57.86,71.81,64.73Z"/><path d="M53.28,0C54.5,10.48,45.23,21,35.8,20.18,33.64,12.06,44.4-.4,53.28,0Z"/></g></g></svg>