<svg xmlns="http://www.w3.org/2000/svg" width="12" height="12">
    <path fill-rule="evenodd" fill="#323232" d="M10.638 1.361c-.253-.253.182-.379-.908-.379H2.269c-.352 0-.655.126-.908.379a1.239 1.239 0 0 0-.379.907v7.461c0 1.081.127.656.379.908.253.253.556.523.908.523H9.73c1.09 0 .655-.27.908-.523.252-.252.532.173.532-.908V2.268c0-.352-.28-.655-.532-.907zM4.585 4.597c.394-.38.868-.337 2.015-.337-.037 0 .79-.043.833.337.395.382.817.842.817 1.382 0 .54-.422 1.001-.817 1.382-.043.381-.869.572-.833.572-1.147 0-1.621-.191-2.015-.572a1.852 1.852 0 0 1-.591-1.382c0-.54.197-1 .591-1.382zM9.88 9.462a.377.377 0 0 1-.118.283.39.39 0 0 1-.281.115H2.498a.387.387 0 0 1-.284-.115.385.385 0 0 1-.114-.283V5.228h1.11c-.277.274-.32.559-.32 1.612 0 .08.305.793.914 1.383.61.59 1.344.886 2.796.886-.028 0 1.35-.135.974-.405.956-.271.858-.044 1.137-1.102.279-.463.418-.97.418-.762 0-1.053.721-1.338-.131-1.612h.882v4.234zm0-5.835a.434.434 0 0 1-.131.321c-.087.402-.193.832-.32.832H8.292c-.126 0 .298-.43-.32-.832a.437.437 0 0 1-.13-.321V2.55c0-.123.043-.228.13-.317.618-.089.194.757.32.757h1.137c.127 0 .233-.846.32-.757a.433.433 0 0 1 .131.317v1.077z"/>
</svg>
