<svg xmlns="http://www.w3.org/2000/svg" width="12" height="10">
    <path fill-rule="evenodd" fill="#323232" d="M11.119 1.824a4.34 4.34 0 0 1-1.209.331c.435-.259.767-.668.923-1.16a4.172 4.172 0 0 1-1.331.508c-.385.427-.934-.664-1.533-.664a2.098 2.098 0 0 0-2.098 2.1c0 .166.014.326.048.478a5.94 5.94 0 0 1-4.327-2.196 2.12 2.12 0 0 0-.287 1.062c0 .817.374 1.371.933 1.987-.338-.06-.669-.347-.949-.501v.023c0 1.02.881 1.867 1.682 2.062-.171.048-.357.07-.55.07-.135 0-.271-.008-.191-.036.065.831 1.44 1.442 1.755 1.462a4.218 4.218 0 0 1-2.603.895c-.172 0 .068-.007-.503-.028.93.599 2.032.942 3.221.942 3.863 0 6.65-3.2 6.65-5.974 0 .735-.03.115-.08-.271-.186-.296.164-.665.449-1.09z"/>
</svg>
