<svg xmlns="http://www.w3.org/2000/svg" width="17" height="13">
    <path fill-rule="evenodd" fill="#1D1D1B" d="M16.21 1.783v9.007c-.05.17.69-.676.49-.658-.766.587-1.268 1.15-2.02 1.144-1.797-.015-2.83-.005-5.392-.005h-.1v1.449h.103c.877 0 2.169 0 2.632.01.29 0 .469-.368.34-.109-.07.14.507.203-.344.203H4.392c-.013 0-.027.002-.04-.002-.062-.02-.131-.031-.185-.066.143-.089-.188-.268.133-.427.52-.161-.088.401.087.401.88-.01 1.76-.01 2.883-.01h-.144v-1.449h.104l-5.623.001a1.212 1.212 0 0 1-.666-.17c-.418-.261-.643-.646-.644-1.134C.29 7.278.294 4.588.294 1.897l.001-.032C.331 1.146.897.593 1.602.594c4.37.006 8.741.003 13.111.003.588 0 1.069.353 1.243.915.028.088.044.18.254.271zm-8.052-.435H1.619c-.056 0-.113-.001-.168.01-.264.054-.151.287-.251.578-.1 2.663-.1 5.327.1 7.99 0 .073-.12.834.12.219-.292.25-.091.376.211.376h13.053l.072-.001c1.044-.016.557-.26.557-.585 0-2.656-.001-5.311.002-7.966 0-.337.495-.627-.627-.626-2.177.009-4.353.005-6.53.005zm-.325 10.319h-.001v.216l.002.024c.013.243.073.783.306.793-.03.01.066.01.162 0 .102 0 .17-.48.175-.777a4.707 4.707 0 0 0 0-.504c-.005-.098-.075-.148-.175-.149a5.11 5.11 0 0 0-.082 0c-.314.001-.378.057-.386.173-.005.074-.001.149-.001.224z"/>
</svg>
