<svg id="F_book" xmlns="http://www.w3.org/2000/svg" width="36" height="36" viewBox="0 0 36 36">
  <defs>
    <style>
      .cls-1 {
        fill: #31333a;
      }

      .cls-2 {
        fill: #fff;
        fill-rule: evenodd;
      }
    </style>
  </defs>
  <circle class="cls-1" cx="18" cy="18" r="18"/>
  <path class="cls-2" d="M1210.65,8763.7H1208v-2.83h2.66c0-.16-0.01-0.28,0-0.4a19.67,19.67,0,0,1,.07-2.43,3.377,3.377,0,0,1,3.5-3.02c0.91-.06,1.83.02,2.77,0.04v2.59c-0.34,0-.68,0-1.02.01-0.31,0-.63,0-0.95.02a1.051,1.051,0,0,0-1.15,1.04c-0.04.7-.01,1.4-0.01,2.14h3.05c-0.14.96-.27,1.89-0.4,2.84h-2.66v7.3h-3.21v-7.3Z" transform="translate(-1194 -8745)"/>
</svg>
