<svg xmlns="http://www.w3.org/2000/svg" width="15" height="15" viewBox="0 0 15 15">
  <defs>
    <style>
      .cls-1 {
        fill: #333;
        fill-rule: evenodd;
      }
    </style>
  </defs>
  <path id="T-insta" class="cls-1" d="M1565.5,192c-1.23,0-2.46,0-3.69,0a3.711,3.711,0,0,1-3.81-3.817V180.8a3.708,3.708,0,0,1,3.8-3.8q3.705-.007,7.4,0a3.709,3.709,0,0,1,3.8,3.8v7.38a3.714,3.714,0,0,1-3.81,3.814C1567.96,192,1566.73,192,1565.5,192Zm5.99-7.5v-3.6a2.2,2.2,0,0,0-2.39-2.386q-3.6,0-7.2,0a2.2,2.2,0,0,0-2.39,2.382q-0.015,3.615,0,7.231a2.194,2.194,0,0,0,2.37,2.372q3.615,0,7.23,0a2.2,2.2,0,0,0,2.38-2.368v-3.63Zm-5.99-3.744a3.75,3.75,0,1,1-3.75,3.757A3.719,3.719,0,0,1,1565.5,180.75Zm2.24,3.743a2.24,2.24,0,1,0-2.23,2.249A2.185,2.185,0,0,0,1567.74,184.493Zm1.52-4.5a0.753,0.753,0,1,1-.77.733A0.772,0.772,0,0,1,1569.26,180Z" transform="translate(-1558 -177)"/>
</svg>
