<svg xmlns="http://www.w3.org/2000/svg" width="28" height="28.031" viewBox="0 0 28 28.031">
  <defs>
    <style>
      .cls-1 {
        fill: #fff;
        fill-rule: evenodd;
      }
    </style>
  </defs>
  <path id="SRAECH" class="cls-1" d="M1591.07,361.053a10.979,10.979,0,0,1-14.12-16.633,10.937,10.937,0,0,1,14.02-1.63,10.479,10.479,0,0,1,4.71,7.073,10.792,10.792,0,0,1-1.63,8.164c0.58,0.5,1.15.913,1.64,1.4q2.79,2.747,5.53,5.532a2.284,2.284,0,0,1-.49,3.774,2.2,2.2,0,0,1-2.54-.313c-0.66-.6-1.28-1.247-1.91-1.878-1.37-1.365-2.75-2.723-4.1-4.107C1591.79,362.029,1591.47,361.545,1591.07,361.053Zm-14.29-8.777a8.172,8.172,0,1,0,7.2-8.478A8.258,8.258,0,0,0,1576.78,352.276Z" transform="translate(-1574 -340.969)"/>
</svg>
