<svg id="twitter" xmlns="http://www.w3.org/2000/svg" width="36" height="36" viewBox="0 0 36 36">
  <defs>
    <style>
      .cls-1 {
        fill: #31333a;
      }

      .cls-2 {
        fill: #fff;
        fill-rule: evenodd;
      }
    </style>
  </defs>
  <circle id="Ellipse_1297_copy" data-name="Ellipse 1297 copy" class="cls-1" cx="18" cy="18" r="18"/>
  <path class="cls-2" d="M1252,8768.53a6.849,6.849,0,0,0,4.75-1.35,3.451,3.451,0,0,1-3.06-2.29h1.35c0.01-.03.01-0.05,0.02-0.08a3.484,3.484,0,0,1-1.8-1.17,3.184,3.184,0,0,1-.72-2c0.46,0.12.89,0.24,1.32,0.35a0.405,0.405,0,0,0,.05-0.09,3.293,3.293,0,0,1-1.33-2.38,3.139,3.139,0,0,1,.44-1.91,9.46,9.46,0,0,0,6.8,3.41,3.834,3.834,0,0,1,.13-1.85,3.307,3.307,0,0,1,5.29-1.34,0.483,0.483,0,0,0,.56.12c0.57-.2,1.14-0.4,1.69-0.6a3.221,3.221,0,0,1-1.18,1.67c0.28-.06.56-0.1,0.83-0.17s0.53-.17.79-0.26c0.02,0.03.05,0.05,0.07,0.08-0.44.44-.86,0.9-1.32,1.31a0.758,0.758,0,0,0-.31.62,9.292,9.292,0,0,1-6.72,9.02,9.469,9.469,0,0,1-7.41-.9,1,1,0,0,0-.14-0.08C1252.09,8768.62,1252.07,8768.61,1252,8768.53Z" transform="translate(-1242 -8745)"/>
</svg>
