<svg xmlns="http://www.w3.org/2000/svg" width="54" height="54">
    <path fill-rule="evenodd" fill="#616362" d="M26.56.89C11.968.89.46 11.96.46 26.621c0 14.601 11.449 26.531 26.1 26.531 14.65 0 27.17-11.93 27.17-26.531C53.73 12.2 41.151.89 26.56.89zm0 12.791c5.12 0 8.244 3.68 8.244 8.251 0 4.511-3.677 8.25-8.244 8.25s-8.245-3.739-8.245-8.31c0-4.511 4.205-8.191 8.245-8.191zm0 34.01c-5.042 0-9.669-1.78-13.287-4.748 4.417-4.155 8.423-6.47 13.287-6.47 4.864 0 9.549 2.256 13.286 6.47a20.876 20.876 0 0 1-13.286 4.748z"/>
</svg>
