<svg xmlns="http://www.w3.org/2000/svg" width="18" height="19">
    <defs>
        <linearGradient id="dfc1b45qvb" x1="99.027%" x2="0%" y1="13.917%" y2="0%">
            <stop offset="0%" stop-color="#CA4F09"/>
            <stop offset="100%" stop-color="#E11A51"/>
        </linearGradient>
        <filter filterUnits="userSpaceOnUse" id="gmqurxevma" x="0" y="0" width="18" height="19">
            <feOffset in="SourceAlpha" dy="2"/>
            <feGaussianBlur result="blurOut" stdDeviation="1"/>
            <feFlood flood-color="#000" result="floodOut"/>
            <feComposite operator="atop" in="floodOut" in2="blurOut"/>
            <feComponentTransfer>
                <feFuncA type="linear" slope=".75"/>
            </feComponentTransfer>
            <feMerge>
                <feMergeNode/>
                <feMergeNode in="SourceGraphic"/>
            </feMerge>
        </filter>
    </defs>
    <g filter="url(#gmqurxevma)">
        <path fill-rule="evenodd" fill-opacity=".949" fill="#FFF" d="M14.572 5.69c-.324 0-.586-.911-.586-1.269 0 .229.262-.646.586-.646.324 0 .586.875.586.646 0 .358-.262 1.269-.586 1.269zm-.014.166-1.144 5.685H2.832L1.687 5.856a.705.705 0 0 1 .085-.499c.179.233.543-.378.813-.18L5.55 7.36l2.048-4.522a.628.628 0 0 1 .262-.29c.29-.16.642-.029.787.29l2.048 4.522 2.965-2.183c.133.623.297.283.453.663.316-.678.515-.333.445.016zM8.123 1.832c-.324 0-.587-.288-.587-.646 0-.357.263-.648.587-.648.323 0 .586.291.586.648 0 .358-.263.646-.586.646zM1.673 5.69c-.324 0 .197-.911.197-1.269 0 .229-.521-.646-.197-.646s.587.875.587.646c0 .358-.263 1.269-.587 1.269zm11.726 7.793c0 .358-.262.646-.586.646H3.432c-.324 0-.586-.288-.586-.646v-1.294h10.553v1.294z"/>
    </g>
    <path fill="url(#dfc1b45qvb)" d="M14.572 5.69c-.324 0-.586-.911-.586-1.269 0 .229.262-.646.586-.646.324 0 .586.875.586.646 0 .358-.262 1.269-.586 1.269zm-.014.166-1.144 5.685H2.832L1.687 5.856a.705.705 0 0 1 .085-.499c.179.233.543-.378.813-.18L5.55 7.36l2.048-4.522a.628.628 0 0 1 .262-.29c.29-.16.642-.029.787.29l2.048 4.522 2.965-2.183c.133.623.297.283.453.663.316-.678.515-.333.445.016zM8.123 1.832c-.324 0-.587-.288-.587-.646 0-.357.263-.648.587-.648.323 0 .586.291.586.648 0 .358-.263.646-.586.646zM1.673 5.69c-.324 0 .197-.911.197-1.269 0 .229-.521-.646-.197-.646s.587.875.587.646c0 .358-.263 1.269-.587 1.269zm11.726 7.793c0 .358-.262.646-.586.646H3.432c-.324 0-.586-.288-.586-.646v-1.294h10.553v1.294z"/>
</svg>
