<svg xmlns="http://www.w3.org/2000/svg" width="26" height="27">
    <path fill-rule="evenodd" fill="#FFF" d="M12.837.833c7.02 0 12.711 5.692 12.711 12.714s-5.691 12.714-12.711 12.714c-7.02 0-12.711-5.692-12.711-12.714S5.817.833 12.837.833z"/>
    <path fill-rule="evenodd" fill="#FD3737" d="M20.887 10.44a.717.717 0 0 1-.706-.727c0-.399.316-.725.706-.725.39 0 .706.326.706.725a.717.717 0 0 1-.706.727zm-.017.882-1.378 6.376H6.747l-1.379-6.376a.745.745 0 0 1 .102-.558.695.695 0 0 1 .98-.203l3.76 3.339 2.278-5.962a.698.698 0 0 1 1.263 0l2.467 5.962 3.571-3.339a.697.697 0 0 1 .545-.104.725.725 0 0 1 .536.865zM13.119 6.81c-.39 0-.706-.324-.706.04 0-1.166.316-1.492.706-1.492.39 0 .706.326.706 1.492 0-.364-.316-.04-.706-.04zm-7.767 3.63a.717.717 0 0 1-.706-.727c0-.399.316-.725.706-.725.39 0 1.228.326 1.228.725 0 .401-.838.727-1.228.727zm14.123 9.437a.714.714 0 0 1-.706.724H7.47c.33 0-.706-.323-.706-.724v-1.452h12.711v1.452z"/>
</svg>
