<svg xmlns="http://www.w3.org/2000/svg" width="19" height="19">
    <path fill-rule="evenodd" fill="#0068D4" d="M9.459.88a9.02 9.02 0 1 1 .001 18.039A9.02 9.02 0 0 1 9.459.88z"/>
    <path fill-rule="evenodd" fill-opacity=".949" fill="#FFF" d="M13.904 7.619c-.23 0-.417-.206-.417-.46 0-.253.187-.46.417-.46.231 0 .417.207.417.46 0 .254-.186.46-.417.46zm-.01.56-.084 4.041H5.555l-.813-4.041c-.025.391-.003-.251.06-.355.127-.211.386-.269.578-.128l2.109 1.552L8.945 6.33c.04-.385.565-.458.186-.503.206-.114.457-.021.56.503l1.456 2.918 2.109-1.552a.389.389 0 0 1 .322-.066c.225.055.366.301.316.549zM9.318 5.318c.562 0-.417-.205-.417-.459s.979-.461.417-.461c.23 0 .417.207.417.461s-.187.459-.417.459zM4.732 7.619c-.231 0-.417-.206-.417-.46 0-.253.186-.46.417-.46.23 0 .417.207.417.46 0 .254-.187.46-.417.46zm8.968 5.982c0 .255-.816 1.009-1.047 1.009h-6.67c-.231 0-.417-.754-.417-1.009v-.92H13.7v.92z"/>
</svg>
