<svg xmlns="http://www.w3.org/2000/svg" width="20" height="23" viewBox="0 0 20 23">
  <defs>
    <style>
      .cls-1 {
        fill: #090;
        stroke: #fff;
        stroke-linejoin: round;
        stroke-width: 1px;
        fill-rule: evenodd;
      }
    </style>
  </defs>
  <path id="green" class="cls-1" d="M1092.42,654.08h-0.51c-1.44,0-2.88.011-4.32-.014a0.743,0.743,0,0,1-.57-0.3,0.7,0.7,0,0,1,.2-0.575q4.41-4.475,8.84-8.924c0.35-.357.54-0.357,0.9,0,2.96,2.976,5.93,5.953,8.88,8.942a0.661,0.661,0,0,1,.17.58,0.685,0.685,0,0,1-.54.277c-1.44.023-2.88,0.013-4.32,0.013h-0.52v11.19c0,0.613-.12.729-0.72,0.729h-6.75c-0.62,0-.74-0.126-0.74-0.764V654.08Z" transform="translate(-1086.5 -643.5)"/>
</svg>
