<svg xmlns="http://www.w3.org/2000/svg" width="19" height="22" viewBox="0 0 19 22">
  <defs>
    <style>
      .cls-1 {
        fill: #e1261c;
        fill-rule: evenodd;
      }
    </style>
  </defs>
  <path id="RED" class="cls-1" d="M1100.58,806.92h0.51c1.44,0,2.88-.011,4.32.014a0.743,0.743,0,0,1,.57.3,0.7,0.7,0,0,1-.2.575q-4.41,4.475-8.84,8.924c-0.35.357-.54,0.357-0.9,0-2.96-2.975-5.93-5.952-8.88-8.941a0.661,0.661,0,0,1-.17-0.58,0.685,0.685,0,0,1,.54-0.277c1.44-.023,2.88-0.013,4.32-0.013h0.52V795.73c0-.613.12-0.729,0.72-0.729h6.75c0.62,0,.74.125,0.74,0.764V806.92Z" transform="translate(-1087 -795)"/>
</svg>
