<svg id="SUCI_C_" data-name="SUCI (C)" xmlns="http://www.w3.org/2000/svg" width="162.438" height="162.438" viewBox="0 0 162.438 162.438">
  <defs>
    <style>
      .cls-1 {
        fill: #f72c0c;
        stroke: #acacac;
        stroke-width: 2px;
      }

      .cls-2 {
        fill: #fff;
      }

      .cls-2, .cls-3 {
        fill-rule: evenodd;
      }
    </style>
  </defs>
  <circle id="Ellipse_1_copy" data-name="Ellipse 1 copy" class="cls-1" cx="81.219" cy="81.219" r="80.219"/>
  <path class="cls-2" d="M87.991,63.944L81.225,57.01c0.142-.156.256-0.3,0.391-0.425q2.968-2.708,5.94-5.412c0.519-.474,1.045-0.942,1.541-1.439a1.479,1.479,0,0,1,1.514-.4,20.132,20.132,0,0,0,3.338.625A6.913,6.913,0,0,0,98.484,48.8a0.455,0.455,0,0,1,.415-0.044,20.676,20.676,0,0,1,3.087,3.306c-1.005.84-1.963,1.651-2.933,2.447-0.927.762-1.866,1.509-2.8,2.264-0.618.5-.628,0.6-0.028,1.141,1.565,1.413,3.154,2.8,4.7,4.23,1.441,1.332,2.817,2.735,4.265,4.058,3.266,2.983,6.556,5.937,9.842,8.9,0.643,0.579.854,0.589,1.4-.071a18.673,18.673,0,0,0,4.029-7.864,23.93,23.93,0,0,0,.72-6.81,18.346,18.346,0,0,0-1.866-7.1,22.645,22.645,0,0,0-3.467-5.581,25.093,25.093,0,0,0-7.23-5.548,25.739,25.739,0,0,0-7.7-2.641c-0.7-.1-0.8-0.29-0.609-1.055,0.457,0.029.93,0.045,1.4,0.091a37.381,37.381,0,0,1,6.432.971,23.186,23.186,0,0,1,6.192,2.477,38.987,38.987,0,0,1,6.483,4.863,25.126,25.126,0,0,1,4.839,6.535,27.563,27.563,0,0,1,2.772,9.938,31,31,0,0,1,.089,6.559,20.919,20.919,0,0,1-3.85,10.353,11.368,11.368,0,0,1-1.143,1.274c-0.276.279-.6,0.509-0.952,0.8,0.97,0.917,1.825,1.716,2.669,2.526,1.278,1.227,2.556,2.455,3.82,3.7a2.994,2.994,0,0,1,.606,3.525,5.764,5.764,0,0,1-2.077,2.392,3.756,3.756,0,0,1-4.35-.263,40.828,40.828,0,0,1-5.066-5.175c-0.473-.559-0.992-1.078-1.492-1.613a0.729,0.729,0,0,0-1.01-.119c-1.683.9-3.365,1.812-5.09,2.627a16.98,16.98,0,0,1-5.192,1.32,45.127,45.127,0,0,1-5.532.422,21.832,21.832,0,0,1-3.84-.541,39.273,39.273,0,0,1-6.81-2.046,29.364,29.364,0,0,1-11.631-8.2,47,47,0,0,1-4.193-5.693c-0.121-.184-0.238-0.37-0.356-0.555a0.961,0.961,0,0,0-1.123-.549,1.746,1.746,0,0,0-1.291,1.08,0.594,0.594,0,0,0,.15.428c0.329,0.445.679,0.874,1.067,1.367a3.6,3.6,0,0,1-.5.152,5.9,5.9,0,0,0-3.407,1.918,24.962,24.962,0,0,0-3.125,4.021c-0.36.553-.707,1.118-1.11,1.638a7.454,7.454,0,0,1-4.172,2.81,4.445,4.445,0,0,1-5.387-3.175,4.776,4.776,0,0,1,2.076-5.222c0.886-.632,1.89-1.095,2.831-1.649,1.9-1.118,3.8-2.221,5.676-3.383a5.649,5.649,0,0,0,2.089-2.267c0.335-.659.431-0.646,0.932-0.123,0.662,0.691.8,0.745,1.54,0.155,1.2-.96,2.351-1.975,3.513-2.979,0.426-.369.822-0.773,1.275-1.2,0.245,0.378.455,0.674,0.637,0.987A29.159,29.159,0,0,0,85.981,79.154a35.772,35.772,0,0,0,5.656,2.76,21.063,21.063,0,0,0,5.634,1.153,43.322,43.322,0,0,0,4.681.051,17.643,17.643,0,0,0,6.032-1.512,10.858,10.858,0,0,0,1.56-.784c0.581-.36.583-0.522,0.116-1.013-0.828-.871-1.668-1.73-2.5-2.6-2.2-2.312-4.385-4.646-6.609-6.937-2.9-2.985-5.825-5.941-8.745-8.9a0.588,0.588,0,0,0-.983-0.052c-0.553.478-1.061,1.008-1.6,1.508C88.838,63.191,88.434,63.545,87.991,63.944Zm-10.8-8.6a10.585,10.585,0,0,1-.932-0.945q-2.365-3.062-4.693-6.154a1,1,0,0,0-1.005-.458c-1.084.141-2.167,0.308-3.255,0.4-1.613.132-3.231,0.207-4.847,0.3a4.538,4.538,0,0,1-.554-0.05c0.273-.319.465-0.583,0.7-0.805,1.464-1.414,2.94-2.816,4.4-4.23,0.606-.586.618-0.611,0.09-1.3-1.535-2-3.1-3.979-4.628-5.983-0.492-.645-0.916-1.343-1.371-2.016l0.123-.155c0.536,0.162,1.082.294,1.606,0.49,2.718,1.013,5.443,2.008,8.136,3.083A1.9,1.9,0,0,0,73.4,37c2.036-2.187,4.19-4.263,6.3-6.379,0.182-.182.388-0.339,0.708-0.616a5.16,5.16,0,0,1,.1,1.041c-0.382,2.926-.788,5.848-1.179,8.772-0.093.694-.034,0.759,0.651,1.023,2.354,0.9,4.711,1.8,7.057,2.725,0.8,0.313,1.567.694,2.349,1.043q0,0.087,0,.173c-0.735.148-1.467,0.313-2.2,0.44q-3.12.539-6.245,1.051c-0.661.11-1.325,0.2-1.989,0.294a0.655,0.655,0,0,0-.643.6c-0.123.96-.243,1.921-0.355,2.882q-0.3,2.6-.6,5.2Z" transform="translate(-11.281 -15.281)"/>
  <path class="cls-3" d="M72.8,104.733H83.44c0,5.668,0,11.179,0,16.69,0,2.45-.119,4.91.062,7.348,0.064,0.864.857,1.676,1.318,2.512,0.515-.87,1.462-1.733,1.478-2.612,0.124-6.9.062-13.8,0.08-20.695,0-1.059.127-2.118,0.2-3.242H97.258c0,5.024,0,9.9,0,14.772,0,2.542.008,5.083-.022,7.625-0.066,5.58-2.053,8.122-7.677,9.222a19.591,19.591,0,0,1-12.391-1.194c-2.388-1.125-4.272-2.842-4.318-5.52C72.707,121.412,72.8,113.181,72.8,104.733Zm52.122,13.307H114.445a61.288,61.288,0,0,0-.069-6.263,3.134,3.134,0,0,0-1.48-2.3c-1.481-.531-2.213.647-2.229,1.954-0.071,5.988-.118,11.979.031,17.964,0.016,0.653,1.349,1.275,2.071,1.911,0.557-.69,1.495-1.33,1.6-2.079a43.523,43.523,0,0,0,.076-5.617h10.578c0.941,8.425-1.44,12.168-10.462,13.006a27.574,27.574,0,0,1-8.931-1,6.893,6.893,0,0,1-5.527-6.946c-0.152-4.982-.338-9.973-0.2-14.952,0.155-5.6,2.128-8.131,7.734-9.221a26.365,26.365,0,0,1,9.8-.061C124.2,105.74,126.683,110.566,124.919,118.04Zm-68.48,6.912a22.8,22.8,0,0,0,.086,4.523,2.611,2.611,0,0,0,1.844,1.695,2.588,2.588,0,0,0,1.9-1.651c0.406-2.246.056-4.276-2.463-5.439-2.574-1.189-5.051-2.6-7.506-4.017-3.338-1.931-4.694-5.163-4.192-9.051,0.493-3.821,2.829-6.082,6.408-6.426a44.186,44.186,0,0,1,11.975.264c4.567,0.829,5.648,3.3,4.989,8.941H59.937a11.207,11.207,0,0,0-.24-2.807c-0.216-.612-1.043-1.539-1.413-1.462a2.717,2.717,0,0,0-1.86,1.436,3.2,3.2,0,0,0,1.784,4.092c2.384,1.169,4.758,2.367,7.078,3.655,4.83,2.681,7.059,8.265,4.745,13.233a7.86,7.86,0,0,1-4.882,3.84,31.6,31.6,0,0,1-10.864.434c-6.635-1.036-8.622-4.38-7.463-11.26h9.617Zm81.975,11.073h-10.46v-31.19h10.46v31.19ZM92.8,150.754l-3.173-.171v-4.7l-0.371-.027a21.761,21.761,0,0,1-.779,3.361,5.723,5.723,0,0,1-1.462,1.529,7.04,7.04,0,0,1-1.363-1.624,12.338,12.338,0,0,0-1.142-2.845,10.184,10.184,0,0,1-.077,3,2.489,2.489,0,0,1-1.738,1.367,1.985,1.985,0,0,1-1.514-1.249c-0.139-3.054-.072-6.117-0.072-9.312h4.846l1.114,3.938,1.043-3.9H92.8v10.634ZM79.215,140.116v10.445H76.045c-0.121-1.434-.237-2.805-0.353-4.175l-0.276-.01a11.133,11.133,0,0,1-.532,2.594,7.978,7.978,0,0,1-1.547,1.761,6.912,6.912,0,0,1-1.36-1.672,32.84,32.84,0,0,0-1.1-3.3c-0.07,1.519-.139,3.039-0.219,4.8l-2.942.28V140.1h4.544l1.119,4.092,1.025-4.081h4.817Zm29.218,6.329v4.086l-3.152.266V140.372c3.279-1.583,3.8,1.113,5.062,3.8,0.174-1.792.271-2.783,0.388-3.988h2.952v10.152C110,152.064,109.909,148.728,108.433,146.445ZM65.82,145.21c0,4.452-.751,5.51-4.011,5.674-3.5.176-4.858-1.081-4.9-4.546-0.008-.635,0-1.27,0-1.905,0.025-4.107,3.287-6.316,6.91-4.249,1.355,0.773,1.821,3.065,2.692,4.665Zm-4.133-3.425-0.481-.027v6.856l0.481,0.03v-6.859ZM94.6,140.052h3.875v8.586H99.4v-8.511h3.952a71.731,71.731,0,0,1-.073,8.256c-0.286,2.471-2.526,2.517-4.494,2.473-2.044-.046-3.989-0.5-4.151-2.971C94.472,145.382,94.6,142.861,94.6,140.052Zm-38.61,4.214H51.743l-0.52-2.538H50.615V148.6l0.417,0.141c0.252-.739.5-1.478,0.817-2.4h3.123c0.489,2.906-.264,4.057-2.849,4.48-3.229.529-5.36-.55-5.769-3.018a19,19,0,0,1-.171-3.257c0.036-4.255,3.751-6.5,7.484-4.3C54.694,140.85,55.051,142.563,55.99,144.266Zm65.307,2.66,2.972-.46c-1.844-1.494-4.7-2.676-2.933-5.4,1.246-1.921,3.595-1.765,5.759-1.251,1.74,0.413,2.44,1.365,1.958,3.716l-4.7-1.654a8.464,8.464,0,0,0,1.409,1.8c0.807,0.571,2.1.708,2.589,1.426a5.639,5.639,0,0,1,1.1,3.622c-0.123.809-1.49,1.815-2.469,2.046C123.3,151.638,121.042,150.052,121.3,146.926Zm17.7-6.213c-0.716.674-1.432,1.348-2.491,2.343v7.488h-3.655c-0.707-3.526,1.27-7.523-3.342-10.448h9Zm-19.827,9.915h-3.479V140.134h3.479v10.494Z" transform="translate(-11.281 -15.281)"/>
</svg>
