<svg xmlns="http://www.w3.org/2000/svg" width="19" height="14" viewBox="0 0 19 14">
  <defs>
    <style>
      .cls-1 {
        fill: #fff;
        fill-rule: evenodd;
      }
    </style>
  </defs>
  <path class="cls-1" d="M431.966,1055.27c0,0.58,0,1.09,0,1.61a1,1,0,0,1-.653,1.05,1.037,1.037,0,0,1-1.228-.39c-0.589-.68-1.174-1.37-1.767-2.05a2.863,2.863,0,0,0-.333-0.26l-0.1.06c0,0.19,0,.38,0,0.58a1.323,1.323,0,0,1-1.4,1.38q-2.627.015-5.255,0a0.677,0.677,0,0,0-.6.28c-0.559.68-1.141,1.34-1.715,2.01a1.082,1.082,0,0,1-1.225.4,1.038,1.038,0,0,1-.657-1.06c0-.52,0-1.04,0-1.61-0.21,0-.4.01-0.586,0a1.346,1.346,0,0,1-1.448-1.44q0-3.195,0-6.4a1.334,1.334,0,0,1,1.444-1.44c0.857-.01,1.715,0,2.627,0,0-.24,0-0.44,0-0.65a1.322,1.322,0,0,1,1.275-1.33,0.953,0.953,0,0,1,.169-0.01h12.037a1.394,1.394,0,0,1,1.05.38,1.244,1.244,0,0,1,.4.92c0,2.22,0,4.44,0,6.66a1.3,1.3,0,0,1-1.258,1.31C432.5,1055.29,432.249,1055.27,431.966,1055.27Zm-15.587-5.93v6.61c0.323,0,.626-0.01.927,0a1,1,0,0,1,1.085,1.09c0,0.31,0,.62,0,1.04,0.474-.55.895-1,1.276-1.49a1.662,1.662,0,0,1,1.438-.65c1.672,0.02,3.345.01,5.017,0,0.13,0,.259-0.01.395-0.02v-6.58H416.379Zm16.236,4.62v-6.61H420.451v0.64H426.4a1.346,1.346,0,0,1,1.489,1.47c0,1.36,0,2.73,0,4.1v0.4a1.73,1.73,0,0,1,1.613.84c0.328,0.42.684,0.81,1.028,1.21a4.582,4.582,0,0,0,.072-0.96,1,1,0,0,1,1.085-1.09C431.989,1053.95,432.291,1053.96,432.615,1053.96Z" transform="translate(-415 -1046)"/>
</svg>
