<svg xmlns="http://www.w3.org/2000/svg" viewBox="0 0 79.32 88.35"><defs><style>.cls-1{fill:#4ec8ec;}.cls-2{fill:#2fc5f4;}.cls-3{fill:#75c58c;}.cls-4{fill:#fdd00a;}.cls-5{fill:#bd2847;}.cls-6{fill:#fcc012;}.cls-7{fill:#ef374c;}.cls-8{fill:#e52a51;}.cls-9{fill:#65be68;}.cls-10{fill:#ef3f49;}.cls-11{fill:#57bb6d;}.cls-12{fill:#fec80a;}</style></defs><title>Asset 1</title><g id="Layer_2" data-name="Layer 2"><g id="Layer_1-2" data-name="Layer 1"><path class="cls-1" d="M1.61,87A6,6,0,0,1,.1,83.62c0-.14,0-.28-.1-.39V22c.42.21.52.7.84,1,6,6,11.94,12.05,18,17.93,1.53,1.48,3,3,4.52,4.5,3.1,3.06,6.09,6.22,9.29,9.18.22.2.29.57.65.62-.1.12-.2.24-.31.35L20.56,68c-.17.17-.33.35-.5.53l-.31.27L2.13,86.46c-.1.09-.18.2-.28.31Z"/><path class="cls-2" d="M33.34,55.2c-.36-.05-.43-.42-.65-.62-3.2-3-6.19-6.12-9.29-9.18-1.52-1.49-3-3-4.52-4.5-6.1-5.88-12-12-18-17.93-.32-.31-.42-.8-.84-1V5.44c0-.21.07-.41.11-.61a6,6,0,0,1,1.48-3.4l.28.16c.13.14.25.29.38.42L9.93,9.68c.72.73,1.45,1.44,2.19,2.16.15.17.3.33.46.49L43.92,43.68a1.66,1.66,0,0,1,.44.51l-4.7,4.74-4.23,4.26Z"/><path class="cls-3" d="M1.87,1.59l-.28-.16c0-.18.21-.26.33-.38A5.58,5.58,0,0,1,4.08,0H5.86c3.55,1.09,6.53,3.28,9.72,5.06,7.92,4.42,15.79,9,23.68,13.43l19.43,11a1,1,0,0,1,.19.17l-.23.3h-.1l-.3-.2-6.58-3.72-8-4.54c-2.43-1.39-4.87-2.76-7.3-4.14l-8.88-5.06C25.27,11.06,23,9.77,20.77,8.51c-1.17-.65-2.3-1.37-3.51-1.94a2.05,2.05,0,0,0-.23-.2C15.49,5.5,14,4.6,12.41,3.76s-3.12-1.9-4.8-2.62C5.63.29,3.68.17,1.87,1.59Z"/><path class="cls-4" d="M58.65,30l.23-.3,7.81,4.41q4.61,2.61,9.2,5.24A6.81,6.81,0,0,1,79,42.62a3.49,3.49,0,0,1,.26,2.14,6.52,6.52,0,0,1-2.47,3.18c-1.66,1.17-3.52,2-5.25,3.06s-3.33,1.93-5,2.87c-1.12.63-2.24,1.24-3.37,1.86a1.24,1.24,0,0,1-.1-.71c0-7.15,0-14.29,0-21.44a1.58,1.58,0,0,0-1-1.62A37.57,37.57,0,0,1,58.65,30Z"/><path class="cls-5" d="M1.61,87l.24-.22a4.89,4.89,0,0,0,3.5,1,7.51,7.51,0,0,0,3.06-1c2.18-1.21,4.35-2.45,6.53-3.68q4.1-2.33,8.18-4.66c1.33-.76,2.68-1.46,4-2.29.94-.53,1.88-1,2.81-1.57,2-1.11,3.93-2.21,5.89-3.33,2.46-1.39,4.92-2.78,7.37-4.19,1.2-.69,2.44-1.32,3.59-2.09.21-.09.42-.17.62-.28q2-1.17,4.06-2.33l7.14-4.07h.07l.25.34c-3,1.71-6,3.43-9,5.13L9.06,87a8.15,8.15,0,0,1-4.44,1.32A4.19,4.19,0,0,1,1.61,87Z"/><path class="cls-6" d="M58.88,58.7c-.08-.11-.16-.23-.25-.34l.58-.34c1.3-.79,2.68-1.45,3.94-2.29,1.13-.62,2.25-1.23,3.37-1.86,1.68-.94,3.37-1.85,5-2.87s3.59-1.89,5.25-3.06a6.52,6.52,0,0,0,2.47-3.18,4.28,4.28,0,0,1-1,2.34,8.32,8.32,0,0,1-2.48,2L59,58.66Z"/><path class="cls-7" d="M46.74,65.05c-1.15.77-2.39,1.4-3.59,2.09-2.45,1.41-4.91,2.8-7.37,4.19-2,1.12-3.92,2.22-5.89,3.33-.93.53-1.87,1-2.81,1.57a1.59,1.59,0,0,0-.15-.21l-4.84-4.94c-.55-.56-1.09-1.12-1.66-1.65a1,1,0,0,1-.37-.87c.17-.18.33-.36.5-.53L33,55.55c.11-.11.21-.23.31-.35l2.09-2a1,1,0,0,0,.33.83Q40.89,59.17,46,64.34C46.23,64.59,46.49,64.81,46.74,65.05Z"/><path class="cls-8" d="M20.06,68.56a1,1,0,0,0,.37.87c.57.53,1.11,1.09,1.66,1.65L26.93,76a1.59,1.59,0,0,1,.15.21c-1.28.83-2.63,1.53-4,2.29Q19,80.86,14.94,83.18c-2.18,1.23-4.35,2.47-6.53,3.68a7.51,7.51,0,0,1-3.06,1,4.89,4.89,0,0,1-3.5-1c.1-.11.18-.22.28-.31L19.75,68.83Z"/><path class="cls-9" d="M17.26,6.57c1.21.57,2.34,1.29,3.51,1.94,2.26,1.26,4.5,2.55,6.75,3.83L36.4,17.4c2.43,1.38,4.87,2.75,7.3,4.14l8,4.54,6.58,3.72.3.2-.38.42-3.41,3.45c-.89.87-1.79,1.75-2.67,2.63l-7.67,7.69h-.06a1.66,1.66,0,0,0-.44-.51L12.58,12.33c-.16-.16-.31-.32-.46-.49.83-1,1.79-1.82,2.68-2.75S16.5,7.47,17.26,6.57Z"/><path class="cls-10" d="M44.36,44.19h.06L54.48,54.24c.23.23.48.45.72.68s.3.33.46.49c1,1,1.93,2,2.9,3l-7.14,4.07q-2,1.16-4.06,2.33c-.2.11-.41.19-.62.28-.25-.24-.51-.46-.75-.71Q40.88,59.18,35.76,54a1,1,0,0,1-.33-.83l4.23-4.26Z"/><path class="cls-11" d="M17.26,6.57c-.76.9-1.65,1.68-2.46,2.52S13,10.86,12.12,11.84c-.74-.72-1.47-1.43-2.19-2.16L2.25,2c-.13-.13-.25-.28-.38-.42C3.68.17,5.63.29,7.61,1.14c1.68.72,3.2,1.75,4.8,2.62S15.49,5.5,17,6.37A2.05,2.05,0,0,1,17.26,6.57Z"/><path class="cls-12" d="M58.56,58.37c-1-1-1.94-2-2.9-3-.16-.16-.31-.32-.46-.49-.05-.52-.1-1-.1-1.55,0-3.7,0-7.39,0-11.08V34.5c0-.27.08-.59-.34-.63l3.41-3.45.38-.42h.1a37.57,37.57,0,0,0,3.43,2,1.58,1.58,0,0,1,1,1.62c0,7.15,0,14.29,0,21.44a1.24,1.24,0,0,0,.1.71c-1.26.84-2.64,1.5-3.94,2.29l-.58.34Z"/><path class="cls-6" d="M54.76,33.87c.42,0,.34.36.34.63v7.79c0,3.69,0,7.38,0,11.08,0,.52,0,1,.1,1.55-.24-.23-.49-.45-.72-.68L44.42,44.19l7.67-7.69C53,35.62,53.87,34.74,54.76,33.87Z"/></g></g></svg>