<svg xmlns="http://www.w3.org/2000/svg" viewBox="0 0 106.01 141.29"><defs><style>.cls-1{fill:#090c13;}.cls-2{fill:#0a0c13;}.cls-3{fill:#87888c;}.cls-4{fill:#17303d;}.cls-5{fill:#fac09a;}.cls-6{fill:#1b2026;}.cls-7{fill:#010915;}.cls-8{fill:#30353b;}.cls-9{fill:#10141b;}.cls-10{fill:#00111b;}.cls-11{fill:#787a7d;}.cls-12{fill:#071e2a;}.cls-13{fill:#04070f;}.cls-14{fill:#a4a5a7;}.cls-15{fill:#797a7d;}.cls-16{fill:#111016;}.cls-17{fill:#141116;}.cls-18{fill:#1f3946;}.cls-19{fill:#6e6f72;}.cls-20{fill:#010207;}.cls-21{fill:#03050b;}.cls-22{fill:#02050b;}.cls-23{fill:#02050a;}.cls-24{fill:#04070c;}.cls-25{fill:#03060a;}.cls-26{fill:#061e2a;}.cls-27{fill:#a7a8ac;}.cls-28{fill:#c79a7d;}.cls-29{fill:#081722;}.cls-30{fill:#0c0d15;}.cls-31{fill:#f6f4f1;}.cls-32{fill:#ecbd9d;}.cls-33{fill:#2f2a2b;}.cls-34{fill:#212020;}.cls-35{fill:#080b12;}.cls-36{fill:#05080e;}.cls-37{fill:#1a1d22;}.cls-38{fill:#0c0e15;}.cls-39{fill:#1a1e23;}.cls-40{fill:#1a1d23;}.cls-41{fill:#04070d;}.cls-42{fill:#6e6f73;}.cls-43{fill:#d8a98b;}.cls-44{fill:#ddb190;}</style></defs><title>Asset 1</title><g id="Layer_2" data-name="Layer 2"><g id="Layer_1-2" data-name="Layer 1"><g id="Layer_1-2-2" data-name="Layer 1-2"><g id="Layer_1-2-2-2" data-name="Layer 1-2-2"><path class="cls-1" d="M67,44c.06.24-.21.53.14.71.21-.22.4-.52.76-.24.21.15.34,0,.51-.07s.54-.21.64.13-.11.52-.41.6-.54-.08-.67.24c-.08-1-.08-1-.84-.67l0,.42c.31.17.17.49.27.73s.2.45.3.68c.42.12.8-.05,1.2.06.26-.84.87-1,1.64-.84.16-.08.18-.24.24-.38,0,.18-.11.36-.15.54s0,.41,0,.62a.83.83,0,0,1-.88.78h-.08c-.2,0-.4-.17-.61-.05a1.88,1.88,0,0,0-.25,1,1.65,1.65,0,0,0,.48.57c.64-.09.77.41,1,.83.25.08.28.42.56.46.17-.2.26,0,.38.07a.49.49,0,0,0,.65-.08c.24-.18.11-.37,0-.56a2.83,2.83,0,0,0-.69-.81c-.68-.51-.68-.63,0-1.13.13-.11.29-.2.35-.35.28-.7.84-.77,1.52-.68.35,0,.66,0,.71.49a.44.44,0,0,0,.31.36,1.6,1.6,0,0,1,.83.83.8.8,0,0,0,1.44,0,1.19,1.19,0,0,1,.28-.42c.77-.61.77-.61.92-1.67a4.09,4.09,0,0,0,1.61.42c.14,0,.33.06.35.2.06.76.83,1,1.18,1.53s.92.41,1.43.49a.94.94,0,0,0,1.21-.71.55.55,0,0,1,.41-.37,1,1,0,0,0,.7-.72c.13-.45,1.34-.75,1.73-.48a.38.38,0,0,1,.13.5,1.76,1.76,0,0,0,0,.91.87.87,0,0,0,.91.74h1c.66,0,.69-.61,1-.9s1-.19.87-.93c-.06-.31.17-.33.42-.3a4.47,4.47,0,0,0,1.63-.06c.08-.06.2-.11.13-.25.1.13-.06.18-.09.27a.59.59,0,0,0,.09.6,18.15,18.15,0,0,1,1.25,1.4c.25.35.89.18,1.15-.25a1.41,1.41,0,0,1,.73-.63c.35-.13.65-1,.53-1.54a.69.69,0,0,1,.14-.71,2.7,2.7,0,0,0,.15-.75.74.74,0,0,1,.86-.61l.11,0a.71.71,0,0,1,.61.78v0a.82.82,0,0,1-.88.75c-.25,0-.48-.22-.75-.11-.19.64-.07.9.52,1a2.23,2.23,0,0,0,.63.09,1,1,0,0,1,.92.57c.29.42.67.84,1,1.25a.73.73,0,0,0,1.2-.21,1.33,1.33,0,0,1,.72-.62c.46-.18.67-1.14.42-1.63a2.34,2.34,0,0,0,1.86.56,6.56,6.56,0,0,1,1.46.25,3,3,0,0,0,.6-1.38,1,1,0,0,0,0-.67c-.06-.25.12-.17.23-.21.29-.15,0-.54.3-.7v-.14a.18.18,0,0,1,0-.25h0l0,0V42.12c-.11-.1-.06-.36-.3-.33s-.23.22-.22.38-.13.49.05.72a4.81,4.81,0,0,1-.77-1.47c-.23-.7-.27-.74-1.07-.6-.14.19-.06.42-.09.62-.06.44-.24.77-.76.73a.84.84,0,0,1-.81-.86v-.05h0v-.07a.69.69,0,0,1,.76-.62l.12,0c.23,0,.46.14.69,0a.83.83,0,0,1,.76-.9h.19c.32,0,.42-.32.46-.62a1.58,1.58,0,0,0-1.3-1.78c-.21.22-.06.5-.1.74-.09.53-.42.84-.83.78a.91.91,0,0,1-.75-1c0-.46.38-.68.94-.62.21,0,.42.12.63,0s.18-.21.13-.31c-.19-.34,0-.41.29-.47,1.1-.31,1.19-.5.8-1.57a2.76,2.76,0,0,1-.08-.27c-.13-.81-.28-.89-1-.57-.16.22-.06.46-.1.69-.07.41-.27.71-.76.64s-.79-.31-.8-.84.3-.65.73-.68.57.13.84,0c.25-.37.17-.57-.3-.54.57-.42.64-.73.34-1.33a.86.86,0,0,0-.63,0,.73.73,0,0,1-.89-.38.77.77,0,0,1,.12-.92.73.73,0,0,1,.9-.14c.19.08.39.21.6.05,0-.51.12-.92.78-1,.5-.07.56-.54.47-1a9.31,9.31,0,0,0-.52-1.22c-.11-.27-.44-.3-.74-.22s-.06.54-.13.8c-.12.42-.31.76-.84.65a.8.8,0,0,1-.71-.89.25.25,0,0,1,0-.08c.12-.48.47-.59.94-.53.24,0,.47.28.73,0,.11-.5.23-.93.88-1a.57.57,0,0,0,.42-.67.14.14,0,0,1,0-.06c-.32-.94.1-1.85,0-2.78a6.11,6.11,0,0,0-.29-1.58.71.71,0,0,0-1-.56c-.29.17-.13.46-.18.7-.1.43-.28.74-.8.66a.91.91,0,0,1-.84-.9.83.83,0,0,1,1-.62c.27,0,.51.28.81.09a.88.88,0,0,0,.07-.48c0-.34.11-.44.42-.5.7-.13.9-.47.72-1.15,0-.16-.17-.3-.12-.47s.23-.61-.16-.8a.8.8,0,0,0-1,.09c-.12.23,0,.5-.1.75-.12.42-.34.68-.81.6a.83.83,0,0,1-.75-.91h0a.71.71,0,0,1,.77-.65h0c.26,0,.52.13.77,0a.83.83,0,0,1,.78-.88h.11a.58.58,0,0,0,.52-.64v0a11.61,11.61,0,0,1-.1-1.44c0-.41-.7-.52-1.22-.2-.12.24,0,.51-.1.76a.71.71,0,0,1-.82.59l-.09,0a.73.73,0,0,1-.64-.82h0v-.06c.06-.49.4-.65.87-.61.27,0,.52.28.81.09.14-.49.26-.95.89-1.05a.55.55,0,0,0,.39-.62,14,14,0,0,1-.11-1.44c.05-.42-.68-.51-1.22-.21a1.62,1.62,0,0,0-.07.62.67.67,0,0,1-.65.68h-.16c-.49-.05-.77-.26-.76-.75s.32-.71.79-.72a4.09,4.09,0,0,0,.7,0c.09,0,.19-.09.21-.18.07-.57.45-.71,1-.73s.76,0,.56-.59c-.06-.18.09-.3.23-.38a.62.62,0,0,0,.25-.8c0-.27,0-.55-.19-.76s-.54,0-.47-.42c.11-.78-.71-.83-1.09-1.25-.16-.17-.28.17-.32.32-.29.83-1,.31-1.48.42s-.55-.23-.62-.59c-.13-.65-.52-.46-.9-.23a2.49,2.49,0,0,0,0,.77.83.83,0,0,1-.79.83.69.69,0,0,1-.77-.63v0c-.09-.5.25-.77.69-.94.27-.1.58.08.83-.12a1.34,1.34,0,0,0-.16-1,.79.79,0,0,0-1-.43.76.76,0,0,0-.35.29,3.53,3.53,0,0,1-.84.84c-.54.41-.56.86-.1,1.44-.63-.25-1.22-.7-1.93-.17-.2.14-.47-.06-.65-.2s0-.28.12-.39c.21-.3.2-.54-.16-.68a1.44,1.44,0,0,1-.83-.81.59.59,0,0,0-.57-.36c-.56,0-.65-.33-.64-.79v-2A.7.7,0,0,0,93.21,0h-.72a1.18,1.18,0,0,0-.21.93c0,1.28,0,2.57,0,3.86,0,.51,0,1,0,1.54a49.46,49.46,0,0,0-.08,5.84c0,1.61,0,3.22,0,4.84a36.54,36.54,0,0,1,0,4.68,6.11,6.11,0,0,0,0,1.48,6.29,6.29,0,0,1,0,2,4.3,4.3,0,0,0,0,1.34,6.6,6.6,0,0,1,0,2.08,5.67,5.67,0,0,0,0,1.54,8.52,8.52,0,0,1-.57,3.87.67.67,0,0,0-.13.41.74.74,0,0,1-.83.84.52.52,0,0,0-.33.12c0,.44.38.26.58.36-.13.44-.69.65-.64,1.19.17.22.44.13.66.18a.78.78,0,0,1,.62.84A.81.81,0,0,1,90,38.2c-.07-.22,0-.48-.24-.64-.31,0-.48.28-.7.44a1.68,1.68,0,0,1-1.3.45.91.91,0,0,0-.94.52,2.44,2.44,0,0,1-1.93,1.13c-.21,0-.49,0-.57.29.16.23.42.18.65.23.5.11.83.49.69.89a.93.93,0,0,1-.92.65c-.39,0-.66-.48-.65-1,0-.3.42-.5.19-.84-.45-.25-1,0-1.45-.25a.26.26,0,0,0-.27,0,.83.83,0,0,1-1.17.16.81.81,0,0,1-.16-.16.32.32,0,0,0-.27,0c-.55.24-1.15,0-1.69.22-.29.27.08.39.14.58A1,1,0,0,1,79.26,42c-.26.31-.59.23-.91.12a.7.7,0,0,1-.48-.88.73.73,0,0,1,.19-.31c.14-.16.54-.19.31-.55-.56-.23-1.17,0-1.73-.23-.57.25-1.12.59-1.75.17a3.74,3.74,0,0,0-1.49,0c-.34.24,0,.42.08.57.19.37.28.73-.08,1a.92.92,0,0,1-1.07.06c-.4-.23-.3-.59-.2-.94.06-.2.28-.39.12-.64a.84.84,0,0,0-.64-.08,2.19,2.19,0,0,1-1,.05c-.42.14-.9.09-1.33.21a.6.6,0,0,0-.14.46c0,.48-.07.84-.68.81a.42.42,0,0,0-.42.48c0,.28,0,.51-.32.5a.57.57,0,0,1-.55-.48c-.1-.35.06-.7,0-1s.21-.78-.45-.7v2.12c.08.09,0,.21.1.31a1,1,0,0,0,.12.32.53.53,0,0,1,0,.49A.17.17,0,0,0,67,44Z"/><path class="cls-2" d="M103.68,13.7a1,1,0,0,1,.94,0c.13.05.25.18.17.26-.37.37-.18.66,0,1.06s.08.83-.54.81a1.44,1.44,0,0,0-.54.14c-.42.14-.4.14-.14.5.05.07,0,.22,0,.34a.29.29,0,0,0,.14.28c.3-.07.59-.2.89,0,.11.06.29.17.23.22-.57.47.06.89,0,1.33s-.07.53-.45.58c-.91.13-.91.15-.7,1.13,0,0,0,.07,0,.1s0,.05,0,.05c.22.25.68-.15.76.18s.42.83.39,1.32a4.8,4.8,0,0,1-.25,2.28c-.11.2.05.39.14.59.32.67.13,1-.62,1.13s-.33.73-.42,1.13h0a2.16,2.16,0,0,1,1.15,1.71c0,.28-.07.53-.41.54-.86,0-1.07.42-.73,1.14a4.21,4.21,0,0,0-.14,1.41,1.71,1.71,0,0,1,.13.38c0,.36-.26.57-.42.84s.54.23.27.6a.28.28,0,0,0,.14.29c.5-.06,1.15-.31.81.66,0,.07.17.2.24.33.31.58.09,1-.56,1.13a2.18,2.18,0,0,0-1,.45c.23.13.6.18.39.54a.17.17,0,0,0,.14.14c.68.39,1.25.83,1.15,1.75,0,.34-.18.54-.53.5a1.56,1.56,0,0,0-1.14.46c.21.13.59.18.37.54a.29.29,0,0,0,.14.28c1.13-.09.84,1,1.25,1.52.17.19.23.49.53.66a1.5,1.5,0,0,0,.12-1.1c.25-.07.25.16.39.19V7.92c-.26-.08-.09-.38-.27-.5,0,.26,0,.55-.32.64-.59.18-.5.5-.15.91-.75.14-1.77-.17-1.7,1.08-.07.15,0,.22.14.27a.92.92,0,0,1,.88,0c.15.06.33.18.23.28-.41.39-.14.69,0,1.08s.14.73-.35.76c-.83,0-.86.54-.76,1.15a.09.09,0,0,0,0,.1A.06.06,0,0,0,103.68,13.7Z"/><path class="cls-3" d="M106,43.37c-.14.09-.22.19,0,.28Z"/><path class="cls-4" d="M0,141.28h5a4.63,4.63,0,0,1,1.34-.07c2.19,0,4.38.07,6.57-.06,3-1.67,6-3.33,8.94-5l36-20.38c.41-.23.65-.35.34-.9q-9-15.72-18-31.47c-.32-.57-.54-.55-1-.26Q20,94,.68,104.77A1.14,1.14,0,0,0,0,105.9q0,17.31,0,34.61C0,140.76,0,141,0,141.28Z"/><path class="cls-5" d="M96.93,74.6l2.43-1A4.13,4.13,0,0,0,102,71a3.25,3.25,0,0,0-3.64-3.75,2.15,2.15,0,0,1-.83.16,2,2,0,0,0-1,.22c-1.67.53-3.29,1.09-4.95,1.61-2.05.65-4.09,1.3-6.14,2-.46.22-1,.24-1.42.62a15.12,15.12,0,0,1-2.74,1.63,32.84,32.84,0,0,1-9.79,3.22,6.07,6.07,0,0,0-1.34.31l4.47-1.63a1.24,1.24,0,0,0,.67-.37.34.34,0,0,0,0-.2c-.19-.18-.33-.34-.17-.64s.31-.83.54-1.19c1.6-4.11,3.26-8.19,4.91-12.28a9.06,9.06,0,0,0,.74-3.21,4.35,4.35,0,0,0-.6-2.66,4.69,4.69,0,0,0-3.43-1.94.89.89,0,0,0-.32,0c-.5,0-.68.47-.93.79s-.5.74-.76,1.1A25,25,0,0,0,73.85,57a18,18,0,0,1-1.77,2.71c-2.43,3.49-4.9,7-7.33,10.43a8,8,0,0,1-1.31,1.29,42.39,42.39,0,0,0-8.37,10.39,27.22,27.22,0,0,0-1.74,3.4c-.3.75-1.09.89-1.67,1.23s-.59.47-.28,1q4.17,7.2,8.27,14.43c1,1.74,2,3.49,3,5.24.3.55.54.84,1.25.46s1.55,0,2.31,0a59.9,59.9,0,0,0,7.09,0,31.76,31.76,0,0,0,5-.63c.28.21.59.09.89,0,1.33-.28,2.64-.61,3.94-1a35.64,35.64,0,0,0,6.11-2.58,25.82,25.82,0,0,1,4.65-1.83,2.27,2.27,0,0,0,1.13-.58c1.32-.48,2.65-.91,4-1.43a3.71,3.71,0,0,0,2.4-2.69,3.52,3.52,0,0,0-4.2-4c-.28.08-.55.17-.83.23s-.45.25-.56,0-.13-.56.2-.74l.9-.45c1.93-.93,3.92-1.76,5.77-2.82a3,3,0,0,0,1.49-4A3.45,3.45,0,0,0,99.92,83c-1.25.41-2.46.87-3.69,1.32a5.49,5.49,0,0,0-2.09.62c-.26.1-.51.21-.76.33a16.46,16.46,0,0,0,2.84-1.38c1.77-.83,3.5-1.74,5.29-2.5a3.91,3.91,0,0,0,1.79-5.27,3.5,3.5,0,0,0-4.73-1.62,8.52,8.52,0,0,1-1.63.5,10.49,10.49,0,0,0-2.48.76c-.49.15-.95.42-1.45.53-.23.12-.47.17-.68.3.18-.11.38-.17.56-.26,1.18-.4,2.32-.88,3.46-1.36A1.5,1.5,0,0,0,96.93,74.6Z"/><path class="cls-6" d="M66.7,35.75v1.84c.12.23.34.22.55.22,1.3,0,2.6,0,3.9,0A1.45,1.45,0,0,0,72,37.6c.83-.61,1-.6,1.72.09a.78.78,0,0,0,.3.18c1.13-.06,2.26-.09,3.39-.06a1,1,0,0,0,.62-.28,1.16,1.16,0,0,1,1.64.17A6.22,6.22,0,0,0,83,37.37a9.3,9.3,0,0,0,4.09-2.59,1.29,1.29,0,0,0,.5-.93c0-.19-.23-.28-.35-.41a.74.74,0,0,1-.14-.9.76.76,0,0,1,.88-.41,1.25,1.25,0,0,0,.69,0A3.45,3.45,0,0,0,89.57,30a28.35,28.35,0,0,0,.15-4.79V1.11c0-.37.07-.76-.22-1.07H75.57a4.64,4.64,0,0,0-.83.14.79.79,0,0,0-.21.58c0,1.46-.08,2.92,0,4.37.07.17.12.38.39.23l.29-.2a.74.74,0,0,1,1,0l0,0a.71.71,0,0,1,0,1h0a.78.78,0,0,1-1.11.11l0,0a1,1,0,0,0-.35-.23c-.16,0-.21.06-.26.17a8.27,8.27,0,0,0,0,2.33c.21.44.42.1.6,0a.88.88,0,0,1,.93-.14.78.78,0,1,1-.78,1.34c-.22-.09-.39-.61-.74-.14a8.27,8.27,0,0,0,0,2.33c.21.45.42.1.6,0a.88.88,0,0,1,.93-.14.78.78,0,1,1-.79,1.35c-.22-.09-.39-.61-.72-.13a8.45,8.45,0,0,0,0,2.46c.19.42.35.14.5,0a.8.8,0,0,1,.87-.32.83.83,0,0,1,.54,1.05h0v0a.84.84,0,0,1-1.13.35l0,0c-.22-.09-.42-.61-.73-.13a8.59,8.59,0,0,0,0,2.48c.1.26.25.23.41,0a1,1,0,0,1,.42-.33.75.75,0,0,1,.94.26.71.71,0,0,1,0,.91.73.73,0,0,1-1,.2,5.33,5.33,0,0,1-.46-.32c-.17-.11-.27,0-.33.13a8.06,8.06,0,0,0,0,2.5c.06.13.13.27.31.15s.22-.25.36-.33a.79.79,0,0,1,1.09.11.69.69,0,0,1,0,1,.83.83,0,0,1-1.09.15c-.18-.11-.33-.58-.66-.14a8.73,8.73,0,0,0,0,2.5c.1.26.24.26.42.07a1,1,0,0,1,.58-.38.72.72,0,0,1,.88.42.68.68,0,0,1-.26.92.73.73,0,0,1-1,0c-.16-.14-.2-.51-.56-.34A7,7,0,0,0,74.44,28a12.49,12.49,0,0,1-.76,2.6,1.49,1.49,0,0,0,0,.21,1,1,0,0,1-.59,1.28l-.12,0a1.43,1.43,0,0,0-.28.13,10.67,10.67,0,0,1-2.42,2.13,9,9,0,0,1-2.69,1.09A1.57,1.57,0,0,0,66.7,35.75Z"/><path class="cls-7" d="M94.91,101c-2,.76-4,1.17-5.84,2.29-.26,1.14-.27,2.33-.49,3.48-.61,3.09-1.22,6.19-3.34,8.72a7.35,7.35,0,0,1-5,2.69,1.09,1.09,0,0,1-1-.33,3.83,3.83,0,0,0,0,1.58,19.85,19.85,0,0,0,.36,4.21,6.35,6.35,0,0,0,3,3.81c4.13,2.77,8.5.3,10.18-2.62a6.06,6.06,0,0,0,.63-2.71l1.5-19.64C94.84,102,94.87,101.52,94.91,101Z"/><path class="cls-8" d="M74.72,22.47V19.65a.39.39,0,0,0,0-.54l0,0V16.26a.38.38,0,0,0,0-.53l0,0V12.86a.49.49,0,0,0,0-.68l0,0V9.47a.5.5,0,0,0,0-.69h0V6.08a.5.5,0,0,0,0-.69h0V.14A9.43,9.43,0,0,0,67,7a9,9,0,0,0-.31,2.25V35.4a1.38,1.38,0,0,0,0,.35,8.75,8.75,0,0,0,6-3.53c-.06-.23-.27-.32-.42-.47a.76.76,0,0,1-.12-1,.72.72,0,0,1,1-.24h0a.93.93,0,0,0,.53.17,8.8,8.8,0,0,0,1-4.39.3.3,0,0,0,0-.41h0V23a.39.39,0,0,0,0-.54Z"/><path class="cls-2" d="M95.92,45.35c-.14-.05-.27-.11-.29.13,0,.5,0,1-.08,1.51,0,.15.06.41-.12.41-.64,0-.83.45-1.07.92s-.86.18-1-.17a1.12,1.12,0,0,0-.69-.79.91.91,0,0,1-.48-1,8.81,8.81,0,0,1-2-.08c-.46-.14-.42.22-.36.46.14.52.17.87-.57.64-.25-.08-.37,0-.37.34,0,.58-.32.84-.92.76h-.5c-.94,0-1.33-.57-1-1.45.06-.19.31-.47.09-.56s-.58-.45-1-.28a1.57,1.57,0,0,1-.76.17c-.42,0-.65.13-.62.57s-.16.53-.54.59-.63.22-.61.65a.4.4,0,0,1-.23.41,2.12,2.12,0,0,1-2.17-.65.62.62,0,0,0-.42-.34.61.61,0,0,1-.48-.69c0-.25-.07-.53-.36-.5a6,6,0,0,1-2.28-.57c.58.46-.2,1,.16,1.47.09.1-.15.21-.29.19a.7.7,0,0,0-.8.57v.06c-.09.32-.32.37-.61.37s-.51-.09-.56-.42a1,1,0,0,0-.78-.83c-.16,0-.38-.09-.34-.3.14-.81-.38-.64-.83-.59a1.2,1.2,0,0,1-.5,0c-.49-.21-.76,0-1,.41a1.37,1.37,0,0,1-.77.78.62.62,0,0,0-.34.81.58.58,0,0,0,.32.33,3,3,0,0,1,1,1c.24.31,0,.31-.15.39a.21.21,0,0,1-.31,0h0a.27.27,0,0,1-.07-.14c0-.17.11-.42-.2-.39s-.15.34-.19.53a7.76,7.76,0,0,0,3.87,1.54H96.59a10.14,10.14,0,0,1,1.35,0,9.13,9.13,0,0,0,6.86-4.8c-.45-.6-1.12-.34-1.7-.41s-1,0-1.37-.42c-.12-.14-.25-.34-.47-.2s-.23.25-.21.34c.06.25.39-.12.46.27h0c.07,1-1.13,1.1-1.36,1.91-.07.26-.39.2-.63.2s-.35-.22-.48-.42.12-.89-.59-.63a.26.26,0,0,1-.12-.16c0-1-.78-.87-1.37-.87s-.9-.28-.89-.87C96.11,45.37,96.06,45.32,95.92,45.35Z"/><path class="cls-9" d="M89.49,0V28.42a9.53,9.53,0,0,1-.69,3.33.42.42,0,0,1-.46.32c-.06.13,0,.22.08.32.34.73.13,1.14-.68,1.3a.53.53,0,0,0-.27.08,5.49,5.49,0,0,1-2.58,2.5,8.68,8.68,0,0,1-5.3,1.3c-.12.19,0,.41-.11.61-.18.42-.45.71-.94.54s-.71-.42-.55-.91c.05-.17.19-.34,0-.52a1.5,1.5,0,0,1-1.2.29,14.58,14.58,0,0,0-3,.13c-.21.15-.16.41-.28.61s-.59.59-1,.38a.9.9,0,0,1-.42-1.14.33.33,0,0,0-.11-.27.83.83,0,0,1-.61.28H66.7v2.84A2.62,2.62,0,0,0,69,40.35a1.28,1.28,0,0,0,0-.55c0-.57.28-.88.78-.88a.77.77,0,0,1,.81.86,4,4,0,0,0,0,.49c.26.39.62.19.95.14h.71a.76.76,0,0,0,1,0H75c.1-.16,0-.32,0-.48-.09-.62.14-1,.67-1s.78.2.86.8a3,3,0,0,0,0,.42c0,.34.31.28.54.28h1.32a.5.5,0,0,0,.71,0h1.34c.23,0,.49.06.53-.28a3.57,3.57,0,0,0,.07-.56.73.73,0,0,1,.8-.67h0a.72.72,0,0,1,.77.65v.09a2,2,0,0,0,0,.49c.11.45.48.24.75.27a5.75,5.75,0,0,0,.83,0c.16-.2.4-.09.59-.14.76-.2,1.6-.22,2-1.13.1-.27.41-.64.75-.54,1.05.28,1.51-.52,2.14-1a.81.81,0,0,0,.56-.57c.09-.52.75-.73.75-1.33-.19-.21-.57.06-.75-.22a.5.5,0,0,0-.13-.25.84.84,0,0,1,0-1.18l0,0a.86.86,0,0,1,1.18,0,1.38,1.38,0,0,0,.24.14c.31.15.31-.11.34-.27a9,9,0,0,0,.42-4,3.15,3.15,0,0,1,0-1.4,3.92,3.92,0,0,0,0-1.67,3.51,3.51,0,0,1-.08-1.12,29.88,29.88,0,0,0,0-3c.1-1.54-.14-3.08.08-4.62a4.7,4.7,0,0,0-.08-1.75,3,3,0,0,1,0-1.4,4.6,4.6,0,0,0,0-1.81,4,4,0,0,1,0-1.54,2.49,2.49,0,0,0,.07-.77,31.9,31.9,0,0,1,0-4.48,3.68,3.68,0,0,1,0-1.55V0Z"/><path class="cls-10" d="M79.15,119.45v-1.33c.14.32.31.32.66.3a7.74,7.74,0,0,0,3.73-1.16,8.88,8.88,0,0,0,2.63-2.69c1.54-2.22,2-4.82,2.54-7.35.29-1.2.26-2.5.52-3.71,0-.05-.11-.14-.17-.2a46.79,46.79,0,0,1-6,2.52,4,4,0,0,1-3.59,2.51c-1.15,0-1.16,0-1,1.25.18,2.48.33,5,.54,7.44A11.07,11.07,0,0,0,79.15,119.45Z"/><path class="cls-7" d="M91.65,69.38l5.66-1.82a1.09,1.09,0,0,0,.22-.17l.66-8.76c0-.37,0-.75.06-1.12s.2-.54-.2-.65c-1.89,0-3.78,0-5.67,0-1.13,0-1.13,0-1,1.09a31.21,31.21,0,0,1,.06,6.41c-.06.75,0,1.51,0,2.26s0,1.6-.06,2.4C91.33,69.26,91.28,69.5,91.65,69.38Z"/><path class="cls-2" d="M100.67,5c.41-.07.83-.22.74.48a.54.54,0,0,0,.21.42c.44.27.94,0,1.44.13s.7-.45.79-.87c.51.47,1.43.72,1,1.8l.71-.27A9.5,9.5,0,0,0,97.07,0c-1.29,0-2.58,0-3.86,0V2.91c0,.42.09.69.59.62s.72.09.76.53.47.55.74.63c.49.16.44.31.09.49s-.33.24-.31.48.27.14.42.19a1.79,1.79,0,0,1,.42.25.28.28,0,0,0,.38,0,1.25,1.25,0,0,1,2,.44c.23-.29,0-.46-.13-.67a.77.77,0,0,1,.23-1.28c.32-.2.67-.35.75-.78s.32-.31.57-.31.46.05.55.33.19.63.29.94C100.51,5,100.54,5,100.67,5Z"/><path class="cls-11" d="M98.08,57c.29.11,0,.39.17.56a.61.61,0,0,1,.79-.59c.24,0,.55.14.77-.13a5.49,5.49,0,0,1,0-2v-.14a1.49,1.49,0,0,0-.24-.14,3.23,3.23,0,0,0-.93-.08H81.76c-.41,0-.92-.18-1.19.36a4.61,4.61,0,0,1,.63,2.69,2.61,2.61,0,0,1,1.62-.36c1.25,0,2.48,0,3.72,0s2.42.06,3.63,0C92.81,56.89,95.45,57.13,98.08,57Z"/><path class="cls-12" d="M78.43,109.56a4,4,0,0,0,0-.49c-.06-.48.18-.61.62-.57a3.86,3.86,0,0,0,2.06-.39,5.42,5.42,0,0,0,2-2c.1-.15-.12-.17-.14-.27-1.62.42-3.21.88-4.86,1.14C78.29,107.83,78.23,108.71,78.43,109.56Z"/><path class="cls-13" d="M97.94,51.56c-.22-.22-.49-.12-.75-.12H75.46c-.25,0-.53-.1-.74.13a4.61,4.61,0,0,0,1.48.15H96.45A5,5,0,0,0,97.94,51.56Z"/><path class="cls-2" d="M69,40.12c0,.34-.31.28-.53.28H66.7v.14c.55.34.24.84.2,1.25-.05.56,0,1,.64,1.22.44.13.79-.14.66-.56s.18-.63.44-.52c.71.3.58-.22.62-.54a5.75,5.75,0,0,0,0-.83C69.33,40.31,69.29,40.12,69,40.12Z"/><path class="cls-14" d="M99.67,54.67h.15c.1-2.13.1-2.13-2-2.13H73.49c-.6,0-.81.18-.75.74a5.09,5.09,0,0,0,.1,1.4.17.17,0,0,0,.21,0,2.22,2.22,0,0,0,.16-1.16c0-.39.14-.58.54-.59,1.06,0,2.12,0,3.18,0,0,0,.07.06.09.1h.28c7.06-.14,14.14,0,21.21,0,.83,0,.88.07.93.87A1.35,1.35,0,0,0,99.67,54.67Z"/><path class="cls-15" d="M73,54.67h-.16a9.67,9.67,0,0,0-.08,1.94c0,.28.16.35.42.33h.7a11.87,11.87,0,0,0,1.6-2.13.25.25,0,0,0-.2-.25A3.57,3.57,0,0,0,73,54.67Z"/><path class="cls-16" d="M93,76.45A35.51,35.51,0,0,0,97,75v-.42l-4.16,1.7C92.78,76.45,92.82,76.52,93,76.45Z"/><path class="cls-2" d="M68.84,46.48c-.38-.42-.76,0-1.14,0a4.26,4.26,0,0,0,1.14,1.67,1.14,1.14,0,0,0,.28-1C69.05,46.94,69.1,46.66,68.84,46.48Z"/><path class="cls-17" d="M96.23,83.91c-1.21.4-2.3,1-3.47,1.51l.08.19,3.39-1.25Z"/><path class="cls-18" d="M13,141.15H5.57c-.19,0-.39,0-.53.14H13A.14.14,0,0,1,13,141.15Z"/><path class="cls-2" d="M70.27,49.58c0-.29,0-.68-.11-.84a.68.68,0,0,0-.83,0A2.38,2.38,0,0,0,70.27,49.58Z"/><path class="cls-2" d="M105.67,44.5c-.17-.09-.17-.42-.51-.34l.24,1.21A1.68,1.68,0,0,0,105.67,44.5Z"/><path class="cls-19" d="M99.81,54.81a2.81,2.81,0,0,0,0,2Z"/><path class="cls-2" d="M67.4,45.8c0-.28.32-.67-.27-.73A1.21,1.21,0,0,0,67.4,45.8Z"/><path class="cls-20" d="M67,43.23a.28.28,0,0,0-.14-.29,1,1,0,0,0,0,.74c0,.13,0,.24.14.27v-.16A.43.43,0,0,0,67,43.23Z"/><path class="cls-2" d="M66.82,43.69V43l-.13-.29A1.87,1.87,0,0,0,66.82,43.69Z"/><path class="cls-21" d="M100.67,5l-.14-.15A1.26,1.26,0,0,0,99,5.22c-.38.46-.14.83.08,1.21a.73.73,0,0,0,.86.33,1,1,0,0,0,.84-.83A1.44,1.44,0,0,0,100.67,5Z"/><path class="cls-21" d="M78.79,45.77a1,1,0,0,0,.93-1,1.05,1.05,0,0,0-1.09-1h0a1,1,0,1,0,.2,2Z"/><path class="cls-22" d="M103.81,7.33a1.1,1.1,0,0,0-1-1,1.32,1.32,0,0,0-1.05,1,1.25,1.25,0,0,0,1.11,1.09,1.06,1.06,0,0,0,1-1.12Z"/><path class="cls-23" d="M92.93,5.64a1,1,0,0,0,.86,1.13,1,1,0,0,0,1.14-.86.74.74,0,0,0,0-.21,1.11,1.11,0,0,0-1-1A1.08,1.08,0,0,0,92.93,5.64Z"/><path class="cls-22" d="M103.68,37.29l-.14-.14a6.21,6.21,0,0,1-.62-.14.84.84,0,0,0-1.06.48,1.08,1.08,0,0,0,.46,1.36.84.84,0,0,0,1.16-.12A1.31,1.31,0,0,0,103.68,37.29Z"/><path class="cls-23" d="M90.34,37a1.53,1.53,0,0,0-.56.57c0,.41-.11.83.33,1.14a1,1,0,0,0,1.25.05.92.92,0,0,0,.39-1.1c-.16-.44-.42-.78-1-.71A3,3,0,0,0,90.34,37Z"/><path class="cls-23" d="M100.81,9c.06-.63-.3-.84-.91-.81s-1.11.36-1.09.93a1.1,1.1,0,0,0,1.09,1A1.09,1.09,0,0,0,100.81,9Z"/><path class="cls-22" d="M79.16,40.4h-.72c-.41.25-.89.46-.81,1.08s.6.81,1.13.87a.75.75,0,0,0,.84-.58A1,1,0,0,0,79.16,40.4Z"/><path class="cls-22" d="M95.92,45.35l.14.14c.45.17.88.46,1.39.09a1,1,0,0,0,.42-1.21c-.2-.57-.64-.62-1.15-.58s-.71.42-.78.84A5.77,5.77,0,0,0,95.92,45.35Z"/><path class="cls-23" d="M87.75,42.12a.9.9,0,0,0-1,.76.86.86,0,0,0,0,.16,1,1,0,1,0,2,0C88.76,42.38,88.44,42.12,87.75,42.12Z"/><path class="cls-23" d="M84.18,45.63c.36-.05.68.26,1.1,0s.76-.72.48-1.34-.86-.58-1.34-.47c-.65.16-.57.73-.5,1.23a2.44,2.44,0,0,0,.26.57Z"/><path class="cls-23" d="M81.8,47.47a1,1,0,0,0,1.08-.92.48.48,0,0,0,0-.17,1,1,0,0,0-1-1,1.41,1.41,0,0,0-1,1A1.08,1.08,0,0,0,81.8,47.47Z"/><path class="cls-22" d="M68.84,46.48c0,.21.14.41.06.65s.14,0,.23,0a1,1,0,0,0,1.36,0,1.11,1.11,0,0,0,.21-1.41.17.17,0,0,0-.14-.14C69.45,45.27,69,45.5,68.84,46.48Z"/><path class="cls-23" d="M101.81,44.76c0,.7.37,1,1.13,1a1.07,1.07,0,0,0,.87-1.1,1,1,0,0,0-1.09-.88C102.06,43.81,101.81,44.08,101.81,44.76Z"/><path class="cls-22" d="M71.85,44.86a1.08,1.08,0,0,0,1.08.9,1.11,1.11,0,0,0,.93-1,1.05,1.05,0,0,0-1-1.06h0a1,1,0,0,0-1,1.11Z"/><path class="cls-22" d="M93.94,11.58c-.67,0-1,.31-1,.88a1,1,0,1,0,2,.17V12.5C94.93,11.89,94.61,11.6,93.94,11.58Z"/><path class="cls-22" d="M70.56,42.24a1.35,1.35,0,0,0-.76-.14c-.63,0-1,.33-1,.88a1.11,1.11,0,0,0,.93,1.09,1.08,1.08,0,0,0,1.07-.94,1.16,1.16,0,0,0-.14-.75A.17.17,0,0,0,70.56,42.24Z"/><path class="cls-22" d="M103.68,40.83a.32.32,0,0,0-.14-.29l-.48-.13a.92.92,0,0,0-1.16.4.91.91,0,0,0,.15,1.15,1,1,0,0,0,1.21.31,1,1,0,0,0,.48-1.17A2.61,2.61,0,0,0,103.68,40.83Z"/><path class="cls-23" d="M95.92,21c0,.67.22.86,1,.87s1-.31,1-.89a1,1,0,0,0-2-.18V21Z"/><path class="cls-22" d="M93.94,45.49c-.67,0-1,.29-1,.87a1.11,1.11,0,0,0,1,1.1,1.08,1.08,0,0,0,1-1.05C94.93,45.8,94.61,45.5,93.94,45.49Z"/><path class="cls-23" d="M100.81,46.19c0-.35-.28-.69-.9-.7a1,1,0,0,0-1.1.85v0a1.06,1.06,0,0,0,1,1.1h0C100.44,47.49,100.81,47.09,100.81,46.19Z"/><path class="cls-22" d="M103.68,20.48v-.14c-.48-.17-1-.52-1.47-.14-.33.25-.68.56-.42,1.07a1.31,1.31,0,0,0,1.34.74,1.06,1.06,0,0,0,.67-1.11A1.45,1.45,0,0,0,103.68,20.48Z"/><path class="cls-22" d="M103.68,17.1a.32.32,0,0,0-.14-.29c-.16,0-.32-.09-.48-.12-.68-.11-1.16.17-1.25.71a1.05,1.05,0,0,0,.86,1.21h.11c.51.09.88-.27,1-.92A1,1,0,0,0,103.68,17.1Z"/><path class="cls-23" d="M90.7,45.77a1.11,1.11,0,0,0,1.07-.92A.91.91,0,0,0,91,43.8h-.1c-.66,0-1.12.33-1.13.87a1,1,0,0,0,.8,1.1Z"/><path class="cls-22" d="M92.93,39.57a1.1,1.1,0,0,0,1,1.11,1.08,1.08,0,0,0,1-1,.88.88,0,0,0-.79-.95H94C93.28,38.71,92.93,39,92.93,39.57Z"/><path class="cls-22" d="M94,21.76c-.63,0-1,.31-1,.88a1,1,0,0,0,2,.16v-.13C94.93,22.07,94.61,21.77,94,21.76Z"/><path class="cls-22" d="M94,8.19c-.7,0-1.06.24-1.09.84a1.08,1.08,0,0,0,1,1.13h0a1.1,1.1,0,0,0,1-1.1.81.81,0,0,0-.74-.87Z"/><path class="cls-23" d="M95.92,10.9c0,.61.3.83,1,.83s1-.25,1-.83a1,1,0,0,0-1-1.09h0a1,1,0,0,0-1,1Z"/><path class="cls-22" d="M93.91,35.32a.9.9,0,0,0-1,.79v.17a1,1,0,1,0,2,.16v-.12a.88.88,0,0,0-.75-1A.57.57,0,0,0,93.91,35.32Z"/><path class="cls-24" d="M82.75,40.12a.87.87,0,0,0-.16-1.22l0,0a1.05,1.05,0,0,0-1.25,0A.9.9,0,0,0,81,40.05a.21.21,0,0,0,0,.06c.32.15.39.6.89.58S82.43,40.26,82.75,40.12Z"/><path class="cls-22" d="M93.9,15a.9.9,0,0,0-1,.81.38.38,0,0,0,0,.15,1,1,0,0,0,1,1,1,1,0,0,0,1-1,.41.41,0,0,0,0-.11C94.94,15.27,94.58,15,93.9,15Z"/><path class="cls-23" d="M99.88,40.68a1,1,0,0,0,.92-1.1.83.83,0,0,0-.79-.88h-.16a1,1,0,0,0-1,.89v0A1.06,1.06,0,0,0,99.88,40.68Z"/><path class="cls-23" d="M86.75,46.44a1.08,1.08,0,0,0,1,1,1.06,1.06,0,0,0,1-1.1.84.84,0,0,0-.79-.88.55.55,0,0,0-.18,0A1,1,0,0,0,86.75,46.44Z"/><path class="cls-25" d="M82.89,43.11a1,1,0,0,0-1-1.1,1.36,1.36,0,0,0-1,1,1,1,0,0,0,2,.07Z"/><path class="cls-22" d="M93.94,25.15a.89.89,0,0,0-1,.76.76.76,0,0,0,0,.15,1.13,1.13,0,0,0,1,1.05,1.09,1.09,0,0,0,1-1,.89.89,0,0,0-.79-1Z"/><path class="cls-23" d="M89.77,41.36a1,1,0,0,0,1,1h0a1.16,1.16,0,0,0,1-1,.88.88,0,0,0-.78-1H90.8a.93.93,0,0,0-1,.82Z"/><path class="cls-23" d="M99.81,42.12a1,1,0,0,0-1,1h0a1.1,1.1,0,0,0,1.1,1,1.06,1.06,0,0,0,.9-1.07A.84.84,0,0,0,99.81,42.12Z"/><path class="cls-23" d="M95.92,17.66c0,.61.28.83,1,.83s1-.31,1-.89a1,1,0,0,0-1-1,.27.27,0,0,0-.09,0,1,1,0,0,0-1,.94A.48.48,0,0,0,95.92,17.66Z"/><path class="cls-22" d="M75.79,44.08A1.06,1.06,0,0,0,76.74,43a.83.83,0,0,0-.79-.87h-.16a1,1,0,0,0-1,.88v0A1.08,1.08,0,0,0,75.79,44.08Z"/><path class="cls-22" d="M103.68,34.05a.32.32,0,0,0-.14-.29c-.21-.06-.42-.1-.63-.14-.67-.07-1.07.22-1.09.77a1.07,1.07,0,0,0,1,1.18H103c.41,0,.85-.58.8-1.13A1.74,1.74,0,0,0,103.68,34.05Z"/><path class="cls-23" d="M99.84,30.51a1.06,1.06,0,0,0,1-1,.83.83,0,0,0-.68-1,.65.65,0,0,0-.24,0,1,1,0,0,0-1.08.86v0A1.09,1.09,0,0,0,99.84,30.51Z"/><path class="cls-23" d="M99.87,37.29a1,1,0,0,0,0-2c-.6,0-1.09.39-1.05.9a1,1,0,0,0,1,1.07Z"/><path class="cls-22" d="M93.87,31.93a.88.88,0,0,0-1,.81,1,1,0,1,0,2,.15C94.92,32.27,94.55,31.94,93.87,31.93Z"/><path class="cls-23" d="M99.84,33.9a1,1,0,0,0,1-1,.83.83,0,0,0-.68-1,.65.65,0,0,0-.24,0,1,1,0,0,0-1.08.87A1.06,1.06,0,0,0,99.84,33.9Z"/><path class="cls-23" d="M100.81,26.06a.89.89,0,0,0-.85-.92h-.17a1,1,0,0,0-1,.92,1.11,1.11,0,0,0,1.09,1.06A1.08,1.08,0,0,0,100.81,26.06Z"/><path class="cls-23" d="M84.78,40.4c-.62,0-.89.25-.89.84s.39,1.16.89,1.14,1.14-.6,1.11-.93C85.82,40.81,85.64,40.37,84.78,40.4Z"/><path class="cls-22" d="M99.81,11.58a.92.92,0,0,0-1,.82v.06a1.11,1.11,0,0,0,1,1.1,1.07,1.07,0,0,0,1-1,.93.93,0,0,0-.89-1Z"/><path class="cls-23" d="M95.92,14.3c0,.65.25.84,1,.84a.83.83,0,0,0,1-.7,1.09,1.09,0,0,0,0-.18c0-.63-.36-1-1-1S95.92,13.6,95.92,14.3Z"/><path class="cls-22" d="M99.85,17a1.05,1.05,0,0,0,1-1A.88.88,0,0,0,100,15h-.18a1,1,0,0,0-1,.91v0A1.13,1.13,0,0,0,99.85,17Z"/><path class="cls-22" d="M94.93,43.09a.89.89,0,0,0-.78-1h-.24c-.67,0-1,.38-1,1.11a1,1,0,0,0,2-.13Z"/><path class="cls-22" d="M99.88,20.34a1.06,1.06,0,0,0,.94-1,.9.9,0,0,0-.84-.94h-.16a.93.93,0,0,0-1,.86v0a1,1,0,0,0,1,1.08Z"/><path class="cls-22" d="M92.93,19.31a1,1,0,1,0,2,.08.49.49,0,0,0,0-.12c0-.6-.41-.92-1.09-.9a.88.88,0,0,0-.91.85A.14.14,0,0,0,92.93,19.31Z"/><path class="cls-22" d="M92.93,29.45a1,1,0,0,0,2,0,1,1,0,0,0-2,0Z"/><path class="cls-23" d="M101.81,24.33a1.07,1.07,0,0,0,1,1.09h.07c.64,0,.8-.51.86-1a1,1,0,0,0-.93-1h-.13C102.18,23.48,101.76,23.68,101.81,24.33Z"/><path class="cls-23" d="M103.68,27.11a2.19,2.19,0,0,1-.33-.12,1,1,0,0,0-1.3.1.89.89,0,0,0-.11,1.17,1,1,0,0,0,1.25.47c.54-.17.6-.68.62-1.15A1.57,1.57,0,0,0,103.68,27.11Z"/><path class="cls-24" d="M76.58,40.12a.9.9,0,0,0-.22-1.25,1,1,0,0,0-1.19,0A.83.83,0,0,0,74.81,40a.33.33,0,0,0,.06.1,3.05,3.05,0,0,1,.13.32C75.73,40.87,76,40.83,76.58,40.12Z"/><path class="cls-23" d="M99.83,23.73a1.06,1.06,0,0,0,1-1,.88.88,0,0,0-.78-1,.54.54,0,0,0-.18,0,1,1,0,0,0-1,.89v0A1.11,1.11,0,0,0,99.83,23.73Z"/><path class="cls-22" d="M103.68,13.7v-.14c-.21,0-.34-.16-.51-.23a1.06,1.06,0,0,0-1.33.5,1.11,1.11,0,0,0,.7,1.36,1,1,0,0,0,1.19-.69.13.13,0,0,0,0-.06A.84.84,0,0,0,103.68,13.7Z"/><path class="cls-23" d="M103.54,31.93a1.55,1.55,0,0,0,.13-1.42c-.45-.07-.83-.6-1.36-.24a1,1,0,0,0-.42,1.25.8.8,0,0,0,1,.61.76.76,0,0,0,.16-.06A4.58,4.58,0,0,1,103.54,31.93Z"/><path class="cls-23" d="M97,42.24a.83.83,0,0,0,.9-.76.49.49,0,0,0,0-.17c0-.63-.42-.93-1.08-.91a.93.93,0,0,0-.93,1.08C96,42,96.31,42.28,97,42.24Z"/><path class="cls-23" d="M96.91,8.34a1,1,0,0,0,1-.87v0a1.05,1.05,0,0,0-1-1,1,1,0,0,0-1,1C95.92,8,96.25,8.34,96.91,8.34Z"/><path class="cls-23" d="M73.28,40.41h-1a2.16,2.16,0,0,0-.24.35c-.21.45-.42.91.11,1.3a1.16,1.16,0,0,0,1.53-.16.9.9,0,0,0-.16-1.28l-.09-.06A.71.71,0,0,0,73.28,40.41Z"/><path class="cls-23" d="M103.68,10.31l-.14-.28c-.93-.31-1.59-.12-1.71.51a.9.9,0,0,0,.37,1.05,1.11,1.11,0,0,0,1.27,0A1,1,0,0,0,103.68,10.31Z"/><path class="cls-23" d="M96.94,25.29a.87.87,0,0,0,1-.71s0-.11,0-.16a1,1,0,0,0-.89-1h-.18a1,1,0,0,0-.94,1h0C95.92,25,96.29,25.3,96.94,25.29Z"/><path class="cls-23" d="M96.91,38.85a1,1,0,0,0,1-.88v0a1,1,0,0,0-1-1h-.08a1,1,0,0,0-1,.94h0V38Q95.92,38.85,96.91,38.85Z"/><path class="cls-24" d="M69,40.12l.28.42a1.25,1.25,0,0,0,1.29-.14c.11-.07,0-.21.14-.28a.87.87,0,0,0-.2-1.21l0,0a1,1,0,0,0-1.25,0,.87.87,0,0,0-.25,1.2Z"/><path class="cls-23" d="M96.93,32.07a1,1,0,0,0,1-.87v-.05a.89.89,0,0,0-.86-.92h-.15c-.68,0-1,.35-1,1.06S96.19,32.07,96.93,32.07Z"/><path class="cls-23" d="M96.76,28.68c.73,0,1.18-.42,1.18-1a.87.87,0,0,0-.91-.84H97c-.69,0-1,.33-1,1S96.38,28.66,96.76,28.68Z"/><path class="cls-23" d="M96.91,35.45a1,1,0,0,0,1-.87v0a1,1,0,0,0-1-1h-.06a1,1,0,0,0-1,1v.06C95.92,35.15,96.28,35.45,96.91,35.45Z"/><path class="cls-23" d="M75.72,45.49a1,1,0,0,0-1,.88,1.1,1.1,0,0,0,1,1.09,1,1,0,0,0,0-2Z"/><path class="cls-24" d="M91.63,34.2c-.15-.63-.66-.58-1.13-.56s-.63.38-.7.76a.83.83,0,0,0,.54,1h0C91.55,35.61,91.83,35.1,91.63,34.2Z"/><path class="cls-23" d="M88.76,39.64c0-.58-.35-.9-1-.9-.35,0-.91.63-.93,1s.62.93,1.09.91A1.08,1.08,0,0,0,88.76,39.64Z"/><path class="cls-2" d="M67.1,44.66c.35.14.35.14.51-.14.15,0,.08.14.08.21a1.36,1.36,0,0,0,.22.78c.2-.57.75.06,1-.3.13-.17.33-.29.33-.52s.09-.42-.1-.52-.66-.19-.72-.1c-.27.42-.62.18-.89.13-.48-.07-.44.18-.44.47Z"/><path class="cls-2" d="M100.09,45.33c.37-.29,1.32.36,1.13-.65s-.63-.73-1-.14C100,44.75,100.44,45.08,100.09,45.33Z"/><path class="cls-2" d="M71.47,42.46c-.07.35.29.46.26.74a.3.3,0,0,0,.33.28.17.17,0,0,0,.19-.16c0-.18.08-.37-.14-.49Z"/><path class="cls-2" d="M104.54,45.09c.21-.09.21-.2.16-.27-.17-.23.42-.34.08-.57a.24.24,0,0,0-.25.08A.57.57,0,0,0,104.54,45.09Z"/><path class="cls-2" d="M102.91,9.28c-.6-.23-.6-.23-1-.1C102.28,9.34,102.28,9.34,102.91,9.28Z"/><path class="cls-2" d="M92.49,4.8a1.85,1.85,0,0,0,0,1.56Z"/><path class="cls-2" d="M105.1,7.74c-.25-.15-.39-.31-.58-.13a.31.31,0,0,0-.07.18C104.65,7.92,104.83,7.86,105.1,7.74Z"/><path class="cls-2" d="M101.05,15.29c0,.17.22.21.33.29a.11.11,0,0,0,.16,0h0a.11.11,0,0,0,0-.08c0-.18-.15-.27-.3-.33S101.11,15.2,101.05,15.29Z"/><path class="cls-2" d="M70.7,40.12a.29.29,0,0,0-.14.28.83.83,0,0,0,1,0C71.27,40.31,70.84,40.64,70.7,40.12Z"/><path class="cls-2" d="M84.18,45.63c-.14,0-.38-.07-.37.19,0,.09.16.26.22.25C84.31,46,84.13,45.79,84.18,45.63Z"/><path class="cls-2" d="M70.56,42.24l.14.14c.12,0,.25,0,.22-.19a.26.26,0,0,0-.18-.17C70.59,42,70.58,42.12,70.56,42.24Z"/><path class="cls-2" d="M101.2,42.54c0,.14.14.16.25.19a.17.17,0,0,0,.16-.06.21.21,0,0,0-.18-.25C101.31,42.38,101.25,42.46,101.2,42.54Z"/><path class="cls-2" d="M101.41,16.68c0,.1.07.23.22.19a.18.18,0,0,0,.1-.16c0-.1-.07-.24-.2-.24S101.4,16.57,101.41,16.68Z"/><path class="cls-2" d="M70.56,45.63l.14.14c.16-.14.24-.34,0-.44S70.58,45.51,70.56,45.63Z"/><path class="cls-2" d="M74.27,46.71c.07.06.11.14.16.14s.14-.11.13-.2,0-.22-.13-.16S74.33,46.61,74.27,46.71Z"/><path class="cls-2" d="M103.43,22.72c-.09.06-.2.09-.22.14s.08.15.17.15.19,0,.19-.15S103.47,22.78,103.43,22.72Z"/><path class="cls-2" d="M67,43.23v.56C67.32,43.61,67.32,43.43,67,43.23Z"/><path class="cls-2" d="M92.17,46c-.09,0-.19.08-.13.19a1.54,1.54,0,0,0,.17.19.57.57,0,0,0,.12-.23A.14.14,0,0,0,92.17,46Z"/><path class="cls-2" d="M105.2,45.41c0-.12-.1-.1-.15-.08a.33.33,0,0,0-.16.12c0,.08,0,.12.11.08A.82.82,0,0,0,105.2,45.41Z"/><path class="cls-2" d="M70.92,46.38l.2.18s.11-.09.1-.12a.19.19,0,0,0-.12-.13S71,46.35,70.92,46.38Z"/><path class="cls-26" d="M86.47,57c-1.56,0-3.12,0-4.68,0-.52,0-.49.31-.59.59A10.82,10.82,0,0,1,80.29,61L75.73,72.35c-.07.22-.13.45-.18.68a1.19,1.19,0,0,0-.11.67c.19.36-.11,1.13.78.9l.52-.17a9.37,9.37,0,0,1,.9-.28c1.06-.34,2.09-.73,3.17-1a1.32,1.32,0,0,0,.81-.41c-.06-.14,0-.18.13-.23a25.57,25.57,0,0,0,3.89-1.75,24.47,24.47,0,0,0,.3-3.92C86.24,63.55,86.18,60.25,86.47,57Z"/><path class="cls-10" d="M86.47,57a.63.63,0,0,0-.27.61c0,.87-.15,1.72-.18,2.59-.1,3.21-.26,6.41-.41,9.59,0,.34-.08.68-.14,1l-.2.18c-.07.07-.33.19-.2.37s.28.08.41,0c2.09-.59,4.12-1.25,6.14-2-.29-.22,0-.45,0-.68-.13-2.48.14-5,.13-7.44a16.68,16.68,0,0,0-.35-4.17h5.84c.28,0,.57.1.83-.12Z"/><path class="cls-27" d="M99.67,54.67c0-2,0-2-2-2H78.56a1.91,1.91,0,0,0-1.25.29c.55.26,1.19.25,1.73.55a4.32,4.32,0,0,1,1.56,1.28c.24-.22.54-.13.83-.13Z"/><path class="cls-28" d="M81.61,72.63,77.55,74c-.18.26-.51.2-.75.34s-.31.09-.46.15c-.34.16-.77.08-1,.39l-5.11,2a.59.59,0,0,0-.42.3c1.22-.21,2.38-.36,3.52-.62a32.85,32.85,0,0,0,8.16-2.92c.83-.42,1.62-.89,2.43-1.34.15-.08.29-.16.28-.36a.55.55,0,0,0-.6,0A13.93,13.93,0,0,0,81.61,72.63Z"/><path class="cls-27" d="M73,54.67a11.24,11.24,0,0,1,2.47.14c.37-.51.75-1,1.1-1.54A.6.6,0,0,1,77,53c0-.09.37-.26,0-.27H73.4c-.31,0-.42.14-.42.42Z"/><path class="cls-29" d="M81.61,72.63l2.56-.73,1.34-.53c0-.11-.57.16-.14-.21.11-.1.09-.24.1-.37A26.58,26.58,0,0,0,83,71.85c-.44.23-.91.38-1.36.57C81.37,72.51,81.37,72.59,81.61,72.63Z"/><path class="cls-30" d="M92.7,94.06c.83-.22,1.67-.45,2.5-.65.51-.13.22-.53.42-1l-3,1.45Z"/><path class="cls-31" d="M75.61,73.76c0-.25,0-.49-.06-.73a3.86,3.86,0,0,0-.7,1.54c-.17.46.3.08.44.19C75.94,74.59,75.56,74.11,75.61,73.76Z"/><path class="cls-32" d="M75.61,73.76c-.12.32.15.78-.32,1v.13l1.13-.3c0-.14,0-.23-.17-.15C75.49,74.73,75.81,74,75.61,73.76Z"/><path class="cls-33" d="M91,77.15c.41-.13.71-.13,1-.45A1.43,1.43,0,0,0,91,77.15Z"/><path class="cls-34" d="M93,76.45l-.18-.13-.78.33A1.07,1.07,0,0,0,93,76.45Z"/><path class="cls-1" d="M82.89,5.79a1.09,1.09,0,0,0-1-1.1,1.07,1.07,0,0,0-1,1.06,1.12,1.12,0,0,0,.91,1A1.11,1.11,0,0,0,82.89,5.79Z"/><path class="cls-2" d="M79.73,14.18a1,1,0,0,0-2-.08.49.49,0,0,0,0,.12,1,1,0,1,0,2,.08A.24.24,0,0,0,79.73,14.18Z"/><path class="cls-1" d="M86.75,5.72a1,1,0,0,0,2,.15V5.74a1,1,0,1,0-2-.15A.28.28,0,0,0,86.75,5.72Z"/><path class="cls-1" d="M86.75,12.48a1,1,0,1,0,2,.17v-.11a1.13,1.13,0,0,0-1-1.08A1.15,1.15,0,0,0,86.75,12.48Z"/><path class="cls-1" d="M79.73,10.8a1,1,0,1,0-2,.12,1,1,0,0,0,2-.12Z"/><path class="cls-1" d="M86.75,22.69a1,1,0,0,0,1,1,1,1,0,0,0,1-1,1.14,1.14,0,0,0-1-1A1.17,1.17,0,0,0,86.75,22.69Z"/><path class="cls-1" d="M86.75,19.32a1,1,0,0,0,1,1,1,1,0,0,0,1-1,1.15,1.15,0,0,0-1-1A1.07,1.07,0,0,0,86.75,19.32Z"/><path class="cls-1" d="M77.73,21.08a1.07,1.07,0,0,0,1,.94,1,1,0,1,0,0-2.08h0A1.09,1.09,0,0,0,77.73,21.08Z"/><path class="cls-1" d="M77.73,17.67a1.09,1.09,0,0,0,.94,1,1,1,0,1,0,0-2.09h0A1.07,1.07,0,0,0,77.73,17.67Z"/><path class="cls-1" d="M77.73,7.46a1,1,0,1,0,2,0,1.09,1.09,0,0,0-1.07-1.08h0A1.1,1.1,0,0,0,77.73,7.46Z"/><path class="cls-1" d="M81.88,28.54a.9.9,0,0,0-1,.79,1.27,1.27,0,0,0,0,.2,1,1,0,0,0,1,1,1,1,0,0,0,1-1h0a.9.9,0,0,0-.81-1A.55.55,0,0,0,81.88,28.54Z"/><path class="cls-1" d="M80.88,12.51a1,1,0,0,0,1,1h0a1,1,0,0,0,1-.92,1.11,1.11,0,0,0-1-1.11A1.09,1.09,0,0,0,80.88,12.51Z"/><path class="cls-1" d="M80.88,9.12a1,1,0,0,0,1,1H82a1,1,0,0,0,.94-.95,1.11,1.11,0,0,0-1-1.1A1.09,1.09,0,0,0,80.88,9.12Z"/><path class="cls-1" d="M80.88,32.94a1,1,0,0,0,2,0c0-.67-.39-1-1.11-1a.89.89,0,0,0-.91.88S80.88,32.9,80.88,32.94Z"/><path class="cls-1" d="M69.85,35.32a.94.94,0,0,0-1,.89v.12a1,1,0,0,0,1,1,1.05,1.05,0,0,0,1-1,.89.89,0,0,0-.78-1Z"/><path class="cls-1" d="M81.86,21.76a.88.88,0,0,0-1,.81.56.56,0,0,0,0,.13,1,1,0,0,0,2,0,.91.91,0,0,0-.8-1A.7.7,0,0,0,81.86,21.76Z"/><path class="cls-1" d="M80.91,15.82a1.1,1.1,0,0,0,1,1.12,1.07,1.07,0,0,0,1-1A1,1,0,0,0,82,14.92a1.06,1.06,0,0,0-.25,0C81.15,15,81,15.4,80.91,15.82Z"/><path class="cls-1" d="M81.9,35.32a.89.89,0,0,0-1,.76.76.76,0,0,0,0,.15c0,.54.53,1.13,1,1a1,1,0,0,0,1-.94.89.89,0,0,0-.76-1Z"/><path class="cls-1" d="M77.73,24.4a1,1,0,0,0,1,1,1,1,0,0,0,1-1,.9.9,0,0,0-.81-1h-.14A.9.9,0,0,0,77.73,24.4Z"/><path class="cls-1" d="M87.74,10c.68,0,1-.28,1-.88a1,1,0,0,0-.94-1.07h-.11a1,1,0,0,0-1,1,.88.88,0,0,0,.81.95A.54.54,0,0,0,87.74,10Z"/><path class="cls-35" d="M87.48,33.78a.81.81,0,0,0,1.11-.25l0-.06a.94.94,0,0,0-.17-1.31l-.11-.07c-.75-.29-1.33-.13-1.52.49a.86.86,0,0,0,.47,1.14A.6.6,0,0,0,87.48,33.78Z"/><path class="cls-1" d="M81.78,25.15a.9.9,0,0,0-.9.88v.08a1.19,1.19,0,0,0,1,1,1.11,1.11,0,0,0,1-1C82.88,25.44,82.5,25.12,81.78,25.15Z"/><path class="cls-1" d="M86.75,15.93a1.1,1.1,0,0,0,1.08,1,1.09,1.09,0,0,0,.92-1.07,1.11,1.11,0,0,0-.93-1A1.2,1.2,0,0,0,86.75,15.93Z"/><path class="cls-1" d="M75.75,28.54a.91.91,0,0,0-1,.92,1,1,0,0,0,.94,1.07,1,1,0,0,0,1.07-.94v-.13a.9.9,0,0,0-.85-.93Z"/><path class="cls-1" d="M75.72,31.93a.9.9,0,0,0-1,.82.49.49,0,0,0,0,.12,1,1,0,1,0,2,.1v-.13a.9.9,0,0,0-.87-.92Z"/><path class="cls-1" d="M81.78,18.35a.88.88,0,0,0-.9.87h0v.08a1,1,0,0,0,2,0C82.88,18.67,82.5,18.35,81.78,18.35Z"/><path class="cls-1" d="M77.73,27.86a1,1,0,0,0,2-.11c0-.6-.42-.93-1.09-.9a.89.89,0,0,0-.92.86A.76.76,0,0,0,77.73,27.86Z"/><path class="cls-2" d="M78.75,30.23a.91.91,0,0,0-1,.75.89.89,0,0,0,0,.23,1,1,0,1,0,2,.09.29.29,0,0,0,0-.13.89.89,0,0,0-.84-.94Z"/><path class="cls-1" d="M74.72,15.69v.57a1.26,1.26,0,0,0,1.1.64.9.9,0,0,0,.89-.77A1,1,0,0,0,76.09,15c-.52-.23-.84,0-1.17.36A1.45,1.45,0,0,0,74.72,15.69Z"/><path class="cls-1" d="M74.72,5.38v.7a1.27,1.27,0,0,0,1.1.64A.91.91,0,0,0,76.7,6,1,1,0,0,0,76.34,5a.92.92,0,0,0-1.12,0A3.24,3.24,0,0,0,74.72,5.38Z"/><path class="cls-1" d="M84.81,9.89c-.66,0-.93.29-.92,1a1,1,0,0,0,1,1,1.33,1.33,0,0,0,1-1C85.91,10.23,85.5,9.89,84.81,9.89Z"/><path class="cls-1" d="M86.75,29.54a1,1,0,1,0,1-1.06h-.07A1.13,1.13,0,0,0,86.75,29.54Z"/><path class="cls-1" d="M75.75,35.32a1,1,0,0,0-1,.9v0a1.1,1.1,0,0,0,1,1,1.09,1.09,0,0,0,1-1,.89.89,0,0,0-.81-1Z"/><path class="cls-1" d="M84.85,6.5c-.68,0-1,.26-1,.91a1.08,1.08,0,0,0,.94,1.05,1.29,1.29,0,0,0,1.08-1.08C85.91,6.86,85.5,6.5,84.85,6.5Z"/><path class="cls-1" d="M74.72,8.76v.7a1.27,1.27,0,0,0,1.1.64.91.91,0,0,0,.88-.7,1,1,0,0,0-.38-1.06.9.9,0,0,0-1.11-.05A3.63,3.63,0,0,0,74.72,8.76Z"/><path class="cls-1" d="M74.72,12.16v.7a1.27,1.27,0,0,0,1.1.64.91.91,0,0,0,.88-.69,1,1,0,0,0-.36-1.08.92.92,0,0,0-1.12-.05A3.24,3.24,0,0,0,74.72,12.16Z"/><path class="cls-1" d="M87.73,25.15a.94.94,0,0,0-1,.92,1,1,0,1,0,2,0,.88.88,0,0,0-.88-.91Z"/><path class="cls-1" d="M74.72,22.47V23c.34.38.61.86,1.28.59.44-.18.75-.41.72-.92s-.19-.86-.71-.93-1-.07-1.17.53Z"/><path class="cls-1" d="M79.73,34.58a1,1,0,0,0-1-.95h0a.87.87,0,0,0-1,.78.91.91,0,0,0,0,.17,1,1,0,0,0,2,0Z"/><path class="cls-1" d="M74.72,19.08v.57c.34.44.72.83,1.35.59a.89.89,0,0,0,.67-1c-.06-.42-.22-.79-.7-.87A1.08,1.08,0,0,0,74.72,19.08Z"/><path class="cls-1" d="M83.89,17.59a1,1,0,0,0,.91,1.05,1.32,1.32,0,0,0,1.08-1.05.87.87,0,0,0-.83-.92h-.17C84.22,16.68,83.89,17,83.89,17.59Z"/><path class="cls-1" d="M72.54,33.63c-.36,0-.69.3-.69.91a1.09,1.09,0,0,0,1,1.06,1.19,1.19,0,0,0,1-1C73.84,34,73.37,33.62,72.54,33.63Z"/><path class="cls-1" d="M84.81,23.45a.84.84,0,0,0-.92.74.54.54,0,0,0,0,.18,1,1,0,0,0,.92,1h0a1.25,1.25,0,0,0,1-1.08C85.85,23.77,85.46,23.45,84.81,23.45Z"/><path class="cls-1" d="M83.89,14.22a1,1,0,0,0,.94,1,1.27,1.27,0,0,0,1-1.09c0-.57-.41-.89-1.07-.87a.82.82,0,0,0-.91.74A.6.6,0,0,0,83.89,14.22Z"/><path class="cls-1" d="M74.72,25.86v.41c.28.49.54,1,1.29.73a.89.89,0,0,0,.71-.92c0-.42-.17-.83-.63-.91s-1-.12-1.25.52A.66.66,0,0,1,74.72,25.86Z"/><path class="cls-1" d="M83.89,27.52c0,.8.39,1.28.9,1.29a1.28,1.28,0,0,0,1.09-1,1,1,0,0,0-1-.92C84.22,26.84,83.92,27.15,83.89,27.52Z"/><path class="cls-1" d="M84.58,20.07c-.37,0-.69.31-.69.91A1,1,0,0,0,84.82,22,1.3,1.3,0,0,0,85.88,21C85.87,20.45,85.39,20.06,84.58,20.07Z"/><path class="cls-1" d="M84.6,33.62c-.34,0-.69.27-.71.88a1.09,1.09,0,0,0,.91,1.08,1.27,1.27,0,0,0,1.09-1C85.91,34,85.5,33.63,84.6,33.62Z"/><path class="cls-1" d="M83.89,31.13a1,1,0,0,0,.9,1.07,1.28,1.28,0,0,0,1.09-1.05,1,1,0,0,0-2,0Z"/><path class="cls-36" d="M78,37.29c-.08.42-.55.78-.11,1.23s.75.67,1.25.37.78-.72.44-1.31S78.76,36.84,78,37.29Z"/><path class="cls-37" d="M73.71,30.66c-.12-.11-.25-.21-.38-.31a1,1,0,0,0-1.34.29,1,1,0,0,0,.23,1.29,3.43,3.43,0,0,0,.49.28H73c.24-.47.69-.83.72-1.41Z"/><path class="cls-1" d="M73.71,38.42c.24-.19.11-.47.14-.7-.48-.83-1-1-1.86-.42v.29a.84.84,0,0,0,.71.25A.82.82,0,0,1,73.71,38.42Z"/><path class="cls-38" d="M73.71,30.8c-.23.47-.73.83-.71,1.41C73.82,31.79,74,31.48,73.71,30.8Z"/><path class="cls-37" d="M68.84,29.5a1,1,0,0,0,2,0,1,1,0,1,0-2-.21v.18Z"/><path class="cls-39" d="M68.84,12.51a1.11,1.11,0,0,0,1,1.06,1.07,1.07,0,0,0,1-1,1,1,0,0,0-2-.11Z"/><path class="cls-40" d="M68.84,15.93a1,1,0,1,0,2,0,1,1,0,0,0-1.06-1h0A1.05,1.05,0,0,0,68.84,15.93Z"/><path class="cls-37" d="M68.84,19.32a1,1,0,1,0,2,0,1,1,0,0,0-1-1h0A1.06,1.06,0,0,0,68.84,19.32Z"/><path class="cls-40" d="M68.84,22.68a1.09,1.09,0,0,0,1,1.05,1.07,1.07,0,0,0,1-1,1,1,0,0,0-1-1,1,1,0,0,0-1,.91Z"/><path class="cls-37" d="M68.84,32.84a1.09,1.09,0,0,0,1,1.06,1.07,1.07,0,0,0,1-1,1,1,0,0,0-2-.1Z"/><path class="cls-40" d="M68.84,26.08a1,1,0,1,0,2,.13.28.28,0,0,0,0-.13,1,1,0,0,0-2-.13v.13Z"/><path class="cls-37" d="M68.84,5.65a1,1,0,1,0,2,.18V5.72a1,1,0,1,0-2-.07Z"/><path class="cls-37" d="M68.84,9.09a1.05,1.05,0,0,0,1,1.05,1,1,0,0,0,1-1,1,1,0,0,0-2-.14Z"/><path class="cls-40" d="M71.85,7.45a1,1,0,0,0,1,1,1.19,1.19,0,0,0,1-1.09,1.06,1.06,0,0,0-1-.95,1,1,0,0,0-1,1Z"/><path class="cls-37" d="M73.85,21A1.17,1.17,0,0,0,72.79,20a1,1,0,0,0-.94,1h0a1.06,1.06,0,0,0,1,1A1.17,1.17,0,0,0,73.85,21Z"/><path class="cls-37" d="M72.83,23.4a1,1,0,0,0-1,.9h0v.06a1,1,0,0,0,1,1,1.14,1.14,0,0,0,1-1,1,1,0,0,0-1-1Z"/><path class="cls-37" d="M72.81,16.61a1,1,0,0,0-1,.92,1,1,0,0,0,1,1.08,1,1,0,0,0,1-1A1.13,1.13,0,0,0,72.81,16.61Z"/><path class="cls-37" d="M72.78,26.78a1,1,0,0,0-.93,1h0a1.06,1.06,0,0,0,1,1,1.2,1.2,0,0,0,1-1A1.18,1.18,0,0,0,72.78,26.78Z"/><path class="cls-37" d="M71.85,14.2a1,1,0,0,0,1,1,1.17,1.17,0,0,0,1-1,1.29,1.29,0,0,0-1-1.08A1,1,0,0,0,71.85,14.2Z"/><path class="cls-37" d="M71.85,10.84a1,1,0,0,0,1,1,1.18,1.18,0,0,0,1-1,1.31,1.31,0,0,0-1-1A1,1,0,0,0,71.85,10.84Z"/><path class="cls-24" d="M89.77,27.79a1,1,0,0,0,.94,1h.09a1.12,1.12,0,0,0,1-1.05,1.08,1.08,0,0,0-1.11-1h0A1.05,1.05,0,0,0,89.77,27.79Z"/><path class="cls-24" d="M84.82,37a1.06,1.06,0,0,0-1,.88A1.26,1.26,0,0,0,85,39a1.12,1.12,0,0,0,.93-1.1C85.91,37.34,85.47,37,84.82,37Z"/><path class="cls-24" d="M89.77,17.68a1,1,0,0,0,1.12.93,1,1,0,0,0,.89-1,1,1,0,1,0-2,.09Z"/><path class="cls-24" d="M91.78,7.45a1.25,1.25,0,0,0-1-1.07,1.1,1.1,0,0,0-1,1.13c0,.58.37.92,1.08,1A1.06,1.06,0,0,0,91.78,7.45Z"/><path class="cls-24" d="M89.77,14.22a1,1,0,0,0,1.06,1h.09a1.05,1.05,0,0,0,.86-1,1.15,1.15,0,0,0-1.08-1A1.09,1.09,0,0,0,89.77,14.22Z"/><path class="cls-24" d="M89.77,31.24a1.11,1.11,0,0,0,1,1,1.15,1.15,0,0,0,1-1.06,1.25,1.25,0,0,0-1.12-1A1.06,1.06,0,0,0,89.77,31.24Z"/><path class="cls-41" d="M86.75,36.28a1,1,0,1,0,2-.05,1.09,1.09,0,0,0-1-1C87.41,35.2,86.77,35.86,86.75,36.28Z"/><path class="cls-24" d="M89.77,10.89a1,1,0,0,0,1.12.94,1.06,1.06,0,0,0,.89-1,1.37,1.37,0,0,0-1.11-1A1.13,1.13,0,0,0,89.77,10.89Z"/><path class="cls-24" d="M91.78,24.38a1.07,1.07,0,0,0-1.11-1,1,1,0,0,0-.9,1v0a1,1,0,0,0,1,.95h0A1.09,1.09,0,0,0,91.78,24.38Z"/><path class="cls-24" d="M90.7,20.06a.88.88,0,0,0-.93.84v.16a1,1,0,0,0,1,1h.1a1,1,0,0,0,.91-1C91.8,20.43,91.37,20.06,90.7,20.06Z"/><path class="cls-24" d="M73.71,38.42c0-.56,0-1-.83-.75a2.77,2.77,0,0,1-.91-.09c-.35.58-.06,1,.42,1.29S73.4,38.9,73.71,38.42Z"/><path class="cls-42" d="M72.9,55v1.67H73V55Z"/><path class="cls-43" d="M76.86,74.45c.19-.21.65,0,.69-.45a2.4,2.4,0,0,0-.87.28C76.71,74.38,76.81,74.39,76.86,74.45Z"/><path class="cls-44" d="M76.86,74.45l-.18-.17a.66.66,0,0,0-.42.15l.18.16Z"/></g></g></g></g></svg>