<svg xmlns="http://www.w3.org/2000/svg" width="105" height="78" viewBox="0 0 105 78">
  <defs>
    <style>
      .cls-1, .cls-2, .cls-3 {
        fill-rule: evenodd;
      }

      .cls-2 {
        fill: #d82027;
      }

      .cls-3 {
        fill: #fff;
      }
    </style>
  </defs>
  <g id="ODISHA_RIPORTER" data-name="ODISHA RIPORTER">
    <path class="cls-1" d="M1000.44,87.976c-0.766-.022-1.532-0.047-2.3-0.02a0.29,0.29,0,0,1,.025.084c0.029,0.371.01,0.746,0.01,1.182-0.113-.087-0.173-0.127-0.225-0.175a4.938,4.938,0,0,0-7,.6,6.866,6.866,0,0,0-1.408,5.447,4.56,4.56,0,0,0,1.55,2.867,0.669,0.669,0,0,1,.266.568,4.41,4.41,0,0,0,1.276,3.294,2.673,2.673,0,0,0,4.214-.224,5.433,5.433,0,0,0,.421-5.591,4.11,4.11,0,0,0-.392-0.554c-1.459-1.728-3.154-1.5-4.548.042-0.08.089-.149,0.189-0.273,0.346a5.391,5.391,0,0,1-.295-0.809,4.358,4.358,0,0,1,.542-3.1,2.946,2.946,0,0,1,4.912-.366,3.567,3.567,0,0,1,.814,2.234c0.016,0.616,0,1.233,0,1.868h2.409V95.22c0-2.354-.01-4.708.01-7.062C1000.45,88.1,1000.44,88.036,1000.44,87.976Zm-6.573,9.138a0.8,0.8,0,0,1,1.455.013,8.229,8.229,0,0,1,.493,1.355l-0.1.037a2.155,2.155,0,0,1-.419,1.42,0.793,0.793,0,0,1-1.356,0A2.652,2.652,0,0,1,993.867,97.114Zm-29.692,5.449-1.395,1.669c-0.159-.187-0.3-0.354-0.445-0.522-0.585-.692-1.164-1.389-1.758-2.073a0.489,0.489,0,0,1-.092-0.541,14.244,14.244,0,0,0,.453-7.3,5.029,5.029,0,0,0-.948-2,2.948,2.948,0,0,0-3.284-1.26,3.25,3.25,0,0,0-2.473,2.712,9,9,0,0,0-.02,1.922,2.679,2.679,0,0,0,.225.665l0.281-.389a2.7,2.7,0,0,1,4.131-.431,4.139,4.139,0,0,1,1.373,3.089,5.112,5.112,0,0,1-.989,3.494,2.674,2.674,0,0,1-4.216.218,4.367,4.367,0,0,1-1.272-3.183,0.8,0.8,0,0,0-.343-0.713,4.2,4.2,0,0,1-1.493-2.846,6.9,6.9,0,0,1,1.557-5.481,5.341,5.341,0,0,1,8.485.772,10.161,10.161,0,0,1,1.506,6.038,14.351,14.351,0,0,1-.736,4.128,0.491,0.491,0,0,0,.09.394C963.251,101.477,963.71,102.01,964.175,102.563Zm-6.075-4.07,0.1-.034a8.133,8.133,0,0,0-.458-1.291,0.811,0.811,0,0,0-1.5-.034,2.651,2.651,0,0,0,.076,2.79,0.8,0.8,0,0,0,1.378-.006A2.183,2.183,0,0,0,958.1,98.493Zm46.16-2.646,0.27-.387a2.709,2.709,0,0,1,4.16-.428,4.132,4.132,0,0,1,1.36,3.059,5.116,5.116,0,0,1-1.01,3.527,2.67,2.67,0,0,1-4.19.21,4.381,4.381,0,0,1-1.28-3.254,0.683,0.683,0,0,0-.3-0.619,4.208,4.208,0,0,1-1.54-2.9,6.924,6.924,0,0,1,1.53-5.419,5.339,5.339,0,0,1,8.51.72,10.1,10.1,0,0,1,1.52,5.96,14.339,14.339,0,0,1-.74,4.205,0.551,0.551,0,0,0,.1.424c0.43,0.542.88,1.065,1.35,1.619-0.46.551-.92,1.1-1.4,1.671-0.77-.919-1.53-1.807-2.27-2.714a0.609,0.609,0,0,1,0-.442,14.833,14.833,0,0,0,.51-6.969,5.408,5.408,0,0,0-.99-2.27,2.975,2.975,0,0,0-3.31-1.3,3.246,3.246,0,0,0-2.48,2.7,8.222,8.222,0,0,0-.02,1.922A2.534,2.534,0,0,0,1004.26,95.847Zm3.66,2.653c0.04-.012.07-0.025,0.11-0.037a9.691,9.691,0,0,0-.5-1.351,0.8,0.8,0,0,0-1.44-.014,2.63,2.63,0,0,0,.07,2.851,0.786,0.786,0,0,0,1.33,0A2.1,2.1,0,0,0,1007.92,98.5Zm-23.189,4.225h-2.267v-1.587a4.335,4.335,0,0,1-7.473-1.392,4.483,4.483,0,0,1,.038-2.654,0.432,0.432,0,0,0-.046-0.361c-1.338-1.334-1.6-4.183-.455-6.139a5.055,5.055,0,0,1,5.827-2.555,3.666,3.666,0,0,1,1.946,1.4,0.741,0.741,0,0,1,.064.133l0.08-.045V87.887h2.286v14.838Zm-8.2-7.7a3.089,3.089,0,0,1,2.514-.239,0.454,0.454,0,0,1,.29.223c0.023,0.751.014,1.5,0.014,2.281-0.178-.052-0.294-0.091-0.413-0.12a1.34,1.34,0,0,0-1.638.643,1.523,1.523,0,0,0,.4,1.82,2.341,2.341,0,0,0,.814.439,3.243,3.243,0,0,0,3.83-2.486,17.394,17.394,0,0,0,.1-3.024,6.022,6.022,0,0,0-.165-1.35,3.315,3.315,0,0,0-3.429-2.769A3.029,3.029,0,0,0,976.531,95.022Zm-9.088-1.374a16.856,16.856,0,0,1,2.02.24,4.586,4.586,0,0,1,3.473,4.483,4.385,4.385,0,0,1-.9,3.125,3.5,3.5,0,0,1-5.347.02,6.383,6.383,0,0,1-1.584-3.534,12.63,12.63,0,0,1,.633-6.49,6.435,6.435,0,0,1,1.82-2.65,3.91,3.91,0,0,1,5.9.827l-1.37,1.882c-0.143-.169-0.265-0.32-0.395-0.465a1.793,1.793,0,0,0-2.689-.222A4.815,4.815,0,0,0,967.443,93.648Zm-0.344,2.5a5.194,5.194,0,0,0,.964,3.3,2.215,2.215,0,0,0,.974.651,1.152,1.152,0,0,0,1.6-.8,2.41,2.41,0,0,0-1.349-2.89A4.775,4.775,0,0,0,967.1,96.149Zm18.972-8.279h2.242v14.857h-2.242V87.87Zm-22.993-1.157c-0.752,0-1.459.005-2.166-.008a0.355,0.355,0,0,1-.205-0.178,2.943,2.943,0,0,0-5.215,0,0.407,0.407,0,0,1-.276.184c-0.7.016-1.4,0.008-2.1,0.008,0.16-2,2.532-4.08,4.765-4.174A5.282,5.282,0,0,1,963.078,86.713Zm-19.43,16.016H941.4v-0.447c0-2.569.02-5.139-.013-7.708a7.6,7.6,0,0,0-.295-2.088,2.8,2.8,0,0,0-2.9-2.049,1.245,1.245,0,0,0-1.24.932c0.4,0.089.8,0.164,1.187,0.277a0.35,0.35,0,0,1,.188.281c-0.126.63-.281,1.254-0.434,1.911-0.9-.292-1.8-0.6-2.521.293a2.062,2.062,0,0,0-.317,2.043,3.315,3.315,0,0,1,1.464-1.478,2.479,2.479,0,0,1,3.155.428,4.761,4.761,0,0,1,1.272,4.01,4.449,4.449,0,0,1-1.081,2.613,2.652,2.652,0,0,1-3.849.314,4.132,4.132,0,0,1-1.522-3.017,0.6,0.6,0,0,0-.317-0.538,3.192,3.192,0,0,1-1.45-2.528,4.234,4.234,0,0,1,1.512-3.955,0.707,0.707,0,0,0,.163-0.428A4.239,4.239,0,0,1,937.315,88a3.551,3.551,0,0,1,3.926,1.307,0.8,0.8,0,0,1,.05.141l0.1-.059V87.874h2.258v14.855Zm-7.134-4.239A8.292,8.292,0,0,0,937,99.824a0.819,0.819,0,0,0,1.506,0,2.542,2.542,0,0,0-.074-2.689,0.79,0.79,0,0,0-1.4.013A7.824,7.824,0,0,0,936.514,98.49Zm-21.385-.4c-0.458-.4-0.908-0.778-1.336-1.181a0.4,0.4,0,0,1,0-.352,5.319,5.319,0,0,1,1.913-1.934,5.874,5.874,0,0,0,.916-0.651,1.6,1.6,0,0,0,.516-1.647,0.594,0.594,0,0,0-.987-0.287,0.437,0.437,0,0,0-.116.533A1.294,1.294,0,0,1,915,94.375a1.519,1.519,0,0,1-1.53-1.324,3.234,3.234,0,0,1,3.688-3.539,3.048,3.048,0,0,1,2.245,2.563,3.44,3.44,0,0,1-1.151,3.379c1.546,1.185,1.587,2.772,1.1,4.4a3.85,3.85,0,0,1-3.479,2.808,5.66,5.66,0,0,1-6.492-4.483,10.024,10.024,0,0,1,3.422-10.7c0.189-.141.389-0.265,0.612-0.416l1.36,1.905c-0.228.181-.442,0.333-0.636,0.508a7.716,7.716,0,0,0-2.589,7.948,3.682,3.682,0,0,0,2.866,2.985,2.794,2.794,0,0,0,2.062-.333,1.883,1.883,0,0,0,.983-1.9,0.9,0.9,0,0,0-.567-0.9,1.114,1.114,0,0,0-1.225.193C915.484,97.647,915.333,97.851,915.129,98.086Zm16.027-1.073c-0.1-.018-0.183-0.027-0.264-0.05-0.527-.149-1.053-0.3-1.6-0.457a6.656,6.656,0,0,0-.012-3.743,3.172,3.172,0,0,0-3.579-2.317,3.383,3.383,0,0,0-2.792,3.118,3.075,3.075,0,0,0,.224,1.729L924.1,94l1.683,1.366c-0.242.309-.484,0.581-0.683,0.882a4,4,0,0,0-.759,2.895,1.38,1.38,0,0,0,1.7,1.134,1.4,1.4,0,0,0,.977-1.825l-0.4.548-1.6-1.3,2.695-3.692,1.5,1.278-0.828,1.287a3.922,3.922,0,0,1,.652,3.628,3.309,3.309,0,0,1-3.36,2.535,3.456,3.456,0,0,1-3.416-2.7,9.3,9.3,0,0,1-.112-2.1,0.866,0.866,0,0,0-.283-0.739,4.346,4.346,0,0,1-1.3-3.133,6.067,6.067,0,0,1,2.351-5.242,5.44,5.44,0,0,1,8.236,2.565,7.67,7.67,0,0,1,.126,5.345C931.25,96.825,931.2,96.912,931.156,97.013Zm16.2-9.137v14.848h-2.242V87.876h2.242Zm-25.929-1.163a5.07,5.07,0,0,1,9.967-.081,2.212,2.212,0,0,1-.278.044c-0.337.012-.677-0.009-1.01,0.028a1.338,1.338,0,0,1-1.4-.633,2.889,2.889,0,0,0-4.808.358,0.481,0.481,0,0,1-.494.29C922.753,86.7,922.105,86.713,921.429,86.713Z" transform="translate(-909 -29)"/>
    <path class="cls-2" d="M927.67,105.516A1.31,1.31,0,0,1,926.348,107a1.351,1.351,0,0,1-1.384-1.411,1.41,1.41,0,0,1,1.326-1.56A1.345,1.345,0,0,1,927.67,105.516Z" transform="translate(-909 -29)"/>
    <path class="cls-2" d="M998.256,87.7c0.048,0,2.254.014,2.294,0.015a1.435,1.435,0,0,0-.24-0.574,9.91,9.91,0,0,1-.564-0.955c0.143-.041.252-0.073,0.364-0.1a5.142,5.142,0,0,0,2.34-1.178,4.591,4.591,0,0,0,.67-1.07,0.449,0.449,0,0,0,.02-0.374c-0.34-.489-0.71-0.958-1.09-1.466a2.271,2.271,0,0,1-1.41,1.261A15.8,15.8,0,0,0,999,83.9a7.353,7.353,0,0,0-1.316.79,1.012,1.012,0,0,0-.321,1.226C997.618,86.535,997.952,87.111,998.256,87.7Z" transform="translate(-909 -29)"/>
  </g>
  <g id="LOGO">
    <path class="cls-1" d="M994,32.719A3.654,3.654,0,0,0,990.239,29q-28.246,0-56.492,0a3.652,3.652,0,0,0-3.74,3.7q0,19.8,0,39.594a3.894,3.894,0,0,0,.111.938A3.667,3.667,0,0,0,933.785,76q14.1,0,28.19,0,14.115,0,28.228,0a3.657,3.657,0,0,0,3.8-3.722Q994,52.5,994,32.719Z" transform="translate(-909 -29)"/>
    <path class="cls-3" d="M975.57,65.532v0.861H965.544V65.548c0.442-.062.883-0.095,1.309-0.19a1.967,1.967,0,0,0,1.717-2.125q0-9.759,0-19.518a2,2,0,0,0-1.813-2.2c-0.393-.082-0.8-0.109-1.217-0.164V40.514h0.429c3.261,0.005,6.522-.006,9.783.022a12.728,12.728,0,0,1,5.511,1.151,5.886,5.886,0,0,1,3.572,5.968,6.3,6.3,0,0,1-4.617,5.907c-0.564.193-1.148,0.328-1.771,0.5,0.323,0.436.638,0.864,0.956,1.29q2.866,3.841,5.735,7.68c0.183,0.244.373,0.484,0.575,0.711a4.305,4.305,0,0,0,3.054,1.745v0.933c-0.272,0-.538,0-0.8,0-1.525-.016-3.051-0.045-4.576-0.04a0.811,0.811,0,0,1-.755-0.375q-4.026-5.574-8.07-11.136a0.657,0.657,0,0,0-.635-0.314c-0.478.022-.958,0.006-1.5,0.006v8.489a2.2,2.2,0,0,0,2.124,2.379C974.879,65.473,975.208,65.5,975.57,65.532ZM972.428,52.82a13.129,13.129,0,0,0,5.9-1.052,4.1,4.1,0,0,0,2.22-2.92,7.073,7.073,0,0,0-.072-3.209,4.054,4.054,0,0,0-2.188-2.738,8.443,8.443,0,0,0-5.182-.573,0.61,0.61,0,0,0-.547.518,5.451,5.451,0,0,0-.125,1.006c-0.01,2.862-.006,5.724-0.006,8.586V52.82ZM949.08,44.152L947.529,42.4a9.074,9.074,0,0,1,2.36-1.357c4.837-1.916,11.325-.721,14.32,5.3a14.967,14.967,0,0,1,0,13.906,11.02,11.02,0,0,1-13.752,5.419,10.867,10.867,0,0,1-3.821-2.424c-0.077-.075-0.147-0.159-0.243-0.264l2.124-1.684c0.282,0.354.542,0.689,0.813,1.017a6.448,6.448,0,0,0,4.448,2.53,6,6,0,0,0,5.783-2.872,11.755,11.755,0,0,0,1.744-4.606,21.413,21.413,0,0,0-.319-9.633,10.527,10.527,0,0,0-1.8-3.722,6.466,6.466,0,0,0-9.916-.077C949.23,43.988,949.178,44.039,949.08,44.152Z" transform="translate(-909 -29)"/>
    <path class="cls-2" d="M939.282,68c-7.137-9.088-6.082-24.1,2.57-31.584l1.9,2.136a19.034,19.034,0,0,0-6.52,13.423,20.184,20.184,0,0,0,4.257,14.357Zm5.524-28.265,1.72,1.932a15.667,15.667,0,0,0-1.447,21.931l-2.06,1.555A18.182,18.182,0,0,1,944.806,39.731Zm1.36,23.069a11.67,11.67,0,0,1-1.73-2.416,14.158,14.158,0,0,1-1.655-5.883,15.331,15.331,0,0,1,1.888-8.882,10.259,10.259,0,0,1,2.653-3.057c0.48,0.539.963,1.07,1.426,1.617a0.4,0.4,0,0,1-.068.307c-0.521.88-1.125,1.721-1.564,2.638a13.4,13.4,0,0,0,.34,12.477c0.133,0.26.273,0.517,0.422,0.769s0.31,0.493.485,0.769Zm3.575-17.508c0.523,0.592,1.019,1.193,1.562,1.75a0.8,0.8,0,0,1,.146,1.043,11.778,11.778,0,0,0,.1,10.1,0.446,0.446,0,0,1-.158.683c-0.652.454-1.272,0.952-1.907,1.434A13.89,13.89,0,0,1,949.741,45.292Zm2.228,7.826a2.28,2.28,0,1,1,4.509.171,2.406,2.406,0,0,1-1.717,2.112,2.277,2.277,0,0,1-2.775-2.024C951.974,53.268,951.972,53.158,951.969,53.117Z" transform="translate(-909 -29)"/>
  </g>
</svg>
