<svg xmlns="http://www.w3.org/2000/svg" width="12.78" height="20.281" viewBox="0 0 12.78 20.281">
  <defs>
    <style>
      .cls-1 {
        fill: red;
        fill-rule: evenodd;
      }
    </style>
  </defs>
  <path id="MOB_icn" class="cls-1" d="M1375.28,65.374V57.461a2,2,0,0,1,2.12-2.2c2.86,0,5.73,0,8.59,0a1.978,1.978,0,0,1,2.08,2.116V73.405a1.978,1.978,0,0,1-2.08,2.117q-4.305,0-8.59,0a2,2,0,0,1-2.12-2.2V65.374Zm1.98-8.052V69.41h8.83V57.322h-8.83Zm4.45,16.158c0.19,0,.38.012,0.57,0a0.893,0.893,0,0,0,.86-0.964,0.961,0.961,0,0,0-.86-1.024,9.881,9.881,0,0,0-1.19,0,1.024,1.024,0,0,0-.88,1.026,0.946,0.946,0,0,0,.88.962C1381.3,73.494,1381.5,73.48,1381.71,73.48Z" transform="translate(-1375.28 -55.25)"/>
</svg>
