<svg id="Active-ODIA" xmlns="http://www.w3.org/2000/svg" width="102" height="100" viewBox="0 0 102 100">
  <defs>
    <style>
      .cls-1 {
        fill: #7a0505;
      }

      .cls-2 {
        fill: #fff;
        fill-rule: evenodd;
      }
    </style>
  </defs>
  <rect class="cls-1" width="102" height="100"/>
  <path class="cls-2" d="M181,70.139c-2.063,1.32-3.439,2.641-5.5,3.961a34.929,34.929,0,0,1-13.755,5.281c-5.5.66-11,.66-15.819-0.66a15.1,15.1,0,0,1-11-7.922,17.019,17.019,0,0,1-2.063-7.922c0-4.621,2.063-9.9,6.19-12.543a38.243,38.243,0,0,1,10.316-5.281c3.439-1.32,5.487-1.98,10.316-3.961a7.077,7.077,0,0,0,4.815-9.242c-0.688-1.32-2.064-2.641-3.439-2.641a4.078,4.078,0,0,0-3.439,2.641,20.722,20.722,0,0,0-.688,5.941c-0.007.66,0,1.32-.687,1.32h-7.566c-0.688,0-1.375,0-1.375-.66v-6.6a2.9,2.9,0,0,0-2.751-2.641h-0.688a3.159,3.159,0,0,0-3.439,2.641h0a10.816,10.816,0,0,0,.688,4.621c0.27,0.69.536,0.672-1.376,1.32-2.193.553-4.56,0.941-6.877,1.32a1.228,1.228,0,0,1-1.376-.66,20.594,20.594,0,0,1-1.375-9.9c0.344-4,3.439-7.262,7.565-8.582,4.814-1.32,9.629-.66,13.068,3.3,0.687,0.66.687,0.66,1.375,0,5.5-5.281,14.53-5.879,19.945.66h0a20.348,20.348,0,0,1,2.751,5.941,12.363,12.363,0,0,1,0,7.262c-1.259,3.813-3.262,7.489-6.878,9.9a50.918,50.918,0,0,1-11.692,5.281c-3.982,1.337-6.878,1.98-9.629,4.621A7.251,7.251,0,0,0,144.55,64.2c0.687,2.641,3.438,4.621,6.19,5.281A24.66,24.66,0,0,0,170,65.518a35.832,35.832,0,0,0,9.628-7.922,2.363,2.363,0,0,0,.688-1.98V23.269c0-1.98,0-1.98,2.063-1.98h8.254c1.375,0,1.375,0,1.375,1.32V77.4c0,0.66,0,1.32-.688,1.32H181a1.392,1.392,0,0,1-1.375-.66v-6.6C179.667,69.1,180.219,70.311,181,70.139Z" transform="translate(-111)"/>
</svg>
