<svg xmlns="http://www.w3.org/2000/svg" xmlns:xlink="http://www.w3.org/1999/xlink" viewBox="0 0 231.25 111.07" width="232" height="112"><defs><style>.cls-1{fill:#fa423b;}.cls-12,.cls-13,.cls-2,.cls-20{fill:#fff;}.cls-10,.cls-2,.cls-21,.cls-22,.cls-23,.cls-24,.cls-7{fill-rule:evenodd;}.cls-3{fill:#31bf36;}.cls-4{fill:#5db2f7;}.cls-5{fill:#3c51a5;}.cls-6{fill:#d94b8e;}.cls-7{fill:#036593;}.cls-8{fill:#299ecf;}.cls-9{fill:#f9b605;}.cls-10{fill:#212121;}.cls-11{fill:#a6a6a6;}.cls-12{stroke:#fff;stroke-miterlimit:10;stroke-width:0.2px;}.cls-14{fill:url(#linear-gradient);}.cls-15{fill:url(#linear-gradient-2);}.cls-16{fill:url(#linear-gradient-3);}.cls-17{fill:url(#linear-gradient-4);}.cls-18,.cls-19,.cls-20{isolation:isolate;}.cls-18{opacity:0.2;}.cls-19{opacity:0.12;}.cls-20{opacity:0.25;}.cls-21{fill:url(#GradientFill_8);}.cls-22,.cls-26{fill:#07529c;}.cls-23,.cls-25{fill:#eb2c2a;}.cls-24{fill:#a3150a;}.cls-27{fill:#919191;opacity:0.68;}.cls-28{fill:#7b0505;}</style><linearGradient id="linear-gradient" x1="145.63" y1="645.48" x2="132.94" y2="658.18" gradientTransform="translate(0 -590)" gradientUnits="userSpaceOnUse"><stop offset="0" stop-color="#00a0ff"/><stop offset="0.01" stop-color="#00a1ff"/><stop offset="0.26" stop-color="#00beff"/><stop offset="0.51" stop-color="#00d2ff"/><stop offset="0.76" stop-color="#00dfff"/><stop offset="1" stop-color="#00e3ff"/></linearGradient><linearGradient id="linear-gradient-2" x1="154.73" y1="654.02" x2="136.43" y2="654.02" gradientTransform="translate(0 -590)" gradientUnits="userSpaceOnUse"><stop offset="0" stop-color="#ffe000"/><stop offset="0.41" stop-color="#ffbd00"/><stop offset="0.78" stop-color="orange"/><stop offset="1" stop-color="#ff9c00"/></linearGradient><linearGradient id="linear-gradient-3" x1="147.92" y1="655.76" x2="130.7" y2="672.97" gradientTransform="translate(0 -590)" gradientUnits="userSpaceOnUse"><stop offset="0" stop-color="#ff3a44"/><stop offset="1" stop-color="#c31162"/></linearGradient><linearGradient id="linear-gradient-4" x1="134.66" y1="639.03" x2="142.35" y2="646.72" gradientTransform="translate(0 -590)" gradientUnits="userSpaceOnUse"><stop offset="0" stop-color="#32a071"/><stop offset="0.07" stop-color="#2da771"/><stop offset="0.48" stop-color="#15cf74"/><stop offset="0.8" stop-color="#06e775"/><stop offset="1" stop-color="#00f076"/></linearGradient><linearGradient id="GradientFill_8" x1="-1120.88" y1="11.24" x2="1138.75" y2="11.24" gradientUnits="userSpaceOnUse"><stop offset="0" stop-color="#e7c51e"/><stop offset="0.58" stop-color="#fbd800"/><stop offset="0.99" stop-color="#bb882c"/><stop offset="1" stop-color="#bb882c"/></linearGradient></defs><g id="Layer_2" data-name="Layer 2"><g id="Layer_1-2" data-name="Layer 1"><ellipse id="Ellipse_1297_copy_3" data-name="Ellipse 1297 copy 3" class="cls-1" cx="10.57" cy="100.5" rx="10.56" ry="10.5"/><path class="cls-2" d="M10.64,104l-3.76-.16a3.21,3.21,0,0,1-.62-.1,1.34,1.34,0,0,1-1-1.18,13.37,13.37,0,0,1-.13-2.83,12,12,0,0,1,.17-1.47,1.32,1.32,0,0,1,1.35-1.13c.82-.07,1.63-.13,2.45-.13,1.49,0,3,0,4.47,0a8.47,8.47,0,0,1,1.12.1A1.31,1.31,0,0,1,16,98.27a10.45,10.45,0,0,1,.17,2.62,17.85,17.85,0,0,1-.17,1.78,1.3,1.3,0,0,1-1.33,1.13c-.8.07-1.6.1-2.4.14-.52,0-1.05,0-1.58,0Zm1.75-3.53L9.53,99v3Z"/><g id="Layer_2-2" data-name="Layer 2"><g id="Layer_1-2-2" data-name="Layer 1-2"><g id="whatsup_color" data-name="whatsup color"><path class="cls-3" d="M39.84,90h1.48a5.87,5.87,0,0,1,1,.14,10.25,10.25,0,0,1,5.06,2.36,10.36,10.36,0,0,1,3.54,6.17c.06.36.11.73.16,1.09v1.48c0,.33-.08.66-.14,1a10.32,10.32,0,0,1-3.21,6,10.17,10.17,0,0,1-5.3,2.65l-1.11.11H39.84l-.7-.09a10.5,10.5,0,0,1-5.47-2.5,10.38,10.38,0,0,1-3.43-6.06c-.06-.35-.11-.74-.16-1.11V99.76l.09-.71a10.53,10.53,0,0,1,2.46-5.41,10.36,10.36,0,0,1,6.12-3.48Zm-5.36,16.7h.14l3-.79a.53.53,0,0,1,.39,0,6.08,6.08,0,0,0,4.1.53,6.28,6.28,0,1,0-7.46-4.81,6.38,6.38,0,0,0,.63,1.69.58.58,0,0,1,0,.32c-.13.52-.28,1-.42,1.54S34.62,106.18,34.48,106.7Z"/><path class="cls-3" d="M36,105.22c.16-.58.31-1.13.47-1.68a.44.44,0,0,0-.07-.44,5.23,5.23,0,1,1,1.71,1.71.5.5,0,0,0-.34,0c-.55.13-1.09.28-1.64.42Zm6.47-1.89h.25A1.34,1.34,0,0,0,44,102a.3.3,0,0,0-.14-.24c-.4-.21-.82-.4-1.23-.6a.28.28,0,0,0-.38.09l0,0c-.14.19-.3.36-.44.54a.25.25,0,0,1-.33.09A4.42,4.42,0,0,1,39.28,100a.27.27,0,0,1,0-.32,3.5,3.5,0,0,0,.37-.49.4.4,0,0,0,.05-.32q-.24-.63-.51-1.23a.27.27,0,0,0-.2-.21.86.86,0,0,0-.89.2,1.8,1.8,0,0,0-.3,2.13,6.64,6.64,0,0,0,2.86,3A3.89,3.89,0,0,0,42.44,103.33Z"/></g></g></g><circle id="Ellipse_1297_copy" data-name="Ellipse 1297 copy" class="cls-4" cx="70.6" cy="100.5" r="10.56"/><path class="cls-2" d="M64.87,104.86a4.37,4.37,0,0,0,3.27-1A2.42,2.42,0,0,1,66,102.06H67s0,0,0-.06a2.4,2.4,0,0,1-1.25-.9,2.66,2.66,0,0,1-.49-1.54l.91.28a.16.16,0,0,1,0-.07,2.72,2.72,0,0,1-.62-3.3,6.28,6.28,0,0,0,4.68,2.62,3.11,3.11,0,0,1,.09-1.42A2.19,2.19,0,0,1,73,96.08a2.08,2.08,0,0,1,1,.56.31.31,0,0,0,.38.1l1.16-.46a2.54,2.54,0,0,1-.81,1.28c.19,0,.38-.08.57-.14a5,5,0,0,0,.54-.2.18.18,0,0,1,0,.07c-.3.33-.59.68-.91,1a.6.6,0,0,0-.21.48,7.09,7.09,0,0,1-4.62,6.92A5.89,5.89,0,0,1,65,105l-.09-.06Z"/><circle class="cls-5" cx="130.63" cy="100.5" r="10.56"/><path class="cls-2" d="M129.13,101.53h-2.07V99.4h2.07a1.5,1.5,0,0,1,0-.3,16,16,0,0,1,.05-1.83A2.61,2.61,0,0,1,131.9,95c.71,0,1.43,0,2.16,0V97h-.79c-.26,0-.49,0-.74,0a.81.81,0,0,0-.9.71v.07c0,.52,0,1,0,1.6H134c-.1.73-.2,1.42-.31,2.14h-2.06V107h-2.49v-5.48Z"/><circle id="Ellipse_1297_copy_2" data-name="Ellipse 1297 copy 2" class="cls-6" cx="160.65" cy="100.5" r="10.56"/><path class="cls-2" d="M160.93,105.75h-2.45a2.46,2.46,0,0,1-2.53-2.38v-5a2.46,2.46,0,0,1,2.4-2.51h5.05a2.44,2.44,0,0,1,2.52,2.39v5a2.46,2.46,0,0,1-2.39,2.52h-2.6Zm4-5V98.41a1.45,1.45,0,0,0-1.33-1.58,1.13,1.13,0,0,0-.26,0h-4.79A1.47,1.47,0,0,0,157,98.15v5a1.47,1.47,0,0,0,1.34,1.57h5.05a1.47,1.47,0,0,0,1.58-1.34.88.88,0,0,0,0-.23v-2.4Zm-4-2.48a2.48,2.48,0,1,1-2.49,2.49,2.49,2.49,0,0,1,2.49-2.49Zm1.49,2.48a1.43,1.43,0,0,0-1.4-1.48h-.08a1.48,1.48,0,0,0-1.48,1.48,1.48,1.48,0,1,0,3,0Zm1-3a.49.49,0,0,1,.49.51.5.5,0,0,1-.51.49.52.52,0,0,1-.49-.51A.5.5,0,0,1,163.43,97.82Z"/><path id="linked_in" data-name="linked in" class="cls-7" d="M190.67,90a10.55,10.55,0,1,1-10.56,10.54v0A10.55,10.55,0,0,1,190.67,90Zm3.28,16h2.24c-.05-1.81,0-3.58-.2-5.35a1.94,1.94,0,0,0-2-1.87,2.88,2.88,0,0,0-2.73.89v-.89h-2v7.21h2.1v-.63c0-1.12,0-2.25,0-3.38a1.27,1.27,0,0,1,1-1.41,1.19,1.19,0,0,1,1.49.81,1.15,1.15,0,0,1,0,.45c.06,1.19,0,2.39,0,3.58v.59Zm-8.73-7.23V106h2.49V98.71Zm1.25-1.14a1.22,1.22,0,0,0,1.26-1.2v-.06A1.28,1.28,0,0,0,186.47,95h0a1.31,1.31,0,0,0-1.26,1.26,1.26,1.26,0,0,0,1.25,1.28Z"/><circle class="cls-8" cx="100.62" cy="100.5" r="10.46"/><path class="cls-2" d="M99.05,102.7l4.76-5.44s0,0,0,0a.57.57,0,0,0-.13.08l-5.9,4.8a.37.37,0,0,1-.39.07l-2.67-.87a.41.41,0,0,1-.36-.33.41.41,0,0,1,.29-.39l10.59-5.24a.42.42,0,0,1,.49,0,.41.41,0,0,1,.13.44c-.32,2-.62,3.94-.93,5.9-.13.78-.25,1.56-.37,2.34a.36.36,0,0,1-.37.35.32.32,0,0,1-.14,0l-4.93-1.6A.1.1,0,0,1,99.05,102.7Zm-.52.58,2,.63a1.4,1.4,0,0,1-.17.22c-.35.47-.71.93-1.06,1.39a.42.42,0,0,1-.46.19.37.37,0,0,1-.26-.4v-2Z"/><circle class="cls-9" cx="220.68" cy="100.5" r="10.5"/><path class="cls-10" d="M220.64,93a.55.55,0,0,0-.39.43.11.11,0,0,1-.1.07.49.49,0,0,0-.34.59s0,0,0,0l0,.11-.05.06a.75.75,0,0,0-.16.35.16.16,0,0,1-.13.17h0A3.89,3.89,0,0,0,217.29,97a6,6,0,0,0-.25.71,11.64,11.64,0,0,0-.27,2.28s0,0-.09.07a6.44,6.44,0,0,0-1.88,2.79,1.35,1.35,0,0,0-.11.49l0,.17-.11,0c-1.08.35.29,2.12,2.22,2.83l.18.07a8.19,8.19,0,0,0,.81.23,2.28,2.28,0,0,0,.52.1.2.2,0,0,1,.2.17l.13.32a3.16,3.16,0,0,1,.11.31.48.48,0,0,0,.05.12c.11.25.11.24-.25.24s-.32,0-.32.12.08.19.42.2a1.1,1.1,0,0,1,1,.5c.15.2.24.24.37.14s0-.28-.21-.51-.15-.11.28-.12a2,2,0,0,0,.42,0c.15-.08.18-.17.1-.26l0,0H220c-.7,0-.68,0-.87-.45l-.14-.37c-.11-.26-.11-.25.06-.24.33,0,1.65,0,1.88,0,.39,0,.33-.1.52.42.08.22.08.21-.29.23h-.3v.07c0,.14.09.18.47.21l.38.05a1,1,0,0,1,.52.4c.19.26.24.29.37.23s.13-.23-.15-.51-.13-.18.09-.15c.47.06.76,0,.76-.22s0-.09-.61-.09-.68,0-.8-.3a2.33,2.33,0,0,0-.11-.28c-.07-.18-.07-.19,0-.21a4.09,4.09,0,0,0,.48-.13l.18-.07a3.78,3.78,0,0,0,2-1.77,4.93,4.93,0,0,0,.31-.71.12.12,0,0,1,.13-.08,1.6,1.6,0,0,0,1.2-1.09c.24-.86-.39-2.59-1-2.74l-.07,0,0-.21c0-.11,0-.28-.05-.38,0-.27-.12-.84-.14-1a1.46,1.46,0,0,1-.05-.2c-.39-1.88-1.32-3.16-2.6-3.6-.15,0-.15,0-.14-.26A1.43,1.43,0,0,0,220.74,93h-.1"/><path class="cls-2" d="M220.71,93.36c-.18,0-.17.28,0,.48s.11.12-.07.06c-.52-.18-.75.14-.27.39.19.1.2.12.06.14a.49.49,0,0,0-.42.24c0,.09,0,.1.26,0a10.14,10.14,0,0,1,1.35,0c.17,0,.15-.37-.06-.77a1,1,0,0,0-.86-.56M220.48,95a2.82,2.82,0,0,0-.7.15,3.52,3.52,0,0,0-2.24,2.18,7.18,7.18,0,0,0-.43,2.47l0,.44.11.12a2.26,2.26,0,0,1,.3,2.39,2.32,2.32,0,0,1-2.15,1.14c-.85,0-1,.08-.75.52a4.24,4.24,0,0,0,2.35,1.81,7.62,7.62,0,0,0,1.13.32,8.62,8.62,0,0,0,4.19-.17l.22-.09.21-.1.09,0a4,4,0,0,0,.75-.54,4.08,4.08,0,0,0,1.06-1.94,1.06,1.06,0,0,0,0-.19,2.44,2.44,0,0,0,.06-.26c0-.06,0-.23.05-.36a19.61,19.61,0,0,0,0-2.3c-.06-.65-.16-1.43-.2-1.64l-.06-.31c0-.09-.05-.21-.06-.27s-.06-.2-.09-.31c-.58-2.15-2-3.25-3.87-3m0,3.07a.22.22,0,0,1,.1.3v0a.27.27,0,0,1-.37.07.24.24,0,0,1-.08-.09.25.25,0,0,1,.14-.32.28.28,0,0,1,.22,0m2.77,0a.21.21,0,0,1,0,.31.14.14,0,0,1-.08,0,.24.24,0,0,1-.33-.07.24.24,0,0,1,.08-.33h0a.25.25,0,0,1,.31,0m-1.1.86c.43.17.47.22.27.35-.71.44-.65.43-1,.21-.61-.37-.61-.35,0-.6a.64.64,0,0,1,.7,0m-5.41,1.52a3.68,3.68,0,0,0-.39.4,11.06,11.06,0,0,0-1,1.68.37.37,0,0,1,0,.11,2.38,2.38,0,0,0-.24.74c0,.12.07.14.43.14a1.8,1.8,0,0,0,1.42-3.08.11.11,0,0,0-.15,0m8.42.11c0,.15,0,.29,0,.43a10.93,10.93,0,0,1-.09,2.14c0,.13,0,.17-.08.42s0,.16.16.07c.72-.33.92-1.08.55-2.14a1.86,1.86,0,0,0-.55-.92"/><rect x="129.14" y="48.89" width="102.11" height="30.25" rx="3.78"/><path class="cls-11" d="M227.47,49.5a3.17,3.17,0,0,1,3.17,3.18V75.37a3.17,3.17,0,0,1-3.17,3.17H132.92a3.17,3.17,0,0,1-3.17-3.17h0V52.68a3.17,3.17,0,0,1,3.17-3.18h94.55m0-.61H132.92a3.79,3.79,0,0,0-3.78,3.79V75.37a3.78,3.78,0,0,0,3.78,3.78h94.55a3.78,3.78,0,0,0,3.78-3.78V52.68A3.79,3.79,0,0,0,227.47,48.89Z"/><path class="cls-12" d="M165,56.64a2.06,2.06,0,0,1-.57,1.51,2.21,2.21,0,0,1-1.66.68,2.39,2.39,0,0,1-2.37-2.41,2.46,2.46,0,0,1,.69-1.66,2.33,2.33,0,0,1,1.68-.68,2.49,2.49,0,0,1,.93.19,2,2,0,0,1,.71.51l-.4.4a1.56,1.56,0,0,0-1.24-.54A1.77,1.77,0,0,0,161,56.39v.07a1.8,1.8,0,0,0,1.76,1.81,1.84,1.84,0,0,0,1.27-.5,1.46,1.46,0,0,0,.38-.93h-1.64V56.3H165A2,2,0,0,1,165,56.64Zm3.46-1.89h-2v1.44h1.86v.54h-1.86v1.44h2v.56h-2.65V54.19h2.65Zm2.48,4h-.58v-4H169.1v-.56h3.15v.56H171Zm3.53,0V54.19h.58v4.54Zm3.17,0h-.59v-4h-1.27v-.56h3.12v.56h-1.26Zm7.17-.59a2.37,2.37,0,0,1-3.33,0,2.46,2.46,0,0,1,0-3.37,2.34,2.34,0,0,1,3.31,0h0A2.46,2.46,0,0,1,184.82,58.14Zm-2.9-.38a1.75,1.75,0,0,0,2.47,0,2,2,0,0,0,0-2.6,1.75,1.75,0,0,0-2.47,0A1.93,1.93,0,0,0,181.92,57.76Zm4.39,1V54.19H187l2.21,3.53V54.19h.58v4.54h-.61L186.9,55v3.7Z"/><path class="cls-13" d="M180.68,65.35a3.21,3.21,0,1,0,3.23,3.21,3.16,3.16,0,0,0-3.12-3.21Zm0,5.16a1.95,1.95,0,1,1,1.81-2.08v.13a1.86,1.86,0,0,1-1.76,2Zm-7-5.16a3.21,3.21,0,1,0,3.22,3.21,3.16,3.16,0,0,0-3.12-3.21h-.1Zm0,5.16a2,2,0,1,1,1.8-2.09s0,.09,0,.14a1.87,1.87,0,0,1-1.77,2h0Zm-8.39-4.17V67.7h3.27a2.82,2.82,0,0,1-.76,1.71,3.32,3.32,0,0,1-2.52,1,3.63,3.63,0,1,1,0-7.26,3.53,3.53,0,0,1,2.48,1l1-1a4.76,4.76,0,0,0-3.43-1.42,5,5,0,0,0-.39,10,2.54,2.54,0,0,0,.39,0,4.4,4.4,0,0,0,4.67-4.59,4.89,4.89,0,0,0-.08-.85Zm34.27,1.06a3,3,0,0,0-5.78,1v.19a3.14,3.14,0,0,0,3.08,3.21.4.4,0,0,0,.11,0,3.17,3.17,0,0,0,2.68-1.42l-1.1-.75a1.84,1.84,0,0,1-1.58.89,1.62,1.62,0,0,1-1.55-1l4.3-1.77Zm-4.39,1.07a1.77,1.77,0,0,1,1.65-1.87h0a1.27,1.27,0,0,1,1.2.68Zm-3.49,3.12h1.41V62.13h-1.41Zm-2.32-5.53h0a2.27,2.27,0,0,0-1.69-.75,3.22,3.22,0,0,0,0,6.43,2.14,2.14,0,0,0,1.69-.75h0v.46a1.65,1.65,0,0,1-1.72,1.89A1.79,1.79,0,0,1,186,72.2l-1.23.51a3,3,0,0,0,2.85,1.9c1.66,0,3-1,3-3.35V65.53h-1.31Zm-1.61,4.45a2,2,0,0,1,0-3.9,1.81,1.81,0,0,1,1.72,1.9v0a1.8,1.8,0,0,1-1.64,2h-.07Zm18.44-8.38h-3.39v9.46h1.42V68h2a2.94,2.94,0,1,0,0-5.87Zm0,4.54h-2V63.45h2a1.62,1.62,0,1,1,0,3.24Zm8.72-1.36a2.62,2.62,0,0,0-2.52,1.44l1.25.52a1.55,1.55,0,0,1,2.8.5v.12a3.13,3.13,0,0,0-1.47-.36c-1.36,0-2.73.76-2.73,2.13a2.19,2.19,0,0,0,2.29,2.08h.06a2,2,0,0,0,1.81-.91h0v.76h1.36V68a2.61,2.61,0,0,0-2.87-2.62Zm-.18,5.18c-.46,0-1.1-.24-1.1-.8,0-.76.8-1,1.51-1a2.55,2.55,0,0,1,1.29.32,1.71,1.71,0,0,1-1.66,1.51Zm8-5-1.62,4.1h0l-1.68-4.1h-1.51l2.52,5.74L219,74.45h1.47l3.88-8.92ZM210,71.59h1.41V62.13H210Z"/><path class="cls-14" d="M137,54.6a1.5,1.5,0,0,0-.35,1.06V72.39a1.53,1.53,0,0,0,.35,1.06l.05,0,9.37-9.36v-.22l-9.37-9.38Z"/><path class="cls-15" d="M149.56,67.26l-3.1-3.12v-.22l3.1-3.14.07,0,3.71,2.11c1.06.6,1.06,1.58,0,2.19l-3.69,2.1Z"/><path class="cls-16" d="M149.65,67.21,146.46,64,137,73.45a1.22,1.22,0,0,0,1.57,0l11-6.28"/><path class="cls-17" d="M149.65,60.83,138.6,54.55a1.24,1.24,0,0,0-1.57.05L146.46,64Z"/><path class="cls-18" d="M149.56,67.15l-11,6.24a1.28,1.28,0,0,1-1.51,0l-.05,0,.05,0a1.25,1.25,0,0,0,1.51,0l11.05-6.28Z"/><path class="cls-19" d="M137,73.34a1.51,1.51,0,0,1-.35-1.06v.11a1.5,1.5,0,0,0,.35,1.06l.05,0ZM153.34,65l-3.78,2.14.07.06,3.71-2.1A1.33,1.33,0,0,0,154.1,64,1.42,1.42,0,0,1,153.34,65Z"/><path class="cls-20" d="M138.6,54.66,153.34,63a1.38,1.38,0,0,1,.76,1,1.33,1.33,0,0,0-.76-1.09L138.6,54.55c-1.06-.6-1.92-.1-1.92,1.11v.12C136.7,54.56,137.55,54.06,138.6,54.66Z"/><path class="cls-11" d="M99.37,79.27H3.72a3.61,3.61,0,0,1-3.6-3.61V52.38a3.6,3.6,0,0,1,3.6-3.6H99.37a3.65,3.65,0,0,1,3.66,3.6V75.66a3.66,3.66,0,0,1-3.66,3.61Z"/><path d="M102.29,75.66a2.92,2.92,0,0,1-2.92,2.92H3.72A2.93,2.93,0,0,1,.79,75.66V52.38a2.93,2.93,0,0,1,2.93-2.93H99.37a2.92,2.92,0,0,1,2.92,2.93V75.66Z"/><path class="cls-13" d="M23.08,63.86a4.42,4.42,0,0,1,2.11-3.71,4.54,4.54,0,0,0-3.57-1.93c-1.5-.16-2.95.9-3.71.9s-2-.88-3.23-.86a4.75,4.75,0,0,0-4,2.44c-1.73,3-.44,7.39,1.21,9.8C12.73,71.69,13.7,73,15,73s1.7-.79,3.19-.79,1.92.79,3.21.76,2.17-1.19,3-2.38a9.87,9.87,0,0,0,1.35-2.76A4.29,4.29,0,0,1,23.08,63.86Z"/><path class="cls-13" d="M20.64,56.63a4.32,4.32,0,0,0,1-3.12A4.44,4.44,0,0,0,18.78,55a4.11,4.11,0,0,0-1,3A3.65,3.65,0,0,0,20.64,56.63Z"/><path class="cls-13" d="M41,72.79H39.28l-1-3H35l-.91,3H32.45l3.26-10.14h2Zm-3-4.23-.86-2.65c-.09-.27-.26-.91-.51-1.91h0c-.1.43-.26,1.07-.48,1.91l-.85,2.65Z"/><path class="cls-13" d="M49.41,69a4.16,4.16,0,0,1-1,2.95,2.92,2.92,0,0,1-2.24,1,2.25,2.25,0,0,1-2.08-1h0v3.85H42.43V67.88q0-1.17-.06-2.4H43.8l.09,1.16h0a2.89,2.89,0,0,1,4.62-.29A4,4,0,0,1,49.41,69Zm-1.66.06a3,3,0,0,0-.48-1.76,1.72,1.72,0,0,0-2.5-.32,1.82,1.82,0,0,0-.64,1,2.14,2.14,0,0,0-.08.49v1.22a2,2,0,0,0,.49,1.35,1.62,1.62,0,0,0,1.27.55A1.66,1.66,0,0,0,47.24,71,3.12,3.12,0,0,0,47.75,69.1Z"/><path class="cls-13" d="M57.82,69a4.15,4.15,0,0,1-1,2.95,3,3,0,0,1-2.25,1,2.24,2.24,0,0,1-2.07-1h0v3.85H50.84V67.88q0-1.17-.06-2.4h1.43l.09,1.16h0a2.69,2.69,0,0,1,2.47-1.31,2.73,2.73,0,0,1,2.16,1A4,4,0,0,1,57.82,69Zm-1.65.06a3,3,0,0,0-.48-1.76,1.69,1.69,0,0,0-1.42-.72,1.67,1.67,0,0,0-1.09.4,1.82,1.82,0,0,0-.64,1,2,2,0,0,0-.07.49v1.22A2,2,0,0,0,53,71.13,1.78,1.78,0,0,0,55.66,71,3.12,3.12,0,0,0,56.17,69.1Z"/><path class="cls-13" d="M67.23,70a2.69,2.69,0,0,1-.9,2.1,4,4,0,0,1-2.76.89,4.85,4.85,0,0,1-2.63-.63L61.31,71a4.49,4.49,0,0,0,2.35.64,2.23,2.23,0,0,0,1.43-.41,1.35,1.35,0,0,0,.52-1.11,1.39,1.39,0,0,0-.43-1,3.85,3.85,0,0,0-1.4-.78c-1.77-.67-2.66-1.64-2.66-2.91a2.57,2.57,0,0,1,.93-2,3.67,3.67,0,0,1,2.49-.8,4.93,4.93,0,0,1,2.3.48l-.41,1.32a4,4,0,0,0-1.94-.46,2,2,0,0,0-1.34.42,1.21,1.21,0,0,0-.4.92,1.23,1.23,0,0,0,.46,1,5.35,5.35,0,0,0,1.48.78,5.23,5.23,0,0,1,1.93,1.24A2.58,2.58,0,0,1,67.23,70Z"/><path class="cls-13" d="M72.61,66.7h-1.8v3.55c0,.9.32,1.35,1,1.35a2.92,2.92,0,0,0,.72-.07l0,1.23a3.66,3.66,0,0,1-1.26.18,1.92,1.92,0,0,1-1.51-.59,2.87,2.87,0,0,1-.54-2V66.69H68.15V65.47h1.07V64.14l1.59-.49v1.82h1.8Z"/><path class="cls-13" d="M80.69,69.07a4,4,0,0,1-1,2.77A3.44,3.44,0,0,1,77,73a3.28,3.28,0,0,1-2.56-1.07,3.87,3.87,0,0,1-1-2.69,4,4,0,0,1,1-2.79,3.42,3.42,0,0,1,2.66-1.08,3.3,3.3,0,0,1,2.58,1.07A3.8,3.8,0,0,1,80.69,69.07ZM79,69.13a3.3,3.3,0,0,0-.43-1.74,1.69,1.69,0,0,0-2.95,0,3.28,3.28,0,0,0-.44,1.77,3.2,3.2,0,0,0,.44,1.73,1.66,1.66,0,0,0,2.93,0A3.3,3.3,0,0,0,79,69.13Z"/><path class="cls-13" d="M86,66.91a2.76,2.76,0,0,0-.51,0,1.57,1.57,0,0,0-1.33.65,2.42,2.42,0,0,0-.4,1.44v3.84H82.1l0-5c0-.84,0-1.61-.06-2.3h1.41l.06,1.4h0a2.5,2.5,0,0,1,.81-1.16,2,2,0,0,1,1.18-.39,2.41,2.41,0,0,1,.4,0Z"/><path class="cls-13" d="M93.24,68.79a4,4,0,0,1-.06.74H88.31a2.09,2.09,0,0,0,.7,1.65,2.42,2.42,0,0,0,1.6.51,5.4,5.4,0,0,0,2-.34l.25,1.13a6.09,6.09,0,0,1-2.45.45,3.58,3.58,0,0,1-2.67-1,3.7,3.7,0,0,1-1-2.69,4.19,4.19,0,0,1,.9-2.75,3.11,3.11,0,0,1,2.56-1.18,2.73,2.73,0,0,1,2.4,1.18A4,4,0,0,1,93.24,68.79Zm-1.55-.42a2.2,2.2,0,0,0-.31-1.25,1.42,1.42,0,0,0-1.3-.68,1.54,1.54,0,0,0-1.29.66,2.34,2.34,0,0,0-.48,1.27Z"/><path class="cls-13" d="M37.51,56.41a2.49,2.49,0,0,1-.81,2,3.19,3.19,0,0,1-2.12.63A9.88,9.88,0,0,1,33.41,59V54.1A8.48,8.48,0,0,1,34.79,54a3,3,0,0,1,2,.57A2.31,2.31,0,0,1,37.51,56.41Zm-.84,0a1.82,1.82,0,0,0-.47-1.34,1.8,1.8,0,0,0-1.35-.47,3.87,3.87,0,0,0-.64.05V58.4a3.58,3.58,0,0,0,.54,0,1.91,1.91,0,0,0,1.42-.51A2,2,0,0,0,36.67,56.43Z"/><path class="cls-13" d="M42,57.19a2,2,0,0,1-.48,1.36,1.67,1.67,0,0,1-1.31.55,1.64,1.64,0,0,1-1.27-.53,1.91,1.91,0,0,1-.46-1.32,2,2,0,0,1,.48-1.37,1.69,1.69,0,0,1,1.31-.53,1.64,1.64,0,0,1,1.27.52A1.93,1.93,0,0,1,42,57.19Zm-.83,0a1.57,1.57,0,0,0-.22-.86.79.79,0,0,0-.71-.43.83.83,0,0,0-.74.43,1.7,1.7,0,0,0-.21.87,1.62,1.62,0,0,0,.21.85.82.82,0,0,0,.73.43.8.8,0,0,0,.72-.44A1.65,1.65,0,0,0,41.15,57.22Z"/><path class="cls-13" d="M48,55.42,46.84,59h-.73l-.47-1.56c-.12-.39-.21-.78-.29-1.17h0a9.09,9.09,0,0,1-.29,1.17L44.56,59h-.74l-1.06-3.6h.82L44,57.13c.09.4.17.79.24,1.15h0q.09-.45.3-1.14l.51-1.72h.65l.49,1.68c.12.41.21.8.29,1.18h0c0-.37.14-.76.24-1.18l.44-1.68Z"/><path class="cls-13" d="M52.11,59h-.8V57c0-.64-.24-1-.73-1a.69.69,0,0,0-.57.26.91.91,0,0,0-.23.61V59H49V56.45c0-.32,0-.66,0-1h.7l0,.56h0a1.12,1.12,0,0,1,.41-.43,1.32,1.32,0,0,1,.73-.2,1.12,1.12,0,0,1,.83.32,1.58,1.58,0,0,1,.42,1.19Z"/><path class="cls-13" d="M54.31,59h-.8V53.77h.8Z"/><path class="cls-13" d="M59,57.19a2,2,0,0,1-.47,1.36,1.68,1.68,0,0,1-1.32.55A1.6,1.6,0,0,1,56,58.57a2.12,2.12,0,0,1,0-2.69,1.69,1.69,0,0,1,1.3-.53,1.63,1.63,0,0,1,1.27.52A1.88,1.88,0,0,1,59,57.19Zm-.83,0a1.66,1.66,0,0,0-.21-.86.83.83,0,0,0-1.45,0,1.7,1.7,0,0,0-.21.87,1.62,1.62,0,0,0,.21.85.79.79,0,0,0,.73.43.78.78,0,0,0,.71-.44A1.56,1.56,0,0,0,58.18,57.22Z"/><path class="cls-13" d="M62.88,59h-.72l-.06-.42h0a1.22,1.22,0,0,1-1,.5,1.08,1.08,0,0,1-.82-.33,1,1,0,0,1-.28-.73,1.13,1.13,0,0,1,.55-1A2.92,2.92,0,0,1,62,56.69v-.06c0-.48-.25-.71-.75-.71a1.71,1.71,0,0,0-.93.26l-.17-.52a2.31,2.31,0,0,1,1.24-.31c.94,0,1.41.49,1.41,1.49v1.32A6.41,6.41,0,0,0,62.88,59Zm-.83-1.24v-.55q-1.32,0-1.32.72a.5.5,0,0,0,.54.56.8.8,0,0,0,.49-.16.73.73,0,0,0,.28-.43A.61.61,0,0,0,62.05,57.78Z"/><path class="cls-13" d="M67.42,59h-.71l0-.58h0a1.19,1.19,0,0,1-1.15.66,1.34,1.34,0,0,1-1.08-.51A2,2,0,0,1,64,57.26a2.08,2.08,0,0,1,.46-1.41,1.46,1.46,0,0,1,1.11-.5,1.08,1.08,0,0,1,1,.49h0V53.77h.8v4.28C67.39,58.4,67.4,58.72,67.42,59Zm-.83-1.52v-.6a1.57,1.57,0,0,0,0-.25.92.92,0,0,0-.29-.48.75.75,0,0,0-.53-.2.84.84,0,0,0-.71.35,1.53,1.53,0,0,0-.25.91,1.45,1.45,0,0,0,.24.87.82.82,0,0,0,.7.35.76.76,0,0,0,.63-.29A1,1,0,0,0,66.59,57.5Z"/><path class="cls-13" d="M74.25,57.19a2,2,0,0,1-.47,1.36,1.68,1.68,0,0,1-1.32.55,1.63,1.63,0,0,1-1.26-.53,2.12,2.12,0,0,1,0-2.69,1.67,1.67,0,0,1,1.3-.53,1.63,1.63,0,0,1,1.27.52A1.88,1.88,0,0,1,74.25,57.19Zm-.83,0a1.66,1.66,0,0,0-.21-.86.83.83,0,0,0-1.45,0,1.7,1.7,0,0,0-.21.87,1.62,1.62,0,0,0,.21.85.79.79,0,0,0,.73.43.78.78,0,0,0,.71-.44A1.56,1.56,0,0,0,73.42,57.22Z"/><path class="cls-13" d="M78.55,59h-.8V57c0-.64-.24-1-.73-1a.7.7,0,0,0-.57.26.9.9,0,0,0-.22.61V59h-.8V56.45c0-.32,0-.66,0-1h.7l0,.56h0a1.12,1.12,0,0,1,.41-.43,1.32,1.32,0,0,1,.73-.2,1.12,1.12,0,0,1,.83.32,1.58,1.58,0,0,1,.42,1.19Z"/><path class="cls-13" d="M83.92,56H83v1.75c0,.44.16.66.47.66a1.28,1.28,0,0,0,.36,0l0,.61a1.81,1.81,0,0,1-.62.09,1,1,0,0,1-.74-.29,1.39,1.39,0,0,1-.27-1V56h-.52v-.6h.52v-.66l.78-.23v.89h.88V56Z"/><path class="cls-13" d="M88.15,59h-.8V57q0-1-.72-1a.75.75,0,0,0-.76.56,1,1,0,0,0,0,.28V59H85V53.77h.8v2.17h0a1.19,1.19,0,0,1,1.08-.59,1.14,1.14,0,0,1,.82.32,1.65,1.65,0,0,1,.4,1.21Z"/><path class="cls-13" d="M92.52,57.05a1.86,1.86,0,0,1,0,.36h-2.4a1,1,0,0,0,.35.81,1.17,1.17,0,0,0,.78.26,2.7,2.7,0,0,0,1-.17l.13.55a3,3,0,0,1-1.21.22,1.73,1.73,0,0,1-1.31-.49,1.82,1.82,0,0,1-.48-1.32,2,2,0,0,1,.45-1.35A1.5,1.5,0,0,1,91,55.34a1.34,1.34,0,0,1,1.18.58A1.93,1.93,0,0,1,92.52,57.05Zm-.77-.21a1,1,0,0,0-.15-.61A.7.7,0,0,0,91,55.9a.73.73,0,0,0-.63.32,1.26,1.26,0,0,0-.24.62Z"/><g id="ODIA"><path class="cls-21" d="M37,8.91C28.82,7.6,22.86,12.26,12.16,10A23.52,23.52,0,0,1,9,9.17l-.78-.29C1.57,6.23.27,1.7.29,1.78h0S0,.88.22.57C-.55,1.64.14,12,11.7,15.67c10,3.13,16.55-.53,24.54-.36,4.1.09,10.86.48,11.59,6.61v0C48.17,14.5,43.07,9.89,37,8.91Z"/><path class="cls-22" d="M.21.58v0a1.12,1.12,0,0,0,0,.75,1,1,0,0,0,.09.3h0c0,.18,1.45,4.63,8,7.22L9,9.17a23.52,23.52,0,0,0,3.16.87,28.49,28.49,0,0,0,4.69.59c6.75.27,11.61-2,17.15-2a19.25,19.25,0,0,1,3,.23c4.72.76,8.84,3.7,10.3,8.43v0c0,.07,0,.15.07.23v0l.06.23v0l.06.23v0c.1.43.18.88.24,1.33v0l0,.24v.06c0,.08,0,.15,0,.23v.07a1.79,1.79,0,0,1,0,.23v.08a1.62,1.62,0,0,0,0,.22v.08a1.93,1.93,0,0,0,0,.24V21c0,.29,0,.6,0,.9C50.47,7.2,39,2.76,32.9,2.93c-5.42.16-14.69,2.8-21,2.86-.43,0-.84,0-1.22,0a24.21,24.21,0,0,1-3.43-.51C2.46,4,.39,1.2.23.65a.45.45,0,0,1,0-.08Z"/><path class="cls-22" d="M47.83,21.9v0Z"/><polygon class="cls-22" points="47.83 21.91 47.83 21.92 47.83 21.92 47.83 21.91"/><polygon class="cls-23" points="47.28 16.78 47.28 16.78 47.28 16.79 47.28 16.78 47.28 16.78"/><path class="cls-23" d="M47.28,16.79h0v0Z"/><polygon class="cls-23" points="47.49 17.57 47.49 17.58 47.49 17.57 47.49 17.57 47.49 17.58 47.49 17.57 47.49 17.57 47.49 17.57 47.49 17.57 47.49 17.57 47.49 17.57 47.49 17.57"/><path class="cls-23" d="M.21,0Z"/><polygon class="cls-23" points="47.74 18.95 47.74 18.95 47.74 18.95 47.74 18.95 47.74 18.95 47.74 18.95 47.74 18.95 47.74 18.95 47.74 18.95"/><path class="cls-23" d="M36.23,14.75c-8-.17-14.58,3.48-24.54.36C3,12.36.38,5.74,0,2.21l0,6V26.72s0,.83.06.83A6,6,0,0,0,6,32.71H21.19l26.61,0V21.18C47,15.22,40.3,14.83,36.23,14.75Z"/><path class="cls-24" d="M37.73,22.85a1,1,0,0,1-1-1,1.12,1.12,0,0,1,1.12-1.11,1,1,0,0,1,1,1.09,1,1,0,0,1-1.08,1m-9.2,3.92a2.9,2.9,0,0,1,.12-.57.66.66,0,0,1,.14-.26.4.4,0,0,1,.67.07,2.32,2.32,0,0,1,.23,1,1.47,1.47,0,0,1,0,.21h0c0,.27-.07.55-.13.81a.43.43,0,0,1-.38.4.48.48,0,0,1-.53-.34,2.75,2.75,0,0,1-.15-1.33M31,26.3a.77.77,0,0,1,.15-.33.37.37,0,0,1,.66,0,1.86,1.86,0,0,1,.15.51,5.17,5.17,0,0,1,0,1.47c-.06.33-.21.47-.48.45a.38.38,0,0,1-.37-.27A3.71,3.71,0,0,1,31,26.3m8.63-6.11a2.51,2.51,0,0,0-3.21-.35l-.11.06V19c.09-.2-.9-.6-1.62.61v.55h0l-.05,0a4.85,4.85,0,0,0-4-1.22,5,5,0,0,0-3.39,1.83A4,4,0,0,0,26.32,24a4.2,4.2,0,0,0,.91,2,.19.19,0,0,1,.05.21,3,3,0,0,0,.66,3.1,1.44,1.44,0,0,0,1.2.53,2.07,2.07,0,0,0,1.07-.38.13.13,0,0,1,.19,0,1.74,1.74,0,0,0,2.76-.86,4.4,4.4,0,0,0,.22-2,3.16,3.16,0,0,0-.44-1.37,1.63,1.63,0,0,0-2.56-.3l-.11.11c-.67-.69-1-.75-2-.39a1.41,1.41,0,0,1-.13-.24A2.11,2.11,0,0,1,28,22.9,3.16,3.16,0,0,1,29.3,21,3.27,3.27,0,0,1,33,20.88a4,4,0,0,1,1.37,1.62,3,3,0,0,1,.33,1.44c0,1.86,0,3.06,0,4.93,0,.34,1.08.85,1.63.85V23.66l.07,0a2.47,2.47,0,0,0,2,.39,2.16,2.16,0,0,0,1.77-1.51,2.23,2.23,0,0,0-.52-2.38"/><path class="cls-24" d="M18.05,26a1,1,0,0,1,1.16.05,1.2,1.2,0,1,1-1.76,1.22,1.64,1.64,0,0,0,0-.2A1.18,1.18,0,0,1,18.05,26m6.14,1.63a.19.19,0,0,1,0-.23c.09-.16.17-.31.25-.48A5.27,5.27,0,0,0,25,23.73a5.63,5.63,0,0,0-7.65-4.48,4.52,4.52,0,0,0-2.9,4.68,2.63,2.63,0,0,0,1.31,2,.19.19,0,0,1,.11.25,3,3,0,0,0,0,1.43,3,3,0,0,0,3.09,2.16,2.79,2.79,0,1,0-.53-5.55,3.81,3.81,0,0,0-1.35.43.2.2,0,0,1-.17,0A1.52,1.52,0,0,1,16.07,23a3.26,3.26,0,0,1,2.87-2.58,4,4,0,0,1,3.64,1.64,3.5,3.5,0,0,1,.67,3.15,8.59,8.59,0,0,1-1,2.17c0,.08-.07.13,0,.22.48.67.49,1.13,1.14,1.63a2.64,2.64,0,0,0,2.2.48l-.08-.14c-.43-.66-.86-1.32-1.3-2"/><path class="cls-24" d="M11.84,20.09a6.11,6.11,0,0,0-5-1.12,4.44,4.44,0,0,0-2.74,1.61,4.32,4.32,0,0,0-.93,3.11A2.15,2.15,0,0,0,4,25.39a.32.32,0,0,1,.14.43h0a2.77,2.77,0,0,0,.25,2.05A3.66,3.66,0,0,0,10,29a2.87,2.87,0,0,0,.45-4.29,1.74,1.74,0,0,0-1.85-.62,1.25,1.25,0,0,0-.9,1.57,1.42,1.42,0,0,0,1.54.91l.27-.05a1.09,1.09,0,0,1-.27,1.08,2.12,2.12,0,0,1-3-.05,1.35,1.35,0,0,1-.31-1.69,3.9,3.9,0,0,1,.76-1c.38-.46,0-1.47-.35-1.8-.36.35-.71.67-1.06,1-.16.14-.2.14-.32,0a.77.77,0,0,1-.15-.3,2.22,2.22,0,0,1,0-.63A3.15,3.15,0,0,1,6.84,20.6a3.72,3.72,0,0,1,1.9-.17,3.27,3.27,0,0,1,3,2.58,5.51,5.51,0,0,1,.16,1.45,1.64,1.64,0,0,0,1,1.33l.46.17c0-.1.05-.18.07-.26a7,7,0,0,0,.25-2.32,4.66,4.66,0,0,0-1.82-3.29"/><path class="cls-2" d="M37.33,22.39a1,1,0,0,1-1-1,1.12,1.12,0,0,1,1.12-1.11,1,1,0,0,1,1,1.09,1,1,0,0,1-1.07,1m-9.2,3.92a3.82,3.82,0,0,1,.11-.57.57.57,0,0,1,.15-.26.39.39,0,0,1,.66.07,3.69,3.69,0,0,1,.14,2c-.05.2-.15.38-.39.4a.49.49,0,0,1-.53-.35,2.58,2.58,0,0,1-.14-1.32m2.42-.47a.91.91,0,0,1,.15-.33.37.37,0,0,1,.66,0,1.57,1.57,0,0,1,.15.51,5.17,5.17,0,0,1,0,1.47c-.06.33-.22.47-.49.45a.37.37,0,0,1-.36-.27,3.82,3.82,0,0,1-.1-1.87m8.64-6.11A2.52,2.52,0,0,0,36,19.38a.3.3,0,0,0-.11.06v-.92c-.55,0-1.49,0-1.63.79v.37h0a.1.1,0,0,1-.05,0,4.87,4.87,0,0,0-4-1.22,5,5,0,0,0-3.38,1.83,4,4,0,0,0-.89,3.27,4.4,4.4,0,0,0,.91,2,.2.2,0,0,1,.06.21,3,3,0,0,0,.65,3.1,1.46,1.46,0,0,0,1.2.53A2.07,2.07,0,0,0,29.8,29a.14.14,0,0,1,.2,0,1.68,1.68,0,0,0,1.51.33,1.72,1.72,0,0,0,1.24-1.19,4.16,4.16,0,0,0,.22-2,3.15,3.15,0,0,0-.43-1.36A1.64,1.64,0,0,0,30,24.4a1.14,1.14,0,0,1-.11.11c-.66-.69-1-.75-2-.39l-.13-.24a2.23,2.23,0,0,1-.15-1.44,3.2,3.2,0,0,1,1.35-1.9,3.28,3.28,0,0,1,3.66-.12A3.93,3.93,0,0,1,33.91,22a2.92,2.92,0,0,1,.34,1.45c0,1.86,0,3.06,0,4.92,0,.35,1.09.86,1.63.86V23.2l.07,0a2.5,2.5,0,0,0,2,.39,2.17,2.17,0,0,0,1.77-1.52,2.24,2.24,0,0,0-.52-2.37"/><path class="cls-2" d="M17.65,25.52a1,1,0,0,1,1.16.05,1.2,1.2,0,0,1,.51,1.17,1.16,1.16,0,0,1-.79,1,1.15,1.15,0,0,1-1.48-1c0-.06,0-.11,0-.2a1.19,1.19,0,0,1,.62-1.07m6.14,1.63a.18.18,0,0,1,0-.23c.09-.16.17-.32.25-.48a5.28,5.28,0,0,0,.56-3.17,5.63,5.63,0,0,0-7.66-4.48A4.52,4.52,0,0,0,14,23.47a2.65,2.65,0,0,0,1.31,2,.18.18,0,0,1,.11.25,3,3,0,0,0,0,1.43,3,3,0,0,0,3.09,2.16A2.79,2.79,0,1,0,18,23.8a4.06,4.06,0,0,0-1.36.42.17.17,0,0,1-.17,0,1.54,1.54,0,0,1-.79-1.67A3.26,3.26,0,0,1,18.54,20a4,4,0,0,1,3.64,1.64,3.53,3.53,0,0,1,.67,3.15,8.94,8.94,0,0,1-1,2.17c-.05.08-.07.13,0,.21.48.68.48,1.14,1.14,1.64a2.63,2.63,0,0,0,2.2.48l-.09-.14-1.29-2"/><path class="cls-2" d="M11.43,19.63a6.06,6.06,0,0,0-5-1.12,4.49,4.49,0,0,0-2.74,1.61,4.28,4.28,0,0,0-.94,3.11,2.18,2.18,0,0,0,.88,1.7.34.34,0,0,1,.15.43h0A2.86,2.86,0,0,0,4,27.42a3.66,3.66,0,0,0,5.55,1.15A2.87,2.87,0,0,0,10,24.28a1.75,1.75,0,0,0-1.85-.62,1.25,1.25,0,0,0-.91,1.57,1.42,1.42,0,0,0,1.54.91l.28-.05a1.09,1.09,0,0,1-.28,1.08,2.11,2.11,0,0,1-3-.05,1.34,1.34,0,0,1-.31-1.69,3.65,3.65,0,0,1,.75-1c.38-.46,0-1.47-.34-1.8l-1.07,1c-.16.14-.19.14-.32,0a.94.94,0,0,1-.15-.3,2.68,2.68,0,0,1,0-.63,3.16,3.16,0,0,1,2.05-2.55A3.65,3.65,0,0,1,8.34,20a3.27,3.27,0,0,1,3,2.58A5.11,5.11,0,0,1,11.46,24a1.68,1.68,0,0,0,1,1.33l.47.17c0-.1.05-.18.06-.26a7,7,0,0,0,.25-2.32,4.62,4.62,0,0,0-1.82-3.29"/></g><rect class="cls-13" x="46.6" y="24.04" width="3.4" height="3.4" rx="1.7"/><path class="cls-13" d="M50.12,23.94a.42.42,0,0,1-.41-.42V19.13a.42.42,0,0,0-.42-.42H46.68a.42.42,0,0,0-.42.42v4.2a.41.41,0,0,1-.41.42H41.33a.42.42,0,0,0-.42.42v3a.42.42,0,0,0,.42.43h4.52a.41.41,0,0,1,.41.42v4.33a.42.42,0,0,0,.42.42h2.61a.42.42,0,0,0,.42-.42V28a.42.42,0,0,1,.41-.43h4a.42.42,0,0,0,.42-.42V24.36a.42.42,0,0,0-.42-.42Z"/><path class="cls-25" d="M50.74,23.74a.42.42,0,0,1-.42-.42v-4.2a.42.42,0,0,0-.42-.42H47.29a.42.42,0,0,0-.42.42V24a.41.41,0,0,1-.41.42H41.94a.42.42,0,0,0-.42.42v1.84a.42.42,0,0,0,.42.42h4.52a.41.41,0,0,1,.41.42v4.9a.42.42,0,0,0,.42.42H49.9a.42.42,0,0,0,.42-.42V28.1a.42.42,0,0,1,.42-.42h4a.42.42,0,0,0,.41-.43V24.17a.42.42,0,0,0-.41-.43Z"/><polygon class="cls-26" points="49.75 24.14 49.75 18.91 46.86 18.91 46.86 24.14 41.51 24.14 41.51 27.2 46.86 27.2 46.86 32.44 49.75 32.44 49.75 27.2 54.56 27.2 54.56 24.14 49.75 24.14"/><rect class="cls-13" x="46.57" y="23.97" width="3.4" height="3.4" rx="1.7"/><rect id="Rectangle_1_copy" data-name="Rectangle 1 copy" class="cls-27" x="199.48" y="9.43" width="15.1" height="15"/><rect class="cls-28" x="215.88" y="9.43" width="15.1" height="15"/><path class="cls-13" d="M209,13a1.1,1.1,0,0,0-1-.6h-2a1.1,1.1,0,0,0-1,.6l-2,7.5a1,1,0,0,0,.7.9h.1a1,1,0,0,0,1.2-.6l.6-2.4h2.8l.6,2.4a1,1,0,0,0,1.2.6.86.86,0,0,0,.8-.8h0Zm-3,3.9.8-3h.4l.8,3Z"/><path class="cls-13" d="M226.18,19.93c-.3.2-.5.4-.8.6a5,5,0,0,1-2,.8,5.86,5.86,0,0,1-2.3-.1,2.2,2.2,0,0,1-1.6-1.2,2.66,2.66,0,0,1-.3-1.2,2.32,2.32,0,0,1,.9-1.9,5.48,5.48,0,0,1,1.5-.8,9.38,9.38,0,0,0,1.5-.6,1.08,1.08,0,0,0,.7-1.4.66.66,0,0,0-.5-.4c-.2,0-.5.2-.5.4s-.1.6-.1.9c0,.1,0,.2-.1.2h-1.1c-.1,0-.2,0-.2-.1v-1a.43.43,0,0,0-.4-.4h-.1a.51.51,0,0,0-.5.4h0a1.7,1.7,0,0,0,.1.7c0,.1,0,.2-.2.2s-.7.1-1,.2c-.1,0-.2,0-.2-.1a3.89,3.89,0,0,1-.2-1.5,1.63,1.63,0,0,1,1.1-1.3,1.72,1.72,0,0,1,1.9.5c.1.1.1.1.2,0a2,2,0,0,1,2.9.1h0a3.55,3.55,0,0,1,.4.9,2,2,0,0,1,0,1.1,2.52,2.52,0,0,1-1,1.5,8.86,8.86,0,0,1-1.7.8,2.67,2.67,0,0,0-1.4.7,1.13,1.13,0,0,0-.3,1.1,1.22,1.22,0,0,0,.9.8,3.47,3.47,0,0,0,2.8-.6A5.26,5.26,0,0,0,226,18a.37.37,0,0,0,.1-.3v-4.9c0-.3,0-.3.3-.3h1.2c.2,0,.2,0,.2.2V21c0,.1,0,.2-.1.2h-1.5c-.1,0-.1,0-.2-.1v-1C226.18,20.13,226.18,20,226.18,19.93Z"/></g></g></svg>