<svg xmlns="http://www.w3.org/2000/svg" width="9" height="9" viewBox="0 0 9 9">
  <defs>
    <style>
      .cls-1 {
        fill: #b0b0b0;
        fill-rule: evenodd;
      }
    </style>
  </defs>
  <path id="_" data-name=" " class="cls-1" d="M95.488,631A4.5,4.5,0,1,1,100,626.529,4.507,4.507,0,0,1,95.488,631Zm3.528-4.485a3.516,3.516,0,1,0-3.536,3.5A3.527,3.527,0,0,0,99.016,626.515Zm-3.893-.884c0-.322,0-0.644,0-0.966a0.385,0.385,0,0,1,.3-0.415,0.377,0.377,0,0,1,.458.395c0,0.551.007,1.1,0,1.651a0.454,0.454,0,0,0,.155.365q0.579,0.563,1.143,1.142a0.369,0.369,0,0,1-.17.642,0.46,0.46,0,0,1-.347-0.1q-0.724-.692-1.415-1.416a0.612,0.612,0,0,1-.121-0.367C95.112,626.252,95.123,625.941,95.123,625.631Z" transform="translate(-91 -622)"/>
</svg>
