<svg xmlns="http://www.w3.org/2000/svg" width="12" height="10" viewBox="0 0 12 10">
  <defs>
    <style>
      .cls-1 {
        fill: #fff;
        fill-rule: evenodd;
      }
    </style>
  </defs>
  <path id="W_Article_page_author_Location_copy" data-name="W_Article page author Location copy" class="cls-1" d="M361.72,643.513c-0.026.029-.05,0.056-0.076,0.083-0.478.5-.957,1-1.431,1.5a0.416,0.416,0,0,0-.1.217q-0.074.6-.127,1.2c-0.014.153,0,.309,0,0.482H359.9c-1.663,0-3.325,0-4.988,0a0.921,0.921,0,0,1-.909-0.946c0.009-.278,0-0.557,0-0.835a2.564,2.564,0,0,1,2.069-2.538,5.954,5.954,0,0,1,.708-0.044,0.284,0.284,0,0,1,.115.032,3.2,3.2,0,0,0,1.265.279,2.652,2.652,0,0,0,1.113-.2,1.47,1.47,0,0,1,.7-0.105,2.446,2.446,0,0,1,1.711.834C361.7,643.484,361.707,643.5,361.72,643.513ZM358.189,637a2.493,2.493,0,1,1-2.392,2.487A2.441,2.441,0,0,1,358.189,637Zm6.422,7.191c-0.362.38-.731,0.767-1.1,1.152-0.452.473-.906,0.943-1.355,1.418a0.358,0.358,0,0,1-.235.121c-0.316.037-.63,0.076-0.945,0.114a0.3,0.3,0,0,1-.37-0.36c0.029-.372.072-0.743,0.113-1.113a0.179,0.179,0,0,1,.052-0.1q1.246-1.3,2.5-2.606a0.082,0.082,0,0,1,.017-0.014Zm0.464-.492c-0.439-.463-0.874-0.924-1.334-1.41a1.472,1.472,0,0,0,.14-0.114c0.2-.209.4-0.421,0.606-0.63a0.432,0.432,0,0,1,.677,0c0.216,0.223.425,0.453,0.645,0.67a0.506,0.506,0,0,1,0,.736C365.557,643.187,365.322,643.444,365.075,643.7Z" transform="translate(-354 -637)"/>
</svg>
