<svg xmlns="http://www.w3.org/2000/svg" width="19" height="16" viewBox="0 0 19 16">
  <defs>
    <style>
      .cls-1 {
        fill: #333;
        fill-rule: evenodd;
      }
    </style>
  </defs>
  <path id="Menu_HOME_ICON" data-name="Menu HOME ICON" class="cls-1" d="M47.623,181.279q0,1.641,0,3.281c0,0.35-.085.438-0.427,0.438q-2.238,0-4.476,0c-0.346,0-.435-0.089-0.435-0.431q0-2.223,0-4.446c0-.383-0.083-0.469-0.456-0.469H39.169c-0.359,0-.445.088-0.445,0.451q0,2.209,0,4.419c0,0.4-.076.477-0.473,0.477q-2.211,0-4.421,0c-0.361,0-.445-0.085-0.445-0.449,0-2.169,0-4.337,0-6.506a0.833,0.833,0,0,1,.356-0.715q3.133-2.419,6.258-4.85c0.489-.379.533-0.378,1.027,0q3.117,2.418,6.237,4.833a0.874,0.874,0,0,1,.37.763C47.616,179.147,47.623,180.213,47.623,181.279Zm-3.554-9.792c0-.349,0-0.635,0-0.92a0.335,0.335,0,0,1,.4-0.411q0.773,0,1.547,0a0.346,0.346,0,0,1,.422.422c0,0.841-.006,1.682.01,2.522a0.558,0.558,0,0,0,.184.378c0.963,0.764,1.937,1.515,2.91,2.266a0.986,0.986,0,0,1,.449.68,0.842,0.842,0,0,1-.424.873,0.853,0.853,0,0,1-.994-0.05c-0.443-.328-0.874-0.673-1.31-1.011L41.158,171.5c-0.064-.05-0.127-0.1-0.193-0.15a0.629,0.629,0,0,0-.928.007q-2.061,1.592-4.116,3.19-1.7,1.321-3.408,2.642a0.9,0.9,0,1,1-1.087-1.412q4.242-3.294,8.487-6.583a0.9,0.9,0,0,1,1.193.01q1.339,1.04,2.678,2.079C43.859,171.339,43.938,171.392,44.069,171.487Z" transform="translate(-31 -169)"/>
</svg>
