<svg xmlns="http://www.w3.org/2000/svg" width="4" height="6" viewBox="0 0 4 6">
  <defs>
    <style>
      .cls-1 {
        fill: #860707;
        fill-rule: evenodd;
      }
    </style>
  </defs>
  <path id="breadcrumb_before_icon" data-name="breadcrumb before icon" class="cls-1" d="M81.652,262.986a1.1,1.1,0,0,1-.137-0.087l-2.342-2.089a0.331,0.331,0,0,1,0-.582,0.5,0.5,0,0,1,.833,0c0.912,0.827,1.839,1.642,2.76,2.461a1.384,1.384,0,0,1,.124.121,0.272,0.272,0,0,1-.008.387,1.429,1.429,0,0,1-.108.1l-2.867,2.549a0.423,0.423,0,0,1-.653,0c-0.326-.267-0.351-0.44,0-0.743,0.76-.659,1.5-1.335,2.252-2C81.542,263.07,81.579,263.043,81.652,262.986Z" transform="translate(-79 -260.031)"/>
</svg>
