<svg xmlns="http://www.w3.org/2000/svg" width="16" height="16" viewBox="0 0 16 16">
  <defs>
    <style>
      .cls-1 {
        fill: #fff;
        fill-rule: evenodd;
      }
    </style>
  </defs>
  <path id="CLOSE_SEARCH" class="cls-1" d="M1554,203.454a3.274,3.274,0,0,1,.27-0.363c1.52-1.518,3.03-3.034,4.55-4.55a1.417,1.417,0,0,1,2.23,0c0.13,0.125.25,0.25,0.38,0.376a1.432,1.432,0,0,1,.01,2.281q-2.265,2.264-4.53,4.525c-0.08.08-.18,0.143-0.29,0.234,0.11,0.123.19,0.2,0.26,0.283q2.28,2.275,4.55,4.549a1.432,1.432,0,0,1,.01,2.281c-0.16.155-.31,0.311-0.47,0.463a1.393,1.393,0,0,1-2.08,0c-1.32-1.313-2.63-2.632-3.95-3.951-0.3-.3-0.59-0.611-0.92-0.943-0.1.093-.18,0.165-0.26,0.242q-2.28,2.285-4.57,4.569a1.43,1.43,0,0,1-2.26,0l-0.42-.42a1.407,1.407,0,0,1,0-2.168q1.92-1.924,3.84-3.842c0.33-.33.66-0.658,1-1-0.09-.1-0.17-0.188-0.25-0.267-1.51-1.516-3.03-3.032-4.54-4.548a1.427,1.427,0,0,1-.01-2.259c0.15-.154.31-0.31,0.46-0.463a1.405,1.405,0,0,1,2.11,0c1.54,1.535,3.07,3.075,4.61,4.615A3.6,3.6,0,0,1,1554,203.454Z" transform="translate(-1546 -198)"/>
</svg>
