<svg id="facebbok" xmlns="http://www.w3.org/2000/svg" width="21.13" height="21" viewBox="0 0 21.13 21">
  <defs>
    <style>
      .cls-1 {
        fill: #3c51a5;
      }

      .cls-2 {
        fill: #fff;
        fill-rule: evenodd;
      }
    </style>
  </defs>
  <circle class="cls-1" cx="10.565" cy="10.5" r="10.565"/>
  <path class="cls-2" d="M1386.06,18.524h-2.07V16.4h2.07a2.984,2.984,0,0,1,0-.3,15.941,15.941,0,0,1,.05-1.831A2.609,2.609,0,0,1,1388.83,12c0.71-.038,1.43.02,2.16,0.036v1.948c-0.27,0-.53,0-0.79,0s-0.49.005-.74,0.02a0.81,0.81,0,0,0-.9.781c-0.03.524-.01,1.049-0.01,1.6h2.37c-0.1.729-.2,1.424-0.31,2.142h-2.06v5.484h-2.49V18.524Z" transform="translate(-1377 -7)"/>
</svg>
