<svg xmlns="http://www.w3.org/2000/svg" width="13" height="5" viewBox="0 0 13 5">
  <defs>
    <style>
      .cls-1 {
        fill: #7b1c18;
        fill-rule: evenodd;
      }
    </style>
  </defs>
  <path class="cls-1" d="M1572.63,791.657c0-.479,0-0.922.01-1.365a0.348,0.348,0,0,1,.15-0.284,0.463,0.463,0,0,1,.34.1c0.9,0.706,1.79,1.421,2.69,2.134,0.24,0.189.24,0.282,0.01,0.47-0.91.735-1.81,1.469-2.73,2.2a0.406,0.406,0,0,1-.32.082,0.323,0.323,0,0,1-.14-0.269c-0.01-.449-0.01-0.9-0.01-1.378h-9.2c-0.39,0-.43-0.036-0.43-0.381V792.03c0-.331.05-0.373,0.42-0.373h9.21Z" transform="translate(-1563 -790)"/>
</svg>
