<svg xmlns="http://www.w3.org/2000/svg" width="22" height="18" viewBox="0 0 22 18">
  <defs>
    <style>
      .cls-1 {
        fill: #fff;
        fill-rule: evenodd;
      }
    </style>
  </defs>
  <path id="DE-ACTIVE_MOME" class="cls-1" d="M358.577,213h-5.83v-5.547h-3.2v5.533h-6.111v-0.413c0-2.273.006-4.546-.007-6.819a0.69,0.69,0,0,1,.323-0.624q3.465-2.593,6.912-5.211a0.469,0.469,0,0,1,.69,0c2.307,1.756,4.628,3.494,6.938,5.247a0.664,0.664,0,0,1,.272.422C358.582,208.047,358.577,210.5,358.577,213Zm1.917-7.775-4.252-3.2c-1.634-1.231-3.274-2.456-4.9-3.7a0.468,0.468,0,0,0-.688.012q-4.33,3.287-8.678,6.549c-0.146.11-.294,0.216-0.462,0.339L340,203.292,351.006,195l4.681,3.523v-1.462H358.9c0,0.736-.006,1.461,0,2.186A2.081,2.081,0,0,0,360.3,202c0.565,0.428,1.131.853,1.7,1.283-0.064.093-.107,0.166-0.159,0.232C361.405,204.069,360.967,204.624,360.494,205.225Z" transform="translate(-340 -195)"/>
</svg>
