<svg id="youtube" xmlns="http://www.w3.org/2000/svg" width="21.12" height="21" viewBox="0 0 21.12 21">
  <defs>
    <style>
      .cls-1 {
        fill: #fa423b;
      }

      .cls-2 {
        fill: #fff;
        fill-rule: evenodd;
      }
    </style>
  </defs>
  <ellipse id="Ellipse_1297_copy_3" data-name="Ellipse 1297 copy 3" class="cls-1" cx="10.56" cy="10.5" rx="10.56" ry="10.5"/>
  <path class="cls-2" d="M1471.51,21c-1.25-.054-2.51-0.1-3.76-0.165a2.819,2.819,0,0,1-.62-0.1,1.328,1.328,0,0,1-1.01-1.172,13.446,13.446,0,0,1-.13-2.834,12.145,12.145,0,0,1,.17-1.473,1.322,1.322,0,0,1,1.35-1.13c0.82-.067,1.63-0.125,2.45-0.129,1.49-.008,2.98.021,4.47,0.048a9.21,9.21,0,0,1,1.12.1,1.317,1.317,0,0,1,1.27,1.119,10.5,10.5,0,0,1,.17,2.624,17.668,17.668,0,0,1-.17,1.779,1.3,1.3,0,0,1-1.33,1.135c-0.8.068-1.6,0.1-2.4,0.135-0.52.02-1.05,0-1.58,0V21Zm1.75-3.529c-0.97-.5-1.91-0.993-2.86-1.49v2.98C1471.35,18.462,1472.29,17.972,1473.26,17.471Z" transform="translate(-1460.88 -7)"/>
</svg>
