<svg xmlns="http://www.w3.org/2000/svg" width="43.069" height="24.629" viewBox="0 0 43.069 24.629">
  <g id="Group_7" data-name="Group 7" transform="translate(-6498.017 376)">
    <g id="Shape_508" data-name="Shape 508" transform="translate(4741.256 -422)" fill="#121212" stroke-linejoin="round">
      <path d="M 1787.6416015625 70.12870025634766 L 1787.639038085938 70.12870025634766 L 1768.952270507812 70.12870025634766 L 1768.94970703125 70.12870025634766 L 1768.947143554688 70.12866973876953 C 1765.793334960938 70.09619903564453 1762.840942382812 68.83670043945312 1760.633911132812 66.58219146728516 C 1758.426879882812 64.32778930664062 1757.229370117188 61.34835815429688 1757.261840820312 58.1927490234375 C 1757.293823242188 55.08288955688477 1758.521728515625 52.1590461730957 1760.719360351562 49.95984649658203 C 1762.917114257812 47.76055908203125 1765.839111328125 46.53169631958008 1768.947143554688 46.49962615966797 L 1768.94970703125 46.49959945678711 L 1768.952270507812 46.49959945678711 L 1787.639038085938 46.49959945678711 L 1787.6416015625 46.49959945678711 L 1787.644165039062 46.49962615966797 C 1790.797973632812 46.53214645385742 1793.750366210938 47.79166793823242 1795.957397460938 50.04615783691406 C 1798.164428710938 52.30055618286133 1799.361938476562 55.27999877929688 1799.32958984375 58.43563842773438 C 1799.297607421875 61.54546737670898 1798.069702148438 64.46929168701172 1795.871948242188 66.66851043701172 C 1793.674194335938 68.86780548095703 1790.752197265625 70.09664916992188 1787.644165039062 70.12866973876953 L 1787.6416015625 70.12870025634766 Z" stroke="none"/>
      <path d="M 1768.952270507812 46.99960327148438 C 1762.79833984375 47.06309509277344 1757.825073242188 52.039794921875 1757.761840820312 58.19790267944336 C 1757.697509765625 64.44650268554688 1762.707641601562 69.56440734863281 1768.952270507812 69.62870025634766 L 1787.639038085938 69.62870025634766 C 1793.79296875 69.56529998779297 1798.766357421875 64.5885009765625 1798.82958984375 58.43050003051758 C 1798.893798828125 52.18180084228516 1793.883666992188 47.06399536132812 1787.639038085938 46.99960327148438 L 1768.952270507812 46.99960327148438 M 1768.952270507812 45.99960327148438 L 1787.639038085938 45.99960327148438 C 1787.642456054688 45.99960327148438 1787.645874023438 45.99961853027344 1787.649291992188 45.99964904785156 C 1790.936767578125 46.03355407714844 1794.01416015625 47.34641265869141 1796.314697265625 49.69638061523438 C 1798.615112304688 52.04617309570312 1799.86328125 55.15165328979492 1799.82958984375 58.44078063964844 C 1799.796264648438 61.68215179443359 1798.516357421875 64.72967529296875 1796.225708007812 67.02194213867188 C 1793.934814453125 69.31437683105469 1790.889038085938 70.59527587890625 1787.649291992188 70.62864685058594 C 1787.645874023438 70.62867736816406 1787.642456054688 70.62870025634766 1787.639038085938 70.62870025634766 L 1768.952270507812 70.62870025634766 C 1768.948852539062 70.62870025634766 1768.945434570312 70.62867736816406 1768.942016601562 70.62864685058594 C 1765.654541015625 70.59480285644531 1762.5771484375 69.28196716308594 1760.276611328125 66.93196105957031 C 1757.976196289062 64.58216857910156 1756.72802734375 61.47669219970703 1756.761840820312 58.18760299682617 C 1756.795166015625 54.94621276855469 1758.075073242188 51.89867401123047 1760.36572265625 49.60641479492188 C 1762.656494140625 47.31398010253906 1765.702270507812 46.0330810546875 1768.94189453125 45.99964904785156 C 1768.945434570312 45.99961853027344 1768.948852539062 45.99960327148438 1768.952270507812 45.99960327148438 Z" stroke="none" fill="#96a6df"/>
    </g>
    <path id="Shape_507" data-name="Shape 507" d="M1776.889,61.041a.546.546,0,0,0-.472.013,5.905,5.905,0,0,1-1.962.7,5.634,5.634,0,0,1-2.071-.017,5.976,5.976,0,0,1-4.046-8.808,5.462,5.462,0,0,1,1.272-1.533.522.522,0,0,0,.061-.726.575.575,0,0,0-.448-.185A8.013,8.013,0,0,0,1763.25,63a7.873,7.873,0,0,0,5.111,3.347,8,8,0,0,0,8.77-4.616.483.483,0,0,0-.184-.659A.47.47,0,0,0,1776.889,61.041Z" transform="translate(4741.256 -422)" fill="#fff"/>
  </g>
</svg>
