<svg id="android_Tv" xmlns="http://www.w3.org/2000/svg" width="72.18" height="38.625" viewBox="0 0 72.18 38.625">
  <defs>
    <style>
      .cls-1 {
        fill: #71b957;
      }

      .cls-1, .cls-2 {
        fill-rule: evenodd;
      }

      .cls-2 {
        fill: #676767;
      }
    </style>
  </defs>
  <path class="cls-1" d="M1425.64,884.431c0-.716-0.02-1.432,0-2.147a3.885,3.885,0,0,1,1.88-3.322,4.231,4.231,0,0,1,5.28.592,4.173,4.173,0,0,1,1.16,3.032q-0.015,2.113,0,4.226c0,0.252-.06.34-0.33,0.328-0.49-.02-0.98-0.023-1.46,0-0.3.015-.4-0.058-0.39-0.369,0.02-1.454.01-2.908,0.01-4.363a1.977,1.977,0,0,0-1.44-1.9,2,2,0,0,0-2.56,1.946q-0.015,2.164,0,4.329a0.283,0.283,0,0,1-.36.355c-0.5-.023-1-0.017-1.5,0a0.238,0.238,0,0,1-.3-0.288C1425.64,886.045,1425.64,885.238,1425.64,884.431Zm19.46,0.059c0-.737-0.02-1.476.01-2.213a4.089,4.089,0,0,1,1.15-2.954,4,4,0,0,1,2-.934,4.876,4.876,0,0,1,.89-0.074c0.24-.007.27,0.093,0.26,0.283-0.01.511-.01,1.022,0.01,1.532a0.252,0.252,0,0,1-.31.31,1.775,1.775,0,0,0-1.25.487,1.7,1.7,0,0,0-.54,1.28c0,1.532-.01,3.065.01,4.6,0,0.276-.09.346-0.36,0.336-0.52-.019-1.04-0.017-1.56,0-0.24.008-.32-0.058-0.31-0.3C1445.11,886.057,1445.1,885.274,1445.1,884.49Zm14.76-1.705c0-1.34.01-2.68-.01-4.021,0-.259.07-0.326,0.33-0.316,0.5,0.02,1,.018,1.5,0,0.24-.009.34,0.04,0.34,0.311-0.02,2.692-.01,5.383-0.01,8.075,0.01,0.241-.07.312-0.31,0.3-0.5-.016-1-0.019-1.5,0a0.274,0.274,0,0,1-.35-0.334C1459.87,885.466,1459.86,884.125,1459.86,882.785Zm1.07-4.97a1.277,1.277,0,0,1-1.27-1.259,1.264,1.264,0,0,1,1.25-1.237A1.248,1.248,0,1,1,1460.93,877.815Zm-17-1.677a0.211,0.211,0,0,0-.26-0.255c-0.52.011-1.04,0.019-1.56,0-0.28-.012-0.36.067-0.35,0.338,0.02,0.961.01,1.922,0.01,2.872a0.3,0.3,0,0,1-.06.023,0.322,0.322,0,0,1-.1-0.04,3.688,3.688,0,0,0-2.93-.758,4.173,4.173,0,0,0-2.33,1.077,4.453,4.453,0,0,0-1.44,3.827,4.3,4.3,0,0,0,1.72,3.194,4.2,4.2,0,0,0,4.08.645,6.363,6.363,0,0,0,1.06-.623,1.861,1.861,0,0,1-.01.348c-0.04.282,0.06,0.372,0.36,0.358,0.51-.025,1.02-0.016,1.53,0a0.222,0.222,0,0,0,.28-0.267Q1443.915,881.505,1443.93,876.138Zm-3.06,8.753a2.466,2.466,0,1,1,.73-3.55,0.777,0.777,0,0,1,.17.537c-0.02.3,0,.613,0,0.92a3.718,3.718,0,0,0,0,.578A1.464,1.464,0,0,1,1440.87,884.891Zm31.19-8.751c0-.226-0.08-0.261-0.28-0.257-0.52.011-1.05,0.015-1.57,0-0.24-.008-0.32.054-0.31,0.3,0.01,0.612,0,1.226,0,1.839V879.2a3.7,3.7,0,0,0-2.78-.887,4.12,4.12,0,0,0-2.84,1.284,4.683,4.683,0,0,0,.44,6.78,4.208,4.208,0,0,0,3.63.827,3.742,3.742,0,0,0,1.55-.8c0,0.17.01,0.261,0,.348-0.05.311,0.07,0.408,0.39,0.391,0.5-.027,1-0.017,1.5,0a0.216,0.216,0,0,0,.27-0.267V876.14Zm-3.27,8.86a2.464,2.464,0,1,1-1.43-4.644,2.518,2.518,0,0,1,2.38.985,0.764,0.764,0,0,1,.17.536c-0.02.294-.01,0.59-0.01,0.885a4.936,4.936,0,0,0,0,.544A1.585,1.585,0,0,1,1468.79,885Zm-44.32-6.307c0-.2-0.07-0.248-0.26-0.242-0.4.011-.79,0-1.18,0a1.691,1.691,0,0,0-.72.044,1.362,1.362,0,0,0-.09.633,3.7,3.7,0,0,0-2.64-.815,4.129,4.129,0,0,0-3.14,1.541,4.616,4.616,0,0,0-.33,5.439,4.337,4.337,0,0,0,4.59,1.912,3.72,3.72,0,0,0,1.55-.764,1.669,1.669,0,0,1,0,.319c-0.04.294,0.06,0.4,0.38,0.378,0.52-.028,1.04-0.016,1.56,0a0.222,0.222,0,0,0,.28-0.268v-8.178Zm-2.21,3.275a7.4,7.4,0,0,0-.01.816V883.4a1.628,1.628,0,0,1-1.15,1.648,2.453,2.453,0,0,1-3.48-2.5,2.379,2.379,0,0,1,2.09-2.188,2.5,2.5,0,0,1,2.19.7A1.08,1.08,0,0,1,1422.26,881.968Zm32.39-3.645a4.5,4.5,0,1,0,4.17,4.478A4.5,4.5,0,0,0,1454.65,878.323Zm-0.46,6.836a2.364,2.364,0,1,1,.02-4.727A2.365,2.365,0,1,1,1454.19,885.159Z" transform="translate(-1415.38 -848.813)"/>
  <path class="cls-2" d="M1483.15,885.353c0.4-1.026.78-1.97,1.15-2.918,0.47-1.2.92-2.409,1.39-3.614a0.236,0.236,0,0,1,.26-0.206c0.52,0.011,1.04,0,1.62,0-0.19.453-.35,0.872-0.52,1.288q-1.44,3.487-2.87,6.976a0.544,0.544,0,0,1-.64.444,6.458,6.458,0,0,0-1.05-.007,0.315,0.315,0,0,1-.36-0.226c-0.71-1.761-1.45-3.516-2.18-5.273-0.38-.909-0.75-1.817-1.13-2.727-0.06-.145-0.11-0.294-0.18-0.475,0.59,0,1.14.008,1.69,0a0.212,0.212,0,0,1,.22.2l2.46,6.256C1483.04,885.145,1483.08,885.213,1483.15,885.353Zm-8.96-5.188c0-1.183.01-2.367,0-3.55-0.01-.23.05-0.329,0.3-0.314a9.5,9.5,0,0,0,1.04,0c0.23-.012.31,0.057,0.3,0.285-0.01.58,0.01,1.161-.01,1.74-0.01.249,0.08,0.3,0.31,0.3,0.56-.016,1.12,0,1.67-0.009,0.22,0,.32.04,0.3,0.277-0.02.318-.01,0.637,0,0.956,0.01,0.181-.06.235-0.24,0.233-0.58-.008-1.16,0-1.74-0.007a0.236,0.236,0,0,0-.3.284c0.01,1.218,0,2.436.01,3.653a1.9,1.9,0,0,0,1.91,1.842c0.33,0,.46.066,0.43,0.41-0.03.327-.01,0.659-0.01,0.989,0.01,0.15-.05.188-0.2,0.2a3.476,3.476,0,0,1-3.7-2.887,20,20,0,0,1-.07-2.792v-1.605Z" transform="translate(-1415.38 -848.813)"/>
  <path class="cls-1" d="M1439.56,855.926c-0.65-1.2-1.28-2.374-1.92-3.552-0.43-.8-0.87-1.6-1.29-2.394a0.71,0.71,0,0,1,.02-0.928,0.646,0.646,0,0,1,1.1.237c0.51,0.89.99,1.794,1.48,2.693,0.55,1,1.11,2,1.64,3.012a0.4,0.4,0,0,0,.59.221c1.34-.447,2.66-0.95,4.03-1.262a22.368,22.368,0,0,1,8.05-.323,21.767,21.767,0,0,1,5.72,1.546,0.533,0.533,0,0,0,.81-0.324c0.97-1.824,1.96-3.635,2.95-5.448a0.723,0.723,0,0,1,.95-0.515c0.44,0.173.53,0.576,0.25,1.1-0.9,1.672-1.81,3.34-2.71,5.007-0.52.953-.51,0.936,0.4,1.475a19.828,19.828,0,0,1,9.3,11.584,17.245,17.245,0,0,1,.7,4.519c0.02,0.465-.11.6-0.58,0.6-4.57-.017-9.14-0.01-13.71-0.01h-27.97c-0.75,0-.75,0-0.73-0.736a18.449,18.449,0,0,1,5.66-12.659,20.45,20.45,0,0,1,4.94-3.626A3.819,3.819,0,0,0,1439.56,855.926Zm2.57,7.608a1.859,1.859,0,0,0-1.82-1.776,1.8,1.8,0,0,0,.04,3.595A1.854,1.854,0,0,0,1442.13,863.534Zm17.82,1.819a1.8,1.8,0,0,0,.03-3.595A1.8,1.8,0,0,0,1459.95,865.353Z" transform="translate(-1415.38 -848.813)"/>
</svg>
