<svg xmlns="http://www.w3.org/2000/svg" width="104.53" height="24.094" viewBox="0 0 104.53 24.094">
  <defs>
    <style>
      .cls-1 {
        fill: #5e5e5e;
        fill-rule: evenodd;
      }
    </style>
  </defs>
  <path id="App_store" data-name="App store" class="cls-1" d="M1241.74,883.334c-0.22.527-.41,1.053-0.65,1.556a15.5,15.5,0,0,1-2.38,3.552,3.365,3.365,0,0,1-2.07,1.221,3.708,3.708,0,0,1-1.97-.305,6.739,6.739,0,0,0-1.83-.577,4.911,4.911,0,0,0-2.32.286c-0.4.153-.8,0.323-1.21,0.466a2.788,2.788,0,0,1-3.01-.622,13.1,13.1,0,0,1-2.76-3.727,14.145,14.145,0,0,1-1.67-6.7,7.449,7.449,0,0,1,1.65-4.851,5.787,5.787,0,0,1,4.18-2.138,4.987,4.987,0,0,1,2.07.375c0.52,0.19,1.04.392,1.56,0.576a1.761,1.761,0,0,0,1.2,0c0.72-.258,1.43-0.55,2.16-0.772a5.814,5.814,0,0,1,6.21,1.931c0.05,0.069.1,0.141,0.16,0.212A5.333,5.333,0,0,0,1241.74,883.334Zm22.79-6.2c0.18-.222.32-0.4,0.46-0.572a3.664,3.664,0,0,1,5.56.447,4.807,4.807,0,0,1,.87,2.386,6.256,6.256,0,0,1-.41,3.114,3.931,3.931,0,0,1-4.69,2.337,2.9,2.9,0,0,1-1.57-1.055v4.646h-2.07V875.716h1.73C1264.45,876.161,1264.48,876.616,1264.53,877.131Zm4.87,3.079c-0.03-.269-0.04-0.541-0.08-0.808a2.823,2.823,0,0,0-.97-1.841,2.2,2.2,0,0,0-3.51,1.4,10.209,10.209,0,0,0-.05,2.532,2.092,2.092,0,0,0,1.75,1.862,2.2,2.2,0,0,0,2.38-1.142A4.34,4.34,0,0,0,1269.4,880.21Zm5.88,3.52v4.7h-2.06V875.715h1.73c0.04,0.458.08,0.913,0.12,1.419,0.08-.093.12-0.144,0.16-0.2a3.624,3.624,0,0,1,5.4-.456,4.413,4.413,0,0,1,1.29,2.557,6.252,6.252,0,0,1-.4,3.548,3.923,3.923,0,0,1-4.66,2.254A2.863,2.863,0,0,1,1275.28,883.73Zm-0.06-3.439,0.04,0.008c0.02,0.392.02,0.787,0.06,1.176a2.171,2.171,0,0,0,1.62,1.844,2.134,2.134,0,0,0,2.4-.913,4.19,4.19,0,0,0,.2-4.018,2.088,2.088,0,0,0-2.23-1.264,2.214,2.214,0,0,0-1.88,1.62C1275.31,879.245,1275.29,879.774,1275.22,880.291Zm-14.3,4.477h-1.58c-0.57,0-.57,0-0.74-0.536-0.32-.981-0.64-1.961-0.94-2.945a0.275,0.275,0,0,0-.31-0.229c-1.22.009-2.44,0.011-3.66,0a0.275,0.275,0,0,0-.32.248c-0.32,1.072-.66,2.14-0.97,3.212a0.3,0.3,0,0,1-.35.256c-0.6-.015-1.2,0-1.84,0l0.1-.323q1.95-6,3.89-11.991a0.332,0.332,0,0,1,.38-0.282c0.68,0.018,1.36.012,2.04,0a0.245,0.245,0,0,1,.28.2q1.98,6.094,3.97,12.185A1.787,1.787,0,0,1,1260.92,884.768Zm-5.43-10.778c-0.53,1.782-1.08,3.639-1.64,5.5h3.34C1256.61,877.622,1256.04,875.773,1255.49,873.99Zm30.88,8.591c0.68,0.21,1.31.452,1.97,0.6a4,4,0,0,0,2.12-.066,1.795,1.795,0,0,0,.53-3.221,8.421,8.421,0,0,0-1.41-.718,8.337,8.337,0,0,1-2.26-1.235,3.185,3.185,0,0,1,.2-5.112,4.855,4.855,0,0,1,2.98-.829,6.461,6.461,0,0,1,2.61.489,0.222,0.222,0,0,1,.15.336c-0.16.459-.3,0.927-0.45,1.4a4.89,4.89,0,0,0-2.66-.557,3.2,3.2,0,0,0-1.16.306,1.489,1.489,0,0,0-.31,2.47,7.267,7.267,0,0,0,1.39.834c0.6,0.306,1.23.534,1.81,0.862a3.391,3.391,0,0,1,1.84,2.315,3.454,3.454,0,0,1-2.42,4.169,6.9,6.9,0,0,1-5.03-.267c-0.36-.155-0.35-0.17-0.25-0.539,0.12-.413.23-0.825,0.35-1.237C1286.37,882.567,1286.39,882.555,1286.37,882.581Zm24.31-2.412a5.264,5.264,0,0,1-.68,2.69,4.305,4.305,0,0,1-4.11,2.1,4.244,4.244,0,0,1-4.17-3.97,6.046,6.046,0,0,1,.29-2.637,4.363,4.363,0,0,1,4.55-2.849,4.244,4.244,0,0,1,4.09,4.138Zm-6.91.042a4.074,4.074,0,0,0,.55,2.182,2.069,2.069,0,0,0,3.62.042,4.112,4.112,0,0,0,.02-4.457,2.1,2.1,0,0,0-3.62.029A4.163,4.163,0,0,0,1303.77,880.211Zm16.48,0.488a2.434,2.434,0,0,0,2.09,2.614,6.192,6.192,0,0,0,2.92-.239c0.09-.025.17-0.052,0.26-0.076a0.248,0.248,0,0,1,.07.007c0.1,0.441.2,0.89,0.32,1.408-0.54.136-1.06,0.3-1.59,0.391a7.038,7.038,0,0,1-2.77-.011,3.86,3.86,0,0,1-3.07-2.862,5.529,5.529,0,0,1,.49-4.389,4.081,4.081,0,0,1,4.78-1.918,3.435,3.435,0,0,1,2.47,2.661,5.6,5.6,0,0,1,.13,2.414h-6.1Zm-0.02-1.444h4.26c-0.02-.211-0.03-0.4-0.06-0.591a1.977,1.977,0,0,0-3.11-1.43A2.775,2.775,0,0,0,1320.23,879.255ZM1295,875.692h1.31c0-.484.02-0.944,0-1.4a0.284,0.284,0,0,1,.25-0.344c0.57-.152,1.13-0.331,1.74-0.514v2.262h2.25v1.5h-2.2a0.754,0.754,0,0,0-.04.136c0.01,1.565.01,3.13,0.03,4.7a1.645,1.645,0,0,0,.1.486,1,1,0,0,0,1.06.774c0.29,0,.58-0.036.9-0.057,0.02,0.491.04,0.991,0.07,1.515a4.341,4.341,0,0,1-2.7,0,2.257,2.257,0,0,1-1.39-2.011,8.062,8.062,0,0,1-.06-1.1c-0.01-1.372-.01-2.745-0.01-4.118V877.2H1295v-1.507Zm22.3,1.749c-0.24-.011-0.45-0.032-0.66-0.029a2.047,2.047,0,0,0-2.07,1.81,4.911,4.911,0,0,0-.08.938v4.585h-2.06v-9.034h1.73c0.03,0.566.05,1.121,0.08,1.677a0.311,0.311,0,0,1,.05.015c0.05-.089.09-0.178,0.13-0.268a2.611,2.611,0,0,1,2.59-1.635,0.25,0.25,0,0,1,.29.312C1317.29,876.343,1317.3,876.875,1317.3,877.441Zm-80.69-11.825c0.34,2.866-2.23,5.746-4.83,5.521C1231.18,868.914,1234.15,865.5,1236.61,865.616Z" transform="translate(-1221.88 -865.625)"/>
</svg>
