<svg id="Facebook" xmlns="http://www.w3.org/2000/svg" width="34.78" height="35" viewBox="0 0 34.78 35">
  <defs>
    <style>
      .cls-1 {
        fill: #a7a7a7;
      }

      .cls-1, .cls-2 {
        fill-rule: evenodd;
      }

      .cls-2 {
        fill: #fff;
      }
    </style>
  </defs>
  <path class="cls-1" d="M1681.4,857a17.5,17.5,0,1,1-17.4,17.5A17.448,17.448,0,0,1,1681.4,857Z" transform="translate(-1664 -857)"/>
  <path class="cls-2" d="M1680.1,875.178h-2.57V872.43h2.57v-0.388a20.758,20.758,0,0,1,.07-2.368,3.275,3.275,0,0,1,3.38-2.937c0.88-.049,1.77.026,2.68,0.046v2.52c-0.33,0-.66,0-0.98,0s-0.62.007-.92,0.025a1.023,1.023,0,0,0-1.12,1.01c-0.03.678-.01,1.357-0.01,2.076h2.95c-0.13.943-.26,1.842-0.39,2.77h-2.56v7.093h-3.1v-7.1Z" transform="translate(-1664 -857)"/>
</svg>
