<svg xmlns="http://www.w3.org/2000/svg" width="59" height="31.969" viewBox="0 0 59 31.969">
  <defs>
    <style>
      .cls-1 {
        fill: #636363;
        fill-rule: evenodd;
      }
    </style>
  </defs>
  <path id="Fire_Tv" data-name="Fire Tv" class="cls-1" d="M1536.99,893.974c-1.1-.2-2.2-0.387-3.3-0.59a33.16,33.16,0,0,1-16.08-7.833,3.248,3.248,0,0,1-.41-0.411,4.247,4.247,0,0,1-.27-0.586,7.255,7.255,0,0,1,1.31.374,45.486,45.486,0,0,0,12.05,4.619,44.957,44.957,0,0,0,27.15-2.1c0.53-.213,1.23-0.75,1.62-0.007,0.4,0.766-.47,1.025-0.94,1.335a31.9,31.9,0,0,1-14.28,5,6.2,6.2,0,0,0-.84.207h-6.01Zm7.75-15.584c0.39,1.325.25,1.776-.9,1.983a15.929,15.929,0,0,1-4.39.393c-2.71-.285-4.1-1.82-4.61-4.6a9.025,9.025,0,0,1,.57-5.426c1.49-3.312,5.97-3.481,7.92-2.149a4.395,4.395,0,0,1,1.83,3.771c0.07,2.452.08,2.452-2.3,2.452h-5.76a3.349,3.349,0,0,0,3,4.131,12.627,12.627,0,0,0,2.42-.031A19.114,19.114,0,0,0,1544.74,878.39Zm-1.73-5.15c0.14-1.275.11-2.455-1.01-3.19a3.124,3.124,0,0,0-3.48,0,3.583,3.583,0,0,0-1.56,3.186h6.05Zm-27.38-3.048v10.272a9.439,9.439,0,0,1-1.84-.042,1.121,1.121,0,0,1-.43-0.863c-0.03-2.83-.05-5.661,0-8.49,0.02-.873-0.25-1.142-1.09-1.106a1.477,1.477,0,0,1-1.18-.419c-0.27-.634.06-1.076,0.83-1.145,1.42-.128,1.42-0.156,1.42-1.591v-0.586c0.03-3.3,2.68-5.083,5.71-3.76a2.068,2.068,0,0,1,.43,1.295,1.719,1.719,0,0,1-.77.324,4.914,4.914,0,0,1-.87-0.037c-1.68-.014-2.2.5-2.2,2.191-0.01.611-.01,1.222-0.01,1.947h3.59c0.49,1.53.3,1.8-1.11,1.81-0.71,0-1.42.023-2.13,0.046A1.228,1.228,0,0,0,1515.63,870.192Zm42.65-1.888a3.316,3.316,0,0,1,.45-0.088c2.17,0.007,1.8-.272,2.5,1.711,0.87,2.474,1.73,4.952,2.6,7.426,0.09,0.267.22,0.522,0.43,1,0.68-1.942,1.28-3.67,1.89-5.4,0.36-1.038.74-2.071,1.1-3.111,0.62-1.82.62-1.821,2.75-1.542a8.872,8.872,0,0,1-.26,1.077c-1.34,3.407-2.74,6.789-4,10.222-0.38,1.016-1.05.808-1.76,0.883a1.159,1.159,0,0,1-1.35-.91c-1.3-3.382-2.66-6.745-3.99-10.119C1558.5,869.11,1558.42,868.738,1558.28,868.3Zm-5.04-.084h3.43c0.49,1.488.31,1.768-1.1,1.77h-2.33v4.09c0,1.107,0,2.213.01,3.32a1.255,1.255,0,0,0,1.33,1.36c0.73,0.033,1.46.007,2.23,0.007,0.39,1.3.28,1.547-1.05,1.771a8.139,8.139,0,0,1-2.21.083,2.654,2.654,0,0,1-2.58-2.859c-0.06-2.244-.06-4.491-0.02-6.736a0.858,0.858,0,0,0-1.05-1.061,1.5,1.5,0,0,1-1.18-.415c-0.26-.624.03-1.083,0.82-1.151,1.43-.122,1.44-0.153,1.6-1.549,0.04-.355.04-0.714,0.05-1.072a1,1,0,0,1,1.22-1.1c0.92,0.032.83,0.591,0.83,1.186C1553.23,866.608,1553.24,867.349,1553.24,868.22Zm-23.78,1.752a5.221,5.221,0,0,1,3.53-1.855c0.9-.037,1.17.274,1.14,1.166-0.02.842-.27,1.055-1.09,0.939a4.386,4.386,0,0,0-1.8.235c-1.6.478-1.76,0.734-1.76,2.391,0,2.244-.05,4.489.02,6.731,0.02,1.087-.65.873-1.27,0.9-0.65.03-1.1-.012-1.09-0.9,0.05-3.447.02-6.894,0.02-10.341,0-.516-0.1-1.083.74-1.046,0.67,0.03,1.42-.143,1.36.951A3.556,3.556,0,0,0,1529.46,869.972Zm-7.85,4.365c0-1.722.04-3.447-.02-5.167-0.03-.887.38-1.026,1.11-0.974,0.64,0.046,1.28-.134,1.27.931-0.05,3.477-.04,6.956,0,10.434,0.01,0.851-.41.974-1.08,0.918-0.6-.05-1.33.239-1.29-0.877,0.07-1.752.02-3.509,0.02-5.265h-0.01Zm38.07,17.612c0.09-.321.18-0.643,0.27-0.963,0.39-1.265.85-2.511,1.14-3.8,0.28-1.259-.06-1.695-1.33-1.791a25.983,25.983,0,0,0-2.99.05c-0.66.027-1.33,0.1-1.99,0.154-0.05-.091-0.09-0.183-0.14-0.274a8.077,8.077,0,0,1,1.08-.748,10.248,10.248,0,0,1,6.59-.716,1.075,1.075,0,0,1,.97,1.232,10.022,10.022,0,0,1-2.73,6.567,3.7,3.7,0,0,1-.68.432C1559.81,892.046,1559.74,892,1559.68,891.949Zm-35.49-27.394a1.272,1.272,0,0,1-1.52,1.324,1.286,1.286,0,0,1-1.37-1.4,1.308,1.308,0,0,1,1.5-1.37A1.253,1.253,0,0,1,1524.19,864.555Z" transform="translate(-1511 -862)"/>
</svg>
