<svg id="insta" xmlns="http://www.w3.org/2000/svg" width="34.78" height="35" viewBox="0 0 34.78 35">
  <defs>
    <style>
      .cls-1 {
        fill: #a7a7a7;
      }

      .cls-2 {
        fill: #fff;
        fill-rule: evenodd;
      }
    </style>
  </defs>
  <circle id="Ellipse_1297_copy_2" data-name="Ellipse 1297 copy 2" class="cls-1" cx="17.39" cy="17.5" r="17.39"/>
  <path class="cls-2" d="M1774.66,883.247c-1.35,0-2.69,0-4.04,0a4.073,4.073,0,0,1-4.17-4.206c0-2.71-.01-5.42,0-8.131a4.063,4.063,0,0,1,4.15-4.185c2.71,0,5.41,0,8.12,0a4.064,4.064,0,0,1,4.15,4.188q0.015,4.065,0,8.131a4.071,4.071,0,0,1-4.17,4.2C1777.35,883.25,1776.01,883.247,1774.66,883.247Zm6.56-8.268c0-1.322.01-2.645,0-3.967a2.413,2.413,0,0,0-2.61-2.629q-3.945,0-7.89,0a2.413,2.413,0,0,0-2.62,2.624c0,2.656-.01,5.312,0,7.968a2.413,2.413,0,0,0,2.6,2.613q3.96,0,7.92,0a2.411,2.411,0,0,0,2.6-2.608C1781.23,877.646,1781.22,876.313,1781.22,874.979Zm-6.56-4.124a4.131,4.131,0,1,1-4.11,4.138A4.086,4.086,0,0,1,1774.66,870.855Zm2.46,4.124a2.46,2.46,0,1,0-2.44,2.478A2.414,2.414,0,0,0,1777.12,874.979Zm1.66-4.953a0.829,0.829,0,1,1-.84.808A0.846,0.846,0,0,1,1778.78,870.026Z" transform="translate(-1756.78 -857)"/>
</svg>
