<svg xmlns="http://www.w3.org/2000/svg" xmlns:xlink="http://www.w3.org/1999/xlink" viewBox="0 0 5134.67 3053.83"><defs><style>.cls-1,.cls-2,.cls-3,.cls-4,.cls-5{fill-rule:evenodd;}.cls-1{fill:url(#GradientFill_8);}.cls-2,.cls-8{fill:#07529c;}.cls-3,.cls-7{fill:#eb2c2a;}.cls-4{fill:#a3150a;}.cls-5,.cls-6{fill:#fff;}</style><linearGradient id="GradientFill_8" x1="-112105.3" y1="-341.91" x2="98338.35" y2="-341.91" gradientUnits="userSpaceOnUse"><stop offset="0" stop-color="#e7c51e"/><stop offset="0.58" stop-color="#fbd800"/><stop offset="0.99" stop-color="#bb882c"/><stop offset="1" stop-color="#bb882c"/></linearGradient></defs><g id="Layer_2" data-name="Layer 2"><g id="Layer_1-2" data-name="Layer 1"><g id="ODIA"><path class="cls-1" d="M-4272.28-559.08C-5032.1-681.15-5587.08-247-6583.56-453.89c-107.85-22.4-205.5-49.94-293.92-81.14q-36-13.29-72.65-27.23c-619.3-246.51-740.22-668.7-738.43-661.35-.11-.34-.23-.69-.34-1-1.08-2.71-29.16-82.26-6.34-111.73-72.16,99.79-7.78,1068.72,1068.59,1406.8C-5699.4,361.66-5085,21.09-4341,37c382.42,8.2,1011.88,44.72,1079.9,615.54.18-4.07-.21-7.77-.06-11.82,0,3.93.06,7.87.06,11.82C-3230-38.35-3704.63-467.82-4272.28-559.08Z" transform="translate(7715.9 1389.14)"/><path class="cls-2" d="M-7695.91-1335.27s-.63.8-1.34,1.82c-11.1,17.91-7.83,48-3.09,70.28a248,248,0,0,0,8.21,28.07s.06.18.16.54c5.11,17,135.24,430.85,741.84,672.3q36.71,13.95,72.65,27.23c88.42,31.2,186.07,58.74,293.92,81.14,155.65,32.31,300.52,49,437.08,54.59,628.32,25.62,1080.79-183.08,1597.36-181.82a1761.44,1761.44,0,0,1,276.84,22c439.62,70.67,823.39,344.26,959.71,785,.25.82.51,1.63.76,2.45q3.24,10.56,6.28,21.26l1,3.58q3,10.51,5.74,21.13c.32,1.23.63,2.46.94,3.69q2.79,10.8,5.39,21.71c.2.85.39,1.7.59,2.55a1195.84,1195.84,0,0,1,22.18,124.13c.1.86.22,1.71.33,2.58.9,7.32,1.71,14.7,2.49,22.09.2,1.95.42,3.88.61,5.83q1.06,10.47,1.92,21c.2,2.35.4,4.7.58,7.06q.81,10.37,1.45,20.8c.16,2.48.3,5,.44,7.46q.58,10.49,1,21.06c.09,2.34.16,4.69.24,7,.26,7.31.48,14.63.62,22,0,1.66,0,3.34.06,5,.4,27.56.06,55.52-1.22,84,245.23-1370.79-820.13-1784.86-1390.75-1768.53-504.95,14.45-1368.32,260.67-1955.23,266-39.91-.13-77.79-1.51-113.25-4.33-118.07-9.39-224.57-26-319.87-48-446.92-114.59-639.06-374.5-654.06-426.35-1.22-4.22-1.21-6.84-1-7.57A4.57,4.57,0,0,1-7695.91-1335.27Z" transform="translate(7715.9 1389.14)"/><path class="cls-2" d="M-3261.13,650.21c-.14.82.15,1.51,0,2.33.14-.77-.15-1.41,0-2.17Z" transform="translate(7715.9 1389.14)"/><path class="cls-2" d="M-3261.12,651.84c0,.26,0,.44,0,.69,0-.06,0,0,0-.12Z" transform="translate(7715.9 1389.14)"/><path class="cls-3" d="M-3312.95,173.92l0,.07.12.4c0-.14-.07-.24-.12-.39A.73.73,0,0,1-3312.95,173.92Z" transform="translate(7715.9 1389.14)"/><path class="cls-3" d="M-3312.81,174.39a1.72,1.72,0,0,1,.07.21c.1.33.21.66.31,1h0l-.75-2.39c.13.4.25.81.38,1.21Z" transform="translate(7715.9 1389.14)"/><path class="cls-3" d="M-3292.94,247.53l.07.3-.06-.3,0-.06c0,.12,0,.24.08.36l-.12-.53c0-.15-.08-.35-.08-.35a1.32,1.32,0,0,0,.05.18l-.05-.18h0c0,.11.05.22.07.34A2.33,2.33,0,0,1-3292.94,247.53Z" transform="translate(7715.9 1389.14)"/><path class="cls-3" d="M-7696.52-1388.08c.05-.05.12-.15.24-.29a1.11,1.11,0,0,0,.17-.32,3.37,3.37,0,0,0,.25-.45c-.29.4-.57.87-.85,1.29l.17-.2Z" transform="translate(7715.9 1389.14)"/><path class="cls-3" d="M-3270,376.2h0v0a.25.25,0,0,0,0-.08.34.34,0,0,1,0,.1Z" transform="translate(7715.9 1389.14)"/><path class="cls-3" d="M-4341.65-15.78C-5085.58-31.69-5700,308.88-6627.28,17.66c-814.26-255.75-1052.82-872.6-1087.8-1201l3.45,557.42V1099.45s3.7,76.91,5.55,77.52c38,270.19,271.54,480,551.75,480.26l1411.83,1.2h0l2478,2.12V583.18C-3342.86,28.57-3963-7.67-4341.65-15.78Z" transform="translate(7715.9 1389.14)"/><path class="cls-4" d="M-4201.85,738.88c-54,.42-97.08-40.38-97.6-92.34-1.15-55.73,47.21-103.28,104.36-103.28,53.65.18,92.87,42.85,93.31,101.79.36,54.78-40.54,93.41-100.07,93.83m-856.65,365.37a296.72,296.72,0,0,1,10.52-52.92c2.17-8.93,7.69-17.72,13.56-24.66,18.44-21.1,47.7-17.89,62.24,6.94,16.83,28.62,18.73,60.91,21.59,93,.58,6.62,0,13.29,0,19.76.77.06,1.48.06,2.77.22-4.07,25.26-6.78,51.08-12.18,75.86-4.05,18.66-13.4,35.34-35.76,37.33-22.71,2.19-38.9-8.2-49.16-32.31-16.79-39.28-17.78-81.28-13.58-123.21m225.91-43.93a75.26,75.26,0,0,1,14.06-31.19c17.23-23.91,48.52-21.58,61.29,4.48a155.69,155.69,0,0,1,13.68,47.34c5.85,45.5,6.4,91.29-1.21,136.75-5.49,30.52-20.24,43.46-45.3,42.22-17.21-.93-29.36-10.65-33.85-25.85-17.84-64.48-20.38-107.36-8.67-173.75m804-569.13c-78.09-82.45-203.25-95.34-299-32.75-2.46,1.42-4.88,2.52-10.19,5.5V378.75c7.86-18.74-84.09-56-151,56.63V487c-3.32.58-3.95.74-4.22.58a55.69,55.69,0,0,1-4.83-3.68c-106-93.53-230.48-131.37-369.48-113.92-126.38,15.48-233.52,71.78-315.05,170.81-73.14,88.18-99.44,191.6-82.25,304.37,10.51,68.66,42.21,128.79,84.66,183.19,4.69,6.11,8,10.74,5.06,20.09-35.08,107.85-14.48,204.94,61.19,288.85,29.24,32.39,66.05,51.71,111.38,49.07a196.39,196.39,0,0,0,100-35.6c6.71-4.77,11.2-5.23,17.76.47,41.87,34,89.88,41.86,141.14,30,60.57-13.84,95-55.85,115.87-111,23.5-61.09,27.42-124.85,20.32-189-4.4-45.32-16.16-88.17-40.42-126.91-54.64-85.6-165.77-98.33-238.76-27.94-3.36,3.2-7.1,6.46-10.34,9.69-62-64-90.88-69.54-189.92-36.4-4.32-7.49-9.17-14.13-12.4-21.73-20-43.32-24.53-88.31-13.76-134.47,17.92-76.12,63.37-132.84,125.88-177.15,102.39-72.54,239.19-77.05,340.14-11.28,57.69,37.4,96.88,90.32,127.22,150.8,21.8,42.47,31.93,86.32,31.31,134.9-1.73,173.2-.77,285-.77,458.39,0,32.5,101,80,152.13,80V814.71c3.43,1.45,4.88,1.69,6.28,2.37,56.37,40.72,119.66,48.16,185.81,36,81.39-14.88,138.9-61.57,164.85-140.68,27.13-82.18,11.69-157.87-48.49-221.22" transform="translate(7715.9 1389.14)"/><path class="cls-4" d="M-6034.63,1030.66c36.44-20.68,73.62-20.18,108.13,4.18,37.45,26.2,52.64,64.44,47.25,109.15-5.25,45.62-27.63,81.39-72.7,97.11-61.54,22-130.36-24.77-138.52-92.6-.23-4.84-.48-9.94-1.5-18.59.53-41,17.79-77.07,57.34-99.25m571.92,151.67c-5.43-8-5.45-13.59-.63-21.85,8.37-14.12,16.12-28.93,23.25-43.91,46.11-93.66,67.31-191.64,51.85-295.91-18.23-124.7-70.9-232.87-165.7-316-161.46-140.83-345.89-179.3-547.19-100.85-172.55,67.13-292.29,241.74-269.81,435.32,9.82,82.65,49.3,147.11,121.47,190,10.73,6.29,13.48,11.67,10.43,23.41-10.43,44.07-15.11,88.37-3.59,133.07,32.61,125.93,155.53,210.83,287.62,201.31,141.66-10.33,268.58-136.32,240.21-303.42-24.25-143.27-153.69-225.9-288.88-212.94-45,4.32-86.21,19.38-126.31,39.37-4.34,2.15-12.22,3.26-15.87.75-56-37.18-87.17-85.23-73.45-155.77,23.88-126.47,139.74-232.25,267.63-240.32,139.22-9.19,255.06,39.95,338.92,152.33,65.06,87.31,91.66,185.89,62.3,293.85-19.69,72.51-55.66,138.23-94,202-4.2,7.19-6.59,12-.78,20,44.62,62.85,44.87,105.33,106.08,152.52,93.86,72.48,167.77,44.81,205,44.81-3.49-5.72-5.51-9.61-7.78-13.2-40.14-61.56-80.44-123.28-120.75-184.6" transform="translate(7715.9 1389.14)"/><path class="cls-4" d="M-6613.55,482.29c-138.66-106-296.39-136.73-466.06-105.13-102.24,19.15-189.15,68.81-255.18,150.62-68.49,84.16-94.64,181.82-87.26,289.29,4.46,64.16,29.23,119.84,82.15,158.16,16.66,12.07,18.92,23,13.61,39.95l-.71,1.23c-15.2,66.51-9.52,130.62,23.46,190.68,107.12,194.38,340.23,240.63,517.28,107.43,132.26-99.12,150.29-277.83,42-399.51-45.65-51.12-102.24-76.8-172.35-57.72-66.67,18.37-104.27,84.87-84,146.49,18.18,56.3,85,95.5,143,84.09,8-1.6,16.33-2.87,25.75-4.54,9.64,39.09.88,72.4-25.35,100.5-70.73,74.92-202.41,73.12-277.36-4.78-47.69-49.14-57.22-95.07-28.95-156.69,21.24-46.13,39.48-55.07,70.36-92.72,35.24-43,5-136.41-31.93-167-34.12,31.72-66.81,62-99.52,92.36-14.63,13.46-18,13.59-29.63-1.52-6.24-8.32-12.2-18.33-13.64-28.25-2.41-19.2-5.28-39.22-2.16-58.55,18-115.46,84.73-193.11,191.2-237.59,57.42-24.07,116.77-22.44,177.23-15.64C-6758,530-6660.4,614.26-6625.1,754A503.57,503.57,0,0,1-6610.43,889c-.6,24.64,28.66,102.71,93.67,123.57,14.57,4.63,28.89,10.67,43.61,15.79,2.32-9,4.43-16.3,5.82-23.55,15.81-71.4,32-142.46,23.39-216.77-14.13-125.79-69.41-229.21-169.61-305.72" transform="translate(7715.9 1389.14)"/><path class="cls-5" d="M-4239.66,695.85c-54,.65-97.12-40.27-97.71-92.22-1-55.67,47.29-103.24,104.54-103.24,53.6.08,92.69,42.87,93.2,101.76.35,54.86-40.5,93.42-100,93.7m-856.69,365.6a298.56,298.56,0,0,1,10.59-53c2.13-8.93,7.66-17.72,13.51-24.74,18.47-21,47.71-17.87,62.27,7,22.62,37,24,135.21,12.17,188.79-4,18.63-13.36,35.43-35.74,37.41-22.66,2.08-39-8.31-49.23-32.42-16.74-39.3-17.74-81.26-13.57-123.1m226.09-44a75.4,75.4,0,0,1,13.9-31.17c17.24-23.81,48.61-21.54,61.27,4.53a157.71,157.71,0,0,1,13.71,47.35c5.88,45.51,6.34,91.3-1.24,136.63-5.38,30.62-20.25,43.56-45.3,42.28-17.22-.84-29.29-10.7-33.95-25.85-17.4-63.77-20.1-108-8.39-173.77m803.8-569.16c-78-82.31-203.23-95.27-299-32.66-2.45,1.37-4.92,2.48-10.18,5.5V335.86c-51.05,0-138.32,1.16-151.13,73.63V444.1c-3.25.61-3.91.71-4,.61a42.93,42.93,0,0,1-4.91-3.65c-106.07-93.6-230.46-131.4-369.63-114.13-126.33,15.68-233.44,72-315,170.93-73.13,88.25-99.44,191.6-82.22,304.41,10.48,68.59,42.2,128.93,84.51,183.21,4.78,6.07,8.14,10.85,5.16,20-35.05,107.93-14.46,205.07,61.31,288.94,29.13,32.27,65.92,51.63,111.38,48.92a193.22,193.22,0,0,0,99.79-35.59c6.74-4.75,11.29-5.07,18,.62,41.8,34,89.79,41.85,141,30.08,60.58-14,94.94-55.86,115.87-111,23.48-61.09,27.37-124.84,20.44-189.13-4.5-45.21-16.23-88-40.51-126.93-54.67-85.6-165.84-98.26-238.76-27.87-3.27,3.28-7,6.51-10.38,9.83-62-64.05-90.93-69.62-189.89-36.52-4.3-7.45-9.11-14.08-12.43-21.65-19.88-43.36-24.6-88.37-13.76-134.58,18-76.15,63.41-132.64,125.89-177.09,102.51-72.52,239.16-77.06,340.18-11.28,57.67,37.35,96.76,90.4,127.07,150.77,22,42.49,32.14,86.36,31.58,135-1.85,173.16-1,285-1,458.19,0,32.68,101.15,80.13,152.18,80.13V771.87c3.4,1.37,4.9,1.64,6.13,2.4,56.46,40.57,119.78,48.08,186,36,81.34-15,138.89-61.74,164.75-140.8,27.2-82.24,11.7-157.81-48.45-221.23" transform="translate(7715.9 1389.14)"/><path class="cls-5" d="M-6072.52,987.7c36.46-20.6,73.68-20.14,108.2,4.29,37.5,26.27,52.69,64.43,47.31,109.18-5.2,45.63-27.72,81.25-72.8,97.17-61.54,21.94-130.28-24.9-138.49-92.65-.21-5-.44-9.94-1.51-18.63.51-41,17.89-77.08,57.29-99.36m572,151.64c-5.4-7.84-5.54-13.57-.73-21.71,8.4-14.16,16.2-29,23.34-43.92,46.15-93.62,67.39-191.69,51.86-295.9-18.29-124.7-70.94-232.89-165.76-316.06C-5753.26,321-5937.62,282.49-6138.92,360.91c-172.59,67.14-292.4,241.8-269.88,435.34,9.83,82.62,49.42,147.12,121.49,190,10.75,6.29,13.57,11.72,10.49,23.47-10.49,44.06-15.12,88.36-3.72,133,32.7,125.92,155.57,210.9,287.8,201.46,141.52-10.46,268.48-136.5,240.22-303.51-24.34-143.29-153.85-225.93-289.11-212.93-44.87,4.32-86.13,19.4-126.2,39.26-4.29,2.27-12.26,3.32-15.89.85-55.86-37.18-87.11-85.28-73.54-155.87,24-126.35,139.88-232.15,267.71-240.19,139.31-9.2,255.22,39.91,339,152.25,65.1,87.33,91.5,185.84,62.24,293.91-19.75,72.47-55.7,138.23-94.07,202.08-4.22,7.07-6.48,12-.82,19.81,44.76,63,45,105.5,106.06,152.66,94,72.42,167.79,44.71,205.13,44.71-3.47-5.64-5.61-9.45-7.78-13.08-40.11-61.47-80.49-123.34-120.75-184.76" transform="translate(7715.9 1389.14)"/><path class="cls-5" d="M-6651.32,439.44c-138.77-106.11-296.38-136.81-466.11-105.07-102.13,19.09-189,68.83-255.17,150.56-68.5,84.07-94.72,181.83-87.32,289.34,4.48,64.16,29.31,119.79,82.16,158.11,16.64,12.18,19,23,13.63,40-.33.35-.33.63-.71,1.2-15.16,66.54-9.57,130.57,23.43,190.68,107.19,194.41,340.25,240.61,517.18,107.51,132.41-99.31,150.41-277.89,42.17-399.61-45.65-51.06-102.31-76.84-172.38-57.76-66.65,18.37-104.19,85-84,146.54,18.1,56.14,85,95.51,143.09,84.1,8-1.69,16.33-2.9,25.59-4.68,9.67,39.26,1,72.58-25.29,100.47-70.69,75.06-202.49,73.34-277.25-4.66-47.68-49.1-57.25-95-29-156.6,21.24-46.24,39.5-55.11,70.34-92.74,35.24-43,5-136.42-31.89-167-34,31.74-66.91,62-99.55,92.29-14.52,13.46-18,13.7-29.59-1.44-6.24-8.36-12.3-18.39-13.8-28.29-2.36-19.16-5.3-39.26-2-58.45,18-115.58,84.7-193.21,191.17-237.64,57.39-24.1,116.66-22.59,177.28-15.68,143.4,16.44,241.14,100.8,276.47,240.67a499.42,499.42,0,0,1,14.55,134.87c-.55,24.54,28.67,102.72,93.69,123.51,14.6,4.65,28.84,10.75,43.73,15.86,2.19-9,4.33-16.34,5.76-23.65,15.83-71.23,32-142.39,23.44-216.67-14.31-125.78-69.42-229.22-169.63-305.72" transform="translate(7715.9 1389.14)"/></g><rect class="cls-6" x="4340.37" y="2239.14" width="316.94" height="316.94" rx="4.97"/><path class="cls-6" d="M-3047.68,840.27c-21.38,0-38.88-17.7-38.88-39.33V392.47c0-21.63-17.49-39.33-38.88-39.33h-243c-21.38,0-38.88,17.7-38.88,39.33V783.41c0,21.63-17.5,39.33-38.88,39.33h-420.5c-21.38,0-38.88,17.69-38.88,39.32v281.51c0,21.63,17.5,39.33,38.88,39.33h420.5c21.38,0,38.88,17.69,38.88,39.32V1625.3c0,21.63,17.5,39.33,38.88,39.33h243c21.39,0,38.88-17.7,38.88-39.33V1216.38c0-21.63,17.5-39.33,38.88-39.33h370.61c21.38,0,38.88-17.69,38.88-39.32V879.59c0-21.63-17.5-39.32-38.88-39.32Z" transform="translate(7715.9 1389.14)"/><path class="cls-7" d="M-2990.71,822.21c-21.38,0-38.88-17.71-38.88-39.36V391.61c0-21.64-17.5-39.35-38.88-39.35h-243c-21.39,0-38.88,17.71-38.88,39.35V841.28c0,21.65-17.5,39.35-38.88,39.35h-420.5c-21.38,0-38.88,17.71-38.88,39.36v170.68c0,21.64,17.5,39.35,38.88,39.35h420.5c21.38,0,38.88,17.71,38.88,39.35v456c0,21.65,17.49,39.36,38.88,39.36h243c21.38,0,38.88-17.71,38.88-39.36V1227.8c0-21.64,17.5-39.35,38.88-39.35h370.6c21.39,0,38.88-17.71,38.88-39.36V861.56c0-21.65-17.49-39.35-38.88-39.35Z" transform="translate(7715.9 1389.14)"/><polygon class="cls-8" points="4633.19 2248.55 4633.19 1761.08 4364.27 1761.08 4364.27 2248.55 3866.02 2248.55 3866.02 2533.11 4364.27 2533.11 4364.27 3021.03 4633.19 3021.03 4633.19 2533.11 5081.56 2533.11 5081.56 2248.55 4633.19 2248.55"/><rect class="cls-6" x="4337.41" y="2232.58" width="316.94" height="316.94" rx="4.97"/></g></g></svg>