<svg xmlns="http://www.w3.org/2000/svg" viewBox="0 0 117.57 24.26"><defs><style>.cls-1{fill:#00d9fe;}.cls-2{fill:#00c8fe;}.cls-3{fill:#44f29a;}.cls-4{fill:#fed000;}.cls-5{fill:#bc2846;}.cls-6{fill:#fec000;}.cls-7{fill:#f2324a;}.cls-8{fill:#e52950;}.cls-9{fill:#01ef75;}.cls-10{fill:#fc3945;}.cls-11{fill:#0bde74;}.cls-12{fill:#fec700;}.cls-13{fill:#5e5e5e;}</style></defs><g id="Layer_2" data-name="Layer 2"><g id="Google_playstore" data-name="Google playstore"><g id="Layer_1-2" data-name="Layer 1-2"><path class="cls-1" d="M.45,23.88A1.67,1.67,0,0,1,0,23V6c.11,0,.14.18.22.27,1.66,1.64,3.29,3.31,5,5,.42.4.82.83,1.24,1.25.85.84,1.68,1.71,2.5,2.5,0,0,.09.15.19.17l-.09.09L5.64,18.72l-.14.13-.07.08L.59,23.71l-.08.09Z"/><path class="cls-2" d="M9.16,15.16C9.06,15.16,9,15,9,15c-.87-.81-1.7-1.69-2.49-2.5-.43-.41-.83-.84-1.25-1.25C3.51,9.61,1.88,7.94.22,6.3.14,6.24.11,6.09,0,6V1.5a.54.54,0,0,0,0-.18A1.72,1.72,0,0,1,.44.39H.51L.62.55l2.1,2.11c.2.2.4.4.61.58a.58.58,0,0,0,.13.14L12.05,12a.29.29,0,0,1,.13.14l-1.25,1.25L9.78,14.55Z"/><path class="cls-3" d="M.51.44.44.39.52.29A1.76,1.76,0,0,1,1.12,0h.49A14.11,14.11,0,0,1,4.28,1.39l6.5,3.74,5.33,3h0v.09H16l-1.79-1L12,6,10,4.78,7.49,3.39,5.7,2.33c-.32-.17-.63-.37-1-.52V1.75L3.49,1A13.39,13.39,0,0,0,2.08.31,1.45,1.45,0,0,0,.51.44Z"/><path class="cls-4" d="M16.1,8.24V8.15L18.24,9.4l2.5,1.44a2,2,0,0,1,.85.9,1,1,0,0,1,.06.59,1.71,1.71,0,0,1-.67.87c-.45.33-1,.55-1.44.84s-.92.52-1.38.78l-.93.52a.34.34,0,0,1,0-.2V9.26a.44.44,0,0,0-.18-.53A7.73,7.73,0,0,1,16.1,8.24Z"/><path class="cls-5" d="M.45,23.88v-.06a1.33,1.33,0,0,0,1,.29,2.28,2.28,0,0,0,.84-.26l1.79-1,2.25-1.25c.36-.2.74-.4,1.08-.63l.78-.42,1.61-.92,2-1.15c.34-.19.67-.36,1-.58l.17-.07,1.11-.64,2-1.12h0v.09l-2.28,1.32L2.5,23.9a2.42,2.42,0,0,1-1.25.36A1.26,1.26,0,0,1,.45,23.88Z"/><path class="cls-6" d="M16.22,16.11V16l.16-.1c.35-.21.73-.38,1.08-.62l.92-.51c.46-.27.94-.51,1.39-.79s1-.51,1.43-.84a1.62,1.62,0,0,0,.67-.87,1.1,1.1,0,0,1-.28.64,2.17,2.17,0,0,1-.68.56Z"/><path class="cls-7" d="M12.83,17.86c-.31.21-.65.38-1,.57l-2,1.15-1.61.92-.72.43v-.07L6.06,19.52l-.46-.47a.33.33,0,0,1-.1-.23l.14-.1,3.43-3.43.09-.09.57-.56a.24.24,0,0,0,.09.22l2.81,2.85Z"/><path class="cls-8" d="M5.5,18.82a.33.33,0,0,0,.1.23l.46.47,1.33,1.34v.07c-.35.22-.73.42-1.09.62L4.06,22.8l-1.8,1a1.92,1.92,0,0,1-.84.26,1.34,1.34,0,0,1-1-.29l.13-.07,4.84-4.84Z"/><path class="cls-9" d="M4.74,1.81c.33.15.64.35,1,.52L7.55,3.39,10,4.78l2,1.13,2.2,1.25,1.79,1h.09L16,8.3,15,9.25,14.3,10l-2.11,2.15h0a.33.33,0,0,0-.12-.14L3.46,3.38a.58.58,0,0,1-.13-.14c.23-.26.49-.49.74-.74S4.53,2.05,4.74,1.81Z"/><path class="cls-10" d="M12.18,12.13h0L15,14.89l.19.18.13.14.79.81-1.95,1.13L13,17.78l-.17.08-.2-.19L9.82,14.82a.24.24,0,0,1-.09-.22l1.15-1.17Z"/><path class="cls-11" d="M4.74,1.81c-.21.24-.46.45-.67.69s-.51.48-.74.74c-.21-.18-.41-.38-.61-.58L.62.55.51.44A1.45,1.45,0,0,1,2.08.31,13.18,13.18,0,0,1,3.41,1l1.24.71Z"/><path class="cls-12" d="M16.07,16l-.8-.81-.12-.14V9.47c0-.07,0-.16-.09-.17l.94-1,.1-.11h0a9.67,9.67,0,0,0,.95.53.44.44,0,0,1,.27.45V15.1a.34.34,0,0,0,0,.2c-.35.24-.72.41-1.07.62l-.17.1Z"/><path class="cls-6" d="M15,9.3c.11,0,.08.1.08.17v5.6L15,14.89l-2.78-2.76L14.3,10Z"/></g><path class="cls-13" d="M38.68,11.08h3.06c.07,0,.14,0,.15.11a6.56,6.56,0,0,1-1.25,5.19,6.06,6.06,0,0,1-3.83,2.18,7,7,0,0,1-4.57-.72,6.81,6.81,0,0,1-3.74-5.16,6.63,6.63,0,0,1,2.06-5.93A6.9,6.9,0,0,1,34.68,4.8a6.62,6.62,0,0,1,5.46,1.79c.08,0,.09.1,0,.17L39,7.92c-.07.08-.1.08-.17,0a4.79,4.79,0,0,0-3.62-1.24,5,5,0,0,0-4.57,3.91A5,5,0,0,0,32,15.4a5.14,5.14,0,0,0,6.24.53,3.8,3.8,0,0,0,1.66-2.67c0-.28,0-.28-.25-.28H35.61c-.11,0-.16,0-.16-.15v-1.6c0-.14,0-.15.16-.15Z"/><path class="cls-13" d="M70.79,14.31v3.93a5.48,5.48,0,0,1-.44,2.15,3.62,3.62,0,0,1-2.49,2.11,4.43,4.43,0,0,1-3.6-.49,4.33,4.33,0,0,1-1.62-1.87c0-.09,0-.12.06-.16l1.49-.63c.09,0,.12,0,.16.07a2.43,2.43,0,0,0,1.35,1.32,2.35,2.35,0,0,0,2.49-.43,2.22,2.22,0,0,0,.7-1.43V17.64s0,0-.06,0a3.26,3.26,0,0,1-3.84.65,4.29,4.29,0,0,1-2.74-3.59,4.48,4.48,0,0,1,3.4-4.93,3.31,3.31,0,0,1,2.91.6l.23.22s0,.09.12.07,0-.09,0-.13v-.44c0-.08,0-.11.11-.11h1.63c.14,0,.11.08.11.15v4.18Zm-3.91-2.84a2.51,2.51,0,0,0-1.63.48,2.89,2.89,0,0,0-.4,4.06l0,0a2.32,2.32,0,0,0,3.89-.51,3,3,0,0,0-.06-2.83A2.16,2.16,0,0,0,66.88,11.47Z"/><path class="cls-13" d="M87.61,11.79V5.42c0-.14,0-.19.18-.19h4.46A4.38,4.38,0,0,1,95.6,6.64a4,4,0,0,1-.27,5.62,3.78,3.78,0,0,1-.73.53,4.72,4.72,0,0,1-2.26.61H89.73c-.12,0-.15,0-.15.15v4.67c0,.12,0,.16-.16.16H87.79c-.14,0-.18,0-.18-.17Zm2-2.49v2.13c0,.1,0,.14.14.14H92.4a2.17,2.17,0,0,0,.51,0,2.27,2.27,0,0,0-.57-4.51H89.72c-.11,0-.14,0-.14.14Z"/><path class="cls-13" d="M106.59,13.26a1.47,1.47,0,0,0-.35-1.08,2.17,2.17,0,0,0-1.36-.7,2.53,2.53,0,0,0-1.25.12,1.76,1.76,0,0,0-.85.72c0,.08-.07.1-.16.06l-1.55-.64c-.1,0-.11-.07,0-.16A3.11,3.11,0,0,1,103,10a4.6,4.6,0,0,1,3.93.34,3.21,3.21,0,0,1,1.57,2.5,4.33,4.33,0,0,1,0,.72v4.72c0,.16,0,.18-.19.18h-1.52c-.12,0-.15,0-.15-.15v-.86s-.06,0-.09.06a2.54,2.54,0,0,1-1.54,1.1,3.48,3.48,0,0,1-3.44-.92,2.65,2.65,0,0,1,.06-3.74,2,2,0,0,1,.27-.23,4.24,4.24,0,0,1,2-.8,4.37,4.37,0,0,1,2.71.43Zm-2.32,3.62A2.39,2.39,0,0,0,106.58,15c0-.08,0-.15-.09-.2a3.7,3.7,0,0,0-2.41-.3,1.92,1.92,0,0,0-1.11.59,1,1,0,0,0,.1,1.46l.15.11A1.92,1.92,0,0,0,104.27,16.88Z"/><path class="cls-13" d="M47.12,9.71a4.48,4.48,0,1,1-4.49,4.47A4.43,4.43,0,0,1,47,9.71Zm2.49,4.48a2.64,2.64,0,0,0-.21-1.11,2.49,2.49,0,0,0-4.18-.76,2.92,2.92,0,0,0,0,3.66,2.5,2.5,0,0,0,3.31.47,2.72,2.72,0,0,0,1.11-2.26Z"/><path class="cls-13" d="M61.39,14.19a4.49,4.49,0,1,1-4.5-4.48h0a4.42,4.42,0,0,1,4.49,4.36Zm-7-.25a3.1,3.1,0,0,0,.39,1.71,2.5,2.5,0,0,0,3.42.86,2.85,2.85,0,0,0,.6-.5,2.79,2.79,0,0,0,.44-2.88A2.48,2.48,0,0,0,56,11.7a2.53,2.53,0,0,0-.37.18A2.48,2.48,0,0,0,54.38,13.94Z"/><path class="cls-13" d="M79.5,16.88a2.5,2.5,0,0,0,2.11-1.09c.07-.1.12-.13.24,0,.41.29.84.57,1.24.86.1,0,.1.1,0,.18a4.34,4.34,0,0,1-3.23,1.8,4.26,4.26,0,0,1-3.64-1.38,4.34,4.34,0,0,1-1.15-2.68,4.59,4.59,0,0,1,.8-3.09,4,4,0,0,1,3-1.75,3.87,3.87,0,0,1,3.82,2A7.06,7.06,0,0,1,83.28,13c0,.11,0,.11-.1.13l-2.69,1.13-3,1.25c-.1,0-.13.08,0,.18A2.23,2.23,0,0,0,79.5,16.88ZM77,14l.18-.06,3.6-1.5c.25-.1.27-.11.1-.34a1.73,1.73,0,0,0-1.59-.7A2.49,2.49,0,0,0,77,14Z"/><path class="cls-13" d="M117.57,10l-.42,1-4.91,11.23c0,.1-.08.15-.21.15h-1.9l.18-.4L112.07,18a.3.3,0,0,0,0-.26l-3.37-7.68c-.08-.11-.08-.11.1-.11h1.78a.22.22,0,0,1,.22.15q1.11,2.73,2.23,5.44s0,.13.07.12,0-.08.09-.12l2.15-5.46a.17.17,0,0,1,.21-.13h2Z"/><path class="cls-13" d="M97.72,11.82V5.4c0-.15,0-.17.17-.17h1.66c.1,0,.14,0,.14.14V18.26c0,.11,0,.13-.14.12H97.86c-.13,0-.15,0-.15-.15C97.72,16.1,97.72,14,97.72,11.82Z"/><path class="cls-13" d="M74.12,11.79v6.42c0,.13,0,.17-.17.17H72.37c-.15,0-.17,0-.17-.19V5.42c0-.19,0-.19.19-.19H74c.12,0,.16,0,.16.15C74.11,7.49,74.12,9.66,74.12,11.79Z"/></g></g></svg>