<svg id="twitter" xmlns="http://www.w3.org/2000/svg" width="34.78" height="35" viewBox="0 0 34.78 35">
  <defs>
    <style>
      .cls-1 {
        fill: #a7a7a7;
      }

      .cls-2 {
        fill: #fff;
        fill-rule: evenodd;
      }
    </style>
  </defs>
  <circle id="Ellipse_1297_copy" data-name="Ellipse 1297 copy" class="cls-1" cx="17.39" cy="17.5" r="17.39"/>
  <path class="cls-2" d="M1720.06,879.879a6.559,6.559,0,0,0,4.58-1.313,3.33,3.33,0,0,1-2.95-2.231h1.3a0.2,0.2,0,0,0,.02-0.072,3.4,3.4,0,0,1-1.74-1.137,3.155,3.155,0,0,1-.69-1.953c0.44,0.121.86,0.235,1.28,0.349,0.01-.03.03-0.06,0.04-0.089a3.243,3.243,0,0,1-1.28-2.313,3.074,3.074,0,0,1,.42-1.855,9.133,9.133,0,0,0,6.57,3.31,3.612,3.612,0,0,1,.13-1.8,3.193,3.193,0,0,1,5.12-1.309,0.469,0.469,0,0,0,.54.124c0.54-.2,1.09-0.393,1.63-0.584a3.175,3.175,0,0,1-1.14,1.62c0.26-.056.53-0.1,0.79-0.17s0.52-.166.77-0.25c0.02,0.027.05,0.055,0.07,0.082-0.42.427-.83,0.869-1.28,1.274a0.705,0.705,0,0,0-.29.6,9.077,9.077,0,0,1-13.67,7.891q-0.06-.037-0.12-0.081A0.649,0.649,0,0,1,1720.06,879.879Z" transform="translate(-1710.41 -857)"/>
</svg>
