<svg id="youtube" xmlns="http://www.w3.org/2000/svg" width="34.78" height="35" viewBox="0 0 34.78 35">
  <defs>
    <style>
      .cls-1 {
        fill: #a7a7a7;
      }

      .cls-2 {
        fill: #fff;
        fill-rule: evenodd;
      }
    </style>
  </defs>
  <circle id="Ellipse_1297_copy_3" data-name="Ellipse 1297 copy 3" class="cls-1" cx="17.39" cy="17.5" r="17.39"/>
  <path class="cls-2" d="M1820.13,880.333c-1.87-.09-3.74-0.175-5.61-0.275a3.809,3.809,0,0,1-.92-0.16,2.174,2.174,0,0,1-1.5-1.954,24.865,24.865,0,0,1-.19-4.723,22.369,22.369,0,0,1,.24-2.455,2.053,2.053,0,0,1,2.02-1.883c1.21-.112,2.43-0.208,3.64-0.215,2.22-.013,4.44.035,6.66,0.08a12.416,12.416,0,0,1,1.68.168,2.062,2.062,0,0,1,1.88,1.866,20.008,20.008,0,0,1,.25,4.372,29.359,29.359,0,0,1-.26,2.964,2.013,2.013,0,0,1-1.97,1.891c-1.19.115-2.38,0.175-3.57,0.225-0.78.033-1.57,0.006-2.35,0.006v0.093Zm2.59-5.881c-1.43-.838-2.84-1.656-4.26-2.483v4.966C1819.89,876.1,1821.29,875.288,1822.72,874.452Z" transform="translate(-1802.22 -857)"/>
</svg>
