<svg xmlns="http://www.w3.org/2000/svg" width="12.031" height="10" viewBox="0 0 12.031 10">
  <defs>
    <style>
      .cls-1 {
        fill: #a9a9a9;
        fill-rule: evenodd;
      }
    </style>
  </defs>
  <path id="Article_page_author_Location" data-name="Article page author Location" class="cls-1" d="M98.74,643.513l-0.076.083c-0.479.5-.96,1-1.435,1.5a0.41,0.41,0,0,0-.1.217q-0.074.6-.128,1.2c-0.014.153,0,.309,0,0.482H96.913c-1.667,0-3.334,0-5,0A0.922,0.922,0,0,1,91,646.054c0.01-.278,0-0.557,0-0.835a2.565,2.565,0,0,1,2.073-2.538,6,6,0,0,1,.711-0.044,0.286,0.286,0,0,1,.115.032,3.21,3.21,0,0,0,1.268.279,2.668,2.668,0,0,0,1.116-.2,1.477,1.477,0,0,1,.706-0.105,2.454,2.454,0,0,1,1.716.834C98.718,643.484,98.727,643.5,98.74,643.513ZM95.2,637a2.493,2.493,0,1,1-2.4,2.487A2.443,2.443,0,0,1,95.2,637Zm6.439,7.191c-0.363.38-.733,0.767-1.1,1.152-0.453.473-.908,0.943-1.359,1.418a0.36,0.36,0,0,1-.236.121c-0.316.037-.632,0.076-0.947,0.114a0.3,0.3,0,0,1-.37-0.36c0.028-.372.072-0.743,0.113-1.113a0.188,0.188,0,0,1,.052-0.1q1.25-1.3,2.5-2.606a0.076,0.076,0,0,1,.018-0.014Zm0.465-.492-1.338-1.41a1.472,1.472,0,0,0,.14-0.114c0.2-.209.405-0.421,0.608-0.63a0.434,0.434,0,0,1,.679,0c0.217,0.223.426,0.453,0.647,0.67a0.506,0.506,0,0,1,0,.736C102.587,643.187,102.351,643.444,102.1,643.7Z" transform="translate(-91 -637)"/>
</svg>
