<svg id="Layer_1" data-name="Layer 1" xmlns="http://www.w3.org/2000/svg" viewBox="0 0 109.67 117.59"><defs><style>.cls-1{fill:#f1a81e;}.cls-2{fill:#f15729;}.cls-2,.cls-4{fill-rule:evenodd;}.cls-3{fill:#efa91f;}.cls-4{fill:#9e9e9e;}</style></defs><title>SVG-only logo</title><g id="Rectangle_5_copy" data-name="Rectangle 5 copy"><path class="cls-1" d="M110.82,118.47H1.15V.88H110.82Zm-102.67-7h95.67V7.88H8.15Z" transform="translate(-1.15 -0.88)"/></g><g id="Shape_1" data-name="Shape 1"><path class="cls-2" d="M82.75,66.33a20.5,20.5,0,0,1,8.24,7c-3,2.32-6,4.57-8.84,6.78-1.07-1-2-1.93-3-2.74a10,10,0,0,0-13.35,1,11.44,11.44,0,0,0-2.77,10c.59,4,2.52,7.1,6.48,8.47A10,10,0,0,0,80.1,94.63c.79-.71,1.53-1.48,2.35-2.27l8.5,6a.76.76,0,0,1,0,.72,28.12,28.12,0,0,1-3,3.44c-1.61,1.39-3.4,2.57-5,3.75H98.68V66.33Zm-32.09,20c0-9.26,4.46-15.69,12.56-20H32.86c8.33,4.22,13,10.79,12.91,20s-4.77,15.74-13.09,20H63c-8-4.32-12.36-10.78-12.32-20Z" transform="translate(-1.15 -0.88)"/></g><g id="Ellipse_4_copy" data-name="Ellipse 4 copy"><ellipse class="cls-3" cx="22.62" cy="85.8" rx="12.16" ry="12.11"/></g><g id="Shape_13_copy_3" data-name="Shape 13 copy 3"><path class="cls-4" d="M99,61.07a1.14,1.14,0,0,0-.88-.52c-.88-.08-1.78,0-2.66,0a2.34,2.34,0,0,1-.54-.09l.57-1c.19-.3.37-.62.54-.94a1,1,0,0,0-.07-1.39.93.93,0,0,0-.82-.24H91.54a20.37,20.37,0,0,0,1-1.84,2.4,2.4,0,0,0,.18-1.4,1,1,0,0,0-1.1-.48h-3c.46-.8.87-1.44,1.24-2.09a1,1,0,0,0-.23-1.39l0,0h0a1,1,0,0,0-.53-.18h-5v-4a.74.74,0,0,1,.51-.4h1.66a.81.81,0,0,0,.8-.74,1,1,0,0,0-.59-1.26h0a.64.64,0,0,0-.43,0H83.59c.28-.57.51-1,.71-1.44.49-1.1.09-1.77-1-1.79H81.91l.72-1.41c.56-1,.14-1.81-1-1.82h-4c-1.43,0-1.45,0-1.3-1.49a.7.7,0,0,1,.45-.47h1.08a1.62,1.62,0,0,0,.82-.73,1.16,1.16,0,0,0-.23-1,1.8,1.8,0,0,0-1-.32H75.39c.4-.79.71-1.41,1-2a1.15,1.15,0,0,0,0-1.58h0a1.12,1.12,0,0,0-1-.27h-5V26.07a2.57,2.57,0,0,0,.42-4.93,1.57,1.57,0,0,1-.42-.18L66.24,17.4c-.26-.24-.26-.38,0-.56a1.41,1.41,0,0,0,.37-.36,3.5,3.5,0,0,0,.56-3.81,2.86,2.86,0,0,0-2.59-1.94h-18a3.11,3.11,0,0,0-2.68,2.11,3.54,3.54,0,0,0,1,4c.22.22.37.36,0,.62a34.26,34.26,0,0,1-5,4,2.41,2.41,0,0,0-1.1,2.42,2.49,2.49,0,0,0,2.15,2.19v2.51H35.45c-1.28,0-1.54.73-1,1.93.31.58.59,1.17,1,1.92h-2a.9.9,0,0,0-.83,1,.07.07,0,0,0,0,0h0a1,1,0,0,0,.83,1,2.17,2.17,0,0,0,.51,0c1.22,0,1.11-.12,1.11,1.2h0c0,.58-.17.74-.69.74H29.73c-1.13,0-1.55.8-1,1.84.24.42.44.85.7,1.39H27.91a1,1,0,0,0-1,.91h0a1,1,0,0,0,.14.6c.22.55.51,1.08.77,1.6H25.3a1,1,0,0,0-1.13.78h0v.41a.92.92,0,0,0,.78,1,.39.39,0,0,0,.3,0h1.3a.55.55,0,0,1,.71.31h0a.86.86,0,0,1,0,.32v3.2a.51.51,0,0,1-.34.62.39.39,0,0,1-.26,0H22.35a1,1,0,0,0-1.19.77h0a1,1,0,0,0,.25.91c.34.64.69,1.25,1.11,2H19.43a.94.94,0,0,0-1,.51,2.09,2.09,0,0,0,.17,1.28,17.32,17.32,0,0,0,1.08,1.93H15.91a.93.93,0,0,0-.93.92A1.82,1.82,0,0,0,15,58a3.9,3.9,0,0,0,.36.74l.94,1.6H13.07a1.34,1.34,0,0,0-.93.57m56.29-.68a1.31,1.31,0,0,1-.68,0H43.39a2.06,2.06,0,0,1-1-.31.78.78,0,0,1-.24-.69,1.42,1.42,0,0,1,.64-.57,1.1,1.1,0,0,1,.57,0H67.91a1.46,1.46,0,0,1,.51,0,1.61,1.61,0,0,1,.72.67,1.3,1.3,0,0,1-.59.83Zm-35.91-3.3a1.16,1.16,0,0,1-1.22-.74c-.12-.29-.31-.54-.49-.88H42.36v1.6H32.52Zm7.72,2v1.52H30.33a1.32,1.32,0,0,1-1.54-.81,7.92,7.92,0,0,0-.42-.69ZM62.47,38.54a1.46,1.46,0,0,1,.51,0,3.3,3.3,0,0,1,.59.59,2.06,2.06,0,0,1-.59.55H48.86a1.14,1.14,0,0,1-.45,0,1.31,1.31,0,0,1-.59-.55.53.53,0,0,1,.37-.62H62.53Zm-9-4h5.37c.47,0,.59.18.59.64,0,1.37,0,1.37-1.25,1.37H52l-.06-.15c-.29-1.79-.24-1.84,1.44-1.84Zm18.77,14.9h-9.1V48.07a22.38,22.38,0,0,1,.1-3c.91,0,1.82-.1,2.75-.1h6.17v4.42Zm6.18,2.16a1.57,1.57,0,0,1-1.54,1.6H67.46V51.68ZM61.24,49.47H50.11v-.88a31,31,0,0,1,.13-3.47c1.06,0,2.13-.1,3.19-.1h7.11a.6.6,0,0,1,.74.42h0a.69.69,0,0,1,0,.35C61.24,47,61.24,48.19,61.24,49.47Zm-5.53,2.08h8.84a.87.87,0,0,1,1,.67v.15a.9.9,0,0,1-.94.83H46.69a1.37,1.37,0,0,1-.92-.55,1,1,0,0,1,.21-.86,1,1,0,0,1,.71-.21Zm10.23,3.7h.27a.69.69,0,0,1,.8.57V56a.81.81,0,0,1-.71.88h0a1.57,1.57,0,0,1-.53,0H45.35a1.37,1.37,0,0,1-1-.48.78.78,0,0,1,.2-1,.8.8,0,0,1,.35-.11,1.27,1.27,0,0,1,.39,0H65.91ZM64.37,42.93a1.37,1.37,0,0,1-.57,0H47.65a1.37,1.37,0,0,1-.57,0,4.85,4.85,0,0,1-.56-.55c.19-.21.39-.4.59-.59a.81.81,0,0,1,.31,0H63.83a.86.86,0,0,1,.39,0,1.24,1.24,0,0,1,.47.59.93.93,0,0,1-.44.55ZM62,36.53c-.41,0-.61-.1-.61-.6,0-1.6-.16-1.36,1.25-1.39h4.72v1.91a3.25,3.25,0,0,1-.43.08ZM50.11,35.2c0,1.6.17,1.31-1.22,1.33H44V34.6h5.36A.51.51,0,0,1,50,35h0a.48.48,0,0,1,0,.29Zm-2.35,9.87a.43.43,0,0,1,.51.35h0a.34.34,0,0,1,0,.2V49c0,.32,0,.53-.43.53H39v-4a.61.61,0,0,1,.44-.4h8.22Zm-3.94,6.64v1.6H34.56a1.24,1.24,0,0,1-1.32-.85c-.13-.25-.28-.48-.45-.8Zm25.1,5.12V55.29H80.5c-.32.53-.57,1-.85,1.4a.57.57,0,0,1-.43.2H68.92ZM82.66,59a1.57,1.57,0,0,1-1.54,1.6h-10V59Zm10.58,0a1.57,1.57,0,0,1-1.43,1.6H84.24c.31-.52.56-1,.84-1.39a.59.59,0,0,1,.38-.16Zm-3.08-3.69-.92,1.6A.3.3,0,0,1,89,57H81.85c.37-.6.63-1.07.92-1.5a.51.51,0,0,1,.33-.13h7.07Zm-2.83-3.7c-.32.55-.54,1-.82,1.38a.68.68,0,0,1-.47.24H80a12.1,12.1,0,0,1,.8-1.39.57.57,0,0,1,.38-.13Zm-5.19-5.81v3.7h-7.9v-4.4h7.2a.56.56,0,0,1,.7.39h0a.44.44,0,0,1,0,.32Zm-.37-3.9c-.2,1-.31,1.12-1.19,1.12H66.69V41.87Zm-1.53-3.2c-.45,1.14-.45,1.14-1.55,1.14H66.33c-1,0-1,0-.85-1.14ZM74.4,35.26c0,1.6.17,1.3-1.24,1.31H69.74a.44.44,0,0,1-.52-.34v0h0a.34.34,0,0,1,0-.2c0-1.68-.16-1.41,1.28-1.42h3.29c.45,0,.61.17.6.67Zm-7.16-14.4a.2.2,0,0,0,0,.21H63.71a.47.47,0,0,1-.31-.18c-.59-1-1.14-2-1.81-3.2a3.11,3.11,0,0,1,2.39.48c1,1,2.13,1.86,3.22,2.79ZM46.31,12.94a1.56,1.56,0,0,1,.85-.19h17a1.3,1.3,0,0,1,1.42,1.18v0h0v.11a1.37,1.37,0,0,1-1.31,1.41H47.08a1.34,1.34,0,0,1-1.36-1.34h0A1.37,1.37,0,0,1,46.31,12.94Zm14.88,8H56.57v-3a.65.65,0,0,1,.45-.39h1.85a.81.81,0,0,1,.47.16c.6,1,1.17,2.1,1.8,3.2Zm-6.51,0h-4c.5-1.12,1-2.18,1.55-3.2a.55.55,0,0,1,.44-.18,13.36,13.36,0,0,1,1.55,0,.62.62,0,0,1,.43.4v3Zm-9.44-1.15c.71-.61,1.42-1.23,2.16-1.79a2.9,2.9,0,0,1,1.14-.45,13.19,13.19,0,0,1,1.54,0c-.54,1.18-1,2.21-1.54,3.2a.54.54,0,0,1-.42.21H43.93C44.44,20.49,44.81,20.12,45.24,19.79Zm-4.4,3.73a.78.78,0,0,1,.35-.47,1.46,1.46,0,0,1,.51,0H70a4.06,4.06,0,0,1,.51.42,2.09,2.09,0,0,1-.48.41,1.1,1.1,0,0,1-.51,0H41.72a1.37,1.37,0,0,1-.57,0,.6.6,0,0,1-.38-.33Zm22.68,2.55H68a1.24,1.24,0,0,1,.41.44.19.19,0,0,1,0,.15c0,2,0,2-1.77,2H64.09a.44.44,0,0,1-.56-.28v0h0a.48.48,0,0,1,0-.29C63.55,27.31,63.52,26.68,63.52,26.07Zm-7,2.38c-.08-.59-.14-1.18-.17-1.78a.64.64,0,0,1,.56-.71H61a.5.5,0,0,1,.53.4.54.54,0,0,1,0,.18,9.74,9.74,0,0,1,0,1.87c-1.55.13-6.18-.14-5,0Zm-3.73.11H50.24a.47.47,0,0,1-.56-.37V28c-.1-1.93-.1-1.93,1.8-1.93h2.76a1.14,1.14,0,0,1,.46.44h0c.12,2,.12,2-1.79,2Zm-6.87,0H43.5a.52.52,0,0,1-.62-.38,1,1,0,0,1,0-.24c0-2,0-2,1.76-2h2.6a.45.45,0,0,1,.53.37h0a.54.54,0,0,1,0,.18c.11,2,.12,2-1.75,2ZM74,30.67a10.28,10.28,0,0,1-.7,1.41,1,1,0,0,1-.77.32H38.76A1.53,1.53,0,0,1,37,31.25a2.48,2.48,0,0,0-.24-.64H74.05ZM42,34.56v1.92H37.46a.49.49,0,0,1-.6-.35h0a.45.45,0,0,1,0-.28c0-1.6-.17-1.34,1.27-1.36H42Zm3.77,4c.15,1.14.15,1.14-.82,1.14H32.43c-1,0-1,0-1.34-1.16H45.77ZM30.3,41.76H43.82c1,0,1,0,.84,1.17H31a1.19,1.19,0,0,1-1.39-1,.07.07,0,0,1,0,0h0v-.21Zm-1,3.73a.65.65,0,0,1,.37-.48h7.45v4.35h-8V45.52Zm-4.64,6h5a1.08,1.08,0,0,1,1.14.7c.16.29.31.56.54,1h-6.1a.75.75,0,0,1-.53-.29c-.28-.41-.53-.84-.77-1.28h.6Zm3.58,3.77a.55.55,0,0,1,.38.16c.28.43.54.88.9,1.49h-6.6a1.06,1.06,0,0,1-1.17-.7,9.72,9.72,0,0,0-.55-1h7ZM18,58.94h5.36a16.83,16.83,0,0,0,1.74,0,1.3,1.3,0,0,1,1.54.93c.11.21.22.42.34.61H19.24c-.91,0-.89-1-1.32-1.43Z" transform="translate(-1.15 -0.88)"/></g></svg>