<svg xmlns="http://www.w3.org/2000/svg" width="11.375" height="22.063" viewBox="0 0 11.375 22.063">
  <defs>
    <style>
      .cls-1 {
        fill: #b3b3b3;
        fill-rule: evenodd;
      }
    </style>
  </defs>
  <path id="facebook" class="cls-1" d="M383.632,500.976h-4.056V490.933H376.21v-3.908h3.353c0-.214,0-0.379,0-0.544,0.028-1.177-.017-2.361.1-3.528a4.414,4.414,0,0,1,3.96-3.962,18.752,18.752,0,0,1,3.96.081v3.506c-0.3,0-.6,0-0.889,0-0.531.01-1.062,0.014-1.592,0.04a1.348,1.348,0,0,0-1.461,1.329c-0.066,1-.016,2-0.016,3.059h3.848c-0.17,1.32-.333,2.584-0.5,3.892h-3.344v10.077Z" transform="translate(-376.219 -478.906)"/>
</svg>
