<svg xmlns="http://www.w3.org/2000/svg" width="19" height="22" viewBox="0 0 19 22">
  <defs>
    <style>
      .cls-1 {
        fill: #818181;
        fill-rule: evenodd;
      }
    </style>
  </defs>
  <path id="SHARE__articil_page" data-name="SHARE__articil page" class="cls-1" d="M1192.35,800.983a3.712,3.712,0,0,1-5.37-.291,4.2,4.2,0,0,1-.1-5.273,3.729,3.729,0,0,1,5.48-.415c1.63-1.145,3.27-2.292,4.9-3.454a0.541,0.541,0,0,0,.15-0.379,3.952,3.952,0,0,1,3.42-4.161,3.856,3.856,0,0,1,4.12,3.7,4,4,0,0,1-2.32,3.947,3.643,3.643,0,0,1-4.32-1.09c-0.05-.057-0.1-0.114-0.17-0.2-0.18.117-.35,0.226-0.52,0.344-1.32.926-2.63,1.861-3.96,2.775a0.409,0.409,0,0,0-.19.528,3.716,3.716,0,0,1,.01,1.985,0.5,0.5,0,0,0,.1.423c1.5,1.078,3.01,2.138,4.55,3.215a3.916,3.916,0,0,1,2.37-1.562,3.806,3.806,0,0,1,4.41,3.083,4,4,0,0,1-2.82,4.723,3.851,3.851,0,0,1-4.68-4.089,0.678,0.678,0,0,0-.18-0.372,0.7,0.7,0,0,0-.21-0.159Q1194.7,802.628,1192.35,800.983Z" transform="translate(-1186 -787)"/>
</svg>
