<svg id="Layer_1" data-name="Layer 1" xmlns="http://www.w3.org/2000/svg" viewBox="0 0 39.68 39.68"><defs><style>.cls-1{fill:#242f7b;}.cls-2{fill:#3443ad;}.cls-3{fill:#3543ad;}.cls-4{fill:#3442ac;}.cls-5{fill:#5766cd;}.cls-6{fill:#3f4fc3;}.cls-7{fill:#3e4fc4;}.cls-8{fill:#3d4ec5;}.cls-9{fill:#f9ea4d;}.cls-10{fill:#f8b132;}.cls-11{fill:#fef16b;}.cls-12{fill:#fec04e;}.cls-13{fill:#f7a510;}.cls-14{fill:#2c3893;}.cls-15{fill:#fca80d;}</style></defs><title>Astrospeak_4a</title><path class="cls-1" d="M2.94,30.21a2.18,2.18,0,0,1-.39-.7,24.66,24.66,0,0,0,2.34-1.33c1-.54,2-1.1,2.94-1.7s2.15-1.23,3.23-1.83c.22-.13.16-.24.08-.41a9.93,9.93,0,0,1-1-3.59c0-.24-.1-.3-.32-.29H.1v-.77H9.85c.18,0,.3,0,.32-.25a9.83,9.83,0,0,1,1-3.67c.09-.17.08-.26-.1-.36L7.83,13.46l-.51-.32L4.89,11.76a1.66,1.66,0,0,0-.52-.32c-.61-.33-1.18-.74-1.82-1a2.1,2.1,0,0,1,.39-.7c.21.12.42.24.64.35.59.31,1.14.72,1.77,1a6.09,6.09,0,0,0,1.17.71,11,11,0,0,0,1.68.92s0,.05.05.06l3.23,1.9c.18.1.26,0,.35-.12a9.36,9.36,0,0,1,2.66-2.66.25.25,0,0,0,.08-.41c-.27-.43-.49-.88-.76-1.31a16.08,16.08,0,0,0-1.16-1.9,3.72,3.72,0,0,0-.51-1C11.76,6.64,11.46,6,11,5.39A1.23,1.23,0,0,0,10.86,5L9.69,3a2.18,2.18,0,0,1,.7-.39,25.64,25.64,0,0,0,1.33,2.34l1.7,3C14,9,14.65,10,15.25,11.1c.13.22.24.17.41.08a10,10,0,0,1,3.59-1c.24,0,.3-.11.3-.33,0-1.21,0-2.43,0-3.64V.12h.78v2.8c0,1.11,0,2.22,0,3.33s0,2.43,0,3.64c0,.15,0,.3.21.32a10,10,0,0,1,3.74,1c.15.07.23.06.31-.09l1.86-3.25.32-.52,1.38-2.43a24.66,24.66,0,0,0,1.33-2.34,2.29,2.29,0,0,1,.7.39c-.09.16-.18.31-.26.47-.34.65-.77,1.26-1.07,1.94-.62.92-1.13,1.91-1.69,2.88s-1.23,2.12-1.85,3.17c-.13.21-.09.32.1.45A9.41,9.41,0,0,1,28,14.52a.25.25,0,0,0,.41.09c.45-.27.92-.51,1.37-.79a16.49,16.49,0,0,0,1.84-1.13,3.72,3.72,0,0,0,1-.51c.62-.38,1.29-.68,1.87-1.12a1.11,1.11,0,0,0,.35-.16l2.06-1.17a2.1,2.1,0,0,1,.39.7,24.08,24.08,0,0,0-2.42,1.39,2.24,2.24,0,0,0-.65.34c-.71.44-1.47.78-2.14,1.29a.2.2,0,0,0-.11,0l-3.22,1.85c-.22.12-.12.24-.05.38a10.18,10.18,0,0,1,1,3.59c0,.25.11.3.33.3h9.77v.78H30c-.18,0-.3,0-.32.25a10.22,10.22,0,0,1-1,3.67c-.11.2-.05.29.14.38s.51.3.77.45c.83.46,1.62,1,2.49,1.39a28.55,28.55,0,0,0,2.79,1.62,22.29,22.29,0,0,0,2.42,1.39,2.18,2.18,0,0,1-.39.7L36.45,30c-.65-.34-1.26-.77-1.94-1.07a6.09,6.09,0,0,0-1.17-.71,10.61,10.61,0,0,0-1.69-.92.58.58,0,0,0-.13-.14l-3.14-1.82c-.17-.1-.26,0-.35.12a9.36,9.36,0,0,1-2.66,2.66.26.26,0,0,0-.08.42c.26.42.49.87.76,1.3a17.06,17.06,0,0,0,1.16,1.91,3.82,3.82,0,0,0,.51,1c.38.62.68,1.29,1.12,1.87a1.11,1.11,0,0,0,.16.35L30.17,37a2.29,2.29,0,0,1-.7.39A25.64,25.64,0,0,0,28.14,35c-.53-1-1.11-2-1.7-2.94L24.6,28.84c-.1-.18-.19-.19-.36-.1a9.81,9.81,0,0,1-3.63,1c-.24,0-.3.11-.3.33,0,1.22,0,2.43,0,3.64v6.12h-.78V37c0-1.12,0-2.23,0-3.34s0-2.42,0-3.64c0-.22-.05-.32-.3-.32a6,6,0,0,1-.84-.1,10.44,10.44,0,0,1-2.79-.89c-.17-.09-.26-.08-.37.1-.6,1.08-1.22,2.15-1.83,3.23-.11.17-.22.34-.32.52L11.72,35a1.5,1.5,0,0,0-.32.52c-.33.61-.74,1.18-1,1.82a2.29,2.29,0,0,1-.7-.39c.09-.15.18-.31.26-.47.34-.65.77-1.26,1.07-1.94a5.8,5.8,0,0,0,.71-1.17,11,11,0,0,0,.92-1.68s0,0,.06-.05l1.9-3.23c.1-.17,0-.26-.13-.35a9.69,9.69,0,0,1-2.65-2.65c-.12-.18-.23-.2-.42-.09-.42.27-.87.49-1.3.76A18.69,18.69,0,0,0,8.2,27.25a3.82,3.82,0,0,0-1,.51c-.62.38-1.29.68-1.87,1.12-.13.06-.27.1-.39.17Zm8-10.29A9,9,0,1,0,20,11,9,9,0,0,0,10.94,19.92Z" transform="translate(-0.1 -0.12)"/><path class="cls-2" d="M11.72,4.93a25.64,25.64,0,0,1-1.33-2.34A18,18,0,0,1,15.29.67,18.72,18.72,0,0,1,18.18.2c.07,0,.16,0,.2-.08h1.16v2.8c-.6-.06-1.18.09-1.77.07,0-.18,0-.38-.2-.44s-.35.1-.45.27a3.72,3.72,0,0,1-.19.34l-2,.45c-.13-.29-.26-.58-.41-.86s-.24-.29-.44-.18-.21.29-.09.49a2.86,2.86,0,0,1,.34.85,1.72,1.72,0,0,0-.44.09C13.12,4.26,12.44,4.64,11.72,4.93Z" transform="translate(-0.1 -0.12)"/><path class="cls-2" d="M21.48.12A8.5,8.5,0,0,0,23,.35a18.9,18.9,0,0,1,6.49,2.24,24.66,24.66,0,0,1-1.33,2.34l-.69-.31a13.37,13.37,0,0,0-2.17-.85,1.21,1.21,0,0,1,.92-.69.29.29,0,0,0,.28-.34.3.3,0,0,0-.32-.27.83.83,0,0,0-.27,0,2.24,2.24,0,0,0-1.25,1c-.48-.09-.95-.26-1.44-.31a2,2,0,0,0-1.13-.74c-.4-.07-.56.11-.44.51a5.22,5.22,0,0,0-1.31-.07V.12Z" transform="translate(-0.1 -0.12)"/><path class="cls-3" d="M37.31,10.43a18.21,18.21,0,0,1,2,5.24,18.82,18.82,0,0,1,.39,2.59c0,.06,0,.13.08.16v1.16H37a4.75,4.75,0,0,0-.07-1.25,1.38,1.38,0,0,1,.47.16c.19.07.36.05.44-.16a.27.27,0,0,0-.18-.4c-.48-.11-.51-.44-.47-.84a1.51,1.51,0,0,0,0-.3v-.12a.54.54,0,0,0,0-.43c0-.37,0-.75,0-1.12s0-.51.38-.59.39-.21.28-.46-.32-.2-.53-.11a2.93,2.93,0,0,1-1.31.27,1.92,1.92,0,0,0-.24-.72,6.54,6.54,0,0,0-.85-1.69A24.08,24.08,0,0,1,37.31,10.43Z" transform="translate(-0.1 -0.12)"/><path class="cls-2" d="M37,20.36h2.8v1.16A6.87,6.87,0,0,0,39.56,23a20.18,20.18,0,0,1-2.18,6.48l-.07.08a22.29,22.29,0,0,1-2.42-1.39,3.5,3.5,0,0,0,.69-1.44A4,4,0,0,0,37.07,26a1.36,1.36,0,0,0,.61-1.4,1.26,1.26,0,0,0-1-1l.08-.85a1.11,1.11,0,0,1,.39.29c.16.13.33.17.47,0a.3.3,0,0,0-.06-.47c-.21-.18-.43-.35-.65-.52C36.89,21.5,37.05,20.94,37,20.36Z" transform="translate(-0.1 -0.12)"/><path class="cls-2" d="M4.89,28.18a24.66,24.66,0,0,1-2.34,1.33,17.67,17.67,0,0,1-1.92-4.9A17.93,17.93,0,0,1,.1,20.36H2.88A11.18,11.18,0,0,0,3,22.19c.08.75.27,1.48.42,2.21a.4.4,0,0,0,.14.54c.22.16.18.29,0,.45s-.4.4-.59.6a.31.31,0,1,0,.43.45c.19-.17.37-.35.55-.53A20.52,20.52,0,0,0,4.89,28.18Z" transform="translate(-0.1 -0.12)"/><path class="cls-2" d="M34.51,28.88c.68.3,1.29.73,1.94,1.07l.47.26A19.47,19.47,0,0,1,30.17,37L29,34.9a1.11,1.11,0,0,1-.16-.35,21.66,21.66,0,0,0,2.32-1.71,5.26,5.26,0,0,1,1.07-.93l0,.94a.9.9,0,0,0,.86.77.3.3,0,0,0,.33-.25.28.28,0,0,0-.22-.35.7.7,0,0,1-.37-.19V31.06a1,1,0,0,0,.3-.3A22.72,22.72,0,0,0,34.51,28.88Z" transform="translate(-0.1 -0.12)"/><path class="cls-3" d="M20.32,39.81V37A6.38,6.38,0,0,0,22,36.89a.48.48,0,0,0,.37,0l1.2-.16c.1.13.21.27.41.19s.19-.25.22-.41c.37,0,.7-.21,1.06-.24.09.35,0,.51-.4.5a.31.31,0,1,0,.05.61,1.7,1.7,0,0,1,1.13.15.3.3,0,0,0,.43-.14.27.27,0,0,0-.11-.4c-.15-.08-.1-.15,0-.23a2.48,2.48,0,0,0,.61-1.18L28.14,35a25.64,25.64,0,0,1,1.33,2.34,17.25,17.25,0,0,1-4.16,1.73A19.11,19.11,0,0,1,20.32,39.81Z" transform="translate(-0.1 -0.12)"/><path class="cls-3" d="M5.35,11.06c-.63-.26-1.18-.67-1.77-1-.22-.11-.43-.23-.64-.35A19.47,19.47,0,0,1,9.69,3L10.86,5a1.23,1.23,0,0,1,.16.35A19.25,19.25,0,0,0,8.51,7.26a.46.46,0,0,0-.72,0,5,5,0,0,1-.5.41c-1-.82-.71-.82-1.66,0l-.15.12c-.16.13-.29.29-.13.49s.36.13.54,0c.56-.45.56-.44,1.1-.05a.45.45,0,0,0,.23.2,1.59,1.59,0,0,1-.63.75.46.46,0,0,0-.42.13l-.7.59c-.12.1-.23.22-.17.39a.33.33,0,0,0,.36.22A2.17,2.17,0,0,1,5.35,11.06Z" transform="translate(-0.1 -0.12)"/><path class="cls-3" d="M11,34.55c-.3.68-.73,1.29-1.07,1.94-.08.16-.17.32-.26.47a19.47,19.47,0,0,1-6.75-6.75l2-1.16c.12-.07.26-.11.39-.17.05.11.17.19.16.33-.32.32-.3.47.11.63.22.08.24.24.24.42v2.1c0,.25-.08.62.33.61s.3-.35.3-.6c0-.59,0-1.18,0-1.78l.93,1c0,.35,0,.69,0,1s.11.35.32.34.29-.14.29-.34,0-.23,0-.34l1.07.93a2.36,2.36,0,0,0,.68.73c-.21.13-.41.26-.26.52s.37.14.57,0l.55-.26C10.74,34.42,10.91,34.46,11,34.55Z" transform="translate(-0.1 -0.12)"/><path class="cls-3" d="M2.88,19.58H.1a19.43,19.43,0,0,1,1.8-7.94,7.92,7.92,0,0,1,.65-1.22c.64.27,1.21.68,1.82,1a1.66,1.66,0,0,1,.52.32,7,7,0,0,1-.33.74,4.17,4.17,0,0,0-.45,1.17L4,13.7a.94.94,0,0,0-.34,0,.7.7,0,0,1-.94-.09.48.48,0,0,0-.32-.09A.3.3,0,0,0,2,13.8a.26.26,0,0,0,.21.35c.35,0,.38.28.38.56,0,.88,0,1.75,0,2.63,0,.25.05.46.36.49C3,18.41,2.82,19,2.88,19.58Z" transform="translate(-0.1 -0.12)"/><path class="cls-3" d="M19.54,37v2.78A19.62,19.62,0,0,1,12,38.17a9.75,9.75,0,0,1-1.61-.82c.27-.64.68-1.21,1-1.82a1.5,1.5,0,0,1,.32-.52l1.51.68c.16.07.31.24.51.07.07.08.07.15-.05.16h-.46c-.22,0-.41.07-.4.31s.18.32.4.32h1.12a.39.39,0,0,0,.4-.3A16.22,16.22,0,0,0,19.54,37Zm-2.78.17H14.5c-.44,0-.87,0-1.31,0a.32.32,0,0,0-.36.32c0,.22.15.3.36.3l1.24,0a20.35,20.35,0,0,0,2.47,0l1,0c.23,0,.43,0,.42-.32s-.2-.3-.41-.3Z" transform="translate(-0.1 -0.12)"/><path class="cls-4" d="M10.94,19.92a9,9,0,1,1,8.8,9A9,9,0,0,1,10.94,19.92Zm9-5.76A5.82,5.82,0,1,0,25.75,20,5.85,5.85,0,0,0,19.93,14.16Zm7.48,3.51a4.06,4.06,0,0,0-.51-1.2.31.31,0,0,0-.44-.08.34.34,0,0,0-.2.42c.13.37.28.74.44,1.1a.34.34,0,0,0,.43.17A.39.39,0,0,0,27.41,17.67Zm-9.07-4.58,1-.16a.36.36,0,0,0,.32-.41.36.36,0,0,0-.42-.35,9.34,9.34,0,0,0-1.06.16.37.37,0,0,0-.32.45C17.93,13,18.09,13.1,18.34,13.09Zm9.42,7.27c0-.18,0-.29,0-.41a.36.36,0,0,0-.37-.37.36.36,0,0,0-.4.34c0,.36-.06.72-.08,1.08a.37.37,0,0,0,.37.41.36.36,0,0,0,.4-.34C27.72,20.81,27.74,20.56,27.76,20.36ZM13.61,23.14c-.15-.36-.31-.78-.51-1.18a.3.3,0,0,0-.41-.1.35.35,0,0,0-.23.41,3.6,3.6,0,0,0,.47,1.17.32.32,0,0,0,.4.13C13.52,23.51,13.6,23.38,13.61,23.14ZM12.93,19c0-.27-.06-.48-.34-.5s-.4.14-.42.4-.06.67-.07,1a.39.39,0,1,0,.77,0Zm1.2-3.2a.36.36,0,0,0-.27-.37.35.35,0,0,0-.44.15c-.19.31-.37.62-.54.94a.35.35,0,0,0,.16.52.38.38,0,0,0,.53-.17c.16-.27.31-.54.46-.81A.5.5,0,0,0,14.13,15.84Zm4.11,11.78a.4.4,0,0,0,.41-.29.34.34,0,0,0-.22-.44,10.19,10.19,0,0,0-1.11-.34.34.34,0,0,0-.42.26.35.35,0,0,0,.19.45A5.9,5.9,0,0,0,18.24,27.62Zm4.27-14.23c.24,0,.38-.07.44-.25a.35.35,0,0,0-.19-.46,4.56,4.56,0,0,0-1.14-.35.36.36,0,0,0-.42.28.33.33,0,0,0,.18.42C21.76,13.18,22.16,13.28,22.51,13.39ZM15.26,26.18a.38.38,0,0,0,.37-.21.38.38,0,0,0-.07-.46c-.26-.24-.52-.49-.8-.72a.35.35,0,0,0-.52,0,.34.34,0,0,0,0,.51c.26.27.54.51.82.76A.34.34,0,0,0,15.26,26.18Zm9.7-.34c0-.31-.29-.54-.53-.4a7.59,7.59,0,0,0-1,.7.35.35,0,0,0,0,.49.33.33,0,0,0,.44.11,4.44,4.44,0,0,0,1-.7C24.91,26,24.93,25.89,25,25.84Zm-3.43,1c-.34.06-.7.1-1.05.17a.35.35,0,0,0-.32.41.36.36,0,0,0,.4.34,8.51,8.51,0,0,0,1.11-.17.34.34,0,0,0,.29-.43C21.93,26.94,21.77,26.85,21.53,26.85Zm-5-13.31a.36.36,0,0,0-.55-.32,7.9,7.9,0,0,0-.92.63.34.34,0,0,0-.08.53.36.36,0,0,0,.54.08l.82-.57A.36.36,0,0,0,16.53,13.54Zm8,.22a.37.37,0,0,0-.35.23.37.37,0,0,0,.09.43c.25.24.5.48.76.71a.37.37,0,0,0,.56,0,.35.35,0,0,0,0-.55l-.76-.71A.37.37,0,0,0,24.56,13.76Zm2.07,9.06a.32.32,0,0,0-.3.16c-.2.33-.4.66-.57,1a.38.38,0,0,0,.64.38,4.11,4.11,0,0,0,.59-1A.36.36,0,0,0,26.63,22.82Z" transform="translate(-0.1 -0.12)"/><path class="cls-2" d="M30.17,3a19.47,19.47,0,0,1,6.75,6.75L34.86,10.9a1.11,1.11,0,0,1-.35.16,15.53,15.53,0,0,0-1.16-1.63,2.17,2.17,0,0,0-.64-1.36c-.18-.16-.11-.23,0-.35a1.45,1.45,0,0,0,.5-.89c0-.23.07-.5-.24-.55s-.33.17-.37.41a.88.88,0,0,1-1.15.74.49.49,0,0,0-.16-.21,19.34,19.34,0,0,0-2.48-1.83c.3-.68.73-1.29,1.07-1.94C30,3.29,30.08,3.14,30.17,3Z" transform="translate(-0.1 -0.12)"/><path class="cls-5" d="M33.65,19.58H30c-.22,0-.3-.05-.33-.3a10.18,10.18,0,0,0-1-3.59c-.07-.14-.17-.26.05-.38L32,13.47a.2.2,0,0,1,.11,0l.43,1A12.67,12.67,0,0,1,33.65,19.58Z" transform="translate(-0.1 -0.12)"/><path class="cls-5" d="M27.21,31.7a17.06,17.06,0,0,1-1.16-1.91c-.27-.43-.5-.88-.76-1.3a.26.26,0,0,1,.08-.42A9.36,9.36,0,0,0,28,25.41c.09-.12.18-.22.35-.12l3.14,1.82a.58.58,0,0,1,.13.14c-.14,0-.18.18-.24.28a14.41,14.41,0,0,1-3,3.29A8.42,8.42,0,0,0,27.21,31.7Z" transform="translate(-0.1 -0.12)"/><path class="cls-5" d="M8.2,27.25a18.69,18.69,0,0,1,1.91-1.16c.43-.27.88-.49,1.3-.76.19-.11.3-.09.42.09a9.69,9.69,0,0,0,2.65,2.65c.13.09.23.18.13.35l-1.9,3.23s0,0-.06.05a.83.83,0,0,0-.15-.17,13,13,0,0,1-3.39-3.1C8.81,28,8.51,27.64,8.2,27.25Z" transform="translate(-0.1 -0.12)"/><path class="cls-5" d="M13.42,32.07c.61-1.08,1.23-2.15,1.83-3.23.11-.18.2-.19.37-.1a10.44,10.44,0,0,0,2.79.89,6,6,0,0,0,.84.1c.25,0,.3.1.3.32,0,1.22,0,2.43,0,3.64-.32,0-.64,0-1,0-.64,0-1.26-.25-1.9-.27h0l-.1-.08a4.71,4.71,0,0,0-.91-.25A15.41,15.41,0,0,1,13.42,32.07Z" transform="translate(-0.1 -0.12)"/><path class="cls-5" d="M12.65,8.25a16.08,16.08,0,0,1,1.16,1.9c.27.43.49.88.76,1.31a.25.25,0,0,1-.08.41,9.36,9.36,0,0,0-2.66,2.66c-.09.12-.17.22-.35.12l-3.23-1.9s0,0-.05-.06a5,5,0,0,0,.62-.82,7.33,7.33,0,0,1,1.45-1.6c.22.09.42.45.68.15s-.12-.47-.27-.67l.76-.58Z" transform="translate(-0.1 -0.12)"/><path class="cls-5" d="M26.44,7.88l-1.86,3.25c-.08.15-.16.16-.31.09a10,10,0,0,0-3.74-1c-.24,0-.21-.17-.21-.32,0-1.21,0-2.43,0-3.64.34,0,.68,0,1,0,.77.08,1.53.27,2.29.42l.07.77c0,.25,0,.5.31.5s.33-.25.32-.5,0-.31,0-.46A6,6,0,0,1,26.44,7.88Z" transform="translate(-0.1 -0.12)"/><path class="cls-5" d="M20.33,33.69c0-1.21,0-2.42,0-3.64,0-.22.06-.31.3-.33a9.81,9.81,0,0,0,3.63-1c.17-.09.26-.08.36.1l1.84,3.23a7,7,0,0,1-.77.4c-.38.21-.86.23-1.17.58a1.7,1.7,0,0,0-.41.18.32.32,0,0,1-.51,0,.76.76,0,0,0-.78-.16c-.3,0-.57.25-.9-.06a.42.42,0,0,0-.69.1c-.1.35.2.38.42.46,0,0,0,0,0,0A5.3,5.3,0,0,1,20.33,33.69Z" transform="translate(-0.1 -0.12)"/><path class="cls-5" d="M31.65,12.69a16.49,16.49,0,0,1-1.84,1.13c-.45.28-.92.52-1.37.79a.25.25,0,0,1-.41-.09,9.41,9.41,0,0,0-2.63-2.63c-.19-.13-.23-.24-.1-.45.62-1,1.23-2.11,1.85-3.17a16.34,16.34,0,0,1,1.91,1.39,2.16,2.16,0,0,0,2,2.06A2.4,2.4,0,0,0,31.65,12.69Z" transform="translate(-0.1 -0.12)"/><path class="cls-5" d="M19.53,6.25c0,1.21,0,2.43,0,3.64,0,.22-.06.31-.3.33a10,10,0,0,0-3.59,1c-.17.09-.28.14-.41-.08C14.65,10,14,9,13.42,7.88l.49-.25c.26.23.45.16.61-.12l.15-.26.06-.08h0a1,1,0,0,0,.48-.11,7.5,7.5,0,0,1,1.54-.43c.14.3.27.61.42.9s.25.32.47.19.17-.32.06-.5a2.81,2.81,0,0,1-.3-.74A8.12,8.12,0,0,1,19.53,6.25Z" transform="translate(-0.1 -0.12)"/><path class="cls-5" d="M32.1,26.5c-.87-.4-1.66-.93-2.49-1.39-.26-.15-.51-.31-.77-.45s-.25-.18-.14-.38a10.22,10.22,0,0,0,1-3.67c0-.25.14-.25.32-.25h3.64a8.86,8.86,0,0,1-.15,1.78c-1.1.79-1.15,1.44-.61,2.27,0,.31-.22.56-.24.86l-.1.27A3.6,3.6,0,0,0,32.1,26.5Z" transform="translate(-0.1 -0.12)"/><path class="cls-5" d="M7.83,13.46l3.23,1.84c.18.1.19.19.1.36a9.83,9.83,0,0,0-1,3.67c0,.25-.14.26-.32.25H6.21v-1a1.23,1.23,0,0,0,1.12-1.06,1.26,1.26,0,0,0-.69-1.34.31.31,0,0,0,.11-.2A12.93,12.93,0,0,1,7.83,13.46Z" transform="translate(-0.1 -0.12)"/><path class="cls-5" d="M6.21,20.37H9.85c.22,0,.3.05.32.29a9.93,9.93,0,0,0,1,3.59c.08.17.14.28-.08.41-1.08.6-2.15,1.22-3.23,1.83a10.83,10.83,0,0,1-.78-1.65.4.4,0,0,0,.25-.43c0-.49,0-1,0-1.47,0-.83.09-.88-.86-.86H6.28C6.31,21.49,6.15,20.93,6.21,20.37Z" transform="translate(-0.1 -0.12)"/><path class="cls-6" d="M27.21,31.7a8.42,8.42,0,0,1,1.16-.88,14.41,14.41,0,0,0,3-3.29c.06-.1.1-.24.24-.28a10.61,10.61,0,0,1,1.69.92,6.09,6.09,0,0,1,1.17.71,22.72,22.72,0,0,1-1.33,1.88,1,1,0,0,1-.3.3c0-.33,0-.67,0-1a1.32,1.32,0,0,0-1.53-1.26A1.27,1.27,0,0,0,30,30.13c0,.28,0,.57,0,.85s0,.34-.31.26a1.24,1.24,0,0,0-1.57,1.39,1.26,1.26,0,0,0,1.32,1.06,1.28,1.28,0,0,0,1.18-1.26c0-.72,0-1.45,0-2.17s.16-.79.78-.86.85.25.84.93,0,1.05,0,1.58a5.26,5.26,0,0,0-1.07.93,21.66,21.66,0,0,1-2.32,1.71c-.44-.58-.74-1.25-1.12-1.87A3.82,3.82,0,0,1,27.21,31.7Z" transform="translate(-0.1 -0.12)"/><path class="cls-7" d="M33.65,19.58a12.67,12.67,0,0,0-1.12-5.11l-.43-1c.67-.51,1.43-.85,2.14-1.29a2.24,2.24,0,0,1,.65-.34,6.54,6.54,0,0,1,.85,1.69,1.92,1.92,0,0,1,.24.72,3.34,3.34,0,0,1-1.73-.31.28.28,0,0,0-.42.12.3.3,0,0,0,.17.45l.45.21c0,.79,0,1.59,0,2.39,0,.39,0,.73-.48.85-.19,0-.24.23-.16.41s.25.19.42.14a2,2,0,0,0,.22-.09,3.74,3.74,0,0,1,2.45-.07A4.75,4.75,0,0,1,37,19.58Z" transform="translate(-0.1 -0.12)"/><path class="cls-7" d="M8.2,27.25c.31.39.61.79.91,1.18a13,13,0,0,0,3.39,3.1.83.83,0,0,1,.15.17,11,11,0,0,1-.92,1.68A5.8,5.8,0,0,1,11,34.55c-.11-.09-.28-.13-.32-.29.11-.09.26-.16.24-.32a3.31,3.31,0,0,0-.31-1.06.3.3,0,0,0-.54.12c0,.1,0,.2,0,.3h0c-.25-.09-.32-.32-.4-.54,0-.49,0-1,0-1.47a4.89,4.89,0,0,0,0-1.08,1.07,1.07,0,0,0-1.69-.66.23.23,0,0,1-.35,0,.84.84,0,0,0-.76-.18.87.87,0,0,1-1-.09c-.09-.07-.24-.05-.37-.07s-.11-.22-.16-.33c.58-.44,1.25-.74,1.87-1.12A3.82,3.82,0,0,1,8.2,27.25Z" transform="translate(-0.1 -0.12)"/><path class="cls-7" d="M16.67,33.39c.64,0,1.26.22,1.9.27.32,0,.64,0,1,0,0,1.11,0,2.22,0,3.34a16.22,16.22,0,0,1-4.79-.78c0-.08-.06-.17-.1-.24a1.36,1.36,0,0,1,.48-2.23h.08A1.34,1.34,0,0,1,16.54,36a.28.28,0,0,0-.06.35.32.32,0,0,0,.42.17c.38,0,.75,0,1.12,0a.31.31,0,0,0,.35-.32c0-.2-.15-.29-.34-.3l-.65,0A2,2,0,0,0,16.67,33.39Z" transform="translate(-0.1 -0.12)"/><path class="cls-7" d="M12.65,8.25l-1.21.92-.76.58a4.46,4.46,0,0,1-.42-.34.45.45,0,0,0-.75,0A5.08,5.08,0,0,1,9,9.81l-.58-.5a.35.35,0,0,0-.49,0c-.22.16-.39.5-.66.45s-.44-.33-.66-.51c0,0,0,0,0,0a1.59,1.59,0,0,0,.63-.75.49.49,0,0,0,.43-.2c.49-.44.5-.43,1,0l.11.1a.37.37,0,0,0,.5,0c.2-.16.39-.43.6-.45s.42.3.64.45.31.15.45,0a.32.32,0,0,0-.07-.48l-.53-.45c-.48-.41-.5-.44-.94,0s-.55.27-.81,0l-.1-.12A19.25,19.25,0,0,1,11,5.39c.44.58.74,1.25,1.12,1.87A3.72,3.72,0,0,1,12.65,8.25Z" transform="translate(-0.1 -0.12)"/><path class="cls-8" d="M6.21,20.37c-.06.56.1,1.12.07,1.69H5c-.23,0-.43.05-.43.32s.22.31.44.31H6.15l.11.17-1.6,1.44a.83.83,0,0,0-.17.15c-.18.24-.34.25-.53,0a.36.36,0,0,0-.54-.06c-.15-.73-.34-1.46-.42-2.21a11.18,11.18,0,0,1-.12-1.83Z" transform="translate(-0.1 -0.12)"/><path class="cls-8" d="M23.65,6.71c-.76-.15-1.52-.34-2.29-.42-.35,0-.69,0-1,0,0-1.11,0-2.22,0-3.33A5.22,5.22,0,0,1,21.63,3a1.77,1.77,0,0,1,1.27.95A6.74,6.74,0,0,1,23.65,6.71Z" transform="translate(-0.1 -0.12)"/><path class="cls-8" d="M26.44,7.88A6,6,0,0,0,24.37,7c0-.24,0-.49.06-.73a5.64,5.64,0,0,1,.85-2.52,13.37,13.37,0,0,1,2.17.85l.69.31L26.76,7.36Z" transform="translate(-0.1 -0.12)"/><path class="cls-8" d="M7.05,24.83a10.83,10.83,0,0,0,.78,1.65c-1,.6-1.94,1.16-2.94,1.7a20.52,20.52,0,0,1-.95-2.27c.16-.26.32-.34.54-.05s.32.25.5.07.1-.39-.08-.53-.2-.32,0-.48a1.77,1.77,0,0,0,.17-.2l1.6-1.52c0,.44,0,.79,0,1.15S6.76,24.8,7.05,24.83Z" transform="translate(-0.1 -0.12)"/><path class="cls-6" d="M6.21,18.6v1H2.87C2.82,19,3,18.41,3,17.83c.24-.07.28-.26.28-.48,0-.44,0-.89,0-1.33a7.16,7.16,0,0,0,.47-1.64L4,14.3c.74,0,.92.24.92,1v1.43a1.11,1.11,0,0,0-.9,1,.46.46,0,0,1-.41.48.27.27,0,0,0-.25.36c0,.21.21.26.42.24a1,1,0,0,0,.84-.84c0-.18,0-.36.19-.47C5.25,18.42,5.41,18.55,6.21,18.6Z" transform="translate(-0.1 -0.12)"/><path class="cls-8" d="M7.83,13.46A12.93,12.93,0,0,0,6.75,16a.31.31,0,0,1-.11.2,1.5,1.5,0,0,0-1.14,0v-1a1.37,1.37,0,0,0-1.39-1.57,4.17,4.17,0,0,1,.45-1.17,7,7,0,0,0,.33-.74l2.43,1.38Z" transform="translate(-0.1 -0.12)"/><path class="cls-7" d="M19.53,6.25a8.12,8.12,0,0,0-2.14.23,3.16,3.16,0,0,1-.18-.75c0-.2,0-.28.24-.26s.46,0,.47-.32-.23-.33-.46-.31-.28-.11-.25-.31A3.42,3.42,0,0,1,17.77,3c.59,0,1.17-.13,1.77-.07C19.54,4,19.53,5.14,19.53,6.25Z" transform="translate(-0.1 -0.12)"/><path class="cls-7" d="M10.27,10.27a7.33,7.33,0,0,0-1.45,1.6,5,5,0,0,1-.62.82,11,11,0,0,1-1.68-.92,6.09,6.09,0,0,1-1.17-.71,2.17,2.17,0,0,0,.31-.53l.26-.17c.52-.43.53-.44,1,0a.45.45,0,0,0,.67,0c.5-.43.51-.42,1,0,.22.3.43.25.7,0C10,9.86,9.79,9.8,10.27,10.27Z" transform="translate(-0.1 -0.12)"/><path class="cls-7" d="M29.06,9.66a16.34,16.34,0,0,0-1.91-1.39c.56-1,1.07-2,1.69-2.88a19.34,19.34,0,0,1,2.48,1.83.49.49,0,0,1,.16.21,3,3,0,0,0-.85.07.94.94,0,0,1-.87-.89c0-.2-.11-.36-.33-.34s-.3.21-.28.42a1.51,1.51,0,0,0,.7,1.19l-.24.3A2.07,2.07,0,0,0,29.06,9.66Z" transform="translate(-0.1 -0.12)"/><path class="cls-7" d="M13.91,7.63l-.49.25-1.7-2.95c.72-.29,1.4-.67,2.14-.93a1.72,1.72,0,0,1,.44-.09,2.71,2.71,0,0,1,.15.64c0,.21,0,.31-.26.29s-.44,0-.45.3.23.34.47.32.26.07.24.27A3.74,3.74,0,0,1,14,7.16.53.53,0,0,0,13.91,7.63Z" transform="translate(-0.1 -0.12)"/><path class="cls-7" d="M13.42,32.07a15.41,15.41,0,0,0,2.24,1,1.53,1.53,0,0,0-.69.17l-.1.05h0a.74.74,0,0,0-.44.22,2,2,0,0,0-.68,2.26c-.2.17-.35,0-.51-.07L11.72,35l1.38-2.42C13.2,32.41,13.31,32.24,13.42,32.07Z" transform="translate(-0.1 -0.12)"/><path class="cls-6" d="M24.5,33.05c.31-.35.79-.37,1.17-.58a7,7,0,0,0,.77-.4C27,33,27.61,34,28.14,35l-1.24.55c0-.24.06-.55-.28-.59s-.32.28-.37.51a.93.93,0,0,1-.37.7,18.1,18.1,0,0,0,0-2A1.18,1.18,0,0,0,24.5,33.05Z" transform="translate(-0.1 -0.12)"/><path class="cls-8" d="M20.33,33.69a5.3,5.3,0,0,0,1.32-.08c.18.09.14.25.14.4,0,.8,0,1.59,0,2.39a.56.56,0,0,0,.16.49,6.38,6.38,0,0,1-1.63.14C20.32,35.91,20.32,34.8,20.33,33.69Z" transform="translate(-0.1 -0.12)"/><path class="cls-7" d="M33.5,22.15a8.86,8.86,0,0,0,.15-1.78H37c.07.58-.09,1.14-.07,1.71A3.48,3.48,0,0,0,33.5,22.15Z" transform="translate(-0.1 -0.12)"/><path class="cls-7" d="M31.65,12.69a2.4,2.4,0,0,1-.63-1,2,2,0,0,0,1.5-.5,2,2,0,0,0,.83-1.79,15.53,15.53,0,0,1,1.16,1.63c-.58.44-1.25.74-1.87,1.12A3.72,3.72,0,0,1,31.65,12.69Z" transform="translate(-0.1 -0.12)"/><path class="cls-7" d="M32.1,26.5a3.6,3.6,0,0,1,.45-.95.79.79,0,0,0,.37.43,3.36,3.36,0,0,0,2.66.7,3.5,3.5,0,0,1-.69,1.44A28.55,28.55,0,0,1,32.1,26.5Z" transform="translate(-0.1 -0.12)"/><path class="cls-9" d="M17.77,3a3.42,3.42,0,0,0-.56,1.54c0,.2,0,.32.25.31s.47,0,.46.31-.23.34-.47.32-.27.06-.24.26a3.16,3.16,0,0,0,.18.75,2.81,2.81,0,0,0,.3.74c.11.18.15.37-.06.5s-.37,0-.47-.19-.28-.6-.42-.9a1.15,1.15,0,0,1-.06-.17,2.3,2.3,0,0,0-.14-.9c-.18-.25-.58,0-.87-.11a.37.37,0,0,1,0-.59l.65,0c.17,0,.27,0,.28-.23a5.49,5.49,0,0,1,.34-1.44,3.72,3.72,0,0,0,.19-.34c.1-.17.21-.35.45-.27S17.78,2.81,17.77,3Z" transform="translate(-0.1 -0.12)"/><path class="cls-10" d="M15.66,4.86a.37.37,0,0,0,0,.59c-.55,0-.55,0-.63.57a8.88,8.88,0,0,1-.32,1.15h0l-.06.08-.15.26c-.16.28-.35.35-.61.12A.53.53,0,0,1,14,7.16a3.74,3.74,0,0,0,.45-1.43c0-.2,0-.28-.24-.27s-.47,0-.47-.32.23-.32.45-.3.29-.08.26-.29a2.71,2.71,0,0,0-.15-.64A2.86,2.86,0,0,0,14,3.06c-.12-.2-.12-.38.09-.49s.35,0,.44.18.28.57.41.86a2.73,2.73,0,0,1,.13.67C15,4.74,15.23,4.91,15.66,4.86Z" transform="translate(-0.1 -0.12)"/><path class="cls-6" d="M15.66,4.86c-.43,0-.64-.12-.63-.58a2.73,2.73,0,0,0-.13-.67l2-.45a5.49,5.49,0,0,0-.34,1.44c0,.19-.11.24-.28.23Z" transform="translate(-0.1 -0.12)"/><path class="cls-9" d="M25.28,3.77a5.64,5.64,0,0,0-.85,2.52c0,.24,0,.49-.06.73s0,.31,0,.46,0,.5-.32.5-.34-.25-.31-.5A9.79,9.79,0,0,1,24,5a9,9,0,0,1,.6-1.48,2.24,2.24,0,0,1,1.25-1,.83.83,0,0,1,.27,0,.3.3,0,0,1,.32.27.29.29,0,0,1-.28.34A1.21,1.21,0,0,0,25.28,3.77Z" transform="translate(-0.1 -0.12)"/><path class="cls-10" d="M24,5a9.79,9.79,0,0,0-.32,2.47l-.07-.77a6.74,6.74,0,0,0-.75-2.77A1.77,1.77,0,0,0,21.63,3c-.12-.4,0-.58.44-.51a2,2,0,0,1,1.13.74A8.59,8.59,0,0,1,24,5Z" transform="translate(-0.1 -0.12)"/><path class="cls-6" d="M24,5a8.59,8.59,0,0,0-.84-1.79c.49,0,1,.22,1.44.31A9,9,0,0,0,24,5Z" transform="translate(-0.1 -0.12)"/><path class="cls-10" d="M36.91,18.33a3.74,3.74,0,0,0-2.45.07,2,2,0,0,1-.22.09c-.17.05-.34.05-.42-.14s0-.37.16-.41c.49-.12.49-.46.48-.85,0-.8,0-1.6,0-2.39.2.06.43,0,.61.17,0,.69,0,1.37,0,2.05s0,.65.65.62c.26,0,.62.15.77,0s0-.52.06-.78c.17.27.37.27.6.07a1.51,1.51,0,0,1,0,.3c0,.4,0,.73.47.84a.27.27,0,0,1,.18.4c-.08.21-.25.23-.44.16A1.38,1.38,0,0,0,36.91,18.33Z" transform="translate(-0.1 -0.12)"/><path class="cls-9" d="M35.06,14.87c-.18-.14-.41-.11-.61-.17L34,14.49a.3.3,0,0,1-.17-.45.28.28,0,0,1,.42-.12,3.34,3.34,0,0,0,1.73.31A2.93,2.93,0,0,0,37.29,14c.21-.09.42-.14.53.11s-.07.41-.28.46-.4.28-.38.59,0,.75,0,1.12v.55c-.23.2-.43.2-.6-.07l0-1c0-.22,0-.43,0-.65s-.08-.24-.25-.19Z" transform="translate(-0.1 -0.12)"/><path class="cls-10" d="M37.16,16.67v-.43A.54.54,0,0,1,37.16,16.67Z" transform="translate(-0.1 -0.12)"/><path class="cls-10" d="M35.58,26.68a3.36,3.36,0,0,1-2.66-.7.79.79,0,0,1-.37-.43l.1-.27c.25-.12.41,0,.59.16a2.52,2.52,0,0,0,2.53.49c-.06-.11-.17-.16-.25-.25a1.22,1.22,0,0,1,0-1.68,1.36,1.36,0,0,1,1.13-.39,1.26,1.26,0,0,1,1,1,1.36,1.36,0,0,1-.61,1.4A4,4,0,0,1,35.58,26.68Zm.86-2.43a.54.54,0,0,0-.59.44.56.56,0,0,0,.28.69.59.59,0,0,0,.74-.05.57.57,0,0,0,.18-.66A.55.55,0,0,0,36.44,24.25Z" transform="translate(-0.1 -0.12)"/><path class="cls-9" d="M33.5,22.15a3.48,3.48,0,0,1,3.41-.08c.22.17.44.34.65.52a.3.3,0,0,1,.06.47c-.14.16-.31.12-.47,0a1.11,1.11,0,0,0-.39-.29,2.58,2.58,0,0,0-2.3-.35,1.45,1.45,0,0,1,.59.94,1.22,1.22,0,0,1-.63,1.27,1.32,1.32,0,0,1-1.53-.2C32.35,23.59,32.4,22.94,33.5,22.15Zm.3.75a.62.62,0,0,0-.61.65.64.64,0,0,0,.62.61.63.63,0,0,0,.63-.64A.62.62,0,0,0,33.8,22.9Z" transform="translate(-0.1 -0.12)"/><path class="cls-6" d="M32.89,24.42a1.32,1.32,0,0,0,1.53.2,1.22,1.22,0,0,0,.63-1.27,1.45,1.45,0,0,0-.59-.94,2.58,2.58,0,0,1,2.3.35l-.08.85a1.36,1.36,0,0,0-1.13.39,1.22,1.22,0,0,0,0,1.68c.08.09.19.14.25.25a2.52,2.52,0,0,1-2.53-.49c-.18-.15-.34-.28-.59-.16C32.67,25,32.9,24.73,32.89,24.42Z" transform="translate(-0.1 -0.12)"/><path class="cls-10" d="M5.08,24.72a1.77,1.77,0,0,1-.17.2c-.21.16-.23.3,0,.48s.26.34.08.53-.37.1-.5-.07-.38-.21-.54.05-.36.36-.55.53A.31.31,0,1,1,3,26c.19-.2.38-.41.59-.6s.23-.29,0-.45a.4.4,0,0,1-.14-.54.36.36,0,0,1,.54.06c.19.25.35.24.53,0a.83.83,0,0,1,.17-.15C4.69,24.56,4.81,24.72,5.08,24.72Z" transform="translate(-0.1 -0.12)"/><path class="cls-9" d="M32.23,31.91c0-.53,0-1.05,0-1.58s-.17-.86-.84-.93c-.21-.18-.3-.37-.07-.6a1.32,1.32,0,0,1,1.53,1.26c0,.33,0,.67,0,1,0,.59,0,1.18,0,1.77a.38.38,0,0,1-.6,0Z" transform="translate(-0.1 -0.12)"/><path class="cls-10" d="M32.27,32.85a.38.38,0,0,0,.6,0,.7.7,0,0,0,.37.19.28.28,0,0,1,.22.35.3.3,0,0,1-.33.25A.9.9,0,0,1,32.27,32.85Z" transform="translate(-0.1 -0.12)"/><path class="cls-6" d="M23.52,36.71l-1.2.16a.74.74,0,0,0,.1-.48c0-.65,0-1.31,0-2a.68.68,0,0,1,.46-.76c.48,0,.58.17.64.73Z" transform="translate(-0.1 -0.12)"/><path class="cls-10" d="M25.84,34.22a18.1,18.1,0,0,1,0,2,.93.93,0,0,0,.37-.7c.05-.23,0-.55.37-.51s.27.35.28.59a2.48,2.48,0,0,1-.61,1.18c-.08.08-.13.15,0,.23a.27.27,0,0,1,.11.4.3.3,0,0,1-.43.14,1.7,1.7,0,0,0-1.13-.15.31.31,0,1,1-.05-.61c.38,0,.49-.15.4-.5l0-.76a.33.33,0,0,0,.44.2c.19-.06.15-.24.15-.39C25.83,34.94,25.84,34.58,25.84,34.22Z" transform="translate(-0.1 -0.12)"/><path class="cls-10" d="M22.88,33.67a.68.68,0,0,0-.46.76c0,.65,0,1.31,0,2a.74.74,0,0,1-.1.48.48.48,0,0,1-.37,0,.56.56,0,0,1-.16-.49c0-.8,0-1.59,0-2.39,0-.15,0-.31-.14-.4,0,0,0,0,0,0-.22-.08-.52-.11-.42-.46a.42.42,0,0,1,.69-.1c.33.31.6.1.9.06A.42.42,0,0,0,22.88,33.67Z" transform="translate(-0.1 -0.12)"/><path class="cls-6" d="M25.23,35.49l0,.76c-.36,0-.69.24-1.06.24l0-2c0-.08,0-.15,0-.23.06-.46.23-.65.56-.64s.49.25.49.7S25.22,35.12,25.23,35.49Z" transform="translate(-0.1 -0.12)"/><path class="cls-10" d="M24.12,34.54l0,2c0,.16,0,.34-.22.41s-.31-.06-.41-.19V34.4C23.66,34.69,23.88,34.64,24.12,34.54Z" transform="translate(-0.1 -0.12)"/><path class="cls-9" d="M8.51,7.26l.1.12c.26.3.48.36.81,0s.46-.41.94,0l.53.45a.32.32,0,0,1,.07.48c-.14.15-.3.11-.45,0s-.39-.47-.64-.45-.4.29-.6.45a.37.37,0,0,1-.5,0l-.11-.1c-.51-.41-.52-.42-1,0a.49.49,0,0,1-.43.2A.45.45,0,0,1,7,8.25c0-.26.19-.36.3-.53a5,5,0,0,0,.5-.41A.46.46,0,0,1,8.51,7.26Z" transform="translate(-0.1 -0.12)"/><path class="cls-10" d="M8.68,10.32c-.53-.38-.54-.39-1,0a.45.45,0,0,1-.67,0c-.52-.44-.53-.43-1,0l-.26.17a.33.33,0,0,1-.36-.22c-.06-.17,0-.29.17-.39l.7-.59a.46.46,0,0,1,.42-.13s0,0,0,0c.22.18.41.46.66.51s.44-.29.66-.45a.35.35,0,0,1,.49,0l.58.5C8.91,10,8.68,10.08,8.68,10.32Z" transform="translate(-0.1 -0.12)"/><path class="cls-10" d="M7.29,7.72c-.11.17-.35.27-.3.53-.54-.39-.54-.4-1.1.05-.18.14-.37.22-.54,0s0-.36.13-.49l.15-.12C6.58,6.9,6.31,6.9,7.29,7.72Z" transform="translate(-0.1 -0.12)"/><path class="cls-10" d="M5.51,29.21c.13,0,.28,0,.37.07a.87.87,0,0,0,1,.09c-.23.22-.16.42.07.59a.55.55,0,0,0-.39.63c0,.6,0,1.19,0,1.78,0,.25.07.6-.3.6s-.32-.36-.33-.61v-2.1c0-.18,0-.34-.24-.42C5.21,29.68,5.19,29.53,5.51,29.21Z" transform="translate(-0.1 -0.12)"/><path class="cls-6" d="M9.16,33.23,8.09,32.3l0-1.56c.07-.56.21-.78.52-.77s.48.28.48.83v.12l0,1.93,0,.09h0Z" transform="translate(-0.1 -0.12)"/><path class="cls-10" d="M9.16,33.23l0-.28a.45.45,0,0,0,.56-.18c.08.22.15.45.4.54l0,0,0,0-.05,0c0-.1,0-.2,0-.3a.3.3,0,0,1,.54-.12,3.31,3.31,0,0,1,.31,1.06c0,.16-.13.23-.24.32l-.55.26c-.2.1-.42.21-.57,0s.05-.39.26-.52A2.36,2.36,0,0,1,9.16,33.23Z" transform="translate(-0.1 -0.12)"/><path class="cls-10" d="M8.06,30.74l0,1.56c0,.11,0,.23,0,.34S8,33,7.78,33s-.32-.13-.32-.34,0-.69,0-1l0-.93A.44.44,0,0,0,8.06,30.74Z" transform="translate(-0.1 -0.12)"/><path class="cls-6" d="M7.46,30.67l0,.93-.93-1A.55.55,0,0,1,6.9,30C7.37,30,7.44,30.3,7.46,30.67Z" transform="translate(-0.1 -0.12)"/><path class="cls-10" d="M3.25,16c0,.44,0,.89,0,1.33,0,.22,0,.41-.28.48s-.36-.24-.36-.49c0-.88,0-1.75,0-2.63,0-.28,0-.51-.38-.56A.26.26,0,0,1,2,13.8a.3.3,0,0,1,.35-.24.48.48,0,0,1,.32.09.7.7,0,0,0,.94.09.94.94,0,0,1,.34,0c-.22.2-.15.4,0,.6l-.24.08a.58.58,0,0,0-.48.61C3.24,15.33,3.25,15.68,3.25,16Z" transform="translate(-0.1 -0.12)"/><path class="cls-9" d="M4,14.3c-.15-.2-.22-.4,0-.6l.15,0A1.37,1.37,0,0,1,5.5,15.24V17l-.08.29c-.42.1-.53,0-.54-.39a1.77,1.77,0,0,1,0-.23V15.28C4.88,14.54,4.7,14.35,4,14.3Z" transform="translate(-0.1 -0.12)"/><path class="cls-10" d="M13.74,35.76a2,2,0,0,1,.68-2.26.74.74,0,0,1,.44-.22c0,.2,0,.41.27.5A1.36,1.36,0,0,0,14.65,36c0,.07.06.16.1.24a.39.39,0,0,1-.4.3H13.23c-.22,0-.4-.08-.4-.32s.18-.31.4-.31h.46C13.81,35.91,13.81,35.84,13.74,35.76Z" transform="translate(-0.1 -0.12)"/><path class="cls-9" d="M14.5,37.2h2.26a.38.38,0,0,1,.14.6,20.35,20.35,0,0,1-2.47,0A.38.38,0,0,1,14.5,37.2Z" transform="translate(-0.1 -0.12)"/><path class="cls-10" d="M14.5,37.2a.38.38,0,0,0-.07.6l-1.24,0c-.21,0-.36-.08-.36-.3a.32.32,0,0,1,.36-.32C13.63,37.19,14.06,37.2,14.5,37.2Z" transform="translate(-0.1 -0.12)"/><path class="cls-10" d="M16.9,37.8a.38.38,0,0,0-.14-.6H18c.21,0,.41.06.41.3s-.19.32-.42.32Z" transform="translate(-0.1 -0.12)"/><path class="cls-1" d="M19.93,14.16a5.82,5.82,0,1,1-5.82,5.71A5.85,5.85,0,0,1,19.93,14.16ZM16.9,16a.67.67,0,0,0-.17.08A4.86,4.86,0,0,0,15,21a5,5,0,0,0,7.46,3.28A3.75,3.75,0,0,0,23.89,23a.68.68,0,0,0,.25-.28,5,5,0,0,0-1.27-6.83A4.85,4.85,0,0,0,19,15,4,4,0,0,0,16.9,16Z" transform="translate(-0.1 -0.12)"/><path class="cls-11" d="M27.41,17.67a.39.39,0,0,1-.28.41.34.34,0,0,1-.43-.17c-.16-.36-.31-.73-.44-1.1a.34.34,0,0,1,.2-.42.31.31,0,0,1,.44.08A4.06,4.06,0,0,1,27.41,17.67Z" transform="translate(-0.1 -0.12)"/><path class="cls-10" d="M18.34,13.09c-.25,0-.41-.08-.45-.31a.37.37,0,0,1,.32-.45,9.34,9.34,0,0,1,1.06-.16.36.36,0,0,1,.42.35.36.36,0,0,1-.32.41Z" transform="translate(-0.1 -0.12)"/><path class="cls-12" d="M27.76,20.36c0,.2,0,.45-.08.71a.36.36,0,0,1-.4.34.37.37,0,0,1-.37-.41c0-.36,0-.72.08-1.08a.36.36,0,0,1,.4-.34.36.36,0,0,1,.37.37C27.77,20.07,27.76,20.18,27.76,20.36Z" transform="translate(-0.1 -0.12)"/><path class="cls-13" d="M13.61,23.14c0,.24-.09.37-.28.43a.32.32,0,0,1-.4-.13,3.6,3.6,0,0,1-.47-1.17.35.35,0,0,1,.23-.41.3.3,0,0,1,.41.1C13.3,22.36,13.46,22.78,13.61,23.14Z" transform="translate(-0.1 -0.12)"/><path class="cls-13" d="M12.93,19l-.06.92a.39.39,0,1,1-.77,0c0-.33.05-.66.07-1s.16-.42.42-.4S13,18.77,12.93,19Z" transform="translate(-0.1 -0.12)"/><path class="cls-13" d="M14.13,15.84a.5.5,0,0,1-.1.26c-.15.27-.3.54-.46.81a.38.38,0,0,1-.53.17.35.35,0,0,1-.16-.52c.17-.32.35-.63.54-.94a.35.35,0,0,1,.44-.15A.36.36,0,0,1,14.13,15.84Z" transform="translate(-0.1 -0.12)"/><path class="cls-13" d="M18.24,27.62a5.9,5.9,0,0,1-1.15-.36.35.35,0,0,1-.19-.45.34.34,0,0,1,.42-.26,10.19,10.19,0,0,1,1.11.34.34.34,0,0,1,.22.44A.4.4,0,0,1,18.24,27.62Z" transform="translate(-0.1 -0.12)"/><path class="cls-12" d="M22.51,13.39c-.35-.11-.75-.21-1.13-.36a.33.33,0,0,1-.18-.42.36.36,0,0,1,.42-.28,4.56,4.56,0,0,1,1.14.35.35.35,0,0,1,.19.46C22.89,13.32,22.75,13.4,22.51,13.39Z" transform="translate(-0.1 -0.12)"/><path class="cls-13" d="M15.26,26.18a.34.34,0,0,1-.22-.1c-.28-.25-.56-.49-.82-.76a.34.34,0,0,1,0-.51.35.35,0,0,1,.52,0c.28.23.54.48.8.72a.38.38,0,0,1,.07.46A.38.38,0,0,1,15.26,26.18Z" transform="translate(-0.1 -0.12)"/><path class="cls-13" d="M25,25.84c0,.05-.05.15-.11.2a4.44,4.44,0,0,1-1,.7.33.33,0,0,1-.44-.11.35.35,0,0,1,0-.49,7.59,7.59,0,0,1,1-.7C24.67,25.3,25,25.53,25,25.84Z" transform="translate(-0.1 -0.12)"/><path class="cls-13" d="M21.53,26.85c.24,0,.4.09.43.32a.34.34,0,0,1-.29.43,8.51,8.51,0,0,1-1.11.17.36.36,0,0,1-.4-.34.35.35,0,0,1,.32-.41C20.83,27,21.19,26.91,21.53,26.85Z" transform="translate(-0.1 -0.12)"/><path class="cls-13" d="M16.53,13.54a.36.36,0,0,1-.19.35l-.82.57a.36.36,0,0,1-.54-.08.34.34,0,0,1,.08-.53,7.9,7.9,0,0,1,.92-.63A.36.36,0,0,1,16.53,13.54Z" transform="translate(-0.1 -0.12)"/><path class="cls-11" d="M24.56,13.76a.37.37,0,0,1,.27.1l.76.71a.35.35,0,0,1,0,.55.37.37,0,0,1-.56,0c-.26-.23-.51-.47-.76-.71a.37.37,0,0,1-.09-.43A.37.37,0,0,1,24.56,13.76Z" transform="translate(-0.1 -0.12)"/><path class="cls-10" d="M26.63,22.82a.36.36,0,0,1,.36.5,4.11,4.11,0,0,1-.59,1,.38.38,0,0,1-.64-.38c.17-.34.37-.67.57-1A.32.32,0,0,1,26.63,22.82Z" transform="translate(-0.1 -0.12)"/><path class="cls-9" d="M33.35,9.43a2,2,0,0,1-.83,1.79c-.23-.08-.39-.2-.34-.48l.22-.26a1.51,1.51,0,0,0-.81-2.35A1.63,1.63,0,0,0,30,8.59c-.29,0-.45-.1-.42-.41l.24-.3.78-.38a3,3,0,0,1,.85-.07.88.88,0,0,0,1.15-.74c0-.24.08-.47.37-.41s.28.32.24.55a1.45,1.45,0,0,1-.5.89c-.14.12-.21.19,0,.35A2.17,2.17,0,0,1,33.35,9.43Z" transform="translate(-0.1 -0.12)"/><path class="cls-9" d="M15.13,33.78c-.23-.09-.24-.3-.27-.5h0l.1-.05a1.53,1.53,0,0,1,.69-.17,4.71,4.71,0,0,1,.91.25l.1.08h0a2,2,0,0,1,.71,2.5,2.5,2.5,0,0,1-.48.64.32.32,0,0,1-.42-.17.28.28,0,0,1,.06-.35,1.34,1.34,0,0,0-1.33-2.23Z" transform="translate(-0.1 -0.12)"/><path class="cls-7" d="M16.67,33.39l-.1-.08Z" transform="translate(-0.1 -0.12)"/><path class="cls-9" d="M8.68,10.32c0-.24.23-.33.32-.51a5.08,5.08,0,0,0,.51-.41.45.45,0,0,1,.75,0,4.46,4.46,0,0,0,.42.34c.15.2.55.35.27.67s-.46-.06-.68-.15c-.48-.47-.32-.41-.89.07C9.11,10.57,8.9,10.62,8.68,10.32Z" transform="translate(-0.1 -0.12)"/><path class="cls-9" d="M24.12,34.54c-.24.1-.46.15-.6-.14-.06-.56-.16-.68-.64-.73a.42.42,0,0,1-.08-.59.76.76,0,0,1,.78.16.32.32,0,0,0,.51,0,1.7,1.7,0,0,1,.41-.18,1.18,1.18,0,0,1,1.34,1.17c0,.36,0,.72,0,1.08,0,.15,0,.33-.15.39a.33.33,0,0,1-.44-.2c0-.37,0-.75,0-1.12s-.17-.68-.49-.7-.5.18-.56.64C24.15,34.39,24.13,34.46,24.12,34.54Z" transform="translate(-0.1 -0.12)"/><path class="cls-10" d="M29.61,8.18c0,.31.13.42.42.41A1.62,1.62,0,0,0,29.74,10a1.52,1.52,0,0,0,2.44.77c0,.28.11.4.34.48a2,2,0,0,1-1.5.5,2.16,2.16,0,0,1-2-2.06A2.07,2.07,0,0,1,29.61,8.18Z" transform="translate(-0.1 -0.12)"/><path class="cls-6" d="M14.72,7.17A8.88,8.88,0,0,0,15,6c.08-.54.08-.54.63-.57.29.08.69-.14.87.11a2.3,2.3,0,0,1,.14.9,1.15,1.15,0,0,0,.06.17,7.5,7.5,0,0,0-1.54.43A1,1,0,0,1,14.72,7.17Z" transform="translate(-0.1 -0.12)"/><path class="cls-6" d="M14.67,7.25l.06-.08Z" transform="translate(-0.1 -0.12)"/><path class="cls-10" d="M5.51,17v-.83a1.5,1.5,0,0,1,1.14,0,1.26,1.26,0,0,1,.69,1.34A1.23,1.23,0,0,1,6.21,18.6c-.8-.05-1-.18-1.44-1.13-.17.11-.17.29-.19.47a1,1,0,0,1-.84.84c-.21,0-.38,0-.42-.24a.27.27,0,0,1,.25-.36A.46.46,0,0,0,4,17.7a1.11,1.11,0,0,1,.9-1,1.77,1.77,0,0,0,0,.23c0,.41.12.49.54.39.19.59.42.74.93.56s.48-.56.17-1S5.92,16.63,5.51,17Z" transform="translate(-0.1 -0.12)"/><path class="cls-9" d="M5.08,24.72c-.27,0-.39-.16-.42-.41l1.6-1.44-.11-.17H5c-.22,0-.44,0-.44-.31s.2-.32.43-.32H6.44c.95,0,.86,0,.86.86,0,.49,0,1,0,1.47a.4.4,0,0,1-.25.43c-.29,0-.38-.2-.37-.48s0-.71,0-1.15Z" transform="translate(-0.1 -0.12)"/><path class="cls-10" d="M31.33,28.8c-.23.23-.14.42.07.6-.62.07-.78.25-.78.86s0,1.45,0,2.17a1.28,1.28,0,0,1-1.18,1.26,1.26,1.26,0,0,1-1.32-1.06,1.24,1.24,0,0,1,1.57-1.39c.32.08.32,0,.31-.26s0-.57,0-.85A1.27,1.27,0,0,1,31.33,28.8ZM30,32.43a.64.64,0,0,0-1.27,0,.65.65,0,0,0,.63.65A.66.66,0,0,0,30,32.43Z" transform="translate(-0.1 -0.12)"/><path class="cls-9" d="M7.46,30.67c0-.37-.09-.7-.56-.71-.23-.17-.3-.37-.07-.59a.84.84,0,0,1,.76.18.23.23,0,0,0,.35,0,1.07,1.07,0,0,1,1.69.66,4.89,4.89,0,0,1,0,1.08c0,.49,0,1,0,1.47a.45.45,0,0,1-.56.18h0l0-.09,0-1.93V30.8c0-.55-.16-.82-.48-.83s-.45.21-.52.77A.44.44,0,0,1,7.46,30.67Z" transform="translate(-0.1 -0.12)"/><path class="cls-10" d="M16.9,36.53a2.5,2.5,0,0,0,.48-.64l.65,0c.19,0,.33.1.34.3a.31.31,0,0,1-.35.32C17.65,36.55,17.28,36.54,16.9,36.53Z" transform="translate(-0.1 -0.12)"/><path class="cls-3" d="M3.25,16c0-.34,0-.69,0-1a.58.58,0,0,1,.48-.61A7.16,7.16,0,0,1,3.25,16Z" transform="translate(-0.1 -0.12)"/><path class="cls-10" d="M30.63,7.5l-.78.38a1.51,1.51,0,0,1-.7-1.19c0-.21,0-.4.28-.42s.32.14.33.34A.94.94,0,0,0,30.63,7.5Z" transform="translate(-0.1 -0.12)"/><path class="cls-10" d="M15,33.23l-.1.05Z" transform="translate(-0.1 -0.12)"/><path class="cls-6" d="M36.52,15.71l0,1c0,.26.07.61-.06.78s-.51,0-.77,0c-.65,0-.64,0-.65-.62s0-1.36,0-2.05h1.23A1.92,1.92,0,0,0,36.52,15.71Z" transform="translate(-0.1 -0.12)"/><path class="cls-2" d="M36.52,15.71a1.92,1.92,0,0,1-.23-.84c.17,0,.27,0,.25.19S36.53,15.49,36.52,15.71Z" transform="translate(-0.1 -0.12)"/><path class="cls-3" d="M36.44,24.25a.55.55,0,0,1,.61.42.57.57,0,0,1-.18.66.59.59,0,0,1-.74.05A6.54,6.54,0,0,0,36.44,24.25Z" transform="translate(-0.1 -0.12)"/><path class="cls-6" d="M36.44,24.25a6.54,6.54,0,0,1-.31,1.13.56.56,0,0,1-.28-.69A.54.54,0,0,1,36.44,24.25Z" transform="translate(-0.1 -0.12)"/><path class="cls-6" d="M33.8,22.9a.62.62,0,0,1,.64.62.63.63,0,0,1-.63.64.64.64,0,0,1-.62-.61A.62.62,0,0,1,33.8,22.9Z" transform="translate(-0.1 -0.12)"/><path class="cls-10" d="M9.09,32.85l0,.09Z" transform="translate(-0.1 -0.12)"/><path class="cls-7" d="M10.09,33.3l.05,0,0,0,0,0Z" transform="translate(-0.1 -0.12)"/><path class="cls-6" d="M5.51,17c.41-.41.63-.43,1-.12a3.53,3.53,0,0,0-.17,1c-.51.18-.74,0-.93-.56Z" transform="translate(-0.1 -0.12)"/><path class="cls-4" d="M16.9,16A4,4,0,0,1,19,15a4.85,4.85,0,0,1,3.88.87,5,5,0,0,1,1.27,6.83.68.68,0,0,1-.25.28,5.59,5.59,0,0,1-3.41.07c.28-.49.28-.49.8-.3l.44.16c.41.14.47.09.47-.34,0-1,0-1,.92-1.27.44-.14.47-.21.18-.58-.59-.77-.59-.77,0-1.53.29-.38.26-.46-.2-.6-.92-.27-.92-.27-.9-1.25,0-.45-.06-.5-.49-.34-.92.32-.92.32-1.47-.49-.26-.38-.34-.38-.6,0-.56.81-.56.81-1.49.49-.41-.14-.48-.09-.47.34,0,1,0,1-1,1.28a2.25,2.25,0,0,1-.08-.52A6.81,6.81,0,0,1,16.9,16Z" transform="translate(-0.1 -0.12)"/><path class="cls-14" d="M16.9,16a6.81,6.81,0,0,0-.31,2.1,2.25,2.25,0,0,0,.08.52c-.35.1-.35.29-.13.54s.25.33.39.48a.4.4,0,0,1,0,.63,6.51,6.51,0,0,0-.46.58c-.17.21-.11.35.14.42a7.59,7.59,0,0,0,.78.22.33.33,0,0,1,.29.39c0,.24,0,.49,0,.73,0,.4.07.45.46.32a5.77,5.77,0,0,0,.58-.22.4.4,0,0,1,.6.21c.12.21.27.41.41.61s.28.2.42,0l.34-.47A5.59,5.59,0,0,0,23.89,23a3.75,3.75,0,0,1-1.42,1.32A5,5,0,0,1,15,21a4.86,4.86,0,0,1,1.72-4.95A.67.67,0,0,1,16.9,16Z" transform="translate(-0.1 -0.12)"/><path class="cls-7" d="M32.18,10.74A1.52,1.52,0,0,1,29.74,10,1.62,1.62,0,0,1,30,8.59a1.63,1.63,0,0,1,1.56-.46,1.51,1.51,0,0,1,.81,2.35Z" transform="translate(-0.1 -0.12)"/><path class="cls-5" d="M6.36,17.89a3.53,3.53,0,0,1,.17-1C6.84,17.33,6.79,17.62,6.36,17.89Z" transform="translate(-0.1 -0.12)"/><path class="cls-6" d="M30,32.43a.66.66,0,0,1-.64.64.65.65,0,0,1-.63-.65.64.64,0,0,1,1.27,0Z" transform="translate(-0.1 -0.12)"/><path class="cls-15" d="M20.48,23.07l-.34.47c-.14.2-.29.2-.42,0s-.29-.4-.41-.61a.4.4,0,0,0-.6-.21,5.77,5.77,0,0,1-.58.22c-.39.13-.46.08-.46-.32,0-.24,0-.49,0-.73a.33.33,0,0,0-.29-.39,7.59,7.59,0,0,1-.78-.22c-.25-.07-.31-.21-.14-.42a6.51,6.51,0,0,1,.46-.58.4.4,0,0,0,0-.63c-.14-.15-.26-.33-.39-.48s-.22-.44.13-.54c1-.25,1-.25,1-1.28,0-.43.06-.48.47-.34.93.32.93.32,1.49-.49.26-.37.34-.37.6,0,.55.81.55.81,1.47.49.43-.16.5-.11.49.34,0,1,0,1,.9,1.25.46.14.49.22.2.6-.59.76-.59.76,0,1.53.29.37.26.44-.18.58-.93.29-.93.29-.92,1.27,0,.43-.06.48-.47.34l-.44-.16C20.76,22.58,20.76,22.58,20.48,23.07Zm.39-1.91c.1,0,.2-.05.3-.06.39,0,.53-.24.37-.6a.61.61,0,0,1,.12-.68c.17-.23.17-.44-.13-.55a.76.76,0,0,1-.51-.66c0-.3-.2-.37-.46-.27a.77.77,0,0,1-.83-.12c-.23-.19-.41-.1-.51.16a.82.82,0,0,1-.54.5c-.44.06-.49.11-.35.5a.76.76,0,0,1-.12.76c-.17.23-.17.39.11.51a.83.83,0,0,1,.53.72c0,.25.17.33.41.23a.81.81,0,0,1,.71,0c.49.26.5.25.78-.26Z" transform="translate(-0.1 -0.12)"/><path class="cls-11" d="M18.68,18.88a.82.82,0,0,0,.54-.5c.1-.26.28-.35.51-.16a.77.77,0,0,0,.83.12c.26-.1.42,0,.46.27a.76.76,0,0,0,.51.66c.3.11.3.32.13.55a.61.61,0,0,0-.12.68c.16.36,0,.56-.37.6l-.3,0A5.39,5.39,0,0,1,18.68,18.88Z" transform="translate(-0.1 -0.12)"/><path class="cls-12" d="M18.68,18.88a5.39,5.39,0,0,0,2.19,2.27l-.12.2c-.28.51-.29.52-.78.26a.81.81,0,0,0-.71,0c-.24.1-.39,0-.41-.23a.83.83,0,0,0-.53-.72c-.28-.12-.28-.28-.11-.51a.76.76,0,0,0,.12-.76C18.19,19,18.24,18.94,18.68,18.88Z" transform="translate(-0.1 -0.12)"/></svg>