<svg xmlns="http://www.w3.org/2000/svg" width="42" height="42">
    <path fill-rule="evenodd" fill="#FFF" d="M21 0c11.597 0 21 9.402 21 21 0 11.597-9.403 21-21 21C9.402 42 0 32.597 0 21 0 9.402 9.402 0 21 0z"/>
    <path fill-rule="evenodd" d="M14.824 21.24c0-2.692.004-5.384-.003-8.076-.001-.447.071-.842.502-.234.411-1.056 1.647-.73 1.135-.677 4.183 2.693 8.371 5.38 12.672 8.072.745.554.744 1.277-.01 1.832-4.293 2.691-8.48 5.379-12.664 8.071.504.232-.723.38-1.135.159-.429-.23-.501-.625-.5-1.072.007-2.692.003-5.384.003-8.075z"/>
</svg>
