<svg xmlns="http://www.w3.org/2000/svg" width="13" height="12">
    <path fill-rule="evenodd" fill="#323232" d="M12.52 3.573c-.148.958-.298 1.915.21 2.873-.788.849-.917 1.698-1.048 2.548-.055.358-.108.716-.17 1.686-.052-.309-.278-.184-.585-.284-.771-.252-1.542-.507-2.313-.76l-3.222-1.06c-.027-.009-.052-.021-.092-.037l5.449-6.323a.2.2 0 0 0-.014-.016c-.021.013-.046.023-.065.038-1.949 1.605-3.898 3.21-5.847 5.292-.357-.183-.715.11-1.069.407-.066.055-.124.062-.205.035A939.617 939.617 0 0 0 .316 6.905C.133 6.845.16 6.735.1 6.549c.02-.189.81-.312.16-.397C2.983 4.784 5.705 3.415 8.427 2.46 9.73 1.391 11.33.736 12.335.78c.17-.08.335-.36.499-.05.163-.543.346-.385.154-.2-.16 1.014-.312 2.029-.468 3.043zM6.937 9.91c-.021.033-.036.06-.054.084l-1.374 1.802c-.134.176-.283.514-.099.188-.535-.041-.662-.175-.663-.341-.004-.803-.002-1.273-.002-2.408 0-.011.007-.022.014-.042l2.178.717z"/>
</svg>
