<svg xmlns="http://www.w3.org/2000/svg" width="17.125" height="13.72" viewBox="0 0 17.125 13.72">
  <defs>
    <style>
      .cls-1 {
        fill: #6c6c6c;
        fill-rule: evenodd;
      }
    </style>
  </defs>
  <path id="camera" class="cls-1" d="M517.045,1747.77a2.766,2.766,0,1,1-2.766-2.72A2.738,2.738,0,0,1,517.045,1747.77Zm5.81-3.86v7.72a1.877,1.877,0,0,1-1.9,1.86H507.6a1.877,1.877,0,0,1-1.9-1.86v-7.72a1.877,1.877,0,0,1,1.9-1.86h2.332v-0.65a1.645,1.645,0,0,1,1.66-1.63h5.374a1.644,1.644,0,0,1,1.659,1.63v0.65h2.333A1.877,1.877,0,0,1,522.855,1743.91Zm-4.388,3.86a4.189,4.189,0,1,0-4.188,4.11A4.16,4.16,0,0,0,518.467,1747.77Z" transform="translate(-505.719 -1739.78)"/>
</svg>
