<svg xmlns="http://www.w3.org/2000/svg" width="42" height="42">
    <path fill-rule="evenodd" fill="#FFF" d="M21 0c11.597 0 21 9.402 21 21 0 11.597-9.403 21-21 21C9.402 42 0 32.597 0 21 0 9.402 9.402 0 21 0z"/>
    <path fill-rule="evenodd" d="M29.671 29.999h-16.57c-1.193-.001-1.901-.898-2.001-2.081-.1-4.152-.101-8.303-.101-12.454 0-1.168.908-2.079 2.681-2.082 1.06-.001 2.11.008 3.16-.008-.607-.003-.422-.082-.319-.189 1.009-.553 1.035-.665 2.339-1.687-.677-.102-.504-.183-.365-.184 1.924-.012 3.848-.012 5.772 0a.64.64 0 0 1 .411.18c.53.986 1.034 1.133 1.565 1.687.103.107.287.19.435.192 1.005.017 2.011.008 3.016.009a2.05 2.05 0 0 1 2.072 2.077v12.454c0 2.067-.905 2.085-2.095 2.086zm-8.282-13.483a5.183 5.183 0 0 0-5.182 5.202c0 2.834 2.339 5.149 5.204 5.15 2.807 0 5.145-2.335 5.147-5.14.001-2.887-2.305-5.212-5.169-5.212zm-.033 8.634c-1.857-.03-2.806-1.61-2.756-3.495.04-1.841.934-3.291 2.795-3.289 1.865.001 3.315 1.465 3.313 3.344-.003 1.862-1.47 3.47-3.352 3.44z"/>
</svg>
