<svg xmlns="http://www.w3.org/2000/svg" width="12" height="18">
    <path fill-rule="evenodd" fill="#494949" d="M11.299 15.829c0 1.155-.805 1.958-1.962 1.958H1.958C.804 17.787.3 16.981.3 15.829c.1-2.283 0-4.566 0-6.849 0-2.27.1-4.54 0-6.81C.3 1.3.799.202 1.968.202h7.359c1.171 0 1.972.998 1.972 1.968v13.659zm-10.048 0c.001.446.26.703.71.703h7.376c.449 0 1.093-.257 1.103-.706.02-.549.01-1.098 0-1.647 0-.05-.08.611-.13.081H1.25c0 .381-.001.975.001 1.569zM3.407 1.466c.067.427.284 1.394.694 1.394 1.032.01 2.064.01 3.095 0 .41 0 .63-.972.691-1.394h-4.48zm7.043 11.093V2.199c0-.046.01-.092-.02.421-.3-.917-.698-1.175-1.058-1.158a.226.226 0 0 0-.16.114c-.072.167.678.343.098 1.344-.537-.069-.42.423-2.019.423H3.995a1.819 1.819 0 0 1-1.727-1.241c-.061-.179-.115-.361.542-.535-.21-.049-.824-.102-.876-.106-.405-.023-.683.267-.683.706v10.419c0 .056.007.112.011.17h9.188v-.197zm-4.175 3.344c.385.003-.419 0-.628 0-.209 0-.419.003-.457 0-.534-.006-.801-.28-.798-.638.004-.346.271-.613.798-.616a64.5 64.5 0 0 1 1.085 0 .62.62 0 0 1 .628.617.62.62 0 0 1-.628.637z"/>
</svg>
