<svg xmlns="http://www.w3.org/2000/svg" width="15" height="15">
    <path fill-rule="evenodd" fill="#323232" d="M9.186 11.36c-.704-.091-1.392.224-1.476.363-3.23.58-6.22-1.591-7.09-4.622C.193 4.89 2.42 1.403 4.989.756 8.192.52 11.375 2.375 11.7 5.627c.122 1.214-.125 2.332-.72 3.973-.118-.386-.087-.281.53-.126 1.44 1.03 1.62 2.069 2.658 3.106.301.302.303.379.001.686-.336.34-.676.677-1.019 1.012-.267.26-.354.262-.616.001a1521.292 1521.292 0 0 1-3.113-3.11c-.073.791-.13.431-.194-.245-.013.037-.027.074-.041.436zM6.132 2.406c-1.932.005-3.82 1.717-3.816 3.825.003 2.105 2.094 4.309 3.83 4.319 2.091 0 3.838-2.247 3.825-4.33a3.837 3.837 0 0 0-3.839-3.814z"/>
</svg>
