<svg xmlns="http://www.w3.org/2000/svg" width="50.907" height="44.12" viewBox="0 0 50.907 44.12">
  <defs>
    <style>
      .cls-1 {
        fill: #f4c219;
        fill-rule: evenodd;
      }
    </style>
  </defs>
  <path id="_copy_2" data-name="“ copy 2" class="cls-1" d="M513.056,1773.43q-9.54,7.425-14.4,14.77t-4.862,14.31a16.278,16.278,0,0,0,3.532,10.82,11.453,11.453,0,0,0,9.218,4.22,9.959,9.959,0,0,0,7.063-2.66,8.567,8.567,0,0,0,2.843-6.51,9.584,9.584,0,0,0-2.018-6.19,12.221,12.221,0,0,0-6.054-3.81,9.972,9.972,0,0,1-4.173-2.2,4.7,4.7,0,0,1-1.238-3.4q0-3.3,3.3-7.47a55.143,55.143,0,0,1,9.814-9.13Zm28.251,0q-9.447,7.335-14.308,14.72t-4.862,14.36a16.151,16.151,0,0,0,3.577,10.82,11.493,11.493,0,0,0,9.173,4.22,9.8,9.8,0,0,0,7.017-2.66,8.63,8.63,0,0,0,2.8-6.51,9.554,9.554,0,0,0-2.018-6.24,12.425,12.425,0,0,0-5.87-3.76,10.024,10.024,0,0,1-4.265-2.2,4.7,4.7,0,0,1-1.238-3.4c0-2.2,1.1-4.7,3.3-7.52a54.133,54.133,0,0,1,9.631-9.08Z" transform="translate(-493.781 -1773.44)"/>
</svg>
