<svg xmlns="http://www.w3.org/2000/svg" width="49" height="30">
    <path fill-rule="evenodd" stroke="#000" fill="#121212" d="M15.452 3.499h18.687c6.244.065 11.254 5.183 11.19 11.431-.063 6.95-5.036 11.72-11.19 11.198H15.452c-6.245.512-11.255-5.182-11.191-11.431.064-6.158 5.037-11.134 11.191-11.198z"/>
    <path fill-rule="evenodd" fill="#FF9C00" d="M29.688 8.49c-.168-.713-.083-1.069.189-1.237a.176.176 0 0 1 .023-.014c.28.521.64-.069.804.212l.002.003.766 1.322c.164.834.066.648-.219.812a.595.595 0 0 1-.812-.218l-.753-.89v.01zm4.73 2.01c2.935-.1 5.316 1.882 5.317 4.818a5.315 5.315 0 1 1-9.069-3.759c.994-.996 2.444-1.159 3.752-1.059zm-.475-3.845c0-.329.266-.055.594-.055.328 0 .595-.274.595.055v1.526a.595.595 0 0 1-1.189 0V6.655zm4.399.925a.588.588 0 0 1 1.04.55l-.022.038-.753 1.322c-.163.284.203.383-.81.22a.593.593 0 0 1-.221-.81l.766-1.321v.001zm3.33 2.994a.605.605 0 0 1 .819.216c.162.96.062.646-.222.808l-.003.001-1.308.761a.602.602 0 0 1-.819-.215c-.161-.286.641-.648.225-.81l1.308-.761zm2.048 4.264c-.319-.001-.052.264-.051.593.001.328-.264.839.101.849H41.553c-.328.01-.595-.516-.597-.845a.596.596 0 0 1 .593-.597h2.171zm-1.572 4.396c.28.164.379.522.224 1.186-.163-.097-.523 0-.806-.16l-1.321-.762c-.283-.16-.383-.52-.015-.803-.046-.283.313-.383.596-.222l1.322.761zm-3 3.34a.578.578 0 0 1-.187.795l-.024.014a.589.589 0 0 1-.804-.212l-.002-.004-.766-1.321c-.164-.285-.066-.649.218-.516.285-.46.648-.363.812-.078l.753 1.322zm-4.254 1.395a.594.594 0 1 1-1.189 0v-1.514a.595.595 0 1 1 1.189 0v1.522-.008zm-4.4-.529c-.152-.109-.507.001-.794-.151a.587.587 0 0 1-.223-.833l.753-1.321c.163-.285.525-.384 1.17-.221-.076.856.023.525-.14.81l-.766 1.736v-.02zm-3.329-2.93c-.287-.296-.651-.393-.819-.676-.162-.284-.063-.646.222-.564l.002-.02 1.308-.989a.593.593 0 0 1 .595 1.026l-1.308 1.223zm-1.401-4.724a.594.594 0 1 1-.004-1.189h1.524a.593.593 0 1 1 .004 1.189h-1.524zm.925-4.396a.602.602 0 0 1-.225-.807.593.593 0 0 1 .806-.218l1.321.761a.59.59 0 0 1 .223.803c-.161.284-.521.383-.714.223l-1.411-.762z"/>
</svg>
