<svg xmlns="http://www.w3.org/2000/svg" width="17" height="17">
    <path fill-rule="evenodd" fill="#555D67" d="M16.478 9.138c-.093.279-.219.537-.098.739-.626.261-.959.399-1.04.404h-.571v.188c0 1.751.003 3.106-.001 4.658-.002.85-.541 1.535-1.353 1.727a2.027 2.027 0 0 1-.439.046c-.824.005-1.648.003-2.472.002-.358 0-.548-.189-.548-.546-.001-1.215-.014-2.43.005-3.644.009-.535-.359-.925-.381-.907-.96.015-1.399.016-1.837 0-.537-.02-.921.356-.911.915.02 1.199.006 2.398.006 3.597 0 .411-.176.585-.589.585H3.84c-1.062-.002-1.58-.751-1.59-1.032-.02-2.315 0-3.63 0-5.378v-.194c-.408-.015-.583-.015-.75-.047-.566-.111-.952-.447-1.134-.99-.181-.537-.069-1.03.298-1.463.041-.048.087-.093.132-.137 2.158-2.159 4.315-4.32 6.479-6.472.168.031.375-.333.594-.402C8.424.611 8.967.654 9.416 1.84c.275-.494.541-.221.809.048 1.875 1.874 3.748 3.751 5.627 5.622.273.271.518 1.12.626.931v.697zM5.887 15.949v-.205c.002-1.073-.009-2.145.007-3.216.013-.844.689-1.586 1.531-1.643 1.285-.044 1.297-.009 1.946-.007.052 0 .105.012.156.024.83 1.008 1.374.869 1.378 1.738.005 1.041.001 2.081.001 3.121v.191h2.004c.596 0 .908-.312.908-.502l.001-5.585c0-.337.311-.531.53-.534.227-.001.455.003.961-.001-.033-.006.163-.164.228-.403.073-.267-.064-.45-.241-.627-2.141-2.138-4.127-4.08-6.42-6.418-.345-.345-.614-.344-.961.002C6.8 3.792 4.1 5.7 2.192 7.608c-.262.262-.525.522-.784.785-.173.175-.225.383-.127.907.095-.078.274.031.514.031h.571c.442 0 .609.169.609.614 0 1.727-.001 3.454.001 5.181 0 .443.299.806.718.817.723.02 1.446.006 2.193.006z"/>
</svg>
