<svg xmlns="http://www.w3.org/2000/svg" width="17" height="17">
    <path fill-rule="evenodd" fill="#DC2229" d="M16.478 9.139c-.093.278-.219.536-.098.739-.626.26-.959.398-1.04.403-.385.002-.464.001-.571.001v.188c0 1.75.003 3.105-.001 4.658-.002.849-.541 1.535-1.353 1.726a1.904 1.904 0 0 1-.439.046c-.824.005-1.648.003-2.472.002-.358 0-.548-.188-.548-.546-.001-1.215-.014-2.43.005-3.644.009-.535-.359-.925-.381-.906-.96.014-1.399.016-1.837-.001-.537-.02-.921.356-.911.915.02 1.199.006 2.398.006 3.597 0 .411-.176.585-.589.586-.803 0-1.606.001-2.408-.001-1.063-.001-1.571-.751-1.591-1.032-.02-2.315 0-3.63 0-5.378v-.194c-.408-.015-.583-.014-.75-.047-.566-.111-.952-.447-1.134-.99-.181-.537-.069-1.03.298-1.463.041-.048.087-.093.132-.137 2.158-2.159 4.315-4.319 6.479-6.472.168.031.375-.333.594-.402C8.424.612 8.967.654 9.416 1.84c.275-.494.541-.221.81.048 1.874 1.874 3.747 3.751 5.626 5.622.273.272.518 1.12.626.932v.697zm-10.591 6.81v-.205c.002-1.072-.008-2.144.007-3.216.013-.844.689-1.586 1.531-1.643 1.285-.043 1.297-.009 1.946-.007.052 0 .105.012.156.024.83 1.008 1.374.869 1.378 1.738.005 1.041.001 2.081.001 3.121v.191h2.004c.596 0 .908-.311.909-.502V9.865c0-.337.311-.531.53-.533.228-.002.455.003.961-.002-.032-.006.163-.164.228-.402.073-.268-.064-.451-.241-.628-2.141-2.138-4.127-4.08-6.42-6.417-.345-.346-.614-.345-.961.001C6.8 3.793 4.1 5.701 2.192 7.609c-.262.261-.524.521-.784.784-.173.175-.225.383-.127.907.095-.078.274.031.515.031h.57c.442.001.609.169.609.614 0 1.727-.001 3.454.001 5.181.001.443.299.806.718.817.723.02 1.447.006 2.193.006z"/>
</svg>
