<svg xmlns="http://www.w3.org/2000/svg" width="18" height="16">
    <path fill-rule="evenodd" fill="#DC2229" d="M17.693 14.601c0 .07-.001.143-.017.212-.072.316-.315.481-.703.481-5.098 0-10.196-.002-15.293.006-.382 0-.46-.107-.809-.468V1.359c.117-.089.342-.495.705-.495C6.717.868 11.859.866 17 .867c.446 0 .693.246.693.69v13.044zM16.7 1.862H1.871v9.336c.071-.029.105-.079.309.562.798-1.645 1.759-2.604 2.717-3.566.573.236.321-.249.528.306.124-.1.246-.375.339-.283.906.898 1.806 1.973 2.722 2.719.056-.053.1-.093.142-.135 1.552-1.389 2.779-2.591 4.169-4.169.311-.311.579-.31.891.002l2.869 2.869c.041.04.084.078.143.133V1.862zm.008 12.275c0-.98.002-1.96-.005-2.94 0-.086-.044.303-.105-.253-1.071-1.081-2.149-2.156-3.223-3.234-.042-.042-.061-.104-.091-.157l-.076.018c-.039.053-.072.113.692.159-2.183 1.375-3.558 2.75-4.932 4.124-.356.357-.596.358-.778.006-1.003-.58-1.836-1.664-2.668-2.497-.061-.062-.114-.132-.169-.196-.043.02-.049.021-.052.025-1.128 1.126-1.841 2.251-3.379 3.38a.268.268 0 0 0-.063.173c-.005.384-.002.767-.002 1.15v.401h14.851v-.159zM8.486 7.374a1.683 1.683 0 0 1-1.672-1.687c.004-.925.762-1.557 1.69-1.507.919.05 1.672.609 1.666 1.533a1.69 1.69 0 0 1-1.684 1.661zM8.497 5.5c-.381-.3-.691-.197-.697.182-.006 1.018 1.19.703.684.706.385.003.701.392.699-.694-.001-.378-.309.006-.686-.194z"/>
</svg>
