<svg xmlns="http://www.w3.org/2000/svg" width="18" height="16">
    <path fill-rule="evenodd" fill="#555D67" d="M17.693 14.601a.939.939 0 0 1-.017.212c-.072.316-.315.481-.703.482-5.098 0-10.196-.003-15.293.005-.382.001-.46-.107-.809-.468V1.36c.117-.09.342-.496.705-.496C6.717.868 11.859.867 17 .867c.446 0 .693.246.693.69v13.044zM16.7 1.862H1.871v9.336c.071-.029.105-.079.309.562.798-1.645 1.759-2.604 2.717-3.566.573.246.321-.249.528.306.124-.09.246-.375.339-.283.906.898 1.806 1.973 2.722 2.719.056-.052.1-.092.142-.134 1.552-1.39 2.779-2.582 4.169-4.17.311-.311.579-.31.891.002l2.869 2.869c.041.04.084.078.143.133V1.862zm.008 12.275c0-.98.003-1.96-.005-2.94 0-.086-.044.303-.105-.253-1.071-1.081-2.149-2.155-3.223-3.234-.041-.041-.061-.104-.091-.157l-.076.019c-.039.053-.072.112.692.158-2.183 1.376-3.558 2.75-4.932 4.125-.356.356-.596.358-.778.005-1.003-.58-1.836-1.664-2.668-2.497-.061-.062-.114-.132-.169-.195-.042.019-.049.02-.052.024-1.128 1.126-1.841 2.251-3.379 3.38a.266.266 0 0 0-.062.173c-.006.384-.003.767-.003 1.15v.401h14.851v-.159zM8.486 7.375a1.684 1.684 0 0 1-1.672-1.688c.004-.925.762-1.547 1.69-1.497.919.04 1.673.599 1.666 1.523a1.691 1.691 0 0 1-1.684 1.662zM8.497 5.5c-.381-.3-.691-.197-.697.182-.006 1.018.3.704.684.706.385.003.701.392.7-.694-.002-.378-.31.006-.687-.194z"/>
</svg>
