<svg xmlns="http://www.w3.org/2000/svg" width="18.97" height="17.5" viewBox="0 0 18.97 17.5">
  <defs>
    <style>
      .cls-1 {
        fill: #fff;
        fill-rule: evenodd;
      }
    </style>
  </defs>
  <path class="cls-1" d="M1561.67,56.113l7.94-9.233-0.02-.025a0.877,0.877,0,0,0-.09.057l-8.53,7.032c-0.52.429-1.04,0.857-1.56,1.29a0.267,0.267,0,0,1-.29.051q-2.355-.781-4.71-1.557a0.585,0.585,0,0,1-.46-0.521,0.567,0.567,0,0,1,.38-0.584l11.9-6q2.85-1.434,5.7-2.873a0.66,0.66,0,0,1,.73-0.009,0.631,0.631,0,0,1,.22.669c-0.23,1.481-.45,2.963-0.68,4.444-0.22,1.4-.44,2.8-0.65,4.2q-0.3,1.86-.57,3.72c-0.08.523-.16,1.047-0.25,1.569a0.585,0.585,0,0,1-.62.545,0.654,0.654,0,0,1-.24-0.066l-3.37-1.11-4.69-1.547A0.448,0.448,0,0,1,1561.67,56.113Zm-0.79.957,3.17,1.046a1.145,1.145,0,0,1-.08.124l-2,2.629a0.608,0.608,0,0,1-.68.276,0.536,0.536,0,0,1-.43-0.5V57.128A0.128,0.128,0,0,1,1560.88,57.069Z" transform="translate(-1553.94 -43.656)"/>
</svg>
