<svg xmlns="http://www.w3.org/2000/svg" width="16.75" height="13.5" viewBox="0 0 16.75 13.5">
  <defs>
    <style>
      .cls-1 {
        fill: #fff;
        fill-rule: evenodd;
      }
    </style>
  </defs>
  <path class="cls-1" d="M1480.82,47.022a7.2,7.2,0,0,1-1.98.539,3.365,3.365,0,0,0,1.51-1.882,6.889,6.889,0,0,1-2.18.824,3.461,3.461,0,0,0-4.86-.155,3.394,3.394,0,0,0-1.08,2.483,2.909,2.909,0,0,0,.08.777,9.763,9.763,0,0,1-7.09-3.569,3.389,3.389,0,0,0,1.06,4.552,3.42,3.42,0,0,1-1.56-.42V50.21a3.444,3.444,0,0,0,2.76,3.345,3.481,3.481,0,0,1-.9.112,3.038,3.038,0,0,1-.66-0.059,3.47,3.47,0,0,0,3.21,2.374,6.917,6.917,0,0,1-4.25,1.452,6.446,6.446,0,0,1-.82-0.047,9.833,9.833,0,0,0,13.51-2.941,9.591,9.591,0,0,0,1.54-5.221c0-.151,0-0.3-0.01-0.441A6.738,6.738,0,0,0,1480.82,47.022Z" transform="translate(-1464.06 -45.406)"/>
</svg>
