<svg xmlns="http://www.w3.org/2000/svg" width="17" height="13">
    <path fill-rule="evenodd" fill="#DC2229" d="M16.21 1.783v8.997c-.05.18.69-.667.49-.648-.766.586-1.268 1.15-2.02 1.144-1.797-.015-2.83-.005-5.392-.005h-.1v1.449H11.923c.29.01.469-.358.34-.099-.07.14.497.203-.344.203l-7.527-.001c-.013 0-.028.003-.04-.001-.062-.02-.131-.031-.185-.066.143-.089-.189-.268.133-.427.52-.161-.089.391.087.391H7.27h-.144v-1.449h.104c-2.012 0-3.818-.001-5.623.001a1.23 1.23 0 0 1-.666-.17c-.418-.261-.643-.646-.644-1.134C.29 7.278.294 4.588.294 1.897v-.032C.331 1.146.897.592 1.602.594c4.37.005 8.741.002 13.111.002.588 0 1.069.353 1.243.916.027.088.044.18.254.271zm-8.052-.436-6.539.001c-.056 0-.114-.001-.168.01-.264.054-.151.287-.251.578-.1 2.663-.1 5.326.1 7.99 0 .073-.12.834.12.219-.292.25-.091.376.211.376h13.053l.072-.001c1.044-.016.557-.26.557-.586 0-2.655-.001-5.31.002-7.965 0-.337.495-.627-.627-.626-2.177.009-4.354.004-6.53.004zm-.325 10.32h-.001v.216l.002.024c.013.243.073.783.306.793-.03.01.066.01.162 0 .102-.01.17-.48.175-.777a4.707 4.707 0 0 0 0-.504c-.005-.098-.075-.148-.175-.149a2.555 2.555 0 0 0-.082 0c-.314.001-.378.057-.386.173-.005.074-.001.149-.001.224z"/>
</svg>
