<svg xmlns="http://www.w3.org/2000/svg" width="19.243" height="19.243" viewBox="0 0 19.243 19.243">
  <g id="Group_12" data-name="Group 12" transform="translate(-5058.378 463.621)">
    <path id="Op_component_6" data-name="Op component 6" d="M334.412,13a4.187,4.187,0,0,0-.593.042,5.983,5.983,0,0,0-2.423-1.935,4.205,4.205,0,0,0-8.409.089,4.139,4.139,0,0,0,.432,1.821,4.2,4.2,0,0,0,.169,8.4,4.157,4.157,0,0,0,1.493-.276,5.934,5.934,0,0,0,7.839,0,4.157,4.157,0,0,0,1.493.276,4.209,4.209,0,1,0,0-8.419ZM327.2,8.189a3,3,0,0,1,2.958,2.528,5.864,5.864,0,0,0-5.6,1.879,2.966,2.966,0,0,1-.362-1.4A3.006,3.006,0,0,1,327.2,8.189Zm7.216,12.027a2.989,2.989,0,0,1-1.726-.551,4.75,4.75,0,0,1-7.371,0,3,3,0,1,1-1.726-5.462,2.954,2.954,0,0,1,.832.133,3.053,3.053,0,0,1,.312.1,4.882,4.882,0,0,1,.6-.893,4.665,4.665,0,0,1,4.767-1.6,4.607,4.607,0,0,1,1.122.424,4.854,4.854,0,0,1,2.046,2.07,3.006,3.006,0,1,1,1.145,5.785Z" transform="translate(4739 -467)"/>
    <g id="Group_11" data-name="Group 11">
      <path id="Op_component_1" data-name="Op component 1" d="M327.2,5.784a.6.6,0,0,0,.6-.6V3.98a.6.6,0,0,0-1.2,0v1.2A.6.6,0,0,0,327.2,5.784Z" transform="translate(4739 -467)"/>
      <path id="Op_component_2" data-name="Op component 2" d="M331.873,7.368l.85-.85a.6.6,0,0,0-.85-.851l-.85.851a.6.6,0,1,0,.85.85Z" transform="translate(4739 -467)"/>
      <path id="Op_component_3" data-name="Op component 3" d="M319.98,11.8h1.2a.6.6,0,0,0,0-1.2h-1.2a.6.6,0,0,0,0,1.2Z" transform="translate(4739 -467)"/>
      <rect id="Op_component_4" data-name="Op component 4" width="2.41" height="1.2" rx="0.6" transform="translate(5071.61 -456.41)"/>
      <path id="Op_component_5" data-name="Op component 5" d="M322.518,7.369a.6.6,0,0,0,.85-.85l-.85-.85a.6.6,0,1,0-.85.85Z" transform="translate(4739 -467)"/>
    </g>
  </g>
</svg>
