<svg xmlns="http://www.w3.org/2000/svg" width="23" height="16">
    <path fill-rule="evenodd" fill="#41464C" d="M19.872 4.891c-.616-.268-1.124.959-1.686.488.004.087-.476.183-.549.108-.126-.131-.191.363-.158-.593a5.218 5.218 0 0 0 .001-1.934C17.203 1.493 18.757.196 20.363.461c.187.031.374.07.554.127 1.523.354 1.839 1.379 1.673 2.397-.179 1.885-1.295 1.913-2.718 1.906zm1.347-3.304c-.745.293-1.531.223-2.307-.079-.564.311-.272.917-.721 1.421.109.437.214.874.299 1.22.426 0 .894.057 1.341-.015.506.376 1.064-.177 1.473-.453 1.556-.527.796-1.563-.085-2.094zm-.614 1.873c-.372.46-.758.45-1.13-.04-.149-.19-.274-.591.165-.706-.441-.12-.324-.286-.166-.346.146-.055.335.002.505.01v-.021c.208 0 .429-.044.619.015.147.045.254.219.378.336-.123.118-.236.592-.371.752zm-2.135 8.512c-.1-1.786-.03-3.572-.06-5.358 0-.311-.22-.686.024-.681.41.005.391.385.391.694 0 1.767.004 3.534-.002 5.301-.004 1.007-.492 1.487-1.515 1.49-2.052.005-4.104.001-6.156.001-1.995 0-3.99.003-5.984-.001-1.194-.002-1.615-.423-1.616-1.6 0-.437-.034-.879.018-1.309.02-.174.23-.325.353-.279.657-.053.37.091.387.257.052.508.03 1.025.018 1.753-.01.216.179.403.613.403 4.161-.005 8.321-.006 12.481 0 .474.001 1.068-.228 1.048-.671zm-2.312-.253c-1.673-.003-3.346-.001-5.018-.001v-.004c-1.654 0-3.307-.001-4.961.001-.312 0-.675.024-.668-.407.006-.385.342-.379.639-.379 3.345.002 6.691.003 10.036-.001.319 0 .686-.002.673.406-.012.4-.387.386-.701.385zM10.6 5.552c.343 1.088 1.216 1.042 2.083 1.581.837.23.847.525.002.755-.865.54-1.739 1.069-2.065 1.58-.949.227-1.221.064-1.24.272-.021-1.196-.005-1.62-.005-2.258 0-.512-.016-1.025.005-1.536.019-.459.29-.62 1.22-.394zM10.189 8.5l1.656-.991-1.656-.991V8.5zM5.512 3.716c-.008-.422.355-.415.666-.415 3.343 0 6.686-.007 10.029.016.224.002.623.223.635.366.033 1.247-.337 1.177-.653 1.167-1.673-.05-3.345-.02-5.017-.02-1.672 0-3.344-.01-5.016.01-.29 0-.638-.732-.644-1.124zm11.05-1.359c-.153.053-.338.015-.032.015l-11.364.001c-.775 0-.833.062-.835.854 0 .285.048.583-.022 1.543-.045-.519.141-.39-.405-.242-.117-.149-.319-.29-.335.252-.045-1.153-.044-1.615-.006-2.068.057-.422.56-1.082 1.359-1.086 1.881-.01 3.762-.003 5.644-.004 1.843-.001 3.686-.001 6.384 0-.685 0-.486-.04-.351.033.135.073.268.257.283.945.01-.449-.187-.289-.32-.243zM5.362 7.49c-.136.672-.101 1.284.009 1.93.03.177-.02.468-.138.542-.126.458-.409.023-.564-.072.321-.347-1.108-.55-1.839-.49C1.399 9.518.215 8.383.246 7.122.275 5.913 1.413 4.978 2.853 4.98c1.601.001 2.789 1.128 2.509 2.51zM2.965 5.708c-.015-.1-1.807.521-1.585 1.243-.472.775.083 1.477 1.004 1.661.255.052.527.017.791.027.406.015.812.035 1.185.052.083-.356.231-.807.279-1.269a1.62 1.62 0 0 0-.164-.856c-.303-.601-.895-.787-1.51-.858zm.297 1.895c-.124.057-.297.01-.447.01l-.083.142c-.288-.171-.821-.344-.819-.512.007-.592.55-.38.911-.417.149-.016.324-.05.447.009.189.09.343 1.055.512.386-.172.131-.33.292-.521.382zm.112 7.203c2.603-.005 5.206-.003 7.809-.003h7.809c.133 0 .285-.039.394.013.146.069.259.434.386.319-.123.138-.225.314-.377.401-.116.066.595.021-.448.021-5.187 0-10.374.002-15.561-.003.264 0-.802.117-.808-.372-.006-.498.942-.375.796-.376z"/>
</svg>
