<svg xmlns="http://www.w3.org/2000/svg" width="23" height="16">
    <path fill-rule="evenodd" fill="#D91F28" d="M19.872 4.89c-.616-.267-1.124.96-1.686.489.004.087-.476.182-.549.108-.127-.131-.191.353-.158-.593a5.218 5.218 0 0 0 .001-1.934C17.202 1.493 18.757.196 20.363.461c.187.03.374.07.553.126 1.524.355 1.84 1.38 1.674 2.398-.18 1.885-1.295 1.913-2.718 1.905zm1.347-3.303c-.745.283-1.531.223-2.307-.079-.564.311-.272.917-.721 1.421.109.436.214.874.299 1.22.426 0 .894.057 1.341-.016.506.377 1.064-.176 1.473-.453 1.556-.526.796-1.562-.085-2.093zm-.614 1.873c-.372.46-.758.45-1.13-.04-.149-.19-.274-.592.165-.706-.441-.12-.324-.286-.166-.346.146-.056.335.002.505.01v-.021c.208 0 .429-.044.619.014.147.046.254.22.378.337-.123.118-.236.582-.371.752zm-2.135 8.512c-.11-1.786-.03-3.573-.06-5.358 0-.312-.22-.687.024-.682.41.005.391.385.391.694-.001 1.767.004 3.534-.002 5.301-.004 1.008-.493 1.488-1.516 1.491-2.051.005-4.103.001-6.155.001-1.995 0-3.99.003-5.984-.001-1.194-.002-1.615-.423-1.616-1.601 0-.436-.034-.878.018-1.309.02-.173.23-.324.353-.288.657-.043.37.101.387.267.052.508.03 1.024.018 1.753-.01.216.179.403.613.403 4.161-.006 8.321-.006 12.481 0 .474 0 1.068-.228 1.048-.671zm-2.312-.253c-1.673-.004-3.346-.002-5.018-.002v-.003c-1.654 0-3.307-.001-4.961.001-.312 0-.675.023-.668-.407.006-.385.342-.379.639-.379 3.345.002 6.691.003 10.036-.001.319 0 .686-.002.673.405-.012.401-.387.386-.701.386zM10.6 5.552c.343 1.088 1.216 1.042 2.083 1.581.837.23.847.525.002.754-.865.541-1.739 1.069-2.065 1.581-.949.226-1.221.064-1.24.272-.021-1.196-.005-1.62-.005-2.259 0-.511-.016-1.024.005-1.535.019-.459.29-.62 1.22-.394zm-.411 2.947 1.656-.99-1.656-.991v1.981zM5.512 3.716c-.008-.422.355-.415.666-.415 3.343 0 6.686-.008 10.029.016.224.001.623.222.635.366.032 1.247-.337 1.177-.653 1.167-1.673-.05-3.345-.02-5.017-.02-1.672 0-3.344-.01-5.016.01-.291 0-.638-.732-.644-1.124zm11.05-1.36c-.153.053-.338.016-.032.016-4.106 0-7.735-.001-11.364.001-.775 0-.833.062-.835.854 0 .285.048.583-.022 1.543-.045-.519.141-.39-.405-.242-.117-.149-.319-.29-.335.252-.045-1.154-.044-1.615-.006-2.068.057-.422.56-1.083 1.359-1.086 1.881-.01 3.762-.003 5.643-.004 1.844-.001 3.687-.002 6.385 0-.685 0-.486-.04-.351.033.135.073.268.257.283.935.01-.44-.187-.279-.32-.234zM5.362 7.49c-.136.672-.101 1.283.009 1.93.03.177-.02.468-.138.542-.126.458-.409.023-.564-.072.321-.347-1.108-.55-1.839-.49C1.399 9.517.215 8.382.246 7.122.275 5.913 1.413 4.978 2.853 4.98c1.601.001 2.789 1.128 2.509 2.51zM2.965 5.708c-.015-.101-1.807.521-1.595 1.243-.462.775.093 1.477 1.014 1.661.255.051.527.017.791.027.406.015.812.035 1.185.051.083-.356.231-.807.279-1.268a1.63 1.63 0 0 0-.164-.856c-.303-.601-.895-.787-1.51-.858zm.297 1.894c-.124.058-.297.011-.447.011l-.083.142c-.288-.171-.821-.345-.819-.512.007-.592.55-.38.911-.417.149-.016.324-.05.447.009.189.09.343 1.045.512.386-.172.131-.33.292-.521.381zm.112 7.204c2.603-.005 5.206-.003 7.809-.003h7.809c.133 0 .285-.039.394.012.146.07.259.435.386.32-.123.138-.225.314-.377.401-.116.066.595.02-.448.02-5.187.001-10.374.003-15.561-.002.264 0-.803.117-.808-.372-.006-.498.942-.375.796-.376z"/>
</svg>
