<svg xmlns="http://www.w3.org/2000/svg" width="14" height="10">
    <path fill-rule="evenodd" fill="#323232" d="M7.22 9.999a296.64 296.64 0 0 1-5.243-.29 2.216 2.216 0 0 1-.86-.259C.52 9.136.281 8.57.196 7.924.63 5.953.69 3.981.199 2.12.356.863.977.291 2.112.191 4.966.59 7.822.33 10.679.97c.503-.85 1.007-.795 1.506-.722 1.485.13 1.431.693 1.583 1.583.229 1.342.602 2.695.203 4.05-.036.738-.109 1.476-.207 3.009-.123.28-.144.701-1.622.815-.67.082-1.345.136-2.019.165-.213.044-1.543.055-2.873.08l-.03.049zm2.02-5.031c-.54-.719-2.415-1.409-3.611-2.107V7.78C6.839 6.371 8.17 5.683 9.24 4.968z"/>
</svg>
