<svg xmlns="http://www.w3.org/2000/svg" width="18.25" height="13.031" viewBox="0 0 18.25 13.031">
  <defs>
    <style>
      .cls-1 {
        fill: #fff;
        fill-rule: evenodd;
      }
    </style>
  </defs>
  <path class="cls-1" d="M1519.36,58.823c-2.19-.122-4.39-0.23-6.58-0.378a2.9,2.9,0,0,1-1.12-.337,2.423,2.423,0,0,1-1.21-1.989,29.174,29.174,0,0,1,0-7.7,2.468,2.468,0,0,1,2.5-2.371,83.837,83.837,0,0,1,11.18-.122,19.478,19.478,0,0,1,1.95.2,2.331,2.331,0,0,1,2.07,2.061,24.5,24.5,0,0,1,.26,5.274c-0.05.961-.14,1.922-0.27,2.875a2.278,2.278,0,0,1-2.12,2.1c-0.87.108-1.75,0.178-2.63,0.215-1.35.057-2.69,0.073-4.04,0.105A0.143,0.143,0,0,1,1519.36,58.823Zm2.89-6.552-4.71-2.744V55.02Z" transform="translate(-1510.19 -45.781)"/>
</svg>
