<svg id="facebook" xmlns="http://www.w3.org/2000/svg" width="31.91" height="31.91" viewBox="0 0 31.91 31.91">
  <defs>
    <style>
      .cls-1 {
        fill: gray;
      }

      .cls-2 {
        fill: #fff;
        fill-rule: evenodd;
      }
    </style>
  </defs>
  <circle id="Ellipse_530_copy_3" data-name="Ellipse 530 copy 3" class="cls-1" cx="15.955" cy="15.955" r="15.955"/>
  <path class="cls-2" d="M1280.31,2045.01h2.89c-0.11,1.08-.22,2.13-0.33,3.21h-2.55v9.15h-3.81v-9.12h-1.8v-3.24h1.79c0-.65-0.03-1.27,0-1.88a8.666,8.666,0,0,1,.22-1.61,3.209,3.209,0,0,1,3.1-2.42c1.1-.04,2.2-0.01,3.31-0.01v3.11h-0.57c-0.47,0-.94-0.01-1.42,0a0.767,0.767,0,0,0-.83.86C1280.3,2043.69,1280.31,2044.33,1280.31,2045.01Z" transform="translate(-1263 -2032)"/>
</svg>
