<svg id="twitter" xmlns="http://www.w3.org/2000/svg" width="31.91" height="31.91" viewBox="0 0 31.91 31.91">
  <defs>
    <style>
      .cls-1 {
        fill: gray;
      }

      .cls-2 {
        fill: #fff;
        fill-rule: evenodd;
      }
    </style>
  </defs>
  <circle id="Ellipse_530_copy_2" data-name="Ellipse 530 copy 2" class="cls-1" cx="15.955" cy="15.955" r="15.955"/>
  <path class="cls-2" d="M1315.46,2054.07a7.438,7.438,0,0,0,5.32-1.53,3.73,3.73,0,0,1-3.4-2.55h1.54c-1.88-.81-2.91-2.13-2.78-3.62,0.36,0.11.72,0.22,1.08,0.32a4.046,4.046,0,0,0,.5.08,3.791,3.791,0,0,1-1.11-4.91,10.417,10.417,0,0,0,7.42,3.83,11.691,11.691,0,0,1,.18-1.82,3.614,3.614,0,0,1,5.95-1.7,0.407,0.407,0,0,0,.47.12c0.66-.23,1.31-0.46,1.98-0.7a3.646,3.646,0,0,1-1.42,1.83,0.2,0.2,0,0,0,.04.08c0.61-.16,1.23-0.33,1.86-0.5a6.317,6.317,0,0,1-1.47,1.58,0.657,0.657,0,0,0-.27.59,10.408,10.408,0,0,1-5.32,9.24,9.931,9.931,0,0,1-6.1,1.21,10.043,10.043,0,0,1-4.15-1.34C1315.69,2054.23,1315.6,2054.16,1315.46,2054.07Z" transform="translate(-1308 -2032)"/>
</svg>
