<svg id="youtube" xmlns="http://www.w3.org/2000/svg" width="31.91" height="31.91" viewBox="0 0 31.91 31.91">
  <defs>
    <style>
      .cls-1 {
        fill: gray;
      }

      .cls-2 {
        fill: #fff;
        fill-rule: evenodd;
      }
    </style>
  </defs>
  <circle class="cls-1" cx="15.955" cy="15.955" r="15.955"/>
  <path class="cls-2" d="M1420.95,2054.95c-2-.01-4.01,0-6.01-0.01a3.62,3.62,0,0,1-3.61-2.91,4.335,4.335,0,0,1-.08-0.89q-0.015-3.1,0-6.21a3.64,3.64,0,0,1,3.12-3.76,3.193,3.193,0,0,1,.54-0.04c4.01,0,8.03-.01,12.05,0a3.6,3.6,0,0,1,3.58,2.89,4.133,4.133,0,0,1,.09.93q0.015,3.09,0,6.18a3.648,3.648,0,0,1-3.14,3.78,4.659,4.659,0,0,1-.75.03C1424.81,2054.95,1422.88,2054.95,1420.95,2054.95Zm-2.56-3.94c1.73-1,3.4-1.97,5.12-2.97-1.74-1.01-3.41-1.98-5.12-2.97v5.94Z" transform="translate(-1405 -2032)"/>
</svg>
