<svg xmlns="http://www.w3.org/2000/svg" width="11.5" height="7.687" viewBox="0 0 11.5 7.687">
  <defs>
    <style>
      .cls-1 {
        fill: #dd2c00;
        fill-rule: evenodd;
      }
    </style>
  </defs>
  <path id="Shape_1_copy" data-name="Shape 1 copy" class="cls-1" d="M588.209,171.668c1.281-1.281,2.548-2.55,3.818-3.821l-3.848-3.853c0.065-.007.092-0.013,0.119-0.013,0.787,0,1.574,0,2.36,0a0.211,0.211,0,0,1,.137.053q1.88,1.875,3.753,3.754c0.008,0.008.014,0.017,0.029,0.036-0.027.028-.053,0.057-0.081,0.085q-1.836,1.839-3.671,3.678a0.249,0.249,0,0,1-.2.081c-0.765,0-1.529,0-2.293,0h-0.128Zm8.96-3.823-3.849-3.853a0.683,0.683,0,0,1,.083-0.011c0.79,0,1.581,0,2.371,0a0.215,0.215,0,0,1,.138.053q1.878,1.875,3.752,3.754a0.372,0.372,0,0,1,.028.037c-0.026.028-.053,0.057-0.081,0.085q-1.832,1.836-3.663,3.67a0.26,0.26,0,0,1-.2.088c-0.764,0-1.528,0-2.293,0h-0.1Z" transform="translate(-588.188 -163.969)"/>
</svg>
