<svg xmlns="http://www.w3.org/2000/svg" xmlns:xlink="http://www.w3.org/1999/xlink" width="43" height="43.03" viewBox="0 0 43 43.03">
  <defs>
    <style>
      .cls-1 {
        fill-rule: evenodd;
        fill: url(#linear-gradient);
      }
    </style>
    <linearGradient id="linear-gradient" x1="1259.5" y1="3561.03" x2="1259.5" y2="3518" gradientUnits="userSpaceOnUse">
      <stop offset="0" stop-color="#ff0006"/>
      <stop offset="1" stop-color="#ff7c00"/>
    </linearGradient>
  </defs>
  <path id="CAPRICON" class="cls-1" d="M1265.85,3527.42c0.08-3.67-.87-6.22-4.08-6.81-2.77-.51-4.97.85-6.95,3.54,1.8,0.08,3.1.14,5.37,0.24-1.62,1.22-2.64,1.99-3.78,2.85,0.36,4.49.38,9.36,1.32,14.05,0.38,1.88,2.8,3.35,4.18,4.88q-3.705,2.79-8.41,6.35c-5.7-1.73-9.85-5.61-12.14-12.43,1.64,1.23,2.66,2,3.69,2.76,0.14-.15.27-0.31,0.41-0.46-1.53-1.32-3.05-2.65-4.59-3.98-2.02,3.05,3.23,6.82-2.42,9.7-0.19-4.15-.53-7.86-0.45-11.56,0.03-1.45,1.03-2.64,3.08-2.02a2.965,2.965,0,0,0,2.41-.7c2.75-2.67,5.21-5.73,9.76-5.43-3.17-.5-6.58,1.63-9.96-1.86,5.82-3.04,10.3-7.83,16.83-8.5C1265.28,3517.52,1268.3,3522.14,1265.85,3527.42Zm-0.89,24.51c1.68-.11,3.7-0.83,4.97-0.17,1.71,0.9,1.42,5.18-.01,6.83-2.73,3.17-10.7,3.24-13.54.12a4.808,4.808,0,0,1,.17-7.01,18.9,18.9,0,0,1,7.03-4.33c10.11-3.08,12.72-8.89,7.75-18.14a6.864,6.864,0,0,1-.27-0.76c0.25-.16.51-0.32,0.76-0.47,1.99,2.85,3.98,5.7,6.08,8.72-0.41-2.62-.82-5.26-1.23-7.89,4.07,3.82,5.52,10.87,3.31,15.85-1.49,3.35-4.4,4.46-7.76,4.99a53.9,53.9,0,0,0-6.44,1.27,4.9,4.9,0,0,0-2.41,1.89,6.438,6.438,0,0,0-.53,2.45c0.75,0.07,1.96.45,2.17,0.15a5.755,5.755,0,0,0,.39-2.38C1265.25,3552.67,1265.1,3552.3,1264.96,3551.93Z" transform="translate(-1238 -3518)"/>
</svg>
