<svg id="CPI_M_" data-name="CPI(M)" xmlns="http://www.w3.org/2000/svg" width="162.438" height="162.438" viewBox="0 0 162.438 162.438">
  <defs>
    <style>
      .cls-1 {
        fill: #fff;
        stroke: #acacac;
        stroke-width: 2px;
      }

      .cls-2 {
        fill: red;
        fill-rule: evenodd;
      }
    </style>
  </defs>
  <circle id="Ellipse_1_copy" data-name="Ellipse 1 copy" class="cls-1" cx="81.219" cy="81.219" r="80.219"/>
  <path class="cls-2" d="M131.47,124.7a39.873,39.873,0,0,1-9.141,6.039,38.908,38.908,0,0,1-17.695,4.147A56.108,56.108,0,0,1,83.546,130.1a67.2,67.2,0,0,1-25.013-18.494c-0.154-.181-0.325-0.348-0.382-0.409Q48.821,123.65,39.51,136.089a1.594,1.594,0,0,1-1.608.637c-3.855-.3-6.028-2.732-7.686-5.858a2.022,2.022,0,0,1,.585-2.43q3.121-3.6,6.271-7.175,6.4-7.269,12.825-14.514a5.313,5.313,0,0,1,1.606-1.078,13.6,13.6,0,0,1,1.74-.606c-0.556-1.584-.266-2.44,1.041-3.105a1.639,1.639,0,0,1,2.2.333,71.415,71.415,0,0,0,19.593,14.769A41.9,41.9,0,0,0,93.565,121.7c8.8,0.256,16.532-2.7,23.473-7.942,0.716-.541,1.4-1.119,2.106-1.679,0.134-.108.271-0.213,0.478-0.374L93.887,81.62c-2.784,2.889-5.489,5.7-8.194,8.5-0.455.473-.878,0.981-1.367,1.415a1.5,1.5,0,0,1-2.154.057q-4.421-3.838-8.806-7.717a1.921,1.921,0,0,1-.06-3.061q9.04-9.489,18.085-18.974a3.179,3.179,0,0,1,2.95-1c3.334,0.345,6.69.482,10.037,0.7,2.45,0.16,4.9.3,7.349,0.492a4.461,4.461,0,0,1,1.109.393,4.766,4.766,0,0,1-.609,1.008Q105.5,70.119,98.736,76.767c-0.145.143-.276,0.3-0.52,0.57l26.708,28.552c0.229-.273.413-0.462,0.563-0.674a43.419,43.419,0,0,0,7.779-22.342c0.655-9.1-.877-17.941-3.49-26.582-2.029-6.71-4.522-13.282-6.81-19.914-0.138-.4-0.286-0.8-0.429-1.2L122.832,35c2,2.492,4.1,4.91,5.984,7.488A87.056,87.056,0,0,1,144.452,79.88a62.812,62.812,0,0,1,1.008,14.2c-0.508,8.579-2.732,16.616-7.769,23.722a0.859,0.859,0,0,0,.119,1.305q7.92,8.62,15.818,17.261c1.547,1.684,1.762,2.917.759,4.848a4.8,4.8,0,0,1-4.805,2.756,6.2,6.2,0,0,1-4.192-2.406q-6.195-7.575-12.429-15.118C132.5,125.886,132.025,125.344,131.47,124.7Zm-15.2-85.927c-0.506,1.145-.93,2.111-1.358,3.076-0.75,1.694-.751,1.693.881,2.673a15.311,15.311,0,0,1,2.614,1.841c-1.54,0-3.08.029-4.618-.014a0.986,0.986,0,0,0-1.121.784c-0.451,1.331-.963,2.641-1.543,4.214-0.5-1.782-.942-3.325-1.394-4.918l-5.187.257c-0.034-.079-0.069-0.158-0.1-0.237,1.141-.715,2.246-1.5,3.434-2.122a1.222,1.222,0,0,0,.657-1.865c-0.47-1.087-.8-2.235-1.283-3.626,1.141,0.788,2.04,1.409,2.94,2.028,1.465,1.007,1.465,1.006,2.958-.044q1.353-.952,2.71-1.9A2.76,2.76,0,0,1,116.269,38.768Z" transform="translate(-11.281 -15.281)"/>
</svg>
