<svg xmlns="http://www.w3.org/2000/svg" width="37" height="37" viewBox="0 0 37 37">
  <defs>
    <style>
      .cls-1 {
        fill: #b2b2b2;
        fill-rule: evenodd;
      }
    </style>
  </defs>
  <path class="cls-1" d="M552,851.509A18.5,18.5,0,1,1,570.529,870,18.494,18.494,0,0,1,552,851.509Zm1.844-.023a16.372,16.372,0,0,0,.626,4.5,16.773,16.773,0,0,0,4.7,7.7,0.685,0.685,0,0,0,.853.2,2.748,2.748,0,0,1,.553-0.149l4.157-.946a2.213,2.213,0,0,0,1.52-1.19,6.243,6.243,0,0,0,.584-3.176c-0.013-.456-0.027-0.467-0.481-0.437a2.6,2.6,0,0,1-2.925-2.068,11.644,11.644,0,0,1-.338-4.32c0.127-1.7.323-3.392,0.51-5.086a7.5,7.5,0,0,1,.719-2.7,3,3,0,0,1,2.718-1.854,0.534,0.534,0,0,0,.344-0.185,3.7,3.7,0,0,1,2.356-1.36,6.509,6.509,0,0,1,7.388,5.85c0.258,1.735.446,3.482,0.6,5.229a11.985,11.985,0,0,1-.258,4.387,2.559,2.559,0,0,1-1.988,2.052,5.136,5.136,0,0,1-1.144.041c-0.235-.009-0.35.059-0.333,0.3,0.055,0.742.058,1.493,0.184,2.223a2.723,2.723,0,0,0,2.342,2.422c1.551,0.3,3.085.7,4.623,1.075a0.407,0.407,0,0,0,.431-0.1,16.386,16.386,0,0,0,5.536-11.8,15.9,15.9,0,0,0-2.954-10.032,16.284,16.284,0,0,0-11.311-7.009,15.724,15.724,0,0,0-10.631,2.05C556.79,840.336,554.08,845.207,553.844,851.486Z" transform="translate(-552 -833)"/>
</svg>
