<svg id="GO_TO_TOP" data-name="GO TO TOP" xmlns="http://www.w3.org/2000/svg" width="42" height="42" viewBox="0 0 42 42">
  <defs>
    <style>
      .cls-1 {
        fill: #7b0505;
      }

      .cls-2 {
        fill: #fff;
        fill-rule: evenodd;
      }
    </style>
  </defs>
  <circle class="cls-1" cx="21" cy="21" r="21"/>
  <path class="cls-2" d="M1795.5,6125.66c-0.65.64-1.27,1.25-1.89,1.87-0.97.96-1.93,1.92-2.9,2.88a1.541,1.541,0,0,1-1.52.49,1.426,1.426,0,0,1-1.13-1.07,1.492,1.492,0,0,1,.43-1.53c1.21-1.19,2.41-2.39,3.62-3.59,0.72-.72,1.44-1.43,2.16-2.15a1.573,1.573,0,0,1,2.46,0q2.835,2.82,5.69,5.64a1.68,1.68,0,0,1,.58,1.32,1.467,1.467,0,0,1-.86,1.27,1.374,1.374,0,0,1-1.58-.17c-0.55-.46-1.04-0.98-1.55-1.49-1.09-1.07-2.17-2.16-3.26-3.23C1795.68,6125.82,1795.6,6125.76,1795.5,6125.66Z" transform="translate(-1774 -6105)"/>
</svg>
