<?xml version="1.0" encoding="utf-8"?>
<!-- Generator: Adobe Illustrator 26.0.1, SVG Export Plug-In . SVG Version: 6.00 Build 0)  -->
<svg version="1.1" id="Layer_1" xmlns="http://www.w3.org/2000/svg" xmlns:xlink="http://www.w3.org/1999/xlink" x="0px" y="0px"
	 viewBox="0 0 63.6 54.5" style="enable-background:new 0 0 63.6 54.5;" xml:space="preserve">
<style type="text/css">
	.st0{fill:#FA3219;}
	.st1{fill:#F5B80E;}
	.st2{enable-background:new    ;}
	.st3{fill:#FFFFFF;}
</style>
<circle class="st0" cx="31.7" cy="27.5" r="26.7"/>
<g>
	<g>
		<path class="st1" d="M31.7,2.7c13.7,0,24.8,11.1,24.8,24.9c0,13.7-11.2,24.8-24.8,24.8C18,52.4,6.9,41.2,7,27.5
			C6.9,13.7,18,2.6,31.7,2.7z M31.7,50.5c12.7,0,23-10.3,23-23c0-12.8-10.3-23.1-23-23.1C19,4.4,8.6,14.7,8.6,27.5
			C8.6,40.2,18.9,50.5,31.7,50.5z"/>
		<path class="st1" d="M31.7,49c-11.9,0-21.5-9.6-21.5-21.5C10.2,15.6,19.8,6,31.7,6c11.8,0,21.5,9.6,21.4,21.5
			C53.1,39.3,43.5,49,31.7,49z M29.9,44c-0.2-0.3-0.5-0.6-0.9-0.5C29.3,43.7,29.5,43.9,29.9,44c0,0.1,0,0.2,0.1,0.2
			c0.2,0.1,0.4,0.2,0.4,0.5c0,0.2,0,0.4-0.1,0.6c0,0.1,0,0.2-0.2,0.2c-0.1,0,0-0.1,0-0.2c0.1-0.5-0.4-1.2-0.9-1.2
			c0.5,0.5,0.6,1.3,0.4,1.8c-0.1,0.2-0.2,0.3-0.4,0.3c0.4-0.4,0.4-1.1-0.1-1.6c0.1,0.3-0.3,0.3-0.2,0.6c0.1,0.4,0,0.7-0.2,1.1
			c-0.2,0.4-0.5,0.8-1,0.9c-0.1,0-0.2,0-0.3,0c1.1,0.3,2.3,0.4,3.4,0.5c0.2,0,0.1-0.1,0.1-0.2c0-1.9,0-3.9,0-5.8
			c0-0.2-0.1-0.3-0.3-0.3c-1.9-0.1-3.8-0.6-5.5-1.6c-0.2-0.1-0.2-0.1-0.3,0.1c-1,1.7-1.9,3.4-2.9,5.1c-0.1,0.2-0.1,0.2,0.1,0.3
			c0.4,0.2,0.8,0.4,1.3,0.6c0.6,0.3,1.1,0.5,1.8,0.7c0-0.1-0.1-0.1-0.1-0.1c-0.5-0.6-0.7-1.3-0.5-2.1c0.1-0.3,0.1-0.6,0.3-0.8
			c0.1-0.1,0.2-0.2,0-0.3c-0.1-0.1-0.2,0.1-0.2,0.2v0.1c0,0.3-0.2,0.6-0.3,0.9c-0.2-0.1-0.1-0.2-0.1-0.4s0.1-0.4,0.1-0.6
			c-0.2-0.4,0.1-1,0.6-1.1c0.2,0,0.3,0,0.5-0.1c-0.7-0.6-0.7-1.3-0.1-1.6c0,0.3-0.3,0.6-0.1,1c0.2,0.4,0.5,0.3,0.8,0.5
			c-0.7-0.4-0.7-0.5-0.5-1.1c0.2-0.4,0.3-0.5,0.6-0.4c-0.3,0-0.3,0.4-0.4,0.5s-0.1,0.3,0,0.4c0.3,0.2,0.6,0.5,1,0.4
			c0.2,0,0.5,0,0.6,0.2c0.2,0.2,0.5,0.3,0.8,0.3c0.1,0,0.2,0,0.3,0.1c0.1,0.2,0.3,0.2,0.5,0.3s0.5,0.2,0.6,0s0.4-0.2,0.4-0.5
			c0-0.1,0-0.1,0.1-0.1s0.1,0.1,0.1,0.2c0,0.2-0.1,0.5-0.3,0.7c-0.2,0.1-0.5,0.1-0.5,0.2c0,0.2,0.3,0.3,0.4,0.4
			c0.2,0.2,0.3,0.2,0.4,0c0.1-0.1,0.1-0.2,0.1-0.3s0-0.1,0.1-0.2c0.1,0,0.1,0,0.1,0.1c0.1,0.2,0.1,0.5-0.1,0.7
			C30.3,44.1,30.1,44.1,29.9,44z M19.4,27.9c-0.3,0-0.5,0-0.7,0s-0.2,0.1-0.2,0.2c0,0.4,0.1,0.8,0.1,1.2c0.2,1.5,0.7,2.9,1.3,4.2
			c0.1,0.2,0.2,0.2,0.3,0.1c0.3-0.2,0.6-0.4,1-0.6c0.2-0.1,0.2-0.2,0.1-0.4s-0.2-0.5-0.3-0.7c-0.1-0.1,0-0.2,0.1-0.2
			s0.2-0.1,0.3-0.1c0.1-0.1,0.2,0,0.3,0.1c0.4,0.9,0.8,1.7,1.4,2.5c0.1,0.1,0.1,0.2,0,0.2s-0.2,0.1-0.2,0.2c-0.1,0.1-0.2,0.1-0.3,0
			c-0.2-0.3-0.4-0.6-0.6-0.9c-0.1-0.1-0.1-0.2-0.3-0.1c-0.4,0.2-0.7,0.4-1.1,0.6c-0.1,0.1-0.1,0.1-0.1,0.3c1,1.6,2.4,3,4,4
			c0.1,0.1,0.2,0.1,0.3-0.1c0.2-0.3,0.4-0.7,0.6-1c0.1-0.1,0-0.2-0.1-0.3c-0.2-0.2-0.5-0.3-0.7-0.5c-0.1-0.1-0.1-0.1,0-0.3
			c0.1-0.1,0.1-0.2,0.2-0.2c0.1-0.1,0.2-0.1,0.3,0c0.8,0.6,1.6,1.1,2.5,1.5c0.2,0.1,0.2,0.1,0.1,0.3c0,0.1-0.1,0.1-0.1,0.2
			c-0.1,0.2-0.1,0.2-0.3,0.1c-0.3-0.2-0.6-0.3-0.9-0.5c-0.2-0.1-0.2-0.1-0.3,0.1c-0.2,0.3-0.4,0.7-0.6,1c-0.1,0.2-0.1,0.2,0.1,0.3
			c1.6,0.9,3.4,1.4,5.2,1.5c0.2,0,0.2-0.1,0.2-0.2c0-0.2,0-0.5,0-0.7c0-0.6,0-0.6-0.5-0.6c-0.1,0-0.3,0-0.4-0.1
			c-0.2,0-0.3-0.1-0.2-0.2c0.1-0.2-0.1-0.5,0.3-0.4c0.9,0.1,1.9,0.2,2.8,0c0.4,0,0.2,0.2,0.3,0.4s0,0.3-0.2,0.3
			c-0.4,0-0.7,0.1-1.1,0.1c-0.2,0-0.2,0.1-0.2,0.3c0,0.3,0,0.7,0,1c0,0.2,0.1,0.3,0.3,0.3c0.3,0,0.6,0,1-0.1c1.8-0.2,3.4-0.7,5-1.5
			c0.2-0.1,0.2-0.2,0.1-0.3c-0.2-0.3-0.3-0.6-0.5-0.9c-0.1-0.2-0.2-0.2-0.4-0.1c-0.3,0.2-0.6,0.3-0.9,0.5c-0.1,0.1-0.2,0.1-0.3-0.1
			c0-0.1-0.1-0.2-0.1-0.3c-0.1-0.1-0.1-0.2,0.1-0.3c0.9-0.4,1.7-0.9,2.5-1.5c0.1-0.1,0.2-0.1,0.3,0s0.1,0.2,0.2,0.2
			c0.1,0.1,0.1,0.2,0,0.3c-0.1,0-0.1,0.1-0.2,0.1C38.4,37,38,37.1,38,37.3s0.2,0.5,0.4,0.7c0.3,0.6,0.3,0.6,0.9,0.2
			c1.4-1,2.6-2.2,3.5-3.7c0.1-0.2,0.1-0.3-0.1-0.4c-0.3-0.1-0.5-0.3-0.8-0.5c-0.2-0.1-0.3-0.1-0.4,0.1c-0.1,0.3-0.3,0.5-0.5,0.7
			c-0.3,0.4-0.2,0.4-0.6,0.1c-0.1-0.1-0.2-0.2-0.1-0.3c0.6-0.7,1-1.6,1.4-2.4c0.1-0.3,0.3-0.1,0.5-0.1s0.3,0.1,0.2,0.3
			c-0.1,0.2-0.2,0.5-0.3,0.7C42,32.9,42,33,42.1,33c0.3,0.1,0.6,0.3,0.8,0.5c0.2,0.1,0.3,0.1,0.4-0.1c0.7-1.5,1.2-3.1,1.3-4.7
			C44.7,28,44.7,28,44,28c-0.3,0-0.6-0.1-0.8,0s-0.1,0.5-0.1,0.7c-0.1,0.4-0.1,0.4-0.5,0.4c-0.2,0-0.3-0.1-0.2-0.3
			c0.1-0.9,0.1-1.7,0.1-2.6c0-0.4-0.1-0.4,0.4-0.5c0.2,0,0.3,0,0.3,0.2c0,0.4,0.1,0.7,0.1,1.1c0,0.2,0.1,0.2,0.2,0.2
			c0.4,0,0.7,0,1.1,0c0.2,0,0.2-0.1,0.2-0.2c0-0.3,0-0.7-0.1-1c-0.2-1.6-0.6-3.1-1.3-4.5c-0.1-0.1-0.1-0.2-0.3-0.1
			c-0.3,0.2-0.6,0.4-0.9,0.5C42,22.1,42,22.1,42,22.3c0.1,0.2,0.2,0.5,0.3,0.7s0,0.3-0.2,0.3s-0.4,0.3-0.5-0.1
			c-0.3-0.8-0.7-1.6-1.2-2.3c-0.3-0.4-0.2-0.3,0.1-0.6c0.1-0.1,0.2-0.1,0.3,0c0.2,0.3,0.4,0.6,0.6,0.9c0.1,0.2,0.2,0.2,0.3,0.1
			c0.3-0.2,0.5-0.3,0.8-0.5c0.3-0.1,0.2-0.2,0.1-0.4c-0.9-1.4-2.1-2.6-3.4-3.6c-0.6-0.4-0.6-0.4-0.9,0.2c-0.1,0.2-0.4,0.5-0.4,0.7
			s0.4,0.3,0.6,0.5c0.4,0.3,0.3,0.2,0.1,0.6c-0.1,0.2-0.3,0.2-0.4,0c-0.1-0.1-0.2-0.2-0.3-0.2c-0.6-0.4-1.3-0.8-2-1.1
			c-0.3-0.1-0.2-0.3-0.1-0.5c0.1-0.2,0.2-0.3,0.4-0.2c0.3,0.2,0.6,0.3,0.9,0.5c0.2,0.1,0.2,0.1,0.3-0.1c0.2-0.3,0.3-0.6,0.5-0.9
			c0.1-0.2,0.1-0.2-0.1-0.3c-0.4-0.2-0.9-0.4-1.3-0.6c-1.5-0.6-3.1-0.9-4.7-1c-0.2,0-0.3,0.1-0.3,0.3c0,0.3,0,0.7,0,1
			c0,0.2,0.1,0.2,0.2,0.2c0.3,0,0.6,0,0.9,0.1c0.4,0,0.4,0,0.4,0.5c0,0.2-0.1,0.2-0.3,0.2c-0.9-0.1-1.7-0.1-2.6,0
			c-0.4,0.1-0.4,0.1-0.5-0.4c0-0.2,0-0.2,0.2-0.3c0.2,0,0.5-0.1,0.7-0.1s0.2-0.1,0.2-0.3c0-0.4,0-0.7,0-1.1c0-0.2,0-0.2-0.2-0.2
			c-1.8,0.1-3.6,0.6-5.2,1.5c-0.2,0.1-0.2,0.2-0.1,0.3c0.2,0.3,0.4,0.7,0.6,1c0.1,0.2,0.2,0.2,0.3,0.1c0.3-0.2,0.6-0.3,0.9-0.5
			c0.2-0.1,0.3-0.1,0.3,0.2c0,0.2,0.3,0.3-0.1,0.5c-0.8,0.3-1.5,0.8-2.2,1.3c0,0.3,0,0.3-0.3,0c-0.1-0.1-0.1-0.2,0-0.3
			c0.2-0.2,0.4-0.3,0.7-0.5c0.1-0.1,0.2-0.1,0.1-0.3c-0.2-0.4-0.4-0.7-0.6-1.1c-0.1-0.1-0.1-0.2-0.3-0.1c-1.6,1.1-2.9,2.4-4,4
			c-0.1,0.2-0.1,0.2,0.1,0.3c0.3,0.2,0.7,0.4,1,0.6c0.2,0.1,0.2,0.1,0.3-0.1c0.2-0.3,0.4-0.6,0.6-0.9c0.1-0.2,0.3-0.1,0.4,0
			s0.4,0.1,0.2,0.4c-0.5,0.7-0.9,1.4-1.3,2.2c-0.2,0.4-0.2,0.4-0.6,0.2c-0.2-0.1-0.2-0.1-0.1-0.3c0.1-0.2,0.2-0.5,0.3-0.7
			c0.1-0.1,0-0.2-0.1-0.3c-0.4-0.2-0.7-0.4-1.1-0.6c-0.1-0.1-0.2-0.1-0.3,0.1c-0.9,1.7-1.4,3.6-1.5,5.6c0,0.2,0,0.2,0.2,0.2
			c0.4,0,0.8,0,1.2,0c0.2,0,0.2-0.1,0.2-0.2c0-0.3,0-0.7,0.1-1c0-0.2,0.1-0.3,0.3-0.2c0.2,0.1,0.5-0.1,0.4,0.3
			c-0.1,0.9-0.1,1.9,0,2.8c0,0.1,0,0.1-0.1,0.2c-0.4,0.2-0.6,0.1-0.6-0.3c0-0.3,0-0.6-0.1-0.7C20,27.8,19.7,27.9,19.4,27.9z
			 M18.5,31.7C18.4,32,18.2,32.1,18,32h-0.1c-0.8,0-1.5,0.1-2.2,0.5c-0.1,0.1-0.3,0.1-0.4,0.1c-0.3-0.1-0.5,0-0.8,0.2
			c-0.3,0.3-0.6,0.6-0.8,1c-0.1,0.2-0.2,0.1-0.4,0c-0.1-0.1-0.2-0.3-0.3-0.4c-0.3-0.1-0.4-0.4-0.2-0.6c0.1-0.1,0.1-0.2,0.1-0.4
			c0-0.1,0-0.2,0-0.4c0-0.2,0.1-0.2,0.3-0.1s0.4,0.2,0.6,0.3c0.1,0.1,0.2,0.1,0.2,0c0.1-0.2,0.3-0.3,0.5-0.3c0.1,0,0.3,0,0.4-0.1
			c0.2-0.2,0.5-0.2,0.8-0.2c0.3,0,0.6,0.1,0.8,0c0.5-0.2,1-0.4,1.5-0.6c0.2-0.1,0.3-0.2,0.2-0.5c-0.2-0.7-0.3-1.4-0.3-2.2
			c0-0.2-0.1-0.3-0.3-0.3c-1.9,0-3.8,0-5.7,0c-0.2,0-0.3,0.1-0.3,0.3c0.1,1.2,0.2,2.3,0.4,3.4c0.4,1.9,1.1,3.7,2,5.3
			c0.1,0.1,0.1,0.3,0.3,0.1c1.7-1,3.4-2,5.1-2.9c0.1-0.1,0.2-0.1,0.1-0.3C19.1,33.2,18.8,32.5,18.5,31.7z M31.7,10.5
			c0,1,0,1.9,0,2.9c0,0.2,0.1,0.3,0.3,0.3c2.2,0,4.3,0.6,6.3,1.7c0.2,0.1,0.3,0.1,0.4-0.1c1-1.7,1.9-3.3,2.9-5
			c0.1-0.2,0.1-0.2-0.1-0.4c-3-1.6-6.1-2.5-9.5-2.5c-0.3,0-0.3,0.1-0.3,0.3C31.7,8.6,31.7,9.6,31.7,10.5z M15,21c-0.1,0-0.2,0-0.3,0
			c-0.1-0.1-0.2-0.2-0.1-0.3c0-0.1,0.1-0.2,0.2-0.2c0.2,0,0.4,0.2,0.6,0c0,0,0.1,0,0.1,0.1c0.1,0.3,0.3,0.2,0.5,0.2
			c0.2,0,0.5,0,0.6-0.1c0.2-0.3,0.3-0.2,0.5,0c0.3,0.3,0.5,0.6,0.4,1s-0.4,0.6-0.9,0.6c-0.3,0-0.5,0.1-0.4-0.3l-0.1-0.1
			c-0.2-0.1-0.3-0.3-0.5-0.4c-0.1-0.1-0.2-0.1-0.2,0.1c-0.1,0.3-0.1,0.5-0.2,0.7c-0.1,0.2-0.1,0.5-0.4,0.4c-0.1,0-0.2,0.1-0.2,0.2
			c0,0.2,0.1,0.1,0.2,0.1c0.5,0.2,1,0.3,1.5,0.5c0.3,0.1,0.6,0.1,0.9,0.1c0.2,0,0.5-0.1,0.6-0.3c0.2-0.4,0.5-0.3,0.8-0.3
			c0.2,0,0.2,0,0.3-0.2c0.2-0.5,0.4-1,0.7-1.4c0.1-0.2,0.1-0.2-0.1-0.3c-1.7-1-3.4-1.9-5-2.9c-0.2-0.1-0.3-0.1-0.3,0.1
			c-0.3,0.7-0.7,1.4-1,2.1c-0.9,2.2-1.3,4.5-1.4,6.9c0,0.2,0,0.3,0.2,0.3c1.9,0,3.9,0,5.8,0c0.2,0,0.2-0.1,0.2-0.3
			c0-0.4,0-0.8,0.1-1.2c0-0.2,0-0.3-0.2-0.3c-0.3-0.1-0.5-0.3-0.6-0.6c-0.1-0.5-0.4-0.9-0.8-1.1c-0.6-0.2-1.3-0.4-1.9-0.6
			c-0.1,0-0.2,0-0.1,0.1c0,0.1,0.1,0.2,0.1,0.2c0.2,0.1,0.2,0.2,0.1,0.4c-0.1,0.4-0.2,0.7-0.3,1.1c0.2,0.1,0.3,0,0.4,0
			c0.3-0.1,0.6,0,0.7-0.3c0-0.1,0.1-0.1,0.2,0c0.2,0.3,0.6,0.4,0.6,0.9c0,0.6-0.6,1.1-1.2,1c-0.1,0-0.2-0.1-0.1-0.2
			c0.1-0.2-0.1-0.2-0.2-0.4c-0.3-0.4-0.7-0.4-1.1-0.6c-0.2-0.1-0.3-0.2-0.2-0.4c0.1-0.2,0.2-0.2,0.4-0.2c0.1,0.1,0.2,0.1,0.2-0.1
			c0.1-0.3,0.2-0.5,0.2-0.8c0-0.1,0-0.1,0-0.2c-0.2-0.2-0.2-0.4-0.2-0.6c0-0.1,0-0.2-0.1-0.2c-0.3,0-0.5-0.3-0.8-0.2
			c-0.1,0-0.2-0.1-0.3-0.2c0-0.1,0-0.2,0.1-0.3c0.1-0.1,0.3-0.1,0.3,0c0.2,0.2,0.4,0.2,0.6,0.2c0.2,0.1,0.4,0.1,0.5-0.2
			c0-0.1,0.2-0.2,0.3-0.2c0.3,0,0.4-0.3,0.5-0.5C14.9,21.4,14.9,21.2,15,21z M24.3,15.7c0,0,0-0.1-0.1-0.1c-1-1.7-2-3.4-2.9-5.1
			c-0.1-0.2-0.2-0.1-0.3-0.1c-2.7,1.7-4.8,3.9-6.5,6.6c-0.1,0.1-0.1,0.2,0.1,0.3c1.7,1,3.4,2,5.1,2.9c0.1,0.1,0.2,0.1,0.3-0.1
			C21.1,18.3,22.5,16.9,24.3,15.7C24.3,15.8,24.4,15.8,24.3,15.7z M48.6,27.9c-1,0-1.9,0-2.9,0c-0.2,0-0.3,0.1-0.3,0.3
			c-0.1,2-0.6,3.8-1.5,5.6C43.8,34,43.8,34,44,34.2c1.7,1,3.4,1.9,5.1,2.9c0.2,0.1,0.2,0.1,0.3-0.1c1.5-2.7,2.2-5.7,2.4-8.7
			c0-0.3-0.1-0.3-0.3-0.3C50.5,27.9,49.6,27.9,48.6,27.9z M48.9,17.2c0,0,0-0.1-0.1-0.1c-1.6-2.7-3.8-4.9-6.4-6.6
			c-0.1-0.1-0.2-0.1-0.3,0.1c-1,1.7-2,3.4-3,5.1c-0.1,0.1-0.1,0.2,0,0.3c1.7,1.1,3.1,2.6,4.2,4.3c0.1,0.1,0.1,0.2,0.3,0.1
			c1.7-1,3.4-2,5.1-3C48.9,17.3,49,17.3,48.9,17.2z M48.6,27.2c0.9,0,1.9,0,2.8,0c0.3,0,0.3-0.1,0.3-0.3c0-0.3,0-0.6-0.1-0.9
			c-0.2-2.8-1-5.4-2.3-7.9c-0.1-0.2-0.2-0.2-0.4-0.1c-1.7,1-3.3,1.9-5,2.9c-0.2,0.1-0.2,0.2-0.1,0.4c0.9,1.8,1.4,3.7,1.5,5.7
			c0,0.2,0.1,0.3,0.3,0.3C46.7,27.2,47.7,27.2,48.6,27.2z M42.2,44.6c0.1,0,0.1-0.1,0.2-0.1c0.9-0.6,1.8-1.3,2.7-2
			c1.4-1.3,2.7-2.8,3.7-4.4c0.1-0.1,0.2-0.2,0-0.3c-1.7-1-3.4-2-5.1-3c-0.1-0.1-0.2-0.1-0.3,0.1c-1.1,1.7-2.5,3.2-4.2,4.3
			c-0.1,0.1-0.2,0.1-0.1,0.3C40.1,41.2,41.1,42.9,42.2,44.6C42.1,44.5,42.2,44.6,42.2,44.6z M31,10.6c0-0.9,0-1.9,0-2.8
			c0-0.3,0-0.4-0.3-0.3c-1,0.1-2,0.2-3,0.4c-2,0.4-3.9,1.1-5.6,2C22,10,21.8,10,22,10.2c1,1.7,2,3.4,2.9,5.1
			c0.1,0.1,0.1,0.2,0.3,0.1c1.7-0.9,3.6-1.5,5.6-1.6c0.2,0,0.2-0.1,0.2-0.3C31,12.5,31,11.5,31,10.6z M19,42.1
			c-0.1,0-0.2-0.1-0.3-0.2c0-0.1-0.1-0.1-0.1-0.1c0,0.2-0.2,0.1-0.3,0.2c-0.1,0.2-0.3,0.1-0.3-0.1c-0.1-0.2-0.3-0.3-0.4-0.4
			c0,0-0.2-0.1-0.2,0s0,0.1,0.1,0.2c1.1,1.1,2.3,2.1,3.6,2.9c0.1,0.1,0.2,0.1,0.3-0.1c1-1.7,2-3.4,2.9-5.1c0.1-0.1,0.1-0.2-0.1-0.3
			c-0.3-0.2-0.5-0.3-0.7-0.5c-0.1-0.1-0.2-0.1-0.3-0.1c-0.3,0-0.5,0.2-0.8,0.2c-0.2-0.1-0.3,0-0.4,0.2c-0.2,0.3-0.3,0.6-0.6,0.8
			c-0.2,0.1-0.5,0.3-0.5,0.5c0.1,0,0.1,0,0.2,0s0.2,0,0.3,0c0,0.1-0.1,0.2-0.2,0.2c-0.2,0.1-0.4,0.3-0.6,0.5c0.1,0,0.1,0,0.1,0
			c0.1,0,0.2,0,0.2,0.1s-0.1,0.1-0.2,0.1c-0.2,0-0.4,0-0.5,0.1l-0.1,0.1c0.3,0.2,0,0.1-0.1,0.1s-0.3,0.1-0.5,0c0,0.4-0.2,0-0.2,0
			c-0.1,0.1,0,0.2-0.1,0.2s-0.1-0.1-0.2-0.1c-0.1-0.1-0.1-0.2-0.2-0.2C18.9,41.8,19,41.9,19,42.1z M35.2,47.3c0.1,0,0.2,0,0.3-0.1
			c2.1-0.4,4-1.1,5.8-2.1c0.2-0.1,0.2-0.1,0.1-0.3c-1-1.7-2-3.4-2.9-5.1c-0.1-0.2-0.2-0.2-0.3-0.1c-0.4,0.2-0.9,0.5-1.3,0.6
			c-0.1,0-0.1,0-0.2,0.1c-0.2,0.4-0.5,0.8-0.7,1.2c-0.1,0.3-0.1,0.5,0.2,0.7c0.1,0.1,0.2,0.2,0.3,0.1c0.1-0.1,0.1-0.2,0-0.4
			c0-0.1-0.1-0.1-0.1-0.2c-0.1-0.2-0.1-0.4,0.2-0.5s0.5-0.2,0.8-0.2c0.2,0,0.2-0.1,0.2-0.2c-0.1-0.2-0.2-0.3-0.3-0.4l-0.1-0.1
			l0.1-0.1c0.3,0.1,0.4,0,0.6-0.1c0.2-0.1,0.3-0.1,0.4,0.1c0.1,0.1,0,0.3-0.2,0.4c-0.2,0.2-0.2,0.4,0,0.6c0.3,0.2,0.4,0.5,0.4,0.9
			c0,0.3,0.1,0.7,0.2,1c0.2,0.4,0.3,0.9,0,1.3c-0.1,0.1,0,0.1,0,0.2c0.1,0.2,0.3,0.3,0.4,0.6c0.1,0.4-0.1,0.8-0.4,0.9
			c-0.4,0.1-0.7,0.1-0.9-0.2c-0.1-0.2-0.3-0.5-0.3-0.8c0-0.1,0-0.2,0.2-0.3c-0.3,0-0.5-0.2-0.7-0.3c-0.1-0.1-0.2-0.1-0.2,0.1
			c0,0.3,0,0.5,0,0.8c0,0.1,0.1,0.2,0.1,0.2c0.2-0.1,0.2,0,0.3,0c0,0,0.1-0.1,0.2,0c0,0.1,0,0.2-0.1,0.2c-0.2,0.1-0.3,0.2-0.5,0
			s-0.3-0.1-0.4,0.1V46c-0.1,0.2-0.3,0.2-0.4,0.1c-0.1,0-0.2-0.1-0.2-0.1c0.2,0,0.1-0.3,0.3-0.3c0.1,0,0.1-0.1,0.1-0.2
			c-0.2-0.2-0.3-0.4-0.5-0.6c-0.1-0.1-0.2-0.1-0.3,0c-0.1,0.2-0.2,0.5-0.4,0.7c0.5,0.1,0.4,0.5,0.5,0.9
			C35.7,46.9,35.5,47.1,35.2,47.3z M17.7,38.7c0.2,0,0.2-0.3,0.4-0.2c0,0,0.1,0,0.1-0.1c0-0.2,0.2-0.3,0.3-0.5
			c0-0.1,0.1-0.2,0.2-0.2s0.1,0.2,0.1,0.2V38c0,0.2,0.1,0.2,0.2,0.1c0.1-0.1,0.2-0.2,0-0.3c-0.2-0.3-0.2-0.4,0.1-0.6
			c0.2-0.1,0.3-0.2,0.5-0.3c0.2,0,0.3-0.1,0.5-0.1c-0.7-0.8-1.8-0.7-2.4,0.3c0.2,0.1,0.3,0.3,0.2,0.5c0,0.2-0.3,0.1-0.3,0.3
			c-0.1-0.3-0.3,0-0.5-0.1c0.1-0.2-0.1-0.3,0.1-0.5s0.3-0.4,0.4-0.6c0.2-0.3,0.4-0.5,0.7-0.6c0.7-0.3,1.4-0.2,1.9,0.3
			c0.1,0.1,0.1,0.2,0.3,0.1c0.1-0.1,0.2-0.7,0.1-0.8c-0.2-0.3-0.5-0.7-0.7-1c-0.1-0.1-0.2-0.2-0.3-0.1c-1.7,1-3.4,2-5.1,2.9
			c-0.1,0.1-0.2,0.1-0.1,0.3c0.6,0.9,1.2,1.8,1.9,2.6l0.1,0.1c0.1-0.2,0.3,0.1,0.4,0c0-0.2,0.1-0.4-0.1-0.6
			c-0.1-0.1-0.2-0.3-0.1-0.4c0.1-0.1,0.2-0.3,0.4-0.1c0.1,0.1,0.1-0.1,0.1-0.1c0-0.2,0-0.3,0-0.5s0-0.4,0.2-0.5
			C17.6,38.5,17.6,38.6,17.7,38.7z M33.2,41.6c0,0.2,0,0.3,0,0.5c0,0.1,0,0.3,0.1,0.3c0.1,0.1,0.2-0.1,0.3-0.1s0.1-0.1,0.2-0.1
			c0.6-0.3,0.8-0.2,1,0.5v0.1c0.1,0.1,0.2,0.1,0.3,0.1c0.2-0.1,0.2-0.6,0-0.8c-0.4-0.3-0.9-0.4-1.3-0.7c-0.5-0.4-1-0.1-1.5-0.1
			c-0.1,0-0.1,0-0.2,0c-0.2,0-0.3,0.1-0.3,0.3c0,1.9,0,3.8,0,5.7c0,0.2,0,0.3,0.3,0.3c0.6,0,1.1,0,1.7-0.1c0.4,0,0.8-0.1,1.2-0.2
			c-0.6-0.2-0.8-0.5-0.7-1.1c0-0.2,0.1-0.4-0.2-0.4c-0.5-0.2-0.6-0.5-0.7-1c-0.1-0.4-0.2-0.7-0.4-1s-0.3-0.6-0.2-0.9
			c0.1-0.3,0-0.5-0.3-0.5c-0.1,0-0.3-0.1-0.3-0.2c0-0.2,0.1-0.3,0.3-0.3C32.7,41.9,33,41.9,33.2,41.6z M26.8,47
			c-0.2-0.2-0.1-0.6,0.1-0.7c0.3-0.1,0.5,0,0.8,0.1c0.1,0.1,0.2,0.1,0.4-0.1c0.2-0.3,0.2-0.7,0.5-1c0.1-0.1,0-0.2-0.2-0.3
			c-0.2,0-0.4,0-0.7,0c0.1,0.1,0.1,0.2,0.2,0.3c0,0.1,0.1,0.1,0.1,0.2c0,0.1-0.1,0-0.2,0s-0.2-0.1-0.2-0.2c0.1-0.2-0.1-0.3-0.2-0.4
			c-0.1-0.2-0.3-0.1-0.4,0s0,0.2,0.1,0.3c0,0,0.1,0.1,0,0.2c-0.2-0.3-0.5-0.6-1-0.3c0-0.2,0.3-0.1,0.2-0.3c0-0.1-0.2-0.2-0.3-0.2
			c-0.1,0-0.3-0.1-0.2,0.2c0,0.1,0,0.1-0.1,0.1s-0.1,0-0.2-0.1s0-0.3,0.2-0.4c0.1,0,0.3,0,0.4-0.1c-0.2-0.4-0.6-0.4-0.9-0.6
			c-0.1,0-0.1,0-0.1,0.1c-0.1,0.2-0.3,0.3-0.2,0.5c0,0.2,0.2,0.1,0.3,0.2l0.1,0.1c0.4,0.3,0.5,1.2,0.2,1.6c-0.1,0.1-0.3,0-0.2,0.2
			c0.1,0.1,0.2,0.1,0.3,0.1C26.1,46.8,26.4,46.9,26.8,47z M35.8,42.7c0,0.3,0.1,0.6,0.1,0.9c0,0.4,0.1,0.8,0.4,1.2
			c0.2,0.2,0.3,0.5,0.4,0.7c0-0.2-0.1-0.4-0.1-0.6c0-0.5-0.1-1.1-0.5-1.5C35.9,43.2,35.9,43,35.8,42.7z M18.3,30.9
			c-0.4,0.2-0.6,0.6-1.1,0.7c0.3,0.1,0.5,0.1,0.8,0.1s0.4-0.2,0.4-0.5C18.3,31.1,18.3,31,18.3,30.9z M34.1,41.1L34.1,41.1
			c0.3,0.1,0.5,0.3,0.6,0.5c0,0,0.1,0.1,0.2,0c0.1-0.1,0.1-0.1,0-0.2c-0.1-0.1-0.2-0.3-0.2-0.4C34.5,41,34.3,41,34.1,41.1z
			 M36.1,40.6c-0.5,0.1-0.5,0.1-0.5,0.5c0,0.1-0.1,0.3,0.1,0.3c0.2,0,0.2-0.2,0.2-0.3C35.9,40.9,35.9,40.7,36.1,40.6z M14.3,25.4
			c0.2,0.2,0.4,0.3,0.5,0.5C15,25.5,14.9,25.4,14.3,25.4z M16.2,21.6c0.2-0.4,0-0.5-0.5-0.5C15.8,21.3,16,21.4,16.2,21.6z
			 M15.7,20.8c0.1,0.1,0.3,0.1,0.4,0.2c0.2,0.1,0.4,0,0.3-0.3C16.2,20.8,16,20.8,15.7,20.8z M14.4,25.1c0.6,0.3,0.6,0.3,0.7-0.1
			C14.9,25.1,14.6,25.1,14.4,25.1z M13.5,32.3c-0.2-0.1-0.3-0.2-0.4-0.3c0,0.2-0.1,0.3-0.1,0.5C13.1,32.4,13.3,32.4,13.5,32.3z
			 M25.2,42.7c-0.3-0.1-0.5,0.1-0.7,0.3C24.7,42.9,24.9,42.7,25.2,42.7z M37.1,43.9c0.2,0.1,0.3,0.1,0.4,0.2
			c-0.1-0.2-0.2-0.3-0.2-0.5h-0.1C37.3,43.7,37.2,43.8,37.1,43.9z M35,44.9c0.3-0.4,0.3-0.4-0.1-0.6C35,44.5,34.9,44.7,35,44.9z"/>
		<path class="st1" d="M44,25.5c0.1,0.2-0.1,0.2-0.3,0.2s-0.4,0.2-0.4-0.2c0-0.3-0.1-0.6-0.1-0.8c0-0.1-0.1-0.2-0.2-0.2
			c-0.3,0.1-0.7,0.2-1,0.3c-0.2,0-0.2,0.1-0.1,0.3c0.4,1.6,0.4,3.2,0,4.9c0,0.2,0,0.2,0.1,0.3c0.3,0.1,0.6,0.2,1,0.3
			c0.1,0,0.2,0,0.2-0.1c0-0.3,0.1-0.5,0.1-0.8s0.2-0.2,0.4-0.2s0.3,0,0.3,0.3c-0.1,1-0.4,2-0.7,2.9c-0.1,0.2-0.1,0.2-0.3,0.1
			c-0.4-0.2-0.4-0.2-0.3-0.6c0.1-0.2,0.1-0.4,0.2-0.6c0.1-0.2,0-0.2-0.1-0.3c-0.3-0.1-0.7-0.2-1-0.3c-0.2,0-0.2,0-0.3,0.2
			c-0.5,1.3-1.2,2.5-2.1,3.5c-0.1,0.1-0.1,0.2,0,0.3c0.3,0.2,0.5,0.5,0.8,0.7c0.1,0.1,0.2,0.1,0.3,0c0.1-0.2,0.3-0.4,0.5-0.6
			c0.1-0.2,0.2-0.2,0.3,0c0.1,0.1,0.1,0.1,0.2,0.2c0.1,0.1,0.1,0.1,0,0.3c-0.6,0.8-1.3,1.6-2.1,2.2c-0.1,0.1-0.2,0.1-0.2,0
			c-0.1-0.1-0.1-0.2-0.2-0.2c-0.1-0.1-0.1-0.2,0-0.3c0.3-0.2,0.5-0.4,0.8-0.7c0.1-0.1,0.1-0.2,0-0.3c-0.3-0.2-0.5-0.5-0.8-0.8
			c-0.1-0.1-0.2-0.1-0.3,0c-1.1,1-2.3,1.7-3.7,2.2c-0.1,0-0.2,0.1-0.1,0.3c0.1,0.4,0.2,0.7,0.3,1.1c0,0.1,0.1,0.2,0.2,0.1
			c0.3-0.1,0.5-0.2,0.8-0.3c0.2-0.1,0.2-0.1,0.3,0.1c0.2,0.5,0.2,0.4-0.2,0.6c-0.9,0.4-1.8,0.6-2.7,0.7c-0.3,0-0.3-0.1-0.3-0.3
			c0-0.1-0.2-0.4,0.1-0.4s0.6-0.1,0.9-0.2c0.2,0,0.2-0.1,0.2-0.3c-0.1-0.3-0.2-0.6-0.3-1c0-0.2-0.1-0.2-0.3-0.2
			c-1.2,0.3-2.4,0.3-3.6,0.1c-0.3,0-0.6-0.1-0.9-0.2c-0.2,0-0.2,0-0.3,0.2c-0.1,0.4-0.2,0.7-0.3,1.1c0,0.1,0,0.2,0.2,0.3
			c0.3,0,0.5,0.1,0.8,0.1c0.2,0,0.3,0.1,0.3,0.3c0,0.3-0.1,0.4-0.4,0.3c-0.9-0.2-1.8-0.4-2.7-0.8c-0.2-0.1-0.2-0.2-0.1-0.4
			c0.1-0.1,0.1-0.5,0.4-0.3c0.2,0.1,0.5,0.2,0.8,0.3c0.2,0.1,0.2,0,0.3-0.1c0.1-0.3,0.2-0.7,0.3-1c0.1-0.2,0-0.3-0.2-0.3
			c-0.9-0.3-1.7-0.7-2.5-1.3c-0.4-0.3-0.7-0.5-1.1-0.9c-0.1-0.1-0.2-0.1-0.3,0c-0.3,0.3-0.5,0.6-0.8,0.8c-0.1,0.1-0.1,0.2,0,0.3
			c0.3,0.2,0.5,0.4,0.8,0.6c0.1,0.1,0.2,0.2,0,0.3c-0.1,0.1-0.1,0.5-0.5,0.2c-0.8-0.6-1.5-1.4-2.1-2.2c-0.1-0.1-0.1-0.2,0-0.3
			s0.2-0.1,0.3-0.2c0.1-0.1,0.2-0.1,0.2,0c0.2,0.2,0.3,0.4,0.5,0.6c0.1,0.1,0.2,0.2,0.3,0c0.3-0.3,0.5-0.6,0.8-0.8
			c0.1-0.1,0.1-0.2,0-0.3c-0.9-1-1.6-2.2-2.1-3.5c0-0.1-0.1-0.2-0.2-0.1c-0.4,0.1-0.8,0.2-1.1,0.3c-0.2,0-0.2,0.1-0.1,0.2
			c0.1,0.3,0.2,0.6,0.3,0.8c0.1,0.2,0,0.2-0.1,0.3c-0.1,0-0.2,0.1-0.3,0.1c-0.1,0.1-0.2,0-0.2-0.1c-0.4-1-0.6-2-0.8-3
			c0-0.1,0-0.2,0.2-0.2c0.5-0.1,0.5-0.1,0.6,0.4c0,0.2,0.1,0.4,0.1,0.6s0.1,0.3,0.3,0.2c0.3-0.1,0.7-0.2,1-0.3
			c0.2,0,0.2-0.1,0.2-0.3c-0.4-1.6-0.4-3.2,0-4.8c0-0.2,0-0.2-0.2-0.3c-0.4-0.1-0.7-0.2-1.1-0.3c-0.2-0.1-0.2,0-0.2,0.2
			c0,0.3-0.1,0.6-0.1,0.8c0,0.2-0.1,0.2-0.3,0.2c-0.1,0-0.2,0-0.3,0c-0.1,0-0.2-0.1-0.2-0.2c0.1-1,0.4-2,0.8-3
			c0-0.1,0.1-0.1,0.2-0.1c0.5,0.2,0.5,0.1,0.3,0.6c-0.3,0.8-0.3,0.8,0.5,1C22,24,22,24,22.2,23.3c0.4-1.1,1-2.1,1.8-3
			c0.2-0.2,0.2-0.3,0-0.4c-0.3-0.2-0.5-0.5-0.7-0.7c-0.1-0.1-0.2-0.1-0.3,0c-0.1,0.2-0.3,0.3-0.4,0.5c-0.2,0.3-0.3,0-0.5,0
			c-0.2-0.1-0.2-0.2-0.1-0.4c0.6-0.8,1.3-1.5,2-2.1c0.2-0.2,0.3-0.1,0.4,0.1c0.1,0.1,0.3,0.3,0,0.5s-0.5,0.4-0.7,0.6
			c-0.1,0.1-0.1,0.2,0,0.3c0.3,0.3,0.6,0.5,0.8,0.8c0.1,0.1,0.2,0.1,0.3,0c1.1-1,2.3-1.7,3.6-2.1c0.2-0.1,0.2-0.1,0.2-0.3
			c-0.1-0.3-0.2-0.7-0.3-1.1c0-0.2-0.1-0.2-0.3-0.1c-0.3,0.1-0.5,0.2-0.8,0.3c-0.2,0.1-0.2,0-0.3-0.1c-0.2-0.4-0.2-0.4,0.2-0.6
			c0.9-0.3,1.7-0.6,2.6-0.7c0.2,0,0.3,0,0.3,0.2s0.2,0.4-0.2,0.4c-0.3,0-0.5,0.1-0.8,0.1c-0.2,0-0.2,0.1-0.2,0.3
			c0.1,0.4,0.2,0.7,0.3,1.1c0,0.1,0.1,0.1,0.2,0.1c1.5-0.3,3.1-0.4,4.6,0c0.1,0,0.2,0,0.2-0.1c0.1-0.4,0.2-0.7,0.3-1.1
			c0.1-0.2,0-0.2-0.2-0.2c-0.3-0.1-0.6-0.1-0.9-0.2c-0.2,0-0.2-0.1-0.2-0.3c0.1-0.5,0-0.5,0.5-0.4c0.9,0.1,1.8,0.4,2.6,0.8
			c0.2,0.1,0.3,0.1,0.1,0.3c-0.1,0.1-0.1,0.5-0.4,0.3c-0.2-0.1-0.5-0.2-0.7-0.3s-0.3,0-0.3,0.2c-0.1,0.3-0.2,0.6-0.3,0.9
			c-0.1,0.2,0,0.3,0.2,0.3c1.4,0.4,2.6,1.2,3.6,2.1c0.1,0.1,0.2,0.1,0.3,0c0.2-0.3,0.5-0.5,0.7-0.7c0.2-0.1,0.1-0.2,0-0.3
			c-0.2-0.2-0.5-0.4-0.7-0.6c-0.2-0.1-0.2-0.2,0-0.3c0.1-0.1,0.1-0.1,0.2-0.2c0.1-0.1,0.1-0.1,0.2,0c0.8,0.7,1.5,1.4,2.2,2.2
			c0.1,0.1,0.1,0.2,0,0.2c-0.1,0.1-0.2,0.1-0.3,0.2s-0.2,0.1-0.3,0c-0.1-0.2-0.3-0.4-0.5-0.6c-0.1-0.1-0.2-0.1-0.3,0
			c-0.2,0.2-0.5,0.5-0.7,0.7c-0.2,0.1-0.1,0.2,0,0.4c0.8,0.9,1.4,1.9,1.9,3c0.1,0.2,0.1,0.6,0.3,0.6c0.2,0.1,0.5-0.1,0.7-0.2
			c0.7-0.2,0.7-0.2,0.4-0.8c0-0.1-0.1-0.2-0.1-0.3c-0.1-0.2,0-0.3,0.2-0.4c0.4-0.1,0.4-0.1,0.5,0.2C43.6,23.6,43.9,24.5,44,25.5z
			 M41.4,27.5c0-5.4-4.3-9.7-9.7-9.7s-9.8,4.3-9.8,9.7s4.4,9.7,9.8,9.7C37,37.2,41.4,32.8,41.4,27.5z"/>
		<path class="st1" d="M37.4,8.8c0.7-0.1,1.3,0,1.8,0.3s0.7,0.7,0.2,1.1c-0.4,0.4-0.6,0.7-0.6,1.3c0,0.4-0.3,0.7-0.8,0.7
			c-0.1,0-0.2,0.1-0.2,0.1c-0.1,0.1-0.1,0.1-0.2,0c-0.1,0-0.1-0.1,0-0.2c0-0.1,0.1-0.2,0.2-0.3c0-0.1,0-0.2-0.1-0.3
			s-0.2,0.1-0.2,0.2c0,0.7-0.4,1.2-0.7,1.7c-0.1,0.2-0.1,0.3,0,0.5s0,0.3-0.2,0.3c-0.3-0.1-0.6-0.4-0.6-0.7c0-0.1,0.1-0.2,0.2-0.3
			c0.3-0.3,0.3-0.7-0.2-0.9c-0.3-0.1-0.4-0.5-0.7-0.7c-0.2,0.3-0.4,0.5-0.8,0.6c-0.1,0-0.1,0.1-0.1,0.2c0,0.3-0.1,0.6,0,0.9
			c0,0.1,0,0.2-0.1,0.2c-0.2,0-0.4,0.1-0.5,0s-0.2-0.1-0.1-0.4c0.1-0.3,0.1-0.7,0.1-1.1c0-0.1-0.1-0.3,0.1-0.3
			c0.1,0,0.1-0.1,0.1-0.2c0-0.3,0-0.6,0.1-0.9c0.1-0.2-0.2-0.4-0.3-0.6c-0.1-0.2-0.1-0.4,0-0.5c0-0.1,0-0.1,0.1-0.1S34,9.5,34,9.5
			c-0.2,0.3,0,0.5,0.4,0.5s0.8,0.1,1.1,0.2c0.6,0.2,1.2,0.4,1.8,0.2c0.3-0.1,0.4-0.2,0.3-0.5c0-0.1,0-0.2,0.1-0.2
			c0.2,0,0.5,0,0.7,0.1c0.1,0,0.1,0.2,0.3,0.1c0.1-0.1,0.2-0.3,0.1-0.5c-0.1-0.1-0.2-0.2-0.4-0.2C38.1,9.1,37.8,9,37.4,8.8z"/>
		<path class="st1" d="M21.1,13.6c0,0.2-0.2,0.3,0.1,0.4c0.2,0.1,0.5,0.3,0.7,0.1c0.1-0.1,0.2-0.4,0.1-0.6c0-0.1-0.1-0.2,0-0.4
			c0.1,0.1,0.1,0.1,0.2,0.2c0.1-0.2-0.1-0.3-0.1-0.4c0.5,0.1,0.6,0.7,0.3,1c-0.1,0.1-0.2,0.2-0.2,0.3c-0.1,0.2-0.2,0.3-0.5,0.3
			c-0.2,0-0.4-0.1-0.6-0.1c-0.1,0-0.1-0.1-0.2,0.1c-0.1,0.1-0.2,0.3-0.3,0.4c0.5,0.1,0.8,0.3,0.8,0.9c0,0.3,0,0.5,0.1,0.8
			c0,0.1,0.1,0.2-0.1,0.2s-0.1-0.1-0.1-0.1c0-0.3-0.1-0.6-0.1-1c0-0.2-0.2-0.2-0.3-0.4c-0.1,0-0.2,0.1-0.2,0.1c-0.1,0-0.1,0.1,0,0.2
			c0.1,0.2,0.2,0.5,0.1,0.8c0,0.2,0,0.4,0,0.6c0.1,0.2,0.1,0.3-0.1,0.4c-0.1-0.3,0-0.6-0.1-0.9c0,0,0-0.1,0-0.2c0-0.2,0-0.3-0.1-0.4
			S20.3,16,20.2,16c-0.1,0-0.2,0-0.2,0.1c0.3,0,0.3,0.2,0.2,0.4c-0.1,0.5-0.2,0.9-0.4,1.3c-0.1,0.2-0.2,0-0.3,0.2
			c0.2-0.5,0.5-0.9,0.4-1.4c-0.2,0.1-0.3,0.2-0.3,0.4c-0.1,0.5-0.4,0.9-0.7,1.4c0-0.2,0.1-0.4,0.1-0.5c0.2-0.2,0.2-0.5,0.2-0.7
			c0-0.1,0-0.1-0.1-0.2C19,17,19,17,19,17c-0.1,0.2-0.3,0.3-0.5,0.3c-0.1,0-0.1,0.1-0.1,0.1c-0.1,0.2-0.2,0.4-0.4,0.4h-0.1
			c-0.1,0.4-0.4,0.4-0.8,0.5c-0.2,0-0.3,0.1-0.4,0s-0.1-0.1-0.2-0.1c-0.2,0-0.3-0.1-0.3-0.2c-0.1-0.5-0.6-0.9-0.2-1.5
			c0.1-0.1,0-0.4,0.1-0.6c0.1-0.1,0-0.3,0.3-0.2c0.1,0,0.1-0.1,0.1-0.1c0-0.1,0-0.2-0.1-0.3c0.2,0,0.3,0.2,0.3,0.3
			c0,0.3-0.1,0.5-0.2,0.8c-0.1,0.1-0.1,0.2,0,0.3c0.1,0.1,0.1,0.2,0.1,0.3c0,0.2,0,0.4,0.2,0.6c0.3,0.3,0.7,0.2,0.9-0.2
			c0.2-0.4,0.2-0.7,0.4-1.1c0-0.1,0.1-0.1,0-0.2s-0.1,0-0.2,0c-0.2,0.1-0.5,0.3-0.6,0.5c-0.1,0.1-0.1,0.2-0.4,0.3
			c0.4-0.4,0.6-0.9,1.1-1.2c0.3-0.2,0.3-0.2,0.3-0.5c-0.5,0.1-0.8,0.5-1.1,1c-0.1-0.5,0.2-0.6,0.4-0.8c0.2-0.2,0.4-0.3,0.7-0.5
			c0.2-0.1,0.3-0.2,0.5,0.1c0-0.1,0-0.3,0-0.4c0-0.2-0.1-0.1-0.2-0.1c-0.3,0.1-0.5,0.3-0.8,0.5c-0.1,0.1-0.3,0.2-0.5,0.2
			c-0.1-0.1,0.3,0,0.1-0.2c-0.1-0.1,0,0,0,0c0.3-0.1,0.5-0.2,0.8-0.4c0.2-0.1,0.4-0.2,0.6-0.3c0.1,0,0.2,0.1,0.3-0.1
			c0-0.1,0.1-0.3,0-0.3s-0.3-0.1-0.4,0c-0.2,0.2-0.6,0.3-0.8,0.5c0,0-0.1,0.1-0.1,0c-0.1-0.1-0.1-0.1,0-0.1c0.5-0.2,0.9-0.6,1.5-0.7
			c0.2,0,0.2,0.1,0.3,0.2c0.1,0.1,0.1,0.2,0.2,0.1c0.1-0.1,0.2-0.2,0.3-0.3c0-0.1-0.1-0.1-0.1-0.2c-0.1-0.1-0.2-0.2-0.3-0.2
			c-0.4-0.4-0.1-0.8-0.2-1.3c-0.1-0.3,0.3-0.5,0.7-0.5C20.1,11.8,20,11.8,20,12c0.1,0.1,0.1-0.1,0.2-0.1c0.1,0.1,0,0.2,0,0.2
			c-0.3,0.2-0.2,0.5-0.3,0.7c-0.1,0.4,0.5,0.8,0.8,0.7c0.1,0,0.1,0,0.1,0C20.8,13.8,21,13.7,21.1,13.6z"/>
		<path class="st1" d="M49.1,30.9c0.2-0.1,0.2-0.3,0.2-0.5c0-0.1-0.1-0.3-0.2-0.2c-0.4,0.1-0.6-0.2-0.9-0.3c-0.1,0-0.3-0.1-0.4-0.1
			c-0.1,0-0.3-0.1-0.4-0.1C47,29.5,46.9,29.2,47,29c0.1-0.3,0.5-0.5,0.9-0.3l0,0c-0.2,0-0.4,0.1-0.4,0.3c0,0.2,0.3,0.2,0.4,0.2
			c0.6,0,1.2,0,1.7,0.4c0.6,0.4,0.5,1.1-0.1,1.5c-0.1,0-0.2,0.1-0.2,0.1C49,31.2,49,31.1,49.1,30.9C49,30.9,49.1,30.9,49.1,30.9z"/>
		<path class="st1" d="M45.8,34.5c-0.2-0.1-0.4-0.2-0.5-0.4c-0.2-0.4,0-0.8,0.5-0.8c0.2,0,0.4,0,0.6,0.2c0.3,0.2,0.6,0.3,0.9,0.3
			c0.1,0,0.1,0,0.2,0.1c0.1,0.1,0.2,0.2,0.4,0.2c0.2-0.1,0.3-0.2,0.3-0.4c0-0.1-0.1-0.3,0.1-0.3c0.2,0,0.2,0.2,0.3,0.3
			c0.2,0.6-0.2,1.2-0.8,1.2c-0.5,0-1-0.2-1.4-0.5c-0.1-0.1-0.2-0.2-0.3-0.3s-0.3-0.2-0.4,0c-0.1,0.1,0,0.3,0,0.4
			C45.7,34.4,45.8,34.4,45.8,34.5z"/>
		<path class="st1" d="M50,30c0.3,0.4,0.6,0.7,0.4,1.2c-0.2,0.5-0.6,0.8-1.1,0.9c-0.2,0.1-0.5-0.2-0.6-0.4c-0.1-0.3,0.1-0.4,0.3-0.5
			C49.9,31.1,50.1,30.8,50,30z"/>
		<path class="st1" d="M48.4,34.7c0.4-0.6,0.5-0.9,0.1-1.5c-0.1-0.2-0.2-0.4,0-0.5s0.5-0.1,0.7,0c0.3,0.2,0.4,1,0.3,1.4
			C49.3,34.5,48.9,34.7,48.4,34.7z"/>
		<path class="st1" d="M46.9,32.1c-0.5,0-0.6-0.1-0.7-0.6c0,0.1,0,0.2-0.1,0.3H46c-0.2-0.3-0.1-0.9,0.2-0.9s0.7-0.1,0.9,0.3
			c-0.1,0.2-0.4,0.1-0.5,0.3C46.6,31.7,46.9,31.9,46.9,32.1z"/>
		<path class="st1" d="M47.6,33.1c-0.5-0.1-0.9-0.4-1.2-0.8c0.3,0.1,0.6,0.1,0.9,0c0.5-0.1,0.7,0.1,0.8,0.4c0,0.1,0,0.2-0.1,0.3
			c-0.1,0-0.1,0.1-0.2,0.1c-0.1,0,0-0.1,0-0.2v-0.1c0-0.2-0.1-0.3-0.3-0.3s-0.1,0.2-0.1,0.3C47.5,32.9,47.5,32.9,47.6,33.1z"/>
		<path class="st1" d="M48.3,30.9C48.2,31,48.2,31,48.1,31c-0.1,0.1-0.2,0.1-0.2,0.3c0,0.1,0.1,0.1,0.1,0.1c0.1,0,0.2,0,0.3-0.1
			s0-0.3,0.2-0.2c0.1,0.1,0.1,0.2,0,0.4c-0.2,0.3-0.6,0.3-0.9,0.1c-0.1-0.1-0.3-0.3-0.4-0.4c-0.1-0.1-0.3-0.2-0.5-0.3
			C47.5,30.6,47.9,30.6,48.3,30.9z"/>
		<path class="st1" d="M48.1,32.1c0-0.2,0.4-0.5,0.6-0.5c0.1,0,0.1,0.1,0.1,0.1c0.1,0.2,0.2,0.3,0.3,0.4c0.1,0.1,0.1,0.1,0.1,0.2
			c0,0.1-0.1,0.2-0.2,0.1c-0.1,0-0.2,0-0.3,0s-0.2,0.2-0.3,0.1C48.2,32.5,48.1,32.3,48.1,32.1z"/>
		<path class="st1" d="M47.3,31.3c0.1,0,0.1,0.1,0.2,0.1c0.1,0.1,0.2,0.2,0.3,0.3C48,31.8,48,31.8,48,32c-0.1,0.2-0.2,0.1-0.3,0.1
			s-0.3,0-0.4,0c-0.2,0.1-0.3,0-0.3-0.2C46.9,31.6,47.1,31.3,47.3,31.3z"/>
		<path class="st1" d="M47.7,34c-0.2-0.2-0.2-0.4-0.2-0.6c0-0.1,0.1-0.2,0.2-0.2c0.1,0,0.2,0.1,0.2,0.2C47.8,33.6,47.8,33.8,47.7,34
			z"/>
		<path class="st1" d="M49,30.2c0,0.3-0.2,0.4-0.3,0.6c-0.1,0.1-0.1,0.1-0.2,0c-0.1-0.1-0.1-0.2,0-0.2C48.6,30.4,48.8,30.3,49,30.2z
			"/>
		<path class="st1" d="M49.1,30.9C49.1,30.9,49,30.9,49.1,30.9c-0.1,0-0.2,0.2-0.3,0c-0.1-0.1,0.1-0.1,0.2-0.2
			c0.1-0.1,0.1-0.1,0.2-0.2C49.2,30.7,49.1,30.8,49.1,30.9z"/>
		<path class="st1" d="M48,33.8c0-0.1,0-0.3-0.1-0.4c0-0.1,0-0.1,0.1-0.2c0.1,0,0.1,0.1,0.1,0.1C48.1,33.6,48.1,33.7,48,33.8z"/>
		<path class="st1" d="M41.3,13.2C41.2,13.6,41,14,41,14.4c0,1,0.7,1.5,1.6,1.1c0.7-0.3,1.5-0.6,2.3-0.8c0.5-0.1,1,0,1.4,0.4
			c0.3,0.3,0.6,0.7,0.8,1v0.1c-0.2,0.3,0.1,0.4,0.1,0.6c0.1,0.3,0,0.6-0.3,0.8c-0.2,0.1-0.5,0.1-0.6,0.4c-0.9,0.2-1.5,0.9-2.4,1
			c-0.1,0-0.1,0-0.2,0c-0.5-0.2-0.8-0.6-1-1.2c0-0.2,0.1-0.2,0.1-0.4c0.1-0.4,0.3-0.7,0.4-1.1c0.4-0.9,1-1.2,2-1.1
			c0.3,0,0.3-0.1,0.4-0.3c0.1-0.1-0.1-0.2-0.2-0.2c-0.3,0-0.6,0-0.9,0.1c-0.6,0.2-1.1,0.5-1.6,0.8c-0.4,0.2-0.9,0.4-1.3,0.2
			c-0.8-0.2-1.2-1-0.9-1.8C40.8,13.8,41,13.5,41.3,13.2z M46.2,17.6c0.2,0,0.2-0.1,0.3-0.1c0.4-0.1,0.4-0.4,0.2-0.7
			c-0.1-0.1-0.1-0.2-0.3-0.2c-0.1,0-0.2,0.1-0.2,0.3C46.3,17.2,46.3,17.4,46.2,17.6z"/>
		<path class="st1" d="M49.6,24.2c-0.3,0-0.5-0.1-0.7-0.3c-0.1-0.2,0-0.4-0.1-0.6c0,0,0.1-0.1,0.1-0.2c0.2-0.2,0.1-0.5-0.1-0.5
			c-0.4-0.1-0.8-0.4-1.1-0.7c-0.3-0.3-0.6-0.1-0.7,0.2c-0.2,0.4-0.6,0.6-1,0.7c-0.1,0-0.2,0-0.1-0.1c0.3-0.6,0.1-1.2-0.3-1.7
			c-0.1-0.2-0.1-0.2,0.1-0.2c0.3,0,0.6,0.1,0.9,0.3c0.3,0.2,0.6,0.3,1,0.1c0.5-0.3,1.1-0.2,1.6,0c0.2,0.1,0.3,0.1,0.4-0.2
			c0-0.2,0.1-0.2,0.3-0.1c0.1,0.1,0.2,0.1,0.3,0.2c0.2,0.1,0.4,0.2,0.5,0.3c0.1,0.2,0,0.4-0.1,0.6c0,0.2,0.1,0.3,0.1,0.5
			c0.2,0.6-0.1,1.3-0.6,1.6C50,24.2,49.8,24.2,49.6,24.2z M49.9,23.4c0-0.1-0.1-0.2-0.2-0.1c-0.1,0-0.2,0.1-0.2,0.2s0.1,0.2,0.2,0.1
			C49.8,23.5,49.9,23.5,49.9,23.4z"/>
		<path class="st1" d="M50.3,24.3c-0.4,0.7-0.2,1.3,0.2,1.8c0.1,0.2,0,0.2-0.1,0.2c-0.3,0-0.6-0.1-0.9-0.3c-0.3-0.2-0.6-0.3-1-0.1
			c-0.5,0.2-1.1,0.2-1.6,0c-0.2-0.1-0.3-0.1-0.4,0.2c0,0.2-0.1,0.3-0.3,0.1c-0.2-0.2-0.5-0.3-0.7-0.4s-0.2-0.2-0.1-0.3
			c0.1-0.2,0.1-0.5,0-0.7C45.2,24,45.5,23.3,46,23c0.4-0.3,0.8-0.2,1.1,0.1c0.1,0.1,0.2,0.2,0.1,0.4v0.1c0.3,0.2,0,0.4-0.1,0.5
			c-0.1,0.2,0,0.4,0.2,0.4c0.4,0.1,0.7,0.3,1,0.7c0.3,0.3,0.6,0.2,0.8-0.1C49.4,24.5,49.7,24.3,50.3,24.3z M46.4,23.5
			c-0.1,0-0.2,0.1-0.2,0.2s0.1,0.2,0.2,0.2c0.1,0,0.2-0.1,0.2-0.2C46.6,23.5,46.5,23.5,46.4,23.5z"/>
		<path class="st1" d="M46.6,40.4c-0.3-0.4-0.7-0.5-1.2-0.5c0.1,0.2,0.1,0.4,0.4,0.4c0.2,0,0.1,0.3,0.1,0.4c-0.1,0.1-0.3,0.2,0,0.3
			c0.1,0,0,0.2-0.1,0.2c-0.4,0.2-0.6,0.5-1,0.6c-0.2,0.1-0.5,0.1-0.7,0c0,0.5,0.4,0.6,0.7,0.9c-0.5,0-1-0.1-1.4-0.4
			C43,42.2,42.9,42,43,41.8c0-0.2-0.1-0.2-0.3-0.2s-0.3,0.2-0.4,0.4c-0.1,0.2-0.1,0.1-0.3,0c-0.3-0.3-0.4-0.6-0.1-1.1
			c-0.1,0-0.2-0.1-0.3-0.1c-0.1-0.1-0.2-0.1-0.1-0.2c0.1-0.1,0-0.3-0.1-0.5c-0.3-0.3-0.3-0.6,0.1-0.8c0.1-0.1,0.3-0.3,0.5-0.3
			c0.3-0.1,0.2-0.3,0.1-0.4c-0.3-0.4-0.4-0.8-0.3-1.2c0.1-0.5,0.4-0.9,0.9-0.9c0.6-0.1,1.1,0.1,1.4,0.5c0.1,0.1,0.2,0.2,0.4,0.2
			c0.5,0,0.7,0.3,0.7,0.8c0,0.1,0,0.2,0.1,0.1c0.1,0,0.3-0.1,0.4,0c0.3,0.1,0.3,0.3,0.1,0.4c-0.2,0.2-0.3,0.4-0.3,0.6
			c-0.1,0.2,0.1,0.2,0.2,0.2c0.5,0.2,0.8,0.5,0.8,1C46.6,40.3,46.6,40.3,46.6,40.4z M42.3,38.2c0-0.1,0.1-0.2,0.1-0.3
			c0.2-0.6,0.6-0.8,1.3-0.7c0.1,0,0.1,0,0.2,0c0.1,0,0.2-0.1,0.1-0.2c-0.3-0.4-1-0.5-1.5-0.3C42.1,37,42,37.7,42.3,38.2z"/>
		<path class="st1" d="M25.1,8.9c0.4,0.2,0.8,0.3,1.2,0.5c0,0.1-0.1,0.1-0.1,0.1c-0.1,0.1-0.1,0.1,0,0.2c0.1,0.1,0.2,0.1,0.3,0
			c0.3-0.3,0.6-0.5,1-0.7c0.8-0.5,1.6-0.8,2.6-0.7h0.1c0.6,0.1,0.6,0.1,0.4,0.6c-0.4,0.9-0.7,1.9-1.1,2.8c-0.1,0.3-0.4,0.7,0.2,0.9
			c-0.2,0-0.3,0-0.5,0c0.3,0.1,0.5,0,0.6,0.3c-0.1,0.1-0.2,0-0.3,0c-0.3-0.1-0.4,0.1-0.4,0.4c0,0.1,0,0.2,0,0.3
			c-0.3-0.1-0.2-0.4-0.2-0.6c-0.1,0.1,0,0.2-0.1,0.3c-0.1,0-0.2-0.1-0.2-0.1c-0.1-0.2-0.2-0.2-0.4-0.1c-1.1,0.3-2.1,0.7-3.2,1
			c-0.5,0.1-0.5,0.1-0.6-0.3c-0.2-0.8,0-1.5,0.4-2.2c0.3-0.5,0.6-0.9,1-1.3c0.1-0.1,0.2-0.1,0.1-0.3c-0.1-0.1-0.2-0.1-0.2,0
			c-0.1,0.1-0.1,0.1-0.2-0.1C25.3,9.6,25.2,9.3,25.1,8.9z M30.1,8.9c0.1-0.2,0-0.2-0.1-0.2s-0.2,0-0.3,0c-1.2,0.1-2.1,0.7-2.9,1.4
			c-0.2,0.1,0,0.2,0,0.3c0.5,0.5,1,1.1,1.6,1.6c0.3,0.3,0.4,0.2,0.5-0.1c0.4-1,0.7-1.9,1.1-2.9C30,9,30.1,8.9,30.1,8.9z M24.9,13.2
			c0,0.6,0,0.6,0.5,0.4c0.9-0.3,1.8-0.6,2.7-0.8c0.3-0.1,0.3-0.2,0.1-0.5c-0.5-0.6-1.1-1.1-1.6-1.7c-0.1-0.1-0.2-0.1-0.3,0
			C25.5,11.4,25,12.2,24.9,13.2z"/>
	</g>
</g>
<path class="st0" d="M59.6,34.8H3.7c-1.7,0-3.1-1.4-3.1-3.1v-7.5c0-1.7,1.4-3.1,3.1-3.1h55.9c1.7,0,3.1,1.4,3.1,3.1v7.5
	C62.7,33.4,61.3,34.8,59.6,34.8z"/>
<g class="st2">
	<path class="st3" d="M4.5,31.3v-7.7h1.5v3h3v-3h1.5v7.7H9.1v-3.3h-3v3.3H4.5z"/>
	<path class="st3" d="M11.9,28.4c0-0.5,0.1-1,0.4-1.4c0.2-0.5,0.6-0.8,1-1s0.9-0.4,1.5-0.4c0.8,0,1.5,0.3,2.1,0.8s0.8,1.2,0.8,2.1
		c0,0.8-0.3,1.5-0.8,2.1c-0.5,0.6-1.2,0.8-2,0.8c-0.5,0-1-0.1-1.5-0.3c-0.5-0.2-0.8-0.6-1.1-1C12,29.6,11.9,29.1,11.9,28.4z
		 M13.4,28.5c0,0.5,0.1,1,0.4,1.3s0.6,0.4,1,0.4s0.7-0.1,1-0.4s0.4-0.7,0.4-1.3c0-0.5-0.1-1-0.4-1.3c-0.3-0.3-0.6-0.4-1-0.4
		s-0.7,0.1-1,0.4C13.5,27.5,13.4,28,13.4,28.5z"/>
	<path class="st3" d="M20.2,31.3h-1.5v-5.5h1.4v0.8c0.2-0.4,0.4-0.6,0.6-0.7c0.2-0.1,0.4-0.2,0.6-0.2c0.3,0,0.7,0.1,1,0.3l-0.5,1.3
		c-0.2-0.2-0.5-0.2-0.7-0.2c-0.2,0-0.4,0.1-0.5,0.2s-0.3,0.3-0.3,0.6c-0.1,0.3-0.1,0.9-0.1,1.9V31.3z"/>
	<path class="st3" d="M22.6,28.4c0-0.5,0.1-1,0.4-1.4c0.2-0.5,0.6-0.8,1-1s0.9-0.4,1.5-0.4c0.8,0,1.5,0.3,2.1,0.8s0.8,1.2,0.8,2.1
		c0,0.8-0.3,1.5-0.8,2.1c-0.5,0.6-1.2,0.8-2,0.8c-0.5,0-1-0.1-1.5-0.3c-0.5-0.2-0.8-0.6-1.1-1C22.7,29.6,22.6,29.1,22.6,28.4z
		 M24.1,28.5c0,0.5,0.1,1,0.4,1.3s0.6,0.4,1,0.4s0.7-0.1,1-0.4s0.4-0.7,0.4-1.3c0-0.5-0.1-1-0.4-1.3c-0.3-0.3-0.6-0.4-1-0.4
		s-0.7,0.1-1,0.4C24.2,27.5,24.1,28,24.1,28.5z"/>
	<path class="st3" d="M28.9,29.7l1.5-0.2c0.1,0.3,0.2,0.5,0.4,0.7c0.2,0.1,0.5,0.2,0.8,0.2c0.4,0,0.7-0.1,0.9-0.2
		c0.1-0.1,0.2-0.2,0.2-0.4c0-0.1,0-0.2-0.1-0.3c-0.1-0.1-0.2-0.1-0.5-0.2c-1.2-0.3-1.9-0.5-2.3-0.7c-0.4-0.3-0.7-0.7-0.7-1.2
		c0-0.5,0.2-0.9,0.6-1.2s1-0.5,1.8-0.5c0.8,0,1.3,0.1,1.7,0.4c0.4,0.2,0.6,0.6,0.8,1.1l-1.4,0.3c-0.1-0.2-0.2-0.4-0.3-0.5
		c-0.2-0.1-0.4-0.2-0.7-0.2c-0.4,0-0.7,0.1-0.8,0.2c-0.1,0.1-0.2,0.2-0.2,0.3c0,0.1,0,0.2,0.1,0.3c0.1,0.1,0.6,0.2,1.4,0.4
		c0.8,0.2,1.3,0.4,1.6,0.7c0.3,0.3,0.5,0.6,0.5,1.1c0,0.5-0.2,0.9-0.6,1.3c-0.4,0.4-1.1,0.5-1.9,0.5c-0.8,0-1.4-0.2-1.8-0.5
		C29.4,30.6,29.1,30.2,28.9,29.7z"/>
	<path class="st3" d="M40.2,27.4l-1.4,0.3c0-0.3-0.2-0.5-0.3-0.7c-0.2-0.1-0.4-0.2-0.7-0.2c-0.4,0-0.7,0.1-0.9,0.4
		c-0.2,0.3-0.3,0.7-0.3,1.3c0,0.7,0.1,1.1,0.3,1.4c0.2,0.3,0.5,0.4,0.9,0.4c0.3,0,0.5-0.1,0.7-0.2s0.3-0.4,0.4-0.8l1.4,0.2
		c-0.2,0.7-0.4,1.2-0.9,1.5c-0.4,0.3-1,0.5-1.7,0.5c-0.8,0-1.5-0.3-1.9-0.8s-0.7-1.2-0.7-2.1c0-0.9,0.2-1.6,0.7-2.1
		c0.5-0.5,1.1-0.8,2-0.8c0.7,0,1.2,0.1,1.6,0.4C39.8,26.3,40.1,26.8,40.2,27.4z"/>
	<path class="st3" d="M41,28.4c0-0.5,0.1-1,0.4-1.4c0.2-0.5,0.6-0.8,1-1s0.9-0.4,1.5-0.4c0.8,0,1.5,0.3,2.1,0.8s0.8,1.2,0.8,2.1
		c0,0.8-0.3,1.5-0.8,2.1c-0.5,0.6-1.2,0.8-2,0.8c-0.5,0-1-0.1-1.5-0.3c-0.5-0.2-0.8-0.6-1.1-1C41.1,29.6,41,29.1,41,28.4z
		 M42.5,28.5c0,0.5,0.1,1,0.4,1.3c0.3,0.3,0.6,0.4,1,0.4s0.7-0.1,1-0.4c0.3-0.3,0.4-0.7,0.4-1.3c0-0.5-0.1-1-0.4-1.3
		c-0.3-0.3-0.6-0.4-1-0.4s-0.7,0.1-1,0.4C42.6,27.5,42.5,28,42.5,28.5z"/>
	<path class="st3" d="M47.8,25.7h1.4v0.8c0.2-0.3,0.4-0.5,0.7-0.7c0.3-0.2,0.6-0.3,1-0.3c0.6,0,1.2,0.3,1.6,0.8s0.7,1.2,0.7,2.1
		c0,0.9-0.2,1.6-0.7,2.2c-0.5,0.5-1,0.8-1.6,0.8c-0.3,0-0.6-0.1-0.8-0.2s-0.5-0.3-0.8-0.6v2.8h-1.5V25.7z M49.3,28.4
		c0,0.6,0.1,1.1,0.4,1.4s0.5,0.4,0.9,0.4c0.3,0,0.6-0.1,0.9-0.4c0.2-0.3,0.3-0.7,0.3-1.3c0-0.6-0.1-1-0.4-1.3
		c-0.2-0.3-0.5-0.4-0.9-0.4c-0.4,0-0.7,0.1-0.9,0.4C49.4,27.5,49.3,27.9,49.3,28.4z"/>
	<path class="st3" d="M57.6,29.5l1.5,0.2c-0.2,0.5-0.5,0.9-0.9,1.2s-0.9,0.4-1.5,0.4c-1,0-1.7-0.3-2.1-0.9C54.2,30,54,29.3,54,28.6
		c0-0.9,0.2-1.6,0.7-2.2c0.5-0.5,1.1-0.8,1.8-0.8c0.8,0,1.5,0.3,2,0.8c0.5,0.5,0.7,1.4,0.7,2.5h-3.7c0,0.4,0.1,0.8,0.4,1
		c0.2,0.2,0.5,0.4,0.8,0.4c0.2,0,0.4-0.1,0.6-0.2S57.5,29.8,57.6,29.5z M57.7,28c0-0.4-0.1-0.7-0.3-1s-0.5-0.3-0.8-0.3
		c-0.3,0-0.6,0.1-0.8,0.4c-0.2,0.2-0.3,0.5-0.3,1H57.7z"/>
</g>
</svg>
