<svg id="INC" xmlns="http://www.w3.org/2000/svg" width="517" height="517" viewBox="0 0 517 517">
  <defs>
    <style>
      .cls-1, .cls-2, .cls-3 {
        fill: #fff;
      }

      .cls-1 {
        stroke: #acacac;
        stroke-width: 4px;
      }

      .cls-3, .cls-4, .cls-5, .cls-6 {
        fill-rule: evenodd;
      }

      .cls-4 {
        fill: #1e2630;
      }

      .cls-5 {
        fill: #0f813f;
      }

      .cls-6 {
        fill: #f27022;
      }
    </style>
  </defs>
  <circle id="Ellipse_1_copy" data-name="Ellipse 1 copy" class="cls-1" cx="258.5" cy="258.5" r="256.5"/>
  <ellipse class="cls-2" cx="257.5" cy="258.5" rx="252.5" ry="250.5"/>
  <path class="cls-3" d="M176.666,343.981c-0.2-2.468,1.078-3.463,3.27-4.246a76.666,76.666,0,0,0,9.631-4.427,23.153,23.153,0,0,0,4.4-3.253c0.955-.84,2.027-2,1.376-3.381-0.72-1.523-2.259-.962-3.443-0.615-3.694,1.081-7.314,2.448-11.038,3.393-3.651.925-4.089,0.515-4.044-3.326,0.082-6.994.3-13.986,0.467-20.978a1.045,1.045,0,0,1-.424-0.847,25,25,0,0,0,.362-4.895,6.794,6.794,0,0,1,.09-0.987c0.35-1.288.329-2.632,0.573-3.937a74.123,74.123,0,0,1,7.6-23.725c2.727-1.979,1.9-4.675,1.408-7.308,0.126-1.312-.514-2.481-0.658-3.744a187.4,187.4,0,0,1-.533-46.461c0.437-3.88.05-7.595-.068-11.4a82.122,82.122,0,0,1,3.67-26.783,15.685,15.685,0,0,0,.779-5.135,97.515,97.515,0,0,1,1.288-19.6,2.307,2.307,0,0,1,.744-1.731c1.571-5.909,2.651-11.966,5.121-17.605,1.942-4.435,4.217-8.617,7.725-12.01a12.112,12.112,0,0,1,3.705-2.434c5.784-2.5,9.259-.469,9.647,5.987,0.5,8.318-.666,16.662.211,25a98.836,98.836,0,0,1,.072,13.811c-0.108,3.055-.827,4.7-4.177,4.419a28.571,28.571,0,0,0-5.764.432,14.959,14.959,0,0,0-3.758.81c-2.069.834-2.487,2.671-1.918,4.642s2.195,1.87,3.712,1.4c2.971-.925,5.937-1.883,8.853-2.973,2.494-.933,3.251-0.212,3.519,2.522a220.629,220.629,0,0,1-.289,45.672,82.378,82.378,0,0,0-.156,17.1c0.392,3.928-1.267,6.371-4.17,8.167a83.24,83.24,0,0,1-7.762,3.944,20.636,20.636,0,0,0-6.007,3.752,7.074,7.074,0,0,0-.835,8.518c1.784,2.874,4.323,2.372,6.849,1.384,5.487-2.146,10.085-5.776,14.586-9.5a50.6,50.6,0,0,1,12.557-7.691c1.043-.8,2.35-0.009,3.428-0.6,4.288,1.287,5.723,3.386,5.414,8.178-0.132,2.053-.482,4.091-0.837,6.978,9.914-5.537,16.374-14.072,24-21.188a2.835,2.835,0,0,1,2.248-2.461c6.657-1.8,13.372-3.161,20.333-2.58a4.947,4.947,0,0,1,4.621,3.347c1.906,1.9,3.856.025,5.783,0.059a3.6,3.6,0,0,1,.822-0.263,18.951,18.951,0,0,0,3.335-.512,4.074,4.074,0,0,1,.836-0.18,18.724,18.724,0,0,0,3.392-.594,6.341,6.341,0,0,1,.891-0.088c1.2-.085,2.457.215,3.575-0.512a4.322,4.322,0,0,1,.945-0.145,7.734,7.734,0,0,0,3.868-.592,16.751,16.751,0,0,1,2.125-.084c3.911,0.1,7.82-.606,11.727,0,7.766,0.534,12.219,5.227,14.755,12.331,2.326,5.514,2.927,11.423,3.387,17.28a179.749,179.749,0,0,1,.106,22.658c-0.265,5.51-2.621,10.481-6.033,14.83-2.361,3.647-4.251,7.628-7.231,10.835-0.718.772-1.291,1.829-2.482,1.964-8.523.968-15.363,5.795-22.382,10.211-12.324,7.757-21.458,19.04-31.184,29.658-2.185,2.387-4.119,5.021-6.1,7.593a30.888,30.888,0,0,1-7.577,7.229c-8.609,5.7-14.75,13.893-19.345,23.267a7.527,7.527,0,0,0-.522,1.553c-0.331,1.385-.915,3.076.677,3.818,1.553,0.725,2.142-1.02,2.836-2.036,1.287-1.884,2.421-3.877,3.723-5.749a1.973,1.973,0,0,1,2.485-1c1.266,0.6,1.086,1.826.713,2.866-0.773,2.16-1.675,4.271-2.536,6.4a14.14,14.14,0,0,0-1.32,4.717c-0.049,1.179.2,2.247,1.413,2.657,1.13,0.381,1.881-.43,2.366-1.266a20.83,20.83,0,0,0,2.3-4.678c5.552-20.064,18.553-35.072,32.112-49.686a110.376,110.376,0,0,1,17.945-15.92c2.719-1.883,5.517-3.645,9.183-4.285-0.7,5.07-1.938,9.73-2.126,14.529-0.077,1.97-.062,3.946-0.04,5.918,0.006,0.5-.107,1.175.593,1.343a1.111,1.111,0,0,0,1.212-.852c0.963-2.077,1.871-4.182,2.785-6.283,0.609-1.4,1.163-2.83,1.8-4.219,1.084-2.366,2.549-3.745,5.294-2.289,0.927,0.492,2.146.406,3.075,0.9,2.391,1.258,3.751.039,5.008-1.833,3.477-5.18,5.933-10.911,8.6-16.533,2.475-5.228,4.948-10.458,7.491-15.651a17.763,17.763,0,0,1,2.169-3.252c2.165-2.689,3.415-2.566,5.493.3,0.93,1.284,1.286,3.055,2.942,3.741,0.646-.255,1.266.193,1.907,0.072,3.087-1.11,2.99-3.525,2.486-6.181-1.677-8.829-3.331-17.712-3.19-26.715a70.15,70.15,0,0,1,14.089-41.806c4.967-6.637,11.812-10.251,19.992-11.265a8.435,8.435,0,0,1,8.458,3.5,23.159,23.159,0,0,1,4.335,17.675c-0.576,3.955-2.477,5.5-6.7,6.343-1.365.273-3.409-.171-3.714,1.828s1.524,2.689,2.959,3.4a12.662,12.662,0,0,1,4.377,3.243,2.247,2.247,0,0,1,1.235,1.654c-0.054,4.228-1.03,8.364-1.223,12.579a6.689,6.689,0,0,1-.1,1.027,27.5,27.5,0,0,0-.546,5.043,5.671,5.671,0,0,1-.124,1.039c-0.467,1.757-.043,3.6-0.474,5.358-1.192,4.112-1.234,8.418-1.754,12.614-0.912,7.347-1.777,14.726-2.17,22.137a66.79,66.79,0,0,0-1.1,10.774,7.466,7.466,0,0,1-.227,1.014,75.094,75.094,0,0,0-1.233,8.878,7.228,7.228,0,0,1-.1.964,17.844,17.844,0,0,0-.545,3.754,5.373,5.373,0,0,1-.129.963,8.327,8.327,0,0,0-.559,3.4c-1.314,5.581-2.313,11.229-3.529,16.83-0.554,2.555-1.744,4.9-2.219,7.473a19.7,19.7,0,0,0-1.349,3.707,95.7,95.7,0,0,1-4.633,10.974c-0.522.933-.6,2.188-1.8,2.634a141.065,141.065,0,0,1-28.325,37.085c-2.918,2.729-6.019,5.252-9.035,7.87-1.621,3.039-4.712,4.458-7.32,6.07a197.65,197.65,0,0,1-20.519,11.381c-5.777,2.683-11.731,1.719-17.674,1-2.754-.333-5.453-1.175-8.266-0.943-1.182.1-2.513,0.181-2.847,1.624s0.8,2.167,1.829,2.755a25.4,25.4,0,0,0,4.778,1.9c2.445,0.831,4.9,1.474,7.475.577,2.17-.739,4.462-1.01,6.614-1.818,1.315-.185,2.63-0.364,3.926-0.678,0.85-.035,1.736-0.205,2.345.658,1.553,0.432,2.427.872,1.088,2.773-2.73,3.874-6.43,6.589-10.557,9.646,6.708,2.255,12.922,4.487,19.23,6.393,2.519,0.761,3.508,1.693,2.8,4.529a25.982,25.982,0,0,0-.814,8.13c0.179,2.452,1.012,4.459,3.456,5.387-0.855.985-2,.584-3.022,0.6q-63.408,1.1-126.817,2.145c-0.951.015-1.9-.145-2.856-0.222,3.1-15.035,6.608-29.949,12.654-44.1,0.375-.878.631-1.594-0.261-2.307-5.193-4.146-9.065-9.533-13.144-14.724-2.187-.715-2.843-2.916-3.69-4.6-5.458-10.884-10.007-22.153-12.648-34.14-0.348-1.577-1.4-3-1.034-4.737a5.591,5.591,0,0,0-.821-3.513c-1.742-10.653-3.35-21.322-4.251-32.089,0.163-3.6-.748-7.181-0.112-10.783C176.569,344.348,176.618,344.164,176.666,343.981ZM266.644,87.6c1.864-3.786,2.968-7.935,5.383-11.467a27.516,27.516,0,0,1,6.827-7.326c6.555-4.561,12.886-3.618,17.843,2.708,1.262,1.61,2.254,3.443,3.37,5.173a2.788,2.788,0,0,1,1.366,1.966c0.563,8.621.059,17.254,0.271,25.878,0.126,5.122-.478,10.263.392,15.364a50.272,50.272,0,0,1,.239,6.832q-0.019,10.257,0,20.514a9.95,9.95,0,0,0,.382,3.538,25.987,25.987,0,0,1,.258,4.827c0.131,4.651-.319,9.314.276,13.953a5.209,5.209,0,0,1,.248,1.089c0.262,2.134-.209,4.321.427,6.432a5.6,5.6,0,0,1,.214,1.048c0.236,2.287-.167,4.608.353,6.884a6.333,6.333,0,0,1,.115,1.1c-0.023,6.792.307,13.593-.638,20.349,0,0.353-.025.71-0.062,1.063a11.037,11.037,0,0,0-.67,3.468c-0.571,4.09-2.386,7.694-4.2,11.3-0.992,1.206-1.681,2.8-3.53,2.919-5.828,5.567-12.607,5.593-19.778,3.656-1.355-.367-2.081-0.888-1.934-2.4,0.084-.865-0.062-1.754.028-2.618,0.348-3.326.206-6.154-4.023-6.834-1.163-.186-2.12-1.707-3.172-2.616-1.466-.815-1.044-2.534-1.708-3.736a5.906,5.906,0,0,1-.186-1.675q-0.012-8.022,0-16.037a14.754,14.754,0,0,1,.251-2.3,46.893,46.893,0,0,0,.388-8.383,5.912,5.912,0,0,1,.258-2.144c0.743-2.029.222-4.145,0.4-6.212a11.182,11.182,0,0,0,0-3.479c-0.089-1.876.246-3.8-.574-5.594a13.224,13.224,0,0,1-.082-1.641c-0.025-2.107.193-4.236-.6-6.267,0.025-20.812-.248-41.622.039-62.428a11.165,11.165,0,0,0,.622-4.067C265.977,89.559,265.035,88.007,266.644,87.6Zm-6.517,137.2c0.209,2.345-.819,2.945-3.1,3.144-7.217.629-14.009,2.456-19.76,7.53-4.566,4.027-9.091,2.462-10.819-3.4-0.705-2.391-1.035-4.9-1.535-7.355q-0.21-.206-0.421-0.41c-0.674-4.7-.144-9.436-0.3-14.15,0-.38.024-0.762,0.062-1.14,0.629-5.866,1.218-11.739,1.871-17.6a7.413,7.413,0,0,1,.108-1.083,16.482,16.482,0,0,0-.1-6.466c-0.2-11.452-1.651-22.927-.692-34.328,1.1-13.091-.179-26.253,1.652-39.287a34.691,34.691,0,0,1,3.941-11.711,1.746,1.746,0,0,1,1.507-1.06c2.326-2.656,4.486-5.459,7.713-7.142,7.133-3.719,13.122-1.822,16.81,5.446q0.873,1.722,1.744,3.446c1.348,1.216.771,2.859,0.869,4.329,0.278,4.152.565,8.3,0.551,12.472-0.023,6.357.033,12.7,0.551,19.056,0.49,6.008-.537,11.994-1.013,17.99a112.272,112.272,0,0,0-.042,19.029,241.107,241.107,0,0,1,.534,40.035c-0.266,3.519.418,7,.322,10.511C260.558,223.409,260.787,224.193,260.127,224.8ZM309.254,94.01a23.281,23.281,0,0,1,7.736-7.491,2.318,2.318,0,0,1,2.085-1.35,13.052,13.052,0,0,1,4.577-.011,10.411,10.411,0,0,1,7.342,4.892c3.568,5.333,4.708,11.584,6.352,17.643a15.95,15.95,0,0,0,.461,3.173,4.737,4.737,0,0,1,.211.856,8.857,8.857,0,0,0,.489,3.4,3.852,3.852,0,0,1,.181.877,13,13,0,0,0,.6,4.107,8.393,8.393,0,0,1,.077,1.014c0.48,6.443,1.57,12.824,1.7,19.293a5.4,5.4,0,0,1,.2,1.04c0.126,2.255-.221,4.553.568,6.751a6.61,6.61,0,0,1,.1,1.041c0.2,2.063-.4,4.183.432,6.2a3.328,3.328,0,0,1,.2,1.026c0.12,1.919-.269,3.891.574,5.735a12.093,12.093,0,0,1,.088,1.637,27.054,27.054,0,0,0,.614,6.709q0.793,15.2,1.9,30.372c0.206,2.829-.142,5.7.657,8.482,0.1,2.114.048,4.231,0.036,6.345-0.677,7.735-6.038,10.606-12.382,12.365a10.784,10.784,0,0,1-2.771.625c-2.368.118-4.736,0.072-7.1,0.021a7.749,7.749,0,0,1-6.171-2.628c-0.759-4.295-3.284-7.061-7.016-9.013-1.447-.758-2.543-2.219-3.8-3.36-1.843-.595-0.386-1.83-0.512-2.759,0.656-1.015.494-2.173,0.544-3.3a4.4,4.4,0,0,1,.14-0.982c0.715-1.435.409-2.986,0.488-4.495a6.6,6.6,0,0,1,.171-1.61,62.3,62.3,0,0,0-.027-16.943,10.329,10.329,0,0,1-.151-2.193,17.689,17.689,0,0,0-.653-4.738,7.69,7.69,0,0,1-.223-1.633c-0.072-2.066.136-4.156-.562-6.165-0.822-13.546-.663-27.11-0.906-40.666-0.11-6.105-.609-12.212-0.525-18.335A42.271,42.271,0,0,1,307.52,96.51C307.845,95.579,307.854,94.235,309.254,94.01Z" transform="translate(-7 -17)"/>
  <path class="cls-4" d="M402.079,365.26c-4.1,14.9-9.1,29.409-17.739,42.336-4.791,7.169-10.631,13.421-16.327,19.794-7.139,7.987-14.677,15.593-19.764,25.3-2.641,5.038-3.151,10.423-3.374,15.835a109.833,109.833,0,0,0,.55,15.734c0.9,8.773-4.364,10.021-11.472,9.18a9.911,9.911,0,0,1-1.238-.309c-3.091-.022-3.772-2.375-4.2-4.762a22.263,22.263,0,0,1,.512-8.13c0.487-2.536-.428-3.773-2.83-4.506-5.217-1.59-10.338-3.5-15.512-5.239-2.882-.967-3.143-2.361-0.751-4.281a47.018,47.018,0,0,0,6.039-5.347,5.205,5.205,0,0,0,1.577-4.688,0.77,0.77,0,0,1,.189-0.233c0.29-.15.3-0.441,0.107-0.4-1.681.375-3.461-.029-5.088,0.6-3.451,1.334-7.131,1.434-10.7,2.141a6.921,6.921,0,0,1-5.27-.974c-1.487-.981-2.6-2.573-4.728-2.386-0.757.066-1.223-.81-1.2-1.678a1.7,1.7,0,0,1,1.641-1.71,18.373,18.373,0,0,1,6.383.272c6.792,1.284,13.805,2.13,20.264-.589,3.784-1.593,7.9-2.911,11.195-5.8a26.736,26.736,0,0,1,6.975-4.034c3.514-1.549,5.923-4.593,9.14-6.5a1.826,1.826,0,0,0,.471-1.194c2.085-3.568,5.667-5.552,8.559-8.242A138.528,138.528,0,0,0,380.9,393.549c0.97-1.663,1.6-3.607,3.371-4.671,0.35-.506.585,1.594,0.985,0.047,0.162-.629.406-1.23,0.586-1.855,0.9-1.926,1.319-4.148,3.225-5.448,1.078-.106,1.291.728,1.588,1.807-0.121-1.585-1.075-2.635-.971-3.972,1.329-4.233,2.067-8.72,5.011-12.258,1.083-.124,1.417-0.7,1.129-1.789a20.09,20.09,0,0,1-.486-5.222c0.8-6.182,2.527-12.17,3.454-18.328q1.849-12.29,3.009-24.655c0.838-9.011,1.313-18.067,3.024-26.982,1.59-8.28,1.819-16.724,2.712-25.088,0.22-2.06.879-4.069,0.693-6.181-0.094-1.058.233-2.291-1.3-2.569a29.182,29.182,0,0,1-6.264-3.95c-2.551-1.929-2.051-4.244.939-5.3,1.015-.358,2.093-0.481,3.116-0.805a6.186,6.186,0,0,0,4.577-5.382,22.68,22.68,0,0,0-3.756-16.235c-2.016-2.945-4.777-4.047-8.377-3.582-11.558,1.49-18.883,8.622-24.11,18.587-8.38,15.975-10.667,32.868-7.223,50.634,0.623,3.218,1.164,6.47,1.548,9.729,0.3,2.524.377,5.166-2.678,6.3a20.07,20.07,0,0,1-2.922,0c-1.476-.463-2.043-1.856-2.891-2.963-2.025-2.642-3.209-2.638-5.214.11a53.085,53.085,0,0,0-5.194,9.451c-3.3,7.255-6.318,14.656-10.3,21.574-0.435.757-.84,1.532-1.323,2.258-2.233,3.351-3.76,3.931-7.653,2.911-4.835-1.267-5.534-.922-7.57,3.766-1.045,2.4-1.771,4.954-3.053,7.25-0.531.951-1.2,2-2.5,1.586-1.113-.359-1.1-1.524-1.159-2.5a61.26,61.26,0,0,1,1.179-15.044c0.168-.912.83-2.068-0.116-2.757-0.9-.655-1.826.231-2.662,0.644-5.478,2.7-10.144,6.639-14.508,10.834a231.521,231.521,0,0,0-26.059,29.516,75.069,75.069,0,0,0-11.7,22.9,43.189,43.189,0,0,1-3.755,8.361c-0.814,1.465-1.9,2.9-3.833,2.141-1.717-.674-1.691-2.377-1.612-3.937a15.23,15.23,0,0,1,1.61-5.313,28.654,28.654,0,0,0,1.836-4.91,1.231,1.231,0,0,0-.415-1.462,1.1,1.1,0,0,0-1.4.473c-1.43,1.52-2.24,3.472-3.407,5.176-0.926,1.352-1.894,2.994-3.842,2.027-1.812-.9-1.563-2.7-1.161-4.348,0.769-3.149,2.52-5.827,4.261-8.445,4.923-7.4,10.449-14.223,18.4-18.492a10.948,10.948,0,0,0,3.355-3.49,205.2,205.2,0,0,1,31.234-33.533c8.82-7.546,18.563-13.855,30.12-16.4a5.068,5.068,0,0,0,2.836-2.017,53.982,53.982,0,0,0,5.192-7.518c0.528-.933.9-2.03,2.095-2.347,2.089-.249,2.546-2.314,3.1-3.65,2.782-6.716,3.32-13.784,3.5-21.095,0.232-9.41-1.078-18.515-2.658-27.667a4.16,4.16,0,0,0-1.212-2.247c-1.357-3.915-4.041-6.992-6.282-10.342-0.8-.552-1.723-0.323-2.593-0.436-8.331-2.695-16.681-1.392-25.068-.309-4.859.628-9.746,0.929-14.508,2.26A3.693,3.693,0,0,1,292.2,236.5c-0.79-1.446-2.263-1.857-3.86-1.926-6.592-.287-12.986,1.015-19.379,2.392a3.076,3.076,0,0,0-2.438,2.682c-0.726,2.228-2.808,3.212-4.263,4.762-4.729,5.042-9.526,10.03-15.132,14.082-1.42,1.026-3.055,2.938-4.741,1.873-1.667-1.053-.84-3.39-0.6-5.2,0.705-5.327-.563-7.674-4.745-8.693a4.189,4.189,0,0,0-3.164.676,64.371,64.371,0,0,0-13.287,8.6,45.735,45.735,0,0,1-12.773,8.171c-4.132,1.615-7.367.894-8.838-1.933a8.4,8.4,0,0,1,2.757-10.482,60.939,60.939,0,0,1,9.169-4.779c4.607-2.045,7.022-5.109,6.712-10.653-0.587-10.532.642-21.012,1.66-31.492,0.8-8.216-.29-16.421-0.762-24.624-0.025-.435-0.137-0.866-0.186-1.3-0.677-5.928-.675-5.924-6.132-4.07a49.222,49.222,0,0,1-4.909,1.585c-2.038.461-3.925,0.31-4.835-2.012a4.5,4.5,0,0,1,2.434-5.733,17.057,17.057,0,0,1,6-1.03c6.2-.465,6.14-0.492,7.032-6.679,0.842-5.835-.555-11.582-0.508-17.4,0.044-5.368.343-10.74,0.121-16.113-0.124-2.984.027-6.386-3.09-7.745-3.3-1.441-6.316.313-8.744,2.648-4.838,4.653-7.343,10.729-9.435,17-1.005,3.012-1.662,6.131-2.473,9.2-0.246.934-.064,2.589-1.922,2.141a8.3,8.3,0,0,1,.023-2.95c-0.746,8.81-1.491,17.644-1.662,26.543-0.095,4.956-2.545,9.669-3.274,14.669-1,6.839-1.6,13.67-.515,20.55,0.317,2.009-.258,3.91-0.494,5.855a151.489,151.489,0,0,0-1.184,27.166c0.468,7.933.561,15.95,2.631,23.717,0.574,2.155.943,4.324-.872,6.143-0.624.556-1.494,0.8-1.811,1.757-1.571,4.732-3.725,9.241-5.186,14.017-1.185,3.873-1.447,7.932-1.882,11.9-0.639,5.826-1.989,11.578-1.924,17.488-0.123,4.3-.016,8.6-0.056,12.9,0.02-4.234-.009-8.468.042-12.7,0.875-3.342-.213-6.9,1.079-10.2,1.669,0.339,1.333,1.8,1.368,2.869a47.509,47.509,0,0,1-.292,9.49,49.816,49.816,0,0,0-.258,8.184c-0.009,2.337,1.23,3.061,3.314,2.787a20.607,20.607,0,0,0,3.718-.995c2.341-.766,4.64-1.675,7.048-2.221,1.641-.372,3.306-0.526,4.21,1.3,0.835,1.689-.345,2.9-1.322,4.053a17.9,17.9,0,0,1-4.8,3.79,41.29,41.29,0,0,1-6.689,3.168c-2.549.92-4.9,2.073-6.375,4.543a0.73,0.73,0,0,1-.98-0.538c-0.106.08,0,.155,0.015,0.223,1.225,5.353,1.273,10.857,1.619,16.28,0.609,9.547,2.788,18.8,4.135,28.2a88.178,88.178,0,0,0,4,16.809c2.455,6.924,4.783,14.05,8.409,20.542,1.366,2.445,1.984,5.3,4,7.407a3.2,3.2,0,0,0,1.595,1,4.716,4.716,0,0,1,2.14,1.93,70.473,70.473,0,0,0,9.843,11.246,4.844,4.844,0,0,1,1.283,6.1c-4.848,11.75-8.084,24.015-10.716,36.459-0.424,2-.452,4.188-2.122,5.719l-1.34,3.4c-2.752-5.72-3.312-11.449-3.928-17.163-1.416-13.142-1.151-26.424-3.161-39.518a7.633,7.633,0,0,0-.818-2.8c-6.31-10.764-9.361-22.7-12.22-34.754-2.675-11.276-4.486-22.692-6.158-34.145-0.189-1.3-.195-2.621-0.286-3.933,0.57-3.445-.581-6.886.079-10.949-0.615,1.858.5,3.367-.711,4.492a170.023,170.023,0,0,1-1.8-26.457c-0.13-23.03,2.027-45.729,9.988-67.516a10.569,10.569,0,0,0,.309-3.9c-0.243-17.217.047-34.428,0.686-51.631,0.223-6.011.8-12.008,1.209-18.012,0.026-.214.052-0.429,0.079-0.643q-0.654-.369.059-0.595c1.3-10.275,3.673-20.365,3.958-30.83,0.313-11.46,2.708-22.6,8.1-32.847S207.519,111,218.75,108.793a6.654,6.654,0,0,0,5.481-4.67,35.289,35.289,0,0,1,7.953-12.982c7.286-7.152,15.878-9.764,25.7-7.424,2.507,0.6,3.429-.1,4.257-2.331a36.265,36.265,0,0,1,5.886-10.128c7.538-9.324,16.814-13.6,28.687-10.136,1.06,0.388,2.291.452,2.941,1.619,5.6,4,9.879,9.032,11.706,15.906,0.513,1.933,1.668,1.2,2.751.96,5.223-1.142,10.4-1.39,15.454.8,4.789,2.079,8.56,5.276,10.606,10.316-1.211,1.592.75,3.545-.549,5.132-0.082.289-.182,0.568-0.284,0.849-0.5,2.283,1.139,5.177-1.85,6.74-1.408-.307-1.693-1.548-2.056-2.67a78.667,78.667,0,0,0-3.969-10.336c0.139-1.291-.092-2.632-1.376-3-3.72-1.059-7.3-3.121-11.417-1.835-0.8.249-1.418,0.392-1.376,1.386-2.438,2.56-5.095,4.889-7.535,7.451-2.487,1.986-2.518,5.14-3.608,7.8-0.569,1.386-.1,3.415-2.145,3.99-2.2-.667-2.03-2.553-2.042-4.277-0.046-6.54-.007-13.081-0.024-19.622,0-1.871.014-3.755-1.812-4.921-1.48-.85-2.084-2.444-3.014-3.758-5.528-7.81-13.146-8.518-19.92-1.845a32.686,32.686,0,0,0-8.067,12.834c-0.465,1.352-.459,3.136-2.3,3.619a25.819,25.819,0,0,0-1.671,9.518c-0.2,6.209-.2,12.416-0.081,18.634,0.239,12.719-.183,25.45.132,38.167,0.2,8.08,1.873,16.134,1.1,24.231a265.567,265.567,0,0,0-1.194,27.207,26.163,26.163,0,0,0,.749,6.824,2.689,2.689,0,0,1,.308,1.166c-0.171,1.824.832-.022,1.11,0.379,1.753,1.039,3.287,2.434,5.282,3.074,2.041,0.654,2.158,2.465,2.23,4.285,0.261,6.661.306,6.694,6.849,7.52a14.965,14.965,0,0,0,9.9-2.048,13.132,13.132,0,0,1,3.4-1.822,5.331,5.331,0,0,0,4.557-3.447c0.669-1.65,1.039-3.508,2.848-4.374,1.442-1.042-.112-2.37.307-3.516,2.194-9.078,1.9-18.322,1.854-27.55a20.019,20.019,0,0,1,.173-3.906c0.535-1.284,1.057-2.59,2.825-2.271,1.969,6.234,1.624,12.634,1.093,19.006a112.058,112.058,0,0,1-1.5,12.593,1.627,1.627,0,0,0,.62,1.431c1.579,1.437,2.972,3.133,4.9,4.095a11.27,11.27,0,0,1,6.294,8.8,5.736,5.736,0,0,0,4.358,2.413A26.787,26.787,0,0,0,341.468,225c3.67-2.222,4.591-5.847,4.9-9.765,0.412-5.257-.541-10.462-0.8-15.694-0.414-8.481-.841-16.97-1.675-25.43-0.185-1.886-.579-3.952.709-5.716a0.692,0.692,0,0,1,.6-0.008c1.514,3.995,5.094,7.134,4.68,11.936-0.239,2.773.293,5.513,0.329,8.287,0.468-1.748-.978-3.543.4-5.225q0.546,4.07,1.093,8.139,0.711,0.274.014,0.585a0.515,0.515,0,0,0,0,.587c0.52,9.288.992,18.578,1.574,27.862,0.509,8.095,1.117,16.183,1.744,24.27,0.119,1.542-.5,3.819,1.315,4.322,2.182,0.6,3.727-1.456,4.837-3.041a34.159,34.159,0,0,0,2.888-6.144c6.175-14.291,16.123-24.2,31.337-27.7a20.752,20.752,0,0,1,19.507,5.093c5.037,4.676,5.67,11.348,4.924,17.716-1.962,16.747-5.137,33.336-6.374,50.186a5.266,5.266,0,0,1-.409,1.229c-0.918-1.366-.017-2.952-0.335-3.825-1.078,5.654-.721,11.932-1.4,18.166-0.785,7.251-1.225,14.56-2.325,21.763-0.965,6.317-1.105,12.735-2.911,18.994-0.762,2.64-1.885,5.559-1.562,8.554-0.387,4-2.3,7.752-1.9,11.889Q402.357,363.648,402.079,365.26Zm1.89-14.414c-0.039-4.026,1.2-7.766,2.118-11.629,1.274-5.342,1.661-10.913,2.315-16.4,0.639-5.367,1.14-10.751,1.7-16.128,0.514-4.961,2.254-10.228,1.174-14.8-1.009-4.264,2.581-7.032.874-10.784l0.917,0.033v5.351q-0.074,1.232-.146,2.465c-0.7,1.743.181,3.65-.532,5.391l-0.117,1.854c-0.6,1.384.051,2.923-.512,4.312a89.715,89.715,0,0,1-1.374,15.435c-0.7,1.361.041,2.918-.557,4.294q-0.035.814-.068,1.629c-0.7,1.139-.019,2.513-0.595,3.673a2.92,2.92,0,0,1-.078,2.26c-0.639,1.145,0,2.5-.566,3.654-0.017.316-.033,0.633-0.049,0.949-0.737,1.035.035,2.334-.567,3.392l0.032-.072c-1.05,1.42.095,3.188-.7,4.648l0.02-.05c-0.724,2.312-.767,4.76-1.35,7.1-1.389.829,0.514,2.737-1.094,3.5A0.469,0.469,0,0,1,403.969,350.846Zm0,0,0.837,0.076a49.3,49.3,0,0,1-2.17,11.112c-1.325-2.954-.134-5.7.824-8.391A9.3,9.3,0,0,0,403.969,350.846ZM171.483,366.651q-0.042-.659-0.084-1.315l-0.018-5.052q0.107-2.367.212-4.735c0.321,3.737,1.982,7.425.421,11.191Q171.747,366.7,171.483,366.651ZM405.9,347.427a14.309,14.309,0,0,1,1.35-7.1A20.421,20.421,0,0,1,405.9,347.427Zm6.486-53.078c0.169-1.8-.608-3.693.532-5.391A12.5,12.5,0,0,1,412.386,294.349Zm-5.156,46.028c0.211-1.553-.71-3.286.7-4.648A11.186,11.186,0,0,1,407.23,340.377Zm2.6-20.133c0.127-1.439-.576-2.991.557-4.294A7.363,7.363,0,0,1,409.826,320.244Zm1.931-19.729c0.121-1.444-.545-2.985.512-4.312C412.329,297.669,412.6,299.16,411.757,300.515Zm-2.594,25.031c0.127-1.236-.494-2.6.595-3.673A5.533,5.533,0,0,1,409.163,325.546Zm-0.644,5.914c0.121-1.229-.481-2.575.566-3.654Q408.8,329.633,408.519,331.46ZM407.9,335.8c0.043-1.156-.481-2.411.567-3.392A6.9,6.9,0,0,1,407.9,335.8Zm-63.77-234.71a37.994,37.994,0,0,1,2.048,11.576c0.693,11.134,1.245,22.278,1.852,33.418-1.756-1.444-1.8-3.719-1.834-5.558-0.05-2.412-.011-4.9.142-6.6,0.256,3.147-.477,6.991.514,10.928,0.724,2.879-.55,5.736-2.231,8.226a1.716,1.716,0,0,1-.921.564,1.34,1.34,0,0,1-1.417-.73,80.06,80.06,0,0,1-1.066-15.181c-0.167-2.4.463-4.865-.517-7.207-1.182-3.776-.875-7.767-1.6-11.613-0.853-4.492-1.478-9.024-2.1-13.55,0.64-2.252,2.555-3.593,3.791-5.428,0.744-1.1,1.482-.751,2.206.282C343.174,100.47,342.905,102.078,344.133,101.091Zm0.15,52.267c-0.567-1.638.825-2.56,1.177-3.936,1.5-5.86-.527-11.82,1-17.66,0.325,3.975-.069,8.019.817,11.954,0.185,0.825-.095,1.775.761,2.368q0.022,0.608.043,1.214c0.034,5.971.639,11.9,1.231,17.83l-0.036-.037c0.809,2.831-.341,5.82.662,8.636q0,0.847,0,1.7c0.73,2.236-.305,4.636.612,6.855,0.02,0.37.039,0.74,0.059,1.11v6.024a61.032,61.032,0,0,1-1.5-8.7c-0.128-2.475.625-5.561-3-7.027-1.247-.5.016-3.677-1.383-5.25a1.876,1.876,0,0,1-1.348-1.673c-0.231-4.227-1.11-8.4-1.058-12.646a1.478,1.478,0,0,1,.48-0.827,12.7,12.7,0,0,1,1.488.067c1.526,4.112,3.658,7.97,1.836,12.5-0.683,1.7,1.1,2.522,1.553,3.346-1.727-1.332-1.973-3.3-.779-5.606a3.075,3.075,0,0,0,.029-2.258c-0.761-2.1-1.16-4.071-.013-6.22a2.858,2.858,0,0,0-.578-2.791c0.5,1.214,1.411,2.892.043,3.469C344.729,156.491,345.38,153.686,344.283,153.358Zm-0.15-52.267c-0.052.72-.1,1.44-0.2,2.861-0.64-1.932-.9-3.32-2.312-4.21-0.658,2.191-2.5,3.339-3.978,4.819a0.913,0.913,0,0,1,0-1.316c1.9-2.141-.158-5.019,1.287-7.245a4.991,4.991,0,0,1,.737.93,4.031,4.031,0,0,0-.737-0.93c0.133-1.293.957-2.436-.1-3.907-0.988-1.371-.091-1.906,1.352-1.369Zm5.174,64.037a35.1,35.1,0,0,1-1.233-11.361c0.06-2.16-1.8-4.352,0-6.469A130.946,130.946,0,0,1,349.307,165.128Zm0.626,8.6c-1.486-2.777-.393-5.761-0.662-8.636A28.847,28.847,0,0,1,349.933,173.727Zm0.617,8.551c-1.4-2.173-.4-4.569-0.611-6.854A19.528,19.528,0,0,1,350.55,182.278Zm-90.284,42.78c-0.819-8.1-.3-16.2-0.175-24.306a226.31,226.31,0,0,0-.884-27.275c-0.838-7.9-.248-15.76.359-23.641,1.293-16.776-.232-33.527-0.621-50.288,0.342-1.435,1.032-1.562,1.3-.1a58.6,58.6,0,0,1,.735,7.387c0.117,2.294.117,4.6,0.01,6.9-0.405,8.644.889,17.245,0.63,25.873-0.308,10.243-2.16,20.472-1.163,30.711a267.4,267.4,0,0,1,1.036,37.293c-0.283,6.656.531,13.254,0.091,20.146C260.612,226.964,261.384,225.484,260.266,225.058ZM192.2,150.892a172.753,172.753,0,0,0-1.237,22.922c0.08,2.49-1.405,5.009-2.04,7.55-1.409,5.643-2.609,11.423-2.251,17.2,0.646,10.441-.71,20.754-1.109,31.124a225.767,225.767,0,0,0,1.425,32.771c0.667,1.059-.2,2.41.627,3.437,0.426,2.575,1.6,5.29-1.3,7.238-0.384.452-.823,1.15-1.386,0.386-0.6-.81.171-1.265,0.724-1.7,2.136-1.446,1.332-3.48.918-5.337-2.829-12.677-3.209-25.572-2.69-38.45a131.277,131.277,0,0,1,1.56-15.914c0.62-3.779-.529-7.784-0.479-11.735a83.357,83.357,0,0,1,3.674-22.84,18.59,18.59,0,0,0,.88-6.451c-0.467-8.13.772-16.114,2.008-24.094a5.784,5.784,0,0,1,1-2.239C192.572,146.835,191.67,148.828,192.2,150.892Zm144.74-42.387c-0.894-3.31-1.707-6.646-2.706-9.923a36.588,36.588,0,0,0-3.667-7.851c0.276-.52.566-1.013,1.274-0.659,2.14,2.794,2.94,6.179,4.044,9.44,0.439,1.3.543,2.8,1.751,3.733q0,0.657,0,1.316c1.243,8.032,3.037,15.985,3.3,24.16a5.168,5.168,0,0,0,.564,1.522c0.818,2.358-.223,4.89.644,7.244-0.46,5.3.847,10.518,0.65,15.8l1.926,15.146c0.21,9.158,1.433,18.271,1.6,27.4,0.144,7.685,2.141,15.356.378,23.077a10.929,10.929,0,0,1-5.724,7.462,28.011,28.011,0,0,1-17.894,3.249,12.669,12.669,0,0,1-5.464-2.5c-0.5-.35.158-0.639,0.565-0.733,1.941,0.75,3.7,2.076,5.922,1.936a16.019,16.019,0,0,0,7.739-.024c2.239-1.078,4.781-1.058,7.039-2.2,3.981-2.012,6.085-5.331,7.068-9.584a11.42,11.42,0,0,0-.023-6.607c-1.243-7.446-1.011-15-1.617-22.5-0.448-5.539-.636-11.1-0.94-16.651-0.736-2.264.291-4.689-.61-6.938q-0.01-.468-0.02-0.937c-0.752-2.046.282-4.28-.635-6.308l-0.147-.2,0.116-.221c-0.765-2.221.36-4.629-.645-6.826l-0.108-.154,0.12-.145c-0.822-2.461.434-5.124-.7-7.555l0.033,0.07c-0.135-4.208-.6-8.392-0.893-12.588a63.49,63.49,0,0,0-1.065-8.557l0.027,0.069c-0.717-1.487.364-3.24-.661-4.682l0.024,0.065c-0.677-1.259.319-2.81-.668-4.015l0.024,0.063C336.936,110.85,337.8,109.512,336.941,108.505ZM300.724,78.3a1.087,1.087,0,0,1-.49-1.274c0.142-.678.392-1.52,1.075-0.5a8.919,8.919,0,0,1,1.586,5.216c-0.09,6.889-.041,13.78-0.03,20.671,0,1.51-.287,3.224,1.925,3.467,1.312,2.575.466,5.168,0.072,7.756a10.693,10.693,0,0,0-1.1,5.319c0.127,4.112.112,8.231,0.018,12.342a2.8,2.8,0,0,0,1.994,3.138c0.581,2.515.259,5.054,0.217,7.578-1.473.752-1.473,0.752-1.678-1.667,0.319,2.689-.926,5.654,1.442,7.986a1.822,1.822,0,0,1-.311,1.475c-1.119.847-.955,2.082-0.978,3.274a139.511,139.511,0,0,0,.615,16.62c-0.373,4.2,1.355,8.346.359,12.569-0.017,11.014.533,22.062-1.932,32.926-0.772.735,0.327,1.949-.644,2.634-1.619,1.092-2.111,2.843-2.577,4.609-0.621.85-1.244,1.277-1.871,0a46.334,46.334,0,0,0,4.222-11.266c1.212-.865.09-2.324,0.809-3.314l-0.022.065a77.767,77.767,0,0,0,.61-22.329l0.039,0.071c-0.749-2.405.392-4.981-.632-7.362l-0.118-.161,0.122-.156c-0.765-2.255.348-4.694-.645-6.927l-0.112-.154,0.119-.148c-0.558-3.775-.093-7.575-0.274-11.358-0.055-1.162.36-2.387-.355-3.482a9.069,9.069,0,0,1-.019-4.271c-0.588-7.059-.076-14.132-0.27-21.2-0.032-1.169.341-2.4-.343-3.5a20.426,20.426,0,0,1-.017-6.21c-0.571-2.489-.24-5.015-0.25-7.521-0.045-10.622,0-21.245-.046-31.867C301.227,80.335,301.753,79.158,300.724,78.3ZM224.991,209.619l0.125,0.131-0.1.156a54.975,54.975,0,0,0,.011,15.132l-0.006-.062V230c-1.464-1.1-1.36-2.263-1.378-3.379a227.924,227.924,0,0,1,1.749-34.994c0.562-4.065-.121-8.4-0.372-12.59-0.282-4.733-.3-9.617-0.384-14.433-0.088-5.084-1.444-10.632-.412-15.155,2.611-11.442.459-22.9,1.736-34.293a46.9,46.9,0,0,1,4.589-16.109c0.746-1.5.8-1.469,2.1-1.243-4.362,5.739-4.834,12.673-5.07,19.42-0.746,21.359-2.235,42.723-.6,64.109,0.083,1.08-.035,2.176-0.059,3.264a17.618,17.618,0,0,1,.019,6.345l0.032-.077a109.25,109.25,0,0,0-1.736,15.222A10.765,10.765,0,0,1,224.991,209.619ZM385.848,386.166l4.4-11.015a7.5,7.5,0,0,0,1.4-3.57c1.174-4.785,2.309-9.581,3.534-14.353,0.878-3.416.973-7.012,2.3-10.322,0.823-1.118.056-2.521,0.635-3.683l-0.1-.13,0.1-.135c0.929-1.241-.036-2.789.631-4.072l-0.032.076A95.885,95.885,0,0,0,400.018,329l-0.037.08a110.111,110.111,0,0,0,1.343-11.441c0.8-11.813,2.256-23.55,3.885-35.267,0.938-1.762-.092-3.756.624-5.544l-0.12-.2,0.152-.182c0.908-1.7-.119-3.636.627-5.356l-0.023.06c0.952-4.194.877-8.53,1.675-12.747a0.77,0.77,0,0,0-.582-0.978,1.178,1.178,0,0,1-.4-1.324c0.1-.5.145-1.284,0.892-0.735a2.382,2.382,0,0,1,1.264,2.4c-0.634,5.4-1.107,10.818-1.663,16.226-0.055.536-.4,1.052-0.4,1.578-0.116,12.41-3.353,24.435-4.127,36.81-0.955,15.272-2.753,30.536-6.663,45.416a15.83,15.83,0,0,0-.22,2.93c-0.827,2.114-.188,4.527-1.288,6.585a68.113,68.113,0,0,0-4.508,12.512c-0.5.613-.241,1.735-1.283,1.978-0.822,1.992-2.18,3.742-2.582,5.926C385.35,387.689,385.646,386.905,385.848,386.166Zm-88.985,72.083a8.778,8.778,0,0,1-6.217-2.835c-1.834-1.986-1.344-3.834,1.21-4.743a8.152,8.152,0,0,1,5.088-.091c12.618,3.812,23.8.4,34.511-6.561,5.245-3.406,10.5-6.805,15.722-10.243,2.429,1.086-.054,1.8-0.354,2.028a85.653,85.653,0,0,1-13.816,8.961c-1.312.65-2.793,1.066-3.28,2.862a1.654,1.654,0,0,1-2.1,1.067A4.631,4.631,0,0,0,323.19,450c-3.446,3.215-7.523,3.4-11.769,3.612a78.445,78.445,0,0,1-16.528-1.337,10.36,10.36,0,0,0-2.247.009c-0.88.051-1.48,0.448-1.169,1.46,0.256,0.834.833,0.887,1.488,0.408,1.089-.8,2.076-0.7,2.64.575a4.549,4.549,0,0,0,5.595,2.692c3.152-.782,6.558-0.122,9.486-1.642,2.578-1.338,5.542-.131,8.052-1.646a0.979,0.979,0,0,1,1.321,1c-0.193,1.7-1.676.821-2.562,1.161l-2.1-.02c-1.328.639-2.88-.21-4.174,0.656l-6.059,1.989C302.318,459.733,299.635,458.408,296.863,458.249Zm8.569-315.493v-8.563a2.654,2.654,0,0,1-.913-1.675,68.214,68.214,0,0,1-.371-18.737c0.121-2.643,1.006-5.221.642-7.905a28.263,28.263,0,0,1,3.683-11.82c0.255-.465.725-0.167,0.954,0.275-4.4,9.316-3.346,19.231-3.091,29.069,0.4,15.349.735,30.7,1.1,46.049,0.7,2.028-.263,4.217.575,6.231q0.035,0.5.07,1c0.646,1.585-.215,3.353.569,4.922q0.029,0.8.056,1.6a132.769,132.769,0,0,1,.018,18.389q-0.036.543-.071,1.086c-0.807,1.534.1,3.28-.572,4.831l0.1,0.234-0.152.2c-0.738,1.133-.035,2.511-0.6,3.674,0.471,0.815-1.393,1.566-.063,2.405-0.1.428-.3,0.973-0.769,0.527-0.8-.755-0.6-1.856-0.454-2.793,1.514-9.457,2.732-18.919,1.25-28.515a19.947,19.947,0,0,1-.033-2.946c-1.8-1.7-1.473-3.98-1.587-6.139a13.345,13.345,0,0,0-.487-2.687,13.028,13.028,0,0,1-.121-1.733c0.075-5.472-.966-10.892-0.7-16.373,0.07-1.416-.1-2.87.968-4.023V148.02C303.743,146.266,303.558,144.511,305.432,142.756Zm-38.6,28.319a2.949,2.949,0,0,1,0,2.624c-0.924,2.257.123,4.7-.624,6.971q-0.023.8-.046,1.594c-0.908,2.922.177,5.985-.606,8.916a1.784,1.784,0,0,1-.032,1.619,88.984,88.984,0,0,0-.023,17.124q0.035,0.487.068,0.975a3.766,3.766,0,0,1-.063,2.984,11.35,11.35,0,0,1-1.295-5.944,268.693,268.693,0,0,1,1.2-29.39c0.924-8.719-1.135-17.4-1.182-26.128-0.06-11.16-.014-22.32-0.014-33.48,0-7.146-.043-14.293.016-21.438a39.961,39.961,0,0,1,2.066-11.51c0.788,0.619.331,1.342,0.489,1.938-1.042.745-.007,1.949-0.591,2.8-0.844,1.045.009,2.406-.621,3.491q0,31.716.007,63.433c0.691,2.011-.274,4.182.57,6.178,0.024,0.349.049,0.7,0.074,1.046C266.934,166.888,265.922,169.079,266.829,171.075ZM182.474,391.022c1.392,8.133,4.018,15.892,6.824,23.6a99.263,99.263,0,0,0,9.875,19.934c-0.416,1.6-1.113.563-1.4,0.041-1.259-2.286-2.827-4.333-3.971-6.759-2.045-4.339-3.823-8.772-5.6-13.212a139.5,139.5,0,0,1-5.936-18.6,268.434,268.434,0,0,1-5.339-29.654,153.08,153.08,0,0,1-1.544-24.887c0.956,0.886.227,2.358,1.364,2.7l-0.035-.026c0.537,2.7.063,5.44,0.259,8.152,0.075,1.039-.452,2.186.432,3.111,1.059,8.878,2.087,17.759,3.2,26.63,0.247,1.967.784,3.9,1.187,5.842C182.569,388.807,181.6,390.125,182.474,391.022Zm110.47-152.031c-0.833-3.275-3.217-3.855-6.092-3.809-6.009.1-11.97,0.4-17.708,2.525a6.759,6.759,0,0,0-3.163,1.846,2.522,2.522,0,0,1,2.006-3.455c6.819-1.121,13.578-2.9,20.584-2.49,1.468,0.087,3.109.306,3.722,1.546,1.735,3.511,4.364,2.74,6.955,1.787,4.557-1.678,9.421-.83,14.019-2,3.758-.956,7.634-0.565,11.447-1.173,4.155-.663,8.178,1.206,12.279,1.837,0.74,0.7,1.764.246,2.576,0.658,1.984,3.482,5.475,6.095,5.8,10.533a0.588,0.588,0,0,1-.908.1c-2.494-6.136-6.726-10.142-13.267-11.317a55.1,55.1,0,0,0-12.873-.01l-1.563.072c-1.349.659-2.906-.169-4.237,0.621l-0.219.149-0.247-.093c-1.275.707-2.8-.26-4.047,0.634l-0.155.15-0.181-.115c-1.313.641-2.872-.264-4.135,0.691l0.067-.03c-1.222.706-2.762-.364-3.914,0.731l0.078-.04C297.458,238.179,295.308,239.765,292.944,238.991ZM344.46,246.9l0.908-.1c1.815,0.211,2.316.929,2.111,3.026a18.029,18.029,0,0,0,1.113,6.711c2.342,7.7.967,15.572,1.294,23.364,0.241,5.748-.07,11.36-3,16.5a1.418,1.418,0,0,0-.169,1.8c0.689,0.857.981,1.5-.633,1.5-1.049,0-1.384.878-1.227,1.894,0.09,0.575.74,1.416-.259,1.565-0.658.1-1.86,0.29-1.845-1.132a1.629,1.629,0,0,1,.02-0.647C351.933,283.493,348.351,265.2,344.46,246.9ZM185.652,271.824q-0.207.7-.415,1.4l1.077-.089a80.866,80.866,0,0,0-7.7,23.7c-0.834,1.318-.014,2.891-0.624,4.243l0.12,0.195-0.146.174c-0.91,1.8.079,3.822-.644,5.643l0.116,0.124-0.08.151c-1.41,1.58-.443,3.5-0.724,5.248-0.248,1.544.556,3.24-.644,4.648a1.326,1.326,0,0,1-.643-0.657c0.592-7.57,1.48-15.112,2.262-22.652,0.617-5.944,2.974-10.962,4.881-16.293,0.437-1.221,1.271-2.286,1.245-3.686A1.878,1.878,0,0,1,185.652,271.824ZM331.842,90.072l-1.274.659c-1.669-2.246-4.018-3.5-6.457-4.616a8.2,8.2,0,0,0-5.152.021c-0.555.347-1.031,0.9-1.79,0.708-1.9-.594-1.417-1.612-0.04-1.873,3.4-.645,6.76-0.957,10.181.636,1.622,0.755,3.524.629,4.84,2.369C332.981,89.076,332.336,89.441,331.842,90.072ZM306.708,173.7a27.374,27.374,0,0,0,.648,6.595l-1.919,1.968a51.952,51.952,0,0,1-1.287-12.512c0.961-.755,1.448-0.057,1.93.658q0,0.658,0,1.318C305.369,172.693,306.267,173.122,306.708,173.7Zm88.245,193.606c-0.912-2.469.573-4.449,1.288-6.585-0.269,1.981.426,3.852,0.631,5.779C397.133,368.951,395.951,367.927,394.953,367.309Zm-219.6-50.7,0.643,0.657v13.646l-0.643.009V316.605ZM298.413,222.44a1.585,1.585,0,0,0,1.871,0c-1.841,2.8-2.949,3.531-4.619,3.036Zm-25.666,5.845V219.96l0.278,0v8.327ZM389.162,381.8q0.641-.99,1.283-1.978c0.13,1.327,1.06,2.552.466,4C389.882,383.551,390.032,382.2,389.162,381.8Zm-86.3-163.973c0.081-.912-0.274-1.936.644-2.634,0.2,0.911.447,1.815,0.586,2.736a0.647,0.647,0,0,1-.634.846A2.113,2.113,0,0,1,302.861,217.826Zm82.987,168.34a1.911,1.911,0,0,0,.732,1.559c-0.5.719-.489,1.848-1.543,2.1a4.507,4.507,0,0,1-.473-0.982A3.98,3.98,0,0,1,385.848,386.166ZM265.506,213.882q0.033-1.491.064-2.983l1.2,3.763a2.815,2.815,0,0,1-.417.719C265.6,215.188,265.568,214.516,265.506,213.882Zm-28.123,31.7-3.43.6C234.944,245.065,236.184,245.445,237.383,245.582Zm126.653,60.474a1.16,1.16,0,0,1-1.908-.072A1.071,1.071,0,0,1,364.036,306.056Zm-24.467-69.792a1.808,1.808,0,0,1-2.576-.658C337.885,235.689,338.886,235.324,339.569,236.264Zm2.576-98.777c-1.211-2.322-.5-4.823-0.644-7.244C342.863,132.551,341.815,135.083,342.145,137.487Zm1.933,15.862c1.578,0.05,1,1.815,2.182,2.039,1.149-1.323-.8-2.6-0.08-3.893,0.136-.262.407-0.236,0.4,0.066-0.116,4.65,2.23,9.242.316,13.934-0.305.747-.426,1.683,0.35,2.054,2.077,0.99,1.129,2.659,1.317,4.776-1.968-3.154-3.695-5.436-2.679-9.059C346.832,159.887,344.817,156.608,344.078,153.349Zm-5.14-57.458c1.829,0.635,2.182,1.587,1.431,3.312A3.5,3.5,0,0,1,338.938,95.891ZM264.659,447.572c1.488,0.3,2.84-.411,3.377.861,0.4,0.949-.448,1.852-0.959,2.663-1.46,2.319-3.7,3.555-6.124,4.563-2.176.905-4.482,1.547-6.392,3.028-0.98.76-1.758,1.766-1.365,3.082,0.368,1.231,1.523,1.4,2.638,1.44,0.535,0.016,1.072,0,1.606.038a1.692,1.692,0,0,1,1.8,1.1c0.207,0.917-.62,1.324-1.284,1.657-2.873,1.441-6.6,2.028-8.24,4.85-2.962,5.1-7.919,6.282-12.629,8.168a25.234,25.234,0,0,0-11.288,8.391c-1.511,2.046-3.546,3.255-5.825,2.259-2.257-.986-2.4-3.347-1.919-5.687,1.3-6.4.146-12.635-1.357-18.837-0.791-3.261-.437-3.67,2.813-2.78,2.685,0.735,5.288,1.779,7.958,2.579a10,10,0,0,0,6.625-.108c2.183-.835,2.074-1.964.434-3.2a31.891,31.891,0,0,0-3.084-1.743c-0.953-.565-1.889-1.313-1.778-2.522,0.1-1.1,1.229-1.446,2.093-1.814,6.66-2.839,13.672-4.43,20.7-5.9C256.647,448.787,260.9,448.207,264.659,447.572Zm-51.277-56.515c-0.475-2.775,1.933-3.97,3.208-5.623,18.021-23.37,39.787-42.551,63.726-59.3,8.57-6,17.218-11.858,26.28-17.039,1.9-1.084,3.768-2.753,7.029-2.243-2.359,2.3-4.257,4.408-6.4,6.2-7.95,6.652-16.139,12.984-24.389,19.251-15.891,12.071-30.741,25.453-45.591,38.826-7.706,6.94-15.387,13.932-23.915,19.846Zm11.463-75.329a258.042,258.042,0,0,1,28.058-17.91c16.521-9.29,33.269-18.071,51.2-24.255,0.6-.208,1.233-0.339,1.85-0.507,0.818-.292,1.548-0.427,1.493.862a224.308,224.308,0,0,1-31.534,19.6,528.183,528.183,0,0,1-49.536,23.143C225.466,317.028,224.758,317.06,224.845,315.728Zm-17.887-103.8c-2.058,2.584-4.78,2.1-7.2,1.13-1.649-.661-2.075-2.435-0.5-3.966,1.913-1.859,5.509-1.763,7.683.155A19.345,19.345,0,0,0,206.958,211.925Zm200.6,45.5c2.257,1.773.055,3.764,0.191,5.655a18.212,18.212,0,0,1-1.284,8.07Q407.017,264.283,407.562,257.42ZM318.32,235.575a26.612,26.612,0,0,1,12.873.01Zm83,82.063a28.438,28.438,0,0,1-1.343,11.441A60.7,60.7,0,0,1,401.324,317.638ZM177.4,355.418c-1.595-3.667-.462-7.508-0.691-11.263A65.687,65.687,0,0,1,177.4,355.418ZM400.018,329a21.6,21.6,0,0,1-1.311,9.963A42.628,42.628,0,0,1,400.018,329ZM296.863,458.249c2.817-.431,5.5.915,8.3,0.667C302.287,460.14,299.58,459.129,296.863,458.249Zm-3.919-219.258c2.293-.006,4.477-1.213,6.823-0.647C297.521,238.874,295.347,240.192,292.944,238.991Zm-68.1,76.737a1.685,1.685,0,0,0,1.526.93l-2.722,1.263c-0.69.2-.857-0.129-0.741-0.753Zm181.647-44.643c-0.176,1.79.7,3.708-.627,5.356A12.642,12.642,0,0,1,406.492,271.085ZM177.324,307.091c0.215-1.881-.721-3.9.644-5.643A15.429,15.429,0,0,1,177.324,307.091Zm29.634-95.166a1.6,1.6,0,0,1-.014-2.681A1.727,1.727,0,0,1,206.958,211.925Zm198.875,64.9c-0.157,1.854.723,3.83-.624,5.544A14.389,14.389,0,0,1,405.833,276.827ZM222.908,317.168l0.741,0.753a2.1,2.1,0,0,1-2.4.789A1.682,1.682,0,0,1,222.908,317.168Zm-44.914-16.089c0.113-1.429-.622-2.988.624-4.243A9.078,9.078,0,0,1,177.994,301.079Zm213.655,70.5c0.113,1.429.036,2.779-1.4,3.57Q390.947,373.366,391.649,371.581ZM312.52,236.268c1.271-1.217,2.819-.452,4.237-0.621A8.464,8.464,0,0,1,312.52,236.268ZM213.326,390.98c0.089,1.136-.681,1.469-1.793,1.808,0.216-1.213.316-2.2,1.849-1.732C213.382,391.057,213.326,390.98,213.326,390.98Zm185.413-52.094c-0.076,1.379.617,2.883-.631,4.072A7.886,7.886,0,0,1,398.739,338.886ZM308.007,236.958c1.195-1.237,2.683-.522,4.046-0.634A8.758,8.758,0,0,1,308.007,236.958Zm-4.471.726c1.192-1.39,2.741-.545,4.134-0.691A8.557,8.557,0,0,1,303.536,237.684Zm7.688,219.242c1.228-1.3,2.768-.516,4.172-0.656A10.419,10.419,0,0,1,311.224,456.926Zm-3.783-183.008c-0.253-.73-0.94-0.675-1.493-0.862,0.8-.631,1.822-1.159,2.556-0.34C308.936,273.2,308.125,273.783,307.441,273.918Zm-7.752-35.533c1.09-1.442,2.588-.6,3.913-0.731A7.319,7.319,0,0,1,299.689,238.385ZM187.616,265.9c-1.1-.975-0.578-2.26-0.627-3.437A6.425,6.425,0,0,1,187.616,265.9Zm-5.142,125.121c-1.091-.846-0.555-2.066-0.688-3.132A3.908,3.908,0,0,1,182.474,391.022Zm215.639-47.8c-0.1,1.249.536,2.628-.635,3.683A6.483,6.483,0,0,1,398.113,343.223Zm-116.9-202.061c-1.561-.128-4.448.745-5.195-2.789-0.471-2.234,1.868-4.184,5.559-4.735a13.427,13.427,0,0,1,6.049.362c1.564,0.487,2.783,1.4,2.766,3.18a3.519,3.519,0,0,1-2.658,3.347C285.884,141.174,283.94,141.154,281.214,141.162Zm2.087,47.405c-1.951.13-2.838-.568-3.28-1.831-0.477-1.361.468-2.027,1.415-2.579a13.91,13.91,0,0,1,5.516-1.673,2.381,2.381,0,0,1,2.832,2.062,2.248,2.248,0,0,1-1.76,2.728C286.3,187.856,284.512,188.244,283.3,188.567ZM300.724,78.3c1.142,0.573.85,1.665,0.85,2.6q-0.006,19.917-.048,39.836c-0.812-7.051-.3-14.136-0.514-21.2S301.364,85.367,300.724,78.3Zm0.82,48.651c0.806,0.633.668,1.548,0.667,2.408q-0.02,11.145-.055,22.291C301.564,143.425,301.5,135.187,301.544,126.947Zm2.488,58.649a1.75,1.75,0,0,1,.754,1.686c0.038,6.539.2,13.083-.712,19.584a3.272,3.272,0,0,1-.652,1.059A215.5,215.5,0,0,0,304.032,185.6ZM265.5,209.923c-1.442-4.856-.262-9.83-0.624-14.736a2.492,2.492,0,0,1,.647-2.388Q265.514,201.361,265.5,209.923Zm36.675-54c1.44,3,.419,6.184.658,9.275,0.143,1.841-.01,3.707-0.03,5.563A73.336,73.336,0,0,1,302.176,155.919Zm-36.62,35.261c0.222-2.971-.724-6.024.606-8.916A38.5,38.5,0,0,1,265.556,191.18Zm37.883-12.875c1.421,2.345.468,4.9,0.632,7.362A25.628,25.628,0,0,1,303.439,178.305Zm-37.231,2.365c0.2-2.325-.779-4.759.624-6.971A21.2,21.2,0,0,1,266.208,180.67Zm36.59-9.609c1.461,2.187.417,4.617,0.645,6.925A19.328,19.328,0,0,1,302.8,171.061Zm-36.646-7.234c-1.246-1.957-.473-4.108-0.57-6.177A19.558,19.558,0,0,1,266.152,163.827Zm0.677,7.248c-1.312-1.954-.486-4.125-0.6-6.2A17.647,17.647,0,0,1,266.829,171.075Zm-1.254-76.859c0.012-1.2-.5-2.5.621-3.491A7.437,7.437,0,0,1,265.575,94.216ZM303.444,207.86c-0.1,1.147.619,2.5-.809,3.314Q303.04,209.516,303.444,207.86ZM238.46,144.729a9.838,9.838,0,0,1,5.57-2.708,4.24,4.24,0,0,1,3.272.083c2.822,2.15,2.748,4.025-.535,5.143-2.63.9-5.345,2.873-8.319,0.809A4.046,4.046,0,0,1,238.46,144.729Zm4.682,54.537c2.075,0.079,3.956.007,4.035,2.013,0.077,1.931-1.8,1.727-3.147,1.927-1.157.172-2.308,0.4-3.451,0.657-1.314.291-2.714,0.568-3.184-1.151-0.5-1.811,1.061-2.175,2.237-2.573C240.942,199.7,242.32,199.464,243.142,199.266Zm-18.151,10.353c-0.519-6.094.778-12.044,1.389-18.048a1.916,1.916,0,0,1,.6-0.711Zm0.041,15.419c-1.465-1.816-.734-3.971-0.672-5.925,0.1-3.067-.873-6.246.661-9.207Q225.027,217.472,225.032,225.038Zm1.919-34.1q-0.011-3.171-.019-6.343C227.387,186.706,227.907,188.819,226.951,190.937ZM247.3,142.1l-3.272-.083C245.134,141.485,246.233,141.2,247.3,142.1Zm-8.842,2.625-0.012,3.327A2.375,2.375,0,0,1,238.46,144.729ZM322.1,183.42a2.574,2.574,0,0,1-2.5-2.736c-0.084-1.934,2.547-3.78,5.273-3.667,2.03,0.085,4.275.193,4.554,2.979C329.6,181.737,326.051,183.426,322.1,183.42Zm-0.122-53.972c0.482,0,.59-0.012.694,0,1.76,0.232,4.129.013,4.468,2.226,0.378,2.48-2.128,2.513-3.765,3.073a8.256,8.256,0,0,1-1.88.343c-1.534.145-3.429,0.848-3.958-1.426-0.536-2.305,1.138-3.293,2.933-3.96A6.42,6.42,0,0,1,321.977,129.448Zm16.842-9.047c1.557,1.812,1.009,4.211,1.165,6.2,0.391,4.96,1.389,9.923.793,14.945C339.758,134.533,339.353,127.46,338.819,120.4Zm-30.1,81.194q-0.009-9.193-.017-18.388A61.631,61.631,0,0,1,308.723,201.6ZM331.847,228.3a9.184,9.184,0,0,1-7.739.024Zm8.9-86.828c1.537,2.391.479,5.033,0.7,7.553A23.1,23.1,0,0,1,340.744,141.476Zm0.689,7.854c1.461,2.152.455,4.547,0.645,6.825A21.345,21.345,0,0,1,341.433,149.33Zm1.331,14.494c1.382,2.2.41,4.623,0.61,6.936A22.056,22.056,0,0,1,342.764,163.824Zm3.167,46.089a6.927,6.927,0,0,1,.023,6.607Q345.942,213.217,345.931,209.913Zm-3.822-53.334c1.34,1.984.43,4.2,0.634,6.308A17.142,17.142,0,0,1,342.109,156.579Zm-34.1,19.1c-1.252-1.973-.438-4.146-0.575-6.229A19.357,19.357,0,0,1,308.01,175.68Zm10.949-89.545a4.727,4.727,0,0,1,5.152-.021Zm19.226,29.653c1.379,1.39.563,3.1,0.662,4.681A10.315,10.315,0,0,1,338.185,115.788ZM308.08,207.512c0.1-1.621-.632-3.346.572-4.831A11.493,11.493,0,0,1,308.08,207.512Zm0.569-25.9c-1.211-1.517-.454-3.271-0.569-4.921A12.316,12.316,0,0,1,308.649,181.607Zm28.892-69.769c1.317,1.147.578,2.653,0.669,4.014A8.046,8.046,0,0,1,337.541,111.838Zm-0.6-3.333c1.125,0.956.6,2.228,0.625,3.4A5.718,5.718,0,0,1,336.941,108.505ZM307.425,211.62c0.1-1.242-.513-2.6.6-3.674A6.285,6.285,0,0,1,307.425,211.62Zm-1.345-41.208-1.93-.658c-0.882-5.928-.615-11.9-0.654-17.861-0.009-1.416.028-2.7,1.937-2.55C304.97,156.388,306.353,163.373,306.08,170.412Zm-1.932-56.631,1.284,20.412-2.052,1.8c-0.9-1.613-.472-3.268-0.5-4.826-0.065-4.388-.013-8.779-0.029-13.168C302.85,116.441,302.827,114.9,304.148,113.781Zm1.284,28.975a7.1,7.1,0,0,0,0,5.264c-0.632-.15-1.786.763-1.843-0.431a63.249,63.249,0,0,1,.333-10.195C305.527,138.989,303.957,141.236,305.432,142.756Zm1.276,30.947a1.5,1.5,0,0,1-1.641-1.113c-0.127-.718.518-0.76,1.014-0.86ZM228.964,466.457a6.343,6.343,0,0,1,3.87-.1A5.658,5.658,0,0,1,228.964,466.457Z" transform="translate(-7 -17)"/>
  <path class="cls-3" d="M258.862,221.236c0.2,2.243-.786,2.817-2.972,3.007-6.917.6-13.427,2.349-18.939,7.2-4.376,3.852-8.713,2.354-10.369-3.254-0.676-2.287-.992-4.686-1.472-7.034l-0.4-.393c-0.647-4.5-.139-9.025-0.291-13.533,0-.364.023-0.729,0.059-1.09,0.6-5.611,1.168-11.228,1.793-16.837a7.034,7.034,0,0,1,.1-1.035,15.745,15.745,0,0,0-.094-6.185c-0.19-10.953-1.582-21.927-.663-32.832,1.055-12.521-.172-25.109,1.583-37.576a33.141,33.141,0,0,1,3.778-11.2,1.672,1.672,0,0,1,1.443-1.014c2.23-2.54,4.3-5.221,7.394-6.831,6.835-3.557,12.576-1.742,16.11,5.209q0.838,1.647,1.672,3.3c1.292,1.164.739,2.734,0.833,4.141,0.266,3.971.542,7.941,0.528,11.928-0.022,6.08.032,12.148,0.528,18.225,0.47,5.747-.514,11.472-0.971,17.207a107.285,107.285,0,0,0-.04,18.2,230.1,230.1,0,0,1,.512,38.291c-0.255,3.365.4,6.695,0.308,10.053C259.274,219.905,259.494,220.655,258.862,221.236Z" transform="translate(-7 -17)"/>
  <path class="cls-5" d="M403.705,355.342q27.4,0.053,54.808.1c14.464,0.017,28.929.058,43.393-.048,2.593-.019,2.779.588,1.92,2.957-31.291,86.3-104.3,149.7-193.192,165.363-79.74,14.055-150.886-6.567-212.3-60.732-31.493-27.774-54.223-62.11-69.255-101.8-0.547-1.443-.949-2.944-1.419-4.418a7.5,7.5,0,0,1,4.127-.674q68.8,0.006,137.589.019a2.962,2.962,0,0,1,1.143.265c1.076,0.849,1.054,2.137,1.208,3.332a356.674,356.674,0,0,0,7.575,41.019c2.487,9.944,5.5,19.686,10.421,28.732,2.621,4.817,2.364,10.34,2.8,15.638,0.93,11.307,1.075,22.679,2.647,33.934a69.752,69.752,0,0,0,2.416,10.64,2.759,2.759,0,0,1,1.64-2.5,8.409,8.409,0,0,1,3.213-.443c14.429,0.222,28.848-.659,43.265-0.6,20.616,0.079,41.21-.875,61.824-0.922,8.22-.019,16.466-0.486,24.7-0.462,2.472-.531,4.939.476,7.45-0.045,4.343-.9,5.549-2.223,5.638-6.685a108.79,108.79,0,0,0-.546-10.988c-1.077-13.287,2.57-24.971,11.274-35.1,7.107-8.268,14.5-16.262,21.649-24.486,9.789-11.261,16.172-24.432,20.955-38.538,1.177-3.471,2.389-6.928,3.349-10.472C402.31,357.27,402.51,356.009,403.705,355.342Z" transform="translate(-7 -17)"/>
  <path class="cls-6" d="M180.769,193.662c-1.407-.04-2.815-0.116-4.222-0.116q-72.038-.009-144.074,0c-4.448,0-4.546-.042-2.8-4.377C65.277,101.013,128.77,46.9,220.452,27.524a218.071,218.071,0,0,1,67.285-3.32Q398.3,35.41,466.945,124.65a246.909,246.909,0,0,1,35.448,64.856c1.494,4.022,1.47,4.034-2.612,4.034q-71.712,0-143.423,0c-1.3,0-2.6.035-3.9,0.053a0.667,0.667,0,0,1,.672-0.857c49.45-.062,98.9.006,148.35-0.211,0.421-.284-0.282-0.557-0.012-0.211,0.107,0.137.036,0.245-.213,0.247-49.4.306-98.8,0.052-148.19,0.134-1.824.01-1.912-1.376-2.048-2.69-0.179-1.718.171-3.477-.384-5.165a6.873,6.873,0,0,1-.267-1.7c-0.172-2.177.265-4.4-.42-6.541a10.109,10.109,0,0,1-.269-2.177c-0.124-2.712.326-5.447-.333-8.137a5.624,5.624,0,0,1-.23-1.1c-0.039-5.715-.608-11.392-1.152-17.071a7.7,7.7,0,0,1-.225-1.743c-0.986-13.441-.952-26.955-2.782-40.337a24,24,0,0,0-.709-3.537c-1.546-3.673-2.75-7.487-4.285-11.168-3.3-6.995-8.924-10.584-16.346-11.3a24.356,24.356,0,0,0-9.036.65c-1.643.465-3.16,0.187-3.681-1.682-1.876-6.73-6.574-11.273-11.489-15.666a2.908,2.908,0,0,0-2.765-1.314c-13.774-4.229-25.709,3.779-32.392,16.795-3.348,6.52-3.384,6.5-10.534,5.416C244.2,82.778,233.1,88.692,227.816,98c-1.468,2.586-2.566,5.358-3.948,7.985-1.013,1.924-2.358,3.434-4.583,3.874-16.1,3.189-24.935,14.025-29.611,29.216a86.765,86.765,0,0,0-4.035,26.393c0.075,8.694-2.72,16.964-3.491,25.529a1.8,1.8,0,0,1-2.315,1.7q-74.261,0-148.5-.026c-0.433,0,.077.73-0.046,0.306,49.67-.589,99.342-0.138,149.013-0.231A0.581,0.581,0,0,1,180.769,193.662Z" transform="translate(-7 -17)"/>
</svg>
