<svg xmlns="http://www.w3.org/2000/svg" width="7" height="10" viewBox="0 0 7 10">
  <defs>
    <style>
      .cls-1 {
        fill: #b0b0b0;
        fill-rule: evenodd;
      }
    </style>
  </defs>
  <path id="Article_page_author_Location" data-name="Article page author Location" class="cls-1" d="M94.494,616c-0.5-.671-0.981-1.29-1.431-1.931a14.005,14.005,0,0,1-1.809-3.307,3.368,3.368,0,0,1,.5-3.426,3.333,3.333,0,0,1,3.114-1.312,3.372,3.372,0,0,1,2.879,2.145,3.5,3.5,0,0,1-.1,2.838,18.781,18.781,0,0,1-2.31,3.885C95.071,615.249,94.8,615.6,94.494,616Zm1.5-6.575a1.476,1.476,0,0,0-1.5-1.47,1.477,1.477,0,1,0,.015,2.953A1.47,1.47,0,0,0,95.989,609.425Z" transform="translate(-91 -606)"/>
</svg>
