<svg xmlns="http://www.w3.org/2000/svg" width="33" height="33" viewBox="0 0 33 33">
  <defs>
    <style>
      .cls-1 {
        fill: #980a00;
      }

      .cls-2 {
        fill: #fff;
        fill-rule: evenodd;
      }
    </style>
  </defs>
  <circle class="cls-1" cx="16.5" cy="16.5" r="16.5"/>
  <path class="cls-2" d="M547.354,155.84a3.363,3.363,0,0,1,.244-0.315q4.368-4.529,8.74-9.053a0.974,0.974,0,0,1,1.674,0c0.237,0.244.48,0.482,0.705,0.737a0.963,0.963,0,0,1,0,1.347c-0.066.076-.138,0.146-0.208,0.219l-10.37,10.735a0.975,0.975,0,0,1-1.7.01q-3.007-3.111-6.013-6.223a1.046,1.046,0,0,1,.006-1.733c0.21-.218.417-0.438,0.631-0.651a0.916,0.916,0,0,1,1.464.008c0.775,0.792,1.541,1.593,2.312,2.39q1.2,1.234,2.393,2.467A0.682,0.682,0,0,0,547.354,155.84Z" transform="translate(-532 -136)"/>
</svg>
