<svg xmlns="http://www.w3.org/2000/svg" width="14" height="12.97" viewBox="0 0 14 12.97">
  <defs>
    <style>
      .cls-1 {
        fill: #fff;
        fill-rule: evenodd;
      }
    </style>
  </defs>
  <path class="cls-1" d="M1244.87,1049.32a6.506,6.506,0,1,1,0,2.4c0.96-.21.96-0.21,1.28,0.65a5.589,5.589,0,0,0,10.76-1.31,5.483,5.483,0,0,0-4.39-5.86,5.6,5.6,0,0,0-6.37,3.44C1245.85,1049.45,1245.85,1049.45,1244.87,1049.32Zm7.04,1.81h-7.24a0.593,0.593,0,0,1-.67-0.62,0.615,0.615,0,0,1,.73-0.63c1.01-.01,2.03-0.01,3.05-0.01h4.13a2.028,2.028,0,0,1,.13-0.18c-0.29-.24-0.59-0.47-0.86-0.73a0.588,0.588,0,0,1-.07-0.94,0.63,0.63,0,0,1,.97.05c0.66,0.64,1.32,1.28,1.97,1.93a0.651,0.651,0,0,1,0,1.01c-0.66.65-1.32,1.3-1.98,1.94a0.629,0.629,0,0,1-.97.04,0.594,0.594,0,0,1,.08-0.94c0.26-.25.55-0.48,0.83-0.71C1251.98,1051.27,1251.94,1051.2,1251.91,1051.13Z" transform="translate(-1244 -1044.03)"/>
</svg>
