<svg id="CROSS_" data-name="CROSS " xmlns="http://www.w3.org/2000/svg" width="16" height="14" viewBox="0 0 16 14">
  <defs>
    <style>
      .cls-1 {
        fill: #e7e7e7;
      }

      .cls-2 {
        fill: #8f8f8f;
        fill-rule: evenodd;
      }
    </style>
  </defs>
  <rect class="cls-1" width="16" height="14"/>
  <path class="cls-2" d="M51.667,6922a0.989,0.989,0,0,1-.581-0.32q-1.454-1.455-2.912-2.91c-0.193-.2-0.193-0.2-0.387,0l-2.885,2.88a0.715,0.715,0,0,1-1.17.01l-0.481-.48a0.686,0.686,0,0,1,0-1.06q1.468-1.47,2.94-2.94c0.2-.2.2-0.2,0.006-0.39-0.966-.97-1.933-1.93-2.9-2.9a0.7,0.7,0,0,1,0-1.15c0.155-.16.311-0.32,0.467-0.47a0.7,0.7,0,0,1,1.1,0c0.588,0.59,1.173,1.18,1.759,1.76,0.4,0.41.81,0.81,1.207,1.22a0.173,0.173,0,0,0,.3,0c0.971-.98,1.949-1.96,2.924-2.93a0.718,0.718,0,0,1,1.183-.01c0.156,0.16.312,0.31,0.467,0.47a0.684,0.684,0,0,1,0,1.07q-1.454,1.455-2.912,2.91c-0.237.24-.242,0.2-0.007,0.43,0.957,0.96,1.915,1.92,2.872,2.87a0.713,0.713,0,0,1,0,1.17,5.536,5.536,0,0,1-.527.52A2.524,2.524,0,0,1,51.667,6922Z" transform="translate(-40 -6910)"/>
</svg>
