<svg id="insta" xmlns="http://www.w3.org/2000/svg" width="21.13" height="21" viewBox="0 0 21.13 21">
  <defs>
    <style>
      .cls-1 {
        fill: #d94b8e;
      }

      .cls-2 {
        fill: #fff;
        fill-rule: evenodd;
      }
    </style>
  </defs>
  <circle id="Ellipse_1297_copy_2" data-name="Ellipse 1297 copy 2" class="cls-1" cx="10.565" cy="10.5" r="10.565"/>
  <path class="cls-2" d="M1444.16,22.748c-0.81,0-1.63,0-2.45,0a2.455,2.455,0,0,1-2.53-2.523V15.346a2.456,2.456,0,0,1,2.52-2.511c1.64,0,3.29,0,4.93,0a2.456,2.456,0,0,1,2.52,2.513v4.878a2.459,2.459,0,0,1-2.53,2.522C1445.8,22.75,1444.98,22.748,1444.16,22.748Zm3.99-4.96V15.407a1.46,1.46,0,0,0-1.59-1.577c-1.6,0-3.19,0-4.79,0a1.459,1.459,0,0,0-1.59,1.575v4.781a1.456,1.456,0,0,0,1.58,1.568c1.6,0,3.2,0,4.81,0a1.46,1.46,0,0,0,1.58-1.565v-2.4Zm-3.99-2.475a2.479,2.479,0,1,1-2.49,2.483A2.468,2.468,0,0,1,1444.16,15.313Zm1.49,2.474a1.442,1.442,0,0,0-1.48-1.479A1.483,1.483,0,1,0,1445.65,17.787Zm1.01-2.972a0.5,0.5,0,1,1-.02,1A0.5,0.5,0,0,1,1446.66,14.815Z" transform="translate(-1433.31 -7)"/>
</svg>
