<svg xmlns="http://www.w3.org/2000/svg" width="6.969" height="10" viewBox="0 0 6.969 10">
  <defs>
    <style>
      .cls-1 {
        fill: #fff;
        fill-rule: evenodd;
      }
    </style>
  </defs>
  <path id="W_Article_page_author_Location_copy" data-name="W_Article page author Location copy" class="cls-1" d="M357.485,616c-0.5-.671-0.979-1.29-1.428-1.931a14.009,14.009,0,0,1-1.8-3.307,3.374,3.374,0,0,1,.5-3.426,3.32,3.32,0,0,1,3.106-1.312,3.365,3.365,0,0,1,2.872,2.145,3.509,3.509,0,0,1-.1,2.838,18.8,18.8,0,0,1-2.3,3.885C358.06,615.249,357.789,615.6,357.485,616Zm1.491-6.575a1.474,1.474,0,0,0-1.492-1.47,1.477,1.477,0,1,0,.015,2.953A1.468,1.468,0,0,0,358.976,609.425Z" transform="translate(-354 -606)"/>
</svg>
