<svg id="Layer_1" data-name="Layer 1" xmlns="http://www.w3.org/2000/svg" viewBox="0 0 582.01 158.56"><defs><style>.cls-1{fill:#d52028;}.cls-2{fill:#fff;stroke:#fff;stroke-miterlimit:10;stroke-width:2px;}</style></defs><title>OR_Logo_webste_MOB</title><path class="cls-1" d="M535.08,62.15l7.52.05a4.54,4.54,0,0,0-.81-1.87c-.67-.92-1.18-2-1.84-3.11l1.19-.33a16.74,16.74,0,0,0,7.66-3.83A14.9,14.9,0,0,0,551,49.58a1.5,1.5,0,0,0,0-1.21c-1.12-1.59-2.32-3.11-3.55-4.76a7.42,7.42,0,0,1-4.59,4.09,54.27,54.27,0,0,0-5.4,2.09,24.66,24.66,0,0,0-4.31,2.57,3.29,3.29,0,0,0-1.05,4C533,58.35,534.08,60.22,535.08,62.15Z" transform="translate(-5.05 -3.01)"/><path d="M542.58,62.17c-2.51-.08-5-.16-7.55-.07a.92.92,0,0,1,.08.27c.09,1.2,0,2.42,0,3.83-.37-.28-.57-.41-.74-.57-6.56-6.11-17.63-4.58-23,1.94-4.26,5.18-5.48,11.18-4.62,17.63a14.74,14.74,0,0,0,5.08,9.29,2.12,2.12,0,0,1,.89,1.84A14.18,14.18,0,0,0,517,107c4.27,4.24,10,3.93,13.83-.72s4.42-13,1.38-18.11a14,14,0,0,0-1.28-1.77c-4.79-5.6-10.36-4.85-14.93.13-.27.29-.49.62-.89,1.12a15.88,15.88,0,0,1-1-2.61,14,14,0,0,1,1.78-10A9.75,9.75,0,0,1,532,73.79,11.54,11.54,0,0,1,534.66,81c.05,2,0,4,0,6h7.9V62.77A3.08,3.08,0,0,0,542.58,62.17ZM521,91.77c1.39-2,3.58-2,4.78,0a26.58,26.58,0,0,1,1.61,4.38l-.33.12a6.86,6.86,0,0,1-1.38,4.6,2.62,2.62,0,0,1-4.44,0A8.49,8.49,0,0,1,521,91.77Z" transform="translate(-5.05 -3.01)"/><path d="M423.53,109.39,419,114.8l-1.46-1.69c-1.92-2.24-3.82-4.5-5.78-6.71a1.57,1.57,0,0,1-.3-1.76C413.82,96.9,414.65,89,412.89,81a16.11,16.11,0,0,0-3.11-6.48C407,71,403.46,69.27,399,70.46a10.53,10.53,0,0,0-8.09,8.78,28.71,28.71,0,0,0-.06,6.22,9.3,9.3,0,0,0,.73,2.16l.93-1.26A8.93,8.93,0,0,1,406.06,85a13.3,13.3,0,0,1,4.51,10c.1,4.11-.53,8-3.24,11.32-3.83,4.66-9.57,5-13.84.7a14,14,0,0,1-4.18-10.3,2.57,2.57,0,0,0-1.12-2.31,13.43,13.43,0,0,1-4.89-9.21,22.15,22.15,0,0,1,5.11-17.75c6.16-7.24,20.78-8.66,27.85,2.5a32.51,32.51,0,0,1,4.95,19.55,46.45,46.45,0,0,1-2.42,13.36,1.63,1.63,0,0,0,.29,1.28C420.5,105.88,422,107.6,423.53,109.39ZM403.59,96.22l.32-.11a25.92,25.92,0,0,0-1.51-4.18c-1.24-2.22-3.48-2.2-4.91-.11a8.47,8.47,0,0,0,.25,9,2.64,2.64,0,0,0,4.52,0A7,7,0,0,0,403.59,96.22Z" transform="translate(-5.05 -3.01)"/><path d="M555.11,87.65,556,86.4A9,9,0,0,1,569.64,85a13.28,13.28,0,0,1,4.44,9.9c.11,4.16-.53,8.1-3.29,11.42-3.81,4.59-9.52,4.89-13.77.68a14,14,0,0,1-4.22-10.53,2.18,2.18,0,0,0-1-2,13.61,13.61,0,0,1-5-9.4,22.18,22.18,0,0,1,5-17.55c6.17-7.37,20.85-8.79,28,2.34a32.39,32.39,0,0,1,5,19.29,46.11,46.11,0,0,1-2.41,13.62,1.69,1.69,0,0,0,.33,1.37c1.41,1.76,2.89,3.45,4.44,5.24l-4.59,5.42c-2.55-3-5-5.86-7.46-8.79-.24-.29-.14-1,0-1.44A47.43,47.43,0,0,0,576.67,82a17,17,0,0,0-3.24-7.35c-2.75-3.61-6.32-5.4-10.85-4.22a10.52,10.52,0,0,0-8.15,8.74,28.08,28.08,0,0,0-.08,6.22A11.15,11.15,0,0,0,555.11,87.65Zm12,8.59.33-.12a26.23,26.23,0,0,0-1.64-4.37c-1.18-2-3.34-2-4.71,0a8.45,8.45,0,0,0,.22,9.23,2.61,2.61,0,0,0,4.38,0A6.85,6.85,0,0,0,567.15,96.24Z" transform="translate(-5.05 -3.01)"/><path d="M491,109.92h-7.44v-5.14a13.74,13.74,0,0,1-7,4.58c-7.75,2.23-15.51-1.77-17.53-9.09a14.38,14.38,0,0,1,.13-8.59,1.38,1.38,0,0,0-.15-1.17c-4.39-4.32-5.27-13.54-1.49-19.88,4.24-7.1,11.74-10.4,19.12-8.27A12,12,0,0,1,483,66.89a2,2,0,0,1,.21.44l.26-.14V61.88H491ZM464.09,85a10.26,10.26,0,0,1,8.25-.78c.38.12,1,.47,1,.72.07,2.44,0,4.87,0,7.39-.58-.16-1-.29-1.36-.39-2.44-.57-4.44.2-5.37,2.09a4.88,4.88,0,0,0,1.33,5.89,7.93,7.93,0,0,0,2.67,1.43c5.15,1.44,11.59-2.51,12.57-8.06a55.79,55.79,0,0,0,.32-9.77,19.5,19.5,0,0,0-.54-4.37c-1.38-5.78-5.75-9.21-11.26-9-7.08.28-11.45,8.64-7.61,14.82Z" transform="translate(-5.05 -3.01)"/><path d="M434.26,80.53a55.93,55.93,0,0,1,6.63.78c6.73,1.59,11.19,7.38,11.4,14.51.11,3.7-.44,7.21-3,10.12-4.63,5.38-12.6,5.38-17.55,0a20.44,20.44,0,0,1-5.19-11.44,40.34,40.34,0,0,1,2.07-21,21,21,0,0,1,6-8.58A12.94,12.94,0,0,1,454,67.62l-4.49,6.09c-.48-.54-.89-1-1.3-1.5-2.63-2.87-5.78-3.11-8.83-.72A15.65,15.65,0,0,0,434.26,80.53Zm-1.13,8.1c.1,3.93.65,7.64,3.16,10.69a7.17,7.17,0,0,0,3.2,2.1c2.51.83,4.83-.33,5.25-2.58.72-3.78-.24-7.56-4.44-9.36C438.06,88.5,435.71,88.52,433.13,88.63Z" transform="translate(-5.05 -3.01)"/><path d="M495.41,61.82h7.36v48.1h-7.36Z" transform="translate(-5.05 -3.01)"/><path d="M419.93,58.07c-2.47,0-4.79,0-7.11,0-.23,0-.52-.33-.67-.58-4.26-6.82-12.86-6.82-17.12,0a1.35,1.35,0,0,1-.89.6c-2.29,0-4.58,0-6.88,0,.52-6.47,8.31-13.22,15.64-13.52C412.27,44.18,418.64,51.85,419.93,58.07Z" transform="translate(-5.05 -3.01)"/><path d="M356.15,109.93h-7.39v-1.45c0-8.31.07-16.63,0-25a24.55,24.55,0,0,0-1-6.76,9.17,9.17,0,0,0-9.52-6.63,4.08,4.08,0,0,0-4.07,3c1.3.29,2.62.53,3.9.89a1.18,1.18,0,0,1,.62.89c-.42,2-.93,4.06-1.43,6.19-2.95-1-5.91-2-8.27.95a6.57,6.57,0,0,0-1,6.61,10.84,10.84,0,0,1,4.8-4.79,8.24,8.24,0,0,1,10.36,1.39c3.66,3.59,4.59,8.09,4.17,13a14.26,14.26,0,0,1-3.55,8.45,8.78,8.78,0,0,1-12.63,1,13.29,13.29,0,0,1-5-9.77,2,2,0,0,0-1-1.74A10.31,10.31,0,0,1,320.29,88c-.54-5.1.89-9.46,5-12.8a2.29,2.29,0,0,0,.54-1.39,13.74,13.74,0,0,1,9.56-11.63c4.24-1.26,10.28,0,12.89,4.23a2.32,2.32,0,0,1,.16.44l.33-.19V61.79h7.41ZM332.73,96.22a26.49,26.49,0,0,0,1.59,4.31c1.26,2.19,3.52,2.12,4.95,0a8.16,8.16,0,0,0-.24-8.7c-1.34-1.78-3.42-1.84-4.59,0A25.1,25.1,0,0,0,332.73,96.22Z" transform="translate(-5.05 -3.01)"/><path d="M262.53,94.88c-1.5-1.29-3-2.52-4.39-3.82a1.32,1.32,0,0,1,0-1.15,17.32,17.32,0,0,1,6.29-6.26,19.46,19.46,0,0,0,3-2.1,5.13,5.13,0,0,0,1.7-5.33,2,2,0,0,0-2.39-1.41,2,2,0,0,0-.86.48,1.38,1.38,0,0,0-.37,1.72c1,2.92-.56,5.48-3.42,5.85-2.22.3-4.72-1.83-5-4.28-.79-6.71,5.48-12.66,12.09-11.44,3.62.66,6.74,4.2,7.37,8.29.66,4.31-.31,8-3.78,10.94,5.08,3.84,5.21,9,3.61,14.25-1.66,5.48-5.83,8.45-11.42,9.09-10.46,1.25-18.39-4.1-21.33-14.51C240.46,84,243,69.3,254.85,60.54c.61-.45,1.28-.86,2-1.33l4.45,6.17c-.75.58-1.46,1.07-2.09,1.64-7.81,6.93-10.93,15.51-8.5,25.73,1.17,4.92,4.19,8.53,9.41,9.67a9.3,9.3,0,0,0,6.82-1.08,6,6,0,0,0,3.23-6.14,2.91,2.91,0,0,0-1.86-2.9,3.71,3.71,0,0,0-4,.62C263.69,93.47,263.2,94.14,262.53,94.88Z" transform="translate(-5.05 -3.01)"/><path d="M315.14,91.43c-.32-.07-.6-.09-.89-.17L309,89.78a21.28,21.28,0,0,0,0-12.12c-1.58-5.26-6.13-8.12-11.75-7.5-4.74.54-8.88,5.09-9.16,10.1-.17,2.9-.05,3.85.73,5.6L292,81.68l5.53,4.42c-.8,1-1.59,1.88-2.22,2.85-1.9,2.84-3,5.9-2.49,9.38a4.54,4.54,0,0,0,9-1.46,5.09,5.09,0,0,0-.19-.77l-1.34,1.78L295,93.68l8.86-12,4.93,4.13L306,90a12.56,12.56,0,0,1,2.14,11.75,10.85,10.85,0,0,1-11,8.21,11.3,11.3,0,0,1-11.21-8.75,29.68,29.68,0,0,1-.37-6.81,2.77,2.77,0,0,0-.93-2.39,14,14,0,0,1-4.25-10.15c-.21-6.9,2.18-12.7,7.72-17,7-5.4,21.77-4.8,27,8.31a24.52,24.52,0,0,1,.41,17.31A8.26,8.26,0,0,1,315.14,91.43Z" transform="translate(-5.05 -3.01)"/><path d="M368.33,61.84v48.07H361V61.84Z" transform="translate(-5.05 -3.01)"/><path d="M283.21,58.08c1.66-7.74,9.05-13.68,16.71-13.54,7.32.14,14.77,6.27,16,13.27A6.61,6.61,0,0,1,315,58c-1.1,0-2.22,0-3.31.09a4.41,4.41,0,0,1-4.61-2c-4-5.38-12.38-4.65-15.79,1.16a1.59,1.59,0,0,1-1.62.94C287.55,58,285.43,58.08,283.21,58.08Z" transform="translate(-5.05 -3.01)"/><path class="cls-1" d="M304.29,119.07c0,3-1.69,4.89-4.41,4.89a4.49,4.49,0,0,1-4.63-4.34v-.3c0-3,1.86-5.13,4.44-5.14C302.49,114.17,304.29,116.09,304.29,119.07Z" transform="translate(-5.05 -3.01)"/><path d="M218.25,15.56A12.25,12.25,0,0,0,205.72,3H17.49A12.23,12.23,0,0,0,5.05,15.5V149.07a13.53,13.53,0,0,0,.37,3.17,12.23,12.23,0,0,0,12.2,9.33h188A12.26,12.26,0,0,0,218.27,149Q218.26,82.29,218.25,15.56Z" transform="translate(-5.05 -3.01)"/><path class="cls-2" d="M156.91,127v2.92H123.48V127c1.48-.22,3-.32,4.37-.65,3.87-.88,5.72-3.24,5.73-7.18v-66c0-4.22-1.89-6.56-6.05-7.44-1.31-.27-2.67-.36-4.06-.55V42.38h1.43c10.88,0,21.75,0,32.62.08a41.88,41.88,0,0,1,18.38,3.89c8.38,4.1,12.27,10.92,11.9,20.17-.37,9.55-5.89,16.67-15.39,20-1.88.65-3.82,1.11-5.9,1.7,1.08,1.48,2.12,2.92,3.18,4.36l19.11,26c.61.82,1.24,1.63,1.91,2.4,2.72,3.09,5.72,5.7,10.19,5.9V130h-2.67c-5.08-.06-10.17-.16-15.25-.14a2.72,2.72,0,0,1-2.52-1.27Q167,109.74,153.55,90.94a2.19,2.19,0,0,0-2.12-1.07c-1.59.08-3.19,0-5,0v28.69c0,4.63,2.48,7.46,7.08,8C154.61,126.75,155.71,126.83,156.91,127ZM146.44,84c5.56.3,14.35-.73,19.67-3.55a13.83,13.83,0,0,0,7.4-9.87,24.24,24.24,0,0,0-.24-10.85,13.63,13.63,0,0,0-7.3-9.26c-5.5-2.83-11.35-2.8-17.27-1.94a2,2,0,0,0-1.82,1.75,17.76,17.76,0,0,0-.42,3.41c0,9.67,0,19.35,0,29Z" transform="translate(-5.05 -3.01)"/><path class="cls-2" d="M68.59,54.68l-5.16-5.92a30.16,30.16,0,0,1,7.87-4.59c16.13-6.48,37.77-2.44,47.75,17.91,7.6,15.5,7.62,31.46,0,47a36.53,36.53,0,0,1-58.6,10.12c-.25-.25-.48-.54-.8-.89l7.08-5.69c.94,1.19,1.8,2.33,2.71,3.43,3.85,4.74,8.64,8,14.83,8.56,8.4.79,14.66-2.93,19.28-9.71,3.19-4.7,4.79-10,5.81-15.55A73.22,73.22,0,0,0,108.3,66.8a35.94,35.94,0,0,0-6-12.59C93.59,42.69,76.15,44.62,69.24,54,69.09,54.13,68.92,54.3,68.59,54.68Z" transform="translate(-5.05 -3.01)"/><path class="cls-1" d="M36,135.13C12.29,104.44,15.79,53.76,44.55,28.49l6.33,7.21C37.32,47.82,30.5,63.17,29.21,81s3.11,34.06,14.15,48.48Z" transform="translate(-5.05 -3.01)"/><path class="cls-1" d="M54.37,39.68l5.72,6.52C49.61,56,43.65,67.93,42.76,82.23a52.48,52.48,0,0,0,12.53,38c-2.34,1.78-4.6,3.52-6.85,5.26C27.86,102.06,28.73,62.28,54.37,39.68Z" transform="translate(-5.05 -3.01)"/><path class="cls-1" d="M58.9,117.58a38.77,38.77,0,0,1-5.75-8.16,48.17,48.17,0,0,1-5.51-19.87c-.67-10.59,1-20.68,6.28-30a34.44,34.44,0,0,1,8.82-10.32c1.59,1.82,3.2,3.61,4.74,5.46.14.17,0,.74-.23,1-1.73,3-3.74,5.81-5.2,8.91-6.7,14.22-5.83,28.26,1.13,42.13.44.89.91,1.76,1.4,2.6s1,1.66,1.62,2.6Z" transform="translate(-5.05 -3.01)"/><path class="cls-1" d="M70.78,58.45c1.74,2,3.39,4,5.19,5.91,1.1,1.14,1.12,2,.49,3.52A40.29,40.29,0,0,0,76.79,102c.47,1,.47,1.6-.53,2.31-2.16,1.53-4.22,3.21-6.34,4.84C60.88,95.16,60.32,74,70.78,58.45Z" transform="translate(-5.05 -3.01)"/><path class="cls-1" d="M78.18,84.88c0-4.66,3.14-8.33,7.11-8.5,4.67-.19,8.45,4.15,7.89,9.08a8.06,8.06,0,0,1-5.7,7.11c-4.34,1.14-8.69-2.07-9.23-6.83C78.2,85.39,78.19,85,78.18,84.88Z" transform="translate(-5.05 -3.01)"/></svg>