<svg xmlns="http://www.w3.org/2000/svg" width="19" height="18.031" viewBox="0 0 19 18.031">
  <defs>
    <style>
      .cls-1 {
        fill: #b3b3b3;
        fill-rule: evenodd;
      }
    </style>
  </defs>
  <path id="send" class="cls-1" d="M475.761,494.82l7.9-9.419-0.044-.046c-0.523.438-1.046,0.875-1.567,1.316q-4.217,3.569-8.43,7.142a0.5,0.5,0,0,1-.565.1c-1.491-.514-2.987-1.013-4.483-1.514a0.622,0.622,0,0,1-.08-1.225q8.736-4.511,17.471-9.026a0.7,0.7,0,0,1,.828-0.042,0.737,0.737,0,0,1,.194.8c-0.34,2.222-.666,4.447-1,6.67s-0.672,4.446-1.008,6.669c-0.035.23-.074,0.459-0.1,0.689-0.081.657-.378,0.843-1.02,0.626q-3.642-1.23-7.282-2.465Zm-0.826.971,3.183,1.076a0.569,0.569,0,0,1-.052.143q-1.008,1.362-2.017,2.722a0.6,0.6,0,0,1-.716.243,0.58,0.58,0,0,1-.4-0.6C474.932,498.2,474.935,497.021,474.935,495.791Z" transform="translate(-468 -481.969)"/>
</svg>
