<svg id="twitter" xmlns="http://www.w3.org/2000/svg" width="21.12" height="21" viewBox="0 0 21.12 21">
  <defs>
    <style>
      .cls-1 {
        fill: #5db2f7;
      }

      .cls-2 {
        fill: #fff;
        fill-rule: evenodd;
      }
    </style>
  </defs>
  <circle id="Ellipse_1297_copy" data-name="Ellipse 1297 copy" class="cls-1" cx="10.56" cy="10.5" r="10.56"/>
  <path class="cls-2" d="M1409.99,21.86a4.377,4.377,0,0,0,3.27-1.038,2.432,2.432,0,0,1-2.11-1.762h0.93c0.01-.019.01-0.038,0.02-0.057a2.409,2.409,0,0,1-1.25-.9,2.693,2.693,0,0,1-.49-1.543c0.32,0.095.61,0.185,0.91,0.276a0.247,0.247,0,0,1,.04-0.071,2.7,2.7,0,0,1-.62-3.293,6.311,6.311,0,0,0,4.68,2.616,3.2,3.2,0,0,1,.09-1.418,2.186,2.186,0,0,1,3.65-1.035,0.308,0.308,0,0,0,.38.1c0.39-.159.78-0.311,1.16-0.461a2.531,2.531,0,0,1-.81,1.28c0.19-.044.38-0.079,0.57-0.134s0.36-.131.54-0.2a0.286,0.286,0,0,1,.05.065c-0.3.337-.59,0.687-0.91,1.006a0.592,0.592,0,0,0-.21.476,7.1,7.1,0,0,1-4.62,6.926,5.925,5.925,0,0,1-5.11-.692c-0.03-.02-0.06-0.041-0.09-0.064C1410.05,21.93,1410.04,21.917,1409.99,21.86Z" transform="translate(-1405.16 -7)"/>
</svg>
