<svg id="APP" xmlns="http://www.w3.org/2000/svg" width="164.438" height="164.438" viewBox="0 0 164.438 164.438">
  <defs>
    <style>
      .cls-1 {
        fill: #fff;
        stroke: #acacac;
        stroke-width: 4px;
      }

      .cls-2 {
        fill: #e67027;
      }

      .cls-2, .cls-3, .cls-4 {
        fill-rule: evenodd;
      }

      .cls-3 {
        fill: #1b7d5b;
      }

      .cls-4 {
        fill: #0b0b0b;
      }
    </style>
  </defs>
  <circle class="cls-1" cx="82.219" cy="82.219" r="80.219"/>
  <path class="cls-2" d="M108.644,79.8c-0.378-.038-0.734-0.078-1.09-0.109q-1.253-.11-2.5-0.213-2.22-.183-4.433-0.428t-4.441-.543c-0.24-.032-0.48-0.069-0.721-0.092a0.205,0.205,0,0,1-.214-0.2q-0.508-2.912-1.022-5.823c-0.02-.115-0.039-0.231-0.066-0.392a2.58,2.58,0,0,0-.146.63q-0.5,2.578-.988,5.158c-0.036.19-.091,0.233-0.295,0.2-4.034-.633-8.039-1.418-12.032-2.264-0.119-.025-0.172-0.057-0.14-0.2q0.982-4.4,1.9-8.805c0.587-2.826,1.15-5.656,1.661-8.5q0.545-3.029,1-6.072c0.019-.123.06-0.168,0.178-0.153a1.061,1.061,0,0,0,.132,0q8.682,0,17.364,0a0.255,0.255,0,0,1,.313.266c0.752,4.524,1.625,9.026,2.547,13.519q1.246,6.07,2.579,12.121C108.369,78.53,108.5,79.152,108.644,79.8Zm-66.8-3.812-0.1,0c0.075-.619.221-1.225,0.339-1.835q0.844-4.369,1.7-8.737t1.7-8.758c0.287-1.474.576-2.948,0.855-4.423a0.222,0.222,0,0,1,.265-0.223q8.737,0.018,17.473.023a0.208,0.208,0,0,1,.25.21q0.8,4.087,1.61,8.171l1.788,9.055,0.808,4.1-1.342-.14c-1.4-.149-2.812-0.242-4.223-0.3q-2.4-.092-4.807.049c-0.785.045-1.57,0.1-2.35,0.2-0.133.016-.194,0-0.214-0.151-0.043-.326-0.112-0.649-0.171-0.974-0.012-.069-0.048-0.132-0.059-0.185a0.128,0.128,0,0,1-.017.1c-0.076.388-.154,0.776-0.224,1.165a0.164,0.164,0,0,1-.17.157,75.771,75.771,0,0,0-8.343,1.689c-1.178.281-2.361,0.536-3.559,0.715-0.283.042-.571,0.044-0.857,0.065C42.075,76,41.954,75.955,41.84,75.992Zm107.137-9.826a19.927,19.927,0,0,0-1.27-4.629,16.361,16.361,0,0,0-5.222-6.96,12.11,12.11,0,0,0-7.288-2.569c-2.3-.033-4.6.055-6.9,0.043-4.817-.024-9.635-0.006-14.453-0.011-0.173,0-.2.055-0.2,0.212q0.006,13.859,0,27.717c0,0.156.028,0.214,0.2,0.218,1.412,0.035,2.823.051,4.236,0.01a67.667,67.667,0,0,0,7.663-.664,68.3,68.3,0,0,0,8.126-1.674,1.183,1.183,0,0,1,.434-0.046,0.194,0.194,0,0,0,.208.011c1.178-.395,2.351-0.8,3.5-1.267a46.593,46.593,0,0,0,5.225-2.444c0.809-.451,1.6-0.925,2.374-1.437a22.877,22.877,0,0,0,2.7-2.081,3.028,3.028,0,0,0,.67-0.686l0.006-3.632A0.674,0.674,0,0,0,148.977,66.166Zm-15.161,6.439a6.251,6.251,0,0,1-3.955,1.32c-0.255,0-.51-0.057-0.765-0.081a0.118,0.118,0,0,1-.127-0.14c0-.051,0-0.1,0-0.154V68.4q0-2.542,0-5.083c0-.32-0.072-0.3.3-0.36a6.11,6.11,0,0,1,5.969,2.861A5.207,5.207,0,0,1,133.816,72.605Z" transform="translate(-10.281 -14.281)"/>
  <path class="cls-3" d="M36,104.7a3.47,3.47,0,0,0,.214-0.882Q37.342,98.26,38.458,92.7q1.135-5.633,2.268-11.267,0.486-2.413.974-4.825a0.219,0.219,0,0,1,.03-0.056,0.282,0.282,0,0,1,.107-0.048,0.5,0.5,0,0,1,.341.049c1.522,0.046,3.043.1,4.565,0.138,1.786,0.049,3.573.089,5.359,0.138,0.375,0.01.748,0.052,1.123,0.065,0.147,0.005.185,0.049,0.156,0.193-0.2.991-.391,1.984-0.588,2.976q-0.538,2.705-1.083,5.409c-0.04.2,0,.241,0.2,0.239q2.846-.029,5.693-0.037c0.159,0,.209-0.012.169-0.2-0.431-2.028-.885-4.051-1.268-6.089-0.141-.749-0.274-1.5-0.419-2.247-0.036-.184.014-0.211,0.2-0.2,2.09,0.149,4.172.372,6.244,0.685a58.574,58.574,0,0,1,6.847,1.449,0.264,0.264,0,0,1,.2.241q0.865,4.04,1.733,8.079,0.886,4.137,1.7,8.289c0.493,2.5.962,5.008,1.392,7.522,0.083,0.484.165,0.968,0.252,1.451,0.027,0.15.029,0.231-.177,0.231q-7.624-.009-15.248,0a0.185,0.185,0,0,1-.217-0.214q-0.2-1.737-.412-3.473-0.232-1.944-.466-3.887c-0.036-.3-0.078-0.6-0.1-0.9a0.162,0.162,0,0,0-.194-0.188q-2.383.008-4.767,0a0.169,0.169,0,0,0-.206.18q-0.434,3.57-.874,7.139c-0.047.386-.079,0.774-0.113,1.161a0.155,0.155,0,0,1-.185.174q-7.823-.007-15.645-0.006a0.329,0.329,0,0,1-.044,0V104.7Zm69.7,0.185c-2.53,0-5.061,0-7.591.005a0.221,0.221,0,0,1-.27-0.255c-0.133-1.6-.355-3.192-0.559-4.784-0.14-1.1-.279-2.2-0.372-3.3-0.026-.314-0.023-0.313-0.34-0.318-1.53-.024-3.059-0.046-4.589-0.078a0.227,0.227,0,0,0-.29.252c-0.155,1.436-.333,2.87-0.5,4.3-0.155,1.318-.309,2.636-0.455,3.955a0.193,0.193,0,0,1-.232.221q-7.734-.009-15.469,0c-0.18,0-.2-0.046-0.167-0.21,0.542-2.9,1.068-5.794,1.618-8.687,0.9-4.714,1.8-9.427,2.816-14.117,0.036-.169.1-0.184,0.249-0.148,3.015,0.744,6.053,1.383,9.1,1.956,0.953,0.179,1.909.337,2.864,0.5,0.317,0.054.316,0.048,0.257,0.353-0.063.323-.111,0.651-0.186,0.971-0.038.164,0.021,0.179,0.159,0.179,1.1,0,2.207,0,3.31.009,0.485,0,.971,0,1.456.012,0.14,0,.215-0.011.151-0.178a2.925,2.925,0,0,1-.085-0.341c-0.058-.234-0.058-0.24.191-0.211,1.262,0.151,2.522.319,3.785,0.456,1.308,0.141,2.619.263,3.929,0.375s2.595,0.2,3.893.293q0.682,0.05,1.365.083a0.167,0.167,0,0,1,.185.163q0.771,3.981,1.549,7.962,0.823,4.229,1.649,8.457c0.124,0.633.245,1.266,0.377,1.9,0.038,0.176.013,0.231-.188,0.23C110.772,104.88,108.234,104.883,105.7,104.883Zm28.6-26.514a5.161,5.161,0,0,0,.856-0.27,49.176,49.176,0,0,0,8.433-3.7,26.045,26.045,0,0,0,5.307-3.871c0.026-.025.057-0.046,0.085-0.07,0,0.924.054,1.852-.008,2.773a12.593,12.593,0,0,1-.563,2.684,16.834,16.834,0,0,1-4.712,7.814,12.862,12.862,0,0,1-6.446,3.285,16.247,16.247,0,0,1-2.9.2c-1.9.013-3.795,0.046-5.692,0.061-0.2,0-.249.059-0.248,0.256q0.007,8.542.01,17.085c0,0.217-.059.259-0.266,0.259q-7.116-.007-14.232.005c-0.206,0-.269-0.039-0.269-0.259q0.007-9.225-.005-18.45c0-.2.02-0.286,0.257-0.308q2.163-.2,4.3-0.585a33.606,33.606,0,0,0,10.331-3.646c1.774-.977,3.535-1.978,5.3-2.973A0.927,0.927,0,0,0,134.3,78.369Z" transform="translate(-10.281 -14.281)"/>
  <path class="cls-4" d="M132.519,115.821c0.728-.147,1.458-0.287,2.185-0.443,2.124-.455,4.246-0.919,6.37-1.374a0.758,0.758,0,0,1,.577.1l-1.761.621c-0.016.048-.033,0.1-0.049,0.143l0.881,0.313-0.256-.141-0.489.851,0.362,0.2,0.738,0.122c0.007,0.042.013,0.084,0.019,0.126l-1.132.283,0,0.072,1.371-.034c0.006,0.138.014,0.318,0.017,0.4l-4.4.268,0.009,0.293,2.487-.138c0.008,0.031.016,0.062,0.023,0.093l-1.233.436c0.008,0.049.015,0.1,0.023,0.149l3-.3c0.014,0.067.029,0.134,0.044,0.2a1.129,1.129,0,0,1-.346.181c-0.93.114-1.861,0.228-2.8,0.3a2.1,2.1,0,0,1-.586-0.242,1.443,1.443,0,0,0-.6-0.093c-1.257.193-2.51,0.413-3.766,0.615a1.1,1.1,0,0,1-.453-0.022c-0.375-.1-0.756-0.3-1,0.211a0.275,0.275,0,0,1-.175.082c-0.938.186-1.875,0.368-2.848,0.558,0-.181.006-0.315,0.01-0.521-2.833,1.182-5.827,1.122-8.734,1.557-1.189.177-2.388,0.288-3.581,0.438a5.327,5.327,0,0,0-.614.149c0.006,0.068.012,0.136,0.017,0.2,0.718-.033,1.441-0.022,2.152-0.11,1-.123,1.981-0.353,2.977-0.476,2.675-.33,5.357-0.611,8.031-0.945,1.5-.188,2.983-0.482,4.482-0.658,1.761-.207,3.532-0.33,5.3-0.5,1-.1,1.992-0.226,2.989-0.332a2.137,2.137,0,0,1,.411.037l0.015,0.167-1.792.229c0,0.034,0,.068,0,0.1l1.883,0.134c0,0.044-.007.089-0.01,0.133l-2.595.165c0,0.057,0,.114,0,0.171L142,119.627l0.012,0.249-1.05.246c0.1,0.137.179,0.256,0.3,0.425l-2.769.562,4.833,0.559c0,0.04.011,0.08,0.016,0.12-0.631.047-1.262,0.131-1.894,0.136-2.1.013-4.207-.006-6.31,0a11.833,11.833,0,0,0-1.249.066c-0.811.085-1.619,0.194-2.428,0.289-0.884.1-1.767,0.232-2.654,0.3-2.969.224-5.94,0.425-8.91,0.634a16.7,16.7,0,0,0-2.691.333,2.932,2.932,0,0,0,.665.106c1.75-.122,3.5-0.26,5.249-0.4,1.64-.13,3.279-0.279,4.92-0.4q5.147-.368,10.293-0.707c0.472-.032.945-0.029,1.418-0.042,0.015,0.055.03,0.109,0.044,0.164a6.424,6.424,0,0,1-.908.2c-1.642.118-3.284,0.215-4.926,0.325a0.38,0.38,0,0,0-.279.186l6.065,0.081c0.013,0.085.027,0.169,0.04,0.253l-1.361.3,0,0.062,2.192-.012c0,0.075,0,.149.005,0.223a79.754,79.754,0,0,1-8.358.116c-2.792-.073-5.592.14-8.388,0.227l-0.009.177,2.14,0.1c0,0.07,0,.141,0,0.212l-3.886.108c0,0.092,0,.184.008,0.276l9.572-.556,0.021,0.2c-0.44.063-.879,0.152-1.322,0.185-2.187.162-4.376,0.306-6.564,0.463-2.251.162-4.5,0.344-6.753,0.5-2.78.186-5.563,0.333-8.343,0.524-4.617.318-9.232,0.669-13.85,0.985q-6.357.435-12.717,0.824c-3.388.2-6.779,0.362-10.169,0.533-1.547.079-3.1,0.124-4.643,0.211-1.266.072-2.529,0.2-3.8,0.27a3.188,3.188,0,0,1-.793-0.188c-0.213.092-.53,0.693-0.718,0.152a5.42,5.42,0,0,1-.809.1c-0.466-.024-0.933-0.139-1.4-0.119-1.069.046-2.137,0.139-3.2,0.238a4.983,4.983,0,0,0-.822.216c0.042-.249.074-0.435,0.136-0.8,0.726-.547,1.851-0.485,2.906-0.664,0.947-.16,1.91-0.229,2.857-0.39a3.349,3.349,0,0,0,.849-0.407l-0.04-.2c-0.238.038-.476,0.075-0.714,0.114-0.183.029-.365,0.07-0.55,0.087a1.076,1.076,0,0,0-.394,0c-0.431.615-.536,0.008-0.727-0.023l-5.248.722a4.07,4.07,0,0,1,2.674-1.3c1.425-.158,2.838-0.422,4.258-0.628,1.473-.214,2.948-0.416,4.423-0.617q2.411-.328,4.824-0.643c0.542-.071,1.087-0.117,1.631-0.174l0.029,0.176-12.453,1.823,0.032,0.212,18-2.481c0-.059.007-0.118,0.011-0.178l-0.52-.143,0.035-.153,1.612,0.307-0.293-.356,6.639-.783-0.045-.351c-5.162.638-10.329,1.243-15.485,1.924s-10.31,1.438-15.522,2.17c0.019-.469.023-0.875,0.058-1.278a0.428,0.428,0,0,1,.165-0.322c0.767-.213,1.374-0.926,2.314-0.644a3.619,3.619,0,0,0,1.313-.051,1.039,1.039,0,0,0,.157-0.368l1.122-.251,0.027-.121a1.085,1.085,0,0,0-.41-0.107c-1.206.2-2.407,0.425-3.612,0.628a5.453,5.453,0,0,1-.758.024c0.008-.267.016-0.534,0.023-0.786l1.389-.188-0.017-.192-1.079.063c-0.153-.338.742-0.912-0.282-1.042,0.223-.411.336-0.676,0.909-0.428a4.154,4.154,0,0,0,1.636.112c1.839-.029,3.678-0.1,5.518-0.117,0.869-.011,1.739.093,2.607,0.07a14.434,14.434,0,0,0,4.7-.677,4.157,4.157,0,0,1,.834-0.177c2.9-.43,5.794-0.867,8.7-1.276,1.193-.168,2.4-0.248,3.591-0.415,1.3-.182,2.594-0.432,3.895-0.624a6.775,6.775,0,0,0,1.156-.034c2.085-.73,4.316-0.491,6.43-1.009a8.34,8.34,0,0,1,1.835-.213l-0.443.213a0.326,0.326,0,0,0,.056.105c0.4-.034.811-0.059,1.213-0.117,1.36-.2,2.722-0.379,4.075-0.613,2.167-.375,4.33-0.775,6.491-1.185,2.554-.486,5.1-1.011,7.657-1.484,1.829-.339,3.668-0.625,5.5-0.918a0.872,0.872,0,0,1,.6.177l-7.218,1.286,0.033,0.172,17.339-2.531,0.039,0.078-0.977.279,0.018,0.176a22.132,22.132,0,0,0,6.2-.627l0.036,0.249-6.158,1.531,0.027,0.158,3.455-.591c-0.073.264-.131,0.474-0.214,0.776l3.2-.43c0.013,0.046.025,0.092,0.037,0.138-0.818.213-1.63,0.452-2.456,0.631-0.855.185-1.727,0.294-2.583,0.48a1.1,1.1,0,0,0-.358.431l-2.828.256c0.007,0.082.014,0.163,0.022,0.245l0.22-.007c0.886-.03,1.773-0.058,2.659-0.09,0.174-.006.348-0.037,0.522-0.042q0.849-.024,1.7-0.035c0.8-.01,1.609.013,2.411-0.03a7.924,7.924,0,0,0,1.193-.246,0.3,0.3,0,0,0-.273-0.18c-1.653.076-3.306,0.162-4.96,0.228A3.446,3.446,0,0,1,132.519,115.821Zm-23.306,8.361-3.329.152,0.018,0.243a9.564,9.564,0,0,0,3.319-.414,1.694,1.694,0,0,0,.576.187c0.718-.039,1.433-0.116,2.148-0.2,0.305-.035.606-0.117,0.909-0.177-0.011-.071-0.021-0.142-0.031-0.213Q111.019,123.97,109.213,124.182Zm-40.08,3.455,0.026,0.171c0.1-.007.2-0.012,0.307-0.022,2.751-.277,5.509-0.5,8.251-0.845,2.938-.37,5.863-0.85,8.792-1.291q3.547-.535,7.09-1.093c1.939-.3,3.875-0.63,5.816-0.929,1.814-.278,3.629-0.554,5.448-0.792,1.389-.182,2.787-0.294,4.178-0.459,0.442-.052.876-0.172,1.313-0.261,0-.054-0.008-0.107-0.011-0.161-0.246.015-.493,0.018-0.737,0.048-2.066.26-4.133,0.51-6.2,0.791-3.125.425-6.253,0.837-9.369,1.32-2.814.437-5.609,0.994-8.421,1.441-2.642.419-5.291,0.8-7.946,1.13-2.591.316-5.195,0.533-7.792,0.8A7.467,7.467,0,0,0,69.133,127.637Zm-4.971-.7,0.025,0.307c0.957-.078,1.916-0.141,2.871-0.238,0.547-.055,1.087-0.191,1.634-0.242,0.708-.065,1.427-0.039,2.131-0.129,1.424-.183,2.84-0.427,4.262-0.628,2.463-.348,4.933-0.656,7.391-1.031,1.771-.27,3.53-0.622,5.293-0.938,0.4-.072.8-0.15,1.2-0.226l-0.032-.2Zm-3.785-3.311a1.475,1.475,0,0,0,1.653.319,8.5,8.5,0,0,1,1.058-.3c1.094-.132,2.2-0.162,3.287-0.337,2.637-.426,5.264-0.91,7.905-1.372,0.005-.133.013-0.309,0.021-0.515a5.666,5.666,0,0,0-.589.05c-0.793.146-1.581,0.325-2.377,0.453-1.657.269-3.319,0.512-4.978,0.768a3.959,3.959,0,0,0-.742.142,3.86,3.86,0,0,1-.726.364C63.422,123.369,61.948,123.488,60.378,123.63Zm27.045,2.8-13.9,1.387a2.506,2.506,0,0,0,.893.124c2.221-.182,4.441-0.389,6.662-0.57,1.391-.113,2.792-0.132,4.172-0.315A13.252,13.252,0,0,0,87.423,126.429Zm-1.081-6.739c-0.819-.227-10.306,1.385-10.66,1.832Zm-11.909,8.715c0-.093-0.009-0.185-0.014-0.278l-9.692.461c0,0.087.008,0.173,0.013,0.26Zm44.839-3.837c0-.073-0.009-0.145-0.014-0.218l-9.984.437c0,0.086.007,0.172,0.011,0.258Zm3.842-4.847c-0.005-.079-0.01-0.157-0.014-0.236l-8.041.478,0.018,0.3Zm-36.451-.288,0.048,0.228c2.493-.376,5-0.673,7.454-1.262l-0.032-.182ZM82.7,127.667l0.026,0.268,7.733-.51-0.016-.22Zm-0.687.3L82,127.676l-5.078.309,0.014,0.208Zm8.229-5.414c-0.807-.248-3.764.144-4.1,0.546Zm-30.828,3.312-0.033-.268-3.617.465,0.032,0.265Zm8.413-2.482,0.028,0.2,3.612-.524-0.036-.251Zm-6.252,5.262-0.02-.278-3.492.436,0.009,0.133ZM136.75,117.93c-0.012-.063-0.025-0.125-0.037-0.188l-3.635.536,0.039,0.213Zm-42.527,7.983,2.549-.152A2.828,2.828,0,0,0,94.223,125.913Zm40.942-8.271c-0.012-.094-0.025-0.188-0.037-0.282l-2.91.445c0.006,0.044.013,0.087,0.02,0.13Zm-34.358,6.5-0.015-.261-2.515.207c0,0.07,0,.139.006,0.209Zm3.929-7.335,0.024,0.2,3.167-.472c-0.009-.059-0.017-0.119-0.025-0.178Zm32.636-.34c0.016,0.083.033,0.166,0.049,0.248l2.1-.445C138.716,115.83,138.106,116.505,137.372,116.464Zm-3.621,3.168a1.567,1.567,0,0,0,1.827-.153Zm-32.307,4.228c0.009,0.072.013,0.126,0.016,0.126,0.712-.032,1.425-0.069,2.138-0.105l-0.018-.232Zm18.936,0.411c0.009,0.072.019,0.144,0.029,0.216l1.822-.032-0.012-.228Zm8.013,5.443c0.511,0.045,1.021.114,1.533,0.13a19.142,19.142,0,0,1,4.48.327,3.142,3.142,0,0,0,2.267-.15,2.589,2.589,0,0,1,1.086.082c0.337,0.021.676,0.012,1.06,0.017-0.129.161-.249,0.312-0.362,0.452l-0.978-.077c-0.011.077-.023,0.154-0.035,0.231l1.045,0.194c0,0.04-.006.081-0.01,0.122l-9.326-.138c0,0.065-.006.131-0.008,0.2l9.069,0.387a2.041,2.041,0,0,1-1.608.282c-0.588,0-1.176-.031-1.764-0.044-0.558-.012-1.116-0.019-1.673-0.028,0,0.059-.007.118-0.01,0.177l3.647,0.281c0.037,0.858-.475.953-1.047,0.882-1.434-.178-2.859-0.453-4.3-0.575-2.573-.22-5.155-0.342-7.73-0.532-1.309-.1-2.611-0.289-3.92-0.37-2.034-.125-4.072-0.19-6.107-0.287-0.294-.014-0.586-0.063-0.879-0.1l-0.021.211,14.2,1.093c-0.006.071-.013,0.142-0.019,0.213l-9.54-.178c0,0.077-.006.155-0.008,0.232,1.153,0.053,2.309.082,3.46,0.165a39.186,39.186,0,0,1,5.826.533c2.193,0.5,4.44.439,6.616,0.946a7.481,7.481,0,0,0,1.417.062c0.017-.079.034-0.158,0.05-0.237a6.148,6.148,0,0,0-.972-0.259c-1.634-.17-3.272-0.308-4.908-0.469-0.363-.036-0.721-0.121-1.082-0.183,0.012-.071.024-0.142,0.035-0.213,0.862,0.074,1.722.184,2.585,0.213,1.11,0.038,2.223.009,3.334,0.014a0.842,0.842,0,0,1,.315.058c0.451,0.184.886,0.411,1.347,0.561,0.8,0.257,1.607.468,2.426,0.809l-2.123.448,0.522,0.678-1.011-.18c0.948,1,2.181.923,3.2,1.392l-13.369-1.64c-0.013.1-.025,0.2-0.038,0.3l10.4,1.228-0.024.233c-0.383-.038-0.766-0.088-1.15-0.111-2.451-.14-4.907-0.231-7.355-0.422-3.128-.245-6.25-0.568-9.375-0.858a0.923,0.923,0,0,0-.261-0.03c-1.777.379-3.459-.235-5.175-0.488-0.318-.047-0.639-0.067-1.146-0.118,1.3,0.674,15.524,2.056,19.178,1.935-0.065.093-.122,0.172-0.219,0.309,2.2,0.454,4.583.077,6.439,1.8l-6.615-.9a10.5,10.5,0,0,0,1.319.67c0.445,0.156.939,0.166,1.4,0.288,1.481,0.393,2.956.808,4.431,1.218a0.72,0.72,0,0,1,.133.213l-1.48-.154-0.039.2,2.561,0.706c-0.931.425-1.689-.125-2.458-0.108a14.063,14.063,0,0,1-2.494-.413c-0.789-.13-1.583-0.232-2.375-0.347-0.014-.065-0.027-0.131-0.041-0.2l0.217-.176a1.569,1.569,0,0,1-1.905-.443,1.033,1.033,0,0,0-.6-0.231,42.644,42.644,0,0,0-4.3-.673l0.568,0.2-0.024.136c-0.972-.119-1.949-0.21-2.916-0.364s-1.9-.366-2.847-0.553l-0.1.291c0.146,0.022.294,0.035,0.439,0.066a24.908,24.908,0,0,0,2.926.6,3.816,3.816,0,0,1,1.893.261,0.623,0.623,0,0,1,.292.362c-2.606-.486-5.216-0.836-7.8-1.445s-5.218-.916-7.831-1.354l-0.039.164,2.573,0.549-0.006.136-2.252.162,0.3-.474-1.522.205c-0.017.058-.035,0.115-0.052,0.173a27.541,27.541,0,0,1,3.511.873c1.116,0.429,2.3.454,3.413,0.822,1.18,0.39,2.376.729,3.568,1.076,1.173,0.342,2.35.666,3.525,1-0.022.076-.043,0.153-0.064,0.229-1.082-.277-2.162-0.565-3.247-0.83-1.487-.363-2.985-0.683-4.465-1.073-0.985-.26-1.94-0.633-2.922-0.913-1.543-.439-3.092-0.865-4.648-1.256-1.909-.479-3.828-0.919-5.744-1.373-2.186-.518-4.365-1.072-6.562-1.538-2.354-.5-4.727-0.913-7.091-1.368-1.633-.313-3.257-0.686-4.9-0.935-1.689-.256-3.4-0.34-5.093-0.6-2.516-.383-5.014-0.876-7.528-1.275-1.555-.247-3.127-0.384-4.685-0.616a11.113,11.113,0,0,1-1.546-.458l0.059-.343,5.326,0.12-0.675-.3c2.52-.109,4.893-0.225,7.267-0.311,1.71-.062,3.421-0.087,5.131-0.123,0.218,0,.437.023,0.656,0.033a2.652,2.652,0,0,0,1.565-.23,4.1,4.1,0,0,1,1.662-.209c2.273-.137,4.547-0.249,6.819-0.39,3.329-.207,6.659-0.417,9.986-0.651,3.108-.218,6.211-0.516,9.322-0.688,1.44-.08,2.892.065,4.338,0.089,2.545,0.043,5.091.057,7.636,0.111,1.14,0.024,2.279.117,3.419,0.173a1.038,1.038,0,0,0,.625-0.127,81.986,81.986,0,0,0-11.386-.423L115,126.267l24.851-1.553,0.039,0.131-1.521.536,1.644,0.132a0.868,0.868,0,0,1-1.109.722c-2.645-.066-5.29-0.15-7.935-0.221a0.848,0.848,0,0,0-.563.187l9.641,0.6c0,0.078,0,.157,0,0.236l-1.865,0c0,0.073,0,.145,0,0.218l1.394,0.024c0,0.035,0,.07,0,0.1l-0.589.208,0.834,0.277L139.8,128c-0.969.063-1.939,0.19-2.907,0.177-1.834-.027-3.666-0.171-5.5-0.184a4.13,4.13,0,0,0-1.75.537l4.53-.19a1.412,1.412,0,0,1-1.4.426c-1.686.038-3.369,0.158-5.054,0.2-2.391.065-4.783,0.084-7.174,0.142-0.514.013-1.025,0.14-1.541,0.165-3.854.183-7.707,0.431-11.563,0.512-6.73.141-13.463,0.183-20.194,0.254-3.575.037-7.151,0.074-10.727,0.061-3.156-.011-6.313-0.09-9.469-0.147a8.788,8.788,0,0,1-.881-0.1l-0.032.193c0.486,0.064.971,0.16,1.459,0.188q3.713,0.216,7.429.4c1.457,0.074,2.914.131,4.371,0.2a1.66,1.66,0,0,1,.358.1c-0.106.065-.213,0.129-0.364,0.218l2.824,0.362a0.212,0.212,0,0,0-.141-0.2c-0.781-.135-1.562-0.265-2.343-0.395,1.879,0.1,3.761.182,5.637,0.326,1.574,0.122,3.139.362,4.713,0.479,3.18,0.236,6.363.432,9.546,0.625,0.739,0.045,1.483-.006,2.224.019q2.428,0.081,4.857.2,2.3,0.108,4.6.249a6.774,6.774,0,0,0,1.266.052c-5.5-.836-11.072-0.649-16.628-1a1.794,1.794,0,0,0,.371-0.091,2.208,2.208,0,0,0,.35-0.276l-18.965-1.044c0-.04,0-0.079,0-0.119a2.035,2.035,0,0,1,.342-0.058q5.525,0.019,11.05.046c1.8,0.011,3.6.072,5.393,0.052,2.032-.024,4.062-0.128,6.094-0.174,4.448-.1,8.9-0.144,13.344-0.29,4.409-.144,8.814-0.392,13.222-0.579,1.968-.084,3.938-0.138,5.908-0.194,0.389-.011.779,0.031,1.169,0.048,0,0.059,0,.118,0,0.177-1.686.073-3.372,0.142-5.058,0.223a6.374,6.374,0,0,0-.767.132l-3.085-.055,0,0.233C126.333,129.793,127.375,130.186,128.393,129.714Zm-28.008-.537c0-.086.011-0.172,0.016-0.257l-29.551.437c0,0.095,0,.189,0,0.283ZM132.6,132.1l0.015-.294-11.348-.6-0.012.237Zm-32.713,1.332c0.008-.084.017-0.168,0.025-0.251-3.525-.351-7.034-0.875-10.578-1.04-0.005.056-.011,0.113-0.016,0.17Zm9.368-2.123-0.009-.279-6.164-.083c0,0.088,0,.177,0,0.266Zm10.367,1.992c-0.006.082-.011,0.165-0.016,0.248l5.69,0.343c0-.071.009-0.143,0.014-0.214Zm15.519-5.891-0.009-.243-4.69.15,0.009,0.241Zm-7.455,10.977c-0.025.079-.049,0.159-0.073,0.239l4.749,1.256c0.02-.078.039-0.157,0.059-0.236Zm-10.708-1.956a7.231,7.231,0,0,0,4.218.409Zm4.572-1.232c-0.015.088-.031,0.177-0.046,0.265l2.069,0.17c0-.051.009-0.1,0.013-0.154Zm-4.343-2.857c0-.067,0-0.133.005-0.2l-2.427-.179c0,0.073-.009.146-0.014,0.22Zm7.84,5.273,0.021-.245-1.753-.172-0.024.258Zm8.733,3.045,0.066-.231-1.788-.329c-0.014.071-.027,0.141-0.041,0.212Zm-0.571-5.066,0.033-.179-2.13-.271-0.021.19ZM98.6,131.513l-0.013.155,2.234,0.127c0-.053.007-0.1,0.01-0.158Zm13.913-2.448c0,0.06,0,.12,0,0.18l1.82,0.03,0-.2Zm23.271-1.968-0.006.18,1.674,0.059c0-.061,0-0.123,0-0.184ZM38.85,130.149l0.691-.469a2.425,2.425,0,0,1-1.846-.366l0.846-.458-1.694-.434,0.906-.4c-0.233-.2-0.453-0.423-0.7-0.6-0.287-.208-0.6-0.381-1.051-0.662l1.094-.487a1,1,0,0,1-.2-1.447c-0.74-.371-0.741-0.459-0.166-0.967a0.917,0.917,0,0,0,.026-1.264c-0.576-.915-0.607-0.9.153-1.58l-0.782-.3c0.3-.612.3-0.555,0.934-0.557a2.529,2.529,0,0,0,1.439-.194,3.712,3.712,0,0,1,1.693.062l-0.307-.264q0-.091,0-0.183a4.821,4.821,0,0,1,1.08-.007c1.535,0.336,3.053.749,4.592,1.069,1.281,0.265,2.578.455,3.873,0.649,1.254,0.188,2.512.361,3.773,0.493a11.086,11.086,0,0,0,1.5-.035c-0.348.493-.682,0.976-1.025,1.451a0.8,0.8,0,0,1-1.111.469,1.137,1.137,0,0,0-.819.376A2.454,2.454,0,0,1,52.678,124a2.8,2.8,0,0,1,.726.739c-0.867.161-1.605,0.32-2.351,0.432-1.6.242-3.207,0.436-4.8,0.693-1.913.306-3.818,0.659-5.727,0.988-0.416.071-.836,0.125-1.254,0.187l0.037,0.344c0.516-.045,1.036-0.063,1.547-0.139,0.929-.139,1.855-0.306,2.78-0.472,1.417-.256,2.829-0.544,4.251-0.769a13.909,13.909,0,0,0,1.858-.129c0.9-.276,1.816-0.05,2.7-0.288a0.654,0.654,0,0,0,.191-0.015c0.595-.514.559-0.237,0.619,0.357,0.057,0.558-.171.579-0.549,0.635-2.192.323-4.385,0.642-6.575,0.983-1.541.239-3.077,0.509-4.615,0.769a0.855,0.855,0,0,0-.48.234c4.046-.295,8-1.3,12.046-1.607l0.038,0.2c-0.349.081-.695,0.179-1.047,0.238q-3.987.675-7.976,1.334c-0.5.083-1,.129-1.491,0.235a0.847,0.847,0,0,0-.5.429c3.789-.107,7.456-1.038,11.229-1.195q-0.514.093-1.028,0.184c-1.351.238-2.7,0.481-4.052,0.71-1.676.283-3.366,0.5-5.026,0.854-0.919.2-1.782,0.646-2.685,0.936a1.1,1.1,0,0,1-.727-0.088A7.606,7.606,0,0,1,38.85,130.149Zm4.317-5.5-0.044-.251-5.294.844,0.038,0.242Zm5.191-.737q0,0.083.005,0.165l2.672,0.05C50.1,123.464,49.225,123.82,48.358,123.913Zm77.978,17.005a3.209,3.209,0,0,1-.7.074c-0.969-.106-1.942-0.2-2.9-0.377-0.835-.152-1.651-0.4-2.475-0.61l-0.01.021a6.863,6.863,0,0,1,1.578-.126c1.251,0.186,2.488.468,3.726,0.731a4.834,4.834,0,0,1,.77.305ZM46.022,130.061c-1.329.323-2.606,0.887-4.007,0.586C43.372,130.546,44.628,129.8,46.022,130.061Zm67.437,8.629c0.65,0.1,1.3.2,1.951,0.288,0.361,0.052.73,0.065,1.083,0.147a4.363,4.363,0,0,1,.725.309c-0.033.1-.067,0.2-0.1,0.3l-3.7-.849C113.433,138.817,113.446,138.753,113.459,138.69Zm27.305-9.994-5.354.113-0.006-.2,5.349-.152C140.757,128.536,140.76,128.616,140.764,128.7Zm-87.184.787a0.807,0.807,0,0,1-.992.132,2.037,2.037,0,0,0-.655-0.132,9.062,9.062,0,0,1-1.535-.045C51.459,129.165,52.523,128.8,53.58,129.483Zm80.353,0.187,2.9-.232c0,0.084.011,0.168,0.017,0.252l-2.89.278C133.948,129.869,133.941,129.77,133.933,129.67Zm-13.669,10.335c-0.23-.032-0.459-0.066-0.689-0.095a1.333,1.333,0,0,0-.69-0.063c-0.545.359-.783,0.149-0.962-0.56,0.8,0.39,1.691.038,2.332,0.739A0.189,0.189,0,0,1,120.264,140.005Zm-73.381-9.687c0.343-.456.432-0.877,0.983-0.447a2.123,2.123,0,0,0,1.012-.074,1.275,1.275,0,0,1,.768.171Zm88.094,7.2,3.071,0.084c0,0.082,0,.164-0.007.246l-3.082-.092Zm3.634-12.955-2.7.122c0-.059-0.007-0.117-0.01-0.176l2.717-.2C138.614,124.391,138.613,124.476,138.611,124.561Zm-27.438,13.4,2.067,0.6A1.814,1.814,0,0,1,111.173,137.964Zm5.187,0.937-2.1-.366,0.03-.22,2.1,0.381Zm9.968,2.035,1.276,0.151c-0.012.064-.025,0.129-0.037,0.194a0.844,0.844,0,0,1-1.231-.363Z" transform="translate(-10.281 -14.281)"/>
</svg>
