<svg id="Ajsu_Party" data-name="Ajsu Party" xmlns="http://www.w3.org/2000/svg" width="162.438" height="162.438" viewBox="0 0 162.438 162.438">
  <defs>
    <style>
      .cls-1 {
        fill: #fff;
        stroke: #acacac;
        stroke-width: 2px;
      }

      .cls-2 {
        fill: #ffd800;
      }

      .cls-2, .cls-3 {
        fill-rule: evenodd;
      }
    </style>
  </defs>
  <circle id="Ellipse_1_copy" data-name="Ellipse 1 copy" class="cls-1" cx="81.219" cy="81.219" r="80.219"/>
  <path class="cls-2" d="M128.979,64.033a13.06,13.06,0,0,1-.473,1.4,56.87,56.87,0,0,1-3.054,6.051c-2.279,3.519-2.891,7.657-4.593,11.376-0.884,1.933-1.839,3.839-2.864,5.7a47.356,47.356,0,0,1-3.131,5.128c-1.592,2.179-3.4,4.2-5.069,6.325-2.314,2.953-4.558,5.96-6.878,8.908a37.282,37.282,0,0,1-3.148,3.593c-3,2.943-5.933,5.981-9.155,8.669-2.976,2.484-6.268,4.6-9.476,6.8-0.869.595-1.99,0.815-2.9,1.358-1.613.96-3.129,2.08-4.739,3.045a21.935,21.935,0,0,1-2.7,1.223c-2.343,1-4.789,1.814-7.013,3.029a13.07,13.07,0,0,1-8.249,1.191A2.318,2.318,0,0,1,54.7,137.2a3.051,3.051,0,0,1,.792-0.614c1.837-.6,3.694-1.145,5.534-1.742a1.306,1.306,0,0,0,.7-0.7c-1.308.351-2.62,0.687-3.922,1.057a24.16,24.16,0,0,1-7.188,1.022,13.045,13.045,0,0,0-2.529.392,8.179,8.179,0,0,1-4.527-.225,13.652,13.652,0,0,1-1.715-.571,6.391,6.391,0,0,1-1.167-1.095,6.083,6.083,0,0,1,1.428-1.1,28.832,28.832,0,0,1,3.668-1.063c3.709-.843,6.827-2.973,10.167-4.607a78.182,78.182,0,0,0,12.081-7.685c1.562-1.158,3.017-2.46,4.6-3.593,1.132-.812,2.482-1.335,3.571-2.192,2.375-1.87,4.533-4.03,6.993-5.773a37.307,37.307,0,0,0,6.157-5.823c1.5-1.68,3.11-3.265,4.576-4.974,2.3-2.685,4.508-5.45,6.782-8.159q2.921-3.479,5.9-6.906c2.784-3.188,5.7-6.268,8.38-9.54,3.336-4.073,7.688-6.627,12.372-8.759A16.464,16.464,0,0,1,128.979,64.033Zm-0.063-2.184a7.921,7.921,0,0,1-1.777,1.339,37.7,37.7,0,0,0-8.855,5.228c-2.539,1.862-4.312,4.413-6.446,6.635-2.626,2.735-5.162,5.563-7.634,8.439-2.4,2.8-4.611,5.761-7.022,8.55q-4.363,5.045-8.937,9.907c-2.712,2.876-5.545,5.64-8.368,8.41a12.576,12.576,0,0,1-2.29,1.7,68.227,68.227,0,0,0-10.362,7.162,56.268,56.268,0,0,1-5.615,3.972c-5.023,3.487-10.708,5.686-16.221,8.213a24.418,24.418,0,0,1-3.838,1.133c-1.183.32-2.319,0.625-2.944,1.875-0.392.786-3.411,1.523-4.178,1.1a1.4,1.4,0,0,1-.479-0.56,4.788,4.788,0,0,1-.3-0.8,5.268,5.268,0,0,1-.628-2.165c0.1-.572.912-1.017,1.4-1.528,2.044-2.149,4.059-4.326,6.133-6.446,2.039-2.084,4.663-3.3,7.2-4.635,4.351-2.294,8.8-4.417,13.025-6.925a99.923,99.923,0,0,0,12.156-8.15c4.59-3.739,8.737-8.018,13.071-12.068,3.12-2.916,5.792-6.292,9.29-8.828a16.373,16.373,0,0,0,3.093-2.948c2.58-3.2,5.832-5.7,8.718-8.581a33.686,33.686,0,0,1,12.816-7.969c2.217-.776,4.537-1.259,6.814-1.866,0.669-.179,1.348-0.327,2.022-0.489Zm3.786,2.23a2.6,2.6,0,0,1-.054.463c-1.3,2.586-.665,5.461-1.22,8.16-0.382,1.86-.5,3.79-1.044,5.6a31.062,31.062,0,0,1-2.368,5.694c-1.528,2.844-3.178,5.634-4.947,8.336-1.862,2.844-3.938,5.548-5.895,8.331-2.059,2.927-5.108,4.883-7.415,7.549a41.591,41.591,0,0,1-4.7,4.861c-1.689,1.411-3.056,3.2-4.679,4.695-1.208,1.114-2.6,2.035-3.907,3.037-0.48.367-.978,0.709-1.452,1.084-1.79,1.414-3.5,2.945-5.375,4.232q-4.47,3.068-9.137,5.845a20.365,20.365,0,0,1-4.005,1.527,2.053,2.053,0,0,1-.935-0.238,1.919,1.919,0,0,1,.391-0.8q2.157-1.388,4.377-2.677c0.733-.427,1.55-0.711,2.275-1.149,1.469-.89,2.9-1.838,4.347-2.767,0.643-.414,1.3-0.812,1.909-1.271,1.755-1.324,3.489-2.675,5.23-4.017a2.817,2.817,0,0,0,.293-0.245c3.613-3.633,7.021-7.454,10.3-11.379,1.709-2.043,3.1-4.349,4.747-6.447,2.236-2.845,4.635-5.562,6.856-8.418a40.162,40.162,0,0,0,2.475-4.047c0.049-.082.078-0.177,0.133-0.254,2.106-2.941,3.045-6.421,4.51-9.658,0.3-.665.649-1.311,0.936-1.982a3.071,3.071,0,0,0,.335-1.177,2.87,2.87,0,0,1,.8-2.145,8.673,8.673,0,0,0,.852-1.888c1.257-2.425,2.554-4.829,3.808-7.255,0.277-.534.357-1.18,0.682-1.675a1.619,1.619,0,0,1,1.1-.779A1.942,1.942,0,0,1,132.7,64.079Zm11.615-5.19a0.8,0.8,0,0,1,.059-1.275c0.538-.531.263-0.928-0.216-1.1a25.482,25.482,0,0,0-2.615-.673v1.835c-1.658.6-2.022,0.333-2.744-1.124A16.161,16.161,0,0,0,136.728,54a12.587,12.587,0,0,1-.8-1.283,3.71,3.71,0,0,1,1.62-.716c3.074,0.511,6.13,1.134,9.181,1.779a10.336,10.336,0,0,1,2.581.891A1.467,1.467,0,0,1,150,55.865a1.844,1.844,0,0,1-.989,1.1C147.488,57.664,145.916,58.246,144.317,58.889Z" transform="translate(-11.281 -15.281)"/>
  <path class="cls-3" d="M56.485,138.98a51.208,51.208,0,0,1-12.065-1.461,62.462,62.462,0,0,0-7.006-.487,27.522,27.522,0,0,1-3.7-.579c-1.244-.278-1.445-0.836-1.657-2.051-0.423-2.426,1.417-3.479,2.707-4.871,0.565-.609,1.258-1.1,1.851-1.681,2.246-2.221,4.339-4.623,6.753-6.638a47.243,47.243,0,0,1,6.3-4.008c1.579-.939,3.209-1.795,4.846-2.631,1.469-.75,3.051-1.3,4.454-2.153,4-2.43,8.062-4.8,11.869-7.519a88.693,88.693,0,0,0,8.96-7.516c3.743-3.5,7.288-7.218,10.923-10.835a29.408,29.408,0,0,1,2.693-2.579,49.557,49.557,0,0,0,6.08-5.689c2.8-3.019,5.881-5.785,8.9-8.6a28.774,28.774,0,0,1,9.842-6.165c2.04-.741,4.018-1.67,6.083-2.324,1.66-.526,3.438-0.672,5.108-1.173a10.293,10.293,0,0,0,2.342-1.4,7.961,7.961,0,0,0,.709-0.56,8.4,8.4,0,0,0,1.133-.943,0.842,0.842,0,0,0-.193-1.361,2.81,2.81,0,0,1-1.053-3.361c0.554-1.9,1.079-2.3,3.068-2.343a19.631,19.631,0,0,1,2.717,0,9.614,9.614,0,0,1,3.056.7A14.16,14.16,0,0,0,145.4,52a14.608,14.608,0,0,1,5.735,1.917,1.6,1.6,0,0,1,.8.824,21.332,21.332,0,0,1-.038,3.817,2.523,2.523,0,0,1-1.01,1.268c-0.884.732-1.854,1.358-2.747,2.078a4.668,4.668,0,0,1-5.629.169,13.814,13.814,0,0,0-1.467-1.01c-2.955-1.635-5.332-1.077-6.663,2.607a9.683,9.683,0,0,0-.535,3.232c0,4.99-1.322,9.733-2.576,14.488a25.462,25.462,0,0,1-1.581,4.905,27.151,27.151,0,0,1-3.07,4.464c-2.5,3.189-5.023,6.369-7.643,9.462-2.12,2.5-4.3,4.973-6.627,7.276-5.336,5.272-10.711,10.511-16.221,15.6a58.7,58.7,0,0,1-6.676,4.81A48.744,48.744,0,0,1,85.1,130.67a42.4,42.4,0,0,1-5.066,2.364c-3.061,1.172-6.158,2.255-9.269,3.286a55.752,55.752,0,0,1-7.2,2.09A63.544,63.544,0,0,1,56.485,138.98Zm72.653-74.893a16.007,16.007,0,0,0-1.585.513c-4.574,2.1-8.824,4.611-12.082,8.62-2.617,3.22-5.465,6.25-8.184,9.388q-2.918,3.367-5.765,6.8c-2.22,2.666-4.375,5.387-6.623,8.029-1.431,1.682-3,3.242-4.469,4.895a36.507,36.507,0,0,1-6.012,5.731c-2.4,1.716-4.51,3.841-6.829,5.681-1.064.844-2.382,1.358-3.488,2.158-1.542,1.115-2.963,2.4-4.489,3.536A76.282,76.282,0,0,1,57.814,127c-3.261,1.608-6.306,3.7-9.928,4.534a28.058,28.058,0,0,0-3.583,1.046,5.949,5.949,0,0,0-1.4,1.081,6.193,6.193,0,0,0,1.139,1.077,13.241,13.241,0,0,0,1.675.563,7.924,7.924,0,0,0,4.421.221,12.749,12.749,0,0,1,2.47-.386,23.413,23.413,0,0,0,7.02-1.006c1.272-.363,2.553-0.694,3.83-1.04a1.278,1.278,0,0,1-.686.689c-1.8.587-3.61,1.121-5.4,1.714a2.965,2.965,0,0,0-.773.6,2.279,2.279,0,0,0,.813.617,12.673,12.673,0,0,0,8.056-1.172c2.172-1.2,4.56-2,6.849-2.981a21.228,21.228,0,0,0,2.637-1.2c1.572-.95,3.053-2.052,4.628-3,0.893-.535,1.987-0.751,2.836-1.336,3.133-2.163,6.348-4.244,9.254-6.688,3.147-2.646,6.01-5.635,8.941-8.531a36.727,36.727,0,0,0,3.074-3.537c2.266-2.9,4.458-5.859,6.717-8.765,1.627-2.093,3.4-4.08,4.95-6.225a46.534,46.534,0,0,0,3.058-5.046c1-1.833,1.933-3.709,2.8-5.611,1.662-3.659,2.26-7.732,4.486-11.195a56.254,56.254,0,0,0,2.982-5.955A12.67,12.67,0,0,0,129.138,64.087Zm-0.062-2.149c-0.052-.1-0.1-0.192-0.158-0.289-0.658.16-1.32,0.306-1.975,0.481-2.223.6-4.489,1.073-6.654,1.837a32.865,32.865,0,0,0-12.516,7.843c-2.819,2.833-5.994,5.3-8.514,8.445a16.046,16.046,0,0,1-3.021,2.9c-3.416,2.5-6.026,5.818-9.073,8.687-4.233,3.985-8.282,8.2-12.765,11.876a97.4,97.4,0,0,1-11.872,8.02c-4.123,2.469-8.472,4.558-12.721,6.815-2.476,1.315-5.038,2.511-7.029,4.562-2.025,2.086-3.993,4.228-5.989,6.343-0.475.5-1.27,0.941-1.366,1.5a5.213,5.213,0,0,0,.614,2.13,4.657,4.657,0,0,0,.3.79,1.376,1.376,0,0,0,.468.552c0.749,0.411,3.7-.314,4.081-1.087,0.61-1.231,1.72-1.531,2.875-1.846a23.792,23.792,0,0,0,3.748-1.115c5.383-2.487,10.936-4.65,15.841-8.082a55.048,55.048,0,0,0,5.484-3.909,66.6,66.6,0,0,1,10.12-7.048,12.3,12.3,0,0,0,2.236-1.673c2.757-2.726,5.523-5.446,8.172-8.277q4.469-4.776,8.728-9.749c2.355-2.745,4.511-5.662,6.858-8.414,2.414-2.83,4.89-5.613,7.456-8.3,2.083-2.186,3.815-4.7,6.3-6.53a36.75,36.75,0,0,1,8.647-5.145A7.694,7.694,0,0,0,129.076,61.938Zm3.7,2.2a1.9,1.9,0,0,0-.755-0.841,1.579,1.579,0,0,0-1.075.766c-0.317.487-.4,1.122-0.666,1.648-1.225,2.387-2.492,4.754-3.719,7.14a8.573,8.573,0,0,1-.832,1.858,2.841,2.841,0,0,0-.785,2.111,3.022,3.022,0,0,1-.326,1.159c-0.281.661-.62,1.3-0.914,1.951-1.431,3.186-2.349,6.61-4.405,9.5-0.053.076-.082,0.169-0.13,0.249a39.671,39.671,0,0,1-2.417,3.982c-2.169,2.811-4.512,5.485-6.7,8.284-1.61,2.064-2.966,4.333-4.635,6.344-3.2,3.863-6.534,7.623-10.063,11.2a2.986,2.986,0,0,1-.286.242c-1.7,1.32-3.394,2.649-5.108,3.952-0.595.452-1.236,0.844-1.864,1.251-1.41.915-2.811,1.847-4.246,2.723-0.707.431-1.506,0.711-2.222,1.13q-2.166,1.271-4.274,2.635a1.9,1.9,0,0,0-.382.784,1.983,1.983,0,0,0,.913.234,19.845,19.845,0,0,0,3.912-1.5q4.552-2.726,8.923-5.751c1.833-1.267,3.5-2.774,5.249-4.166,0.462-.368.95-0.705,1.418-1.066,1.28-.987,2.636-1.893,3.815-2.989,1.585-1.475,2.921-3.232,4.57-4.621a40.6,40.6,0,0,0,4.593-4.783c2.253-2.623,5.231-4.549,7.241-7.429,1.911-2.738,3.939-5.4,5.758-8.2,1.727-2.659,3.339-5.4,4.831-8.2a30.708,30.708,0,0,0,2.312-5.6c0.532-1.777.647-3.677,1.02-5.507,0.541-2.657-.081-5.485,1.191-8.03A2.586,2.586,0,0,0,132.774,64.133Zm11.343-5.107c1.562-.633,3.1-1.206,4.581-1.889a1.811,1.811,0,0,0,.965-1.087A1.448,1.448,0,0,0,149,54.876,10.053,10.053,0,0,0,146.473,54c-2.979-.634-5.963-1.248-8.966-1.75a3.615,3.615,0,0,0-1.582.7,12.576,12.576,0,0,0,.781,1.263,15.939,15.939,0,0,1,2.024,2.506c0.705,1.434,1.061,1.7,2.68,1.107V56.023a24.7,24.7,0,0,1,2.554.662c0.467,0.173.736,0.564,0.211,1.087A0.8,0.8,0,0,0,144.117,59.026Z" transform="translate(-11.281 -15.281)"/>
</svg>
