<svg xmlns="http://www.w3.org/2000/svg" width="9" height="6.969" viewBox="0 0 9 6.969">
  <defs>
    <style>
      .cls-1 {
        fill: #1e2630;
        fill-rule: evenodd;
      }
    </style>
  </defs>
  <path id="Shape_3_copy_3" data-name="Shape 3 copy 3" class="cls-1" d="M508.505,855.551l2.19-1.982c0.515-.467,1.029-0.936,1.546-1.4a0.427,0.427,0,0,1,.5-0.129,0.457,0.457,0,0,1,.26.471c0,0.762.01,1.525-.01,2.286a0.678,0.678,0,0,1-.2.435c-1.313,1.206-2.638,2.4-3.962,3.6a0.41,0.41,0,0,1-.651.008c-1.329-1.2-2.661-2.4-3.98-3.612a0.714,0.714,0,0,1-.188-0.462c-0.019-.737-0.006-1.476-0.01-2.214a0.476,0.476,0,0,1,.272-0.512,0.455,0.455,0,0,1,.513.158l3.519,3.19C508.362,855.434,508.424,855.483,508.505,855.551Z" transform="translate(-504 -852)"/>
</svg>
