<svg id="linked_in_" data-name="linked in " xmlns="http://www.w3.org/2000/svg" width="23" height="23" viewBox="0 0 23 23">
  <defs>
    <style>
      .cls-1 {
        fill: #0b66c1;
      }

      .cls-2 {
        fill: #fff;
        fill-rule: evenodd;
      }
    </style>
  </defs>
  <rect id="Rounded_Rectangle_537_copy_2" data-name="Rounded Rectangle 537 copy 2" class="cls-1" width="23" height="23" rx="4" ry="4"/>
  <path class="cls-2" d="M980.606,494.965c0-.085-0.012-0.176-0.012-0.267,0-2.7,0-5.395-.007-8.093,0-.242.077-0.3,0.3-0.292,0.684,0.013,1.37.01,2.054,0a0.2,0.2,0,0,1,.248.247c-0.013.284,0,.569,0,0.867a8,8,0,0,1,.7-0.709,3.252,3.252,0,0,1,2.724-.54,2.641,2.641,0,0,1,2.282,2.6,15.926,15.926,0,0,1,.094,1.619c0.013,1.437,0,2.875.009,4.313a0.221,0.221,0,0,1-.271.274c-0.727-.012-1.455,0-2.182-0.006-0.074,0-.148-0.009-0.249-0.016v-0.288c0-1.4.013-2.807-.01-4.211a4.854,4.854,0,0,0-.195-1.243,1.007,1.007,0,0,0-.917-0.728,1.5,1.5,0,0,0-1.852,1.636c-0.038,1.048-.02,2.1-0.025,3.145,0,0.5,0,1,0,1.5,0,0.134-.016.229-0.187,0.227-0.8-.006-1.607,0-2.41-0.006A0.53,0.53,0,0,1,980.606,494.965Zm-4.4-4.309c0-1.36,0-2.721,0-4.082,0-.2.051-0.264,0.255-0.261,0.735,0.011,1.471.01,2.206,0a0.2,0.2,0,0,1,.247.247q-0.009,4.1,0,8.19a0.2,0.2,0,0,1-.246.248c-0.735-.009-1.47-0.01-2.206,0-0.2,0-.256-0.063-0.255-0.261C976.212,493.378,976.208,492.017,976.208,490.656ZM977.567,482a1.57,1.57,0,0,1,1.558,1.573,1.563,1.563,0,1,1-3.125-.015A1.557,1.557,0,0,1,977.567,482Z" transform="translate(-971 -477)"/>
</svg>
