<svg id="print" xmlns="http://www.w3.org/2000/svg" width="33" height="25" viewBox="0 0 33 25">
  <defs>
    <style>
      .cls-1 {
        fill: #1a1a1a;
        fill-rule: evenodd;
      }

      .cls-2 {
        fill: none;
        stroke: #000;
        stroke-width: 1px;
      }
    </style>
  </defs>
  <path class="cls-1" d="M423.193,483.4v-0.273q0-1.337,0-2.672c0-.368.1-0.457,0.515-0.457h8.578c0.416,0,.513.085,0.513,0.457q0,1.337,0,2.672V483.4c0.121,0,.216.012,0.311,0.013,0.632,0,1.265,0,1.9,0a0.873,0.873,0,0,1,.989.867q0.007,3.174,0,6.35a0.862,0.862,0,0,1-.982.866c-0.632,0-1.265,0-1.9,0H432.8v0.282q0,1.394,0,2.788c0,0.335-.11.429-0.492,0.429H423.73c-0.437,0-.536-0.083-0.537-0.462,0-.93,0-1.859,0-2.789,0-.193-0.06-0.256-0.285-0.252-0.641.012-1.282,0.008-1.924,0a0.852,0.852,0,0,1-.985-0.86q-0.009-3.174,0-6.35a0.87,0.87,0,0,1,1-.873c0.624,0,1.247,0,1.871,0C422.974,483.414,423.069,483.407,423.193,483.4Zm9.62,7.48c0.08,0.007.15,0.017,0.219,0.017q0.948,0,1.9,0c0.316,0,.371-0.049.372-0.331q0-3.1,0-6.209c0-.294-0.048-0.332-0.393-0.333-0.41,0-.82,0-1.229,0H421.148c-0.43,0-.448.016-0.448,0.4V486.6q0,1.968,0,3.936c0,0.33.035,0.359,0.415,0.36q0.9,0,1.79,0c0.088,0,.175-0.007.265-0.011v-2.222c-0.333,0-.644,0-0.954,0a0.361,0.361,0,0,1-.428-0.3,0.344,0.344,0,0,1,.414-0.307c0.054,0,.107,0,0.161,0h11.274a0.68,0.68,0,0,1,.289.017,0.463,0.463,0,0,1,.257.249,0.485,0.485,0,0,1-.208.307,0.548,0.548,0,0,1-.282.035c-0.29,0-.58,0-0.88,0v2.215Zm-8.9-2.2V494.4h0.307c2.521,0,5.041,0,7.561,0,0.254,0,.333-0.055.331-0.284-0.01-1.727,0-3.453-.006-5.179,0-.083-0.009-0.166-0.015-0.259h-8.178Zm0.01-8.078a0.861,0.861,0,0,0-.028.129c0,0.835,0,1.67,0,2.506,0,0.175.108,0.179,0.255,0.179q3.846,0,7.691,0c0.21,0,.277-0.052.275-0.239-0.011-.765-0.014-1.53,0-2.3,0-.225-0.067-0.289-0.327-0.289-2.528.009-5.056,0.006-7.584,0.006h-0.278Zm10.439,3.847a0.327,0.327,0,0,1,.314.349,0.338,0.338,0,1,1-.675-0.006A0.344,0.344,0,0,1,434.362,484.449Zm-1.847.348a0.334,0.334,0,0,1,.346-0.347,0.33,0.33,0,0,1,.329.356,0.345,0.345,0,0,1-.349.338A0.331,0.331,0,0,1,432.515,484.8ZM428,493.182h-2.8a0.5,0.5,0,0,1-.285-0.028,0.613,0.613,0,0,1-.235-0.366,0.578,0.578,0,0,1,.282-0.293,0.468,0.468,0,0,1,.236-0.013h5.6a0.468,0.468,0,0,1,.236.013,0.705,0.705,0,0,1,.291.295,0.292,0.292,0,0,1-.234.368,1.039,1.039,0,0,1-.291.024H428Zm-0.965-1.776h-1.919a0.376,0.376,0,0,1-.459-0.338,0.371,0.371,0,0,1,.459-0.365q1.946,0,3.893,0a0.367,0.367,0,0,1,.446.352,0.372,0.372,0,0,1-.447.351C428.351,491.408,427.693,491.406,427.035,491.406Z" transform="translate(-411.5 -475.5)"/>
  <rect id="Rounded_Rectangle_545_copy" data-name="Rounded Rectangle 545 copy" class="cls-2" x="0.5" y="0.5" width="32" height="24" rx="4" ry="4"/>
</svg>
