<svg xmlns="http://www.w3.org/2000/svg" width="9" height="6" viewBox="0 0 9 6">
  <defs>
    <style>
      .cls-1 {
        fill: #7b0505;
        fill-rule: evenodd;
      }
    </style>
  </defs>
  <path id="Breadcrumb_ICON" data-name="Breadcrumb ICON" class="cls-1" d="M367.594,240l-1.081-1.092q-0.681-.688-1.364-1.375a0.3,0.3,0,0,1-.118-0.369A0.363,0.363,0,0,1,365.4,237c0.533,0,1.066,0,1.6,0a0.49,0.49,0,0,1,.384.152q1.283,1.3,2.572,2.6c0.2,0.2.2,0.3,0,.5q-1.291,1.306-2.583,2.611a0.459,0.459,0,0,1-.354.142c-0.545,0-1.089,0-1.634,0a0.349,0.349,0,0,1-.36-0.175,0.286,0.286,0,0,1,.109-0.343l2.269-2.288C367.462,240.134,367.52,240.074,367.594,240Zm3.9,0-0.8-.815q-0.823-.829-1.646-1.659a0.291,0.291,0,0,1-.112-0.357,0.355,0.355,0,0,1,.366-0.167c0.538,0,1.077,0,1.616,0a0.473,0.473,0,0,1,.368.149q1.288,1.308,2.583,2.611a0.277,0.277,0,0,1,0,.482q-1.291,1.306-2.584,2.611a0.477,0.477,0,0,1-.369.147c-0.538,0-1.077,0-1.616,0a0.355,0.355,0,0,1-.364-0.17,0.3,0.3,0,0,1,.116-0.357q1.142-1.149,2.28-2.3C371.376,240.118,371.429,240.062,371.49,240Z" transform="translate(-365 -237)"/>
</svg>
