<svg id="Group_214" data-name="Group 214" xmlns="http://www.w3.org/2000/svg" xmlns:xlink="http://www.w3.org/1999/xlink" width="59.804" height="59.803" viewBox="0 0 59.804 59.803">
  <defs>
    <clipPath id="clip-path">
      <rect id="Rectangle_94" data-name="Rectangle 94" width="59.804" height="59.803" fill="none"/>
    </clipPath>
  </defs>
  <g id="Group_213" data-name="Group 213" transform="translate(0 0)" clip-path="url(#clip-path)">
    <path id="Path_187" data-name="Path 187" d="M59.8,29.9A29.9,29.9,0,1,1,29.9,0,29.9,29.9,0,0,1,59.8,29.9" transform="translate(0 0)" fill="#35208a"/>
    <path id="Path_188" data-name="Path 188" d="M54.434,48.132a15.938,15.938,0,0,0-4.5-5.887A13.141,13.141,0,0,0,43.092,39.5a22.893,22.893,0,0,0-8.177.321,13.317,13.317,0,0,0-6.331,3.817,12.947,12.947,0,0,0-3.55,6.236c-.409,2.5,1.783,3.859,3.792,4.735,1.256.548,2.566.957,3.81,1.534,1.214.564,2.38,1.236,3.637,1.7a10.187,10.187,0,0,0,3.744.527,10.2,10.2,0,0,0,3.869-.576c1.493-.577,2.869-1.414,4.348-2.022,1.308-.538,2.67-.959,3.925-1.621a5.5,5.5,0,0,0,2.7-2.465,4.719,4.719,0,0,0-.425-3.562" transform="translate(-10.127 -15.925)" fill="#e0435b"/>
    <path id="Path_189" data-name="Path 189" d="M41.476,43.093a.954.954,0,1,1,.954-.954.965.965,0,0,1-.954.954" transform="translate(-16.425 -16.694)" fill="#35208a"/>
    <path id="Path_190" data-name="Path 190" d="M57.838,43.093a.954.954,0,1,1,.954-.954.965.965,0,0,1-.954.954" transform="translate(-23.057 -16.694)" fill="#35208a"/>
    <path id="Path_191" data-name="Path 191" d="M30.076,34.687c.737.888,1.681,2.407,2.952,2.393a.79.79,0,0,0,.395-1.458,14.6,14.6,0,0,1-2.066-2.216c-.59-.7-1.711-1.874-1.531-2.863a8.8,8.8,0,0,1,1.4-2.681,3.562,3.562,0,0,0,1.148-.14,6.447,6.447,0,0,0,2.615-1.606c.775-.73,1.774-1.616,1.7-2.774,0-.074-.105-.135-.162-.067-.123.149-.643.161-.824.2a5.243,5.243,0,0,1-1.152.181c-.2-.011-.639.039-.6-.347.015-.162.383-.391.485-.463a3.31,3.31,0,0,1,1.079-.509,7.95,7.95,0,0,1,2.034-.005.1.1,0,0,0,.1-.1c.024-2.508-3.5-1.851-4.921-1.226a5.279,5.279,0,0,0-3.267,5.039,2.1,2.1,0,0,0,.235.956c-.093.147-.187.293-.277.442-.669,1.107-1.576,2.392-1.383,3.754a7.811,7.811,0,0,0,2.042,3.49" transform="translate(-11.352 -8.282)" fill="#e0435b"/>
    <path id="Path_192" data-name="Path 192" d="M25.338,42.838c1.156.037,1.095-1.631,0-1.758-2.494-.29-5.3-1.28-6.847-3.4-.843-1.16-.58-2.816-.577-4.168,0-.507.225-2.95-.889-2.468-.632.273-.563,1.111-.588,1.7-.037.873-.081,1.745-.126,2.617A5.127,5.127,0,0,0,17.619,39.3a11.259,11.259,0,0,0,7.719,3.539" transform="translate(-6.607 -12.556)" fill="#e0435b"/>
    <path id="Path_193" data-name="Path 193" d="M15.129,51.41a25.731,25.731,0,0,0,2.817-.29,4.745,4.745,0,0,0,2.507-.838c.516-.434.038-1.119-.49-1.184a8.045,8.045,0,0,0-2.2.3c-.778.123-1.566.2-2.351.259a1.668,1.668,0,0,1-1.431-.606A9.9,9.9,0,0,1,12.607,47.6c-.556-.728-1.447-1.916-1.366-2.872.064-.748.62-1.666.372-2.411a.733.733,0,0,0-1.211-.319,2.853,2.853,0,0,0-.553,1.384,7.467,7.467,0,0,0-.31,1.4c-.089,1.443,1.1,3.078,1.957,4.147s2.142,2.54,3.632,2.489" transform="translate(-3.865 -16.938)" fill="#e0435b"/>
    <path id="Path_194" data-name="Path 194" d="M23.383,64.583a16.908,16.908,0,0,0,3.764-.063.729.729,0,0,0,0-1.395,19.192,19.192,0,0,0-4.23-.331c-1.5-.051-3-.111-4.5-.151-2.451-.066-4.789.546-6.062,2.821a.805.805,0,0,0,1.39.812c1.392-2.122,3.652-1.914,5.909-1.83l3.727.137" transform="translate(-4.963 -25.389)" fill="#e0435b"/>
    <path id="Path_195" data-name="Path 195" d="M37.054,65.87a35.406,35.406,0,0,0-5.6.9c-.915.177-1.829.359-2.744.532a8.822,8.822,0,0,0-2.57.518,4.547,4.547,0,0,0-2.26,3.406c-.017,1.14,1.015,3.177,2.342,3.126a.586.586,0,0,0,.575-.574c.02-1.072-1.445-1.626-1.152-2.783a3.052,3.052,0,0,1,1-1.355,3.464,3.464,0,0,1,1.93-.541c1.427-.237,2.847-.525,4.269-.791a28.166,28.166,0,0,0,4.4-1c.736-.265.677-1.462-.194-1.435" transform="translate(-9.679 -26.699)" fill="#e0435b"/>
    <path id="Path_196" data-name="Path 196" d="M34.663,25.535c-1.434-.124-3.18,1.045-4.214,1.931-.166.142.073.373.238.238a9.325,9.325,0,0,1,2-1.282c.65-.3,1.392-.4,2.017-.735.077-.041.034-.146-.041-.152" transform="translate(-12.319 -10.346)" fill="#35208a"/>
    <path id="Path_197" data-name="Path 197" d="M30.947,31.822c-.05.2.173.361.31.466a2.052,2.052,0,0,0,.653.321A.167.167,0,0,0,32,32.286a2.162,2.162,0,0,1-.562-.265c-.131-.085-.272-.257-.441-.236a.052.052,0,0,0-.049.037" transform="translate(-12.541 -12.883)" fill="#35208a"/>
    <path id="Path_198" data-name="Path 198" d="M28.28,37.69c.1.23.43.322.655.382a1.55,1.55,0,0,0,.865.043c.123-.044.147-.242,0-.275-.271-.06-.55-.029-.825-.1a1.792,1.792,0,0,0-.651-.159c-.051.008-.058.068-.043.1" transform="translate(-11.46 -15.233)" fill="#35208a"/>
    <path id="Path_199" data-name="Path 199" d="M30.67,42.643a1.835,1.835,0,0,0,.768-.1c.187-.068.439-.143.456-.367a.112.112,0,0,0-.081-.106c-.177-.056-.335.105-.5.164a1.718,1.718,0,0,1-.645.09c-.21-.007-.205.308,0,.324" transform="translate(-12.368 -17.046)" fill="#35208a"/>
    <path id="Path_200" data-name="Path 200" d="M32.351,44.627c.229-.008.432-.208.613-.334a3.176,3.176,0,0,0,.676-.456c.066-.082.034-.246-.1-.234a1.685,1.685,0,0,0-.774.436c-.177.14-.42.325-.437.567a.021.021,0,0,0,.021.021" transform="translate(-13.104 -17.673)" fill="#35208a"/>
    <path id="Path_201" data-name="Path 201" d="M16.8,34.948a1.475,1.475,0,0,0,.612-.024.76.76,0,0,0,.5-.285.141.141,0,0,0-.121-.21,2.031,2.031,0,0,0-.438.164,1.5,1.5,0,0,1-.513.052c-.17-.007-.215.274-.04.3" transform="translate(-6.764 -13.955)" fill="#35208a"/>
    <path id="Path_202" data-name="Path 202" d="M18.266,43.907a2.813,2.813,0,0,0,.973.005c.253-.033.582-.035.728-.268a.1.1,0,0,0-.035-.134c-.22-.1-.419.015-.648.054a8.552,8.552,0,0,1-.978.048c-.161.009-.212.255-.04.294" transform="translate(-7.36 -17.621)" fill="#35208a"/>
    <path id="Path_203" data-name="Path 203" d="M27.962,49.367c.232-.23.434-.488.643-.738a4.887,4.887,0,0,0,.567-.714.145.145,0,0,0-.227-.175,5.387,5.387,0,0,0-.639.743c-.193.234-.392.464-.563.715-.09.133.108.278.219.169" transform="translate(-11.236 -19.336)" fill="#35208a"/>
    <path id="Path_204" data-name="Path 204" d="M25.166,56c.118-.264.149-.562.254-.834.08-.207.343-.507.251-.729a.084.084,0,0,0-.078-.06c-.259.024-.338.355-.425.567a2.191,2.191,0,0,0-.235.993c.012.107.177.19.234.063" transform="translate(-10.103 -22.04)" fill="#35208a"/>
    <path id="Path_205" data-name="Path 205" d="M27.8,62.84a3.719,3.719,0,0,0,1.562.938c.7.253,1.4.514,2.1.746.155.051.223-.164.1-.249a5.766,5.766,0,0,0-1.614-.646,5.805,5.805,0,0,1-1.963-.981.135.135,0,0,0-.191.191" transform="translate(-11.251 -25.38)" fill="#35208a"/>
    <path id="Path_206" data-name="Path 206" d="M37.393,67.228a5.465,5.465,0,0,0,1.107.706,3.311,3.311,0,0,0,1.114.447c.143.015.156-.175.066-.241a7.519,7.519,0,0,0-1.079-.527c-.357-.184-.69-.413-1.048-.591-.127-.062-.277.1-.159.206" transform="translate(-15.139 -27.16)" fill="#35208a"/>
    <path id="Path_207" data-name="Path 207" d="M9.925,47.489a1.76,1.76,0,0,0,1.392-.166c.2-.1.024-.387-.171-.292a2.641,2.641,0,0,1-.613.217c-.194.04-.4.031-.588.086a.086.086,0,0,0-.02.155" transform="translate(-4.006 -19.056)" fill="#35208a"/>
    <path id="Path_208" data-name="Path 208" d="M17.2,56.294a2.254,2.254,0,0,0,.63-1.081.172.172,0,0,0-.331-.091,3.582,3.582,0,0,1-.528,1c-.1.141.111.281.228.176" transform="translate(-6.871 -22.294)" fill="#35208a"/>
    <path id="Path_209" data-name="Path 209" d="M19.157,63.245c.119.19.32.318.452.5a1.84,1.84,0,0,1,.168.283.7.7,0,0,0,.163.284.136.136,0,0,0,.224-.059c.064-.235-.15-.524-.287-.7a1.112,1.112,0,0,0-.6-.468c-.089-.015-.18.074-.125.162" transform="translate(-7.758 -25.569)" fill="#35208a"/>
    <path id="Path_210" data-name="Path 210" d="M21.554,64.2a.567.567,0,0,0-.007.233,1.6,1.6,0,0,0,.036.244c.046.175.345.147.325-.044a1,1,0,0,0-.133-.462.123.123,0,0,0-.222.029" transform="translate(-8.73 -25.986)" fill="#35208a"/>
    <path id="Path_211" data-name="Path 211" d="M25.726,77.409a.71.71,0,0,1,.552-.274.162.162,0,0,0,0-.325.936.936,0,0,0-.808.4c-.111.146.143.344.256.2" transform="translate(-10.312 -31.131)" fill="#35208a"/>
    <path id="Path_212" data-name="Path 212" d="M27.756,69.906a1.54,1.54,0,0,1,.577.558.17.17,0,0,0,.293-.172,1.727,1.727,0,0,0-.709-.663c-.183-.09-.343.173-.162.277" transform="translate(-11.218 -28.215)" fill="#35208a"/>
    <path id="Path_213" data-name="Path 213" d="M28.96,69.66a2.819,2.819,0,0,1,.524.762.168.168,0,0,0,.305-.129,2.021,2.021,0,0,0-.616-.846c-.146-.123-.354.076-.213.213" transform="translate(-11.719 -28.133)" fill="#35208a"/>
    <path id="Path_214" data-name="Path 214" d="M68.491,42.837a11.071,11.071,0,0,0,8.039-3.926c1.034-1.327,1.028-2.716.944-4.326-.027-.517.183-4.128-1.036-3.546-.494.235-.5.747-.526,1.237-.036.715.009,1.44.006,2.156-.007,1.365.062,2.591-.925,3.649a10.346,10.346,0,0,1-6.5,3c-1.093.127-1.158,1.795,0,1.758" transform="translate(-27.419 -12.556)" fill="#e0435b"/>
    <path id="Path_215" data-name="Path 215" d="M77.558,49.657c-.786-.063-1.574-.136-2.351-.26a8.071,8.071,0,0,0-2.2-.3c-.526.064-1,.752-.49,1.184a4.75,4.75,0,0,0,2.507.838,26.042,26.042,0,0,0,2.817.29c1.489.054,2.773-1.414,3.632-2.489s2.049-2.705,1.956-4.147a7.608,7.608,0,0,0-.309-1.4,2.867,2.867,0,0,0-.554-1.384.733.733,0,0,0-1.211.319c-.248.745.308,1.663.372,2.411.082.96-.806,2.138-1.365,2.871a9.848,9.848,0,0,1-1.378,1.455,1.7,1.7,0,0,1-1.431.606" transform="translate(-29.306 -16.938)" fill="#e0435b"/>
    <path id="Path_216" data-name="Path 216" d="M71.636,62.643c-1.447.039-2.895.1-4.342.146a19.979,19.979,0,0,0-4.386.337.729.729,0,0,0,0,1.395,16.162,16.162,0,0,0,3.609.069l3.883-.143c2.256-.083,4.517-.292,5.909,1.83a.805.805,0,0,0,1.389-.812c-1.273-2.275-3.61-2.886-6.062-2.821" transform="translate(-25.289 -25.389)" fill="#e0435b"/>
    <path id="Path_217" data-name="Path 217" d="M64.967,67.817a8.216,8.216,0,0,0-2.421-.49c-.915-.169-1.827-.353-2.74-.53a36.466,36.466,0,0,0-5.753-.928c-.864-.027-.937,1.168-.194,1.435a27.136,27.136,0,0,0,4.249.971c1.473.276,2.944.575,4.422.819.607.1,1.366.046,1.843.459a3.481,3.481,0,0,1,1.048,1.326c.434,1.214-1.132,1.786-1.111,2.9a.587.587,0,0,0,.575.574c1.295.049,2.3-1.9,2.338-3.011a4.46,4.46,0,0,0-2.256-3.522" transform="translate(-21.624 -26.699)" fill="#e0435b"/>
    <path id="Path_218" data-name="Path 218" d="M56.444,22.327a7.95,7.95,0,0,1,2.034.005,3.294,3.294,0,0,1,1.015.465c.128.085.532.32.549.507.036.387-.406.337-.6.348a4.989,4.989,0,0,1-1.073-.167c-.186-.034-.773-.053-.9-.209-.056-.068-.157-.008-.162.067-.07,1.158.929,2.044,1.7,2.774a6.444,6.444,0,0,0,2.615,1.606,3.577,3.577,0,0,0,1.154.14,8.563,8.563,0,0,1,1.4,2.681c.175.963-.872,2.068-1.44,2.755a14.841,14.841,0,0,1-2.157,2.325.79.79,0,0,0,.395,1.458c1.267.014,2.217-1.506,2.952-2.393A7.825,7.825,0,0,0,65.962,31.2c.194-1.365-.713-2.646-1.383-3.755-.09-.149-.185-.295-.277-.442a2.1,2.1,0,0,0,.235-.956,5.276,5.276,0,0,0-3.267-5.039c-1.424-.626-4.946-1.282-4.922,1.226a.1.1,0,0,0,.1.1" transform="translate(-22.84 -8.282)" fill="#e0435b"/>
    <path id="Path_219" data-name="Path 219" d="M62.9,25.687c.626.331,1.367.433,2.017.736a9.464,9.464,0,0,1,2,1.281c.165.136.4-.1.238-.238-1.035-.886-2.779-2.055-4.214-1.931-.074.007-.118.111-.041.152" transform="translate(-25.477 -10.346)" fill="#35208a"/>
    <path id="Path_220" data-name="Path 220" d="M68.768,31.785c-.17-.021-.309.15-.441.236a2.187,2.187,0,0,1-.563.266.167.167,0,0,0,.089.322,2.052,2.052,0,0,0,.653-.321c.138-.105.36-.266.31-.466a.052.052,0,0,0-.049-.037" transform="translate(-27.42 -12.883)" fill="#35208a"/>
    <path id="Path_221" data-name="Path 221" d="M71.133,37.586a1.792,1.792,0,0,0-.652.159c-.275.067-.554.037-.825.1-.147.033-.123.231,0,.275a1.537,1.537,0,0,0,.864-.043c.225-.061.557-.153.655-.382.016-.037.008-.1-.042-.1" transform="translate(-28.193 -15.233)" fill="#35208a"/>
    <path id="Path_222" data-name="Path 222" d="M68.954,42.32a1.707,1.707,0,0,1-.645-.09c-.164-.058-.321-.219-.5-.163a.112.112,0,0,0-.081.106c.017.224.269.3.456.367a1.836,1.836,0,0,0,.768.1c.205-.016.21-.331,0-.324" transform="translate(-27.453 -17.046)" fill="#35208a"/>
    <path id="Path_223" data-name="Path 223" d="M67.321,44.606c-.017-.242-.26-.426-.437-.567a1.691,1.691,0,0,0-.774-.436c-.131-.012-.164.152-.1.234a3.168,3.168,0,0,0,.676.457c.18.125.384.326.612.334a.021.021,0,0,0,.021-.021" transform="translate(-26.743 -17.673)" fill="#35208a"/>
    <path id="Path_224" data-name="Path 224" d="M82.881,34.644a1.51,1.51,0,0,1-.513-.052,2.041,2.041,0,0,0-.438-.165.141.141,0,0,0-.121.21.762.762,0,0,0,.5.285,1.488,1.488,0,0,0,.613.024c.172-.029.131-.31-.041-.3" transform="translate(-33.153 -13.955)" fill="#35208a"/>
    <path id="Path_225" data-name="Path 225" d="M81.018,43.612a8.552,8.552,0,0,1-.978-.048c-.23-.039-.428-.15-.648-.054a.1.1,0,0,0-.036.134c.147.234.475.234.729.268a2.828,2.828,0,0,0,.973-.005c.171-.039.122-.285-.04-.294" transform="translate(-32.16 -17.621)" fill="#35208a"/>
    <path id="Path_226" data-name="Path 226" d="M71.818,49.2c-.17-.252-.37-.481-.563-.715a5.313,5.313,0,0,0-.64-.742.145.145,0,0,0-.227.175,4.937,4.937,0,0,0,.567.714c.21.25.412.508.644.738.109.108.31-.034.219-.169" transform="translate(-28.522 -19.336)" fill="#35208a"/>
    <path id="Path_227" data-name="Path 227" d="M75.112,55.936a2.183,2.183,0,0,0-.235-.993c-.086-.212-.165-.542-.425-.566a.083.083,0,0,0-.078.059c-.092.224.172.523.251.729.1.272.136.57.254.834.057.127.222.045.234-.063" transform="translate(-30.138 -22.04)" fill="#35208a"/>
    <path id="Path_228" data-name="Path 228" d="M69.942,62.65a5.8,5.8,0,0,1-1.963.981,5.777,5.777,0,0,0-1.614.646c-.117.083-.052.3.1.249.7-.232,1.406-.493,2.1-.746a3.722,3.722,0,0,0,1.562-.938.135.135,0,0,0-.191-.191" transform="translate(-26.875 -25.38)" fill="#35208a"/>
    <path id="Path_229" data-name="Path 229" d="M61.387,67.022c-.359.177-.692.407-1.049.591a7.574,7.574,0,0,0-1.078.527c-.09.067-.078.257.065.242a3.3,3.3,0,0,0,1.114-.447,5.474,5.474,0,0,0,1.107-.706c.117-.1-.032-.269-.159-.206" transform="translate(-23.997 -27.161)" fill="#35208a"/>
    <path id="Path_230" data-name="Path 230" d="M89.585,47.334c-.19-.055-.394-.045-.589-.086a2.685,2.685,0,0,1-.613-.218c-.194-.094-.366.2-.171.292a1.758,1.758,0,0,0,1.392.167.085.085,0,0,0-.02-.155" transform="translate(-35.72 -19.055)" fill="#35208a"/>
    <path id="Path_231" data-name="Path 231" d="M82.981,56.119a3.582,3.582,0,0,1-.528-1,.172.172,0,0,0-.331.091,2.254,2.254,0,0,0,.63,1.081c.116.1.328-.033.228-.176" transform="translate(-33.284 -22.294)" fill="#35208a"/>
    <path id="Path_232" data-name="Path 232" d="M80.579,63.083a1.107,1.107,0,0,0-.6.468c-.136.177-.351.469-.287.7a.136.136,0,0,0,.224.059.6.6,0,0,0,.148-.254,1.91,1.91,0,0,1,.183-.313c.133-.183.334-.311.453-.5a.112.112,0,0,0-.125-.162" transform="translate(-32.298 -25.569)" fill="#35208a"/>
    <path id="Path_233" data-name="Path 233" d="M78.537,64.167a1,1,0,0,0-.134.462c-.018.189.279.221.326.044a1.614,1.614,0,0,0,.035-.244.567.567,0,0,0-.006-.233.123.123,0,0,0-.222-.029" transform="translate(-31.779 -25.986)" fill="#35208a"/>
    <path id="Path_234" data-name="Path 234" d="M74.42,77.211a.934.934,0,0,0-.808-.4.162.162,0,0,0,0,.325.708.708,0,0,1,.552.274c.112.145.369-.051.256-.2" transform="translate(-29.774 -31.131)" fill="#35208a"/>
    <path id="Path_235" data-name="Path 235" d="M71.984,69.628a1.731,1.731,0,0,0-.708.664.17.17,0,0,0,.293.171,1.549,1.549,0,0,1,.577-.558c.181-.1.022-.367-.162-.277" transform="translate(-28.88 -28.215)" fill="#35208a"/>
    <path id="Path_236" data-name="Path 236" d="M70.79,69.447a2.019,2.019,0,0,0-.616.846.168.168,0,0,0,.305.128A2.818,2.818,0,0,1,71,69.66c.141-.137-.067-.335-.213-.213" transform="translate(-28.44 -28.133)" fill="#35208a"/>
    <path id="Path_237" data-name="Path 237" d="M44.479,45.612c-.122.652.6,1.455,1.06,1.857a4.074,4.074,0,0,0,2.311.99,3.735,3.735,0,0,0,2.637-.629,2.72,2.72,0,0,0,1.228-2.209.153.153,0,0,0-.305,0c-.25,1.98-2.295,2.815-4.076,2.4a3.668,3.668,0,0,1-1.759-1c-.4-.413-.584-1.115-1.053-1.424a.031.031,0,0,0-.045.018" transform="translate(-18.023 -18.432)" fill="#35208a"/>
    <path id="Path_238" data-name="Path 238" d="M36.045,49.01A1.759,1.759,0,1,1,37.8,47.252a1.778,1.778,0,0,1-1.758,1.758" transform="translate(-13.897 -18.44)" fill="#fff"/>
    <path id="Path_239" data-name="Path 239" d="M62.634,49.01a1.759,1.759,0,1,1,1.758-1.758,1.778,1.778,0,0,1-1.758,1.758" transform="translate(-24.674 -18.44)" fill="#fff"/>
    <path id="Path_240" data-name="Path 240" d="M57.111,80.867a.082.082,0,0,0-.029-.07c-.177-.335-.818-.4-1.139-.463-.524-.1-1.056-.167-1.587-.236-.087-.011-.174-.026-.26-.036-.035,0-.1-.034-.09-.018a1.63,1.63,0,0,1-.16-.368c-.22-.512-.432-1.028-.655-1.538-.113-.259-.228-.517-.351-.771-.076-.157-.162-.451-.337-.527-.387-.169-.657.787-.76,1.017-.246.551-.477,1.109-.716,1.663-.05.117-.134.451-.239.531a2.616,2.616,0,0,1-.5.026c-.236.019-.472.037-.707.059a6.207,6.207,0,0,0-1.2.19c-.234.069-.652.181-.615.5.03.266.438.517.621.663a7.914,7.914,0,0,0,.995.673,4.722,4.722,0,0,1,.5.266c.187.142.1.29.046.481-.107.4-.215.806-.313,1.212-.08.33-.157.662-.208,1a1.338,1.338,0,0,0-.017.7c.243.517,1.176-.388,1.4-.561q.424-.326.83-.675c.133-.114.264-.23.393-.348.073-.067.257-.321.351-.336.152-.026.561.47.684.576.279.241.567.472.859.7a2.848,2.848,0,0,0,1.359.768c.458.041.24-.653.179-.927-.145-.652-.357-1.29-.551-1.93-.042-.137-.1-.279-.125-.42s-.027-.144.1-.222c.253-.153.561-.247.827-.381.426-.215,1.279-.6,1.4-1.135a.092.092,0,0,0,.01-.064" transform="translate(-19.359 -31.137)" fill="#f7b9e7"/>
    <path id="Path_241" data-name="Path 241" d="M33.06,10.315c-.721-.063-1.456-.055-2.186-.047q.31-.305.617-.613a4.47,4.47,0,0,0,.894-1.039.2.2,0,0,0-.275-.275,4.519,4.519,0,0,0-1.055.877q-.319.307-.635.617c0-.3,0-.593,0-.89a4.491,4.491,0,0,0-.1-1.369.2.2,0,0,0-.388,0,4.53,4.53,0,0,0-.127,1.369c-.006.295-.01.59-.012.884q-.312-.317-.627-.631A4.467,4.467,0,0,0,28.127,8.3a.2.2,0,0,0-.275.275,4.5,4.5,0,0,0,.877,1.055q.306.319.616.635c-.3,0-.593,0-.89,0a4.49,4.49,0,0,0-1.369.1.2.2,0,0,0,0,.388,4.53,4.53,0,0,0,1.369.127c.288.006.577.01.865.012-.533.5-1.069,1.008-1.544,1.556a.3.3,0,0,0,.424.424c.549-.46,1.059-.981,1.565-1.5-.021.725-.042,1.455.008,2.171a.3.3,0,0,0,.6,0c.062-.714.055-1.442.047-2.166.5.527,1,1.059,1.541,1.529a.3.3,0,0,0,.425-.424c-.461-.549-.981-1.059-1.5-1.565.725.02,1.455.041,2.172-.009a.3.3,0,0,0,0-.6" transform="translate(-10.921 -3.013)" fill="#fff"/>
    <path id="Path_242" data-name="Path 242" d="M49.322,8.825a.776.776,0,0,0,.533-.221.754.754,0,0,0-.533-1.287.776.776,0,0,0-.533.221.754.754,0,0,0,.533,1.287" transform="translate(-19.686 -2.966)" fill="#fff"/>
    <path id="Path_243" data-name="Path 243" d="M55.9,33.066a.647.647,0,0,0,0-1.293.647.647,0,0,0,0,1.293" transform="translate(-22.403 -12.879)" fill="#fff"/>
    <path id="Path_244" data-name="Path 244" d="M40.41,35.932v-.017l-.025.188a.085.085,0,0,1,.008-.032l-.072.169.008-.014-.112.144a.082.082,0,0,1,.024-.023l-.145.112.045-.021-.171.072.016,0-.19.026a.108.108,0,0,1,.034,0l-.188-.025a.726.726,0,0,0,.818-.321.7.7,0,0,0,.07-.534.757.757,0,0,0-.52-.513.789.789,0,0,0-.61.068.821.821,0,0,0-.376.915.713.713,0,0,0,.324.421.725.725,0,0,0,.45.084.7.7,0,0,0,.611-.692" transform="translate(-15.808 -14.229)" fill="#fff"/>
    <path id="Path_245" data-name="Path 245" d="M71.886,12.732l.055.043a.612.612,0,1,0,0-.865l-.055.043a.551.551,0,0,0,0,.78" transform="translate(-29.072 -4.765)" fill="#fff"/>
    <path id="Path_246" data-name="Path 246" d="M90.154,37.446a.738.738,0,0,0,.506-.209.716.716,0,0,0,0-1.012.715.715,0,0,0-1.012,0,.715.715,0,0,0,0,1.012.743.743,0,0,0,.506.209" transform="translate(-36.251 -14.598)" fill="#fff"/>
    <path id="Path_247" data-name="Path 247" d="M91.813,60.836a.646.646,0,0,0,0-1.29.646.646,0,0,0,0,1.29" transform="translate(-36.962 -24.136)" fill="#fff"/>
    <path id="Path_248" data-name="Path 248" d="M40.588,79.46a.859.859,0,0,0,.5-.285.657.657,0,0,0,.147-.416.814.814,0,0,0-.094-.347.724.724,0,0,0-.41-.315.711.711,0,0,0-.147-.039.735.735,0,0,0-.387,0,.726.726,0,0,0-.321.187.727.727,0,0,0,0,1.028.726.726,0,0,0,.321.187.735.735,0,0,0,.387,0" transform="translate(-16.079 -31.629)" fill="#fff"/>
    <path id="Path_249" data-name="Path 249" d="M29.138,88.779l.089-.024a.738.738,0,0,0,.534-.7.747.747,0,0,0-.534-.7l-.089-.024a.753.753,0,1,0,0,1.452" transform="translate(-11.424 -35.386)" fill="#fff"/>
    <path id="Path_250" data-name="Path 250" d="M15.067,77.144a.758.758,0,0,0,0-1.516.758.758,0,0,0,0,1.516" transform="translate(-5.81 -30.654)" fill="#fff"/>
    <path id="Path_251" data-name="Path 251" d="M18.535,26.3a.814.814,0,0,0,.558-.231.79.79,0,0,0,0-1.117.79.79,0,0,0-1.117,0,.79.79,0,0,0,0,1.117.822.822,0,0,0,.558.231" transform="translate(-7.193 -10.019)" fill="#fff"/>
    <path id="Path_252" data-name="Path 252" d="M4.719,42.251a.788.788,0,0,0,.54-.224.764.764,0,0,0-.54-1.3.788.788,0,0,0-.54.224.764.764,0,0,0,.54,1.3" transform="translate(-1.603 -16.506)" fill="#fff"/>
    <path id="Path_253" data-name="Path 253" d="M76.368,82.23l.007.1a.727.727,0,0,0,1.454,0l.007-.1c.071-.944-1.54-.946-1.468,0" transform="translate(-30.953 -33.043)" fill="#fff"/>
    <path id="Path_254" data-name="Path 254" d="M8.523,59.024a.829.829,0,0,0,.568-.235.8.8,0,0,0,0-1.136.8.8,0,0,0-1.136,0,.8.8,0,0,0,0,1.136.833.833,0,0,0,.568.235" transform="translate(-3.129 -23.273)" fill="#fff896"/>
    <path id="Path_255" data-name="Path 255" d="M59.781,12.107a.709.709,0,0,0,.486-.2.688.688,0,0,0-.486-1.174.709.709,0,0,0-.486.2.688.688,0,0,0,.486,1.174" transform="translate(-23.952 -4.35)" fill="#fff896"/>
    <path id="Path_256" data-name="Path 256" d="M76.153,29.957a.59.59,0,0,0,0-1.179.59.59,0,0,0,0,1.179" transform="translate(-30.636 -11.665)" fill="#fff896"/>
    <path id="Path_257" data-name="Path 257" d="M82.013,71.723a.715.715,0,0,0-.264-.774.738.738,0,0,0-1.082.206.76.76,0,0,0-.074.568.769.769,0,0,0,.338.44.737.737,0,0,0,1.082-.44" transform="translate(-32.656 -28.696)" fill="#fff896"/>
    <path id="Path_258" data-name="Path 258" d="M40.323,92.555a.859.859,0,0,0,.588-.243.831.831,0,0,0,0-1.174.83.83,0,0,0-1.175,0,.831.831,0,0,0,0,1.174.865.865,0,0,0,.588.243" transform="translate(-16.007 -36.842)" fill="#fff896"/>
  </g>
</svg>
