<svg id="Group_236" data-name="Group 236" xmlns="http://www.w3.org/2000/svg" xmlns:xlink="http://www.w3.org/1999/xlink" width="59.804" height="59.803" viewBox="0 0 59.804 59.803">
  <defs>
    <clipPath id="clip-path">
      <rect id="Rectangle_101" data-name="Rectangle 101" width="59.804" height="59.803" fill="none"/>
    </clipPath>
    <clipPath id="clip-path-2">
      <path id="Path_520" data-name="Path 520" d="M38.067,38.048c-2.218.679-3.613,3.283-4.208,5.357a10.487,10.487,0,0,0,.729,7.286c1.126,2.516,2.668,3.5,3.74,6.05.538,1.279.91,2.627,1.466,3.9a3.779,3.779,0,0,0,1.89,2.076,4.428,4.428,0,0,0,4.385-.516,6.425,6.425,0,0,0,1.613-2.974c.5-1.437,1.067-1.538,1.728-2.907,1.254-2.6,3.032-5.012,3.754-7.84a10.058,10.058,0,0,0-1.5-8.118,6.051,6.051,0,0,0-2.423-2.178,4.339,4.339,0,0,0-3.275.254,8.611,8.611,0,0,1-4.5.189,11.371,11.371,0,0,0-2.641-.69,2.548,2.548,0,0,0-.756.114" transform="translate(-33.499 -37.934)" fill="none"/>
    </clipPath>
  </defs>
  <g id="Group_231" data-name="Group 231" transform="translate(0 0)">
    <g id="Group_230" data-name="Group 230" clip-path="url(#clip-path)">
      <path id="Path_490" data-name="Path 490" d="M59.8,29.9A29.9,29.9,0,1,1,29.9,0,29.9,29.9,0,0,1,59.8,29.9" transform="translate(0 0)" fill="#35208a"/>
      <path id="Path_491" data-name="Path 491" d="M64.292,24.24a5.317,5.317,0,0,0-1.025-2.315.216.216,0,0,0-.021-.024.227.227,0,0,0-.017-.025,3.79,3.79,0,0,0-4.681-1.093,7.63,7.63,0,0,0-3.1,3.438c-1.372,2.75-1.538,5.886-1.6,8.906a.248.248,0,0,0,.244.244l4.809.34a.248.248,0,0,0,.235-.309,14.25,14.25,0,0,1,.457-7.219c.657-1.692,2.7-3.406,4.3-1.707.181.193.444-.015.407-.237" transform="translate(-21.823 -8.261)" fill="#fff"/>
      <path id="Path_492" data-name="Path 492" d="M54.66,35.6a5.568,5.568,0,0,0,.984-.4,4.112,4.112,0,0,1,1.172-.239,5.269,5.269,0,0,1,2.166.48c.132.049.2-.145.091-.216a3.828,3.828,0,0,0-2.461-.531,2.908,2.908,0,0,0-2,.843c-.022.032.014.064.046.059" transform="translate(-22.134 -14.055)" fill="#35208a"/>
      <path id="Path_493" data-name="Path 493" d="M55.389,30.365c.324.016.571-.191.885-.272a2.475,2.475,0,0,1,1.257.012,2.888,2.888,0,0,1,1.177.656,4.217,4.217,0,0,0,.727.668c.083.045.193-.049.136-.136a3.492,3.492,0,0,0-2.141-1.5c-.574-.114-1.783-.092-2.056.548a.018.018,0,0,0,.015.026" transform="translate(-22.444 -12.054)" fill="#35208a"/>
      <path id="Path_494" data-name="Path 494" d="M57.619,25.359c.169.188.379.148.621.211a3.176,3.176,0,0,1,.969.452,10.4,10.4,0,0,1,1.567,1.77.088.088,0,0,0,.146-.086,3.675,3.675,0,0,0-1.571-1.927c-.369-.247-1.33-.813-1.733-.442a.017.017,0,0,0,0,.023" transform="translate(-23.353 -10.22)" fill="#35208a"/>
      <path id="Path_495" data-name="Path 495" d="M60.92,21.6a2.382,2.382,0,0,1,1.434,1.171,8.6,8.6,0,0,1,.532,1.946.088.088,0,0,0,.167,0c.33-1.155-.749-3.336-2.106-3.31a.1.1,0,0,0-.026.193" transform="translate(-24.665 -8.678)" fill="#35208a"/>
      <path id="Path_496" data-name="Path 496" d="M65.481,20.586c.779.87.646,1.956.541,3.038-.017.18.256.173.278,0,.116-.892.347-2.733-.733-3.187-.089-.037-.139.09-.086.149" transform="translate(-26.533 -8.281)" fill="#35208a"/>
      <path id="Path_497" data-name="Path 497" d="M68.756,23.053c-.071.268-.04.551-.117.822a2.069,2.069,0,0,1-.393.693c-.077.1.072.238.173.173a1.518,1.518,0,0,0,.451-1.7.063.063,0,0,0-.114.015" transform="translate(-27.653 -9.326)" fill="#35208a"/>
      <path id="Path_498" data-name="Path 498" d="M37.855,24.221a7.634,7.634,0,0,0-3.1-3.438,3.79,3.79,0,0,0-4.681,1.093c-.007.008-.011.017-.017.025a.3.3,0,0,0-.022.024,5.319,5.319,0,0,0-1.025,2.315c-.037.222.225.431.407.237,1.6-1.7,3.642.015,4.3,1.707a14.249,14.249,0,0,1,.457,7.219.247.247,0,0,0,.235.309l4.809-.34a.248.248,0,0,0,.244-.244c-.065-3.02-.232-6.157-1.6-8.906" transform="translate(-11.756 -8.261)" fill="#fff"/>
      <path id="Path_499" data-name="Path 499" d="M42.731,35.54a2.9,2.9,0,0,0-2-.843,3.832,3.832,0,0,0-2.461.531c-.1.07-.042.265.092.216a5.274,5.274,0,0,1,2.166-.48,4.089,4.089,0,0,1,1.072.206,7.206,7.206,0,0,0,1.083.429c.032,0,.068-.027.046-.059" transform="translate(-15.492 -14.055)" fill="#35208a"/>
      <path id="Path_500" data-name="Path 500" d="M42.178,30.34c-.273-.64-1.482-.661-2.056-.547a3.486,3.486,0,0,0-2.14,1.5c-.056.086.052.181.136.136a4.149,4.149,0,0,0,.727-.668,2.871,2.871,0,0,1,1.177-.656,2.54,2.54,0,0,1,1.258-.013c.318.077.557.288.884.272a.017.017,0,0,0,.015-.026" transform="translate(-15.389 -12.054)" fill="#35208a"/>
      <path id="Path_501" data-name="Path 501" d="M40.55,25.337c-.4-.37-1.364.2-1.733.442a3.673,3.673,0,0,0-1.571,1.927.088.088,0,0,0,.146.085,10.363,10.363,0,0,1,1.567-1.769,3.211,3.211,0,0,1,.969-.452c.245-.065.45-.021.621-.211a.017.017,0,0,0,0-.023" transform="translate(-15.096 -10.22)" fill="#35208a"/>
      <path id="Path_502" data-name="Path 502" d="M37.937,21.41c-1.358-.026-2.436,2.154-2.106,3.309a.087.087,0,0,0,.167,0,8.648,8.648,0,0,1,.532-1.945A2.379,2.379,0,0,1,37.964,21.6a.1.1,0,0,0-.026-.193" transform="translate(-14.499 -8.678)" fill="#35208a"/>
      <path id="Path_503" data-name="Path 503" d="M34.214,20.437c-1.079.454-.849,2.3-.733,3.187.023.173.3.18.278,0-.1-1.082-.238-2.168.541-3.038.053-.059,0-.186-.086-.149" transform="translate(-13.529 -8.281)" fill="#35208a"/>
      <path id="Path_504" data-name="Path 504" d="M31.039,23.038a1.518,1.518,0,0,0,.451,1.7c.1.065.25-.07.173-.173a2.06,2.06,0,0,1-.393-.693c-.077-.271-.046-.554-.117-.822a.063.063,0,0,0-.114-.015" transform="translate(-12.536 -9.326)" fill="#35208a"/>
      <path id="Path_505" data-name="Path 505" d="M73.107,32.62a.24.24,0,0,0-.027-.061,1.593,1.593,0,0,0-1.524-.966,3.673,3.673,0,0,0-2.175,1.171,18.047,18.047,0,0,1-5.154,3.491,4.7,4.7,0,0,0-2.02,1.415c-.348.451-1,1.5-.77,2.09a5.507,5.507,0,0,0,.776,1.044l.775,1.044a.254.254,0,0,0,.334.087,22.206,22.206,0,0,1,3.82-1.793,13.143,13.143,0,0,0,3.539-.941,4.465,4.465,0,0,0,2.2-2.472,5.942,5.942,0,0,0,.229-4.109" transform="translate(-24.883 -12.803)" fill="#966"/>
      <path id="Path_506" data-name="Path 506" d="M72.441,35.89A1.148,1.148,0,0,0,71.4,35.3a1.585,1.585,0,0,0-.924.535,13.865,13.865,0,0,1-1.864,1.992c-.99.66-2.215.728-3.23,1.295-.237.131-2.583,1.692-2.178,2.1l1.073,1.082c.937,0,1.867-.786,2.643-1.222a7.73,7.73,0,0,1,2.825-.684,3.651,3.651,0,0,0,2.932-3.284,2.1,2.1,0,0,0-.234-1.224" transform="translate(-25.598 -14.306)" fill="#ffc9a8"/>
      <path id="Path_507" data-name="Path 507" d="M30.18,37.669a4.725,4.725,0,0,0-2.02-1.415,18.024,18.024,0,0,1-5.154-3.49,3.676,3.676,0,0,0-2.176-1.171,1.591,1.591,0,0,0-1.524.966.259.259,0,0,0-.027.061,5.94,5.94,0,0,0,.229,4.108,4.457,4.457,0,0,0,2.2,2.473,13.263,13.263,0,0,0,3.54.941,22.428,22.428,0,0,1,3.82,1.793.254.254,0,0,0,.334-.087l.775-1.044a5.485,5.485,0,0,0,.775-1.044c.227-.587-.426-1.644-.77-2.09" transform="translate(-7.699 -12.803)" fill="#966"/>
      <path id="Path_508" data-name="Path 508" d="M21.63,35.89a1.148,1.148,0,0,1,1.044-.591,1.585,1.585,0,0,1,.924.535,13.865,13.865,0,0,0,1.864,1.992c.99.66,2.215.728,3.23,1.295.237.131,2.583,1.692,2.178,2.1L29.8,42.305c-.937,0-1.867-.786-2.643-1.222a7.73,7.73,0,0,0-2.825-.684A3.651,3.651,0,0,1,21.4,37.114a2.1,2.1,0,0,1,.234-1.224" transform="translate(-8.669 -14.306)" fill="#ffc9a8"/>
      <path id="Path_509" data-name="Path 509" d="M51.666,40.356a6.026,6.026,0,0,0-2.423-2.178c-1.142-.489-2.4-.12-3.579.03a15.26,15.26,0,0,1-4.461-.014,6.319,6.319,0,0,0-3.488-.017c-2.107.9-3.409,3.435-3.941,5.542a10.732,10.732,0,0,0,.952,7.266,63.912,63.912,0,0,0,3.663,6.36c1.053,1.707,1.214,4.569,3.352,5.382a4.413,4.413,0,0,0,4.33-.535,6.477,6.477,0,0,0,1.613-2.973,14.328,14.328,0,0,1,1.728-3.141c.787-1.188,1.454-2.474,2.129-3.729a17.361,17.361,0,0,0,1.625-3.877,10.053,10.053,0,0,0-1.5-8.118" transform="translate(-13.577 -15.373)" fill="#966"/>
      <path id="Path_510" data-name="Path 510" d="M51.438,74.819a2.164,2.164,0,0,0-.13-.528c-.739-1.9-3.709-1.924-5.218-1.337a3.707,3.707,0,0,0-1.9,1.868,3.7,3.7,0,0,0,1.833,1.949,4.427,4.427,0,0,0,4.385-.517,4.133,4.133,0,0,0,1.032-1.436" transform="translate(-17.911 -29.434)" fill="#ffc9a8"/>
      <path id="Path_511" data-name="Path 511" d="M38.159,56.16a1.072,1.072,0,1,1,1.072-1.072,1.084,1.084,0,0,1-1.072,1.072" transform="translate(-15.032 -21.894)" fill="#35208a"/>
      <path id="Path_512" data-name="Path 512" d="M60.946,56.16a1.072,1.072,0,1,1,1.072-1.072,1.084,1.084,0,0,1-1.072,1.072" transform="translate(-24.268 -21.894)" fill="#35208a"/>
      <path id="Path_513" data-name="Path 513" d="M43.654,61.546c.654-.34.337-1.431.29-2.019q-.108-1.385-.218-2.771c-.142-1.792-.175-3.632-.447-5.41-.244-1.6-1.515-2.928-2.329-4.273A18.875,18.875,0,0,1,39.8,44.9c-.36-.821-.542-1.7-.866-2.521a.533.533,0,0,0-1.041.141c-.138,1.642.893,3.42,1.708,4.8.432.73.9,1.436,1.377,2.138a5.3,5.3,0,0,1,1.125,2.4c.223,1.877.34,3.772.51,5.654.083.926.161,1.853.25,2.779.032.333.128,1.6.8,1.258" transform="translate(-15.352 -17.027)" fill="#ffc9a8"/>
      <path id="Path_514" data-name="Path 514" d="M52.936,61.574c.687-.222.578-1.205.63-1.794q.124-1.387.25-2.774t.25-2.769a25.223,25.223,0,0,1,.275-2.788,6.373,6.373,0,0,1,1.192-2.179c.475-.705.943-1.418,1.37-2.154.771-1.333,1.722-3.022,1.59-4.6a.533.533,0,0,0-1.041-.141c-.325.824-.506,1.7-.866,2.521a19.485,19.485,0,0,1-1.277,2.372c-.858,1.394-2.045,2.676-2.243,4.354-.22,1.866-.3,3.758-.45,5.632q-.11,1.388-.218,2.776c-.023.29-.2,1.78.54,1.54" transform="translate(-21.223 -17.027)" fill="#ffc9a8"/>
      <path id="Path_515" data-name="Path 515" d="M46.442,74.516c.227.23.63.175.923.3.325.142.52.441.84.57.242.1.432-.179.388-.388-.084-.407-.6-.687-.954-.834-.328-.134-.923-.319-1.2-.01a.259.259,0,0,0,0,.359" transform="translate(-18.795 -29.989)" fill="#35208a"/>
      <path id="Path_516" data-name="Path 516" d="M52.6,74.157c-.275-.311-.868-.127-1.2.01-.354.146-.871.428-.954.834-.043.209.146.485.388.388.32-.128.517-.428.841-.57.293-.128.7-.072.923-.3a.26.26,0,0,0,0-.359" transform="translate(-20.447 -29.989)" fill="#35208a"/>
      <path id="Path_517" data-name="Path 517" d="M45.652,75.977c.456,2.511,4.781,2.12,5.541.027.064-.176-.217-.252-.28-.077A2.666,2.666,0,0,1,48.467,77.4a2.407,2.407,0,0,1-2.605-1.481.109.109,0,0,0-.209.058" transform="translate(-18.503 -30.736)" fill="#35208a"/>
    </g>
  </g>
  <g id="Group_233" data-name="Group 233" transform="translate(19.921 22.558)">
    <g id="Group_232" data-name="Group 232" clip-path="url(#clip-path-2)">
      <path id="Path_518" data-name="Path 518" d="M61.966,62.716a1.689,1.689,0,1,1,1.689-1.689,1.708,1.708,0,0,1-1.689,1.689" transform="translate(-44.352 -46.61)" fill="#e0435b"/>
      <path id="Path_519" data-name="Path 519" d="M37.014,62.716A1.689,1.689,0,1,1,38.7,61.027a1.708,1.708,0,0,1-1.689,1.689" transform="translate(-34.239 -46.61)" fill="#e0435b"/>
    </g>
  </g>
  <g id="Group_235" data-name="Group 235" transform="translate(0 0)">
    <g id="Group_234" data-name="Group 234" clip-path="url(#clip-path)">
      <path id="Path_521" data-name="Path 521" d="M47.641,41.561c-.218.305-.017.852.1,1.171a3.526,3.526,0,0,0,.7,1.154c.121.134.314-.062.2-.2a3.392,3.392,0,0,1-.7-1.233c-.088-.29-.059-.662-.25-.9a.031.031,0,0,0-.048.006" transform="translate(-19.271 -16.84)" fill="#35208a"/>
      <path id="Path_522" data-name="Path 522" d="M50.349,42.3c-.218.533.312,1.35.631,1.756a3.255,3.255,0,0,0,1.806,1.18.12.12,0,0,0,.064-.231,3.558,3.558,0,0,1-1.712-1.194,3.338,3.338,0,0,1-.5-.922,1.886,1.886,0,0,0-.234-.605c-.017-.021-.047-.005-.055.015" transform="translate(-20.387 -17.135)" fill="#35208a"/>
      <path id="Path_523" data-name="Path 523" d="M52.4,40.453a1.553,1.553,0,0,0,.564,1.517c.119.092.277-.053.169-.169a1.834,1.834,0,0,1-.482-1.314.129.129,0,0,0-.252-.034" transform="translate(-21.226 -16.36)" fill="#35208a"/>
      <path id="Path_524" data-name="Path 524" d="M58.369,63.544a2.845,2.845,0,0,1-.121,1.924c-.052.133.154.209.224.094a2.3,2.3,0,0,0,.1-2.105c-.054-.119-.241-.034-.207.087" transform="translate(-23.606 -25.698)" fill="#35208a"/>
      <path id="Path_525" data-name="Path 525" d="M60.1,65.569a2.047,2.047,0,0,1-.055.42,1.366,1.366,0,0,0-.123.363.113.113,0,0,0,.169.1.591.591,0,0,0,.225-.412.982.982,0,0,0,0-.5.108.108,0,0,0-.212.029" transform="translate(-24.29 -26.534)" fill="#35208a"/>
      <path id="Path_526" data-name="Path 526" d="M42.57,65.609a1.213,1.213,0,0,0-.018.913,2.2,2.2,0,0,0,.471.932c.084.1.244-.029.176-.136a3.283,3.283,0,0,1-.435-.915,4.531,4.531,0,0,0-.147-.794.027.027,0,0,0-.046,0" transform="translate(-17.215 -26.588)" fill="#35208a"/>
      <path id="Path_527" data-name="Path 527" d="M43.966,67.215a2.157,2.157,0,0,0,.326.7c.12.178.259.4.473.469a.087.087,0,0,0,.107-.107,2.317,2.317,0,0,0-.383-.52,5.825,5.825,0,0,1-.341-.614c-.055-.1-.206-.03-.181.077" transform="translate(-17.82 -27.193)" fill="#35208a"/>
      <path id="Path_528" data-name="Path 528" d="M20.367,35.178a5.98,5.98,0,0,1,.094-.741,1.948,1.948,0,0,1,.437-.759.132.132,0,0,0-.186-.186,1.636,1.636,0,0,0-.483,1.7.076.076,0,0,0,.138-.018" transform="translate(-8.162 -13.56)" fill="#35208a"/>
      <path id="Path_529" data-name="Path 529" d="M21.669,34.539c.013-.031.043-.045.061-.071a.64.64,0,0,0,.039-.09.692.692,0,0,1,.121-.179c.1-.1.234-.13.343-.216a.11.11,0,0,0-.049-.183.543.543,0,0,0-.5.236.736.736,0,0,0-.139.246.38.38,0,0,0-.023.128c0,.046.033.073.043.115s.087.062.108.014" transform="translate(-8.722 -13.695)" fill="#35208a"/>
      <path id="Path_530" data-name="Path 530" d="M77.375,33.459c.153.077.326.087.476.177a.774.774,0,0,1,.352.466.125.125,0,0,0,.241-.067.926.926,0,0,0-.45-.593.566.566,0,0,0-.625-.03.03.03,0,0,0,.006.047" transform="translate(-31.356 -13.509)" fill="#35208a"/>
      <path id="Path_531" data-name="Path 531" d="M79.609,33.3c.026.191.245.335.324.515a1.212,1.212,0,0,1,.031.811.114.114,0,0,0,.208.087,1.072,1.072,0,0,0,.016-.928c-.077-.186-.309-.588-.56-.509a.025.025,0,0,0-.018.024" transform="translate(-32.268 -13.485)" fill="#35208a"/>
      <path id="Path_532" data-name="Path 532" d="M31.144,74.437a.083.083,0,0,0-.029-.07c-.177-.334-.818-.4-1.139-.463-.525-.1-1.056-.167-1.587-.236-.087-.011-.174-.026-.26-.036-.035,0-.1-.034-.09-.018a1.63,1.63,0,0,1-.16-.368c-.22-.512-.432-1.028-.655-1.538-.113-.259-.228-.517-.351-.771-.076-.157-.162-.451-.337-.527-.387-.169-.657.787-.76,1.017-.246.551-.477,1.109-.716,1.663-.05.117-.134.451-.239.531a2.617,2.617,0,0,1-.5.026c-.236.019-.472.037-.707.059a6.207,6.207,0,0,0-1.2.19c-.234.069-.652.181-.615.5.03.266.438.517.621.663a7.872,7.872,0,0,0,.995.673,4.72,4.72,0,0,1,.5.266c.187.142.1.29.046.481-.107.4-.215.806-.313,1.212-.08.33-.157.662-.208,1a1.338,1.338,0,0,0-.017.7c.243.517,1.176-.388,1.4-.561q.424-.326.83-.675c.133-.114.264-.23.393-.348.073-.067.257-.321.351-.336.152-.026.561.47.684.576.279.241.567.472.859.7a2.848,2.848,0,0,0,1.359.768c.458.041.24-.653.179-.927-.145-.652-.357-1.29-.551-1.93-.042-.137-.1-.278-.125-.42s-.027-.144.1-.222c.253-.153.561-.247.827-.381.426-.215,1.279-.6,1.4-1.135a.091.091,0,0,0,.01-.064" transform="translate(-8.834 -28.531)" fill="#f7b9e7"/>
      <path id="Path_533" data-name="Path 533" d="M88.857,46.622c-.721-.063-1.456-.055-2.186-.047q.31-.305.617-.613a4.482,4.482,0,0,0,.894-1.039.2.2,0,0,0-.275-.275,4.519,4.519,0,0,0-1.055.877c-.213.2-.424.41-.635.617,0-.3,0-.593,0-.89a4.491,4.491,0,0,0-.1-1.369.2.2,0,0,0-.388,0,4.53,4.53,0,0,0-.127,1.369c-.006.295-.01.59-.012.884q-.312-.317-.627-.631a4.482,4.482,0,0,0-1.039-.894.2.2,0,0,0-.275.275,4.5,4.5,0,0,0,.877,1.056q.306.319.616.635c-.3,0-.593,0-.89,0a4.492,4.492,0,0,0-1.369.1.2.2,0,0,0,0,.388,4.53,4.53,0,0,0,1.369.127c.288.006.577.01.865.012-.533.5-1.069,1.008-1.544,1.556a.3.3,0,0,0,.425.424c.549-.461,1.058-.981,1.565-1.5-.021.725-.042,1.455.008,2.171a.3.3,0,0,0,.6,0c.062-.714.055-1.442.047-2.166.5.527,1,1.059,1.541,1.529a.3.3,0,0,0,.425-.424c-.461-.549-.981-1.059-1.5-1.565.725.021,1.455.042,2.172-.008a.3.3,0,0,0,0-.6" transform="translate(-33.537 -17.729)" fill="#fff"/>
      <path id="Path_534" data-name="Path 534" d="M50.709,7.465a.766.766,0,0,0-.776-.372.779.779,0,0,0-.648.972.779.779,0,0,0,.959.544.788.788,0,0,0,.466-1.145" transform="translate(-19.966 -2.872)" fill="#fff"/>
      <path id="Path_535" data-name="Path 535" d="M68.978,15.686a.577.577,0,0,0,0-1.153.577.577,0,0,0,0,1.153" transform="translate(-27.733 -5.891)" fill="#fff"/>
      <path id="Path_536" data-name="Path 536" d="M52.489,26.8a.722.722,0,0,0-.206-.353.679.679,0,0,0-.567-.186.694.694,0,0,0-.493.322.733.733,0,0,0-.112.4.7.7,0,0,0,.205.5.675.675,0,0,0,.589.193.7.7,0,0,0,.583-.875" transform="translate(-20.716 -10.641)" fill="#fff"/>
      <path id="Path_537" data-name="Path 537" d="M77.76,26.225l-.026-.019a.564.564,0,0,0-.588,0l-.026.019a.684.684,0,0,0-.259.3.625.625,0,0,0-.032.412.63.63,0,0,0,1.19.076.631.631,0,0,0,.032-.413.7.7,0,0,0-.291-.379" transform="translate(-31.133 -10.589)" fill="#fff"/>
      <path id="Path_538" data-name="Path 538" d="M72.25,59.185l.152.025a.641.641,0,0,0,.606-.16.625.625,0,0,0,0-.881.624.624,0,0,0-.606-.16l-.152.025-.143.06a.443.443,0,0,0-.167.154.567.567,0,0,0-.128.362.713.713,0,0,0,.081.3.592.592,0,0,0,.357.274" transform="translate(-29.107 -23.504)" fill="#fff"/>
      <path id="Path_539" data-name="Path 539" d="M87.232,71.763a.731.731,0,0,0,.5-.208.708.708,0,0,0-.5-1.209.731.731,0,0,0-.5.208.708.708,0,0,0,.5,1.209" transform="translate(-35.07 -28.514)" fill="#fff"/>
      <path id="Path_540" data-name="Path 540" d="M70.882,75.083a.71.71,0,0,0,.488-.2.689.689,0,0,0-.488-1.177.712.712,0,0,0-.488.2.69.69,0,0,0,.488,1.177" transform="translate(-28.451 -29.875)" fill="#fff"/>
      <path id="Path_541" data-name="Path 541" d="M57.332,92.926a.756.756,0,0,0-.6.078A.776.776,0,1,0,57.8,94.066a.806.806,0,0,0,.078-.6.792.792,0,0,0-.542-.542" transform="translate(-22.842 -37.654)" fill="#fff"/>
      <path id="Path_542" data-name="Path 542" d="M41.58,81.486a.768.768,0,0,0,.526-.218A.744.744,0,0,0,41.58,80a.768.768,0,0,0-.526.218.744.744,0,0,0,.526,1.271" transform="translate(-16.552 -32.425)" fill="#fff"/>
      <path id="Path_543" data-name="Path 543" d="M30.437,60.824a.761.761,0,0,0-.218.089.843.843,0,0,0-.179.139.8.8,0,0,0-.208.435.722.722,0,0,0,.09.483.778.778,0,0,0,.855.348l.008,0-.2.027a.115.115,0,0,1,.029,0l-.2-.027a.169.169,0,0,1,.03.008.757.757,0,0,0,.756-.2.778.778,0,0,0,0-1.1.8.8,0,0,0-.756-.2" transform="translate(-12.089 -24.645)" fill="#fff"/>
      <path id="Path_544" data-name="Path 544" d="M10.119,64.04a.086.086,0,0,1,0-.021c-.008.061-.017.121-.024.182a.528.528,0,0,0,.03-.2.828.828,0,0,0-.1-.356A.688.688,0,0,0,8.955,63.5a.715.715,0,0,0-.184.677,1.153,1.153,0,0,0,.081.2l.106.137a.5.5,0,0,0,.219.14.65.65,0,0,0,.442.034.7.7,0,0,0,.5-.655" transform="translate(-3.546 -25.66)" fill="#fff"/>
      <path id="Path_545" data-name="Path 545" d="M17.514,49.155a.748.748,0,0,0,.514-.213.726.726,0,0,0,0-1.028.726.726,0,0,0-1.028,0,.726.726,0,0,0,0,1.028.756.756,0,0,0,.514.213" transform="translate(-6.804 -19.335)" fill="#fff"/>
      <path id="Path_546" data-name="Path 546" d="M16.569,22.284a.726.726,0,0,0,0-1.451.726.726,0,0,0,0,1.451" transform="translate(-6.432 -8.444)" fill="#fff"/>
      <path id="Path_547" data-name="Path 547" d="M9.788,37.965l.052-.095a.826.826,0,0,0,.1-.52.779.779,0,0,0-.224-.469.972.972,0,0,0-.36-.209.835.835,0,0,0-.629.082l-.095.052a.847.847,0,1,0,1.158,1.158" transform="translate(-3.33 -14.852)" fill="#fff896"/>
      <path id="Path_548" data-name="Path 548" d="M61.266,80.166l.008-.014a.831.831,0,0,0,0-.841l-.008-.014a.88.88,0,0,0-.972-.4.854.854,0,0,0-.447.308.82.82,0,0,0-.185.522.873.873,0,0,0,.529.786.863.863,0,0,0,1.075-.352" transform="translate(-24.183 -31.97)" fill="#fff896"/>
      <path id="Path_549" data-name="Path 549" d="M87.974,61.157a.82.82,0,0,0,0-1.639.82.82,0,0,0,0,1.639" transform="translate(-35.337 -24.124)" fill="#fff896"/>
      <path id="Path_550" data-name="Path 550" d="M38.326,11.279a1.29,1.29,0,0,0,.222.092.79.79,0,0,0,.768-1.32A.793.793,0,0,0,38,10.82a.727.727,0,0,0,.329.459" transform="translate(-15.392 -3.983)" fill="#fff896"/>
      <path id="Path_551" data-name="Path 551" d="M39,90.69a.849.849,0,0,0,.582-.241.824.824,0,0,0,0-1.164.823.823,0,0,0-1.164,0,.824.824,0,0,0,0,1.164A.857.857,0,0,0,39,90.69" transform="translate(-15.473 -36.092)" fill="#fff896"/>
    </g>
  </g>
</svg>
