<svg xmlns="http://www.w3.org/2000/svg" xmlns:xlink="http://www.w3.org/1999/xlink" width="30" height="30" viewBox="0 0 30 30">
  <defs>
    <clipPath id="clip-path">
      <rect id="Rectangle_114" data-name="Rectangle 114" width="12.453" height="11.032" fill="#fff"/>
    </clipPath>
  </defs>
  <g id="Group_296" data-name="Group 296" transform="translate(-338 -989)">
    <circle id="Ellipse_7" data-name="Ellipse 7" cx="15" cy="15" r="15" transform="translate(338 989)" fill="#ed981c"/>
    <g id="Group_292" data-name="Group 292" transform="translate(346.773 998.484)">
      <g id="Group_291" data-name="Group 291" transform="translate(0 0)" clip-path="url(#clip-path)">
        <path id="Path_697" data-name="Path 697" d="M0,13.518V7.584L.044,7.6q2.448.93,4.9,1.858a.154.154,0,0,1,.116.177c-.007.3,0,.6,0,.9a.128.128,0,0,0,.087.137q.5.227,1,.463a.178.178,0,0,0,.171,0c.332-.157.666-.313,1-.463a.127.127,0,0,0,.085-.138c0-.3,0-.592,0-.888a.167.167,0,0,1,.129-.192q2.2-.831,4.4-1.671l.528-.2v5.742c0,.176,0,.176-.171.176H.169c-.056,0-.112.007-.169.01" transform="translate(0 -2.486)" fill="#fff"/>
        <path id="Path_698" data-name="Path 698" d="M0,4.32V1.67a.319.319,0,0,0,.036,0q1.945,0,3.89,0c.094,0,.1-.039.1-.116,0-.478,0-.957,0-1.434,0-.091.02-.126.12-.126Q6.224.005,8.3,0c.1,0,.123.029.122.124,0,.466,0,.932,0,1.4,0,.119.024.156.151.155,1.248-.005,2.5,0,3.743-.006.115,0,.138.034.138.142q-.007,1.2,0,2.394a.147.147,0,0,1-.117.163q-2.1.795-4.19,1.594L7.4,6.246c0-.348,0-.68,0-1.01,0-.084-.011-.12-.11-.12q-1.064.007-2.127,0c-.083,0-.112.019-.11.107.005.3,0,.6,0,.9,0,.1-.021.119-.118.081-.52-.2-1.042-.4-1.563-.6L0,4.32M6.227.741c-.454,0-.907,0-1.36,0-.075,0-.108.014-.106.1.005.247,0,.494,0,.741,0,.074.019.1.095.1q1.367,0,2.734,0c.083,0,.1-.03.1-.106,0-.239-.006-.477,0-.717,0-.09-.022-.116-.114-.115-.45,0-.9,0-1.348,0" transform="translate(0 0)" fill="#fff"/>
        <path id="Path_699" data-name="Path 699" d="M9.492,9.626c0,.268,0,.535,0,.8a.135.135,0,0,1-.093.146c-.376.171-.375.173-.741-.011a.109.109,0,0,1-.07-.112q0-.839,0-1.678c0-.072.029-.089.094-.089.239,0,.479,0,.717,0,.08,0,.093.034.093.1,0,.28,0,.559,0,.839" transform="translate(-2.816 -2.847)" fill="#fff"/>
      </g>
    </g>
  </g>
</svg>
