<svg id="Group_64" data-name="Group 64" xmlns="http://www.w3.org/2000/svg" xmlns:xlink="http://www.w3.org/1999/xlink" width="48.189" height="47.279" viewBox="0 0 48.189 47.279">
  <defs>
    <clipPath id="clip-path">
      <rect id="Rectangle_7" data-name="Rectangle 7" width="48.189" height="47.279" fill="#fff"/>
    </clipPath>
  </defs>
  <g id="Group_1" data-name="Group 1" clip-path="url(#clip-path)">
    <path id="Path_1" data-name="Path 1" d="M105.123.013C110.081.013,115.039.045,120,0a5.15,5.15,0,0,1,5.073,4.133,6.124,6.124,0,0,1,.139,1.243q.012,11.809,0,23.619a5.192,5.192,0,0,1-5.056,5.386q-14.944.007-29.888,0c-3.053,0-5.229-2.33-5.232-5.621q-.01-10.072,0-20.144c0-1.325-.023-2.656.082-3.973a5.017,5.017,0,0,1,4.613-4.6C94.863,0,99.993.029,105.123.029V.013m15.958,20.461.1-.051v-.447q0-7.15,0-14.3c0-1.03-.336-1.388-1.3-1.388q-14.753,0-29.506,0c-.951,0-1.31.385-1.31,1.391q0,9.692,0,19.385c0,.158.014.316.025.545.166-.167.28-.276.388-.391q2.48-2.651,4.959-5.3a3.381,3.381,0,0,1,5.326-.008c.744.793,1.473,1.6,2.23,2.429.158-.194.283-.342.4-.5q3.539-4.543,7.079-9.084a3.368,3.368,0,0,1,5.369-.061c1.359,1.67,2.7,3.361,4.043,5.043q1.1,1.369,2.2,2.736" transform="translate(-77.027 0)" fill="#fff"/>
    <path id="Path_2" data-name="Path 2" d="M5,151.613v.537c0,4.5-.01,9,0,13.5a8.422,8.422,0,0,0,2.189,5.868,7.21,7.21,0,0,0,5.535,2.425q14.167,0,28.333,0h.6c-.034.166-.052.307-.091.44-.572,1.947-1.141,3.894-1.723,5.838a4.419,4.419,0,0,1-5.464,3.221q-10.356-2.947-20.7-5.928-5.028-1.44-10.059-2.87a4.84,4.84,0,0,1-3.616-5.012,8.2,8.2,0,0,1,.364-1.808q2.2-7.936,4.431-15.864c.034-.12.079-.237.119-.355l.079.015" transform="translate(0 -136.329)" fill="#fff"/>
    <path id="Path_3" data-name="Path 3" d="M153.121,64.178a4.3,4.3,0,1,1-4.021,4.277,4.165,4.165,0,0,1,4.021-4.277" transform="translate(-135.063 -57.714)" fill="#fff"/>
  </g>
</svg>
