<svg xmlns="http://www.w3.org/2000/svg" width="10.062" height="10.062" viewBox="0 0 10.062 10.062">
  <defs>
    <style>
      .cls-1 {
        fill: #585858;
        fill-rule: evenodd;
      }
    </style>
  </defs>
  <path id="Invision" class="cls-1" d="M548.638,292.361a1.24,1.24,0,0,0-.908-0.379h-7.46a1.294,1.294,0,0,0-1.287,1.287v7.46a1.294,1.294,0,0,0,1.287,1.287h7.46a1.294,1.294,0,0,0,1.287-1.287v-7.46A1.239,1.239,0,0,0,548.638,292.361Zm-6.052,3.237a2.061,2.061,0,0,1,2.848,0,1.91,1.91,0,0,1,0,2.763,2.059,2.059,0,0,1-2.848,0A1.908,1.908,0,0,1,542.586,295.6Zm5.295,4.864a0.382,0.382,0,0,1-.118.284,0.39,0.39,0,0,1-.281.114H540.5a0.39,0.39,0,0,1-.4-0.4v-4.234h0.921a2.821,2.821,0,0,0-.131.857,2.867,2.867,0,0,0,.915,2.139,3.054,3.054,0,0,0,2.2.885,3.143,3.143,0,0,0,1.568-.4,3.048,3.048,0,0,0,1.136-1.1,2.891,2.891,0,0,0,.418-1.518,2.821,2.821,0,0,0-.13-0.857h0.882v4.234h0Zm0-5.834a0.447,0.447,0,0,1-.451.451h-1.137a0.447,0.447,0,0,1-.451-0.451V293.55a0.441,0.441,0,0,1,.131-0.317,0.431,0.431,0,0,1,.32-0.134h1.137a0.431,0.431,0,0,1,.32.134,0.441,0.441,0,0,1,.131.317v1.078Z" transform="translate(-538.969 -291.969)"/>
</svg>
