<svg xmlns="http://www.w3.org/2000/svg" width="21" height="21" viewBox="0 0 21 21">
  <defs>
    <style>
      .cls-1 {
        fill: #f9b605;
      }

      .cls-2 {
        fill: #212121;
      }

      .cls-2, .cls-3 {
        fill-rule: evenodd;
      }

      .cls-3 {
        fill: #fff;
      }
    </style>
  </defs>
  <circle class="cls-1" cx="10.5" cy="10.5" r="10.5"/>
  <path class="cls-2" d="M1350.46,141.015a0.584,0.584,0,0,0-.39.43,0.122,0.122,0,0,1-.1.076,0.477,0.477,0,0,0-.32.637l0.04,0.112-0.05.06a0.76,0.76,0,0,0-.16.348,0.152,0.152,0,0,1-.15.172,3.873,3.873,0,0,0-2.22,2.186,7.317,7.317,0,0,0-.25.717,11.538,11.538,0,0,0-.27,2.273c0,0.041-.02.055-0.09,0.075a6.354,6.354,0,0,0-1.88,2.784,1.373,1.373,0,0,0-.11.494l-0.02.169-0.11.036c-1.08.356,0.29,2.125,2.22,2.839,0.07,0.029.16,0.061,0.18,0.07a8.059,8.059,0,0,0,.81.23c0.39,0.085.42,0.091,0.52,0.1a0.187,0.187,0,0,1,.2.162c0.02,0.058.08,0.2,0.13,0.326s0.1,0.258.11,0.306,0.04,0.1.05,0.124c0.11,0.243.11,0.239-.25,0.239-0.29,0-.32.013-0.32,0.122,0,0.147.08,0.188,0.42,0.2a1.081,1.081,0,0,1,.98.5c0.15,0.2.24,0.234,0.37,0.138,0.11-.093.04-0.277-0.21-0.509-0.13-.122-0.15-0.117.28-0.119a1.491,1.491,0,0,0,.42-0.028c0.15-.075.18-0.164,0.1-0.258l-0.04-.051h-0.5c-0.7,0-.68.008-0.87-0.449-0.04-.106-0.1-0.269-0.14-0.364-0.11-.262-0.11-0.25.06-0.239,0.33,0.022,1.65.01,1.88-.017,0.39-.047.33-0.093,0.52,0.419,0.08,0.219.08,0.217-.29,0.229l-0.3.01v0.074c0,0.141.09,0.18,0.47,0.212a2.552,2.552,0,0,1,.38.05,0.968,0.968,0,0,1,.52.4c0.19,0.261.24,0.29,0.37,0.227,0.17-.083.13-0.229-0.15-0.51-0.15-.153-0.13-0.175.09-0.148,0.47,0.057.76-.027,0.76-0.217,0-.1.03-0.095-0.61-0.093-0.72,0-.68.02-0.8-0.3a2.232,2.232,0,0,0-.11-0.28c-0.07-.182-0.07-0.194-0.02-0.206,0.1-.019.42-0.113,0.48-0.137,0.04-.014.12-0.045,0.18-0.068a3.793,3.793,0,0,0,2.04-1.774,4.352,4.352,0,0,0,.31-0.707,0.135,0.135,0,0,1,.13-0.083,1.592,1.592,0,0,0,1.2-1.087c0.24-.854-0.39-2.589-0.99-2.741l-0.07-.018-0.02-.206c-0.02-.113-0.04-0.287-0.05-0.387-0.03-.264-0.12-0.835-0.14-0.957a1.683,1.683,0,0,1-.05-0.2c-0.39-1.878-1.32-3.16-2.6-3.6-0.15-.053-0.15-0.046-0.14-0.257a1.435,1.435,0,0,0-1.43-1.539" transform="translate(-1340 -138)"/>
  <path class="cls-3" d="M1350.53,141.363c-0.18.049-.17,0.271,0.01,0.471,0.12,0.118.11,0.127-.07,0.066-0.52-.184-0.75.143-0.27,0.387,0.19,0.1.2,0.123,0.06,0.139a0.488,0.488,0,0,0-.42.244c-0.04.093-.02,0.1,0.26,0.053a7.889,7.889,0,0,1,1.35-.03c0.17,0.035.15-.379-0.06-0.772a1.018,1.018,0,0,0-.86-0.558m-0.23,1.623a3.216,3.216,0,0,0-.7.152,3.52,3.52,0,0,0-2.24,2.183,7.154,7.154,0,0,0-.43,2.466l-0.02.445,0.11,0.118a2.252,2.252,0,0,1,.3,2.393,2.343,2.343,0,0,1-2.15,1.14c-0.85,0-.96.072-0.75,0.52a4.262,4.262,0,0,0,2.35,1.806,7.378,7.378,0,0,0,1.13.319,8.63,8.63,0,0,0,4.19-.172c0.05-.019.14-0.059,0.22-0.089s0.17-.074.21-0.1a0.369,0.369,0,0,1,.09-0.044,3.9,3.9,0,0,0,.75-0.548,4.014,4.014,0,0,0,1.06-1.933,1.461,1.461,0,0,0,.04-0.192c0.02-.074.05-0.19,0.06-0.258s0.03-.233.05-0.364a19.462,19.462,0,0,0,.01-2.3c-0.06-.65-0.16-1.429-0.2-1.638a3.153,3.153,0,0,1-.06-0.316c-0.02-.089-0.05-0.21-0.06-0.268s-0.06-.2-0.09-0.306c-0.58-2.156-1.99-3.253-3.87-3.016m-0.04,3.073a0.226,0.226,0,0,1,.09.32,0.266,0.266,0,0,1-.45-0.016,0.248,0.248,0,0,1,.36-0.3m2.77,0.046a0.222,0.222,0,0,1-.08.366,0.238,0.238,0,1,1-.23-0.416,0.259,0.259,0,0,1,.31.05m-1.1.866c0.43,0.163.47,0.215,0.27,0.342-0.71.446-.65,0.434-1.02,0.214-0.61-.367-0.61-0.354.05-0.6a0.637,0.637,0,0,1,.7.044m-5.41,1.519a3.075,3.075,0,0,0-.39.4,10.485,10.485,0,0,0-1.02,1.678,0.739,0.739,0,0,1-.05.109,2.358,2.358,0,0,0-.24.735c0,0.123.07,0.147,0.43,0.147a1.8,1.8,0,0,0,1.42-3.079,0.108,0.108,0,0,0-.15.006m8.42,0.114a3.471,3.471,0,0,0,.01.426,11.01,11.01,0,0,1-.09,2.144c-0.02.122-.03,0.17-0.08,0.418-0.03.154-.03,0.155,0.16,0.071,0.72-.334.92-1.082,0.55-2.146a1.8,1.8,0,0,0-.55-0.913" transform="translate(-1340 -138)"/>
</svg>
