<svg xmlns="http://www.w3.org/2000/svg" width="20" height="20" viewBox="0 0 20 20">
  <defs>
    <style>
      .cls-1 {
        fill: #036593;
        fill-rule: evenodd;
      }
    </style>
  </defs>
  <path id="linked_in" data-name="linked in" class="cls-1" d="M1463.01,162a10,10,0,1,1-10.01,9.975A10,10,0,0,1,1463.01,162Zm3.1,15.158h2.13c-0.05-1.715-.03-3.4-0.19-5.075a1.855,1.855,0,0,0-1.93-1.776,2.753,2.753,0,0,0-2.58.849v-0.845h-1.89v6.836h1.99v-0.595c0-1.069-.01-2.138.01-3.207a1.212,1.212,0,0,1,.97-1.341,1.136,1.136,0,0,1,1.45,1.2c0.05,1.128.03,2.26,0.04,3.391v0.561Zm-8.27-6.859v6.863h2.36V170.3h-2.36Zm1.18-1.076a1.172,1.172,0,0,0,1.2-1.2,1.2,1.2,0,0,0-1.21-1.205,1.229,1.229,0,0,0-1.19,1.192A1.2,1.2,0,0,0,1459.02,169.223Z" transform="translate(-1453 -162)"/>
</svg>
