<svg xmlns="http://www.w3.org/2000/svg" xmlns:xlink="http://www.w3.org/1999/xlink" width="30" height="30" viewBox="0 0 30 30">
  <defs>
    <clipPath id="clip-path">
      <rect id="Rectangle_111" data-name="Rectangle 111" width="12.463" height="10.991" fill="#fff"/>
    </clipPath>
  </defs>
  <g id="Group_293" data-name="Group 293" transform="translate(-191 -989)">
    <circle id="Ellipse_4" data-name="Ellipse 4" cx="15" cy="15" r="15" transform="translate(191 989)" fill="#ed981c"/>
    <g id="Group_286" data-name="Group 286" transform="translate(199.769 998.506)">
      <g id="Group_285" data-name="Group 285" transform="translate(0 0)" clip-path="url(#clip-path)">
        <path id="Path_693" data-name="Path 693" d="M0,3.891V3.235a.432.432,0,0,0,.023-.081A3.539,3.539,0,0,1,.218,2.27,3.194,3.194,0,0,1,2.791.05,2.931,2.931,0,0,1,5.242.71a4.064,4.064,0,0,1,.932,1.126c.047.079.071.081.115,0a3.466,3.466,0,0,1,.322-.485A3.041,3.041,0,0,1,9.849.084,3.224,3.224,0,0,1,12.339,2.57c.062.218.072.445.124.665v.656a.8.8,0,0,0-.021.093,4.227,4.227,0,0,1-.724,1.932A11.379,11.379,0,0,1,9.793,8.032c-1.056.953-2.152,1.86-3.226,2.791a.421.421,0,0,1-.671,0Q4.482,9.607,3.069,8.387A15.193,15.193,0,0,1,1.1,6.407,5.176,5.176,0,0,1,.157,4.685,7.25,7.25,0,0,1,0,3.891" transform="translate(0 0)" fill="#fff"/>
      </g>
    </g>
  </g>
</svg>
