<svg xmlns="http://www.w3.org/2000/svg" width="37" height="37" viewBox="0 0 37 37">
  <defs>
    <style>
      .cls-1 {
        fill: #c2c2c2;
        fill-rule: evenodd;
      }
    </style>
  </defs>
  <path class="cls-1" d="M570.458,686A18.5,18.5,0,1,1,552,704.337,18.519,18.519,0,0,1,570.458,686Zm16.677,18.56a16.043,16.043,0,0,0-.763-5.037,16.642,16.642,0,0,0-32.312,2.438,16.265,16.265,0,0,0,.632,7.705,16.744,16.744,0,0,0,4.065,6.61,0.411,0.411,0,0,0,.5.118q2.523-.978,5.052-1.936a0.52,0.52,0,0,0,.37-0.423c0.08-.395.2-0.784,0.251-1.182A0.963,0.963,0,0,1,566,711.8c0.213,0.011.283-.123,0.279-0.336-0.012-.6.008-1.191-0.011-1.786a1.566,1.566,0,0,0-.146-0.6,10.313,10.313,0,0,1-1.137-3.235,0.309,0.309,0,0,0-.166-0.217,1.189,1.189,0,0,1-.727-0.8,6.023,6.023,0,0,1-.32-1.069,14.015,14.015,0,0,1-.215-1.731,0.749,0.749,0,0,1,.289-0.519,0.358,0.358,0,0,0,.159-0.4,15.751,15.751,0,0,1-.174-3.707,2.091,2.091,0,0,1,.89-1.606,0.765,0.765,0,0,0,.336-0.537,2.816,2.816,0,0,1,1.647-2.243,7.454,7.454,0,0,1,1.971-.546,11.482,11.482,0,0,1,4.472.284,5.666,5.666,0,0,1,3.753,2.953,1.938,1.938,0,0,1,.216,1.761,1.218,1.218,0,0,0-.067.416q-0.082,1.645-.153,3.292a0.322,0.322,0,0,0,.067.242,1.036,1.036,0,0,1,.394,1.278c-0.1.544-.211,1.088-0.359,1.621a1.609,1.609,0,0,1-.959,1.332,0.311,0.311,0,0,0-.1.195,14.471,14.471,0,0,1-.615,2.045,5.272,5.272,0,0,0-.674,3,1.9,1.9,0,0,0,.057.788,1.637,1.637,0,0,0,.784.217,0.127,0.127,0,0,1,.058.013,0.829,0.829,0,0,1,.264.277q0.243,0.92.432,1.853a0.493,0.493,0,0,0,.331.415q2.507,1.017,5,2.059a0.442,0.442,0,0,0,.556-0.128A16.542,16.542,0,0,0,587.135,704.561Z" transform="translate(-552 -686)"/>
</svg>
