<svg xmlns="http://www.w3.org/2000/svg" xmlns:xlink="http://www.w3.org/1999/xlink" width="30" height="30" viewBox="0 0 30 30">
  <defs>
    <clipPath id="clip-path">
      <rect id="Rectangle_113" data-name="Rectangle 113" width="13.586" height="13.586" fill="#fff"/>
    </clipPath>
  </defs>
  <g id="Group_295" data-name="Group 295" transform="translate(-289 -989)">
    <circle id="Ellipse_6" data-name="Ellipse 6" cx="15" cy="15" r="15" transform="translate(289 989)" fill="#ed981c"/>
    <g id="Group_290" data-name="Group 290" transform="translate(297.207 997.207)">
      <g id="Group_289" data-name="Group 289" transform="translate(0 0)" clip-path="url(#clip-path)">
        <path id="Path_696" data-name="Path 696" d="M7.271,13.587H6.316a3.636,3.636,0,0,0-.47-.061,6.677,6.677,0,0,1-3.33-1.455A6.675,6.675,0,0,1,.105,7.99C.062,7.751.034,7.51,0,7.271V6.316c.029-.217.053-.437.09-.654A6.652,6.652,0,0,1,1.616,2.393,6.683,6.683,0,0,1,5.584.108C5.827.063,6.072.035,6.316,0h.955a.555.555,0,0,0,.1.024,6.04,6.04,0,0,1,1.948.46A6.714,6.714,0,0,1,13.48,5.6c.048.237.072.479.106.718v.955a.925.925,0,0,0-.026.115,6.509,6.509,0,0,1-1.15,3.228,6.678,6.678,0,0,1-4.436,2.869c-.233.042-.469.07-.7.1m.583-5.31a.952.952,0,0,1-.1.449,1.061,1.061,0,0,1-2.024-.418A.434.434,0,0,0,5.3,7.855a.441.441,0,0,0-.412.49,1.826,1.826,0,0,0,.067.43,1.874,1.874,0,0,0,1.253,1.314c.117.04.176.1.165.23a2.124,2.124,0,0,0,0,.305.42.42,0,0,0,.83.083,1.318,1.318,0,0,0,.018-.343c0-.211,0-.211.2-.281a1.9,1.9,0,0,0,1.1-2.618,1.868,1.868,0,0,0-1.753-1.1A1.063,1.063,0,1,1,7.854,5.285a.432.432,0,0,0,.441.447A.441.441,0,0,0,8.7,5.248,1.92,1.92,0,0,0,7.387,3.5c-.123-.042-.184-.1-.171-.239a1.843,1.843,0,0,0,0-.291.42.42,0,0,0-.832-.082,1.058,1.058,0,0,0-.013.356c.012.153-.053.217-.193.264a1.908,1.908,0,0,0,.627,3.713A1.055,1.055,0,0,1,7.854,8.278" transform="translate(0 0)" fill="#fff"/>
      </g>
    </g>
  </g>
</svg>
