<svg xmlns="http://www.w3.org/2000/svg" width="14" height="7" viewBox="0 0 14 7">
  <defs>
    <style>
      .cls-1 {
        fill: #fff;
        fill-rule: evenodd;
      }
    </style>
  </defs>
  <path id="more_arrow_icon" class="cls-1" d="M75.153,3621.49l1.648,1.65a0.822,0.822,0,0,1,.2.27,0.485,0.485,0,0,1-.169.42c-0.2.2-.4,0.41-0.6,0.61a0.252,0.252,0,0,1-.071.1c-0.239.24-.478,0.48-0.715,0.72a1.587,1.587,0,0,1-.21.17c-0.027.03-.054,0.05-0.08,0.08a11.018,11.018,0,0,0-.887.88,0.215,0.215,0,0,1-.146.15,5.279,5.279,0,0,1-.518.45,0.372,0.372,0,0,1-.181-0.01,0.4,0.4,0,0,1-.289-0.24,0.433,0.433,0,0,1-.061-0.33c-0.007-.32-0.007-0.65,0-0.97-0.019-.33.024-0.65-0.026-0.97a0.266,0.266,0,0,0-.257-0.05H65.677c-0.761,0-1.522,0-2.284-.01a0.4,0.4,0,0,1-.385-0.33c-0.03-.4.035-0.79,0.039-1.19a0.356,0.356,0,0,0,.006-0.04,0.363,0.363,0,0,1,.4-0.27c0.245-.01.491,0,0.736,0h8.6a0.372,0.372,0,0,0,.232-0.03,0.207,0.207,0,0,0,.048-0.17c0-.32-0.006-0.64,0-0.96s-0.008-.67,0-1a0.2,0.2,0,0,1,.08-0.18,0.386,0.386,0,0,1,.689-0.05c0.069,0.06.141,0.13,0.212,0.19a0.556,0.556,0,0,0,.1.07c0.313,0.31.624,0.62,0.933,0.94A0.934,0.934,0,0,1,75.153,3621.49Z" transform="translate(-63 -3620)"/>
</svg>
