<svg xmlns="http://www.w3.org/2000/svg" width="35" height="35" viewBox="0 0 35 35">
  <defs>
    <style>
      .cls-1 {
        fill-rule: evenodd;
      }
    </style>
  </defs>
  <path class="cls-1" d="M295.5,170A17.5,17.5,0,1,1,313,152.5,17.519,17.519,0,0,1,295.5,170Zm0-32.813A15.313,15.313,0,1,0,310.812,152.5,15.33,15.33,0,0,0,295.5,137.187Zm7.656,16.407H287.844a1.094,1.094,0,0,1,0-2.188h15.312A1.094,1.094,0,0,1,303.156,153.594ZM295.5,161.25a1.094,1.094,0,0,1-1.094-1.094V144.844a1.094,1.094,0,0,1,2.188,0v15.312A1.094,1.094,0,0,1,295.5,161.25Z" transform="translate(-278 -135)"/>
</svg>
