<svg xmlns="http://www.w3.org/2000/svg" width="10" height="9" viewBox="0 0 10 9">
  <defs>
    <style>
      .cls-1 {
        fill: #e5001b;
        fill-rule: evenodd;
      }
    </style>
  </defs>
  <path id="previous-story_arrow" class="cls-1" d="M651,3602.52a0.39,0.39,0,0,1,.071.07c1.259,1.44,2.518,2.89,3.776,4.33,0.023,0.03.039,0.06,0.053,0.08,0.372-.43.732-0.84,1.1-1.26q-1.4-1.6-2.818-3.23,1.423-1.635,2.822-3.24c-0.367-.42-0.727-0.83-1.109-1.27a0.45,0.45,0,0,1-.039.08q-1.889,2.16-3.781,4.34c-0.021.02-.047,0.04-0.071,0.06v0.04Zm5,0a0.39,0.39,0,0,1,.071.07c1.259,1.44,2.518,2.89,3.776,4.33,0.023,0.03.039,0.06,0.053,0.08,0.372-.43.732-0.84,1.1-1.26q-1.4-1.6-2.818-3.23,1.423-1.635,2.822-3.24c-0.367-.42-0.727-0.83-1.109-1.27a0.45,0.45,0,0,1-.039.08q-1.889,2.16-3.781,4.34c-0.021.02-.047,0.04-0.071,0.06v0.04Z" transform="translate(-651 -3598)"/>
</svg>
