<svg xmlns="http://www.w3.org/2000/svg" width="19" height="18.969" viewBox="0 0 19 18.969">
  <defs>
    <style>
      .cls-1 {
        fill: #9c8d8d;
        fill-rule: evenodd;
      }
    </style>
  </defs>
  <path id="SARCH_icon" class="cls-1" d="M1492.57,199a7.55,7.55,0,1,1-7.57,7.547A7.562,7.562,0,0,1,1492.57,199Zm0.01,2.594a4.955,4.955,0,1,0,4.95,4.951A4.966,4.966,0,0,0,1492.58,201.594Zm7,9.252c0.52,0.521,1.01,1.01,1.49,1.5,0.78,0.777,1.57,1.547,2.34,2.331a1.907,1.907,0,1,1-2.7,2.693c-1.27-1.255-2.54-2.524-3.83-3.814A8.587,8.587,0,0,0,1499.58,210.846Z" transform="translate(-1485 -199)"/>
</svg>
