<svg id="signin-with_google" data-name="signin-with google" xmlns="http://www.w3.org/2000/svg" width="100" height="35" viewBox="0 0 100 35">
  <defs>
    <style>
      .cls-1 {
        fill: #ff2c25;
      }

      .cls-2 {
        font-size: 24.956px;
        font-family: "Proxima Nova";
        font-weight: 600;
      }

      .cls-2, .cls-3 {
        fill: #fff;
      }

      .cls-3 {
        fill-rule: evenodd;
      }
    </style>
  </defs>
  <rect id="Rounded_Rectangle_1_copy" data-name="Rounded Rectangle 1 copy" class="cls-1" width="100" height="35" rx="2" ry="2"/>
  <text id="Google" class="cls-2" transform="translate(37.836 21.727) scale(0.561)">Google</text>
  <path class="cls-3" d="M1723.45,260.354c-0.5.653-1,1.3-1.5,1.946a4.025,4.025,0,0,0-6.15,4.773,4.007,4.007,0,0,0,7.5-.332h-3.79v-2.482h6.46a0.064,0.064,0,0,1,.02.026,10.156,10.156,0,0,1-.15,2.583,6.337,6.337,0,0,1-5.04,4.982,6.43,6.43,0,0,1-6.93-3.121,6.172,6.172,0,0,1-.86-3.526,6.375,6.375,0,0,1,3.25-5.333,6.235,6.235,0,0,1,3.86-.84,6.414,6.414,0,0,1,3.29,1.279A0.462,0.462,0,0,1,1723.45,260.354Z" transform="translate(-1694 -248)"/>
</svg>
