<svg xmlns="http://www.w3.org/2000/svg" xmlns:xlink="http://www.w3.org/1999/xlink" width="39" height="31.03" viewBox="0 0 39 31.03">
  <defs>
    <style>
      .cls-1 {
        fill-rule: evenodd;
        fill: url(#linear-gradient);
      }
    </style>
    <linearGradient id="linear-gradient" x1="1361.5" y1="3263" x2="1361.5" y2="3231.97" gradientUnits="userSpaceOnUse">
      <stop offset="0" stop-color="#ff0006"/>
      <stop offset="1" stop-color="#ff7c00"/>
    </linearGradient>
  </defs>
  <path id="TauRUS" class="cls-1" d="M1370.74,3255.71c1.26-.4,2.74-0.46,3.56-1.21,1.98-1.81,2.42-8.12,1.02-10.85-1.06-2.05-2.76-2.76-5.26-2.04,1.07-3.3,3.64-4.2,6.51-4.7-3.47-.81-5.98.67-7.85,4.38,1.86,2.33,3.64,4.54,5.41,6.75-0.21.28-.42,0.55-0.63,0.82l-3.8-.89c-1.09,2.14-2.35,4.31-3.32,6.59-0.79,1.9-1.02,4.05-1.92,5.89a5.1,5.1,0,0,1-2.87,2.46c-1.48.39-2.52-.55-3.09-2.23-1.45-4.33-3.19-8.57-4.81-12.86-1.23.33-2.62,0.71-4.02,1.09-0.24-.26-0.48-0.53-0.72-0.79,1.72-2.2,3.44-4.4,5.32-6.82-1.43-3.47-3.94-5.03-8.54-4.46,3.54,0.46,6.09,1.48,7.28,4.53-3.89-.29-5.87,1.31-5.96,5.11a23.356,23.356,0,0,0,.72,6.45c0.67,2.52,2.21,3.05,4.77,2.12-1.28,2.75-2.89,3.52-5.28,1.88a11.135,11.135,0,0,1-3.71-4.48,19.16,19.16,0,0,1-.48-13.88,8.946,8.946,0,0,1,7.65-6.5c3.47-.5,5.85,1.43,7.87,3.89,1.91,2.34,3.89,2.5,5.61.35,2.19-2.74,4.69-4.9,8.55-4.16,4.13,0.78,6.47,3.44,7.49,7.37a19.606,19.606,0,0,1-.99,13.58,9.725,9.725,0,0,1-3.3,3.79C1373.56,3258.49,1372.01,3257.86,1370.74,3255.71Z" transform="translate(-1342 -3231.97)"/>
</svg>
