<svg id="Group_210" data-name="Group 210" xmlns="http://www.w3.org/2000/svg" xmlns:xlink="http://www.w3.org/1999/xlink" width="59.804" height="59.803" viewBox="0 0 59.804 59.803">
  <defs>
    <clipPath id="clip-path">
      <rect id="Rectangle_91" data-name="Rectangle 91" width="59.804" height="59.803" fill="none"/>
    </clipPath>
    <clipPath id="clip-path-2">
      <path id="Path_120" data-name="Path 120" d="M41.467,30.469a54.179,54.179,0,0,0-6.845.421,5.783,5.783,0,0,0-3.3,1.242A6.3,6.3,0,0,0,29.68,36.19c-.34,3.683.742,7.27,2.146,10.63.717,1.716,1.594,3.374,2.267,5.106a38.506,38.506,0,0,0,1.6,4.546,4.856,4.856,0,0,0,2.466,2.492,15.647,15.647,0,0,0,3.391.513,15.213,15.213,0,0,0,3.676-.422A3.75,3.75,0,0,0,47.519,57.4c1.151-1.515,1.512-3.367,2.081-5.14.628-1.956,1.62-3.793,2.419-5.682,1.552-3.669,2.794-7.781,1.9-11.784a4.716,4.716,0,0,0-2.451-3.338,10.712,10.712,0,0,0-3.365-.687c-2.1-.2-4.224-.3-6.338-.3h-.294" transform="translate(-29.617 -30.468)" fill="none"/>
    </clipPath>
  </defs>
  <g id="Group_205" data-name="Group 205" transform="translate(0 0)">
    <g id="Group_204" data-name="Group 204" clip-path="url(#clip-path)">
      <path id="Path_94" data-name="Path 94" d="M59.8,29.9A29.9,29.9,0,1,1,29.9,0,29.9,29.9,0,0,1,59.8,29.9" transform="translate(0 0)" fill="#35208a"/>
      <path id="Path_95" data-name="Path 95" d="M76.548,39.766a.112.112,0,0,0-.03-.062c-.356-.743-1.453-.92-2.175-1.061a8.164,8.164,0,0,0-3.2,0,7.678,7.678,0,0,0-4.679,3.3,2.747,2.747,0,0,0-.559,1.9,2.084,2.084,0,0,0,1.35,1.44,6.678,6.678,0,0,0,5.715-.559,8.767,8.767,0,0,0,2.728-2.15,4.066,4.066,0,0,0,.852-2.813" transform="translate(-26.705 -15.598)" fill="#96cbeb"/>
      <path id="Path_96" data-name="Path 96" d="M75.963,42.384a.806.806,0,0,0-.56-.451,5.385,5.385,0,0,0-3.258-.15,4.4,4.4,0,0,0-2.585,1.943,1.556,1.556,0,0,0-.4,1.605,1.9,1.9,0,0,0,1.159.755,5.2,5.2,0,0,0,4.609-1.414,3.055,3.055,0,0,0,.709-.833,3.71,3.71,0,0,0,.314-1.065.845.845,0,0,0,.012-.389" transform="translate(-27.994 -16.861)" fill="#647fa0"/>
      <path id="Path_97" data-name="Path 97" d="M27.134,42.467a7.229,7.229,0,0,0-1.664-2.138A6.983,6.983,0,0,0,23.088,38.9a7.8,7.8,0,0,0-3.608-.347c-.833.109-2.292.275-2.711,1.147a.114.114,0,0,0-.03.063c-.277,1.946,1.292,3.5,2.757,4.47a7.453,7.453,0,0,0,5.8,1.3,2.918,2.918,0,0,0,1.972-1.287,2.2,2.2,0,0,0-.132-1.781" transform="translate(-6.772 -15.599)" fill="#96cbeb"/>
      <path id="Path_98" data-name="Path 98" d="M19.9,42.384a.806.806,0,0,1,.56-.451,5.385,5.385,0,0,1,3.258-.15A4.4,4.4,0,0,1,26.3,43.725a1.557,1.557,0,0,1,.4,1.605,1.9,1.9,0,0,1-1.159.755,5.2,5.2,0,0,1-4.609-1.414,3.055,3.055,0,0,1-.709-.833,3.71,3.71,0,0,1-.314-1.065.845.845,0,0,1-.012-.389" transform="translate(-8.057 -16.861)" fill="#647fa0"/>
      <path id="Path_99" data-name="Path 99" d="M53.915,31.942A4.716,4.716,0,0,0,51.465,28.6a10.716,10.716,0,0,0-3.365-.688q-1.6-.153-3.215-.227c.043-.064.086-.127.125-.193.346-.576.791-1.593.4-2.234a.112.112,0,0,0-.066-.081,1.431,1.431,0,0,0-1.662.55c.216-.969.17-2.1-.987-2.282-1.217-.188-1.887,1.22-2.163,2.326-.167-.623-.46-1.377-1-1.468-.706-.12-1.16.738-1.255,1.3a3.492,3.492,0,0,0,.423,2.072c-1.37.063-2.739.174-4.088.353a5.781,5.781,0,0,0-3.3,1.242,6.3,6.3,0,0,0-1.642,4.057c-.34,3.684.742,7.27,2.146,10.63.717,1.716,1.594,3.374,2.267,5.106a38.437,38.437,0,0,0,1.6,4.546,4.856,4.856,0,0,0,2.466,2.492,15.678,15.678,0,0,0,3.391.513A15.272,15.272,0,0,0,45.23,56.2a3.754,3.754,0,0,0,2.289-1.654c1.151-1.515,1.511-3.367,2.081-5.14.629-1.956,1.62-3.793,2.419-5.683,1.551-3.668,2.795-7.781,1.9-11.783" transform="translate(-12.005 -9.498)" fill="#96cbeb"/>
      <path id="Path_100" data-name="Path 100" d="M62.755,54.249a1.327,1.327,0,1,0-1.327-1.327,1.342,1.342,0,0,0,1.327,1.327" transform="translate(-24.898 -20.913)" fill="#35208a"/>
      <path id="Path_101" data-name="Path 101" d="M36.01,54.249a1.327,1.327,0,1,0-1.327-1.327,1.342,1.342,0,0,0,1.327,1.327" transform="translate(-14.057 -20.913)" fill="#35208a"/>
      <path id="Path_102" data-name="Path 102" d="M40,70.378c.653-2.681,3.975-3.788,6.445-3.793,2.319-.005,5.623,1.076,5.539,3.911a.162.162,0,0,0,.325,0c.083-2.914-3.157-4.157-5.6-4.226-2.595-.072-6.411,1.1-6.98,4.034-.034.175.227.252.271.074" transform="translate(-16.101 -26.86)" fill="#35208a"/>
      <path id="Path_103" data-name="Path 103" d="M44.3,71.467a4.021,4.021,0,0,1,.94.491c.079.066.273.2.261.315-.014.126-.26.272-.35.343-.364.287.114.909.5.645.506-.347.918-.944.5-1.528a2.358,2.358,0,0,0-1.666-.932.36.36,0,0,0-.18.666" transform="translate(-17.886 -28.698)" fill="#35208a"/>
      <path id="Path_104" data-name="Path 104" d="M54.581,70.8a2.354,2.354,0,0,0-1.666.932c-.422.585-.01,1.18.5,1.528.38.261.866-.356.5-.646-.086-.068-.3-.193-.329-.31-.037-.142.133-.258.24-.348a4.019,4.019,0,0,1,.94-.49.36.36,0,0,0-.18-.666" transform="translate(-21.377 -28.698)" fill="#35208a"/>
      <path id="Path_105" data-name="Path 105" d="M75.135,27.526c-.792-2.467-3.247-3.872-4.317-6.18a.089.089,0,0,0-.161.021,6.577,6.577,0,0,0-.165,1.864,6.694,6.694,0,0,0,.612,1.94c.171.409.36.812.512,1.227a2.384,2.384,0,0,1,.192.775c0,.658-.734.852-1.289.9a14.318,14.318,0,0,1-2.368-.246c-.95-.09-1.9-.208-2.857-.264s-2.35-.177-3.181.441c-1.61,1.195-.827,4.089.6,5.1.772.551,1.86.2,2.693.018,1.565-.344,3.162-.539,4.729-.88a9.188,9.188,0,0,0,4.115-1.666,2.711,2.711,0,0,0,.888-3.053" transform="translate(-24.813 -8.635)" fill="#fff"/>
      <path id="Path_106" data-name="Path 106" d="M26.833,27.545a34.288,34.288,0,0,0-5.095.4c-.768.1-2.753.392-2.541-.926a6.948,6.948,0,0,1,.565-1.553,8.752,8.752,0,0,0,.706-2,6.06,6.06,0,0,0-.134-2.107.089.089,0,0,0-.161-.021c-1.07,2.309-3.526,3.714-4.317,6.18a2.7,2.7,0,0,0,.583,2.785A6.874,6.874,0,0,0,19.76,32c1.629.384,3.272.7,4.924.962.973.155,2.115.636,3.1.374a3.139,3.139,0,0,0,1.688-1.882,3.229,3.229,0,0,0-.161-2.954,2.722,2.722,0,0,0-2.482-.951" transform="translate(-6.37 -8.635)" fill="#fff"/>
      <path id="Path_107" data-name="Path 107" d="M78.446,33.04a.959.959,0,0,0,.5-1.3.126.126,0,0,0-.209.055,5.159,5.159,0,0,1-.06.6,4.2,4.2,0,0,1-.328.528.085.085,0,0,0,.095.123" transform="translate(-31.754 -12.849)" fill="#35208a"/>
      <path id="Path_108" data-name="Path 108" d="M21.736,32.917a4.2,4.2,0,0,1-.328-.528,5.173,5.173,0,0,1-.06-.6.126.126,0,0,0-.209-.055.958.958,0,0,0,.5,1.3.085.085,0,0,0,.095-.123" transform="translate(-8.525 -12.849)" fill="#35208a"/>
      <path id="Path_109" data-name="Path 109" d="M45.423,75.943a4.023,4.023,0,0,0,5.951.036c.074-.1-.07-.233-.168-.168a4.942,4.942,0,0,1-2.821,1.132A4.886,4.886,0,0,1,45.569,75.8c-.086-.057-.208.059-.146.146" transform="translate(-18.405 -30.717)" fill="#35208a"/>
      <path id="Path_110" data-name="Path 110" d="M70.632,41.286c-.178.231-.073.527-.058.805a7.183,7.183,0,0,1,0,1.264c-.024.18.294.192.29,0-.008-.422.037-.839.01-1.264-.017-.272.022-.626-.208-.805a.026.026,0,0,0-.037,0" transform="translate(-28.588 -16.731)" fill="#35208a"/>
      <path id="Path_111" data-name="Path 111" d="M29.9,40.934A5.8,5.8,0,0,0,29.78,42.6c0,.644-.015,1.291.016,1.934a.145.145,0,0,0,.29,0c.023-.643,0-1.29-.011-1.934a5.8,5.8,0,0,0-.142-1.663.019.019,0,0,0-.036,0" transform="translate(-12.069 -16.586)" fill="#35208a"/>
      <path id="Path_112" data-name="Path 112" d="M29.953,47.676c-.209.185-.158.643-.11.887.032.167.32.131.3-.041s-.037-.316-.049-.475a.774.774,0,0,0-.071-.362.045.045,0,0,0-.069-.009" transform="translate(-12.079 -19.319)" fill="#35208a"/>
      <path id="Path_113" data-name="Path 113" d="M70.208,46.153A9.1,9.1,0,0,0,70.1,47.2q-.037.318-.1.633-.033.168-.072.334c-.092.161-.069.207.066.14l.067.164.009-.02a.1.1,0,0,0-.056-.138l-.019-.006a.112.112,0,0,0-.125.051l-.01.018a.142.142,0,0,0,.158.205c.3-.055.294-.695.33-.917a4.159,4.159,0,0,0,.067-1.515.105.105,0,0,0-.2,0" transform="translate(-28.307 -18.677)" fill="#35208a"/>
      <path id="Path_114" data-name="Path 114" d="M41.218,35.354a8.925,8.925,0,0,1,.63.816,4.549,4.549,0,0,1,.378,1.056.142.142,0,0,0,.278-.037,2.454,2.454,0,0,0-1.2-1.921c-.05-.023-.127.03-.086.086" transform="translate(-16.702 -14.293)" fill="#35208a"/>
      <path id="Path_115" data-name="Path 115" d="M43.817,36.47c-.057.384.251.764.343,1.141.1.42-.01.954.18,1.332a.083.083,0,0,0,.141,0c.259-.357.087-1.017-.016-1.416-.092-.352-.227-.946-.6-1.083a.038.038,0,0,0-.048.027" transform="translate(-17.758 -14.771)" fill="#35208a"/>
      <path id="Path_116" data-name="Path 116" d="M59.6,40.439a3.321,3.321,0,0,0-.2,3.225.124.124,0,0,0,.225-.095,6.58,6.58,0,0,1-.2-1.541,5.193,5.193,0,0,1,.394-1.5c.049-.134-.146-.2-.218-.092" transform="translate(-23.943 -16.37)" fill="#35208a"/>
      <path id="Path_117" data-name="Path 117" d="M60.778,44.293a1.876,1.876,0,0,0,.062,1.979.11.11,0,0,0,.186-.077,8.489,8.489,0,0,0-.146-.913c-.015-.312.078-.62.049-.926-.006-.066-.1-.13-.151-.062" transform="translate(-24.533 -17.942)" fill="#35208a"/>
    </g>
  </g>
  <g id="Group_207" data-name="Group 207" transform="translate(17.613 18.118)">
    <g id="Group_206" data-name="Group 206" clip-path="url(#clip-path-2)">
      <path id="Path_118" data-name="Path 118" d="M63.248,61.5a1.893,1.893,0,1,1,1.893-1.893A1.915,1.915,0,0,1,63.248,61.5" transform="translate(-42.481 -41.512)" fill="#e0435b"/>
      <path id="Path_119" data-name="Path 119" d="M34.8,61.5a1.893,1.893,0,1,1,1.893-1.893A1.915,1.915,0,0,1,34.8,61.5" transform="translate(-30.95 -41.512)" fill="#e0435b"/>
    </g>
  </g>
  <g id="Group_209" data-name="Group 209" transform="translate(0 0)">
    <g id="Group_208" data-name="Group 208" clip-path="url(#clip-path)">
      <path id="Path_121" data-name="Path 121" d="M79.111,72.126a.083.083,0,0,0-.029-.07c-.177-.334-.818-.4-1.139-.463-.524-.1-1.056-.167-1.587-.236-.087-.011-.174-.026-.26-.036-.035,0-.1-.034-.09-.018a1.63,1.63,0,0,1-.16-.368c-.22-.512-.432-1.028-.655-1.538-.113-.259-.228-.517-.351-.771-.076-.157-.162-.451-.337-.527-.387-.169-.657.787-.76,1.017-.246.551-.477,1.109-.716,1.663-.05.116-.134.451-.239.53a2.617,2.617,0,0,1-.5.026c-.236.019-.472.037-.707.059a6.208,6.208,0,0,0-1.2.19c-.234.069-.652.181-.615.5.03.266.438.517.621.663a7.877,7.877,0,0,0,1,.673,4.772,4.772,0,0,1,.5.266c.187.142.1.29.046.481-.106.4-.215.806-.313,1.212-.08.33-.157.662-.208,1a1.338,1.338,0,0,0-.017.7c.243.517,1.176-.388,1.4-.561q.424-.326.83-.675c.133-.114.264-.23.393-.348.073-.067.257-.321.351-.336.152-.026.561.47.684.576.279.241.567.472.859.7a2.848,2.848,0,0,0,1.359.768c.458.041.24-.653.179-.927-.145-.652-.357-1.29-.551-1.93-.042-.137-.1-.278-.125-.42s-.027-.144.1-.222c.253-.153.561-.247.827-.381.426-.215,1.279-.6,1.4-1.135a.091.091,0,0,0,.01-.064" transform="translate(-28.276 -27.594)" fill="#f7b9e7"/>
      <path id="Path_122" data-name="Path 122" d="M36.263,12.633c-.721-.063-1.456-.055-2.186-.047q.31-.305.617-.613a4.482,4.482,0,0,0,.894-1.039.2.2,0,0,0-.275-.275,4.522,4.522,0,0,0-1.056.877q-.319.307-.635.617,0-.445,0-.89a4.492,4.492,0,0,0-.1-1.369.2.2,0,0,0-.388,0,4.53,4.53,0,0,0-.127,1.369c-.006.295-.01.59-.012.884q-.312-.317-.627-.631a4.482,4.482,0,0,0-1.039-.894.2.2,0,0,0-.275.275,4.519,4.519,0,0,0,.877,1.055c.2.213.41.424.616.635-.3,0-.593,0-.89,0a4.492,4.492,0,0,0-1.369.1.2.2,0,0,0,0,.388,4.53,4.53,0,0,0,1.369.127c.288.006.577.01.865.012-.532.5-1.069,1.008-1.544,1.556a.3.3,0,0,0,.425.424c.549-.46,1.059-.981,1.565-1.5-.021.725-.042,1.455.008,2.171a.3.3,0,0,0,.6,0c.062-.714.055-1.442.047-2.166.5.527,1,1.059,1.541,1.529a.3.3,0,0,0,.425-.424c-.461-.549-.981-1.059-1.5-1.565.725.021,1.455.042,2.172-.008a.3.3,0,0,0,0-.6" transform="translate(-12.219 -3.952)" fill="#fff"/>
      <path id="Path_123" data-name="Path 123" d="M55.382,11.676l.158.014a.669.669,0,0,0,.475-.2.659.659,0,0,0,.2-.475c0-.053-.01-.105-.014-.158a1.045,1.045,0,0,0-.111-.412.785.785,0,0,0-.39-.334.813.813,0,0,0-.891.169.852.852,0,0,0-.21.794.808.808,0,0,0,.293.423.866.866,0,0,0,.494.175" transform="translate(-22.118 -4.074)" fill="#fff"/>
      <path id="Path_124" data-name="Path 124" d="M61.223,22.148a.927.927,0,0,0,.032-.643.744.744,0,0,0-.33-.429A.72.72,0,0,0,60.371,21a1.047,1.047,0,0,0-.421.239,1.5,1.5,0,0,0-.205.283.827.827,0,0,0-.081.623.779.779,0,0,0,.469.524.767.767,0,0,0,.623,0,.61.61,0,0,0,.26-.167.81.81,0,0,0,.208-.357" transform="translate(-24.173 -8.502)" fill="#fff"/>
      <path id="Path_125" data-name="Path 125" d="M76.938,17.255a.832.832,0,0,0,.569-.235.805.805,0,0,0,0-1.138.805.805,0,0,0-1.138,0,.805.805,0,0,0,0,1.138.836.836,0,0,0,.569.235" transform="translate(-30.859 -6.342)" fill="#fff"/>
      <path id="Path_126" data-name="Path 126" d="M85.555,48.346c.007.019.014.038.022.057a.8.8,0,0,0,.262.379.7.7,0,0,0,.442.157.866.866,0,0,0,.368-.1.776.776,0,0,0,.336-.436l.021-.057a.736.736,0,0,0-.193-.733.754.754,0,0,0-1.064,0,.741.741,0,0,0-.194.733" transform="translate(-34.664 -19.21)" fill="#fff"/>
      <path id="Path_127" data-name="Path 127" d="M74.025,62.348a.75.75,0,0,0,.514-.213.741.741,0,0,0,.213-.515.733.733,0,0,0-.213-.514.726.726,0,0,0-1.029,0,.727.727,0,0,0,0,1.029.757.757,0,0,0,.514.213" transform="translate(-29.709 -24.681)" fill="#fff"/>
      <path id="Path_128" data-name="Path 128" d="M59.728,83.571a.707.707,0,0,0,0-1.414.707.707,0,0,0,0,1.414" transform="translate(-23.933 -33.301)" fill="#fff"/>
      <path id="Path_129" data-name="Path 129" d="M46.652,95.3a.768.768,0,0,0,0-1.535.768.768,0,0,0,0,1.535" transform="translate(-18.609 -38.005)" fill="#fff"/>
      <path id="Path_130" data-name="Path 130" d="M37.321,84.3a.8.8,0,0,0,0-1.594.8.8,0,0,0,0,1.594" transform="translate(-14.815 -33.522)" fill="#fff"/>
      <path id="Path_131" data-name="Path 131" d="M18.422,76.577a.808.808,0,0,0,.553-.229.782.782,0,0,0-.553-1.336.805.805,0,0,0-.553.229.782.782,0,0,0,.553,1.336" transform="translate(-7.15 -30.405)" fill="#fff"/>
      <path id="Path_132" data-name="Path 132" d="M27.76,62.2a1.441,1.441,0,0,0,.35-.052.736.736,0,0,0,.528-.693.749.749,0,0,0-.528-.694,1.445,1.445,0,0,0-.35-.052.746.746,0,0,0-.527,1.273.735.735,0,0,0,.527.218" transform="translate(-10.95 -24.606)" fill="#fff"/>
      <path id="Path_133" data-name="Path 133" d="M11.189,53.067l.012-.1c.118-.934-1.572-.935-1.454,0l.012.1a.715.715,0,0,0,1.429,0" transform="translate(-3.949 -21.186)" fill="#fff"/>
      <path id="Path_134" data-name="Path 134" d="M12.1,30.253a.634.634,0,0,0,.3-.057,1.035,1.035,0,0,0,.239-.156.659.659,0,0,0,.2-.473.647.647,0,0,0-.2-.473,1.02,1.02,0,0,0-.239-.156.652.652,0,0,0-.3-.057.728.728,0,0,0-.485.2.686.686,0,0,0,0,.97.758.758,0,0,0,.485.2" transform="translate(-4.627 -11.706)" fill="#fff"/>
      <path id="Path_135" data-name="Path 135" d="M69.537,90.4a.761.761,0,0,0,0-1.521.761.761,0,0,0,0,1.521" transform="translate(-27.888 -36.027)" fill="#fff896"/>
      <path id="Path_136" data-name="Path 136" d="M88.762,62.453a.732.732,0,0,0,.5-.208.709.709,0,0,0-.5-1.211.734.734,0,0,0-.5.208.71.71,0,0,0,.5,1.211" transform="translate(-35.69 -24.739)" fill="#fff896"/>
      <path id="Path_137" data-name="Path 137" d="M66.159,11.342a.615.615,0,1,0-.615-.615.623.623,0,0,0,.615.615" transform="translate(-26.567 -4.098)" fill="#fff896"/>
      <path id="Path_138" data-name="Path 138" d="M25.735,85.037a.616.616,0,0,0,0-1.231.616.616,0,0,0,0,1.231" transform="translate(-10.19 -33.969)" fill="#fff896"/>
      <path id="Path_139" data-name="Path 139" d="M12.18,62.092a1.073,1.073,0,0,0,.091-.205.722.722,0,0,0-.076-.539.766.766,0,1,0-.676,1.124.761.761,0,0,0,.661-.379" transform="translate(-4.36 -24.701)" fill="#fff896"/>
    </g>
  </g>
</svg>
