<svg id="TELIGRANM" xmlns="http://www.w3.org/2000/svg" width="20" height="20" viewBox="0 0 20 20">
  <defs>
    <style>
      .cls-1 {
        fill: #299ecf;
      }

      .cls-2 {
        fill: #fff;
        fill-rule: evenodd;
      }
    </style>
  </defs>
  <circle class="cls-1" cx="10" cy="10" r="10"/>
  <path class="cls-2" d="M1487.5,174.106c1.52-1.737,3.03-3.471,4.55-5.206-0.01-.007-0.01-0.014-0.02-0.021-0.04.026-.08,0.05-0.12,0.08q-2.82,2.292-5.64,4.587a0.346,0.346,0,0,1-.37.068c-0.85-.285-1.7-0.557-2.56-0.831a0.392,0.392,0,0,1-.34-0.319,0.375,0.375,0,0,1,.28-0.368q5.07-2.506,10.12-5.015a0.424,0.424,0,0,1,.47-0.017,0.4,0.4,0,0,1,.12.425c-0.3,1.88-.59,3.761-0.89,5.641-0.12.746-.23,1.491-0.35,2.237a0.345,0.345,0,0,1-.49.3q-2.355-.759-4.71-1.53A0.553,0.553,0,0,1,1487.5,174.106Zm-0.49.552,1.86,0.6c-0.06.084-.11,0.149-0.16,0.213-0.34.443-.68,0.884-1.02,1.329a0.387,0.387,0,0,1-.44.18,0.35,0.35,0,0,1-.24-0.387v-1.939Z" transform="translate(-1479 -162)"/>
</svg>
