<svg xmlns="http://www.w3.org/2000/svg" width="22" height="18.062" viewBox="0 0 22 18.062">
  <defs>
    <style>
      .cls-1 {
        fill: #5db2f7;
        fill-rule: evenodd;
      }
    </style>
  </defs>
  <path id="twitter_ic_articil_page" data-name="twitter_ic_articil page" class="cls-1" d="M1147,807.062a9.739,9.739,0,0,0,6.48-1.951,4.975,4.975,0,0,1-2.62-.961,4.584,4.584,0,0,1-1.59-2.228h1.85a4.874,4.874,0,0,1-3.47-4.525c0.65,0.177,1.26.344,1.88,0.511l0.06-.118a4.624,4.624,0,0,1-1.78-2.729,4.568,4.568,0,0,1,.51-3.258,13.013,13.013,0,0,0,9.4,4.741,4.75,4.75,0,0,1,.89-3.863,4.557,4.557,0,0,1,6.53-.626,0.764,0.764,0,0,0,.88.216c0.76-.291,1.53-0.555,2.33-0.839a5.242,5.242,0,0,1-1.69,2.319c0.24-.039.49-0.065,0.72-0.12,0.27-.061.53-0.145,0.79-0.226s0.49-.161.73-0.242c0.03,0.036.07,0.073,0.1,0.109-0.59.6-1.15,1.227-1.77,1.787a1.146,1.146,0,0,0-.47.968A12.9,12.9,0,0,1,1147,807.062Z" transform="translate(-1147 -790.969)"/>
</svg>
