<svg xmlns="http://www.w3.org/2000/svg" width="13" height="13" viewBox="0 0 13 13">
  <defs>
    <style>
      .cls-1 {
        fill: #fb4c35;
        fill-rule: evenodd;
      }
    </style>
  </defs>
  <path class="cls-1" d="M424.811,1111.62h5.394v-0.92a0.587,0.587,0,0,1,.7-0.7h0.345a0.528,0.528,0,0,1,.581.56c0.009,0.29,0,.58,0,0.88,0,0.05.007,0.1,0.013,0.19,0.173,0,.339-0.01.506,0a1.615,1.615,0,0,1,1.648,1.64q0,4.05,0,8.08a1.625,1.625,0,0,1-1.648,1.65h-9.709a1.623,1.623,0,0,1-1.643-1.65c0-2.7,0-5.39,0-8.09a1.617,1.617,0,0,1,1.634-1.63c0.534-.01.533-0.01,0.534-0.55,0-.19-0.006-0.38.006-0.57a0.523,0.523,0,0,1,.543-0.51h0.488a0.54,0.54,0,0,1,.586.56c0.009,0.3,0,.6,0,0.89C424.8,1111.51,424.805,1111.56,424.811,1111.62Zm2.685,3.82h-5.178c-0.181,0-.243.04-0.242,0.23,0.007,1.86,0,3.72,0,5.58a0.577,0.577,0,0,0,.671.67h9.5a0.577,0.577,0,0,0,.664-0.67c0-1.86,0-3.71,0-5.57a0.2,0.2,0,0,0-.249-0.24H427.5Z" transform="translate(-421 -1110)"/>
</svg>
