<svg xmlns="http://www.w3.org/2000/svg" width="24" height="20" viewBox="0 0 24 20">
  <defs>
    <style>
      .cls-1 {
        fill: #868585;
        fill-rule: evenodd;
      }
    </style>
  </defs>
  <path class="cls-1" d="M1332.66,985.006h5.6a2.008,2.008,0,0,1,2.01,1.493,2.223,2.223,0,0,1,.07.518v6.695a2.029,2.029,0,0,1-1.44,1.922,2.189,2.189,0,0,1-.62.079q-3.525,0-7.03,0a0.563,0.563,0,0,0-.43.18c-0.99,1-1.99,2-2.99,2.994-0.05.047-.1,0.144-0.16,0.109a0.317,0.317,0,0,1-.07-0.2c-0.06-.439-0.14-0.874-0.21-1.31l-0.21-1.233c-0.02-.125-0.03-0.253-0.05-0.376a0.193,0.193,0,0,0-.21-0.166,1.961,1.961,0,0,1-1.9-1.594,1.7,1.7,0,0,1-.01-0.391c0-2.239.01-4.478-.01-6.718a1.973,1.973,0,0,1,2.04-2C1328.92,985.007,1330.79,985.006,1332.66,985.006Zm1-1.343c0-.984-0.04-1.971.02-2.953a1.763,1.763,0,0,1,.92-1.427,2.058,2.058,0,0,1,1.08-.283c3.78,0,7.55,0,11.33,0a1.973,1.973,0,0,1,1.98,1.951q0.015,3.393,0,6.786a1.987,1.987,0,0,1-1.69,1.94,3.052,3.052,0,0,0-.38.036,6.891,6.891,0,0,0-.23,1.19c-0.12.669-.22,1.341-0.33,2.011-0.02.126-.1,0.09-0.17,0.028-0.24-.238-0.5-0.461-0.72-0.724a6.454,6.454,0,0,0-.61-0.628c-0.52-.509-1.04-1.021-1.55-1.534a1.273,1.273,0,0,0-.33-0.344c-0.34-.048-0.68-0.009-1.02-0.023a0.92,0.92,0,0,1-.3-0.017c0-1.105.01-2.21-.01-3.315a2.637,2.637,0,0,0-.96-2.053,2.585,2.585,0,0,0-1.46-.6,0.642,0.642,0,0,0-.26-0.018c-1.68,0-3.37,0-5.06,0A0.449,0.449,0,0,1,1333.66,983.663Z" transform="translate(-1325 -979)"/>
</svg>
