<svg xmlns="http://www.w3.org/2000/svg" width="20" height="13" viewBox="0 0 20 13">
  <defs>
    <style>
      .cls-1 {
        fill: #fff;
        fill-rule: evenodd;
      }
    </style>
  </defs>
  <path class="cls-1" d="M536,1056.92a9.239,9.239,0,0,1-4.759-1.42,17.648,17.648,0,0,1-4.984-4.49,0.71,0.71,0,0,1,0-1.1,17.086,17.086,0,0,1,5.9-4.98,8.472,8.472,0,0,1,8.168.25,17.258,17.258,0,0,1,4.988,4.19c0.162,0.2.321,0.39,0.472,0.59a0.682,0.682,0,0,1,0,1,18.7,18.7,0,0,1-3.643,3.63,11.337,11.337,0,0,1-3.9,2c-0.73.19-1.486,0.28-2.23,0.41C536.009,1056.97,536.005,1056.95,536,1056.92Zm-0.022-1.33c0.006,0.03.013,0.06,0.02,0.09a19.607,19.607,0,0,0,2.3-.51,14.181,14.181,0,0,0,6.061-4.57,0.329,0.329,0,0,0-.019-0.31,16.058,16.058,0,0,0-4.723-3.97,7.137,7.137,0,0,0-6.856-.19,15.838,15.838,0,0,0-5.117,4.17c-0.137.16-.06,0.25,0.042,0.37a17.032,17.032,0,0,0,3.954,3.51A8.424,8.424,0,0,0,535.979,1055.59Zm0.024-9.14a4.01,4.01,0,1,1-3.952,4.01A3.992,3.992,0,0,1,536,1046.45Zm2.63,4a2.632,2.632,0,1,0-2.633,2.68A2.657,2.657,0,0,0,538.633,1050.45Z" transform="translate(-526 -1044)"/>
</svg>
