<svg xmlns="http://www.w3.org/2000/svg" xmlns:xlink="http://www.w3.org/1999/xlink" width="42" height="43.97" viewBox="0 0 42 43.97">
  <defs>
    <style>
      .cls-1 {
        fill-rule: evenodd;
        fill: url(#linear-gradient);
      }
    </style>
    <linearGradient id="linear-gradient" x1="1459" y1="3366.97" x2="1459" y2="3323" gradientUnits="userSpaceOnUse">
      <stop offset="0" stop-color="#ff0006"/>
      <stop offset="1" stop-color="#ff7c00"/>
    </linearGradient>
  </defs>
  <path id="virgo" class="cls-1" d="M1440.33,3339.52c1.43,0.7,2.79,1.75,4.3,2.05,5.48,1.08,8.78-1.48,9.31-7.15a2.878,2.878,0,0,0-1.28-2.32c-3.86-1.65-1.49-4.53-1.18-6.72,0.13-.95,2.13-2.15,3.41-2.32,3.39-.46,5.55,1.65,7.16,4.42,2.02,3.49,3.79,7.19,6.24,10.36a9.911,9.911,0,0,0,5.73,3.12c1.13,0.2,3.07-1.37,3.76-2.63,0.34-.61-1.32-2.38-2.15-3.56a4.476,4.476,0,0,0-1.31-.78c3.18-.41,4.67.36,5.39,2.76,1.16,3.83-1.51,5.36-4.05,7.27,1.28-.43,2.57-0.86,3.85-1.29l0.45,0.93c-2.14,1.03-4.28,2.06-6.18,2.98h4.02c-1.07,2.95-3.49,3.8-6.95,2.26a17.7,17.7,0,0,1-9.9-11.39,16.527,16.527,0,0,0-1.72-3.93,17.862,17.862,0,0,0,5.03,12.06,9.717,9.717,0,0,1,2.52,5.97c0.01,2.84-3.97,4.65-7.64,3.97a18.541,18.541,0,0,1-2.5-.89c4.77,3.93,11.84,5.01,19.01,3.27-3.46,6.08-13.3,10.43-20.84,8.62a40.891,40.891,0,0,1-11.01-4.61c-3.43-2.04-3.53-4.45-.48-6.91a49.2,49.2,0,0,1,9.29-5.84c4.79-2.36,4.88-2.17,2.34-5.62a56.378,56.378,0,0,1-6.81.46,36.915,36.915,0,0,1-6.42-1.06c-2.1-.48-3.23-1.51-1.29-3.56Zm0.1-.08c-2.18-.51-2.6-2.1-2.37-4.03,0.52-4.36,3.06-7.51,6.48-8.14-1.41,4.08-2.82,8.18-4.22,12.26C1440.33,3339.52,1440.43,3339.44,1440.43,3339.44Z" transform="translate(-1438 -3323)"/>
</svg>
