<svg xmlns="http://www.w3.org/2000/svg" width="13.969" height="10" viewBox="0 0 13.969 10">
  <defs>
    <style>
      .cls-1 {
        fill: #585858;
        fill-rule: evenodd;
      }
    </style>
  </defs>
  <path id="youtube" class="cls-1" d="M583.022,302c-1.681-.094-3.364-0.177-5.044-0.29a2.25,2.25,0,0,1-.861-0.259,1.853,1.853,0,0,1-.921-1.527,22.116,22.116,0,0,1,0-5.911,1.891,1.891,0,0,1,1.914-1.821,64.119,64.119,0,0,1,8.567-.094c0.5,0.023,1.006.078,1.5,0.151a1.784,1.784,0,0,1,1.584,1.583,18.618,18.618,0,0,1,.2,4.05c-0.036.738-.11,1.476-0.207,2.208a1.746,1.746,0,0,1-1.623,1.615c-0.669.083-1.344,0.137-2.018,0.165-1.032.044-2.066,0.056-3.1,0.081C583.025,301.967,583.024,301.984,583.022,302Zm2.218-5.031-3.61-2.107v4.217Z" transform="translate(-576 -292)"/>
</svg>
