<svg id="Group_243" data-name="Group 243" xmlns="http://www.w3.org/2000/svg" xmlns:xlink="http://www.w3.org/1999/xlink" width="59.804" height="59.803" viewBox="0 0 59.804 59.803">
  <defs>
    <clipPath id="clip-path">
      <rect id="Rectangle_103" data-name="Rectangle 103" width="59.804" height="59.803" fill="none"/>
    </clipPath>
    <clipPath id="clip-path-2">
      <path id="Path_561" data-name="Path 561" d="M32.848,33.41H29.286L27.8,33.216c.208,3.113.378,5.651.586,8.763-2.07.205-4.311,2.276-5.028,3.448a11.075,11.075,0,0,0-1.468,8.418,8.534,8.534,0,0,0,7.534,6.44h3.284a8.533,8.533,0,0,0,7.534-6.44,11.077,11.077,0,0,0-1.468-8.418c-.717-1.172-2.958-3.243-5.028-3.448.208-3.112.378-5.65.586-8.763l-1.485.194" transform="translate(-21.594 -33.216)" fill="none"/>
    </clipPath>
  </defs>
  <g id="Group_238" data-name="Group 238" transform="translate(0 0)">
    <g id="Group_237" data-name="Group 237" clip-path="url(#clip-path)">
      <path id="Path_552" data-name="Path 552" d="M59.8,29.9A29.9,29.9,0,1,1,29.9,0,29.9,29.9,0,0,1,59.8,29.9" transform="translate(0 0)" fill="#35208a"/>
      <path id="Path_553" data-name="Path 553" d="M38.775,45.427c-.717-1.172-2.958-3.242-5.028-3.447.208-3.112.378-5.651.586-8.763l-1.485.194H29.286L27.8,33.217c.209,3.112.378,5.651.586,8.763-2.069.205-4.311,2.276-5.028,3.447a11.079,11.079,0,0,0-1.468,8.418,8.532,8.532,0,0,0,7.534,6.439h3.283a8.532,8.532,0,0,0,7.534-6.439,11.076,11.076,0,0,0-1.468-8.418" transform="translate(-8.753 -13.464)" fill="#fa8d61"/>
      <path id="Path_554" data-name="Path 554" d="M38.542,32.485c-.169-.411-1.042-.724-2.221-.815a8.868,8.868,0,0,0-3.908.391.563.563,0,0,0-.429.429.758.758,0,0,0,.45.776,7.894,7.894,0,0,0,4.444.458,2.181,2.181,0,0,0,1.454-.522.728.728,0,0,0,.21-.718" transform="translate(-12.96 -12.813)" fill="#96cbeb"/>
      <path id="Path_555" data-name="Path 555" d="M29.109,40.208c-.582-1.09-2.5-1.113-3.538-.913a5.069,5.069,0,0,0-3.252,2.563c-1.563,2.7-.2,6.242,1.7,8.429.463.534,1.277-.149.953-.736-1.085-1.964-2.837-4.383-1.7-6.713a4.064,4.064,0,0,1,2.337-2.222,3.637,3.637,0,0,1,1.446-.1,11.381,11.381,0,0,1,1.434.495.555.555,0,0,0,.62-.806" transform="translate(-8.77 -15.888)" fill="#fa8d61"/>
      <path id="Path_556" data-name="Path 556" d="M41.419,41.012a13.126,13.126,0,0,1,1.356-.482,3.623,3.623,0,0,1,1.448.066,4.034,4.034,0,0,1,2.413,2.241c1.14,2.331-.612,4.75-1.7,6.713-.321.581.486,1.275.953.736,1.9-2.188,3.262-5.728,1.7-8.429a5.1,5.1,0,0,0-3.175-2.546c-1.047-.224-3.022-.215-3.615.9a.555.555,0,0,0,.619.806" transform="translate(-16.51 -15.887)" fill="#fa8d61"/>
    </g>
  </g>
  <g id="Group_240" data-name="Group 240" transform="translate(12.841 19.753)">
    <g id="Group_239" data-name="Group 239" clip-path="url(#clip-path-2)">
      <path id="Path_557" data-name="Path 557" d="M24.712,50.651A2.658,2.658,0,0,0,25.991,52.7c.94.42,1.678-.576,2.586-.307.815.242,1.258,1.082,2.146,1.212,1,.146,1.544-.61,2.419-.88,1.038-.32,1.943.626,2.967.638s1.261-1.1,2.234-1.167a1.522,1.522,0,0,0,1.422-.79,1.409,1.409,0,0,0-.073-1.535c-.082-.106-.229.029-.176.136a1.317,1.317,0,0,1-.683,1.876c-.36.106-.746,0-1.1.149a1.488,1.488,0,0,0-.513.43,1.375,1.375,0,0,1-1.114.638,3.286,3.286,0,0,1-1.177-.321,2.575,2.575,0,0,0-2.047-.235c-.854.356-1.449,1.083-2.468.708-.615-.226-1.012-.8-1.613-1.051a2.022,2.022,0,0,0-1.6.2c-1.417.546-1.9-.711-2.306-1.8a.1.1,0,0,0-.188.052" transform="translate(-22.857 -39.95)" fill="#35208a"/>
      <path id="Path_558" data-name="Path 558" d="M19.367,56.445c-.454.979.271,2.3,1.017,2.968a2.832,2.832,0,0,0,3.061.42c.356-.124.561-.255.811.048a8.734,8.734,0,0,0,.849,1.061,3.278,3.278,0,0,0,2.977.727,4.314,4.314,0,0,0,1.3-.651c.3-.2.712-.594,1.1-.543s.79.452,1.125.648a3.694,3.694,0,0,0,1.5.491,3.75,3.75,0,0,0,2.817-.913,3.5,3.5,0,0,0,.491-.552c.09-.12.216-.39.348-.459.074-.039.3.078.454.122a4.192,4.192,0,0,0,.993.164,3.544,3.544,0,0,0,3.022-1.616c.632-.982.85-2.686-.087-3.55a.887.887,0,0,0-1.5.62c-.007.765.314,1.5-.326,2.115-.684.66-1.4.3-2.193.168-1.158-.194-1.7.487-2.346,1.289a1.724,1.724,0,0,1-1.647.607c-.814-.154-1.388-.9-2.222-1.069a3.291,3.291,0,0,0-2.537.765c-.582.4-1.239.731-1.887.241-.6-.451-.813-1.219-1.515-1.587a2.293,2.293,0,0,0-1.64-.144,4.63,4.63,0,0,1-1.214.368c-1-.052-1.026-1.6-1.817-1.984a.7.7,0,0,0-.943.247" transform="translate(-20.634 -41.871)" fill="#966"/>
      <path id="Path_559" data-name="Path 559" d="M20.313,61.6a3.542,3.542,0,0,0,1.338,2.18c.826.529,1.5.125,2.341-.093,1.254-.322,1.491.96,2.313,1.557a2.39,2.39,0,0,0,2.226.3c.953-.365,1.714-1.462,2.837-1.044.837.312,1.4.982,2.347,1.041a2.888,2.888,0,0,0,2.042-.677c.339-.293.52-.705.838-1.013.552-.536,1.4.014,2.062.029a2.616,2.616,0,0,0,2.416-3.732c-.059-.117-.26-.035-.214.09A2.477,2.477,0,0,1,40.321,63a2.418,2.418,0,0,1-1.491.61,9.05,9.05,0,0,1-1.488-.278c-.746-.085-1.05.5-1.454,1a2.579,2.579,0,0,1-2.537.888c-.8-.176-1.348-.869-2.138-1.053a2.3,2.3,0,0,0-1.811.557,2.472,2.472,0,0,1-2.757.423c-.673-.385-.888-1.192-1.523-1.6-.7-.454-1.417.023-2.121.2-1.483.365-2.031-1.157-2.52-2.216-.045-.1-.192-.027-.168.071" transform="translate(-21.074 -44.111)" fill="#fff"/>
      <path id="Path_560" data-name="Path 560" d="M21.411,67.511c.312,1.23,1.714,1.97,2.848,2.259a4.337,4.337,0,0,0,1.93.083,5.753,5.753,0,0,1,.588-.162,1.167,1.167,0,0,1,1.086.462,2.98,2.98,0,0,0,.954.69,2.93,2.93,0,0,0,2.18.083c.966-.351,1.76-1.119,2.859-.929a7.826,7.826,0,0,0,2.389.456,5.615,5.615,0,0,0,2.242-.856c1.373-.85,2.882-2.109,3.084-3.8.02-.164-.234-.161-.256,0-.209,1.572-1.688,2.778-2.963,3.569a5.418,5.418,0,0,1-2.113.821c-.892.124-1.671-.391-2.538-.479a3.283,3.283,0,0,0-1.892.531,3.184,3.184,0,0,1-2.642.456,2.757,2.757,0,0,1-1.119-.728,1.733,1.733,0,0,0-.68-.542,1.661,1.661,0,0,0-.959.1,3.62,3.62,0,0,1-1.012.144,4.371,4.371,0,0,1-3.873-2.208c-.033-.064-.131-.019-.114.048" transform="translate(-21.519 -46.373)" fill="#35208a"/>
    </g>
  </g>
  <g id="Group_242" data-name="Group 242" transform="translate(0 0)">
    <g id="Group_241" data-name="Group 241" clip-path="url(#clip-path)">
      <path id="Path_562" data-name="Path 562" d="M58.925,43.279c-.315-.052-.624-.012-.94-.039a2,2,0,0,1-1.3-.688,3.7,3.7,0,0,1-.759-2.709c.076-1.749.4-3.478.452-5.232.091-3.241-.544-6.508-2.85-8.924a13.5,13.5,0,0,0-8.464-3.751A14.324,14.324,0,0,0,34.84,24.45a7.687,7.687,0,0,0-2.645,3.2,1.567,1.567,0,0,0-.125,1.25,1.756,1.756,0,0,0,1,.622,7.458,7.458,0,0,0,4.05.159,3.334,3.334,0,0,0,1.194-.484,1.217,1.217,0,0,0,.228-.325,2.371,2.371,0,0,1,1.02-.941c1.422-.635,3.076.281,4.1,1.247a8.956,8.956,0,0,1,2.453,4.308,15.628,15.628,0,0,1,.165,4.653c-.13,1.958-.442,3.9-.7,5.84a24.19,24.19,0,0,0-.322,5.6A5.032,5.032,0,0,0,47.045,53.2a4.2,4.2,0,0,0,3.807.692,2.185,2.185,0,0,0,1.491-2.958c-.1-.437-.2-.872-.31-1.308.781,1.372,2.138,2.4,3.823,1.823a2.2,2.2,0,0,0,1.542-1.84,3.554,3.554,0,0,0-1.044-2.583,2.561,2.561,0,0,0,3.073-.774c.689-.891.783-2.56-.5-2.97" transform="translate(-12.961 -8.849)" fill="#96cbeb"/>
      <path id="Path_563" data-name="Path 563" d="M39.324,31.779a4.533,4.533,0,0,1,5.24-3.364,8.719,8.719,0,0,1,5.754,4.24,13.329,13.329,0,0,1,1.7,7.137c-.022,2.572-.674,5.106-.627,7.674.04,2.123.806,4.572,2.853,5.572a.119.119,0,0,0,.12-.205c-2.466-1.449-2.869-4.357-2.64-6.975a44.739,44.739,0,0,0,.488-7.938,11.909,11.909,0,0,0-2.561-6.645,8.064,8.064,0,0,0-5.931-3.18c-2.051,0-4.4,1.45-4.543,3.664a.075.075,0,0,0,.146.02" transform="translate(-15.88 -11.388)" fill="#fff"/>
      <path id="Path_564" data-name="Path 564" d="M35.562,29.838a8.39,8.39,0,0,1,5.253-4.778,9.581,9.581,0,0,1,7.6.983,11.52,11.52,0,0,1,4.857,5.884c1.029,2.688.919,5.533,1.021,8.36.086,2.368.252,6.031,2.707,7.26.146.073.274-.142.129-.22a4.917,4.917,0,0,1-2.168-3.483,23.518,23.518,0,0,1-.432-4.773c-.056-2.793-.177-5.536-1.38-8.108-2.136-4.569-7.344-7.753-12.4-6.151a8.584,8.584,0,0,0-5.414,4.962c-.056.144.173.2.23.064" transform="translate(-14.318 -9.887)" fill="#fff"/>
      <path id="Path_565" data-name="Path 565" d="M62.269,37.658c.12.52.366,1.009.5,1.53A9.156,9.156,0,0,1,63,40.763a18.529,18.529,0,0,1-.123,3.223,24.568,24.568,0,0,0-.149,6.454c.262,1.691.742,3.639,2.069,4.83a3.018,3.018,0,0,0,3.87.32c.1-.078-.032-.244-.133-.172-1.606,1.163-3.56.064-4.434-1.447a12.056,12.056,0,0,1-1.3-5.73c-.029-1.994.39-3.955.467-5.943a11.832,11.832,0,0,0-.14-2.477,4.574,4.574,0,0,0-.81-2.194c-.023-.026-.061,0-.054.032" transform="translate(-25.239 -15.247)" fill="#fff"/>
      <path id="Path_566" data-name="Path 566" d="M69.632,41.915a5.449,5.449,0,0,0-.209,1.783q-.023.945.045,1.889a19.833,19.833,0,0,0,.639,3.754c.472,1.738,1.611,4.063,3.806,3.664.134-.024.105-.255-.032-.24-2.5.271-3.345-2.533-3.765-4.464a19.648,19.648,0,0,1-.427-3.269q-.036-.778-.013-1.556a8.726,8.726,0,0,0,.026-1.561c-.006-.039-.058-.029-.069,0" transform="translate(-28.137 -16.979)" fill="#fff"/>
      <path id="Path_567" data-name="Path 567" d="M57.763,52.178a11.234,11.234,0,0,0-.816,3.911,18.143,18.143,0,0,0,.155,4.1c.279,1.837,1.14,5.009,3.666,4.47.126-.027.1-.245-.031-.228-2.769.35-3.314-3.268-3.506-5.259a18.275,18.275,0,0,1,0-3.52c.114-1.171.447-2.293.6-3.452.005-.038-.056-.053-.073-.02" transform="translate(-23.061 -21.142)" fill="#fff"/>
      <path id="Path_568" data-name="Path 568" d="M57.474,40.856c.024.835.311,1.667.381,2.5.065.775-.074,1.588.037,2.349.012.08.124.062.145,0a6.346,6.346,0,0,0,.049-2.57,5.721,5.721,0,0,0-.564-2.3.026.026,0,0,0-.049.013" transform="translate(-23.296 -16.55)" fill="#fff"/>
      <path id="Path_569" data-name="Path 569" d="M68.96,35.647c.069.486.19.96.236,1.45.04.434.008.868.045,1.3.008.1.169.142.192.026a5.223,5.223,0,0,0-.322-2.84c-.04-.093-.162-.02-.15.064" transform="translate(-27.951 -14.405)" fill="#fff"/>
      <path id="Path_570" data-name="Path 570" d="M57.261,30.953c.372.392.79.722,1.128,1.149a6.193,6.193,0,0,1,.872,1.506c.061.149.306.084.245-.068a4.972,4.972,0,0,0-2.19-2.661.046.046,0,0,0-.056.073" transform="translate(-23.204 -12.515)" fill="#fff"/>
      <path id="Path_571" data-name="Path 571" d="M54.635,23.852a17.777,17.777,0,0,1,2.71.538,8.787,8.787,0,0,1,2.416,1.281,8.955,8.955,0,0,1,3.1,4.386c.051.158.3.09.25-.069a9.207,9.207,0,0,0-3.061-4.417,8.047,8.047,0,0,0-5.4-1.86c-.073.008-.106.125-.019.141" transform="translate(-22.124 -9.598)" fill="#fff"/>
      <path id="Path_572" data-name="Path 572" d="M81.79,20.822a.083.083,0,0,0-.029-.07c-.177-.335-.818-.4-1.139-.463-.524-.1-1.056-.167-1.587-.236-.087-.011-.174-.026-.26-.036-.035,0-.1-.034-.09-.018a1.619,1.619,0,0,1-.16-.368c-.22-.512-.432-1.028-.655-1.538-.113-.259-.228-.517-.351-.771-.076-.157-.162-.451-.337-.527-.387-.169-.657.787-.76,1.017-.246.551-.477,1.109-.716,1.663-.05.116-.134.451-.239.53a2.57,2.57,0,0,1-.5.026c-.236.019-.472.037-.707.059a6.208,6.208,0,0,0-1.2.19c-.234.069-.652.181-.615.5.03.266.438.517.621.663a7.915,7.915,0,0,0,.995.673,4.722,4.722,0,0,1,.5.266c.187.142.1.29.046.481-.106.4-.215.806-.313,1.212-.08.33-.157.662-.208,1a1.338,1.338,0,0,0-.017.7c.243.517,1.176-.388,1.4-.561q.424-.326.83-.675c.133-.114.264-.23.393-.348.073-.067.257-.321.351-.336.152-.026.56.47.684.576.279.241.567.472.859.7a2.848,2.848,0,0,0,1.359.768c.458.041.24-.653.179-.927-.145-.652-.357-1.29-.551-1.93-.042-.137-.1-.278-.125-.42s-.027-.144.1-.222c.253-.153.561-.247.827-.381.426-.215,1.279-.6,1.4-1.135a.092.092,0,0,0,.01-.064" transform="translate(-29.362 -6.799)" fill="#fff896"/>
      <path id="Path_573" data-name="Path 573" d="M48.326,85.708c-.721-.063-1.456-.055-2.186-.047q.31-.305.617-.613a4.482,4.482,0,0,0,.894-1.039.2.2,0,0,0-.275-.275,4.51,4.51,0,0,0-1.056.877c-.213.2-.424.41-.635.617,0-.3,0-.593,0-.89a4.491,4.491,0,0,0-.1-1.369.2.2,0,0,0-.388,0,4.53,4.53,0,0,0-.127,1.369c-.006.295-.01.59-.012.884q-.312-.317-.627-.631a4.467,4.467,0,0,0-1.039-.894.2.2,0,0,0-.275.275A4.51,4.51,0,0,0,44,85.027c.2.213.41.424.616.635-.3,0-.593,0-.89,0a4.49,4.49,0,0,0-1.369.1.2.2,0,0,0,0,.388,4.53,4.53,0,0,0,1.369.127c.288.006.577.01.865.012-.533.5-1.069,1.008-1.544,1.556a.3.3,0,0,0,.424.424c.549-.461,1.059-.981,1.565-1.5-.021.725-.042,1.455.008,2.171a.3.3,0,0,0,.6,0c.062-.714.055-1.442.047-2.166.5.527,1,1.059,1.541,1.529a.3.3,0,0,0,.425-.424c-.461-.549-.981-1.059-1.5-1.565.726.021,1.455.042,2.172-.008a.3.3,0,0,0,0-.6" transform="translate(-17.109 -33.572)" fill="#fff"/>
      <path id="Path_574" data-name="Path 574" d="M29.8,11.7a.775.775,0,0,0,.531-.22A.751.751,0,0,0,29.8,10.2a.775.775,0,0,0-.531.22A.751.751,0,0,0,29.8,11.7" transform="translate(-11.772 -4.135)" fill="#fff"/>
      <path id="Path_575" data-name="Path 575" d="M51.641,17.5a.735.735,0,0,0,0-1.468.735.735,0,0,0,0,1.468" transform="translate(-20.644 -6.497)" fill="#fff"/>
      <path id="Path_576" data-name="Path 576" d="M63.841,11.232a.791.791,0,0,0,0-1.582.791.791,0,0,0,0,1.582" transform="translate(-25.567 -3.911)" fill="#fff"/>
      <path id="Path_577" data-name="Path 577" d="M81.17,42.6a.848.848,0,0,0-.218.836.871.871,0,0,0,.61.586.789.789,0,0,0,.354.018.761.761,0,0,0,.633-.941.621.621,0,0,0-.278-.361.586.586,0,0,0-.466-.061.08.08,0,0,1-.02.007l.166-.022a.113.113,0,0,1-.032,0l.174.024-.021-.006.161.068c-.083-.037-.165-.077-.252-.106l.172.073a.23.23,0,0,1-.051-.03l.147.114a.249.249,0,0,1-.03-.032l.115.149a.127.127,0,0,1-.014-.025l.075.177a.138.138,0,0,1-.008-.027l.027.2a.124.124,0,0,1,0-.03l-.027.2a1.522,1.522,0,0,0,.03-.231l-.027.2a.152.152,0,0,1,.011-.043l-.075.178.007-.012a.743.743,0,0,0-1.166-.9" transform="translate(-32.799 -17.18)" fill="#fff"/>
      <path id="Path_578" data-name="Path 578" d="M91.1,59.487a.59.59,0,1,0-.59-.589.6.6,0,0,0,.59.589" transform="translate(-36.685 -23.634)" fill="#fff"/>
      <path id="Path_579" data-name="Path 579" d="M82.082,72.831h.1a.716.716,0,0,0,0-1.431h-.1a.717.717,0,0,0,0,1.433" transform="translate(-32.99 -28.94)" fill="#fff"/>
      <path id="Path_580" data-name="Path 580" d="M68.315,91.526l-.014-.054a.7.7,0,0,0-.4-.458.867.867,0,0,0-.129-.047.809.809,0,0,0-1.043.774.83.83,0,0,0,.4.7.813.813,0,0,0,1.188-.913" transform="translate(-27.046 -36.86)" fill="#fff"/>
      <path id="Path_581" data-name="Path 581" d="M31.457,84.254l0-.014a.733.733,0,0,0-.515-.515l-.013,0A.762.762,0,0,0,30.184,85a.764.764,0,0,0,1.273-.741" transform="translate(-12.146 -33.926)" fill="#fff"/>
      <path id="Path_582" data-name="Path 582" d="M10.872,63.279a.824.824,0,0,0,.566-.235.8.8,0,0,0,0-1.132.8.8,0,0,0-1.132,0,.8.8,0,0,0,0,1.132.831.831,0,0,0,.566.235" transform="translate(-4.082 -25)" fill="#fff"/>
      <path id="Path_583" data-name="Path 583" d="M17.674,50.12c0-.007,0-.013,0-.02a.718.718,0,0,0-.712-.713h-.02a.742.742,0,0,0-.669.45.728.728,0,0,0,.151.8.764.764,0,0,0,.712.189.75.75,0,0,0,.537-.706" transform="translate(-6.573 -20.018)" fill="#fff"/>
      <path id="Path_584" data-name="Path 584" d="M12.186,26.912a1.061,1.061,0,0,0,.28.107.649.649,0,0,0,.4-.031.565.565,0,0,0,.3-.253.679.679,0,0,0,.087-.312.835.835,0,0,0-.087-.312l-.1-.125a.458.458,0,0,0-.2-.128.643.643,0,0,0-.4-.032,1.075,1.075,0,0,0-.28.108.571.571,0,0,0,0,.978" transform="translate(-4.827 -10.461)" fill="#fff"/>
      <path id="Path_585" data-name="Path 585" d="M27.644,34.467l.024-.005a.59.59,0,1,0-.726-.725l-.005.024a.582.582,0,0,0,.707.707" transform="translate(-10.911 -13.501)" fill="#fff"/>
      <path id="Path_586" data-name="Path 586" d="M32.68,21.257a.842.842,0,0,0,0-1.684.842.842,0,0,0,0,1.684" transform="translate(-12.916 -7.934)" fill="#f7b9e7"/>
      <path id="Path_587" data-name="Path 587" d="M7.77,42.506a2,2,0,0,0,.373-.168.749.749,0,0,0,0-1.281,2,2,0,0,0-.373-.168.824.824,0,0,0-.816.216.838.838,0,0,0,0,1.186.831.831,0,0,0,.816.216" transform="translate(-2.719 -16.56)" fill="#f7b9e7"/>
      <path id="Path_588" data-name="Path 588" d="M66.718,81.848a.648.648,0,0,0,.011-.4.97.97,0,0,0-.051-.123.791.791,0,0,0-.728-.49.831.831,0,0,0-.688.395.818.818,0,0,0,0,.8.8.8,0,0,0,.794.381.753.753,0,0,0,.378-.157.862.862,0,0,0,.285-.414" transform="translate(-26.409 -32.766)" fill="#f7b9e7"/>
      <path id="Path_589" data-name="Path 589" d="M19.46,82.946l.093-.018a.8.8,0,0,0,0-1.524l-.093-.018a.8.8,0,1,0,0,1.559" transform="translate(-7.49 -32.98)" fill="#f7b9e7"/>
      <path id="Path_590" data-name="Path 590" d="M92.539,40.01l.062-.185a.762.762,0,0,0-.931-.931l-.185.062a.88.88,0,0,0-.6.6.857.857,0,0,0,1.054,1.054.879.879,0,0,0,.6-.6" transform="translate(-36.827 -15.752)" fill="#f7b9e7"/>
    </g>
  </g>
</svg>
