<svg id="Ambedkar_Party_Of_India" data-name="Ambedkar Party Of India" xmlns="http://www.w3.org/2000/svg" width="162.438" height="162.438" viewBox="0 0 162.438 162.438">
  <defs>
    <style>
      .cls-1 {
        fill: #fff;
        stroke: #acacac;
        stroke-width: 2px;
      }

      .cls-2 {
        fill-rule: evenodd;
      }
    </style>
  </defs>
  <circle id="Ellipse_1_copy" data-name="Ellipse 1 copy" class="cls-1" cx="81.219" cy="81.219" r="80.219"/>
  <path class="cls-2" d="M86.379,44.784c1.946,0,3.894.048,5.837-.018a21.833,21.833,0,0,0,3.566-.413,20.132,20.132,0,0,1,5.263-.26c2.043,0.123,4.1-.04,6.154-0.063a15.723,15.723,0,0,1,2.64.053,36.9,36.9,0,0,1,5.244,1.08c1.868,0.587,3.646,1.463,5.46,2.219a25.382,25.382,0,0,1,2.529,1.1c1.323,0.731,2.592,1.558,3.887,2.34a18.292,18.292,0,0,1,2.245,1.364c1.211,1,2.362,2.072,3.477,3.176a30.126,30.126,0,0,1,2.032,2.352c0.457,0.558.876,1.147,1.3,1.73,0.757,1.034,1.552,2.043,2.246,3.117,0.857,1.326,1.626,2.708,2.434,4.066,0.184,0.309.4,0.6,0.555,0.925a2.377,2.377,0,0,1,.345,1,4.883,4.883,0,0,0,.767,2.421c0.434,0.843.749,1.747,1.193,2.584,0.886,1.672,1.881,3.288,2.728,4.978,0.876,1.749,1.6,3.574,2.447,5.339,0.665,1.385,1.405,2.734,2.127,4.091,1.292,2.425,2.578,4.853,3.9,7.262,0.808,1.474,1.7,2.9,2.514,4.373,1.071,1.954,2.092,3.935,3.14,5.9,0.6,1.136,1.266,2.245,1.818,3.405a12.136,12.136,0,0,1,1.385,4.361,1.132,1.132,0,0,0,.146.579c0.422,0.555.256,0.88-.28,1.265a37.214,37.214,0,0,1-6.674,3.659c-2.022.9-4.047,1.8-6.119,2.575a14.092,14.092,0,0,1-4.093,1.166,2.16,2.16,0,0,1-2.071-1c-0.413-.592-0.782-1.213-1.175-1.819-1.205-1.855-2.435-3.694-3.608-5.569-0.523-.835-0.906-1.756-1.4-2.609-0.918-1.576-1.89-3.12-2.808-4.7-0.58-1-1.059-2.05-1.659-3.032-1.009-1.654-2.087-3.266-3.118-4.907a12.586,12.586,0,0,1-.648-1.262c-0.431-.894-0.833-1.8-1.287-2.686a1.109,1.109,0,0,0-1.242-.627,1.147,1.147,0,0,0-1,1.052,3.151,3.151,0,0,0,.025.944,53.167,53.167,0,0,1,.327,10.551,3.416,3.416,0,0,0-.015.677c0.517,3.539.178,7.1,0.281,10.649,0.089,3.052.271,6.1,0.318,9.154,0.039,2.6-.057,5.195-0.093,7.793a3.411,3.411,0,0,0,.008.743c0.266,1.245-.419,2.011-1.211,2.849a11.763,11.763,0,0,1-4.22,2.605,33.237,33.237,0,0,1-7.146,2.184c-2.086.361-4.147,0.873-6.234,1.229-1.354.231-2.741,0.264-4.1,0.458-1.07.152-2.118,0.45-3.186,0.618a13.939,13.939,0,0,1-2.227.165c-2.324-.008-4.653.022-6.971-0.116-1.341-.08-2.659-0.5-4-0.683a7.753,7.753,0,0,1-2.869-.719,3.544,3.544,0,0,0-1.125-.2c-1.247-.208-2.5-0.4-3.74-0.629q-2.6-.478-5.195-1c-2.256-.451-4.512-0.9-6.762-1.383-2.516-.535-5.023-1.113-7.54-1.643a1.9,1.9,0,0,1-1.827-2.243c0.014-2.442.072-4.884,0.035-7.325-0.022-1.467-.223-2.931-0.282-4.4-0.043-1.057.019-2.118,0.025-3.178,0.011-1.852.051-3.706,0.011-5.558-0.048-2.236-.224-4.471-0.237-6.707-0.009-1.648.2-3.3,0.222-4.946,0.011-.892-0.216-1.784-0.261-2.68-0.061-1.233-.058-2.47-0.068-3.7,0-.383.074-0.769,0.049-1.149A1.219,1.219,0,0,0,57.82,96.4a1.25,1.25,0,0,0-1.369.526,4.685,4.685,0,0,0-1.56,3.209,1.082,1.082,0,0,1-.164.579c-0.5.769-1.036,1.515-1.541,2.282q-0.52.789-.992,1.61A29.986,29.986,0,0,0,50,108.534a26.964,26.964,0,0,1-1.971,3.406c-0.315.544-.58,1.117-0.877,1.673-0.8,1.5-1.583,3.023-2.431,4.5-0.481.839-1.1,1.6-1.614,2.419a11.189,11.189,0,0,1-.607,1.273,6,6,0,0,1-2.572,1.874c-1.522.564-2.766,0-4.085-.561-0.675-.287-1.42-0.4-2.118-0.642a17.548,17.548,0,0,1-1.651-.691c-0.636-.294-1.252-0.634-1.89-0.922a37.406,37.406,0,0,0-4.226-1.828,25.11,25.11,0,0,1-4.232-2.251,1.451,1.451,0,0,1-.626-0.868,4.947,4.947,0,0,1,.232-2.719c0.535-1.679,1.856-2.932,2.333-4.627,0.465-1.652,1.569-2.969,2.388-4.437,0.425-.762.687-1.612,1.1-2.385,0.659-1.247,1.384-2.458,2.066-3.693,0.349-.633.673-1.28,0.993-1.929,0.593-1.2,1.158-2.417,1.764-3.612s1.26-2.393,1.888-3.59c0.533-1.016,1.085-2.023,1.583-3.056,0.724-1.5,1.459-3,2.085-4.544a16,16,0,0,1,1.217-2.386c0.609-.993.915-2.165,1.452-3.209,0.843-1.642,1.777-3.237,2.656-4.861,0.279-.516.488-1.069,0.762-1.588,0.872-1.648,1.811-3.263,2.624-4.94,0.665-1.372,1.087-2.866,1.8-4.208,0.669-1.257,1.048-2.776,2.574-3.433a11.111,11.111,0,0,0,2.317-1.858c0.73-.58,1.5-1.109,2.251-1.663,0.978-.722,1.932-1.479,2.936-2.164,1.313-.9,2.712-1.672,3.985-2.618a5.854,5.854,0,0,1,3.064-.9,15.927,15.927,0,0,0,1.78-.416c0.349-.082.7-0.166,1.052-0.225,1.513-.255,3.029-0.487,4.54-0.754,1.269-.224,2.544-0.433,3.793-0.741a31.93,31.93,0,0,1,8.9-.652c0.384,0.014.768,0,1.153,0C86.379,44.735,86.379,44.759,86.379,44.784Zm7.676,84.9,0.078,0a14.115,14.115,0,0,0-.015-1.966c-0.219-1.545-1.2-2.876-3.141-2.572q-0.637.1-1.28,0.167a0.854,0.854,0,0,1-.98-0.654c-0.272-.877-0.527-1.76-0.784-2.642a18.357,18.357,0,0,0-1.04-3.431,17.411,17.411,0,0,1-1.619-4.389,4.221,4.221,0,0,0-.284-0.9,12.133,12.133,0,0,1-1.006-2.91,12.134,12.134,0,0,0-.931-2.289,5.566,5.566,0,0,1-.268-0.544q-0.66-2.2-1.3-4.405c-0.119-.41-0.171-0.844-0.323-1.24-0.418-1.088-.928-2.144-1.3-3.247-0.487-1.455-.856-2.95-1.319-4.413a7.4,7.4,0,0,0-.63-1.188,4.6,4.6,0,0,1-.336-0.659c-0.367-1.072-1.112-2.021-1.02-3.25a2.2,2.2,0,0,0-.322-0.738c-0.352-.918-0.707-1.835-1.034-2.762a9.418,9.418,0,0,0-.417-1.428,13.893,13.893,0,0,1-1.278-4.13,7.3,7.3,0,0,0-.42-1.136c-0.167-.439-0.333-0.879-0.5-1.317A3.483,3.483,0,0,1,72.3,76.9a3.7,3.7,0,0,1-.078-1.72,2.461,2.461,0,0,1,1.314-.593,1.065,1.065,0,0,1,.465.06c1.337,0.229,2.671.48,4.013,0.683,1.224,0.184,1.662-.366,1.4-1.59a13.855,13.855,0,0,1-.276-2.208c-0.055-1.084-.03-2.172-0.055-3.258a14.46,14.46,0,0,0-1.13-4.377,2.966,2.966,0,0,1-.054-1.768,2.615,2.615,0,0,0,0-1.422,20.3,20.3,0,0,1-.463-3.67,3.269,3.269,0,0,0-.448-2.309,2.406,2.406,0,0,1-.479-1.915c0.039-.336.006-0.68,0.042-1.016a2.3,2.3,0,0,0-1.57-2.758,3.911,3.911,0,0,0-2.49-.289,8.572,8.572,0,0,1-2.579.5,17.5,17.5,0,0,0-5.64.469,6.037,6.037,0,0,0-1.931.91C60.589,51.9,58.9,53.248,57.18,54.562c-0.448.343-.9,0.678-1.378,0.983-0.921.593-1.862,1.155-2.784,1.746a2.46,2.46,0,0,0-.84.668c-1.024,1.758-2.934,2.89-3.507,4.965a3.49,3.49,0,0,1-.274.384c-0.24.523-.476,1.05-0.686,1.586a21.384,21.384,0,0,1-.857,2.256c-0.676,1.277-1.522,2.465-2.175,3.753-0.853,1.682-1.548,3.444-2.388,5.132-0.5,1-1.142,1.921-1.72,2.878a5.362,5.362,0,0,0-.339.581c-0.512,1.159-.988,2.335-1.525,3.483q-1.687,3.608-3.432,7.188c-0.3.623-.768,1.167-1.084,1.785-0.72,1.407-1.383,2.843-2.09,4.256-0.565,1.13-1.158,2.246-1.745,3.365a15.581,15.581,0,0,0-1.393,2.7c-0.482,1.653-1.652,2.891-2.35,4.391-0.486,1.046-1.27,1.974-1.351,3.217a2.215,2.215,0,0,1-.65.923,3.741,3.741,0,0,0-.647.73c-0.306.725-.526,1.487-0.784,2.232a1.1,1.1,0,0,0,.363,1.32,9.15,9.15,0,0,0,2.493,1.431c1.17,0.518,2.256,1.224,3.388,1.83a2.226,2.226,0,0,0,.831.278c1.518,0.122,2.726,1.021,4.044,1.619a11.075,11.075,0,0,0,4.619,1.2,1.805,1.805,0,0,0,1.253-.5,23.3,23.3,0,0,0,1.844-2.653c0.426-.683.745-1.432,1.149-2.131,0.536-.926,1.1-1.835,1.667-2.743,0.537-.863,1.105-1.707,1.633-2.576,0.414-.682.812-1.377,1.173-2.089a26.6,26.6,0,0,1,1.283-2.659,21.372,21.372,0,0,0,2.642-4.682,2.777,2.777,0,0,1,.42-0.607,3.932,3.932,0,0,0,.414-0.612c0.4-.9.776-1.807,1.171-2.708a1.672,1.672,0,0,1,.325-0.512c1.386-1.377,1.959-3.232,2.866-4.886,0.926-1.688,1.735-3.44,2.615-5.154,0.484-.944,1.062-1.844,1.5-2.808,0.842-1.847,1.607-3.728,2.426-5.586a2.3,2.3,0,0,1,.563-0.748,0.907,0.907,0,0,1,1.452.454,10.055,10.055,0,0,1-.337,2.222,3.945,3.945,0,0,1-.337.655c-0.4.945-.764,1.907-1.191,2.839-0.4.883-.84,1.754-1.318,2.6a30.52,30.52,0,0,1-1.8,2.914,1.981,1.981,0,0,0-.374,1.75,21.981,21.981,0,0,1,.437,3.352c0.126,2.39.179,4.784,0.248,7.176,0.031,1.057.032,2.114,0.039,3.171,0.008,1.15,0,2.3.013,3.452,0.013,1.171.027,2.343,0.071,3.514a6.951,6.951,0,0,0,.2,2.068,7.2,7.2,0,0,1,.422,2.791c-0.027.7-.021,1.4,0,2.1,0.051,2.034.115,4.068,0.177,6.1a14.285,14.285,0,0,1,.058,1.823,29.721,29.721,0,0,0,.116,7.635,3.646,3.646,0,0,1-.021,1.145c-0.241,1.464.15,2.213,2.129,2.5,1.652,0.241,3.29.585,4.929,0.908,1.085,0.213,2.159.487,3.244,0.7,1.507,0.3,3.021.559,4.529,0.846a15.748,15.748,0,0,0,2.512.482c1.827,0.038,3.535.679,5.322,0.9a4.2,4.2,0,0,1,.445.161,15.836,15.836,0,0,0,2.093.473,6.131,6.131,0,0,1,2.746.625,2.538,2.538,0,0,0,.851.186c0.591,0.109,1.18.227,1.774,0.316a7.474,7.474,0,0,0,1.347.127,0.644,0.644,0,0,0,.684-0.751c-0.042-.631-0.116-1.263-0.114-1.894,0-1.4.088-2.8,0.064-4.195C94.232,134.514,94.132,132.1,94.056,129.683Zm14.2,12.531a9.224,9.224,0,0,0,4.4-.778,7.76,7.76,0,0,1,3.709-1.147,17,17,0,0,0,2.81-.708c1.641-.564,3.248-1.23,4.883-1.813a2.389,2.389,0,0,0,1.567-1.9c0.05-.354.225-0.688,0.286-1.042,0.117-.679.2-1.364,0.28-2.05a7.411,7.411,0,0,0-.03-0.742c0-1.4.11-2.8,0-4.195a53.661,53.661,0,0,1-.475-6.256c0.088-2.392-.038-4.791-0.063-7.187-0.015-1.468.017-2.937-.028-4.405-0.032-1.037-.222-2.071-0.223-3.107,0-1.284.144-2.567,0.183-3.851a35.941,35.941,0,0,0-.647-9.177c-0.375-1.647-.539-3.343-0.8-5.016a6.359,6.359,0,0,0-.922-2.555,27.978,27.978,0,0,1-1.6-3.261c-0.077-.162-0.14-0.331-0.218-0.492-0.273-.564-0.53-1.137-0.833-1.685-0.284-.514-0.656-0.98-0.921-1.5a1.088,1.088,0,0,1,.327-1.5,1.032,1.032,0,0,1,1.421.4,14.612,14.612,0,0,1,1.084,1.72c1.062,1.986,2.081,3.994,3.148,5.976a20.387,20.387,0,0,1,1.343,2.246,27.57,27.57,0,0,0,1.851,3.672c1.134,2.032,2.83,3.749,3.411,6.1a4.5,4.5,0,0,0,.639,1.268c0.811,1.27,1.6,2.555,2.487,3.775,1.14,1.575,1.321,3.653,2.727,5.075a0.373,0.373,0,0,1,.03.06c0.661,1.048,1.291,2.117,2,3.134a3.542,3.542,0,0,1,.791,1.807,2.254,2.254,0,0,0,.718,1.4c1.836,1.547,2.775,3.766,4.284,5.551a1.877,1.877,0,0,0,1.938.693c1.247-.574,2.49-1.159,3.755-1.693,0.894-.377,1.828-0.656,2.73-1.014,2.17-.861,4.343-1.715,6.489-2.633a1.99,1.99,0,0,0,1.545-1.46c0.156-1.72-.684-3.19-1.421-4.647-0.464-.917-1.181-1.7-1.7-2.6-0.429-.735-0.694-1.564-1.113-2.306-0.329-.584-0.847-1.063-1.166-1.65-0.99-1.823-1.94-3.668-2.874-5.52-0.458-.906-0.77-1.891-1.285-2.76-0.595-1-1.426-1.871-2-2.884-0.987-1.737-1.512-3.7-2.6-5.4-0.591-.921-0.988-1.964-1.508-2.933-0.349-.652-0.8-1.251-1.129-1.912-0.292-.582-0.425-1.245-0.725-1.821a7.626,7.626,0,0,0-1.821-2.822,0.562,0.562,0,0,1-.125-0.236c-0.74-1.836-1.5-3.666-2.212-5.511-0.6-1.535-1.1-3.109-1.731-4.628a5.824,5.824,0,0,0-1.981-2.99,2.361,2.361,0,0,1-.693-0.637,24.431,24.431,0,0,0-3.781-4.934c-0.685-.615-1.351-1.252-2.023-1.882-0.311-.292-0.59-0.625-0.926-0.885-1.511-1.17-3.025-2.336-4.561-3.473a8.062,8.062,0,0,0-3.651-1.828c-1.7-.24-3.374-0.61-5.055-0.95a3.086,3.086,0,0,0-2.457.462,3.311,3.311,0,0,1-1.2.429,2.3,2.3,0,0,0-2.192,2.358c-0.046,1.9.052,3.8,0.122,5.7,0.06,1.647.289,3.3,0.224,4.938-0.1,2.618-.383,5.229-0.6,7.842-0.093,1.1-.24,2.2-0.329,3.3a0.912,0.912,0,0,0,.924,1.041,3.572,3.572,0,0,0,1.142-.074c0.726-.165,1.442-0.377,2.156-0.591a1.536,1.536,0,0,1,1.625.4,1.172,1.172,0,0,1,.128,1.325,15.058,15.058,0,0,0-.5,2.168c-0.16,1.046-.146,2.128-0.388,3.152-0.507,2.149-1.151,4.266-1.7,6.405-0.264,1.027-.406,2.086-0.67,3.113-0.527,2.053-1.109,4.093-1.651,6.142-0.513,1.94-1.019,3.881-1.5,5.829-0.422,1.7-.847,3.4-1.194,5.122-0.318,1.572-.483,3.176-0.817,4.744a10.424,10.424,0,0,1-.819,1.835c-0.669,1.545-.882,3.266-1.828,4.707a1.429,1.429,0,0,0-.16.516c-0.136.733-.25,1.471-0.4,2.2a0.976,0.976,0,0,1-.267.593,27.078,27.078,0,0,1-3.464,2.1c-1.5.675-2.153,1.4-2.184,3.053-0.034,1.833-.075,3.665-0.092,5.5-0.026,2.825-.035,5.649-0.051,8.473a1.452,1.452,0,0,0,.009.406c0.456,1.537,1.05,2.39,2.52,1.713a6.655,6.655,0,0,1,1.722-.6C104.3,142.7,106.281,142.47,108.252,142.214ZM81.374,48.677l-0.01-.058c-0.841.159-1.693,0.276-2.518,0.493a0.809,0.809,0,0,0-.519,1.151c0.09,0.3.258,0.579,0.348,0.88,0.437,1.465.856,2.936,1.288,4.4q1.253,4.254,2.511,8.505c0.057,0.2.077,0.4,0.138,0.6,0.642,2.043,1.264,4.092,1.942,6.123,0.46,1.38,1.308,2.65,1.091,4.209a1.586,1.586,0,0,0,.142.588c0.2,0.682.4,1.362,0.594,2.045a5.636,5.636,0,0,0,.259.979,14.764,14.764,0,0,1,1.281,6.121,24.6,24.6,0,0,0,.375,4.923,27.4,27.4,0,0,1,.583,4.553c0.128,1.6.042,3.207,0.064,4.811,0.049,3.57.112,7.14,0.157,10.71,0.009,0.721-.067,1.444-0.05,2.164,0.04,1.687-.507,3.361-0.064,5.062a9.852,9.852,0,0,1,.162,1.753,3.482,3.482,0,0,0,2.217,2.849,4.363,4.363,0,0,1,.721.359q1.084,0.624,2.159,1.262a6.506,6.506,0,0,1,1.018.66c0.816,0.728,1.141.668,1.676-.3a3.458,3.458,0,0,1,.7-0.764,7.141,7.141,0,0,0,1.167-1.064,6.874,6.874,0,0,1,2.212-2.337,1.711,1.711,0,0,0,.566-0.649,5.424,5.424,0,0,0,.42-3.685,19.454,19.454,0,0,1-.089-2.138c-0.03-.6-0.092-1.2-0.131-1.794a4.536,4.536,0,0,1-.058-1.653,10.687,10.687,0,0,0,.138-4.033c-0.044-1.369-.025-2.739-0.031-4.109a3.312,3.312,0,0,0,0-1.138,11.884,11.884,0,0,1-.4-4.16c-0.1-2.26-.131-4.524-0.13-6.787a14.432,14.432,0,0,1,.625-5.163,11.125,11.125,0,0,0,.631-1.778c0.17-.9.133-1.845,0.319-2.743,0.434-2.091.952-4.165,1.43-6.247,0.378-1.65.762-3.3,1.117-4.954a10.9,10.9,0,0,1,.45-2.376,8.864,8.864,0,0,0,.676-3.226c0.043-.54-0.025-1.1.065-1.625,0.4-2.341.8-4.681,1.267-7.009a7.813,7.813,0,0,0-.045-3.224,1.436,1.436,0,0,0-.592-0.912,10.638,10.638,0,0,0-2.7-1.051,46.471,46.471,0,0,0-6.18-.808c-2.934-.131-5.88-0.072-8.819-0.007-1.987.044-3.972,0.231-5.957,0.369C82.845,48.51,82.11,48.6,81.374,48.677Zm4.9,40.456L86.5,89.1a13.033,13.033,0,0,0-.217-2.358c-0.832-3.026-1.03-6.194-2.2-9.151-0.572-1.449-.794-3.033-1.232-4.54-0.153-.528-0.424-1.218-1.133-1.008-0.727.215-.438,0.91-0.382,1.459,0.078,0.762.162,1.527,0.174,2.292a1.636,1.636,0,0,1-.767,1.574,3.391,3.391,0,0,1-1.415.312c-1.014.038-2.031-.013-3.046-0.006a0.838,0.838,0,0,0-.958.769,7.756,7.756,0,0,0,.186,1.717,8.356,8.356,0,0,0,.356.875c0.685,2.187,1.309,4.4,2.048,6.564,1.194,3.5,2.438,6.993,3.706,10.472,1.027,2.819,2.133,5.609,3.175,8.422,0.28,0.756.436,1.556,0.689,2.322a2.456,2.456,0,0,0,.5.933,0.8,0.8,0,0,0,1.407-.286,3.179,3.179,0,0,0,.235-1.25c-0.059-1.695-.162-3.388-0.266-5.081-0.057-.924-0.164-1.846-0.221-2.771-0.073-1.192-.14-2.386-0.166-3.58-0.019-.876.127-1.764,0.033-2.629C86.82,92.475,86.522,90.807,86.272,89.134ZM109,77.586l-0.053.139a4.386,4.386,0,0,1-.848-0.464c-0.65-.566-0.422-1.332-0.369-2.038,0.091-1.229.213-2.455,0.332-3.681,0.109-1.12.234-2.238,0.347-3.358a2.712,2.712,0,0,0,.028-0.671,0.492,0.492,0,0,0-.259-0.346,0.437,0.437,0,0,0-.394.148,4.475,4.475,0,0,0-.6,1.264c-0.315,1.612-.525,3.245-0.841,4.856-0.226,1.149-.63,2.264-0.826,3.416a14.4,14.4,0,0,1-1.045,4.46,1.567,1.567,0,0,0-.1.527c-0.144,1.207-.272,2.416-0.432,3.62a8.581,8.581,0,0,1-.266.837,13.206,13.206,0,0,0-.511,2.354,32.292,32.292,0,0,0,.124,3.316c0.067,1.286.133,2.572,0.22,3.857,0.183,2.706.462,5.409,0.545,8.118,0.082,2.64-.03,5.286-0.059,7.929a0.612,0.612,0,0,0,.6.741c0.489,0.023.583-.3,0.6-0.713a4.7,4.7,0,0,1,.159-1.332,13.2,13.2,0,0,0,1.15-4.71,4.782,4.782,0,0,1,.325-1.376c0.206-.693.476-1.368,0.653-2.068,0.55-2.185,1.037-4.387,1.61-6.566,0.557-2.118,1.249-4.2,1.772-6.327,0.43-1.75.689-3.542,1.042-5.312,0.272-1.366.566-2.728,0.864-4.09a11.252,11.252,0,0,1,.419-1.61c0.3-.787.128-1.105-0.731-1.084C111.3,77.453,110.146,77.53,109,77.586ZM65.732,52.544c0.679,0,1.358.01,2.036,0a0.994,0.994,0,0,1,1.057.83c0.567,1.695,1.208,3.364,1.8,5.05,0.292,0.829.513,1.683,0.817,2.507,0.578,1.561,1.193,3.108,1.795,4.66,0.218,0.563.432,1.127,0.663,1.684,0.291,0.7.027,1.082-.75,1.042-0.922-.048-1.842-0.115-2.764-0.163a2.613,2.613,0,0,1-1.275-.073,2.736,2.736,0,0,1-.27-1.263c-0.248-1.146-.441-1.234-1.618-1.179-1.26.059-2.525,0.051-3.785,0a0.584,0.584,0,0,0-.732.561c-0.082.464-.245,0.913-0.326,1.377a0.768,0.768,0,0,1-.91.688c-1.123,0-2.247.044-3.37,0.032a1.256,1.256,0,0,1-.725-0.281,1.682,1.682,0,0,1,.2-0.609c0.158-.445.316-0.89,0.477-1.334,0.537-1.473,1.064-2.95,1.616-4.418,0.464-1.235.97-2.454,1.43-3.69,0.388-1.044.743-2.1,1.1-3.157,0.214-.633.362-1.293,0.634-1.9a0.977,0.977,0,0,1,.729-0.343c0.72-.046,1.446-0.016,2.169-0.016C65.732,52.551,65.732,52.548,65.732,52.544Zm0.119,9.494,0-.07c0.271,0,.543.013,0.813,0,0.673-.038.772-0.2,0.558-0.846a7.1,7.1,0,0,1-.815-2.945,1.572,1.572,0,0,0-.389-0.841,3.154,3.154,0,0,0-.538-0.5,2.534,2.534,0,0,0-.275.713,10.453,10.453,0,0,1-1.1,3.566c-0.208.472-.118,0.749,0.4,0.822C64.949,62,65.4,62.005,65.851,62.038Zm-0.606,67.346c0-1.218.017-2.436,0-3.653-0.037-2.1,1.238-3.009,3.275-2.488a32.833,32.833,0,0,0,3.82.5c0.714,0.095,1.422.232,2.133,0.342,1.85,0.284,3.7.585,5.552,0.839,1.43,0.2,2.875.291,4.3,0.5a3.18,3.18,0,0,1,2.51,3.186c-0.017,1.478-.074,2.957-0.156,4.433a2.028,2.028,0,0,1-2.555,1.736c-2.531-.438-5.081-0.766-7.623-1.139-0.782-.115-1.564-0.228-2.345-0.345-1.54-.23-3.078-0.47-4.62-0.691-0.558-.081-1.125-0.1-1.683-0.18A2.826,2.826,0,0,1,65.245,129.384Zm2.318-1.3a1.384,1.384,0,0,0,1.448,1.631c1.413,0.153,2.819.369,4.225,0.58,2.075,0.313,4.151.62,6.218,0.979a17.731,17.731,0,0,1,3.21.76c0.845,0.317,1.67.137,1.826-.773a11.392,11.392,0,0,0,.021-2.151,1.2,1.2,0,0,0-.824-1.213,15.743,15.743,0,0,0-2.2-.45c-1.737-.268-3.49-0.45-5.216-0.774-2.562-.481-5.212-0.477-7.694-1.418-0.605-.23-0.994.134-1.007,0.8S67.563,127.413,67.563,128.088Zm34.676,3.222c-0.042-.631-0.081-1.262-0.127-1.893-0.119-1.6.188-3,1.828-3.723a3.7,3.7,0,0,1,1.032-.3c2.131-.265,4.269-0.476,6.4-0.765,1.362-.185,2.706-0.5,4.066-0.7,1.049-.155,2.113-0.208,3.167-0.334a5.084,5.084,0,0,0,1.852-.338c1.622-.923,3.439.436,3.446,2.489,0,1.333-.054,2.667-0.094,4a3.174,3.174,0,0,1-2.506,2.722c-2.644.351-5.283,0.745-7.928,1.089-2.487.324-4.981,0.606-7.471,0.911a2.019,2.019,0,0,0-.588.144,2.121,2.121,0,0,1-3.11-1.939c-0.041-.449-0.006-0.9-0.006-1.357Zm19.288-4.844c0.075-.991-0.35-1.366-1.188-1.175a16.44,16.44,0,0,1-3.93.835,15.534,15.534,0,0,0-2.624.316c-2.588.413-5.175,0.832-7.756,1.285a2.3,2.3,0,0,0-1.2.531,3.411,3.411,0,0,0,.009,3.462c0.334,0.41.655,0.763,1.213,0.262a1.46,1.46,0,0,1,.7-0.214c1.18-.2,2.364-0.374,3.545-0.571,3.364-.562,6.725-1.135,10.089-1.694a1.226,1.226,0,0,0,1.219-1.486C121.59,127.5,121.555,126.983,121.527,126.466ZM117.637,61.2c0-2.688-.008-5.376.018-8.064a0.728,0.728,0,0,1,.385-0.562q2.092-.063,4.189-0.013c0.477,0.012.516,0.435,0.512,0.813-0.019,1.851-.056,3.7-0.061,5.554-0.009,2.781,0,5.562,0,8.344,0,0.877-.1.951-0.98,0.943-1.151-.01-2.3-0.011-3.452.031-0.6.022-.6-0.337-0.6-0.743q0-3.151,0-6.3h-0.02Zm-13.688-3.663c-0.371,1.842-.608,3.481-2.034,4.59a4.344,4.344,0,0,1-.686.4,9.016,9.016,0,0,1-.965.459,2.844,2.844,0,0,1-.954.245c-1.058,0-2.116-.061-3.174-0.086-0.88-.021-0.947.053-0.881,0.9,0.088,1.125.181,2.25,0.269,3.376a0.7,0.7,0,0,1-.81.83c-1.151-.011-2.3-0.013-3.454-0.019a0.522,0.522,0,0,1-.614-0.612c0.052-1.536.109-3.072,0.121-4.608,0.023-2.94.022-5.88,0.012-8.82a4.061,4.061,0,0,0-.194-0.923A0.563,0.563,0,0,1,91.2,52.48c2.87,0.021,5.741.025,8.611,0.077a3.85,3.85,0,0,1,1.141.386,0.923,0.923,0,0,0,.164.114,2.332,2.332,0,0,1,1.961,1.566A14.416,14.416,0,0,1,103.949,57.535Zm-6.985-1.3c-0.4.02-.812,0.018-1.214,0.066a0.543,0.543,0,0,0-.545.733,7.618,7.618,0,0,1,.05,1.684,0.585,0.585,0,0,0,.617.758,6.217,6.217,0,0,0,1.817-.059,2.189,2.189,0,0,0,1.29-.944,1.691,1.691,0,0,0-.311-1.705A1.758,1.758,0,0,0,96.964,56.232Z" transform="translate(-11.281 -15.281)"/>
</svg>
