<svg xmlns="http://www.w3.org/2000/svg" xmlns:xlink="http://www.w3.org/1999/xlink" width="38" height="39" viewBox="0 0 38 39">
  <defs>
    <style>
      .cls-1 {
        fill-rule: evenodd;
        fill: url(#linear-gradient);
      }
    </style>
    <linearGradient id="linear-gradient" x1="1362" y1="3559" x2="1362" y2="3520" gradientUnits="userSpaceOnUse">
      <stop offset="0" stop-color="#ff0006"/>
      <stop offset="1" stop-color="#ff7c00"/>
    </linearGradient>
  </defs>
  <path id="AQUARIUS" class="cls-1" d="M1363.1,3532.6c-1.01-.9-1.8-1.6-2.83-2.52q1.44-2.715,3.09-5.82c1.05,0.35,2.02.68,2.97,1a2.58,2.58,0,0,0,.65-0.84c0.26-2.15.91-4.55,3.25-4.42a7.8,7.8,0,0,1,5.09,2.92,50.194,50.194,0,0,1,4.95,9.02c2.07,4.48-.47,8.49-5.36,8.77-2.91.17-5.8,0.44-8.71,0.56-2.37.1-4.68-.1-5.9-2.69C1358.99,3535.8,1361.12,3534.51,1363.1,3532.6Zm12.41-6.38q-3.6,6.72-7.19,13.43A21.207,21.207,0,0,0,1375.51,3526.22Zm-9.18,13.04c-1.18-1.28-2.3-2.5-3.46-3.75C1361.43,3538.29,1362.35,3539.28,1366.33,3539.26Zm-12,17.36c-5.97.89-9.91-1.18-11.27-6.26-0.28-1.06.6-2.45,0.94-3.68a25.423,25.423,0,0,1,3.19,1.88c0.5,0.4.54,1.35,1.01,1.83a18.627,18.627,0,0,0,2.38,1.84c0.55-1.21,1.56-2.44,1.51-3.62s-1.03-2.42-1.83-3.44c-3.71-4.69-2.48-13.13,1.43-17.25a1.964,1.964,0,0,1,.42-0.44q4.815-2.625,9.65-5.24l0.81,0.51c-1.34,2.56-2.69,5.12-4.03,7.68-0.28-.08-0.56-0.17-0.85-0.25-0.27-.77-0.55-1.53-0.83-2.3-5.26,3.32-5.37,11.71-.21,15.27,1.32,0.92,2.77,1.65,4.17,2.46a8.726,8.726,0,0,1,4.45,7.83c0.12,3.8-1.9,5.73-5.99,5.57,1.27-2.55,4.24-4.62,2.2-7.96-1.44-2.79-4.03-4.01-6.51-5.39C1357.79,3553,1357.77,3553.54,1354.33,3556.62Zm0,0c3.44-3.08,3.46-3.62.64-10.96,2.48,1.38,5.07,2.6,6.51,5.39,0.68,4.99-3.25,7.91-6.19,7.47C1353.88,3558.3,1353.58,3557.81,1354.33,3556.62Z" transform="translate(-1343 -3520)"/>
</svg>
