<svg id="Group_203" data-name="Group 203" xmlns="http://www.w3.org/2000/svg" xmlns:xlink="http://www.w3.org/1999/xlink" width="100.566" height="100.566" viewBox="0 0 100.566 100.566">
  <defs>
    <clipPath id="clip-path">
      <rect id="Rectangle_89" data-name="Rectangle 89" width="100.566" height="100.566" transform="translate(0 0)" fill="none"/>
    </clipPath>
    <clipPath id="clip-path-2">
      <path id="Path_44" data-name="Path 44" d="M48.979,36.295c-4.039.291-8.668.085-12.087,2.612-3.9,2.883-4.754,8.282-3.628,12.732A46.512,46.512,0,0,0,36.6,59.822c1.624,3.467,2.372,7.3,4.242,10.658,2.358,4.236,6.128,5.734,10.917,5.164a8.226,8.226,0,0,0,6.353-3.585c1.368-2.176,1.95-4.724,2.872-7.1,1.625-4.182,4.953-8.435,5.932-12.819.794-3.551,1.684-8.534-.65-11.711A8.441,8.441,0,0,0,62.94,37.96a22.632,22.632,0,0,0-9.71-1.84c-1.421,0-2.844.074-4.251.175" fill="none"/>
    </clipPath>
  </defs>
  <g id="Group_198" data-name="Group 198">
    <g id="Group_197" data-name="Group 197" clip-path="url(#clip-path)">
      <path id="Path_30" data-name="Path 30" d="M100.566,50.283A50.283,50.283,0,1,1,50.283,0a50.282,50.282,0,0,1,50.283,50.283" fill="#35208a"/>
      <path id="Path_31" data-name="Path 31" d="M77.292,42.6a.31.31,0,0,0-.008-.042.515.515,0,0,0-.06-.208c-.7-1.348-2.765-1.57-4.127-1.7a9.941,9.941,0,0,0-4.93.771,9.589,9.589,0,0,0-3.776,3.144,4.075,4.075,0,0,0-1.158,3.405c.795,3.088,5.832,2.582,7.987,1.759,2.9-1.107,6.37-3.626,6.072-7.133" fill="#ffb07f"/>
      <path id="Path_32" data-name="Path 32" d="M74.594,44.262a1.017,1.017,0,0,0-.707-.57,6.8,6.8,0,0,0-4.115-.19A5.559,5.559,0,0,0,66.5,45.956,1.969,1.969,0,0,0,66,47.984a2.4,2.4,0,0,0,1.464.953,6.565,6.565,0,0,0,5.822-1.786,3.89,3.89,0,0,0,.9-1.052,4.72,4.72,0,0,0,.4-1.345,1.066,1.066,0,0,0,.016-.492" fill="#fff"/>
      <path id="Path_33" data-name="Path 33" d="M36.175,44.563a9.557,9.557,0,0,0-3.6-3.061,9.915,9.915,0,0,0-5.109-.854c-1.362.128-3.423.346-4.127,1.7a.515.515,0,0,0-.06.208.31.31,0,0,0-.008.042c-.292,3.436,3.045,5.922,5.878,7.058,2.175.873,7.365,1.489,8.181-1.684.331-1.288-.424-2.44-1.158-3.4" fill="#ffb07f"/>
      <path id="Path_34" data-name="Path 34" d="M25.972,44.262a1.019,1.019,0,0,1,.707-.57,6.8,6.8,0,0,1,4.115-.19,5.559,5.559,0,0,1,3.267,2.454,1.966,1.966,0,0,1,.506,2.028,2.4,2.4,0,0,1-1.464.953,6.565,6.565,0,0,1-5.822-1.786,3.89,3.89,0,0,1-.9-1.052,4.72,4.72,0,0,1-.4-1.345,1.079,1.079,0,0,1-.016-.492" fill="#fff"/>
      <path id="Path_35" data-name="Path 35" d="M66.261,40.435a8.429,8.429,0,0,0-3.32-2.474c-4.368-2.043-9.254-2-13.962-1.665-4.039.291-8.668.084-12.086,2.611-3.9,2.883-4.754,8.282-3.629,12.733A46.5,46.5,0,0,0,36.6,59.823c2.524,5.389,3.489,13.847,9.943,15.61a13.644,13.644,0,0,0,5.34.162,10.932,10.932,0,0,0,3.7-1.012c3.169-1.661,4.21-6.565,5.4-9.619,1.625-4.181,4.954-8.435,5.933-12.818.793-3.552,1.684-8.534-.651-11.711" fill="#ffb07f"/>
      <path id="Path_36" data-name="Path 36" d="M56.884,73.547a6.818,6.818,0,0,0,1.309-5.814c-.77-3.766-4.6-5.093-8.053-4.9-3.186.181-6.739,1.477-7.678,4.851-.744,2.676.452,6.393,3.2,7.46a9.4,9.4,0,0,0,2.762.516,17.8,17.8,0,0,0,5.594-.368,5.486,5.486,0,0,0,2.869-1.749" fill="#fff"/>
      <path id="Path_37" data-name="Path 37" d="M62.845,55.6a2.1,2.1,0,1,0-2.1-2.1,2.12,2.12,0,0,0,2.1,2.1" fill="#35208a"/>
      <path id="Path_38" data-name="Path 38" d="M37.722,55.6a2.1,2.1,0,1,0-2.1-2.1,2.12,2.12,0,0,0,2.1,2.1" fill="#35208a"/>
      <path id="Path_39" data-name="Path 39" d="M47.117,69.664a1.075,1.075,0,0,1,.805.245,1.166,1.166,0,0,1,.295.375.942.942,0,0,0,.579.511.657.657,0,0,0,.737-.3c.419-.691-.3-1.477-.852-1.845a2.572,2.572,0,0,0-1.944-.363.721.721,0,0,0-.5.878.731.731,0,0,0,.878.5" fill="#35208a"/>
      <path id="Path_40" data-name="Path 40" d="M53.829,68.287a2.572,2.572,0,0,0-1.944.363c-.552.368-1.271,1.154-.852,1.845a.661.661,0,0,0,.737.3.953.953,0,0,0,.554-.461,1.331,1.331,0,0,1,.32-.425,1.072,1.072,0,0,1,.805-.245.737.737,0,0,0,.879-.5.72.72,0,0,0-.5-.878" fill="#35208a"/>
      <path id="Path_41" data-name="Path 41" d="M46.116,72.21a7.335,7.335,0,0,0,8.392-.412c.248-.2-.079-.624-.342-.442a7.024,7.024,0,0,1-7.764.365.283.283,0,0,0-.286.489" fill="#35208a"/>
    </g>
  </g>
  <g id="Group_200" data-name="Group 200">
    <g id="Group_199" data-name="Group 199" clip-path="url(#clip-path-2)">
      <path id="Path_42" data-name="Path 42" d="M63.879,63.157a3.437,3.437,0,1,1,3.437-3.437,3.476,3.476,0,0,1-3.437,3.437" fill="#e0435b"/>
      <path id="Path_43" data-name="Path 43" d="M36.616,63.157a3.437,3.437,0,1,1,3.437-3.437,3.476,3.476,0,0,1-3.437,3.437" fill="#e0435b"/>
    </g>
  </g>
  <g id="Group_202" data-name="Group 202">
    <g id="Group_201" data-name="Group 201" clip-path="url(#clip-path)">
      <path id="Path_45" data-name="Path 45" d="M85.637,39.562a.176.176,0,0,0-.01-.03.2.2,0,0,0,0-.035,18.205,18.205,0,0,0-22.42-14.1,12.79,12.79,0,0,0-6.773,5.515,12.208,12.208,0,0,0-1.953,6.249c.017,2.292,1.809,4.133,3.613,5.311,1.875,1.226,4.409,2.192,6.672,1.673,1.163-.266,1.585-1.006,2.262-1.935,1.165-1.6,2.284-3.1,4.361-3.45,2.506-.422,4.44,1.667,5.208,3.863a9.253,9.253,0,0,1-.526,7.243c-1.756,3.3-6.377,4.218-9.716,3.213a.248.248,0,0,0-.277.36c2.446,4.6,9.8,4.321,13.4,1.361a17.58,17.58,0,0,0,6.16-15.238" fill="#96cbeb"/>
      <path id="Path_46" data-name="Path 46" d="M70.5,53.8a1.813,1.813,0,0,1,.154,1.21,1.479,1.479,0,0,1-.22.485c-.117.165-.248.24-.282.445a.211.211,0,0,0,.2.262c.506,0,.789-.743.868-1.163a1.789,1.789,0,0,0-.36-1.517c-.183-.213-.458.059-.36.278" fill="#35208a"/>
      <path id="Path_47" data-name="Path 47" d="M73.185,52.858c-.1.443.526.842.717,1.223a2.964,2.964,0,0,1,.13,2.31c-.118.349.431.5.551.152a3.388,3.388,0,0,0-1.049-3.758.248.248,0,0,0-.251,0c-.031.015-.089.03-.1.073" fill="#35208a"/>
      <path id="Path_48" data-name="Path 48" d="M75.287,51.83a4.9,4.9,0,0,1,1.871,1.227,7.708,7.708,0,0,1,.982,2c.115.237.419.087.444-.12a3.334,3.334,0,0,0-.96-2.218,3.865,3.865,0,0,0-2.151-1.334c-.246-.043-.456.324-.186.441" fill="#35208a"/>
      <path id="Path_49" data-name="Path 49" d="M76.537,49.746a12.648,12.648,0,0,1,2.943.449,2.814,2.814,0,0,1,1.245.919,12.753,12.753,0,0,1,.571,1.17.179.179,0,0,0,.323-.042c.3-.909-.63-1.868-1.348-2.305a5.823,5.823,0,0,0-3.734-.6.212.212,0,0,0,0,.406" fill="#35208a"/>
      <path id="Path_50" data-name="Path 50" d="M77.378,47.079a5.608,5.608,0,0,1,6.265,1.655.239.239,0,0,0,.374-.289,5.179,5.179,0,0,0-6.8-1.758.215.215,0,0,0,.165.392" fill="#35208a"/>
      <path id="Path_51" data-name="Path 51" d="M77.408,45.012a1.655,1.655,0,0,0,.971-.336,7.162,7.162,0,0,1,2.334-.78c1.528-.239,2.727.264,4.185.47.154.022.332-.172.175-.3-1.12-.918-3.032-.952-4.4-.74-1.006.156-2.932.562-3.3,1.648a.031.031,0,0,0,.029.038" fill="#35208a"/>
      <path id="Path_52" data-name="Path 52" d="M76.817,41.923a9.388,9.388,0,0,1,2.93-2.785,6.421,6.421,0,0,1,5-.217c.348.121.5-.431.152-.55-2.907-1-7.422.008-8.375,3.383-.045.16.174.3.29.169" fill="#35208a"/>
      <path id="Path_53" data-name="Path 53" d="M74.722,39.276c1.145-1.028,1.685-2.729,2.768-3.877a8.138,8.138,0,0,1,1.934-1.536,16.214,16.214,0,0,1,2.479-.885.178.178,0,0,0-.047-.348c-1.6-.211-3.355,1.007-4.447,2.067-1.126,1.093-2.649,2.92-2.827,4.521-.009.076.092.1.14.058" fill="#35208a"/>
      <path id="Path_54" data-name="Path 54" d="M72.6,38.308a4.711,4.711,0,0,0,.693-1.871,19.764,19.764,0,0,1,1.11-3.278,15.317,15.317,0,0,1,3.344-4.624c.259-.249-.135-.642-.393-.394A15.767,15.767,0,0,0,73.92,32.88a17.357,17.357,0,0,0-.962,2.677,6.5,6.5,0,0,0-.48,2.72.07.07,0,0,0,.117.031" fill="#35208a"/>
      <path id="Path_55" data-name="Path 55" d="M70.477,38.637a7.589,7.589,0,0,0-.034-2.757c-.093-1.1-.172-2.192-.2-3.29a19.807,19.807,0,0,1,.834-6.739c.111-.34-.421-.484-.534-.148a19.434,19.434,0,0,0-.852,6.652c.026,1.178.115,2.352.223,3.525a7.609,7.609,0,0,0,.487,2.767.042.042,0,0,0,.077-.01" fill="#35208a"/>
      <path id="Path_56" data-name="Path 56" d="M69.511,38.715c-1.956-1.356-2.986-3.462-3.877-5.633a14.071,14.071,0,0,1-1.1-7.222c.048-.353-.49-.51-.543-.15a14.725,14.725,0,0,0,1.289,7.974c.681,1.584,2.038,5.252,4.15,5.333a.163.163,0,0,0,.082-.3" fill="#35208a"/>
      <path id="Path_57" data-name="Path 57" d="M68.258,40.04c-2.648-.039-5.025-2.66-6.492-4.677a12.376,12.376,0,0,1-2.426-6.585c-.023-.352-.564-.359-.554,0A12.6,12.6,0,0,0,61.692,36.2c1.464,1.851,4,4.691,6.628,4.3.268-.04.194-.457-.062-.461" fill="#35208a"/>
      <path id="Path_58" data-name="Path 58" d="M66.88,41.775a10.47,10.47,0,0,1-3.811-.184,11.488,11.488,0,0,1-3.779-2.1,10.225,10.225,0,0,1-2.311-2.612c-.625-1.009-.907-2.131-1.423-3.178a.2.2,0,0,0-.361.1c.049,2.484,2.228,5.011,4.11,6.424,2.028,1.522,5.128,3.043,7.663,1.887a.178.178,0,0,0-.088-.33" fill="#35208a"/>
      <path id="Path_59" data-name="Path 59" d="M45.1,32.8a13.705,13.705,0,0,0-5.737-6.528c-2.7-1.556-6.016-1.689-9.033-1.261C22.661,26.1,16.2,31.667,14.938,39.5c0,.012,0,.023,0,.035s-.008.018-.01.03A17.586,17.586,0,0,0,21.089,54.8c3.6,2.96,10.952,3.241,13.4-1.361a.248.248,0,0,0-.276-.36c-2.958.89-6.81.285-8.948-2.1C22.5,47.9,22.9,41.956,26.248,39.449a4.363,4.363,0,0,1,5.531.582c1.1,1.071,1.715,2.726,2.915,3.66,1.6,1.242,4.4.436,6.027-.275,2.06-.9,4.213-2.473,5.055-4.64.729-1.876.066-4.206-.675-5.975" fill="#96cbeb"/>
      <path id="Path_60" data-name="Path 60" d="M29.7,53.524a1.785,1.785,0,0,0-.359,1.517c.078.423.361,1.161.867,1.163a.211.211,0,0,0,.2-.262.752.752,0,0,0-.229-.379,1.462,1.462,0,0,1-.273-.551,1.813,1.813,0,0,1,.154-1.21c.1-.217-.175-.493-.36-.278" fill="#35208a"/>
      <path id="Path_61" data-name="Path 61" d="M27.35,52.817l-.067-.032a.25.25,0,0,0-.252,0,3.387,3.387,0,0,0-1.048,3.758c.119.345.67.2.551-.152a2.959,2.959,0,0,1,.279-2.57c.031-.05.851-.853.537-1" fill="#35208a"/>
      <path id="Path_62" data-name="Path 62" d="M25.094,51.389a3.867,3.867,0,0,0-2.153,1.334,3.33,3.33,0,0,0-.96,2.218c.026.207.329.357.444.12a7.679,7.679,0,0,1,.983-2,4.909,4.909,0,0,1,1.871-1.227c.268-.116.062-.485-.185-.441" fill="#35208a"/>
      <path id="Path_63" data-name="Path 63" d="M24.029,49.339a5.8,5.8,0,0,0-3.734.6c-.716.44-1.647,1.394-1.348,2.3a.179.179,0,0,0,.323.043c.186-.313.235-.666.424-.979a2.849,2.849,0,0,1,1.392-1.111,12.864,12.864,0,0,1,2.943-.449.212.212,0,0,0,0-.406" fill="#35208a"/>
      <path id="Path_64" data-name="Path 64" d="M23.353,46.687a5.179,5.179,0,0,0-6.8,1.758.239.239,0,0,0,.374.289,5.611,5.611,0,0,1,6.265-1.655.215.215,0,0,0,.165-.392" fill="#35208a"/>
      <path id="Path_65" data-name="Path 65" d="M23.188,44.974c-.365-1.09-2.283-1.492-3.3-1.648-1.369-.211-3.278-.178-4.4.74-.156.128.022.321.175.3,1.454-.206,2.659-.711,4.185-.47a7.21,7.21,0,0,1,2.16.684,2.206,2.206,0,0,0,1.145.432.03.03,0,0,0,.029-.038" fill="#35208a"/>
      <path id="Path_66" data-name="Path 66" d="M24.039,41.754c-.954-3.376-5.468-4.389-8.375-3.384-.345.12-.2.672.152.551a6.4,6.4,0,0,1,5,.217,9.5,9.5,0,0,1,2.93,2.785c.116.134.335-.009.29-.169" fill="#35208a"/>
      <path id="Path_67" data-name="Path 67" d="M25.985,39.218c-.179-1.608-1.7-3.428-2.828-4.521-1.092-1.061-2.844-2.277-4.446-2.067a.178.178,0,0,0-.048.348c1.7.637,3.1,1.03,4.413,2.422,1.084,1.148,1.622,2.848,2.768,3.876.048.043.149.018.141-.058" fill="#35208a"/>
      <path id="Path_68" data-name="Path 68" d="M28.088,38.277a5.9,5.9,0,0,0-.413-2.476,18.18,18.18,0,0,0-1.029-2.921,15.75,15.75,0,0,0-3.429-4.739c-.258-.248-.652.145-.393.393a15.341,15.341,0,0,1,3.345,4.625,18.636,18.636,0,0,1,1.044,3.033,5.481,5.481,0,0,0,.758,2.116.07.07,0,0,0,.117-.031" fill="#35208a"/>
      <path id="Path_69" data-name="Path 69" d="M30.167,38.647a7.609,7.609,0,0,0,.487-2.767c.107-1.173.2-2.348.223-3.525a19.432,19.432,0,0,0-.853-6.652c-.112-.336-.645-.193-.534.147a19.816,19.816,0,0,1,.835,6.74c-.029,1.1-.109,2.195-.2,3.29a7.589,7.589,0,0,0-.034,2.757.043.043,0,0,0,.078.01" fill="#35208a"/>
      <path id="Path_70" data-name="Path 70" d="M31.138,39.017c2.11-.081,3.469-3.749,4.151-5.333a14.745,14.745,0,0,0,1.289-7.974c-.053-.359-.592-.2-.544.15a14.061,14.061,0,0,1-1.1,7.222c-.891,2.171-1.921,4.277-3.877,5.633-.123.085-.09.309.082.3" fill="#35208a"/>
      <path id="Path_71" data-name="Path 71" d="M32.246,40.5c2.625.388,5.163-2.451,6.628-4.3a12.6,12.6,0,0,0,2.906-7.419c.01-.358-.531-.353-.553,0A12.392,12.392,0,0,1,38.8,35.362c-1.468,2.017-3.845,4.639-6.493,4.677-.253,0-.332.421-.062.461" fill="#35208a"/>
      <path id="Path_72" data-name="Path 72" d="M33.6,42.1c2.535,1.156,5.636-.364,7.664-1.887,1.881-1.413,4.061-3.941,4.109-6.424a.194.194,0,0,0-.36-.1c-.516,1.047-.8,2.169-1.423,3.178a10.24,10.24,0,0,1-2.31,2.612,11.5,11.5,0,0,1-3.781,2.1,10.464,10.464,0,0,1-3.81.184c-.169-.009-.25.257-.089.33" fill="#35208a"/>
      <path id="Path_73" data-name="Path 73" d="M44.609,42.411a2.8,2.8,0,0,0,.11,2.912,3.376,3.376,0,0,0,2.473,1.716c.305.029.305-.4.066-.493a3.822,3.822,0,0,1-2.072-1.5,5.916,5.916,0,0,1-.481-2.6c-.006-.041-.062-.083-.1-.04" fill="#35208a"/>
      <path id="Path_74" data-name="Path 74" d="M47.39,42.559c-.195,1.275,1.018,2.729,1.9,3.528.959.865,2.207,1.544,3.475.967.271-.124.078-.581-.2-.484-1.338.461-2.606-.5-3.448-1.468-.681-.779-.959-1.824-1.632-2.568a.056.056,0,0,0-.094.025" fill="#35208a"/>
      <path id="Path_75" data-name="Path 75" d="M52.776,44.39c.825.723,2.624,1.6,3.564.59a.237.237,0,0,0-.229-.393,2.5,2.5,0,0,1-1.547.18,9.714,9.714,0,0,1-1.522-.722c-.209-.095-.468.167-.266.345" fill="#35208a"/>
      <path id="Path_76" data-name="Path 76" d="M47.3,11.833a.139.139,0,0,0-.048-.117c-.3-.562-1.375-.673-1.916-.779-.882-.175-1.776-.28-2.668-.4-.146-.019-.292-.043-.438-.061-.059-.007-.162-.057-.151-.031a2.74,2.74,0,0,1-.269-.618c-.37-.861-.726-1.728-1.1-2.586-.19-.435-.384-.869-.591-1.3-.127-.264-.273-.759-.566-.887-.65-.284-1.1,1.323-1.278,1.711-.414.927-.8,1.865-1.2,2.8-.084.195-.225.758-.4.892a4.321,4.321,0,0,1-.848.044c-.4.032-.793.063-1.189.1a10.516,10.516,0,0,0-2.013.32c-.393.116-1.1.305-1.035.849.05.447.736.869,1.045,1.115A13.248,13.248,0,0,0,34.3,14.02a8.021,8.021,0,0,1,.847.447c.314.238.163.488.078.809-.18.679-.361,1.356-.527,2.038-.134.555-.264,1.114-.35,1.679a2.25,2.25,0,0,0-.028,1.176c.409.869,1.977-.652,2.356-.944q.713-.549,1.4-1.135c.223-.192.444-.386.661-.585.122-.112.433-.539.59-.565.256-.043.943.79,1.151.969.47.4.954.793,1.444,1.173A4.79,4.79,0,0,0,44.2,20.374c.771.069.4-1.1.3-1.559-.244-1.1-.6-2.17-.926-3.244-.07-.232-.161-.469-.21-.707-.054-.259-.045-.242.174-.374.426-.257.944-.416,1.39-.641.716-.361,2.15-1.012,2.352-1.908a.154.154,0,0,0,.016-.108" fill="#fff896"/>
      <path id="Path_77" data-name="Path 77" d="M75.607,82.295c-1.212-.106-2.448-.092-3.676-.079q.521-.513,1.038-1.031a7.537,7.537,0,0,0,1.5-1.748.341.341,0,0,0-.462-.462,7.584,7.584,0,0,0-1.775,1.475q-.537.516-1.067,1.037.006-.749,0-1.5a7.553,7.553,0,0,0-.174-2.3.341.341,0,0,0-.652,0,7.617,7.617,0,0,0-.213,2.3c-.01.5-.016.992-.021,1.487q-.525-.532-1.054-1.061a7.537,7.537,0,0,0-1.748-1.5.341.341,0,0,0-.462.463,7.6,7.6,0,0,0,1.475,1.774c.343.358.69.713,1.036,1.067-.5,0-1-.006-1.5-.005a7.553,7.553,0,0,0-2.3.174.341.341,0,0,0,0,.652,7.617,7.617,0,0,0,2.3.213c.485.01.97.016,1.455.021-.9.845-1.8,1.695-2.6,2.616a.5.5,0,0,0,.713.713c.924-.775,1.78-1.649,2.632-2.519-.035,1.219-.07,2.446.014,3.651a.5.5,0,0,0,1.009,0c.105-1.2.092-2.425.079-3.642.838.887,1.681,1.78,2.592,2.572a.505.505,0,0,0,.714-.714c-.775-.923-1.65-1.779-2.52-2.631,1.22.035,2.447.07,3.652-.014a.5.5,0,0,0,0-1.009" fill="#fff"/>
      <path id="Path_78" data-name="Path 78" d="M68.382,16.218a1.28,1.28,0,0,0,.878-.364,1.241,1.241,0,0,0,0-1.754,1.24,1.24,0,0,0-1.755,0,1.238,1.238,0,0,0,0,1.754,1.287,1.287,0,0,0,.877.364" fill="#fff"/>
      <path id="Path_79" data-name="Path 79" d="M52.951,23.993a1.176,1.176,0,0,0,.807-.334,1.141,1.141,0,0,0-.807-1.948,1.176,1.176,0,0,0-.807.334,1.141,1.141,0,0,0,.807,1.948" fill="#fff"/>
      <path id="Path_80" data-name="Path 80" d="M84.611,28.622a1.287,1.287,0,0,0,.882-.365,1.247,1.247,0,0,0-.882-2.129,1.287,1.287,0,0,0-.882.365,1.247,1.247,0,0,0,.882,2.129" fill="#fff"/>
      <path id="Path_81" data-name="Path 81" d="M82.217,61.346a1.287,1.287,0,0,0,.882-.365,1.247,1.247,0,0,0-.882-2.129,1.287,1.287,0,0,0-.882.365,1.247,1.247,0,0,0,.882,2.129" fill="#fff"/>
      <path id="Path_82" data-name="Path 82" d="M85.808,75.962a1.133,1.133,0,0,0,.776-.321,1.1,1.1,0,0,0-.776-1.874,1.134,1.134,0,0,0-.776.322,1.1,1.1,0,0,0,.776,1.873" fill="#fff"/>
      <path id="Path_83" data-name="Path 83" d="M54.814,82.016a1.207,1.207,0,0,0,.825-.341,1.167,1.167,0,0,0-.825-1.991,1.2,1.2,0,0,0-.825.342,1.166,1.166,0,0,0,.825,1.99" fill="#fff"/>
      <path id="Path_84" data-name="Path 84" d="M47.565,93.178l.106.012a1.16,1.16,0,0,0,.825-.341,1.167,1.167,0,0,0,0-1.649,1.125,1.125,0,0,0-.825-.342l-.106.013a1.282,1.282,0,0,0-.816.338,1.153,1.153,0,0,0,0,1.631l.234.18a1.146,1.146,0,0,0,.582.158" fill="#fff"/>
      <path id="Path_85" data-name="Path 85" d="M33.264,78.689a1.338,1.338,0,0,0,.917-.38,1.3,1.3,0,0,0-.917-2.214,1.338,1.338,0,0,0-.917.38,1.3,1.3,0,0,0,.917,2.214" fill="#fff"/>
      <path id="Path_86" data-name="Path 86" d="M12.512,72.05a1.353,1.353,0,0,0,.926-.383,1.31,1.31,0,0,0-.926-2.236,1.35,1.35,0,0,0-.926.384,1.31,1.31,0,0,0,.926,2.235" fill="#fff"/>
      <path id="Path_87" data-name="Path 87" d="M25.548,62.323a1.194,1.194,0,0,0,.82-.34,1.16,1.16,0,0,0-.82-1.98,1.2,1.2,0,0,0-.82.34,1.16,1.16,0,0,0,.82,1.98" fill="#fff"/>
      <path id="Path_88" data-name="Path 88" d="M11.864,49.654a1.118,1.118,0,0,0-.369-.724,1.265,1.265,0,0,0-.846-.35l-.318.043a1.188,1.188,0,0,0-.527.307,1.17,1.17,0,0,0-.348.57c-.011.05-.014.1-.021.154a1.257,1.257,0,0,0,.324,1.225,1.259,1.259,0,0,0,1.781,0,1.257,1.257,0,0,0,.324-1.225" fill="#fff"/>
      <path id="Path_89" data-name="Path 89" d="M21.771,23.123a1.069,1.069,0,1,0-1.07-1.069,1.08,1.08,0,0,0,1.07,1.069" fill="#fff"/>
      <path id="Path_90" data-name="Path 90" d="M71.309,69.259a1.179,1.179,0,0,0,0-2.357,1.179,1.179,0,0,0,0,2.357" fill="#f7b9e7"/>
      <path id="Path_91" data-name="Path 91" d="M94.189,52.464a.88.88,0,0,0,0-1.758.88.88,0,0,0,0,1.758" fill="#f7b9e7"/>
      <path id="Path_92" data-name="Path 92" d="M24.75,84.739l.321-.039a1.708,1.708,0,0,0,.534-.183,1.173,1.173,0,0,0,0-2.013,1.707,1.707,0,0,0-.534-.182c-.107-.015-.214-.028-.321-.04a1.233,1.233,0,0,0-.869.36,1.23,1.23,0,0,0,0,1.737,1.192,1.192,0,0,0,.869.36" fill="#f7b9e7"/>
      <path id="Path_93" data-name="Path 93" d="M11.123,32.787a1.257,1.257,0,0,0,.862-.357,1.219,1.219,0,0,0,0-1.724,1.219,1.219,0,0,0-1.724,0,1.219,1.219,0,0,0,0,1.724,1.268,1.268,0,0,0,.862.357" fill="#f7b9e7"/>
    </g>
  </g>
</svg>
