<svg id="twitter" xmlns="http://www.w3.org/2000/svg" width="23" height="23" viewBox="0 0 23 23">
  <defs>
    <style>
      .cls-1 {
        fill: #50abf1;
      }

      .cls-2 {
        fill: #fff;
        fill-rule: evenodd;
      }
    </style>
  </defs>
  <rect id="Rounded_Rectangle_537_copy" data-name="Rounded Rectangle 537 copy" class="cls-1" width="23" height="23" rx="4" ry="4"/>
  <path class="cls-2" d="M920.015,492.767a5.371,5.371,0,0,0,3.831-1.141,2.831,2.831,0,0,1-2.493-1.945h1.079l0.018-.057a2.838,2.838,0,0,1-2.041-2.705l1.088,0.313c0.013-.02.026-0.041,0.038-0.062a2.918,2.918,0,0,1-.743-3.675,7.646,7.646,0,0,0,5.548,2.91c-0.013-.2-0.03-0.361-0.033-0.527a2.723,2.723,0,0,1,2.891-2.871,2.525,2.525,0,0,1,1.623.73,0.3,0.3,0,0,0,.347.09q0.651-.253,1.3-0.51c0.049-.019.1-0.042,0.15-0.066a2.653,2.653,0,0,1-.976,1.453c0.146-.026.293-0.044,0.437-0.078s0.291-.081.434-0.127,0.3-.1.443-0.154L933,484.388c-0.2.246-.394,0.5-0.61,0.735-0.174.187-.384,0.339-0.564,0.522a0.419,0.419,0,0,0-.12.262,8.178,8.178,0,0,1-2.167,5.722,7.088,7.088,0,0,1-4.7,2.33,7.472,7.472,0,0,1-3.853-.607c-0.336-.15-0.657-0.338-0.985-0.508Z" transform="translate(-915 -477)"/>
</svg>
