<svg xmlns="http://www.w3.org/2000/svg" width="17" height="25" viewBox="0 0 17 25">
  <defs>
    <style>
      .cls-1 {
        fill: #6e6e6e;
        fill-rule: evenodd;
      }
    </style>
  </defs>
  <path id="SAVE" class="cls-1" d="M1161,488.5c0,3.805-.01,7.61,0,11.415a0.981,0.981,0,0,1-.47,1.006,0.83,0.83,0,0,1-.98-0.26c-2.24-1.945-4.5-3.882-6.74-5.834a0.389,0.389,0,0,0-.62,0c-2.25,1.953-4.5,3.891-6.75,5.838a0.825,0.825,0,0,1-.98.253,0.979,0.979,0,0,1-.46-1.009V477.084a0.871,0.871,0,0,1,1.03-1.084h14.94c0.79,0,1.03.264,1.03,1.127V488.5Zm-15.43,9.895c0.18-.151.31-0.249,0.43-0.353,1.95-1.681,3.89-3.364,5.84-5.045a0.81,0.81,0,0,1,1.33.007l5.82,5.023c0.13,0.114.27,0.221,0.43,0.355V477.694h-13.85v20.7Z" transform="translate(-1144 -476)"/>
</svg>
