<svg xmlns="http://www.w3.org/2000/svg" width="19" height="24" viewBox="0 0 19 24">
  <defs>
    <style>
      .cls-1 {
        fill: #828282;
        fill-rule: evenodd;
      }
    </style>
  </defs>
  <path id="copy" class="cls-1" d="M1029.46,489.715v-7.538a2.587,2.587,0,0,1,2.78-2.747q4.995,0,9.97,0a2.59,2.59,0,0,1,2.79,2.787v14.991a2.6,2.6,0,0,1-2.83,2.791h-9.88a2.6,2.6,0,0,1-2.83-2.831v-7.453Zm1.73-.025v7.537a0.9,0.9,0,0,0,1.04,1.052c3.32,0,6.65,0,9.97,0a0.911,0.911,0,0,0,1.07-1.069V482.222a0.912,0.912,0,0,0-1.07-1.073h-9.92a0.918,0.918,0,0,0-1.09,1.089v7.452ZM1026,487.4q0-3.533.01-7.066a4.277,4.277,0,0,1,4.33-4.331q4.65-.009,9.28,0a2.5,2.5,0,0,1,.3.007,0.858,0.858,0,0,1,.01,1.7,3.429,3.429,0,0,1-.43.008c-2.95,0-5.9.047-8.84-.017a2.768,2.768,0,0,0-2.94,2.9c0.05,4.624.02,9.25,0.02,13.874,0,0.143,0,.286-0.01.428a0.861,0.861,0,0,1-1.72,0c-0.02-.342-0.01-0.685-0.01-1.028V487.4Z" transform="translate(-1026 -476)"/>
</svg>
