<svg id="facebook" xmlns="http://www.w3.org/2000/svg" width="23" height="23" viewBox="0 0 23 23">
  <defs>
    <style>
      .cls-1 {
        fill: #1778f2;
      }

      .cls-2 {
        fill: #fff;
        fill-rule: evenodd;
      }
    </style>
  </defs>
  <rect id="Rounded_Rectangle_537" data-name="Rounded Rectangle 537" class="cls-1" width="23" height="23" rx="4" ry="4"/>
  <path class="cls-2" d="M869.037,487h2.283c0-.116,0-0.213,0-0.31,0.017-.883-0.008-1.77.06-2.65A3.228,3.228,0,0,1,874.654,481c0.7,0,1.395.049,2.093,0.073a0.222,0.222,0,0,1,.252.274q-0.018,1.026,0,2.053c0,0.214-.072.265-0.273,0.263-0.515,0-1.032-.008-1.545.028a0.961,0.961,0,0,0-.987.993c-0.034.757-.008,1.516-0.008,2.309h2.561c-0.054.456-.1,0.875-0.153,1.294s-0.128.859-.158,1.291a0.257,0.257,0,0,1-.325.283c-0.549-.012-1.1.006-1.647-0.009a0.236,0.236,0,0,0-.3.292c0.009,2.2.006,4.406,0.006,6.61V497H871.32v-0.28c0-2.187,0-4.373,0-6.56,0-.238-0.06-0.315-0.3-0.308-0.6.017-1.2,0-1.8,0.006-0.126,0-.227,0-0.226-0.178,0.007-.859,0-1.719.007-2.579A0.468,0.468,0,0,1,869.037,487Z" transform="translate(-861 -477)"/>
</svg>
