<svg id="BJD" xmlns="http://www.w3.org/2000/svg" width="517" height="517" viewBox="0 0 517 517">
  <defs>
    <style>
      .cls-1 {
        fill: #018c49;
        stroke: #acacac;
        stroke-width: 4px;
      }

      .cls-2 {
        fill: #1e2630;
      }

      .cls-2, .cls-3 {
        fill-rule: evenodd;
      }

      .cls-3 {
        fill: #fff;
      }
    </style>
  </defs>
  <circle class="cls-1" cx="258.5" cy="258.5" r="256.5"/>
  <g>
    <path class="cls-2" d="M270.331,416c-39.153-1.367-78.627-12.693-111.357-44.337-13.253-12.813-23.28-28.361-31.183-45.434-2.907-6.278-7.217-9.459-13.209-10.229-8.521-1.1-14.716-5.361-19.348-13.315-1.572-2.7-5.348-4.934-8.38-5.406-9.033-1.4-16.2-5.417-21.47-13.6a11.585,11.585,0,0,0-5.252-4.044c-7.407-2.993-12.849-7.751-16.245-15.864-1.237-2.954-5.258-5.14-8.442-6.44-10.184-4.159-14.365-12.1-11.644-23.386,1.681-6.979,6.146-11.175,12.721-10.765,4.343,0.272,6.22-1.691,7.728-5.628,2.9-7.567,7.7-12.151,15.974-11.673,1.8,0.1,4.138-2.093,5.509-3.876,3.5-4.551,6.25-9.8,9.928-14.153,4.976-5.887,11.346-7.99,18.882-6.921,2.316,0.329,5.533-1.241,7.332-3.087,10.434-10.7,21.841-13.744,35.349-7.249,1.777,0.854,5.43-.769,7.262-2.454,20-18.386,41.487-34.249,65.436-46.055,25.813-12.725,52.6-17.193,81.033-14.219,39.71,4.154,73.127,23.324,104.563,47.833,17.869,13.932,35.3,28.524,52.83,42.961,12.343,10.166,26.238,16.854,40.879,21.926,18.515,6.413,21.881,14.634,13.305,33.49C487.1,288,465.669,316.732,439.246,341.5a317.855,317.855,0,0,1-89.367,59.095C325.577,411.365,300.015,415.217,270.331,416ZM111.947,238.612l1.852,0.337c0.331,2.466.8,4.922,0.972,7.4,1.252,17.81,1.918,35.72,7.981,52.673,16.016,44.788,46.3,73.5,87.552,88.96,27.332,10.244,55.614,13.1,84.551,9.605,29.852-3.608,59.074-10.018,85.674-25.282a307.412,307.412,0,0,0,97.682-88.845c7.937-11.1,14.4-23.484,20.994-35.631,3.958-7.3,2.084-10.559-5.445-11.4-5.074-.564-10.162-1.049-15.254-1.34-10.78-.615-20.624-3.016-29.441-10.885-9.088-8.113-19.22-14.929-29.207-21.781-20.836-14.3-41.213-29.613-63.007-41.979-25.853-14.669-54.228-21.135-83.46-23.4-31.405-2.439-61.43,2.675-89.98,17.027A184.542,184.542,0,0,0,126.8,198.578c-2.75,3.163-5.8,6.027-8.7,9.029l-1.7-1.295c0.419-2.034.54-4.213,1.317-6.073,2.013-4.817,4.468-9.419,6.434-14.256,0.985-2.422,1.287-5.168,1.9-7.768-2.885.017-6.034-.782-8.607,0.193-10.161,3.849-15.046,13.305-18.661,23.214-8.114,22.247-9.305,45.6-7.2,69.084a57.749,57.749,0,0,0,13.01,32.28c1.2,1.438,3.228,2.067,4.873,3.07,0.435-1.99,1.3-4,1.236-5.969-0.54-17.615-1.4-35.22-1.744-52.838C108.9,244.394,110.9,241.492,111.947,238.612ZM88.1,189.291c-8.643,5.38-14.108,11.62-17.442,19.371-8.41,19.55-8.061,40.243-4.371,60.783,1.441,8.019,6.031,14.987,14.586,19.887C79.805,255.434,81.759,223.134,88.1,189.291ZM55.549,214.968c-5.94,2-10.769,8.733-10.9,16.411-0.243,14.059-3.7,29.166,8.7,39.684l2.2-.2v-55.9Zm-18.825,35.97C35.841,243.729,35.1,237.7,34.282,231,26.466,237.236,27.37,246.493,36.724,250.938Zm414.881,0.477c-8.41,3.863-15.994,5.86-21.92,10.39-10.951,8.369-21.2,17.9-31.263,27.524-25.478,24.373-53.665,43.876-85.668,56.581-18.1,7.187-36.664,7.257-55.563,3.847-22.9-4.133-44.119-12.349-63.044-27.1-18.273-14.244-31.464-33.176-42.58-53.973-0.877-1.641-.108-4.31-0.1-6.5,1.978,0.635,4.564.63,5.822,2.025,4.124,4.57,7.752,9.66,11.592,14.531,17.6,22.331,38.7,39.152,65.077,47.26,20.411,6.274,40.963,5.559,61.82,1.847,17.064-3.037,33.407-7.723,48.98-15.846,17.5-9.129,32.407-22.215,46.61-36.127,13.2-12.928,27.973-21.98,45.247-26.31C441.408,248.358,446.311,247.526,451.605,251.415ZM292.986,314.9c9.14-9.39,17.576-18.229,26.257-26.777,1.192-1.174,3.6-.9,5.451-1.3,0.253,2.071,1.15,4.348.652,6.181-2.8,10.283-19.294,23.275-29.154,23.232C295.468,316.236,294.747,315.659,292.986,314.9Zm32.29-9.2a66.95,66.95,0,0,1,3.307-5.886c5.129-7.358,10.2-14.778,15.653-21.85,1.569-2.035,4.349-2.98,6.574-4.425,0.183,2.715,1.471,6.244.36,8a235.671,235.671,0,0,1-16.3,22.835c-1.761,2.167-5.42,2.531-8.21,3.721Zm70.1,39.215L407.881,312.8l2.3,0.544a27.448,27.448,0,0,1,.907,4.557c0.327,10.209-4.41,18.552-9,26.812-0.834,1.5-3.645,1.718-5.543,2.528Zm-37.533-57.073c4.217-8.607,7.988-16.776,12.245-24.638,1-1.854,3.647-2.671,5.537-3.966,0.649,2.063,2.121,4.284,1.813,6.163-1.839,11.227-9.388,17.493-17.888,22.724C359.041,288.442,358.083,287.9,357.839,287.847ZM256.332,312.135c4.591-5.456,7.744-10.477,12.031-13.775,2.257-1.736,6.5-.463,9.841-0.549-0.778,3.139-.672,7.223-2.508,9.232C271.053,312.123,265.206,314.913,256.332,312.135Zm169.07-9.456c3.726,11.945-2.379,29.753-12.689,32.9,3.717-11.893,7.138-22.838,10.558-33.783Zm-147.113,9.684c5.331-6.016,10.572-12.131,16.1-17.933,0.765-.8,4.113-0.415,4.229.035,0.494,1.917,1,4.662.1,6.028a34.932,34.932,0,0,1-18.625,14.064Zm176.284-28.927c-1.049,6.606-1.546,11.905-2.869,16.95-0.49,1.868-2.922,3.14-4.468,4.684-0.639-2.045-1.966-4.165-1.782-6.12a99.639,99.639,0,0,1,2.659-15.513c0.481-1.861,2.615-3.224,3.994-4.814Zm4.2,3.606c0.414-6.788.42-11.686,1.161-16.449,0.262-1.685,2.319-3.044,3.557-4.552,1.265,1.676,3.678,3.424,3.592,5.015a135.5,135.5,0,0,1-2.42,17.619c-0.177.944-2.808,2.369-3.082,2.1A20.927,20.927,0,0,1,458.773,287.042Zm-81.589,67.533,13.956-29.154C395.511,335.958,387.672,351.607,377.184,354.575Zm-41.691,19.476,20.915-28.589c2.019,9.987-4.1,14.525-7.9,19.543C345.507,368.961,343.3,375.729,335.493,374.051ZM226.53,375.629c3.81-2.81,7.538-5.764,11.459-8.381,2.855-1.9,6.5-3.45,8.236.8,0.532,1.307-2.452,5.752-4.544,6.543-4.725,1.788-9.9,2.193-14.888,3.161Q226.661,376.693,226.53,375.629ZM355.6,365.537l14.61-25.235C373.75,348.854,363.093,365.9,355.6,365.537ZM231.829,311.922c2.094-5.568,11.048-12.341,15.278-11.765A4.017,4.017,0,0,1,249.988,302a4.146,4.146,0,0,1-.874,3.373C244.561,310.527,239.305,313.838,231.829,311.922Zm62.051,73.114c6.718-7.972,13-15.434,19.859-23.569C314.515,371.452,301.824,385.979,293.88,385.036Zm145.868-93.577c-0.984,9.231-.759,18.776-5.821,26.95l-2.744-.669q2.718-13.581,5.435-27.161Zm-104.515,63.06c1.508,8.964-5.97,19.768-17.618,25.006C324.044,370.4,329.423,362.765,335.233,354.519ZM208.327,302.864c5.064-2.312,8.79-4.422,12.753-5.591,1.318-.388,3.245,1.637,4.894,2.559-0.848,1.536-1.36,3.826-2.6,4.473C218.892,306.634,214.229,307.161,208.327,302.864Zm0.083,68.629c4.1-2.508,8.143-5.125,12.335-7.429,0.82-.451,2.21.307,3.336,0.507-0.215,1.356.02,3.225-.72,3.981C219.466,372.534,215.117,375.488,208.41,371.493Zm87.5-6.618c0.678,8.028-6.576,15.44-15.566,16.115C285.244,375.915,290.146,370.839,295.908,364.875ZM193.163,364.4c3.576-1.943,7.048-4.191,10.779-5.676,1.48-.589,3.537.518,5.331,0.853-0.863,1.66-1.448,4.432-2.64,4.781-4.386,1.284-8.973,1.766-13.484,2.55Q193.155,365.658,193.163,364.4Zm51.252,14.654,14.439-10.843C259.047,377.385,254.2,381.014,244.415,379.058Zm19.977,1.566L281,365.615l1.469,2.007c-3.392,7.8-10.635,10.514-16.882,14.546Q264.991,381.4,264.392,380.624Zm211-110.431V252.446l1.914,0.015v17.746ZM182.265,358.639c2.62-1.53,5.138-3.363,7.908-4.441,1.1-.428,2.759.816,4.164,1.3-0.764,1.4-1.282,3.7-2.336,4.035-2.931.936-6.085,1.058-9.151,1.5Z" transform="translate(-7 -17)"/>
    <path class="cls-3" d="M111.662,239.2c-1.051,2.876-3.054,5.774-3,8.625,0.348,17.592,1.207,35.173,1.749,52.762,0.06,1.97-.8,3.973-1.239,5.961-1.649-1-3.682-1.63-4.884-3.066a57.553,57.553,0,0,1-13.038-32.234c-2.112-23.454-.918-46.769,7.214-68.984,3.622-9.895,8.518-19.338,18.7-23.181,2.579-.974,5.735-0.176,8.625-0.193-0.612,2.6-.914,5.338-1.9,7.757-1.97,4.829-4.431,9.425-6.448,14.236-0.778,1.856-.9,4.033-1.32,6.063l1.7,1.294c2.916-3,5.968-5.858,8.724-9.017a184.852,184.852,0,0,1,56.731-44.443c28.613-14.33,58.7-19.438,90.178-17,29.295,2.266,57.733,8.723,83.642,23.371,21.842,12.349,42.263,27.643,63.145,41.919,10.009,6.842,20.163,13.649,29.272,21.75,8.836,7.858,18.7,10.255,29.5,10.87,5.1,0.29,10.2.774,15.287,1.337,7.546,0.836,9.424,4.095,5.458,11.38-6.6,12.129-13.087,24.5-21.041,35.58a307.686,307.686,0,0,1-97.9,88.717c-26.658,15.242-55.944,21.643-85.862,25.246-29,3.492-57.345.637-84.737-9.592-41.338-15.437-71.692-44.108-87.743-88.832-6.076-16.928-6.744-34.813-8-52.6-0.174-2.476-.642-4.928-0.974-7.391Zm340.4,12.785c-5.306-3.884-10.22-3.053-15.027-1.852-17.312,4.324-32.121,13.363-45.347,26.272-14.233,13.893-29.173,26.96-46.711,36.075-15.608,8.113-31.987,12.791-49.088,15.824-20.9,3.707-41.5,4.42-61.955-1.844-26.437-8.1-47.578-24.894-65.22-47.192-3.849-4.864-7.485-9.947-11.617-14.511-1.261-1.393-3.853-1.387-5.836-2.022,0,2.188-.774,4.853.1,6.492,11.141,20.767,24.36,39.672,42.673,53.9,18.967,14.731,40.231,22.936,63.182,27.062,18.941,3.406,37.542,3.335,55.685-3.841,32.074-12.687,60.322-32.162,85.856-56.5,10.086-9.614,20.357-19.127,31.331-27.485C436.036,257.833,443.636,255.839,452.065,251.982ZM293.1,315.378c1.765,0.755,2.488,1.331,3.213,1.334,9.882,0.044,26.414-12.93,29.218-23.2,0.5-1.83-.4-4.1-0.653-6.172-1.851.4-4.268,0.125-5.464,1.3C310.712,297.175,302.258,306,293.1,315.378Zm32.36-9.184q0.7,1.2,1.39,2.395c2.8-1.188,6.464-1.552,8.228-3.715a235.334,235.334,0,0,0,16.334-22.8c1.113-1.757-.178-5.281-0.361-7.992-2.23,1.443-5.016,2.386-6.589,4.419-5.465,7.062-10.547,14.47-15.687,21.818A67.275,67.275,0,0,0,325.458,306.194Zm70.251,39.158,1.173,2.32c1.9-.809,4.72-1.026,5.555-2.525,4.6-8.247,9.346-16.579,9.018-26.772a27.374,27.374,0,0,0-.908-4.552l-2.3-.542Q401.977,329.316,395.709,345.352Zm-37.616-56.991c0.245,0.048,1.2.594,1.711,0.283,8.519-5.224,16.084-11.48,17.927-22.691,0.308-1.877-1.166-4.094-1.817-6.154-1.894,1.292-4.543,2.108-5.549,3.96C366.1,271.609,362.32,279.767,358.093,288.361ZM256.364,312.614c8.893,2.775,14.753-.011,19.407-5.084,1.84-2.006,1.733-6.084,2.513-9.218-3.352.085-7.6-1.186-9.863,0.548C264.124,302.153,260.965,307.167,256.364,312.614Zm169.44-9.442-2.135-.879-10.581,33.734C423.42,332.883,429.538,315.1,425.8,303.172Zm-147.435,9.67,1.8,2.191a34.993,34.993,0,0,0,18.665-14.044c0.9-1.363.394-4.1-.1-6.019-0.117-.449-3.472-0.837-4.238-0.035C288.964,300.728,283.711,306.835,278.369,312.842Zm176.67-28.885c-0.51-.993-1.49-2.9-2.471-4.806-1.382,1.588-3.52,2.948-4,4.807a98.907,98.907,0,0,0-2.665,15.491c-0.185,1.952,1.145,4.069,1.785,6.111,1.55-1.542,3.987-2.812,4.478-4.677C453.49,295.845,453.989,290.554,455.039,283.957Zm4.21,3.6a20.919,20.919,0,0,0,2.814,3.73c0.274,0.266,2.911-1.157,3.088-2.1a134.795,134.795,0,0,0,2.426-17.594c0.086-1.588-2.332-3.334-3.6-5.007-1.241,1.5-3.3,2.862-3.565,4.545C459.669,275.889,459.664,280.779,459.249,287.558ZM377.48,354.993c10.511-2.964,18.368-18.59,13.988-29.112ZM335.7,374.442c7.826,1.675,10.036-5.083,13.042-9.033,3.812-5.011,9.943-9.543,7.919-19.515Zm-109.2,1.576,0.264,2.123c5-.966,10.185-1.371,14.921-3.156,2.1-.79,5.087-5.229,4.553-6.533-1.736-4.248-5.393-2.706-8.253-.8C234.051,370.261,230.315,373.212,226.5,376.018Zm129.357-10.079c7.5,0.366,18.186-16.658,14.642-25.2ZM231.807,312.4c7.493,1.914,12.76-1.392,17.323-6.541a4.133,4.133,0,0,0,.876-3.368,4.027,4.027,0,0,0-2.888-1.838C242.879,300.078,233.905,306.842,231.807,312.4Zm62.187,73.01c7.962,0.941,20.68-13.565,19.9-23.535Zm146.188-93.442-3.137-.879q-2.723,13.56-5.447,27.121l2.75,0.669C439.422,310.718,439.2,301.186,440.182,291.969ZM335.437,354.937l-17.656,24.971C329.454,374.677,336.949,363.889,335.437,354.937Zm-127.184-51.58c5.916,4.29,10.589,3.765,15.077,1.439,1.246-.646,1.76-2.933,2.609-4.467-1.652-.92-3.584-2.943-4.9-2.555C217.063,298.942,213.329,301.048,208.253,303.357Zm0.084,68.53c6.722,3.99,11.08,1.04,14.984-2.937,0.741-.755.506-2.621,0.721-3.975-1.129-.2-2.521-0.957-3.343-0.506C216.5,366.77,212.443,369.383,208.337,371.887Zm87.689-6.609-15.6,16.093C289.436,380.7,296.706,373.3,296.026,365.278Zm-102.97-.47q-0.008,1.252-.014,2.5c4.521-.782,9.118-1.263,13.514-2.546,1.194-.348,1.78-3.116,2.646-4.773-1.8-.335-3.86-1.44-5.343-0.853C200.119,360.623,196.64,362.869,193.056,364.808Zm51.365,14.633c9.806,1.954,14.664-1.67,14.47-10.827Zm20.021,1.564,1.2,1.542c6.26-4.026,13.519-6.739,16.92-14.526l-1.473-2ZM475.9,270.733l1.918,0.013v-17.72l-1.918-.015v17.722ZM182.135,359.052l0.585,2.39c3.073-.442,6.234-0.564,9.171-1.5,1.057-.336,1.577-2.63,2.341-4.03-1.407-.482-3.069-1.725-4.172-1.3C187.284,355.693,184.76,357.524,182.135,359.052Zm-94.373-169.1c-6.354,33.794-8.312,66.048-7.243,99.9-8.573-4.893-13.174-11.851-14.618-19.859-3.7-20.51-4.048-41.173,4.381-60.7C73.624,201.551,79.1,195.319,87.762,189.947ZM55.14,215.588V271.4l-2.2.2c-12.433-10.5-8.967-25.589-8.724-39.627C44.348,224.308,49.187,217.587,55.14,215.588ZM36.274,251.505c-9.375-4.438-10.28-13.682-2.447-19.913Z" transform="translate(-7 -17)"/>
    <path class="cls-3" d="M147.7,430.843a40.593,40.593,0,0,1-1.106,6.511c-1.273,3.766-2.936,7.383-4.379,11.088-0.669,1.719-.99,3.252,1.033,4.562,0.7,0.452,1.106,2.548.729,3.481-1.226,3.035-2.877,5.879-4.414,8.894,2.679,4.646,6.27,6.1,11.134,4.359,2.062-.736,4.437.955,5.322,4.144,0.708,2.548-1.4,2.725-2.951,3.312a14.363,14.363,0,0,1-13.98-2.1,47.416,47.416,0,0,0-16.491-7.617c-3.557-.937-6.8-3.91-9.735-6.52a6.628,6.628,0,0,1-1.458-8.269,6.328,6.328,0,0,1,7.384-3.368,88.861,88.861,0,0,1,11.705,4.877,16.531,16.531,0,0,1,3,2.3c3.047-3.575,2.842-3.735.27-7.376-0.788-1.116-.122-3.369-0.122-5.275a27.554,27.554,0,0,1-3.764,1.867c-8.191,2.745-20.55-7.068-19.915-16.1,0.181-2.573,1.753-5.184,3.151-7.463,0.955-1.559,1.6-2.719.683-4.491-4.7-9.062,1.428-19.2,11.222-21.64,13.332-3.326,29.545,6.341,33.923,19.543,1.887,5.69.667,12.077-3.445,15.989-2.866,2.725-3.754,2.728-6.728.077A8.206,8.206,0,0,0,147.7,430.843Zm-15.784-28.037c-0.636,0-1.274-.039-1.906.007-4.764.342-8.805,3.22-8.871,7.02-0.088,4.983-1.454,5.175,6.118,8.047,3.67,1.392,7.027,3.7,10.516,5.616,2.036,1.117,4.04,2.3,6.09,3.392a3.719,3.719,0,0,0,2.2.726,8.157,8.157,0,0,0,5.179-11.323C147.374,407.779,140.567,403.786,131.919,402.806Zm-5.383,22.3c-3.812-.927-5.742.808-7.234,3.248a5.189,5.189,0,0,0,.82,6.7c1.538,1.652,2.9,4.043,6.123,2.22C123.94,433.3,122.937,429.262,126.536,425.109Zm8.815,16.752a76.094,76.094,0,0,0,3.15-7.464c0.272-.873-0.327-2.852-0.914-3.049a5.542,5.542,0,0,0-4.043.243c-0.663.351-1.085,2.258-.837,3.249A62.068,62.068,0,0,0,135.351,441.861ZM126.4,461.633q0.309-.685.617-1.372l-6.384-3.158q-0.278.615-.554,1.231Zm95.833-7.565c-0.878,6.831-1.672,13.4-2.643,19.946a2.712,2.712,0,0,1-1.972,1.565,17.787,17.787,0,0,1-4.115-.254c-2.227-.244-2.817-1.675-2.392-3.792,0.74-3.69,1.627-7.358,2.139-11.083,0.162-1.176-.72-3.593-1.052-3.578a11.439,11.439,0,0,0-4.765,1.391c-0.263.14,0.245,2.243,0.665,3.324a11.432,11.432,0,0,0,1.6,2.064c2.217,3.146,1.521,6.524-1.719,8.46-8.611,5.146-21.42-.756-23.135-10.979-0.4-2.381,1.058-5.079,1.508-7.661,0.178-1.026.351-2.5-.171-3.146a16.207,16.207,0,0,1,3.328-23.345c12.244-8.914,33.2-3.613,39.876,10.361,1.96,4.1,2.408,8.323.4,12.5-0.8,1.655-1.844,3.592-3.28,4.365C225.231,454.893,223.261,454.141,222.231,454.068Zm-3.015-3.606c0.086-.121.553-0.858,1.09-1.533,3.345-4.2,3.385-7.729-.1-11.846-4.909-5.8-11.349-7.692-18.4-7.007C197,430.544,192.747,432.544,191,438a5.874,5.874,0,0,0,5.14,7.917c2.982,0.3,5.893,1.393,8.831,2.156a27.447,27.447,0,0,0,2.693.8C211.273,449.415,214.894,449.876,219.216,450.462Zm-19.95,3.774c-3.031-.8-4.28.971-5.27,3.021-1.186,2.458-1.067,5.028,1.084,6.642,1.6,1.2,3.76,1.561,5.671,2.3,0.121-.818.623-2.078,0.3-2.387C198.293,461.159,198.361,457.943,199.266,454.236Zm263.434-68.2c3.609,4.568,6.966,8.86,10.371,13.11,1.507,1.881,1.135,3.265-.623,4.745-4.491,3.778-4.455,3.832-8.107-.937-1.862-2.431-3.642-4.938-5.614-7.265-0.551-.65-1.654-0.782-2.5-1.152,0.114,1-.086,2.239.4,2.972a112.941,112.941,0,0,0,6.705,9.324c1.808,2.213,1.384,3.671-.709,5.106-1.4.963-2.772,1.987-4.469,3.209-1.874-2.548-3.619-4.881-5.321-7.247a57.306,57.306,0,0,0-3.412-4.817c-0.648-.726-1.844-0.909-2.792-1.337,0.167,0.994.066,2.173,0.548,2.95,1.91,3.079,4.1,5.966,5.978,9.066,0.724,1.2,1.605,3.608,1.168,4.029a30.928,30.928,0,0,1-6.045,4.036,2.006,2.006,0,0,1-1.228-.841,16.52,16.52,0,0,1-1.812-2.73c-2.654-5.325-5.828-8.683-12.532-7.9-6.09.711-11.808-6.714-12.1-13.9-0.422-10.493,4.38-18.2,12.191-23.9,8.075-5.9,16.953-7.936,26.458-4.061,5.041,2.055,7.368,6.472,8.371,11.769C468.378,384.246,465.355,385.01,462.7,386.032Zm-34.421,7.047a9.705,9.705,0,0,0,4.192,8.5c2.429,1.875,4.463,1.19,6.247-1.37a17.071,17.071,0,0,1,4.846-5.09c2.76-1.614,5.417-2.932,7.436-5.8,1.245-1.767,3.9-2.4,5.851-3.665,0.772-.5,1.821-1.232,1.95-2,0.687-4.128-1.779-7.957-5.755-8.534a32.633,32.633,0,0,0-8.835-.054C436.233,376.1,428.438,385.092,428.279,393.079ZM327.07,453.241c0.725,1.272,1.116,2.023,1.564,2.733,3.73,5.915,3.839,10.22-1.337,15.935a19.514,19.514,0,0,1-25.664,3.029,11.638,11.638,0,0,1-5-8.2c-0.245-1.61-1.392-3.908-2.64-4.373-6.9-2.568-9.818-12.676-6.277-20.614,3.685-8.259,10-12.865,18.457-14.71,9.825-2.142,18.036.807,24.752,8.293,4.294,4.789,4.9,10.723,3.019,16.874a3.284,3.284,0,0,1-2.413,1.55C330.321,453.915,329.043,453.5,327.07,453.241Zm-15.884-20.209c-2.872.988-5.9,1.642-8.582,3.032-6.067,3.142-9.145,8.778-7.9,14.49a7.438,7.438,0,0,0,3.171,4.126c0.592,0.377,2.357-1.046,3.452-1.856a21.98,21.98,0,0,0,2.514-2.543c1.239-1.284,2.39-1.4,3.891-.213,2.9,2.3,3.038,2.929.545,5.886-3.641,4.319-4.185,8.112-2.143,11.421,3.021,4.895,12.432,4.435,15.612-1.134,1.447-2.533.338-4.581-2.4-4.607-0.742-.007-1.651.277-2.194-0.072-1.614-1.035-3.724-2.024-4.386-3.61-0.443-1.063.863-3.872,2.071-4.553a13.95,13.95,0,0,1,7.152-1.79c3.728,0.167,4.309.031,4.671-3.858a10.662,10.662,0,0,0-2.794-8.552A18.985,18.985,0,0,0,311.186,433.032ZM83.029,363.858c11.642-.3,26.817,10.621,30.063,24.966,1.409,6.23-2.048,14.88-6.938,17.476-1.7.9-3.079,1.265-3.947-.767-0.841-1.968-3.875-4.021-.751-6.254,5.312-3.8,4.788-9.05,3.076-13.042-3.5-8.158-11.934-15.512-22.047-14.423a7.244,7.244,0,0,0-5.99,4.334c-1.268,2.543.323,4.309,1.451,6.071a5.022,5.022,0,0,0,2.824,1.827c8.026,2.094,13.456,7.028,14.875,15.77a12.815,12.815,0,0,1-1.566,7.269c-2.015,3.905-4.622,7.473-7.008,11.163-1.154,1.785-2.508,2.264-4.232.7a15.238,15.238,0,0,0-2.647-1.841c-1.662-.96-2.044-2.287-0.906-3.842,1.539-2.1.57-3.02-1.243-4.057-5.608-3.207-9.635-7.727-9.745-14.883a9.6,9.6,0,0,1,1.281-5.061c1.317-2.045,1.25-3.544.215-5.722C64.116,371.594,72.923,363.368,83.029,363.858Zm-6.428,32.6c0.025,3.393,3.53,6.762,7.093,6.682,2.28-.051,3.843-1.065,3.848-3.8,0.006-3.527-3.533-7.178-7.039-7.206A4.073,4.073,0,0,0,76.6,396.461Zm329.066-.42c6.279,0.047,11.736,1.816,15.3,7.459a20.371,20.371,0,0,1,2.653,6.7,4.9,4.9,0,0,1-6.494,5.86,3.538,3.538,0,0,1-1.74-2.74c0.182-7.407-7.1-10.457-12.35-9.966-7.864.735-14.439,4.128-18.11,12.117-2.057,4.477-.922,9.81,2.623,12.257,1.621,1.118,2.657.932,3.508-.975,0.76-1.706,1.716-3.316,2.6-4.959,1.164-2.161,2.642-2.415,4.8-1.346,2.39,1.183,3.119,2.5,1.424,4.839a9.477,9.477,0,0,0-.981,1.709c-1.149,2.594-1.542,5.208.636,7.412,1.406,1.424,5.525.958,7.458-.622,2.416-1.975,3.12-4.42,1.742-7.368-0.89-1.9-1.874-3.755-2.793-5.642-0.981-2.015-.383-3.446,1.55-4.281,1.974-.852,4.087-3.47,5.938-0.01,3.374,6.31,6.669,12.672,9.769,19.134,0.394,0.821-.291,2.634-1,3.512A5.841,5.841,0,0,1,418.9,441c-1,.181-2.629-0.118-3.139-0.851-1.464-2.1-2.5-1.723-4.389-.471-5.353,3.546-11.07,5.047-17.132,1.736a2.4,2.4,0,0,1-1.085-.654c-1.606-3.836-5.3-3.795-8.3-5.04-6.05-2.514-9.328-8.173-8.765-15.039,0.763-9.31,5.917-15.511,13.04-20.218A26.591,26.591,0,0,1,405.667,396.041ZM243.732,466.76c-8.836-6.766-9.725-15.457-6.611-22.855,2.307-5.478,6.441-9.142,11.392-11.669,11.786-6.018,29.31-1.752,34.741,12.163a17.065,17.065,0,0,1-1.054,14.753c-1.1,2.088-4.131,1.944-7.084.043-2.057-1.325-1.139-2.616-.28-4.169,2.457-4.442,2.2-7.264-.835-11.361-6.414-8.66-19.99-9.319-26.971-1.176-4.336,5.057-4.613,11.606-.02,15.639,1.857,1.631,3.595,1.593,5.871.98a152.013,152.013,0,0,1,15.479-3.274c2.632-.421,4.29.635,4.094,4.2-0.3,5.452-.115,10.948.12,16.413,0.152,3.514-1.776,3.758-4.237,3.688-2.32-.066-4.87.465-4.717-3.474,0.142-3.68.139-7.378-.063-11.052-0.045-.8-1.34-2.284-1.832-2.186-4.319.859-8.513,2.213-11.03,6.462-1.024,1.728-1.545,3.474,1.167,4.4,1.7,0.579,3.867,1.76,2.73,3.976a6.1,6.1,0,0,1-4.473,2.736c-3.243.154-6.486-.971-8.141-4.224C240.188,473.249,241.141,469.834,243.732,466.76Zm112.421-1.5c-0.349,3.645-3.64,2.69-5.576,3.689-1.5.774-2.775-.154-3.234-2.1q-3.783-16.005-7.667-31.985-1.014-4.209-2.089-8.4c-0.467-1.814-.039-3.417,1.808-3.482,1.789-.063,4.269-2.556,5.4.952,1.454,4.506,2.778,9.063,4.021,13.639,2.352,8.652,4.606,17.334,6.9,26C355.858,464.114,355.994,464.65,356.153,465.263ZM90.563,351c14.426,3.035,24.593,10.932,30.333,24.733,0.392,0.942-.069,3.11-0.794,3.58-2.189,1.422-5.586.417-6.3-1.5-3.173-8.515-9.106-14.029-17.061-17.244a35.728,35.728,0,0,0-5.846-1.355,4.742,4.742,0,0,1-3.408-6.731C87.961,351.583,89.675,351.4,90.563,351ZM126.4,461.633l-6.321-3.3q0.278-.617.554-1.231l6.384,3.158Q126.706,460.948,126.4,461.633Z" transform="translate(-7 -17)"/>
  </g>
</svg>
