<svg id="BJP_SVG" data-name="BJP SVG" xmlns="http://www.w3.org/2000/svg" width="517" height="517" viewBox="0 0 517 517">
  <defs>
    <style>
      .cls-1, .cls-5 {
        fill: #fff;
      }

      .cls-1 {
        stroke: #acacac;
        stroke-width: 4px;
      }

      .cls-2, .cls-3, .cls-4, .cls-5 {
        fill-rule: evenodd;
      }

      .cls-3 {
        fill: #00a550;
      }

      .cls-4 {
        fill: #f37216;
      }
    </style>
  </defs>
  <circle class="cls-1" cx="258.5" cy="258.5" r="256.5"/>
  <g>
    <path class="cls-2" d="M268.714,477.887c6.794-.694,13.191-1.4,19.6-1.981,4.109-.369,6.308,2.589,4.966,6.488-1.071,3.112-3.246,4.256-6.532,4.177-7.049-.169-14.105-0.105-21.158-0.047a2.862,2.862,0,0,1-2.628-1.115c-0.605-.815-1.27-1.584-1.882-2.394a13.755,13.755,0,0,1-2.468-4.4c-0.547-1.952,1.523-2.776,2.361-4.115,4.2-6.717,6.332-14.167,7.914-21.8,3.109-14.993,3.839-30.206,3.893-45.467,0.01-2.624-2.8-5.009-5.5-4.86-0.493.027-.762,0.132-0.753,0.663s0,1.084-.006,1.626c-0.04,10.635.265,21.278-.846,31.884-1.212,11.561-3.252,22.908-8.865,33.292-6.874,12.718-17.795,19.29-31.983,20.676a65.668,65.668,0,0,1-23.2-1.553,16.822,16.822,0,0,1-2.3-.785c-4.029-1.7-4.9-4.481-2.321-8.044,2.836-3.923,6.982-5.61,11.631-6.284,5.193-.752,10.282.254,15.362,1.017a110.366,110.366,0,0,0,16.427.934,2.415,2.415,0,0,0,2.068-1.344,74.224,74.224,0,0,0,12.773-28.029c3.68-15.654,4.367-31.343-.183-46.973a42.935,42.935,0,0,0-7.849-15.445,27.909,27.909,0,0,0-7.325-6.363c-6.215-3.714-12.49-7.333-18.485-11.4a1.345,1.345,0,0,0-1.622-.137c-10,5.31-20.411,4.468-30.873,1.867a61.642,61.642,0,0,1-21.326-10.11c-6.965-5.038-14.3-9.274-22.835-11.053-5.971-1.243-11.609-.532-16.718,2.936-1.2.813-1.465,0.376-1.974-.674-2.307-4.769-1.365-9.414.592-13.925,3.328-7.671,9.015-13.434,15.572-18.4,2.308-1.75,4.764-3.306,7.3-5.053a73.347,73.347,0,0,1-8.957-4.367c-10.877-6.523-18.754-15.868-25.007-26.689-8.92-15.437-13.972-32.161-16.372-49.756-1.322-9.69-1.47-19.432-1.71-29.187-0.484-19.661-4.667-38.471-13.718-56.064a88.89,88.89,0,0,0-10.034-15.7c-1.279-1.566-.785-2.17.628-2.984,5.044-2.907,10.545-3.218,16.151-2.912,23.647,1.289,42.993,11.832,59.761,27.843a115.332,115.332,0,0,1,14.766,17.547c0.376,0.538.773,1.063,1.293,1.778,2.618-8.538,2.914-16.771-.188-25.048a84.9,84.9,0,0,0-13.135-22.74c-1.234-1.567-.724-1.9.787-2.529,4.134-1.729,8.405-1.37,12.635-.928,18.808,1.966,34.189,10.943,47.683,23.626a110.041,110.041,0,0,1,19.845,25.6c0.3,0.527.6,1.06,0.914,1.579a2.162,2.162,0,0,0,.489.352c9.809-21.152,22.281-40.7,35.338-60.109,6.346,7.862,11.37,16.343,16.095,25.017,4.714,8.652,8.917,17.558,13.12,26.75a135.86,135.86,0,0,1,11.937-15.206c11.427-12.366,24.547-22.215,40.7-27.68,6.721-2.273,13.386-3.127,20.29-.927,1.613,0.514,2.2.765,1.2,2.6a76.02,76.02,0,0,0-8.856,25.107c-1.3,8.61-.548,17.152,1.163,25.637a8.355,8.355,0,0,0,.4,1.085,106.959,106.959,0,0,1,13.934-19.375c13.424-14.562,29.365-24.927,49.072-28.726,7.334-1.414,14.762-2.209,22.181-.3a20.228,20.228,0,0,1,4.836,2.05c1.361,0.763,1.658,1.3.409,2.626a83.165,83.165,0,0,0-16.556,25.585A69.479,69.479,0,0,0,435.563,185c0.5,12.389,1.763,24.735,1.945,37.138,0.515,34.888-12.374,64.046-37.676,87.889-1.81,1.706-1.809,1.662.079,3.2,7.378,6.019,13.347,13.033,16,22.437a22.022,22.022,0,0,1-.847,13.731c-0.421,1.179-.824.881-1.551,0.378-1.614-1.115-3.291-2.138-4.908-3.249-3.732-2.562-7.759-2.837-12.045-1.772-8.031,2-14.77,6.26-20.86,11.689-8.949,7.98-19.174,13.491-31.133,15.105-9.971,1.345-19.884.957-29.279-3.336a2.393,2.393,0,0,0-1.544-.224c-15.763,2.966-27.627,15.113-29.988,28.437a41.445,41.445,0,0,0-.559,7.283,260.288,260.288,0,0,1-2.854,41.1c-1.318,8.295-3.141,16.46-6.484,24.22A43.731,43.731,0,0,1,268.714,477.887Zm-43.62,27.25a63.67,63.67,0,0,1-12.052-2.063,53.2,53.2,0,0,0-8.6-1.41c-1.209-.075-2.155-0.466-2.475-1.681a2.311,2.311,0,0,1,1.435-2.647c3.688-2.075,7.776-3.02,11.731-1.634,6.263,2.195,12.193,1.579,18.226-.577a40.474,40.474,0,0,1,8.07-1.956,8.988,8.988,0,0,1,6.273.992c2.5,1.563,2.881,3.955.912,6.145a9.517,9.517,0,0,1-6,3.15C236.766,504.144,230.89,504.6,225.094,505.137Zm77.913,9.413c-5.049.05-9.451-.089-13.744-1.233-1.687-.449-3.745-0.854-3.874-3-0.123-2.036,1.72-2.9,3.3-3.718a16.562,16.562,0,0,1,6.82-1.806c6.837-.355,13.678-0.623,20.518-0.925a12.236,12.236,0,0,1,6.674,1.383c2.946,1.646,3.014,4.152.111,5.933a21.865,21.865,0,0,1-8.081,2.522A65.737,65.737,0,0,1,303.007,514.55ZM275.763,490.9c2.98,0,5.959-.007,8.939,0a13.784,13.784,0,0,1,2.228.116c2.369,0.4,4.316,2.028,4.579,3.754,0.269,1.763-.873,3.33-3.448,4.454-5.088,2.221-10.5,2.38-15.931,2.373a30.464,30.464,0,0,1-11.158-1.757c-3.122-1.215-3.637-3.414-1.39-5.949a8.438,8.438,0,0,1,6.43-2.977c3.25-.036,6.5-0.008,9.751-0.008V490.9Zm-58.4,18.051c3.316,0.146,6.639-.183,9.951.237a11.675,11.675,0,0,1,4.229,1.332c1.876,1.036,2.135,2.457.809,4.187a7.806,7.806,0,0,1-4.244,2.633,43.451,43.451,0,0,1-24.038-.075c-1.934-.544-4.2-1.415-4.182-3.835,0.016-2.516,2.489-2.972,4.357-3.574C208.52,508.474,212.974,509.109,217.36,508.947Zm98.17-24.5c-3.309-.213-6.643.308-9.928-0.361a13.809,13.809,0,0,1-2.886-.9c-1.309-.587-2.639-1.331-2.765-2.958-0.133-1.731.9-2.907,2.3-3.781a17.66,17.66,0,0,1,7.075-2.318,37.222,37.222,0,0,1,13.525.134,10.357,10.357,0,0,1,4.383,2.01,4.576,4.576,0,0,1,1.8,4.665c-0.389,1.909-1.806,2.76-3.576,3.136C322.168,484.771,318.836,484.218,315.53,484.448Zm3.145,12.93A100.205,100.205,0,0,1,306.083,497c-1.473-.183-3.5-0.018-3.962-1.8-0.445-1.735.789-3.188,2.13-4.335a9.263,9.263,0,0,1,6.193-2.163q9.15-.039,18.3,0a8.454,8.454,0,0,1,3.938.825c2.051,1.065,2.916,2.494,2.589,4.347a4.364,4.364,0,0,1-4.194,3.478c-2.165.091-4.337,0.029-6.506,0.031Q321.624,497.381,318.675,497.378Zm-55.456,17.15a32.894,32.894,0,0,1-9.272-.81,8.272,8.272,0,0,1-2.612-1.067,2.77,2.77,0,0,1-.584-4.5,5.733,5.733,0,0,1,4.074-2.054c3.1-.106,5.969-1.123,8.913-1.85a11.515,11.515,0,0,1,5.613,0,53.483,53.483,0,0,0,8.5,1.859,3.433,3.433,0,0,1,3.223,2.945c0.29,1.821-1.08,2.713-2.481,3.282-4.2,1.706-8.671,2-13.143,2.2C264.71,514.556,263.964,514.528,263.219,514.528Z" transform="translate(-7 -17)"/>
    <path class="cls-3" d="M222.953,347.149c0.06-5.7,1.242-10.293,4.242-14.3,2.306-3.081,3.681-3.4,7.233-2.172a98.165,98.165,0,0,0,22.369,4.767,124.458,124.458,0,0,0,14.177.5,87.461,87.461,0,0,0,29.133-5.7,4.066,4.066,0,0,1,4.283.671c6.219,4.592,8.042,15.375,3.7,22.563a23.268,23.268,0,0,1-12.549,10.132A35.255,35.255,0,0,0,279.991,374.3a16.968,16.968,0,0,0-2.777,4.712,29.95,29.95,0,0,1-3.361,6.019c-4.888,7.074-10.431,6.037-15.975,1.291a10.649,10.649,0,0,1-2.367-2.773c-4.324-7.7-11.282-12.533-18.482-17.049-4.766-2.991-9.249-6.171-11.934-11.32A15.952,15.952,0,0,1,222.953,347.149Zm-87.481-8.95a19.684,19.684,0,0,1,4.453-8.066c4.844-5.751,10.993-9.791,17.624-13.17a3.635,3.635,0,0,1,2.365-.077c4.129,0.61,8.122,2.144,12.392,1.808a64.469,64.469,0,0,0,17.218-3.566,4.528,4.528,0,0,1,4.183.4,84.26,84.26,0,0,0,23.287,9.287c1.514,0.334,1.57.8,0.663,1.911-1.112,1.362-2.044,2.871-3.152,4.236-4.824,5.944-4.507,12.8-3.524,19.762a34.775,34.775,0,0,0,1.086,5.362c0.439,1.427-.042,1.824-1.319,2.2-9.054,2.692-17.922,1.713-26.7-1.236a59.766,59.766,0,0,1-18.888-10.88,39.259,39.259,0,0,0-19.314-8.894A20.672,20.672,0,0,0,135.472,338.2Zm262.492-2.281a32.893,32.893,0,0,0-14.23,1.738,63.164,63.164,0,0,0-19.818,12.1c-7.028,6.128-14.82,10.788-24.219,11.922a63.746,63.746,0,0,1-21.764-1.472c-0.9-.2-0.961-0.6-0.531-1.441a33.169,33.169,0,0,0,2.842-21.917,15.476,15.476,0,0,0-2.7-6.09c-0.628-.882-0.549-1.4.445-1.848,5.736-2.56,11.465-4.5,17.984-2.948,11.064,2.639,22.026,1.431,32.852-1.675,3.118-.894,6.306-1.564,9.382-2.581,4.107-1.358,7.7-.468,11.071,1.98C393.475,326.731,396.1,330.874,397.964,335.918Z" transform="translate(-7 -17)"/>
    <path class="cls-4" d="M270.928,131.627c6.455,9.512,12.364,19.147,17.781,29.084,11.033,20.236,19.939,41.318,25.342,63.784,3.453,14.362,5.454,28.917,4.654,43.7-1,18.4-7.827,34.2-22.071,46.33-14.208,12.1-34.468,11.742-48.512,3.125-15.363-9.426-24.152-23.579-27.858-40.983-2.937-13.793-1.54-27.519,1.418-41.122,5.037-23.156,14.493-44.608,25.638-65.381,6.8-12.666,14.337-24.885,22.361-36.809C270.051,132.807,270.455,132.28,270.928,131.627ZM89.519,135.843a70.6,70.6,0,0,1,32.3,8.265c16.41,8.574,29.251,21.1,39.853,36.094a2.984,2.984,0,0,1,.465,2.443c-1.778,11.372-3.769,22.727-3.859,34.283-0.169,21.562,2.955,42.515,11.859,62.355a79.921,79.921,0,0,0,14.372,22.027c0.219,0.234.394,0.508,0.685,0.888a35.465,35.465,0,0,1-16.909,1.866c-12.9-1.514-22.849-8.424-31.322-17.7-13.415-14.691-22.393-31.651-25.581-51.452a82.631,82.631,0,0,1-1.106-12.536c-0.1-13.9-.721-27.768-3.2-41.484-2.438-13.458-6.088-26.516-13.151-38.39C92.621,140.307,91.113,138.239,89.519,135.843Zm352.4-2.116a70.088,70.088,0,0,0-9.995,13.552,69.253,69.253,0,0,0-8.656,34.271c0.051,10.583.731,21.14,1.643,31.666,2.624,30.279-5.081,57.312-24.854,80.629-7.036,8.3-15.222,15.053-26.033,17.947-6.927,1.855-16.08,1.4-21.461-1.154a79.883,79.883,0,0,0,9.121-9.81c9.219-12.093,14.269-25.873,16.536-40.774,2.311-15.189.965-30.269-1.435-45.31-1.377-8.628-3.214-17.16-5.4-25.617a3.569,3.569,0,0,1,.2-2.555c8.711-18.471,21.1-33.719,38.913-44.142A61.628,61.628,0,0,1,441.917,133.727Zm-81.432-2.077a80.736,80.736,0,0,0-3.825,9.707c-3.038,9.923-2.608,19.893-.665,29.944,2.456,12.7,5.983,25.136,9.017,37.694a145.254,145.254,0,0,1,3.256,50.9c-2.784,24.076-15.192,42.2-36.695,53.782a54.337,54.337,0,0,1-18.594,5.556c-0.657.09-1.329,0.07-2.288,0.115,1.233-1.977,2.352-3.729,3.431-5.5,6.847-11.274,12.734-22.965,15.787-35.914a69.255,69.255,0,0,0,1.4-18.991,184.3,184.3,0,0,0-8.1-46.7A208.831,208.831,0,0,0,307.254,174.3a2.888,2.888,0,0,1,.026-3.31c8.041-13.517,18.241-24.9,32.06-32.751a53.312,53.312,0,0,1,18.523-6.4C358.592,131.729,359.337,131.729,360.485,131.65Zm-191.7-2.108A38.737,38.737,0,0,1,180.6,133.3c8.757,4.188,16.01,10.358,22.67,17.293,8.927,9.295,16.219,19.79,22.72,30.876a3.8,3.8,0,0,1,.261,3.912c-6.393,14.522-11.832,29.383-15.141,44.936-4.964,23.334-3.624,46.17,5.85,68.279a70.289,70.289,0,0,0,8.388,14.352,4.1,4.1,0,0,1,1.194,1.99,60.058,60.058,0,0,1-17.713-8.093c-12.858-8.586-21.592-20.572-28.074-34.35a106.935,106.935,0,0,1-9.82-41.417c-0.52-12.148-.192-24.259,2.095-36.236,1.128-5.91,3.118-11.62,4.288-17.537,2.363-11.96,2.645-23.8-1.385-35.492A34.264,34.264,0,0,0,168.781,129.542Z" transform="translate(-7 -17)"/>
  </g>
  <path class="cls-5" d="M230.99,480c-1,3.257-3.18,5.041-6.515,5-5.534-.074-11.065-0.423-16.6-0.661A1.7,1.7,0,0,1,206,482.424c0.039-1.413.972-1.827,2.245-1.777q5.832,0.228,11.662.507C223.562,481.326,227.211,481.461,230.99,480Z" transform="translate(-7 -17)"/>
</svg>
