<svg id="CAM_1" xmlns="http://www.w3.org/2000/svg" width="25.437" height="25.96" viewBox="0 0 25.437 25.96">
  <defs>
    <style>
      .cls-1 {
        fill: #ffe2b1;
      }

      .cls-1, .cls-2 {
        fill-rule: evenodd;
      }

      .cls-2 {
        fill: #080f11;
      }
    </style>
  </defs>
  <path id="Ellipse_1_copy_2" data-name="Ellipse 1 copy 2" class="cls-1" d="M330.062,6441.62a12.988,12.988,0,1,1-12.718,12.99A12.859,12.859,0,0,1,330.062,6441.62Z" transform="translate(-317.344 -6441.63)"/>
  <path id="Shape_723_copy_2" data-name="Shape 723 copy 2" class="cls-2" d="M334.965,6449.92h-2.06v-0.23a1.778,1.778,0,0,0-1.713-1.84h-3.275a1.778,1.778,0,0,0-1.713,1.84v0.23h-2.06a1.787,1.787,0,0,0-1.713,1.85v6.71a1.787,1.787,0,0,0,1.713,1.85h10.822a1.786,1.786,0,0,0,1.712-1.85v-6.71A1.787,1.787,0,0,0,334.965,6449.92Zm-5.411,8.49a3.5,3.5,0,1,1,3.235-3.49A3.37,3.37,0,0,1,329.554,6458.41Z" transform="translate(-317.344 -6441.63)"/>
</svg>
