<svg xmlns="http://www.w3.org/2000/svg" xmlns:xlink="http://www.w3.org/1999/xlink" width="43" height="41" viewBox="0 0 43 41">
  <defs>
    <style>
      .cls-1 {
        fill-rule: evenodd;
        fill: url(#linear-gradient);
      }
    </style>
    <linearGradient id="linear-gradient" x1="1259.5" y1="3365" x2="1259.5" y2="3324" gradientUnits="userSpaceOnUse">
      <stop offset="0" stop-color="#ff0006"/>
      <stop offset="1" stop-color="#ff7c00"/>
    </linearGradient>
  </defs>
  <path id="Cancer" class="cls-1" d="M1268.7,3354.3c-3.67,2.84-7.99,2.16-12.16,2.15-4.99-.01-9.89-5.91-9.26-11.06l-0.11-.01q3.945-2.115,7.9-4.25c0.06,0.23.12,0.47,0.18,0.71,0.55-1.32,1.09-2.65,1.63-3.97,0.19,1.23.38,2.47,0.6,3.95h3.62c0.6-1.45,1.12-2.72,1.65-3.99,0.21,1.23.42,2.45,0.58,3.38a70.65,70.65,0,0,1,6.87,3.15c2.51,1.48,2.15,3.66.8,5.85-0.84,1.37-1.58,2.78-2.37,4.18Zm-2.16-20.8c1.96,0.29,3.93.59,6.38,0.95-0.44-4.33-2.95-6.95-5.41-9.63,4.55-.27,9.16,3.15,10.92,8.02,1.8,4.97.02,9.55-5.13,13.08-1.16-1.23-2.33-2.47-3.5-3.7,0.79-1.03,1.68-2.2,2.46-3.21-2.19-1.77-4.14-3.34-6.1-4.92C1266.29,3333.89,1266.41,3333.7,1266.54,3333.5Zm-19.37,11.88,0.11,0.01c-1.02-.2-2.3-0.07-3.01-0.65-6.43-5.23-5.35-14.46,2.17-18.68a42.751,42.751,0,0,1,5.23-2.05c-2.25,3.52-4.15,6.48-6.04,9.45,0.19,0.27.38,0.54,0.57,0.82l5.88-.57c0.18,0.21.36,0.43,0.54,0.64-1.85,1.49-3.69,2.99-5.72,4.64,0.6,0.81,1.47,1.99,2.39,3.24C1248.59,3343.27,1247.88,3344.33,1247.17,3345.38Zm-8.76,1.7c2.5,1.5,6.12-1.33,8.23,1.67-0.13.51-.25,1.03-0.37,1.55q-4.14-.9-8.26-1.8C1238.14,3348.02,1238.28,3347.55,1238.41,3347.08Zm34.14,1.67c2.04-3.21,5.67-.05,8.11-1.68,0.11,0.44.23,0.87,0.34,1.31l-7.9,1.98C1272.92,3349.82,1272.73,3349.29,1272.55,3348.75Zm-3.85,5.55-0.07.09c0.72,0.02,1.97-.18,2.08.09,0.92,2.25,1.62,4.58,2.39,6.89-0.34.14-.69,0.28-1.03,0.42C1270.95,3359.29,1269.82,3356.8,1268.7,3354.3Zm-15.95,10.71c-0.4-2.75-.8-5.49-1.22-8.44,2.48,0.66,2.48.66,2.14,8.25C1253.36,3364.88,1253.06,3364.94,1252.75,3365.01Zm-4.02-12.1q-3.99,1.32-7.98,2.62c-0.09-.25-0.17-0.5-0.26-0.75,2.18-1.3,4.37-2.6,6.82-4.06,0.42,0.7.89,1.49,1.37,2.27Zm30.29,2.09c-5.85.06-8.46-1.51-7.29-4.28C1274,3352.05,1276.26,3353.38,1279.02,3355Zm-30.34-2.01c0.85,0.66,1.71,1.32,2.5,1.92-1.64,2.38-2.95,4.3-4.27,6.23-0.22-.08-0.44-0.15-0.66-0.22,0.82-2.67,1.65-5.33,2.48-8A0.423,0.423,0,0,0,1248.68,3352.99Zm18.96,3.94c-0.4,2.58-.8,5.17-1.19,7.75l-1.13-.15c1.44-2.52-2-5.58.57-7.96C1266.47,3356.69,1267.05,3356.81,1267.64,3356.93Z" transform="translate(-1238 -3324)"/>
</svg>
