<svg xmlns="http://www.w3.org/2000/svg" width="15" height="13" viewBox="0 0 15 13">
  <defs>
    <style>
      .cls-1 {
        fill: #b61f1d;
        fill-rule: evenodd;
      }
    </style>
  </defs>
  <path id="dislike" class="cls-1" d="M1741.3,493.425a4.405,4.405,0,0,1-.08-0.691,1.283,1.283,0,0,1,1.29-1.161c1.85-.009,3.71-0.01,5.57,0a3.481,3.481,0,0,1,1.27.285,0.164,0.164,0,0,1,.09.195v5.569a0.874,0.874,0,0,1-.1.468c-0.21.355-.37,0.735-0.55,1.106-0.35.736-.71,1.472-1.06,2.21a0.619,0.619,0,0,0-.05.232c0,0.565-.01,1.13,0,1.695a0.381,0.381,0,0,1-.24.4,4.056,4.056,0,0,1-.69.239,1.363,1.363,0,0,1-1.28-.533,2.523,2.523,0,0,1-.66-2.429c0.09-.454.22-0.9,0.33-1.35a1.491,1.491,0,0,0,.06-0.182H1745c-1.12,0-2.24,0-3.36,0a1.592,1.592,0,0,1-1.26-.532,1.332,1.332,0,0,1-.09-1.683,1.66,1.66,0,0,0,.11-0.145,1.269,1.269,0,0,1-.35-1.094,1.29,1.29,0,0,1,.7-0.931,1.226,1.226,0,0,1-.06-0.957A1.263,1.263,0,0,1,1741.3,493.425Zm9.58,4.924v-6.887a0.269,0.269,0,0,1,.16-0.275,1.591,1.591,0,0,1,.77-0.184c0.56,0,1.11,0,1.67,0a1.441,1.441,0,0,1,1.52,1.477v4.4a1.444,1.444,0,0,1-1.53,1.466c-0.8,0-1.6,0-2.41,0h-0.18Z" transform="translate(-1740 -491)"/>
</svg>
