<svg id="google-play" xmlns="http://www.w3.org/2000/svg" width="119.56" height="35.438" viewBox="0 0 119.56 35.438">
  <defs>
    <style>
      .cls-1 {
        fill: #a6a6a6;
      }

      .cls-1, .cls-2, .cls-3 {
        fill-rule: evenodd;
      }

      .cls-2 {
        fill: #260a45;
      }

      .cls-3 {
        fill: #fff;
      }
    </style>
  </defs>
  <path id="Shape_3_copy" data-name="Shape 3 copy" class="cls-1" d="M1474.3,604.423H1363.19a4.2,4.2,0,0,1-4.19-4.192V573.185a4.192,4.192,0,0,1,4.19-4.185H1474.3a4.244,4.244,0,0,1,4.25,4.185v27.046a4.251,4.251,0,0,1-4.25,4.192h0Z" transform="translate(-1359 -569)"/>
  <path id="Shape_2_copy" data-name="Shape 2 copy" class="cls-2" d="M1477.67,600.153a3.383,3.383,0,0,1-3.39,3.374h-111a3.392,3.392,0,0,1-3.4-3.374V573.245a3.4,3.4,0,0,1,3.4-3.379h110.99a3.39,3.39,0,0,1,3.4,3.379v26.908h0Z" transform="translate(-1359 -569)"/>
  <path class="cls-3" d="M1368.24,577.432a1.705,1.705,0,0,0-.4,1.222v19.3a1.7,1.7,0,0,0,.4,1.222l0.06,0.061,10.91-10.8v-0.253l-10.91-10.812Zm15.2,14.691-3.61-3.6v-0.253l3.61-3.613,0.08,0.044,4.32,2.434c1.23,0.69,1.23,1.824,0,2.522l-4.31,2.426Zm-0.21.116-3.72-3.683-10.97,10.874a1.444,1.444,0,0,0,1.83.052l12.86-7.243m0.05-7.722-12.87-7.243a1.442,1.442,0,0,0-1.83.052l10.98,10.873Z" transform="translate(-1359 -569)"/>
  <path class="cls-3" d="M1400.33,578.276a2.357,2.357,0,0,1-.66,1.744,2.6,2.6,0,0,1-1.95.776,2.737,2.737,0,0,1-1.95-4.681,2.663,2.663,0,0,1,1.95-.785,2.756,2.756,0,0,1,1.09.218,2.126,2.126,0,0,1,.83.584l-0.46.462a1.8,1.8,0,0,0-1.46-.619,2.042,2.042,0,0,0-2.06,2.013v0.079a2.095,2.095,0,0,0,3.54,1.508,1.626,1.626,0,0,0,.44-1.063h-1.92v-0.628h2.58A2.578,2.578,0,0,1,1400.33,578.276Zm4.06-2.179H1402v1.657h2.17v0.627H1402v1.656h2.39v0.645h-3.1v-5.23h3.1V576.1Zm2.9,4.585h-0.68V576.1h-1.49v-0.645h3.69V576.1h-1.52v4.585Zm4.12,0v-5.23h0.68v5.23h-0.68Zm3.71,0h-0.68V576.1h-1.49v-0.645h3.65V576.1h-1.48v4.585Zm8.39-.68a2.75,2.75,0,1,1-.02-3.893c0.01,0,.01.01,0.02,0.015A2.8,2.8,0,0,1,1423.51,580Zm-3.39-.435a2.061,2.061,0,0,0,2.88,0,2.214,2.214,0,0,0,0-3,2.061,2.061,0,0,0-2.88,0A2.194,2.194,0,0,0,1420.12,579.567Zm5.13,1.115v-5.23h0.83l2.58,4.071v-4.071h0.68v5.23h-0.7l-2.7-4.262v4.262h-0.69Zm-6.58,7.628a3.7,3.7,0,1,0,3.77,3.7,3.674,3.674,0,0,0-3.65-3.705h-0.12Zm0,5.953a2.249,2.249,0,1,1,2.11-2.4,0.767,0.767,0,0,1,.01.151,2.159,2.159,0,0,1-2.07,2.247Zm-8.24-5.953a3.7,3.7,0,1,0,3.77,3.7,3.683,3.683,0,0,0-3.66-3.705h-0.11Zm0,5.953a2.249,2.249,0,1,1,2.11-2.408v0.159a2.151,2.151,0,0,1-2.06,2.247l-0.06,0h0.01Zm-9.81-4.812v1.569h3.82a3.228,3.228,0,0,1-.89,1.979,3.929,3.929,0,0,1-2.94,1.151,4.185,4.185,0,1,1,0-8.368,4.081,4.081,0,0,1,2.89,1.124l1.13-1.107a5.624,5.624,0,0,0-4.01-1.63,5.763,5.763,0,1,0-.46,11.515c0.15,0.006.31,0.006,0.46,0a5.36,5.36,0,0,0,4.08-1.612,5.225,5.225,0,0,0,1.38-3.679,5.428,5.428,0,0,0-.09-0.985Zm40.08,1.221a3.471,3.471,0,0,0-6.76,1.117v0.225a3.655,3.655,0,0,0,3.6,3.7h0.14a3.752,3.752,0,0,0,3.13-1.639l-1.28-.872a2.155,2.155,0,0,1-1.85,1.029,1.9,1.9,0,0,1-1.82-1.124l5.03-2.049Zm-5.13,1.238a2.047,2.047,0,0,1,1.92-2.16l0.05,0a1.452,1.452,0,0,1,1.39.784Zm-4.08,3.591h1.65v-10.9h-1.65v10.9Zm-2.71-6.363h-0.06a2.692,2.692,0,0,0-1.99-.872,3.711,3.711,0,0,0,0,7.418,2.6,2.6,0,0,0,1.99-.872h0.05v0.532a1.911,1.911,0,0,1-2.01,2.179,2.074,2.074,0,0,1-1.89-1.316l-1.44.593a3.573,3.573,0,0,0,3.33,2.188c1.94,0,3.54-1.125,3.54-3.862v-6.6h-1.52v0.61Zm-1.9,5.125a2.255,2.255,0,0,1,0-4.5,2.106,2.106,0,0,1,2.02,2.2c0,0.017-.01.035-0.01,0.052a2.082,2.082,0,0,1-1.92,2.243l-0.09.006h0Zm21.57-9.658h-3.95v10.9h1.65v-4.132h2.31a3.392,3.392,0,1,0,.5-6.764,3.477,3.477,0,0,0-.5,0h-0.01Zm0,5.23h-2.3v-3.713h2.34a1.87,1.87,0,1,1,0,3.739Zm10.2-1.569a3.1,3.1,0,0,0-2.94,1.665l1.47,0.6a1.56,1.56,0,0,1,1.5-.8,1.587,1.587,0,0,1,1.77,1.377v0.14a3.673,3.673,0,0,0-1.72-.418c-1.59,0-3.19.871-3.19,2.449a2.544,2.544,0,0,0,2.67,2.4l0.07,0a2.347,2.347,0,0,0,2.13-1.046h0.05V595.5h1.59v-4.193c0-1.909-1.47-3.016-3.35-3.016Zm-0.2,5.971a1.15,1.15,0,0,1-1.29-.924c0-.871.94-1.159,1.77-1.159a2.966,2.966,0,0,1,1.5.366,1.982,1.982,0,0,1-1.93,1.743Zm9.41-5.709-1.9,4.724h-0.05l-1.96-4.724h-1.77l2.94,6.607-1.68,3.67h1.73l4.53-10.277h-1.84Zm-14.88,6.973h1.66v-10.9h-1.66v10.9Z" transform="translate(-1359 -569)"/>
</svg>
