<svg xmlns="http://www.w3.org/2000/svg" xmlns:xlink="http://www.w3.org/1999/xlink" width="30" height="30" viewBox="0 0 30 30">
  <defs>
    <clipPath id="clip-path">
      <rect id="Rectangle_112" data-name="Rectangle 112" width="13.201" height="12.629" fill="#fff"/>
    </clipPath>
  </defs>
  <g id="Group_294" data-name="Group 294" transform="translate(-240 -989)">
    <circle id="Ellipse_5" data-name="Ellipse 5" cx="15" cy="15" r="15" transform="translate(240 989)" fill="#ed981c"/>
    <g id="Group_288" data-name="Group 288" transform="translate(248.399 997.686)">
      <g id="Group_287" data-name="Group 287" transform="translate(0 0)" clip-path="url(#clip-path)">
        <path id="Path_694" data-name="Path 694" d="M14.985,5.566v.386a1.591,1.591,0,0,1-.325.7c-.026.028-.016.052.007.077a1.39,1.39,0,0,1,.318.642v.386c-.008.01-.02.018-.022.029a1.193,1.193,0,0,1-.585.822c-.073.043-.051.08-.03.134a1.217,1.217,0,0,1-.5,1.5c-.068.043-.084.074-.051.15a1.139,1.139,0,0,1,.062.706,1.248,1.248,0,0,1-1.227.979c-1.667,0-3.335,0-5,0a3.7,3.7,0,0,1-1.292-.255.207.207,0,0,1-.159-.231c0-1.78,0-3.559,0-5.34a1.147,1.147,0,0,1,.106-.53c.513-1.059,1-2.133,1.492-3.2a.534.534,0,0,0,.052-.235c0-.553,0-1.106,0-1.66a.321.321,0,0,1,.1-.291A1.337,1.337,0,0,1,9.567.242a2.442,2.442,0,0,1,1.012,2.1A7.407,7.407,0,0,1,10.2,4.238c-.046.148-.046.148.112.148q1.6,0,3.2,0a1.483,1.483,0,0,1,1.169.526,1.582,1.582,0,0,1,.309.654" transform="translate(-1.784 0)" fill="#fff"/>
        <path id="Path_695" data-name="Path 695" d="M0,8.9c.02-.074.038-.148.06-.221a1.375,1.375,0,0,1,1.306-.962c.786,0,1.572,0,2.358,0,.1,0,.131.021.13.125q0,3.311,0,6.622a.188.188,0,0,1-.1.185,1.287,1.287,0,0,1-.656.2c-.6,0-1.2.016-1.8,0A1.345,1.345,0,0,1,.027,13.756c0-.025,0-.052-.027-.069V8.9" transform="translate(0 -2.227)" fill="#fff"/>
      </g>
    </g>
  </g>
</svg>
