<svg xmlns="http://www.w3.org/2000/svg" xmlns:xlink="http://www.w3.org/1999/xlink" width="41" height="43" viewBox="0 0 41 43">
  <defs>
    <style>
      .cls-1 {
        fill-rule: evenodd;
        fill: url(#linear-gradient);
      }
    </style>
    <linearGradient id="linear-gradient" x1="1259.5" y1="3464" x2="1259.5" y2="3421" gradientUnits="userSpaceOnUse">
      <stop offset="0" stop-color="#ff0006"/>
      <stop offset="1" stop-color="#ff7c00"/>
    </linearGradient>
  </defs>
  <path id="LIBRA" class="cls-1" d="M1271.88,3436.24c-1.45-.78-2.79-1.61-4.22-2.24-3.04-1.33-6.91.75-6.98,4.01-0.18,7.93-.06,15.86-0.06,24.09h6.13c-4.73,2.55-9.49,2.44-14.32.13h6.1c0-8.2.19-16.22-.08-24.23-0.13-3.53-4.13-5.4-7.35-3.89-1.22.58-2.37,1.31-3.89,2.15,1.52,3.05,3.02,6,4.47,8.98,1.74,3.56,1.12,4.6-2.68,4.62-2.31.01-4.62,0.03-6.93-.01-2.84-.04-3.56-1.13-2.39-3.73,1.21-2.67,2.56-5.27,3.58-7.35-1.63-.88-4.23-1.62-4.25-2.44-0.06-1.78,1.2-3.59,1.93-5.39l0.78,0.33c-0.27,1.27-.55,2.54-0.91,4.24,6.71-.06,10.66-7.8,17.7-4.77,0.44-3.63-1.98-7.03,1.01-9.73,2.97,2.64.94,6.03,1.07,9.62,5.27-1.53,9.02,1.3,12.92,3.72a4.377,4.377,0,0,0,1.69.77,16.156,16.156,0,0,0,2.69-.05c-0.1-.87-0.17-1.75-0.32-2.61a4.507,4.507,0,0,0-.47-1.03c0.32-.14.65-0.28,0.97-0.42,0.7,1.77,1.86,3.55,1.88,5.33,0.01,0.76-2.37,1.55-4.06,2.56,0.95,1.92,2.2,4.39,3.39,6.89,1.42,2.99.77,4.04-2.55,4.07-2.52.02-5.04,0.04-7.56-.01-2.56-.05-3.35-1.28-2.24-3.62C1268.49,3442.92,1270.17,3439.67,1271.88,3436.24Zm-31.31,11.01h10.64c-1.84-3.66-3.52-7.01-5.36-10.69C1243.98,3440.33,1242.3,3443.74,1240.57,3447.25Zm27.26,0.08h10.73c-1.8-3.62-3.44-6.92-5.36-10.76C1271.28,3440.42,1269.63,3443.71,1267.83,3447.33Zm10.47,4.26c-3.04,4.25-7.3,4.23-10.12,0h10.12Zm-27.32-.07c-3.25,4.39-7.2,4.36-10.16,0h10.16Zm-10.41-4.27c1.73-3.51,3.41-6.92,5.28-10.69,1.84,3.68,3.52,7.03,5.36,10.69h-10.64Zm27.26,0.08c1.8-3.62,3.45-6.91,5.37-10.76,1.92,3.84,3.56,7.14,5.36,10.76h-10.73Z" transform="translate(-1239 -3421)"/>
</svg>
