<svg xmlns="http://www.w3.org/2000/svg" width="15.03" height="13" viewBox="0 0 15.03 13">
  <defs>
    <style>
      .cls-1 {
        fill: #2fbe55;
        fill-rule: evenodd;
      }
    </style>
  </defs>
  <path id="like" class="cls-1" d="M1712.73,497.575a4.405,4.405,0,0,1,.08.691,1.283,1.283,0,0,1-1.29,1.161c-1.86.009-3.72,0.01-5.59,0a3.43,3.43,0,0,1-1.26-.285,0.161,0.161,0,0,1-.1-0.195v-5.569a0.874,0.874,0,0,1,.1-0.468c0.21-.355.37-0.735,0.55-1.106,0.35-.736.71-1.472,1.06-2.21a0.473,0.473,0,0,0,.05-0.232q0.015-.847,0-1.695a0.388,0.388,0,0,1,.25-0.4,3.776,3.776,0,0,1,.69-0.239,1.381,1.381,0,0,1,1.28.533,2.552,2.552,0,0,1,.67,2.429c-0.1.454-.23,0.9-0.34,1.35-0.02.052-.03,0.1-0.06,0.182h0.2c1.12,0,2.24,0,3.36,0a1.6,1.6,0,0,1,1.27.532,1.32,1.32,0,0,1,.09,1.683,1.66,1.66,0,0,0-.11.145,1.269,1.269,0,0,1,.35,1.094,1.29,1.29,0,0,1-.7.931,1.226,1.226,0,0,1,.06.957A1.3,1.3,0,0,1,1712.73,497.575Zm-9.6-4.924v0.184c0,2.234-.01,4.469,0,6.7a0.269,0.269,0,0,1-.16.275,1.63,1.63,0,0,1-.78.184c-0.55,0-1.11,0-1.67,0a1.441,1.441,0,0,1-1.52-1.477v-4.4a1.444,1.444,0,0,1,1.53-1.466c0.81,0,1.61,0,2.42,0h0.18Z" transform="translate(-1699 -487)"/>
</svg>
