<svg xmlns="http://www.w3.org/2000/svg" width="14" height="14" viewBox="0 0 14 14">
  <defs>
    <style>
      .cls-1 {
        fill: #b7b7b7;
        fill-rule: evenodd;
      }
    </style>
  </defs>
  <path class="cls-1" d="M505.421,592.227a5.133,5.133,0,0,0-1.122-1.014,5.814,5.814,0,1,0,2.387,6.065,8.975,8.975,0,0,0,.142-1.242,0.594,0.594,0,0,1,.63-0.6,0.585,0.585,0,0,1,.542.642,6.653,6.653,0,0,1-.706,2.988,6.915,6.915,0,0,1-4.781,3.766,7.015,7.015,0,0,1-7.687-3.532,6.921,6.921,0,0,1,3.684-9.792,6.788,6.788,0,0,1,7.449,1.57c0.039,0.036.075,0.075,0.114,0.112a0.413,0.413,0,0,0,.074.032c0.006-.081.014-0.15,0.014-0.22,0-.433,0-0.866,0-1.3a0.593,0.593,0,1,1,1.175,0q0,1.539,0,3.077a0.6,0.6,0,0,1-.677.675q-1.589,0-3.176,0a0.577,0.577,0,0,1-.223-1.116,1.113,1.113,0,0,1,.337-0.041c0.518,0,1.036,0,1.554,0H505.4ZM507,593l-0.418-4.006-3.565,3.042L507,593" transform="translate(-494 -589)"/>
</svg>
