<svg xmlns="http://www.w3.org/2000/svg" width="21" height="21" viewBox="0 0 21 21">
  <defs>
    <style>
      .cls-1 {
        fill: #fff;
        fill-rule: evenodd;
      }
    </style>
  </defs>
  <path id="Move_icon" class="cls-1" d="M1500.3,797.305v4.239c0.41,0,.82.006,1.23,0a0.726,0.726,0,0,1,.54,1.284c-1.01.974-2.02,1.958-3.03,2.928a0.705,0.705,0,0,1-1.07,0c-1.03-.981-2.06-1.958-3.06-2.974a0.9,0.9,0,0,1-.16-0.786,0.988,0.988,0,0,1,.68-0.434,7.4,7.4,0,0,1,1.26-.019V797.3h-4.23c0,0.4-.01.807,0,1.214a0.71,0.71,0,0,1-.43.756,0.741,0.741,0,0,1-.88-0.22c-0.96-1.006-1.93-2-2.89-3.008a0.7,0.7,0,0,1,.01-1.1c0.96-1.006,1.93-2,2.89-3.007a0.747,0.747,0,0,1,.85-0.221,0.7,0.7,0,0,1,.45.74c-0.01.4,0,.8,0,1.232h4.24v-4.232c-0.43,0-.84,0-1.25,0a0.724,0.724,0,0,1-.54-1.268c1.03-.985,2.04-1.979,3.07-2.959a0.7,0.7,0,0,1,1.04,0c1.04,0.99,2.08,1.978,3.08,3a0.889,0.889,0,0,1,.14.791,0.921,0.921,0,0,1-.64.414,8.494,8.494,0,0,1-1.3.018v4.235h4.24c0-.41.01-0.82,0-1.229a0.7,0.7,0,0,1,.45-0.744,0.723,0.723,0,0,1,.84.215c0.97,1,1.94,2,2.9,3.006a0.721,0.721,0,0,1-.01,1.131c-0.95,1-1.92,1.98-2.87,2.975a0.743,0.743,0,0,1-.88.227,0.716,0.716,0,0,1-.43-0.753c0.01-.4,0-0.794,0-1.217h-4.24Z" transform="translate(-1488 -785.031)"/>
</svg>
