<svg id="Group_1_copy" data-name="Group 1 copy" xmlns="http://www.w3.org/2000/svg" width="51" height="41" viewBox="0 0 51 41">
  <defs>
    <style>
      .cls-1 {
        fill: #e8f5cd;
      }

      .cls-2, .cls-3, .cls-4, .cls-5, .cls-6, .cls-7, .cls-8 {
        fill-rule: evenodd;
      }

      .cls-3 {
        fill: #dea05f;
      }

      .cls-4 {
        fill: #fff67d;
      }

      .cls-5 {
        fill: #1cd4a8;
      }

      .cls-6 {
        fill: #fdd3af;
      }

      .cls-7 {
        fill: #c2e7f2;
      }

      .cls-8 {
        fill: #2e4e78;
      }
    </style>
  </defs>
  <rect id="Rectangle_1_copy" data-name="Rectangle 1 copy" class="cls-1" width="51" height="41" rx="5" ry="5"/>
  <path class="cls-2" d="M1165.08,84.739a5.644,5.644,0,0,1,.7.61q2.43,2.469,4.88,4.933a0.8,0.8,0,0,1,.33.6c-0.02.247,0.12,0.226,0.27,0.206,0.81-.107,1.63-0.2,2.44-0.327a3.887,3.887,0,0,1,3.57,1.128c1.6,1.609,3.21,3.2,4.8,4.812a0.656,0.656,0,0,0,.52.218c1.71-.008,3.43,0,5.15,0a0.833,0.833,0,0,1,1.02,1.016c0,2.852.01,5.7-.01,8.556,0,0.343.1,0.406,0.42,0.4,1.69-.016,3.38-0.008,5.08-0.007a0.875,0.875,0,0,1,1.07,1.09v13.974c0,0.835-.22,1.052-1.06,1.052h-33.47a0.872,0.872,0,0,1-1.07-1.061V107.965a0.88,0.88,0,0,1,1.07-1.067q6.975,0,13.95.008c0.34,0,.43-0.084.43-0.425-0.02-1.295-.02-2.59-0.01-3.885,0.01-.241-0.05-0.308-0.3-0.309-1.42-.009-2.84-0.025-4.25-0.063a3.837,3.837,0,0,1-2.68-1.216c-1.35-1.359-2.71-2.713-4.06-4.07l-5.04-5.049a0.837,0.837,0,0,1,0-1.451l5.28-5.284c0.15-.144.3-0.278,0.45-0.416h0.52Z" transform="translate(-1151 -83)"/>
  <path class="cls-3" d="M1177.6,121.4q-7.95,0-15.91.007c-0.31,0-.43-0.057-0.41-0.405,0.03-.663.02-1.329,0-1.993-0.01-.315.08-0.4,0.39-0.4,3.5,0.011,6.99.007,10.49,0.007q10.665,0,21.32-.008c0.34,0,.44.083,0.43,0.429-0.03.651-.03,1.3,0,1.956,0.01,0.328-.07.413-0.41,0.412Q1185.55,121.392,1177.6,121.4Z" transform="translate(-1151 -83)"/>
  <path class="cls-4" d="M1177.57,117.191q-7.935,0-15.88.007c-0.32,0-.43-0.063-0.43-0.419q0.03-3.993,0-7.988c0-.321.06-0.442,0.42-0.441q6.555,0.021,13.12,0c0.29,0,.41.046,0.4,0.375-0.03.821-.02,1.643-0.01,2.464,0.01,0.261-.06.329-0.32,0.328-1.98-.012-3.95-0.008-5.93,0a0.747,0.747,0,0,0-.86.758,0.727,0.727,0,0,0,.66.725,2.837,2.837,0,0,0,.38.009h19.49a2.69,2.69,0,0,0,.37-0.01,0.768,0.768,0,0,0,.66-0.7,0.714,0.714,0,0,0-.59-0.751,0.294,0.294,0,0,1-.3-0.376c0.02-.846.02-1.692,0.01-2.538-0.01-.21.05-0.278,0.27-0.277,1.51,0.008,3.03.007,4.54,0,0.19,0,.26.043,0.26,0.246q-0.015,4.18,0,8.361c0,0.179-.05.251-0.23,0.23a2.063,2.063,0,0,0-.26,0h-15.77Z" transform="translate(-1151 -83)"/>
  <path class="cls-5" d="M1178.87,98.279h3.16c1.7,0,3.4.007,5.1-.007,0.28,0,.35.072,0.35,0.35q-0.015,6.228,0,12.456c0,0.279-.07.35-0.35,0.349q-4.95-.015-9.9,0c-0.27,0-.35-0.067-0.34-0.347,0.01-2.884,0-5.768,0-8.652,0-.147-0.05-0.285.2-0.357a2.675,2.675,0,0,0,1.83-3.6C1178.9,98.427,1178.9,98.378,1178.87,98.279Z" transform="translate(-1151 -83)"/>
  <path class="cls-2" d="M1179.22,104.362a0.84,0.84,0,0,1,.49.239c0.62,0.51,1.25,1.009,1.87,1.532,0.18,0.156.25,0.141,0.38-.057q1.245-1.942,2.51-3.87a1.953,1.953,0,0,1,.27-0.356,0.725,0.725,0,0,1,.91-0.139,0.755,0.755,0,0,1,.3.913,2.388,2.388,0,0,1-.2.356l-3,4.616a0.843,0.843,0,0,1-1.49.224c-0.77-.638-1.55-1.271-2.32-1.91a2.19,2.19,0,0,1-.4-0.386,0.675,0.675,0,0,1-.06-0.768A0.733,0.733,0,0,1,1179.22,104.362Z" transform="translate(-1151 -83)"/>
  <path class="cls-6" d="M1180.39,96.874c-2.24,0-4.42,0-6.6,0a1.177,1.177,0,0,0-.52.061,0.717,0.717,0,0,0-.44.707,0.686,0.686,0,0,0,.51.664,1.342,1.342,0,0,0,.44.059q1.29,0,2.58,0a1.178,1.178,0,1,1-.02,2.338c-1.41,0-2.83-.1-4.23-0.009a3.993,3.993,0,0,1-3.55-1.468c-0.75-.874-1.62-1.647-2.45-2.451-0.18-.175-0.16-0.263,0-0.427q1.7-1.658,3.37-3.335a0.751,0.751,0,0,1,.48-0.23c1.41-.173,2.82-0.345,4.22-0.55a2.482,2.482,0,0,1,2.24.64c1.31,1.28,2.6,2.573,3.89,3.861A0.411,0.411,0,0,1,1180.39,96.874Z" transform="translate(-1151 -83)"/>
  <path class="cls-2" d="M1165.17,112.97a0.744,0.744,0,0,1-.65-0.808,0.72,0.72,0,0,1,.78-0.712,0.757,0.757,0,0,1,.67.8A0.767,0.767,0,0,1,1165.17,112.97Z" transform="translate(-1151 -83)"/>
  <path class="cls-2" d="M1170.59,97.509a0.718,0.718,0,0,1,.72-0.729,0.739,0.739,0,1,1-.01,1.477A0.725,0.725,0,0,1,1170.59,97.509Z" transform="translate(-1151 -83)"/>
  <path class="cls-7" d="M1165.16,95.47a0.365,0.365,0,0,1-.24-0.176c-0.58-.556-0.95-0.93-0.4-1.482,1.28-1.275,2.56-2.544,3.83-3.83,0.2-.205.3-0.191,0.49,0.005,0.53,0.553.91,0.916,0.36,1.461q-1.9,1.912-3.83,3.825Q1165.265,95.378,1165.16,95.47Z" transform="translate(-1151 -83)"/>
  <path class="cls-8" d="M1167.7,88.94c-0.07.076-.12,0.143-0.18,0.2-1.41,1.4-2.82,2.79-4.22,4.195-0.17.173-.26,0.141-0.41-0.014-0.7-.72-1.4-1.432-2.12-2.138-0.14-.142-0.16-0.225-0.01-0.38,1.43-1.4,2.84-2.808,4.25-4.216,0.11-.109.19-0.172,0.33-0.028,0.74,0.748,1.49,1.487,2.24,2.23C1167.62,88.832,1167.65,88.883,1167.7,88.94Z" transform="translate(-1151 -83)"/>
</svg>
