<svg id="ODISHA" xmlns="http://www.w3.org/2000/svg" width="87" height="68" viewBox="0 0 87 68">
  <defs>
    <style>
      .cls-1 {
        fill: #ec7b03;
      }

      .cls-1, .cls-2 {
        fill-rule: evenodd;
      }

      .cls-2 {
        fill: #fff;
      }
    </style>
  </defs>
  <path class="cls-1" d="M341,265.86v-0.2c0.467-.21-0.1-0.636.23-0.916l0.537,0.276a5.574,5.574,0,0,1,.115-0.618,3.443,3.443,0,0,1,.231-0.53,1.327,1.327,0,0,0,.194-0.332c0.039-.312.025-0.631,0.055-0.945a0.7,0.7,0,0,1,.137-0.323,0.9,0.9,0,0,0,.3-0.906,1.067,1.067,0,0,1,.053-0.209,4.166,4.166,0,0,0-.045-0.445,1.009,1.009,0,0,1-.047-0.313,1.38,1.38,0,0,0,.252-0.845,0.131,0.131,0,0,1,.074-0.1,1.118,1.118,0,0,0,.866-0.573,0.251,0.251,0,0,1,.125-0.034,5.685,5.685,0,0,0,.612-0.148,0.7,0.7,0,0,0,.2-0.213,3.007,3.007,0,0,1,.938-0.123,0.3,0.3,0,0,0,.347-0.28,1.633,1.633,0,0,1,.712-1.137,1.565,1.565,0,0,0,.669-0.651,1,1,0,0,1,.72-0.627c0.036-.147.07-0.286,0.1-0.42l0.555,0.06c0.046-.162.084-0.3,0.123-0.433l-0.9-.584c0-.083.013-0.211,0.02-0.332l0.715,0.29a2.094,2.094,0,0,1,.423-0.834,1.729,1.729,0,0,1,1.574-.331c0.047-.235.086-0.425,0.128-0.632a0.925,0.925,0,0,0,.954-0.481,2.115,2.115,0,0,0,.1-0.873,0.784,0.784,0,0,1,.476-0.84,3.841,3.841,0,0,1,.619-0.17c-0.036-.236-0.067-0.492-0.117-0.745a3.228,3.228,0,0,0-.2-0.778c-0.14-.29-0.5-0.527-0.105-0.791-0.079-.2-0.134-0.334-0.208-0.52h-0.489a1.37,1.37,0,0,0,.146-0.35,0.879,0.879,0,0,0-.012-0.557,1.023,1.023,0,0,1-.241-0.821,9.459,9.459,0,0,1,.37-1.3,2.29,2.29,0,0,1-.374-0.2,0.81,0.81,0,0,1-.157-0.263c0.075-.021.15-0.046,0.226-0.064a0.509,0.509,0,0,0,.151-0.023,3.171,3.171,0,0,0,.158-0.7,0.692,0.692,0,0,0-.454-0.127,0.4,0.4,0,0,1-.588-0.345,3.128,3.128,0,0,1-.061-0.341c-0.018-.4-0.242-0.633-0.5-0.525a5.019,5.019,0,0,1-.545.16c-0.021-.025-0.043-0.049-0.064-0.073a0.924,0.924,0,0,0,.163-1.134,0.184,0.184,0,0,1,.032-0.158,1.269,1.269,0,0,0,.082-1.16,1.75,1.75,0,0,1,.126-1.033c0.07-.169.261-0.439-0.053-0.572a1.794,1.794,0,0,0-.664-0.117c-0.153,0-.306.1-0.4-0.114a1.243,1.243,0,0,1-.208-0.449,0.385,0.385,0,0,0-.339-0.422c-0.316-.123-0.636-0.237-0.942-0.381a0.911,0.911,0,0,1-.407-0.914c0.08-.294.159-0.589,0.258-0.877a0.575,0.575,0,0,1,.2-0.325,0.7,0.7,0,0,0,.579-0.458c0.366-.468.494-0.483,0.858,0,0.046,0.062.069,0.144,0.118,0.2a0.319,0.319,0,0,0,.168.145c0.24,0,.271.147,0.3,0.331a0.7,0.7,0,0,0,.1.2,2.452,2.452,0,0,0,.34-0.325c0.175-.25.316-0.257,0.525-0.022a1.076,1.076,0,0,0,.517.344,1.49,1.49,0,0,1,.805.362,0.455,0.455,0,0,0,.425.025c0.159-.084.276-0.254,0.465-0.082a1.623,1.623,0,0,1,.4.407c0.177,0.349.281,0.735,0.459,1.083a8.065,8.065,0,0,0,.556.823c0.193-.21.354-0.366,0.493-0.54a1.227,1.227,0,0,1,1.294-.66,0.238,0.238,0,0,0,.1-0.016,0.7,0.7,0,0,1,.712.315,0.618,0.618,0,0,0,.316.2c0.264,0.053.535,0.067,0.8,0.1a0.47,0.47,0,0,1,0,.116,0.292,0.292,0,0,1-.064.118,0.836,0.836,0,0,0-.2,1.036,0.237,0.237,0,0,0,.172.128,1.163,1.163,0,0,0,.491-0.309,0.755,0.755,0,0,1,.813-0.428,0.574,0.574,0,0,0,.45-0.64,0.973,0.973,0,0,1-.086-0.9c0.009-.2.048-0.4,0.046-0.6a0.316,0.316,0,0,0-.116-0.243,1.568,1.568,0,0,0-1.264.02,0.4,0.4,0,0,1-.379-0.01,1.526,1.526,0,0,0-1.041-.319,0.975,0.975,0,0,1-.325-0.086,10.951,10.951,0,0,0-1.136-.389,0.31,0.31,0,0,1-.285-0.395,2.873,2.873,0,0,0-.066-0.769,0.592,0.592,0,0,1,.155-0.673,0.8,0.8,0,0,0,.188-0.575c-0.022-.334-0.207-0.678.208-0.91a0.2,0.2,0,0,0,.016-0.182c-0.091-.159-0.2-0.306-0.3-0.459a0.5,0.5,0,0,1-.136-0.251,3.814,3.814,0,0,1,.259-0.894,0.77,0.77,0,0,0-.063-0.955l-0.273.29c-0.048-.271-0.077-0.479-0.124-0.684a0.414,0.414,0,0,0-.123-0.218c-0.232-.191-0.476-0.368-0.725-0.557,0.235-.378.438-0.695,0.628-1.02a1,1,0,0,0-.019-0.192,2.325,2.325,0,0,0-.278-0.867c-0.083-.651-0.124-1.309-0.146-1.965a2.674,2.674,0,0,1,.137-0.661,0.957,0.957,0,0,0,.391.2,0.36,0.36,0,0,1,.477.332,0.722,0.722,0,0,0,.723.273,1.08,1.08,0,0,0,.393-0.8,0.41,0.41,0,0,1,.318-0.5,1.4,1.4,0,0,0,.874-0.738,0.968,0.968,0,0,1,.278-0.338,0.777,0.777,0,0,0,.314-1.106,0.689,0.689,0,0,0,.381-1,0.293,0.293,0,0,1,.2-0.18c0.26-.035.53,0,0.785-0.055a1.106,1.106,0,0,1,1.077.176,2.386,2.386,0,0,1,.757-0.266,2.456,2.456,0,0,0,1.073.013,3.046,3.046,0,0,1,.689-0.107c0.126,0.07.274,0.161,0.429,0.238,0.175,0.088.356,0.165,0.536,0.243a7.283,7.283,0,0,0,.934.393,0.733,0.733,0,0,0,.917-0.269,0.148,0.148,0,0,1,.115-0.061c0.37,0.055.446-.2,0.516-0.472a5.845,5.845,0,0,0,.257-0.988,0.532,0.532,0,0,1,.8-0.554,0.84,0.84,0,0,0-.065-0.387,0.354,0.354,0,0,1-.144-0.493,3.724,3.724,0,0,1,.265-0.623c0.165,0.06.342,0.129,0.523,0.188,0.321,0.1.639,0.224,0.967,0.3,0.253,0.057.314-.046,0.228-0.294a1.345,1.345,0,0,1-.011-0.193,1.5,1.5,0,0,0-.59-0.986,1.121,1.121,0,0,1-.143-0.91,1.531,1.531,0,0,0,.293-0.7,0.859,0.859,0,0,1,.314-0.838c0.241-.182.506-0.332,0.76-0.5l0.073,0.051a0.388,0.388,0,0,0,.182.587l0.409-.429a2.78,2.78,0,0,1-.3-0.132,4.33,4.33,0,0,1-.5-0.328,0.688,0.688,0,0,1-.119-0.246c0.09-.033.178-0.069,0.269-0.1a0.627,0.627,0,0,0,.212-0.059,1.007,1.007,0,0,0,.22-1.222l0.277-.35,0.663,0.224c-0.033-.238-0.054-0.4-0.084-0.618l0.453,0.037c0.219,0.019.376-.133,0.282-0.292-0.23-.387-0.031-0.6.269-0.824a0.683,0.683,0,0,0-.241-0.24,0.79,0.79,0,0,1-.554-0.378,0.416,0.416,0,0,1-.086-0.514,0.414,0.414,0,0,0,.022-0.331,0.52,0.52,0,0,1-.015-0.643,1,1,0,0,0,.84-0.163l-0.6-.476c0.134-.148.268-0.282,0.386-0.43a2.041,2.041,0,0,0,.341-0.5,1.489,1.489,0,0,1,1.735-1.1,0.728,0.728,0,0,0,.441-0.145c0.277-.2.529-0.437,0.844-0.7-0.034-.178.138-0.272,0.362-0.385,0.387-.2.819-0.227,1.214-0.388a4.246,4.246,0,0,1,.5-0.042,1.127,1.127,0,0,0,.519-0.24c0.157-.164.2-0.437,0.359-0.6a0.7,0.7,0,0,0,.183-0.7c-0.284-.162-0.568-0.312-0.839-0.485a0.248,0.248,0,0,1-.051-0.221,0.378,0.378,0,0,1,.28-0.113,2.443,2.443,0,0,1,1.178.5,0.851,0.851,0,0,0,.542.231c0.275,0.017.258,0.138,0.26,0.35a0.85,0.85,0,0,0,.182.573,1.246,1.246,0,0,0,1.11.507,0.481,0.481,0,0,1,.48.218,1.15,1.15,0,0,0,.611.272,1.472,1.472,0,0,0,.568-0.067c0.494-.117,1.1.168,1.468-0.431a0.989,0.989,0,0,1,.487-0.141,0.231,0.231,0,0,1,.185-0.381c0.5-.083.993-0.153,1.491-0.216a1.055,1.055,0,0,1,.536,0,2.9,2.9,0,0,0,1.557.121,0.646,0.646,0,0,1,.855-0.366,0.961,0.961,0,0,0,.882.1,0.645,0.645,0,0,0,.174-0.048l0.125,0.4a4.462,4.462,0,0,0,.518-0.348,1.436,1.436,0,0,1,.644-0.165c0.337-.116.654-0.289,0.992-0.4a1.8,1.8,0,0,1,.521-0.009,0.48,0.48,0,0,1-.028.16,0.528,0.528,0,0,0,.03.758,0.79,0.79,0,0,1,.062.576c-0.057.235-.065,0.4,0.188,0.472-0.013.124-.025,0.23-0.039,0.354l0.413-.022a0.916,0.916,0,0,1-.19.335,0.767,0.767,0,0,0-.511.666,4.608,4.608,0,0,1-.492,1.182,0.576,0.576,0,0,0-.066.263,0.5,0.5,0,0,1-.333.585,3.2,3.2,0,0,0-.389.213l0.051,0.138a0.849,0.849,0,0,0,.364-0.108,0.862,0.862,0,0,1,1.379.033,0.46,0.46,0,0,0,.305.2,0.416,0.416,0,0,1,.6.327c0.022-.135.033-0.209,0.051-0.322a1.065,1.065,0,0,0,.273.242,0.419,0.419,0,0,1,.346.492,0.277,0.277,0,0,0,.17.214,0.306,0.306,0,0,0,.221-0.156c0.156-.276.292-0.563,0.435-0.845a1.219,1.219,0,0,1,1.24-.7c0.026-.149.053-0.3,0.069-0.387a1.378,1.378,0,0,1,1.262.163,9.984,9.984,0,0,0,1.775.8,2.492,2.492,0,0,0,1.072-.166l0.405,0.613a0.608,0.608,0,0,1,.223-0.077,1.1,1.1,0,0,0,.869-0.362,2.506,2.506,0,0,1,.605-0.361,0.189,0.189,0,0,1,.175.041,3.684,3.684,0,0,1,.258.389,1.554,1.554,0,0,1-.351.046,0.357,0.357,0,0,0-.432.453,0.657,0.657,0,0,1-.077.261,0.7,0.7,0,0,0-.113.352,0.511,0.511,0,0,0,.335.262c0.428,0.053.861,0.061,1.292,0.081,0.144,0.007.289,0,.463,0a0.6,0.6,0,0,1,.5-0.654,0.166,0.166,0,0,0,.083-0.1c0.195-.525.785-0.867,0.7-1.522a0.356,0.356,0,0,1,.067-0.189c0.111-.192.227-0.38,0.353-0.587l-0.838-.783,0.912-.951,0.068,0.066-0.433-.093,0.184-.308-0.4-.071a0.788,0.788,0,0,0,.3-1.1,0.568,0.568,0,0,0-.181-0.131,2.432,2.432,0,0,1-.587-0.532,0.844,0.844,0,0,1,.5-0.709,3.324,3.324,0,0,0,.484-0.309c-0.153-.213.074-0.307,0.141-0.451h0.068c0.269,0.323.536,0.648,0.807,0.969a0.457,0.457,0,0,0,.193.171c0.218,0.047.445,0.049,0.664,0.094a1.572,1.572,0,0,1,.7.206,1.413,1.413,0,0,0,1.046.306,4.054,4.054,0,0,0,2.238,1.978c0.02-.1.038-0.189,0.042-0.2a2.5,2.5,0,0,0,.534-0.264c0.159-.135.21-0.1,0.343,0.041a1.1,1.1,0,0,0,.812.54,4.974,4.974,0,0,1,1.221.56,1,1,0,0,0,.852.5c0.171,0.023.237,0.062,0.21,0.251-0.039.272-.041,0.55-0.059,0.834a3.986,3.986,0,0,0,.714-0.008c0.272-.054.53-0.178,0.531,0.274a0.294,0.294,0,0,0,.127.175c0.127,0.1.265,0.182,0.366,0.25,0.25,0.032.479,0.059,0.707,0.089,0.246,0.032.492,0.072,0.739,0.1a0.6,0.6,0,0,1,.559.292,0.649,0.649,0,0,0,.369.274,0.32,0.32,0,0,1,.3.428,1.107,1.107,0,0,0,.066.221,0.722,0.722,0,0,1-.017.332c-0.07.163-.213,0.3-0.267,0.465a0.976,0.976,0,0,0-.067.578,1,1,0,0,0,1.291.568,1.591,1.591,0,0,0,.024-0.3c-0.038-.4.066-0.517,0.465-0.5a0.426,0.426,0,0,0,.478-0.427,1.72,1.72,0,0,1,.051-0.243,3.81,3.81,0,0,0,.785.159c0.359,0,.468.245,0.346,0.445-0.239.389,0.276,0.688,0.048,1.038,0.3,0.156.124,0.754,0.649,0.7,0.288,0.373.863,0.1,1.139,0.5,0.006,0.009.06-.026,0.09-0.023,0.294,0.029.586,0.061,0.848,0.089a1.061,1.061,0,0,0,.189.435,0.647,0.647,0,0,1,.224.743c-0.029.154-.072,0.305-0.107,0.45,0.323,0.226.395,0.452,0.2,0.586-0.287.193-.575,0.383-0.868,0.565a0.313,0.313,0,0,1-.21.035,2.142,2.142,0,0,1-.538-0.149,0.941,0.941,0,0,1-.774-0.36,0.34,0.34,0,0,0-.07.232,0.528,0.528,0,0,0,.318.141,0.467,0.467,0,0,1,.552.323h-1.233a4.287,4.287,0,0,0-2.447.777c-0.338.239-.676,0.479-1.021,0.708a8.684,8.684,0,0,0-2.33,2.445c-0.129.19-.185,0.431-0.318,0.618a2.191,2.191,0,0,0-.029,2.2,8.818,8.818,0,0,1,1.226,2.4,2.7,2.7,0,0,0,.306.513,1.115,1.115,0,0,1,.277.431,4.089,4.089,0,0,1-.2.828,2.05,2.05,0,0,0-1.9.287,1.169,1.169,0,0,0-.162.357l0.09,0.034a0.683,0.683,0,0,1,.68-0.473c0.5,0.069,1.018.028,1.528,0.051a0.4,0.4,0,0,1,.3.129,2.294,2.294,0,0,1,.029.647,0.642,0.642,0,0,1-.283.055c-0.276.008-.553,0-0.83,0L420,224.491l1.494,0.178c-0.144.1-.249,0.179-0.359,0.251-0.842.554-1.687,1.105-2.528,1.661a1.188,1.188,0,0,0-.67.722,0.528,0.528,0,0,1-.152.174,1.221,1.221,0,0,0-.468,1.149,1.082,1.082,0,0,1,0,.261c0.02-.027.039-0.054,0.058-0.082l0.962,0.611-0.006,0c-0.106.127-.2,0.263-0.32,0.381-0.323.325-.784,0.451-1.1,0.824a2.175,2.175,0,0,1-.893.512,3.971,3.971,0,0,0-2.081,1.652,9.546,9.546,0,0,1-.67.842,3.5,3.5,0,0,0-.3.451c-0.118.212-.2,0.443-0.327,0.651a0.552,0.552,0,0,1-.643.181,0.66,0.66,0,0,1-.3-0.287c-0.078-.106-0.107-0.249-0.187-0.354a0.235,0.235,0,0,0-.215-0.069,0.243,0.243,0,0,0-.085.216,1.126,1.126,0,0,0,.469.656,0.882,0.882,0,0,1,.244.2c-0.374.165-.718,0.332-1.073,0.47a16.542,16.542,0,0,1-2.066.751,46.6,46.6,0,0,0-6.588,1.866,2.2,2.2,0,0,1-.229.061c-0.415.116-.841,0.2-1.243,0.356-0.421.158-.815,0.386-1.23,0.563a5.429,5.429,0,0,1-.637.187l-0.049-.111a1.065,1.065,0,0,1,.208-0.191c0.5-.26,1.005-0.5,1.5-0.768a7.4,7.4,0,0,0,.676-0.482c-0.729-.256-0.5-0.75-0.459-1.175l-0.346-.063,0.066-.058a1.938,1.938,0,0,0-.346-0.533,1.021,1.021,0,0,0-.52-0.077,1.289,1.289,0,0,0-1.157.319,1.461,1.461,0,0,1-.905.66,0.225,0.225,0,0,0-.085.159,0.4,0.4,0,0,1-.476.351,1.1,1.1,0,0,0-1.007.7,0.686,0.686,0,0,0-.632.5,0.8,0.8,0,0,0,.113.388c-0.585.319-.613,0.381-0.308,0.745l-0.881.472,0.624,0.461a1.007,1.007,0,0,0-.892.544,0.708,0.708,0,0,0-.008.364h0.1l0.162-.24,0.1,0c0.019,0.235.039,0.469,0.062,0.737,0.335-.291.524-0.779,1.154-0.524l-0.26-.517,0.517-.217-0.559-.358a1.063,1.063,0,0,0,.85-0.459,0.457,0.457,0,0,1,.178-0.081l-0.01-.011a1.28,1.28,0,0,0,.363.27c0.224,0.062.446,0.075,0.25,0.452l0.919-.484,0.246-.172,0.814-.3-0.024-.067-0.3.056c0.136-.2.136-0.2,0.519-0.007a2.1,2.1,0,0,1-.213.118,19.229,19.229,0,0,0-3.168,1.836,7.3,7.3,0,0,0-1.683,1.47,1.49,1.49,0,0,1-.363.3,13.923,13.923,0,0,0-1.575,1,9.9,9.9,0,0,0-2.451,2.663,0.492,0.492,0,0,1-.249.187,1.852,1.852,0,0,1-.54.138,0.9,0.9,0,0,1-.489-0.113,0.693,0.693,0,0,1,0-.375,1.185,1.185,0,0,1,.056-0.207l-0.5-.094a1.064,1.064,0,0,1-.282.441,3.819,3.819,0,0,1-.823.078,0.5,0.5,0,0,0,.106.25c0.181,0.113.2,0.579,0.586,0.29a0.8,0.8,0,0,1,.238.156,0.467,0.467,0,0,1-.159.185,0.621,0.621,0,0,0-.743.513,0.18,0.18,0,0,1-.154.074,0.279,0.279,0,0,1-.134-0.177,3.443,3.443,0,0,1,.019-0.479,5.02,5.02,0,0,0-.979.388,3.786,3.786,0,0,0-.646.723l-0.7-.39,0.34,0.63c-0.193.187-.457,0.368-0.187,0.7a0.425,0.425,0,0,1-.108.2,0.387,0.387,0,0,1-.12.074,0.782,0.782,0,0,1-.27.144,0.865,0.865,0,0,1-.308-0.094l-0.018.043,0.291,0.216c-0.011.022-.022,0.044-0.032,0.066l-0.45-.1c0,0.016-.009.031-0.014,0.046l0.263,0.16c-0.17.376-.325,0.083-0.524-0.037a0.865,0.865,0,0,0,.03.391,0.5,0.5,0,0,1-.159.707c-0.246.3-.74-0.1-1.042,0.246a0.529,0.529,0,0,1-.247-0.069c-0.029-.01-0.047-0.053-0.076-0.064a0.351,0.351,0,0,0-.164-0.034,10.169,10.169,0,0,0-1.029.22,4.142,4.142,0,0,1-.668.3,0.467,0.467,0,0,1-.566-0.187,0.967,0.967,0,0,0-1.121-.554,1.157,1.157,0,0,1-.608.022,2.048,2.048,0,0,1-.684-0.387,2.162,2.162,0,0,1-.617-0.683c-0.215-.474-0.321-1-0.5-1.488a3.553,3.553,0,0,0-.3-0.3c-0.166-.288-0.263-0.04-0.387.028-0.049.027-.108,0.038-0.156,0.066a0.262,0.262,0,0,0-.136.414c0.087,0.128.195,0.242,0.278,0.373s0.163,0.295.243,0.444l-0.128.106a2.932,2.932,0,0,1-.432-0.462c-0.17-.285-0.291-0.6-0.452-0.94l0.172-.153a1.4,1.4,0,0,1-.4-0.237,13.6,13.6,0,0,1-.963-1.764,1.266,1.266,0,0,0-.379.339,1.1,1.1,0,0,0-.015.46,1.3,1.3,0,0,0-.235.384c-0.04.244-.163,0.224-0.3,0.181-0.03-.128-0.055-0.232-0.1-0.416-0.134.43-.24,0.768-0.366,1.174l-0.514-.255,0.048-.1h0.261c-0.043-.188-0.08-0.347-0.117-0.507l-0.07.062a3.2,3.2,0,0,0-.294-0.157,0.313,0.313,0,0,0-.221-0.037,0.231,0.231,0,0,0-.075.21c0.042,0.135.143,0.252,0.185,0.388a2.1,2.1,0,0,1,.04.407l-0.412-.033a3.28,3.28,0,0,1,.19.515,0.463,0.463,0,0,1-.1.265,0.181,0.181,0,0,1-.151-0.024,1.7,1.7,0,0,1-.419-0.48,0.311,0.311,0,0,0-.387-0.213,0.323,0.323,0,0,1-.431-0.122,0.377,0.377,0,0,0-.295.029,3.346,3.346,0,0,0-.423.333c-0.094.22,0.616,0.356,0.161,0.758l0.3,0.208c0.053-.232.094-0.413,0.156-0.681,0.162,0.229.282,0.4,0.4,0.57l-0.038.033-0.4-.246c0.038,0.369.139,0.563,0.464,0.521-0.146.417,0.249,0.4,0.434,0.562a0.5,0.5,0,0,0-.159.187c-0.023.348-.194,0.38-0.475,0.269a0.281,0.281,0,0,0-.165.161,0.469,0.469,0,0,0,.089.21,2.871,2.871,0,0,1-.549.081,0.625,0.625,0,0,0-.8.572l-0.605-.1c-0.058.188-.105,0.343-0.139,0.456-0.388-.2-0.73-0.4-1.09-0.547a0.478,0.478,0,0,0-.315.185,2.194,2.194,0,0,0-.151.3c-0.2.294-.427,0.57-0.612,0.873a0.82,0.82,0,0,1-.58.457,0.471,0.471,0,0,0-.158.107l0.083,0.017v0.727l0.584-.129c-0.068.1-.078,0.12-0.094,0.136-0.106.114-.432,0.069-0.261,0.385,0.128,0.237.265,0.385,0.553,0.225a0.889,0.889,0,0,1,.331.021c-0.39.506-.733,0.948-1.06,1.371l0.336,0.327,0.243-.114a0.771,0.771,0,0,0-.019.374c0.106,0.149.1,0.27-.041,0.336a0.993,0.993,0,0,1-.4.036,0.959,0.959,0,0,0-.291-0.022,3.3,3.3,0,0,1-.577.277,2.612,2.612,0,0,1-.882-0.014,0.627,0.627,0,0,1-.222-0.381,1.314,1.314,0,0,1-.029-0.352,1.537,1.537,0,0,1-.454-0.03,3.633,3.633,0,0,1-.512-0.315,0.308,0.308,0,0,0-.467.1,0.4,0.4,0,0,0-.09.3,0.673,0.673,0,0,1-.1.869,3.574,3.574,0,0,1-1.219.693,0.632,0.632,0,0,0-.556.637c0,0.159-.156.281-0.275,0.134-0.2-.248-0.691-0.351-0.484-0.839a0.072,0.072,0,0,0,0-.065c-0.332-.3.065-0.268,0.112-0.3,0.059-.2.1-0.321,0.136-0.457a1.035,1.035,0,0,0-1.066-.579l0.268-.744c-0.293-.014-0.547.026-0.361-0.366a0.737,0.737,0,0,0-.087-0.5,2.719,2.719,0,0,0-.3-0.077,3.239,3.239,0,0,1-.375-0.411l-1.7,1.938a0.611,0.611,0,0,1,.151.189c0.05,0.209.294,0.407,0.071,0.64-0.176.184-.367,0.354-0.553,0.532,0.129,0.227.264,0.127,0.422,0.035a0.312,0.312,0,0,1,.276,0,0.325,0.325,0,0,1,.015.263,0.444,0.444,0,0,1-.465.363,0.335,0.335,0,0,0-.251.153,1.9,1.9,0,0,1-.386.969,0.406,0.406,0,0,0,.1.281,0.957,0.957,0,0,0,.337.143,0.4,0.4,0,0,1,.309.518l-0.4-.186a1.406,1.406,0,0,0,.017.653,0.56,0.56,0,0,1,0,.66l-0.41.084-0.218-.275c-0.234.122-.55,0.2-0.319,0.619a0.366,0.366,0,0,1,0,.326,0.586,0.586,0,0,1-.323.19c-0.322-.342-0.967-0.227-1.128-0.8a0.289,0.289,0,0,0-.2-0.069,0.744,0.744,0,0,1-.4-0.107,1.083,1.083,0,0,0-.735-0.173,4.729,4.729,0,0,0-1.072.475,6.646,6.646,0,0,1-.6.408c-0.541.21-1.106,0.359-1.65,0.563a2.6,2.6,0,0,0-.615.371c-0.322.24-.616,0.523-0.95,0.743-0.183.121-.427,0.157-0.441-0.2a0.856,0.856,0,0,1-.248.131,0.426,0.426,0,0,0-.487.473,0.268,0.268,0,0,1-.119.145c-0.113.091-.233,0.174-0.383,0.284a0.822,0.822,0,0,0-.207-0.128,0.772,0.772,0,0,0-.415-0.076c-0.394.12-.775,0.282-1.186,0.437-0.07-.191-0.117-0.321-0.156-0.429l-0.657.166C341.527,266.053,341.2,265.767,341,265.86Z" transform="translate(-341 -198)"/>
  <path id="Odisha_" data-name="Odisha " class="cls-2" d="M367.491,231.223a3.972,3.972,0,0,0,1.528-1.69,5.584,5.584,0,0,0,.527-2.474,5.655,5.655,0,0,0-.48-2.468,3.3,3.3,0,0,0-1.406-1.5,4.631,4.631,0,0,0-2.251-.507,4.517,4.517,0,0,0-2.394.609,4.065,4.065,0,0,0-1.541,1.683,5.458,5.458,0,0,0-.541,2.481,4.689,4.689,0,0,0,1.075,3.34,4.017,4.017,0,0,0,3.063,1.135A4.57,4.57,0,0,0,367.491,231.223Zm-3.394-.872a2.139,2.139,0,0,1-.723-1.176,8.112,8.112,0,0,1-.237-2.184,8.518,8.518,0,0,1,.122-1.568,2.72,2.72,0,0,1,.372-1.008,1.428,1.428,0,0,1,.635-0.534,2.308,2.308,0,0,1,.9-0.162,2.24,2.24,0,0,1,.967.2,1.591,1.591,0,0,1,.676.629,3.347,3.347,0,0,1,.392,1.142,9.839,9.839,0,0,1,.128,1.724,7.32,7.32,0,0,1-.209,1.974,1.783,1.783,0,0,1-.656,1.021,1.971,1.971,0,0,1-1.136.3A2.021,2.021,0,0,1,364.1,230.351Zm11.093,1.284a2.358,2.358,0,0,0,.609-0.284,2.788,2.788,0,0,0,.4-0.317h0.027l0.311,0.662,2.379-.311V230.6l-1.1-.216v-8.058l-0.5-.19-2.38.217v0.784l1.1,0.311v1.473l0.122,0.122-0.054.041a2.23,2.23,0,0,0-.521-0.257,2.39,2.39,0,0,0-.818-0.122,2.8,2.8,0,0,0-1.115.23,2.715,2.715,0,0,0-.96.71,3.425,3.425,0,0,0-.669,1.21,5.547,5.547,0,0,0-.244,1.744,4.348,4.348,0,0,0,.318,1.785,2.185,2.185,0,0,0,.893,1.034,2.643,2.643,0,0,0,1.345.331A2.815,2.815,0,0,0,375.19,231.635Zm-0.919-1.271a1.174,1.174,0,0,1-.433-0.669,4.848,4.848,0,0,1-.142-1.325,6.031,6.031,0,0,1,.149-1.5,1.531,1.531,0,0,1,.439-0.8,1.086,1.086,0,0,1,.724-0.244,3.2,3.2,0,0,1,.574.048,4.532,4.532,0,0,1,.453.1v4.313a2.952,2.952,0,0,1-.432.183,1.859,1.859,0,0,1-.6.087A1.288,1.288,0,0,1,374.271,230.364Zm6.388,1.224h3.8v-0.744l-0.946-.189v-5.719l-0.5-.189-2.353.311v0.784l1.068,0.216v4.6l-1.068.189v0.744Zm2.576-7.943a1.215,1.215,0,0,0,.318-0.832,1,1,0,0,0-.305-0.777,1.07,1.07,0,0,0-.75-0.277,1.1,1.1,0,0,0-.811.344,1.127,1.127,0,0,0-.338.818,1.067,1.067,0,0,0,.3.778,1,1,0,0,0,.744.3A1.074,1.074,0,0,0,383.235,223.645Zm3.332,7.686a3.507,3.507,0,0,0,.5.176,7.161,7.161,0,0,0,.852.189,5.993,5.993,0,0,0,.987.081,4.136,4.136,0,0,0,1.264-.2,2.125,2.125,0,0,0,1.014-.676,1.984,1.984,0,0,0,.4-1.3,2.068,2.068,0,0,0-.257-1.1,1.876,1.876,0,0,0-.656-0.643,4.094,4.094,0,0,0-.845-0.365c-0.3-.09-0.579-0.171-0.845-0.243a2.263,2.263,0,0,1-.656-0.277,0.555,0.555,0,0,1-.257-0.494,0.663,0.663,0,0,1,.217-0.493,1.306,1.306,0,0,1,.878-0.21,1.985,1.985,0,0,1,.467.048,2.947,2.947,0,0,1,.426.142l0.284,0.959h0.851l0.109-1.946a4.072,4.072,0,0,0-.447-0.1c-0.216-.04-0.466-0.079-0.75-0.115a6.816,6.816,0,0,0-.858-0.054,4.112,4.112,0,0,0-1.44.23,2.168,2.168,0,0,0-1.048,3.015,1.708,1.708,0,0,0,.656.615,3.624,3.624,0,0,0,.845.318l0.845,0.2a1.958,1.958,0,0,1,.655.27,0.6,0.6,0,0,1,.257.527,0.923,0.923,0,0,1-.223.7,1.4,1.4,0,0,1-.913.209,1.5,1.5,0,0,1-.682-0.128,2.749,2.749,0,0,1-.359-0.21l-0.324-1.081h-0.852Zm10.735,0.257v-0.744l-0.946-.189V226a4.162,4.162,0,0,1,.5-0.095,4.035,4.035,0,0,1,.541-0.04,1.064,1.064,0,0,1,.886.264,1.429,1.429,0,0,1,.182.8v3.718l-0.946.189v0.744h3.731v-0.744l-1-.189v-4.029a2.309,2.309,0,0,0-.23-1.109,1.4,1.4,0,0,0-.662-0.615,2.487,2.487,0,0,0-1.028-.2,2.864,2.864,0,0,0-.859.129,4.332,4.332,0,0,0-.723.29,4.745,4.745,0,0,0-.487.284l-0.013-.054,0.108-.108v-2.92l-0.5-.19-2.38.311v0.784l1.1,0.217v7.206l-1.068.189v0.744h3.8Zm8.694,0.02a2.734,2.734,0,0,0,.6-0.311,2.865,2.865,0,0,0,.331-0.263h0.121a1.07,1.07,0,0,0,.311.466,1.261,1.261,0,0,0,.771.169,3.5,3.5,0,0,0,.717-0.074,7.529,7.529,0,0,0,.8-0.223v-0.69l-0.987-.189v-3.948a1.6,1.6,0,0,0-.6-1.44,3.145,3.145,0,0,0-1.738-.4,4.73,4.73,0,0,0-.926.1,3.94,3.94,0,0,0-.953.317,2.317,2.317,0,0,0-.737.548,1.157,1.157,0,0,0-.29.791,0.714,0.714,0,0,0,.243.628,1.2,1.2,0,0,0,.689.169,2.509,2.509,0,0,0,.717-0.135l0.189-1.23a2.58,2.58,0,0,1,.622-0.068,0.935,0.935,0,0,1,.818.277,1.348,1.348,0,0,1,.183.751v0.892l-1.447.244a4.027,4.027,0,0,0-1.122.338,2.194,2.194,0,0,0-.825.649,1.618,1.618,0,0,0-.311,1.014,1.869,1.869,0,0,0,.2.858,1.571,1.571,0,0,0,.635.649,2.255,2.255,0,0,0,1.136.25h0A2.333,2.333,0,0,0,406,231.608Zm-0.7-1.244a0.81,0.81,0,0,1-.223-0.6,1.029,1.029,0,0,1,.114-0.487,0.939,0.939,0,0,1,.5-0.372,4.38,4.38,0,0,1,1.183-.223v1.677c-0.09.045-.2,0.094-0.345,0.148a1.248,1.248,0,0,1-.453.081A1.078,1.078,0,0,1,405.3,230.364Z" transform="translate(-341 -198)"/>
</svg>
