<svg id="Odisha_Pragati_Da" data-name="Odisha Pragati Da" xmlns="http://www.w3.org/2000/svg" width="162.438" height="162.438" viewBox="0 0 162.438 162.438">
  <defs>
    <style>
      .cls-1 {
        fill: #fff;
        stroke: #acacac;
        stroke-width: 2px;
      }

      .cls-2 {
        fill-rule: evenodd;
      }
    </style>
  </defs>
  <circle id="Ellipse_1_copy" data-name="Ellipse 1 copy" class="cls-1" cx="81.219" cy="81.219" r="80.219"/>
  <path class="cls-2" d="M66.032,121.945a12.5,12.5,0,0,1,1.549.01c1.807,0.226,3.6.594,5.416,0.694a3.365,3.365,0,0,0,2.248-.752c4.27-3.951,8.471-7.978,12.66-12.015a4.232,4.232,0,0,0,.625-1.355,6.827,6.827,0,0,0-1.346-.337c-1.734-.081-3.471-0.086-5.206-0.16a12.817,12.817,0,0,1-1.6-.265c0.006-.123.011-0.245,0.017-0.367,0.545-.044,1.09-0.131,1.635-0.126,7.791,0.072,15.584.073,23.371,0.271,4.125,0.1,8.241.559,12.36,0.853,0.489,0.035.978,0.072,1.467,0.08,2.809,0.045,3.023-.076,3.953-2.684a3.9,3.9,0,0,0-.07-1.436,4.4,4.4,0,0,0-1.377.494c-1.687,1.388-3.381,1.242-4.4-.453-0.765-1.279-.546-4.05.617-4.937a3.2,3.2,0,0,1,2.405-.568,3.833,3.833,0,0,1,1.776,1.667c0.57,0.853.873,1.88,1.4,2.77,0.656,1.116,1.408.857,2.091-.02q2.7-3.465,5.39-6.939c2.281-2.948,4.548-5.906,6.846-8.841a5.991,5.991,0,0,1,1.051-.855l0.332,0.227a4.445,4.445,0,0,1-.449,1.207c-3.121,4.089-6.271,8.156-9.408,12.233a7.767,7.767,0,0,0-1.133,1.623,2.223,2.223,0,0,0,.152,1.324c0.17,0.555.535,1.059,0.655,1.619,0.221,1.033.214,2.125,0.525,3.124a1.914,1.914,0,0,0,1.242,1.135c3.467,0.535,6.954.938,10.43,1.414,1.084,0.149,2.154.4,3.23,0.6-0.009.164-.018,0.328-0.026,0.492a3.3,3.3,0,0,1-1.017.158c-1.57-.267-3.118-0.7-4.7-0.868-2.688-.285-5.391-0.476-8.091-0.549a1.861,1.861,0,0,0-1.262,1.25,54.253,54.253,0,0,0-.876,7.355c-0.053,1.9.485,2.242,2.391,2.065,1.8-.168,3.586-0.512,5.383-0.743a12.69,12.69,0,0,1,1.585-.01l0.051,0.379c-0.9.222-1.787,0.513-2.7,0.656-3.372.529-6.74,1.11-10.131,1.482-3.929.432-7.877,0.7-11.822,0.967a3.158,3.158,0,0,0-2.943,1.7c-0.311.634-.236,1.155,0.689,1.076,4.077-.349,8.159-0.64,12.229-1.058,3.129-.322,6.257-0.714,9.359-1.232q6.167-1.03,12.288-2.324c2.814-.593,5.585-1.393,8.376-2.1a1.373,1.373,0,0,1,.521-0.1c0.572,0.1,1.434.086,1.625,0.426a1.9,1.9,0,0,1-.3,1.672c-1.2,1.533-2.5,3-3.825,4.429-2.68,2.9-5.413,5.744-8.1,8.634a3.942,3.942,0,0,1-3.3,1.02c-3.51-.051-7.037-0.234-10.526.038-3.164.247-6.287,1.018-9.425,1.572a9.3,9.3,0,0,1-4.97-.076c-3.836-1.378-7.857-1.365-11.861-1.173a3.043,3.043,0,0,0-1.91,1.036c-1.318,1.554-2.519,3.211-3.7,4.876A5.539,5.539,0,0,0,97,143.791a7.113,7.113,0,0,0,1.511.3c2.712-.055,5.422-0.152,8.132-0.265a1.26,1.26,0,0,0,.926-0.348c0.556-1.1,1.524-1.125,2.518-1.079q3.919,0.184,7.836.432a4.673,4.673,0,0,1,1.123.369c-0.016.14-.031,0.281-0.047,0.422-0.385.029-.771,0.085-1.157,0.083-2.755-.017-5.51-0.077-8.264-0.039a3.729,3.729,0,0,0-1.236.684,3.4,3.4,0,0,1-1.234.518c-3.421.161-6.844,0.259-10.266,0.394a3.273,3.273,0,0,0-3.359,2.9A5.3,5.3,0,0,0,93.3,149.6c0.209,2.192-1.1,3.656-2.4,5.128a8.238,8.238,0,0,0-1.18,1.257c-1.01,1.839-2.59,2.111-4.5,1.986-2.113-.138-4.243-0.032-6.365-0.032l-0.2-.338c0.49-.618.953-1.261,1.476-1.851,1.883-2.121,3.852-4.17,5.658-6.352a6.661,6.661,0,0,1,4.572-2.387,4.514,4.514,0,0,0,2.6-1.33c1.983-2.266,3.806-4.675,5.629-7.074a4.668,4.668,0,0,0,.454-1.566,4.541,4.541,0,0,0-1.5-.2c-3.16.688-6.293,1.5-9.457,2.164-3.924.823-7.7,0.677-11.281-1.533a20.717,20.717,0,0,0-9.621-2.77,34.3,34.3,0,0,0-14.542,1.981,33.346,33.346,0,0,0-3.759,1.687c-2.058,1.076-3.007.773-4.294-1.16-2.037-3.06-4.214-6.027-6.3-9.058-1.357-1.974-2.7-3.96-3.94-6.009a6.07,6.07,0,0,1-.382-2.062A6.9,6.9,0,0,1,36,119.923c2.334,0.517,4.615,1.292,6.961,1.726,4.493,0.832,9,1.593,13.53,2.207,6.939,0.941,13.886,1.867,20.854,2.539,4.55,0.439,9.144.5,13.72,0.577,4.979,0.083,9.961-.011,14.941-0.031a1.867,1.867,0,0,0,1.041-.076,22.971,22.971,0,0,0,1.651-2.027,5.527,5.527,0,0,0-1.69-.606c-7.613-.051-15.229.066-22.839-0.1-4.126-.092-8.242-0.639-12.361-1-1.72-.15-3.438-0.334-5.154-0.527a2.266,2.266,0,0,1-.65-0.3ZM113.91,109a7.7,7.7,0,0,0-2.747.816A45.39,45.39,0,0,0,99.9,122.053c-0.743,1.173-.617,1.466.754,1.437,3.022-.063,6.043-0.165,9.06-0.337a2.113,2.113,0,0,0,1.256-.814q2.441-2.977,4.785-6.032c1.3-1.683,2.587-3.373,3.788-5.123,0.672-.981.424-1.456-0.728-1.621C117.317,109.348,115.813,109.213,113.91,109Zm-22.7,14.526c2.772,0.155,2.7.105,3.972-1.685,1.788-2.518,3.566-5.063,5.593-7.386a48.25,48.25,0,0,1,4.686-4.067,6.565,6.565,0,0,0,.878-1.232,5.543,5.543,0,0,0-1.282-.425c-1.991-.156-3.991-0.195-5.978-0.388a4.03,4.03,0,0,0-3.952,1.628,34.833,34.833,0,0,1-2.593,2.828c-2.867,3.017-5.748,6.02-8.6,9.05a3.434,3.434,0,0,0-.453,1.02,4.821,4.821,0,0,0,1.078.321C86.776,123.321,88.994,123.416,91.211,123.524Zm26.019-.914c1.212,0.124,2.533.345,3.1-1.1,1.175-2.974,3.431-4.863,6.139-6.36a1.875,1.875,0,0,0,.484-3.031c-1.365-1.271-5.4-1.238-6.547.193-2.411,3-4.73,6.067-7.041,9.141a1.408,1.408,0,0,0-.2,1.262,1.8,1.8,0,0,0,1.313.285C115.4,122.935,116.314,122.748,117.23,122.61ZM58.995,30.333a5.476,5.476,0,0,1-.405,1.056,64.087,64.087,0,0,0-6.856,15.365c-0.8,2.519-1.087,5.2-1.735,7.769-1.058,4.2-.63,8.457-0.361,12.66,0.215,3.37,1.476,6.676,1.655,10.044,0.195,3.646,2.165,6.427,3.736,9.373,2.181,4.093,4.809,7.948,7.2,11.932a2.213,2.213,0,0,1,.374,1.68,2.045,2.045,0,0,1-1.575.547c-9.213-.1-18.425-0.25-27.638-0.376-0.978-.014-1.957.032-2.935,0.071-2.41.1-3.4-.63-3.712-2.988a56.669,56.669,0,0,1-.657-11.5A54.827,54.827,0,0,1,29.18,70.4c1.555-4.124,3.453-8.127,5.342-12.117A65.166,65.166,0,0,1,44.961,43.1c3.87-4.363,8.256-8.272,12.436-12.36A5.994,5.994,0,0,1,58.654,30ZM34.869,116.094a13.888,13.888,0,0,1,2.849-1.9c4-1.436,8.009-2.9,12.113-3.984,3.245-.859,6.635-1.17,9.958-1.742,1.586-.273,3.165-0.587,4.748-0.882l0.09-.483a10.925,10.925,0,0,0-2.315-.889,61.055,61.055,0,0,0-9.11-1.051c-7.171.067-13.755,2.037-19.148,7.053-0.195.181-.378,0.375-0.559,0.57-1.57,1.692-1.785,1.668-2.772-.4-1.066-2.239-2.095-4.5-3.165-6.731-0.451-.942-0.074-1.349.851-1.4,5.015-.3,10.031-0.579,15.046-0.884,6.26-.381,12.52-0.754,18.775-1.192,1.329-.093,2.157.3,2.495,1.6,0.3,1.14.594,2.28,0.947,3.637,1.217,0,2.661.025,4.1-.006,2.178-.047,4.355-0.164,6.533-0.177a3.6,3.6,0,0,1,1.248.518,3.85,3.85,0,0,1-1.012,1.033A20.708,20.708,0,0,0,64.583,121.1c-0.407,1.075-.869,1.4-2.085.821a43.141,43.141,0,0,0-15.056-4.21c-3.934-.316-7.864-0.673-11.8-1.019a2.345,2.345,0,0,1-.493-0.157ZM153.65,116.85c-3.136.739-6.275,1.463-9.405,2.225-1.207.293-2.386,0.7-3.595,0.99a2.807,2.807,0,0,1-1.059-.2,4.048,4.048,0,0,1,.47-0.878c1.249-1.373,2.565-2.688,3.776-4.094a12.61,12.61,0,0,0,1.411-2.233,1.987,1.987,0,0,1,2.164-1.173,23.209,23.209,0,0,1,8.766,2.933,0.322,0.322,0,0,1,.1.083q0.636,0.887,1.269,1.774a12.208,12.208,0,0,1-1.966.806,8.467,8.467,0,0,1-1.859.029Zm-14.38,38.594a5.32,5.32,0,0,1-.794.925,7.355,7.355,0,0,1-7.045,1.206,59.793,59.793,0,0,0-13.812-3.357A27.132,27.132,0,0,0,104.563,156a22.631,22.631,0,0,1-6.679,1.65,6.589,6.589,0,0,1-6.063-2.183,4.808,4.808,0,0,1,1.525.131c3.091,1.729,6.207,1.109,9.3.106,1.6-.52,3.114-1.336,4.728-1.8a22.849,22.849,0,0,1,10.151-.775c3.71,0.621,7.4,1.451,11.03,2.432,2.022,0.547,3.984,1.383,6.1,1.057a19.1,19.1,0,0,0,3.427-1.193c0.3-.109.6-0.23,0.9-0.345Zm-39.015-6.8a10.09,10.09,0,0,1,5.109-1.567c4.743-.362,9.225.74,13.685,2.266a16.652,16.652,0,0,0,12.378-.382,17.377,17.377,0,0,1,9.754-1.41c1.8,0.285,3.467,1.433,5.162,2.257a3.808,3.808,0,0,1,.78,1.241,4.052,4.052,0,0,1-1.149-.28c-4.464-3.434-9.211-2.892-14-.917a19.021,19.021,0,0,1-10.074,1.178c-2.655-.379-5.209-1.434-7.823-2.134-4.143-1.108-8.292-1.6-12.438.037a6.045,6.045,0,0,1-1.341.206C100.286,148.973,100.27,148.808,100.255,148.643Zm-20.963-.519a5.944,5.944,0,0,1-1.768.419,67.665,67.665,0,0,1-8.327-.879,19.393,19.393,0,0,0-10.61.422q-2.066.724-4.089,1.573a5.365,5.365,0,0,1-6.256-1.418,4.237,4.237,0,0,1,1.194.161,5.866,5.866,0,0,0,5.623-.006c3.118-1.522,6.39-2.589,9.9-2.211,3.349,0.36,6.664,1.023,10,1.485a16.15,16.15,0,0,0,2.71-.025c0.508-.016,1.014-0.079,1.521-0.121Zm-22.945-4.893c0.624-1.476,1.91-1.784,3.143-2.05,4.116-.889,8.055-0.136,12,1.165a41.89,41.89,0,0,0,6.384,1.1c0.712,0.116,1.423.236,2.135,0.354,0.006,0.14.013,0.281,0.019,0.422a3.013,3.013,0,0,1-.85.259,27.72,27.72,0,0,1-9-1.406c-4.186-1.449-8.492-1.823-12.751-.048A5.2,5.2,0,0,1,56.347,143.231Zm-28.239-.237a8.307,8.307,0,0,1,2.591-.862,22.394,22.394,0,0,1,6.051.607,15.685,15.685,0,0,0,10.892-.705,15.46,15.46,0,0,1,3.052-.594l0.12,0.312a1.151,1.151,0,0,1-.349.443c-1.687.518-3.407,0.937-5.071,1.516a13.536,13.536,0,0,1-9.017-.257c-2.5-.845-4.919-1.165-7.367.088a1.773,1.773,0,0,1-.722.013Zm126.558,2.757a3.116,3.116,0,0,1-1.135.388,47.738,47.738,0,0,1-6.684-.756,31.453,31.453,0,0,0-10.311-.5c-0.44.043-.887,0.006-1.331,0.006-0.03-.148-0.061-0.3-0.091-0.443a4.757,4.757,0,0,1,1.317-.532,31.177,31.177,0,0,1,11.711.842,25.166,25.166,0,0,0,5.237.5c0.4,0.032.8,0,1.2,0C154.609,145.431,154.637,145.591,154.666,145.751ZM77.9,156.072a6.546,6.546,0,0,1-2.057.851,21.455,21.455,0,0,1-4.465-.4c-3.124-.675-6.212-1.488-9.458-1.13a6.736,6.736,0,0,1-1.333-.114c-0.013-.14-0.027-0.28-0.041-0.419a5.83,5.83,0,0,1,1.119-.261c3.556-.132,7.091-0.128,10.477,1.249a6.072,6.072,0,0,0,4.791-.09,0.8,0.8,0,0,1,.385-0.031A3.141,3.141,0,0,1,77.9,156.072Zm67.04-18.048L158,138.745C156.745,140.132,146.865,139.8,144.941,138.024Z" transform="translate(-11.281 -15.281)"/>
</svg>
