<svg id="ODISHA" xmlns="http://www.w3.org/2000/svg" width="91.281" height="79" viewBox="0 0 91.281 79">
  <defs>
    <style>
      .cls-1 {
        fill: #11181c;
      }

      .cls-1, .cls-2 {
        fill-rule: evenodd;
      }

      .cls-2 {
        fill: #ec7b03;
      }
    </style>
  </defs>
  <path class="cls-1" d="M341,270.838V270.6c0.472-.243-0.1-0.739.232-1.064l0.544,0.321c0.041-.269.059-0.5,0.116-0.718a4.36,4.36,0,0,1,.234-0.616,1.61,1.61,0,0,0,.2-0.385c0.039-.363.025-0.734,0.055-1.1a0.877,0.877,0,0,1,.14-0.376,1.136,1.136,0,0,0,.3-1.052,1.293,1.293,0,0,1,.053-0.243c0-.173-0.026-0.345-0.046-0.517a1.346,1.346,0,0,1-.046-0.364,1.775,1.775,0,0,0,.254-0.981,0.152,0.152,0,0,1,.075-0.115,1.141,1.141,0,0,0,.876-0.666,0.228,0.228,0,0,1,.127-0.04,5.1,5.1,0,0,0,.618-0.172,0.752,0.752,0,0,0,.2-0.247,2.69,2.69,0,0,1,.949-0.143,0.316,0.316,0,0,0,.351-0.326,1.952,1.952,0,0,1,.72-1.32,1.712,1.712,0,0,0,.677-0.756,1.065,1.065,0,0,1,.729-0.729l0.1-.488,0.56,0.07c0.047-.188.086-0.347,0.125-0.5l-0.91-.679c0-.1.013-0.244,0.02-0.385l0.724,0.337a2.546,2.546,0,0,1,.428-0.969,1.577,1.577,0,0,1,1.591-.385c0.048-.273.087-0.494,0.13-0.734a0.909,0.909,0,0,0,.965-0.559,2.81,2.81,0,0,0,.1-1.014,0.938,0.938,0,0,1,.482-0.976,3.5,3.5,0,0,1,.625-0.2c-0.036-.273-0.067-0.572-0.117-0.865a4.187,4.187,0,0,0-.2-0.9c-0.141-.337-0.506-0.612-0.106-0.919-0.08-.228-0.135-0.388-0.211-0.6h-0.494a1.805,1.805,0,0,0,.148-0.406,1.162,1.162,0,0,0-.013-0.648,1.319,1.319,0,0,1-.244-0.954,12.34,12.34,0,0,1,.375-1.506,2.179,2.179,0,0,1-.379-0.229,0.991,0.991,0,0,1-.158-0.306c0.076-.025.151-0.053,0.228-0.074a0.435,0.435,0,0,0,.153-0.027,4.118,4.118,0,0,0,.16-0.816,0.641,0.641,0,0,0-.46-0.149,0.409,0.409,0,0,1-.594-0.4,3.828,3.828,0,0,1-.061-0.4c-0.019-.466-0.245-0.736-0.507-0.61a4.516,4.516,0,0,1-.551.186c-0.021-.029-0.043-0.057-0.065-0.085a1.193,1.193,0,0,0,.165-1.317,0.237,0.237,0,0,1,.033-0.183,1.672,1.672,0,0,0,.083-1.349,2.3,2.3,0,0,1,.127-1.2c0.071-.2.264-0.51-0.054-0.664a1.613,1.613,0,0,0-.672-0.136c-0.154,0-.309.112-0.4-0.132a1.572,1.572,0,0,1-.21-0.523,0.435,0.435,0,0,0-.343-0.489c-0.319-.143-0.643-0.275-0.952-0.443a1.123,1.123,0,0,1-.412-1.062c0.081-.341.161-0.684,0.26-1.019a0.689,0.689,0,0,1,.2-0.377,0.742,0.742,0,0,0,.585-0.533c0.371-.544.5-0.56,0.868,0,0.047,0.073.07,0.167,0.119,0.238a0.347,0.347,0,0,0,.17.169c0.243,0,.275.171,0.3,0.384a0.882,0.882,0,0,0,.105.238,2.752,2.752,0,0,0,.344-0.378c0.177-.29.32-0.3,0.531-0.026a1.089,1.089,0,0,0,.523.4,1.424,1.424,0,0,1,.814.421,0.414,0.414,0,0,0,.431.029c0.16-.1.278-0.295,0.47-0.1a1.815,1.815,0,0,1,.4.473c0.179,0.406.284,0.854,0.464,1.258a9.7,9.7,0,0,0,.562.956c0.2-.244.359-0.425,0.5-0.627a1.208,1.208,0,0,1,1.31-.767,0.209,0.209,0,0,0,.1-0.018,0.672,0.672,0,0,1,.72.366,0.619,0.619,0,0,0,.32.23,7.983,7.983,0,0,0,.807.112,0.6,0.6,0,0,1,0,.135,0.348,0.348,0,0,1-.064.137,1.072,1.072,0,0,0-.2,1.2,0.246,0.246,0,0,0,.174.149,1.17,1.17,0,0,0,.5-0.359,0.747,0.747,0,0,1,.823-0.5,0.668,0.668,0,0,0,.455-0.743,1.276,1.276,0,0,1-.088-1.041c0.01-.234.05-0.468,0.047-0.7a0.4,0.4,0,0,0-.117-0.284,1.394,1.394,0,0,0-1.278.025,0.364,0.364,0,0,1-.384-0.012,1.407,1.407,0,0,0-1.053-.371,0.874,0.874,0,0,1-.328-0.1,10.223,10.223,0,0,0-1.15-.452,0.356,0.356,0,0,1-.288-0.458,3.806,3.806,0,0,0-.067-0.894,0.758,0.758,0,0,1,.157-0.782,1.023,1.023,0,0,0,.19-0.668,0.933,0.933,0,0,1,.211-1.058,0.261,0.261,0,0,0,.015-0.211c-0.091-.185-0.206-0.355-0.307-0.534a0.6,0.6,0,0,1-.137-0.29,4.928,4.928,0,0,1,.262-1.039,1,1,0,0,0-.064-1.11l-0.277.337c-0.048-.314-0.077-0.557-0.125-0.794a0.5,0.5,0,0,0-.124-0.253c-0.235-.223-0.482-0.429-0.733-0.648,0.237-.439.442-0.808,0.634-1.185a1.331,1.331,0,0,0-.018-0.223,3.006,3.006,0,0,0-.282-1.008c-0.084-.756-0.126-1.52-0.147-2.282a3.535,3.535,0,0,1,.138-0.768,0.945,0.945,0,0,0,.4.232c0.3-.065.42,0.083,0.482,0.385a0.685,0.685,0,0,0,.732.318,1.329,1.329,0,0,0,.4-0.925,0.482,0.482,0,0,1,.323-0.586,1.489,1.489,0,0,0,.884-0.857,1.1,1.1,0,0,1,.281-0.393,0.974,0.974,0,0,0,.318-1.285,0.844,0.844,0,0,0,.385-1.166,0.319,0.319,0,0,1,.2-0.21c0.263-.04.536,0,0.794-0.064a1,1,0,0,1,1.09.205,2.222,2.222,0,0,1,.765-0.309,2.177,2.177,0,0,0,1.085.015,2.7,2.7,0,0,1,.7-0.125c0.127,0.082.277,0.188,0.433,0.278,0.178,0.1.361,0.191,0.543,0.282a6.945,6.945,0,0,0,.945.456,0.69,0.69,0,0,0,.927-0.313,0.144,0.144,0,0,1,.116-0.07c0.374,0.064.451-.229,0.522-0.548a7.578,7.578,0,0,0,.26-1.149c0.035-.59.256-0.834,0.81-0.643a1.074,1.074,0,0,0-.066-0.45,0.445,0.445,0,0,1-.146-0.572,4.9,4.9,0,0,1,.268-0.725c0.168,0.07.347,0.151,0.53,0.219a9.806,9.806,0,0,0,.978.346c0.256,0.067.318-.053,0.23-0.341-0.02-.068,0-0.151-0.011-0.224a1.8,1.8,0,0,0-.6-1.146,1.461,1.461,0,0,1-.144-1.057,1.956,1.956,0,0,0,.3-0.815,1.079,1.079,0,0,1,.319-0.973c0.243-.212.511-0.386,0.768-0.577l0.074,0.059a0.478,0.478,0,0,0,.184.682l0.414-.5a2.634,2.634,0,0,1-.3-0.154,4.241,4.241,0,0,1-.508-0.382,0.856,0.856,0,0,1-.12-0.285c0.091-.039.18-0.081,0.272-0.115a0.54,0.54,0,0,0,.214-0.069,1.3,1.3,0,0,0,.223-1.419l0.28-.407,0.67,0.261c-0.032-.277-0.054-0.46-0.084-0.719l0.458,0.044a0.245,0.245,0,0,0,.285-0.34,0.69,0.69,0,0,1,.272-0.958,0.745,0.745,0,0,0-.243-0.278,0.805,0.805,0,0,1-.561-0.439,0.533,0.533,0,0,1-.086-0.6,0.55,0.55,0,0,0,.021-0.384,0.679,0.679,0,0,1-.015-0.748,0.9,0.9,0,0,0,.85-0.189l-0.611-.554c0.135-.171.272-0.327,0.39-0.5a2.4,2.4,0,0,0,.346-0.576,1.514,1.514,0,0,1,1.754-1.28,0.679,0.679,0,0,0,.447-0.169c0.28-.234.534-0.508,0.853-0.817a0.488,0.488,0,0,1,.366-0.448c0.392-.227.829-0.264,1.228-0.451a4.126,4.126,0,0,1,.508-0.049,1.075,1.075,0,0,0,.525-0.278c0.159-.191.2-0.508,0.363-0.7a0.906,0.906,0,0,0,.186-0.81c-0.289-.187-0.576-0.363-0.849-0.563a0.318,0.318,0,0,1-.052-0.257,0.355,0.355,0,0,1,.283-0.131,2.3,2.3,0,0,1,1.191.576,0.811,0.811,0,0,0,.549.268c0.278,0.02.26,0.16,0.263,0.406a1.1,1.1,0,0,0,.184.667,1.2,1.2,0,0,0,1.123.588,0.465,0.465,0,0,1,.485.254,1.1,1.1,0,0,0,.619.315,1.27,1.27,0,0,0,.574-0.078c0.5-.135,1.111.2,1.485-0.5a0.926,0.926,0,0,1,.492-0.164c-0.119-.272,0-0.405.187-0.442,0.5-.1,1-0.178,1.509-0.251a0.933,0.933,0,0,1,.542,0,2.572,2.572,0,0,0,1.574.141c0.146-.371.64-0.674,0.865-0.425a0.868,0.868,0,0,0,.893.119,0.555,0.555,0,0,0,.175-0.055c0.038,0.136.067,0.243,0.127,0.46a4.568,4.568,0,0,0,.524-0.4,1.306,1.306,0,0,1,.651-0.193c0.341-.134.662-0.336,1-0.464a1.562,1.562,0,0,1,.527-0.01,0.692,0.692,0,0,1-.028.186,0.677,0.677,0,0,0,.029.88,1.038,1.038,0,0,1,.064.669c-0.058.273-.067,0.461,0.19,0.549-0.014.143-.026,0.266-0.04,0.411l0.418-.026a1.12,1.12,0,0,1-.192.389,0.878,0.878,0,0,0-.517.774,5.776,5.776,0,0,1-.5,1.373,0.758,0.758,0,0,0-.067.306,0.6,0.6,0,0,1-.336.68,3.228,3.228,0,0,0-.394.247c0.017,0.054.035,0.107,0.052,0.161a0.775,0.775,0,0,0,.368-0.127,0.809,0.809,0,0,1,1.395.039,0.459,0.459,0,0,0,.309.227c0.306-.129.476,0,0.6,0.381,0.022-.157.034-0.243,0.052-0.374a1.146,1.146,0,0,0,.276.281,0.484,0.484,0,0,1,.35.571,0.319,0.319,0,0,0,.172.249,0.315,0.315,0,0,0,.224-0.182c0.157-.32.3-0.653,0.439-0.981a1.208,1.208,0,0,1,1.254-.81c0.027-.174.055-0.348,0.071-0.451a1.245,1.245,0,0,1,1.276.189,9.426,9.426,0,0,0,1.795.928,2.222,2.222,0,0,0,1.084-.193l0.411,0.713a0.547,0.547,0,0,1,.225-0.09,1.049,1.049,0,0,0,.879-0.42,2.483,2.483,0,0,1,.612-0.42,0.173,0.173,0,0,1,.177.048,4.688,4.688,0,0,1,.261.451,1.381,1.381,0,0,1-.355.054,0.392,0.392,0,0,0-.437.527,0.834,0.834,0,0,1-.078.3,0.932,0.932,0,0,0-.115.41,0.539,0.539,0,0,0,.34.3c0.432,0.061.87,0.07,1.307,0.094,0.145,0.008.292,0,.467,0a0.693,0.693,0,0,1,.509-0.76,0.188,0.188,0,0,0,.084-0.119c0.2-.609.793-1.006,0.709-1.767a0.453,0.453,0,0,1,.069-0.22c0.111-.223.229-0.441,0.356-0.682-0.272-.293-0.544-0.584-0.848-0.91l0.923-1.1,0.069,0.076L407.7,196.2c0.075-.146.123-0.238,0.186-0.359l-0.408-.082a0.992,0.992,0,0,0,.3-1.279,0.577,0.577,0,0,0-.184-0.152,2.668,2.668,0,0,1-.593-0.618,0.989,0.989,0,0,1,.507-0.824,3.3,3.3,0,0,0,.489-0.359c-0.155-.248.075-0.357,0.143-0.524h0.069c0.272,0.375.542,0.752,0.816,1.125a0.5,0.5,0,0,0,.195.2c0.221,0.054.451,0.057,0.672,0.109a1.453,1.453,0,0,1,.708.239,1.3,1.3,0,0,0,1.058.355,4.339,4.339,0,0,0,2.264,2.3c0.019-.111.039-0.22,0.042-0.238a2.51,2.51,0,0,0,.541-0.306c0.16-.157.212-0.116,0.347,0.047a1.112,1.112,0,0,0,.82.628,1.505,1.505,0,0,1,.541.227,1.6,1.6,0,0,1,.695.424,1,1,0,0,0,.862.582c0.172,0.026.239,0.072,0.212,0.292-0.04.316-.042,0.639-0.06,0.969a3.5,3.5,0,0,0,.723-0.01c0.274-.062.535-0.206,0.536,0.319a0.346,0.346,0,0,0,.129.2c0.128,0.114.268,0.211,0.37,0.29l0.715,0.1c0.249,0.037.5,0.084,0.748,0.113a0.581,0.581,0,0,1,.565.339,0.673,0.673,0,0,0,.373.318,0.37,0.37,0,0,1,.3.5,1.36,1.36,0,0,0,.067.257,0.99,0.99,0,0,1-.017.386c-0.071.19-.216,0.347-0.271,0.54a1.3,1.3,0,0,0-.068.671,0.975,0.975,0,0,0,1.306.661,2.276,2.276,0,0,0,.025-0.349c-0.039-.466.066-0.6,0.47-0.58a0.458,0.458,0,0,0,.484-0.5,2.285,2.285,0,0,1,.051-0.282,3.455,3.455,0,0,0,.794.185,0.342,0.342,0,0,1,.35.516c-0.242.453,0.279,0.8,0.049,1.206,0.3,0.181.125,0.876,0.656,0.815,0.291,0.433.873,0.115,1.152,0.587,0.006,0.01.061-.03,0.092-0.027,0.3,0.034.592,0.071,0.857,0.1a1.336,1.336,0,0,0,.191.5,0.82,0.82,0,0,1,.226.864c-0.029.179-.072,0.354-0.107,0.523,0.326,0.262.4,0.525,0.2,0.68-0.289.224-.581,0.445-0.878,0.657a0.284,0.284,0,0,1-.212.041,2.01,2.01,0,0,1-.544-0.174,0.905,0.905,0,0,1-.783-0.418,0.446,0.446,0,0,0-.071.27,0.513,0.513,0,0,0,.322.164,0.468,0.468,0,0,1,.558.375h-1.246a3.972,3.972,0,0,0-2.476.9c-0.342.278-.683,0.557-1.032,0.824a9.606,9.606,0,0,0-2.357,2.839c-0.131.222-.187,0.5-0.322,0.719a2.87,2.87,0,0,0-.029,2.55,10.91,10.91,0,0,1,1.239,2.79,3.341,3.341,0,0,0,.31.6,1.319,1.319,0,0,1,.28.5,5.33,5.33,0,0,1-.2.962c-0.682-.077-1.364-0.319-1.922.333a1.451,1.451,0,0,0-.164.415l0.09,0.04c0.18-.262.261-0.618,0.689-0.55a14.95,14.95,0,0,0,1.544.059,0.392,0.392,0,0,1,.305.15,3.085,3.085,0,0,1,.029.751,0.577,0.577,0,0,1-.287.065c-0.279.009-.559,0-0.839,0l0.009,0.022,1.511,0.207c-0.145.117-.252,0.208-0.363,0.291q-1.278.966-2.557,1.93a1.325,1.325,0,0,0-.678.839,0.6,0.6,0,0,1-.154.2,1.525,1.525,0,0,0-.472,1.334,1.53,1.53,0,0,1,0,.3l0.058-.094,0.973,0.709-0.006-.006c-0.108.148-.207,0.306-0.324,0.442-0.326.379-.793,0.525-1.108,0.958a2.149,2.149,0,0,1-.9.595,4.168,4.168,0,0,0-2.105,1.92,11.105,11.105,0,0,1-.677.977,4.253,4.253,0,0,0-.305.525c-0.119.246-.206,0.514-0.331,0.755a0.516,0.516,0,0,1-.65.211,0.717,0.717,0,0,1-.306-0.333c-0.079-.124-0.108-0.29-0.189-0.411a0.218,0.218,0,0,0-.217-0.081,0.306,0.306,0,0,0-.086.25,1.323,1.323,0,0,0,.474.763,0.906,0.906,0,0,1,.247.237c-0.378.191-.726,0.386-1.085,0.546a15.454,15.454,0,0,1-2.09.872,42.588,42.588,0,0,0-6.664,2.169,2.208,2.208,0,0,1-.231.071c-0.42.134-.85,0.237-1.257,0.413-0.426.183-.825,0.448-1.244,0.654a4.987,4.987,0,0,1-.645.217c-0.016-.043-0.033-0.086-0.049-0.128a1.123,1.123,0,0,1,.21-0.223c0.5-.3,1.016-0.581,1.515-0.892a7.4,7.4,0,0,0,.683-0.56c-0.736-.3-0.5-0.871-0.464-1.365L401.07,237l0.066-.067a2.283,2.283,0,0,0-.35-0.62,0.916,0.916,0,0,0-.526-0.089,1.19,1.19,0,0,0-1.17.371,1.506,1.506,0,0,1-.916.766,0.279,0.279,0,0,0-.086.185,0.421,0.421,0,0,1-.481.408,1.133,1.133,0,0,0-1.018.819c-0.383-.067-0.476.328-0.64,0.58a1.038,1.038,0,0,0,.114.45c-0.591.371-.62,0.443-0.311,0.866l-0.891.548c0.246,0.21.439,0.373,0.631,0.536-0.506-.131-0.634.4-0.9,0.632a0.945,0.945,0,0,0-.009.422h0.107c0.055-.092.109-0.185,0.164-0.278l0.1,0c0.02,0.272.04,0.544,0.062,0.856,0.339-.339.531-0.9,1.169-0.609-0.13-.3-0.2-0.465-0.264-0.6l0.523-.254-0.565-.415a1.045,1.045,0,0,0,.859-0.534,0.475,0.475,0,0,1,.18-0.094l-0.009-.013a1.31,1.31,0,0,0,.366.315c0.227,0.072.451,0.087,0.253,0.525l0.93-.563,0.249-.2,0.824-.351c-0.009-.026-0.017-0.052-0.025-0.078l-0.3.065c0.137-.232.137-0.232,0.525-0.008a2.305,2.305,0,0,1-.216.137,19.078,19.078,0,0,0-3.2,2.133,7.812,7.812,0,0,0-1.7,1.708,1.6,1.6,0,0,1-.367.349,13.913,13.913,0,0,0-1.593,1.164,11.1,11.1,0,0,0-2.48,3.095,0.5,0.5,0,0,1-.251.216,1.657,1.657,0,0,1-.546.16,0.808,0.808,0,0,1-.5-0.13,0.937,0.937,0,0,1,0-.437,1.577,1.577,0,0,1,.057-0.239l-0.506-.109a1.268,1.268,0,0,1-.285.512,3.4,3.4,0,0,1-.833.091,0.656,0.656,0,0,0,.107.29c0.183,0.131.2,0.672,0.594,0.337a0.813,0.813,0,0,1,.24.181,0.541,0.541,0,0,1-.161.215,0.64,0.64,0,0,0-.751.595,0.174,0.174,0,0,1-.157.087,0.33,0.33,0,0,1-.135-0.206,4.467,4.467,0,0,1,.02-0.557,4.726,4.726,0,0,0-.991.451,4.319,4.319,0,0,0-.653.84l-0.711-.452,0.344,0.731c-0.195.217-.462,0.428-0.19,0.81a0.513,0.513,0,0,1-.109.234,0.382,0.382,0,0,1-.121.085,0.753,0.753,0,0,1-.273.168,0.808,0.808,0,0,1-.312-0.11l-0.018.05,0.294,0.251-0.033.076-0.454-.117-0.014.053,0.265,0.186c-0.171.437-.328,0.1-0.529-0.043a1.148,1.148,0,0,0,.03.455,0.632,0.632,0,0,1-.161.82c-0.249.352-.749-0.115-1.054,0.286a0.477,0.477,0,0,1-.25-0.08c-0.03-.012-0.047-0.062-0.077-0.075a0.3,0.3,0,0,0-.166-0.038,9.065,9.065,0,0,0-1.04.255,3.892,3.892,0,0,1-.676.344,0.439,0.439,0,0,1-.572-0.217,0.951,0.951,0,0,0-1.135-.643,1.027,1.027,0,0,1-.614.026,2.024,2.024,0,0,1-.692-0.45,2.432,2.432,0,0,1-.624-0.793c-0.217-.551-0.325-1.158-0.508-1.729a3.415,3.415,0,0,0-.3-0.349c-0.167-.334-0.265-0.046-0.391.032-0.05.032-.109,0.045-0.158,0.077a0.321,0.321,0,0,0-.137.481c0.088,0.149.2,0.282,0.281,0.434s0.165,0.343.246,0.515l-0.129.124a3.236,3.236,0,0,1-.438-0.537c-0.172-.331-0.294-0.695-0.457-1.092l0.174-.178a1.375,1.375,0,0,1-.406-0.276,16.61,16.61,0,0,1-.974-2.048,1.374,1.374,0,0,0-.383.393,1.457,1.457,0,0,0-.015.535,1.56,1.56,0,0,0-.238.445c-0.04.284-.165,0.261-0.306,0.212-0.031-.149-0.056-0.271-0.1-0.484-0.135.5-.242,0.892-0.37,1.363l-0.52-.295c0.016-.04.033-0.08,0.049-0.121h0.264c-0.044-.217-0.081-0.4-0.118-0.588l-0.072.072a3.162,3.162,0,0,0-.3-0.183,0.282,0.282,0,0,0-.223-0.043,0.294,0.294,0,0,0-.076.244c0.042,0.158.145,0.294,0.187,0.451a2.833,2.833,0,0,1,.041.473l-0.417-.038a4.39,4.39,0,0,1,.192.6,0.59,0.59,0,0,1-.1.309,0.162,0.162,0,0,1-.153-0.029,1.918,1.918,0,0,1-.423-0.556,0.309,0.309,0,0,0-.392-0.248,0.306,0.306,0,0,1-.436-0.142,0.339,0.339,0,0,0-.3.034,3.345,3.345,0,0,0-.428.387c-0.1.255,0.622,0.413,0.163,0.88l0.3,0.242c0.054-.27.1-0.48,0.157-0.792l0.408,0.663c-0.012.013-.025,0.026-0.038,0.038l-0.4-.285c0.038,0.428.14,0.653,0.468,0.605-0.147.485,0.253,0.462,0.439,0.652a0.583,0.583,0,0,0-.16.218c-0.023.4-.2,0.442-0.48,0.312a0.308,0.308,0,0,0-.167.188,0.567,0.567,0,0,0,.09.243,2.552,2.552,0,0,1-.555.095c-0.507-.028-0.66.079-0.808,0.664l-0.612-.115-0.141.53c-0.392-.233-0.738-0.46-1.1-0.636a0.478,0.478,0,0,0-.319.216,2.766,2.766,0,0,0-.153.351c-0.2.342-.431,0.663-0.618,1.015a0.86,0.86,0,0,1-.587.53,0.489,0.489,0,0,0-.16.125l0.084,0.019v0.845l0.591-.15c-0.069.115-.08,0.139-0.1,0.159-0.108.132-.437,0.08-0.264,0.447,0.129,0.275.268,0.447,0.559,0.261a0.764,0.764,0,0,1,.335.025l-1.072,1.593,0.34,0.379,0.245-.132a1.017,1.017,0,0,0-.019.434c0.107,0.173.1,0.314-.041,0.39a0.891,0.891,0,0,1-.405.043,0.849,0.849,0,0,0-.294-0.026,3.256,3.256,0,0,1-.584.322,2.309,2.309,0,0,1-.892-0.017,0.752,0.752,0,0,1-.224-0.442,1.724,1.724,0,0,1-.03-0.409,1.362,1.362,0,0,1-.459-0.035,3.516,3.516,0,0,1-.518-0.367,0.293,0.293,0,0,0-.473.118,0.514,0.514,0,0,0-.091.346,0.865,0.865,0,0,1-.1,1.01,3.517,3.517,0,0,1-1.232.805,0.709,0.709,0,0,0-.563.74c0,0.184-.158.326-0.279,0.156-0.2-.288-0.7-0.408-0.489-0.975a0.1,0.1,0,0,0,0-.076c-0.336-.345.066-0.311,0.114-0.353,0.059-.23.1-0.372,0.137-0.53a1.029,1.029,0,0,0-1.078-.673c0.1-.32.183-0.583,0.271-0.865-0.3-.016-0.553.031-0.365-0.425a0.961,0.961,0,0,0-.088-0.585,2.573,2.573,0,0,0-.3-0.09,3.7,3.7,0,0,1-.379-0.477l-1.723,2.252a1,1,0,0,1,.224.962c-0.178.214-.371,0.412-0.559,0.618,0.13,0.264.266,0.148,0.426,0.041a0.278,0.278,0,0,1,.28,0,0.429,0.429,0,0,1,.015.3,0.466,0.466,0,0,1-.47.422,0.337,0.337,0,0,0-.254.179,2.4,2.4,0,0,1-.391,1.125,0.527,0.527,0,0,0,.1.327,0.91,0.91,0,0,0,.341.165,0.471,0.471,0,0,1,.313.6l-0.4-.215a1.869,1.869,0,0,0,.017.758,0.733,0.733,0,0,1,0,.767l-0.415.1-0.221-.319c-0.237.141-.556,0.237-0.323,0.718a0.484,0.484,0,0,1,0,.379,0.569,0.569,0,0,1-.327.22c-0.326-.4-0.978-0.263-1.141-0.923a0.272,0.272,0,0,0-.2-0.08,0.672,0.672,0,0,1-.4-0.125,0.991,0.991,0,0,0-.743-0.2,4.466,4.466,0,0,0-1.085.553,6.641,6.641,0,0,1-.6.473c-0.548.245-1.119,0.417-1.67,0.654a2.59,2.59,0,0,0-.621.432c-0.327.279-.623,0.607-0.962,0.863-0.185.14-.432,0.182-0.446-0.233a0.836,0.836,0,0,1-.25.151,0.464,0.464,0,0,0-.493.549,0.308,0.308,0,0,1-.12.169c-0.115.106-.236,0.2-0.388,0.33a0.853,0.853,0,0,0-.21-0.149,0.7,0.7,0,0,0-.42-0.088c-0.4.139-.784,0.328-1.2,0.508l-0.158-.5-0.665.194C341.533,271.062,341.207,270.73,341,270.838Z" transform="translate(-341 -192)"/>
  <path class="cls-2" d="M409.409,196.058c0.6,0.16.6,0.16,0.824-.474,0.061-.173.133-0.266,0.331-0.132a1.481,1.481,0,0,1,.659.564,0.994,0.994,0,0,0,1.007.67,3.056,3.056,0,0,1,2.031,1.162,12.446,12.446,0,0,0,1.531,1.654,0.59,0.59,0,0,0,.858.026,0.747,0.747,0,0,1,1.011.134,5.029,5.029,0,0,0,1.081.7,1.611,1.611,0,0,1,.55.485,2.151,2.151,0,0,0,1.21,1.012,0.257,0.257,0,0,1,.149.219,0.875,0.875,0,0,0,.722.577,0.3,0.3,0,0,1,.171.062c0.665,0.836,1.752.715,2.6,1.14a3.784,3.784,0,0,1,.886.659,1.034,1.034,0,0,1-.146,1.171,0.86,0.86,0,0,0,.186,1.405c0.707,0.227.95,0.927,1.525,1.281,0.2,0.126-.162.4-0.087,0.656a0.859,0.859,0,0,1-.529-0.326,0.215,0.215,0,0,0-.281-0.085,0.254,0.254,0,0,0-.124.232,1.3,1.3,0,0,1-.445.966,0.653,0.653,0,0,1-.2-0.378,0.317,0.317,0,0,0-.422-0.175,0.289,0.289,0,0,0-.088.4c0.082,0.165.15,0.338,0.221,0.508a0.159,0.159,0,0,1-.02.209,0.131,0.131,0,0,1-.2-0.035,0.251,0.251,0,0,0-.4-0.024,0.366,0.366,0,0,0-.066.466c0.092,0.164.215,0.285-.034,0.438-0.149.092-.049,0.256,0.037,0.366s0.126,0.213-.059.266a1.082,1.082,0,0,1-1.423-.544c-0.018-.025-0.027-0.057-0.047-0.08a0.231,0.231,0,0,0-.454.08c0.032,0.459-.3.4-0.544,0.347a2.628,2.628,0,0,0-1.763,0,1.863,1.863,0,0,0-.684.062,1.036,1.036,0,0,0-.53.636,0.27,0.27,0,0,1-.321.261,0.456,0.456,0,0,0-.545.308,6.127,6.127,0,0,1-1.672,1.9,10.911,10.911,0,0,1-1.531,1.153c-0.084-.828-0.8-1.08-1.3-1.519a0.19,0.19,0,0,0-.268.114,1.579,1.579,0,0,1-.748.95,0.867,0.867,0,0,0-.157.467,1.127,1.127,0,0,1-.221.5c-0.146.166-.294,0.224-0.454,0.012-0.142-.187-0.28-0.4-0.558-0.182-0.066.053-.118,0.034-0.129-0.04a0.922,0.922,0,0,1-.152-0.771c0.273-.426.535-0.861,0.835-1.268a0.4,0.4,0,0,0-.025-0.609,4.7,4.7,0,0,0-1.469-1.166c-0.594-.237-0.564-0.441-0.074-0.87a1.192,1.192,0,0,0,.089-2.311,1.817,1.817,0,0,0-.327-0.758,0.092,0.092,0,0,0-.087-0.009c-0.753.386-1.089-.377-1.615-0.6a4.2,4.2,0,0,0-1.044-.556c-0.233-.03-0.189-0.178-0.167-0.3,0.108-.6-0.262-1.147-0.163-1.763a1.42,1.42,0,0,0-1.243-.942,0.345,0.345,0,0,0-.175-0.552c-0.119-.049-0.234-0.116-0.141-0.275,0.081-.138.183-0.062,0.282-0.023a4.827,4.827,0,0,1,.689.275,13.161,13.161,0,0,0,1.919.608,0.628,0.628,0,0,0,.675-0.2,6.356,6.356,0,0,0,1.25-1.981,3.362,3.362,0,0,1,.2-0.464,0.76,0.76,0,0,0,0-.822c-0.3-.547-0.275-0.628.262-0.942,0.405-.237.525-0.5,0.231-0.89a0.807,0.807,0,0,1-.1-0.861,1.1,1.1,0,0,0-.426-1.453A0.686,0.686,0,0,1,409.409,196.058Zm-22.456,8.551a0.694,0.694,0,0,0,.287-1.108,0.266,0.266,0,0,1-.055-0.258,1.128,1.128,0,0,0,.109-1.064,6.931,6.931,0,0,0-.548-1.97,0.653,0.653,0,0,0-.915-0.116,8.244,8.244,0,0,0-1.142.832,1.515,1.515,0,0,1-.931.364,0.318,0.318,0,0,0-.394.374,2.612,2.612,0,0,1-.247,1.346c-0.223.413-.353,0.416-0.723,0.133a3.75,3.75,0,0,1-.7-0.509c-0.086-.1-0.188-0.031-0.288.023a1.11,1.11,0,0,0-.852.9c-0.008.209-.148,0.285-0.346,0.095-0.282-.271-0.494-0.159-0.644.158a0.727,0.727,0,0,1-.337.364,0.178,0.178,0,0,1-.288-0.077,0.9,0.9,0,0,0-1.227-.361c-0.092.032-.165,0.1-0.262-0.044a2.441,2.441,0,0,1-.613-1.363,1.651,1.651,0,0,1,.448-1.558,0.529,0.529,0,0,0,.043-0.723,0.73,0.73,0,0,1,.084-0.806,3.1,3.1,0,0,1,2.465-1.582,1.784,1.784,0,0,0,1.172-.689,3.336,3.336,0,0,1,1.806-.851,0.286,0.286,0,0,1,.168.064,3.811,3.811,0,0,0,2.051.459,2.033,2.033,0,0,0,1.453-.591,2.177,2.177,0,0,1,2.711-.276,0.883,0.883,0,0,0,.743.126,3.167,3.167,0,0,1,2.874.15,0.183,0.183,0,0,0,.217.022,13.306,13.306,0,0,1,2.142-.768c0.325-.155.514-0.072,0.42,0.28a3.787,3.787,0,0,0,.063,2.082,0.212,0.212,0,0,1-.017.175c-0.561.338-.295,0.991-0.564,1.466a4.241,4.241,0,0,1-1.07,1.415,1.235,1.235,0,0,0-.427.634,0.228,0.228,0,0,0,.063.323,0.281,0.281,0,0,0,.343-0.05c0.069-.06.121-0.14,0.187-0.2a0.8,0.8,0,0,1,1.34.042,0.85,0.85,0,0,0,.641.312,1.474,1.474,0,0,1,1.386,1.159,3.266,3.266,0,0,1,.2.991,0.869,0.869,0,0,0,.842.763,3.482,3.482,0,0,1,.81.12,0.545,0.545,0,0,1,.442.718,6.746,6.746,0,0,1-.454,1.1,0.388,0.388,0,0,1-.648.127c-0.235-.211-0.407-0.241-0.618,0-0.191.221-.379,0.325-0.532-0.049-0.085-.208-0.241-0.144-0.3,0a1.548,1.548,0,0,0-.225,1.387c0.028,0.053.089,0.114,0.008,0.143-0.564.2-.334,0.686-0.364,1.058a0.991,0.991,0,0,1-.956.874,1.661,1.661,0,0,1-.324,0,1.463,1.463,0,0,1-.642.056,1.594,1.594,0,0,1-.239-0.862,0.45,0.45,0,0,0-.513-0.5,3.833,3.833,0,0,0-1.515.083,2.621,2.621,0,0,1-1.169-.007c-0.347-.061-0.461.043-0.466,0.361,0,0.132.031,0.294-.189,0.3-0.184,0-.145-0.145-0.2-0.246a5.412,5.412,0,0,0-.328-0.847c-0.123-.163-0.156-0.43-0.471-0.29-0.125.056-.141-0.07-0.177-0.152-0.373-.84-0.445-0.884-1.388-0.844-0.016,0-.031.007-0.046,0.008-0.132.015-.338-0.046-0.305-0.129,0.222-.559-0.828-0.616-0.465-1.206A1.52,1.52,0,0,0,386.953,204.609Zm11.353,8.549a0.954,0.954,0,0,0,.584-1.434,0.784,0.784,0,0,1-.133-0.881,6.51,6.51,0,0,1-.79-1.626,0.425,0.425,0,0,0-.416-0.126,0.5,0.5,0,0,1-.5-0.329c-0.071-.269.171-0.237,0.289-0.327s0.232-.241.115-0.348c-0.393-.36-0.066-0.7-0.016-1.146,0.26,0.546.534,0.318,0.777,0.1,0.157-.138.239-0.205,0.448-0.041a0.651,0.651,0,0,0,.978-0.238,5.626,5.626,0,0,0,.481-1.192,0.8,0.8,0,0,0-.558-1.018,2.871,2.871,0,0,0-.846-0.136,0.576,0.576,0,0,1-.675-0.579c0-.046-0.013-0.091-0.016-0.137a1.261,1.261,0,0,1-.119-0.87,2.846,2.846,0,0,1,1.256-1.1,3.4,3.4,0,0,0,1.012-.556,0.631,0.631,0,0,1,.688.008,13.524,13.524,0,0,1,2.572,1.642,1.3,1.3,0,0,0,1.474-.127,2.826,2.826,0,0,1,1.432-.449c0.122-.023.262,0,0.179,0.2a3.521,3.521,0,0,0-.537,1.06c-0.01.123-.121,0.033-0.177,0.012-0.261-.1-0.522-0.2-0.777-0.309-0.2-.086-0.374-0.115-0.442.136-0.058.211-.291,0.462,0.08,0.624a0.823,0.823,0,0,1,.125.048c-0.138.854,0.811,0.536,1.078,0.979a0.857,0.857,0,0,1,.225.56c-0.062.63,0.273,1.225,0.182,1.863a0.214,0.214,0,0,0,.192.23c0.792-.016,1.217.651,1.827,0.971a0.983,0.983,0,0,0,.847.228c0.279-.1.283,0.127,0.29,0.278a1.8,1.8,0,0,0,.04.5c0.031,0.092.056,0.2,0.178,0.138,0.172-.085.381-0.124,0.433,0.066a0.862,0.862,0,0,1,.033.712,3.127,3.127,0,0,1-.73.942,0.592,0.592,0,0,0,.06,1.121,4.7,4.7,0,0,1,1.435,1.054,0.337,0.337,0,0,1,.047.535c-0.294.391-.541,0.817-0.8,1.233a1.97,1.97,0,0,0,.348,1.308,0.235,0.235,0,0,0,.126.035c0.3-.453.449,0.025,0.669,0.09a0.547,0.547,0,0,0,.721-0.415c0.077-.681.695-0.976,0.946-1.515,0.081-.174.175-0.13,0.282-0.041,0.26,0.215.527,0.423,0.771,0.656a0.35,0.35,0,0,1,.07.3,0.973,0.973,0,0,0,.083,1.034,0.052,0.052,0,0,1,.008.043c-0.417.25-.126,0.731-0.347,1.047a0.237,0.237,0,0,1-.261.118,0.859,0.859,0,0,0-.836.374c-0.212.323,0.023,0.534,0.231,0.757a1.079,1.079,0,0,1,.088,1.256c-0.1.165-.173,0.15-0.277,0.044-0.528-.532-1.34-0.4-1.928-0.833a0.981,0.981,0,0,0-1.08.548c-0.044.108-.017,0.27-0.2,0.258a0.328,0.328,0,0,1-.252-0.246,0.839,0.839,0,0,1,.276-1.148,2.256,2.256,0,0,0,.584-0.86c0.121-.183.024-0.324-0.212-0.308a1.153,1.153,0,0,0-.317.069,3.525,3.525,0,0,1-1.4.38,0.947,0.947,0,0,0-.778.513,0.6,0.6,0,0,1-.764.251c-0.347-.116-0.7-0.205-1.051-0.3a0.462,0.462,0,0,1-.435-0.448,0.523,0.523,0,0,0-.117-0.231c-0.445.189-.469-0.245-0.644-0.434a0.33,0.33,0,0,0-.365-0.131,3.3,3.3,0,0,0-1.117.421,0.541,0.541,0,0,1-.769.053,0.484,0.484,0,0,0-.832.207c-0.242.446-.444,0.443-0.762,0.029a7.214,7.214,0,0,1-1.169-1.639,2,2,0,0,0-1.227-.848c-0.469-.2-0.219-0.316-0.074-0.54a4.276,4.276,0,0,0,.665-0.389A1.185,1.185,0,0,0,398.306,213.158Zm-18.479,27.3a0.648,0.648,0,0,0,.3.577c0.254,0.187.549,0.41,0.218,0.781-0.125.141,0.086,0.292-.037,0.488a0.9,0.9,0,0,0-.709-0.278c-0.173.026-.21-0.147-0.247-0.282a0.556,0.556,0,0,0-.654-0.456,0.871,0.871,0,0,1-.53-0.122,2.022,2.022,0,0,0-1.259.117,0.44,0.44,0,0,1-.5-0.523c0.041-.251-0.026-0.438-0.346-0.381a0.6,0.6,0,0,0-.178.05c-0.53.29-.811,0.169-0.975-0.445a0.844,0.844,0,0,0-.789-0.395,0.615,0.615,0,0,0-.756.492,0.77,0.77,0,0,1-.494.506c-0.315-.732-0.368-0.754-0.936-0.344a1.6,1.6,0,0,0-.431-1.034c-0.136-.169-0.271-0.377,0-0.588a0.294,0.294,0,0,0,.069-0.418c-0.293-.367-0.317-1.025-1.036-0.945-0.148.017-.162-0.122-0.115-0.233,0.065-.155.154-0.3,0.222-0.455a0.674,0.674,0,0,0-.4-1c-0.253-.09-0.266-0.172-0.161-0.386a2.638,2.638,0,0,1,.551-0.738,1.676,1.676,0,0,0,.383-0.508,0.566,0.566,0,0,1,.921-0.2,1.011,1.011,0,0,0,1.634-.558,0.75,0.75,0,0,1,.383-0.434,0.521,0.521,0,0,0,.237-0.6,0.439,0.439,0,0,0-.521-0.346c-0.243.015-.319-0.271-0.158-0.537a1.6,1.6,0,0,0-.408-2.252,0.334,0.334,0,1,1,.113-0.659c0.175-.062.361-0.1,0.531-0.168a0.87,0.87,0,0,1,.953.113,0.732,0.732,0,0,0,.24.138c0.272,0.077.6,0.423,0.784,0.218a1.228,1.228,0,0,0,.369-1.1,0.653,0.653,0,0,1,.28-0.754,10.535,10.535,0,0,1,1.239-.971,0.419,0.419,0,0,1,.5-0.009,5.79,5.79,0,0,0,1.652.594,1.823,1.823,0,0,0,1.152-.264,0.781,0.781,0,0,1,.845.082c0.432,0.325.767-.124,1.131-0.249,0.3-.1.063-0.408,0.087-0.619a0.488,0.488,0,0,0-.258-0.305c-0.063-.071-0.219-0.113-0.113-0.251a0.235,0.235,0,0,1,.283-0.107,1.02,1.02,0,0,1,.864.785,4.105,4.105,0,0,0,.627,1.567,11.226,11.226,0,0,1,.932,2.587,0.242,0.242,0,0,1-.08.32,0.4,0.4,0,0,0-.21.471,0.38,0.38,0,0,0,.433.192c0.447-.041.4,0.249,0.35,0.491a2.012,2.012,0,0,0,.3,1.627c0.055,0.084.2,0.247,0.01,0.288-0.207.045-.215,0.441-0.513,0.263a0.348,0.348,0,0,0-.3-0.082c-0.443.128-.667-0.012-0.705-0.449-0.011-.125.013-0.273-0.129-0.312a0.3,0.3,0,0,0-.289.195,0.41,0.41,0,0,0-.108.247,2.772,2.772,0,0,1-.539,1.517,0.361,0.361,0,0,0-.05.386c0.283,0.356-.026.4-0.238,0.376a0.839,0.839,0,0,0-.788.459c-0.245.314-.108,0.578,0.289,0.6a0.515,0.515,0,0,1,.338.129,0.993,0.993,0,0,0,.763.26c0.337-.006.472,0.144,0.294,0.459a1.968,1.968,0,0,0-.178,1.03c0,0.26-.049.455-0.36,0.193a2.2,2.2,0,0,0-.736-0.383,1.117,1.117,0,0,1-.651-0.623c-0.093-.19-0.219-0.287-0.376-0.09a2.139,2.139,0,0,1-1.594.541c-0.165.026-.39-0.012-0.333,0.251a0.706,0.706,0,0,1-.625.844,0.2,0.2,0,0,0-.133.292,2.5,2.5,0,0,1,.308,1.1c-0.009.118,0.138,0.085,0.225,0.091C379.81,240.308,379.864,240.341,379.827,240.454Zm2.17-3.012a1.8,1.8,0,0,0,.947.762,2.309,2.309,0,0,1,.677.395c0.326,0.232.565,0.127,0.6-.275a3.986,3.986,0,0,1,.28-1.469,0.29,0.29,0,0,0-.278-0.424,9.812,9.812,0,0,1-1.6-.53,0.664,0.664,0,0,1,.623-0.476,1.35,1.35,0,0,0,.49-0.126c0.147-.063.3-0.226,0.193-0.36-0.352-.438.018-0.729,0.191-1.039a2.847,2.847,0,0,0,.275-0.72,1.285,1.285,0,0,1,.4.321c0.166,0.1.336,0.341,0.541,0.043,0.08-.117.154-0.047,0.228,0.011a0.307,0.307,0,0,0,.389,0,1.376,1.376,0,0,1,.959-0.4,1.59,1.59,0,0,0,.912-1.1c0.283-.58.352-0.6,0.757-0.084a0.562,0.562,0,0,0,.424.32,1.075,1.075,0,0,1,.944.524,1.614,1.614,0,0,1-.167,1.326c-0.4.64-.385,0.726,0.195,1.212a0.894,0.894,0,0,1,.314.645,0.475,0.475,0,0,0,.424.475,0.659,0.659,0,0,1,.5.866c-0.164.549-.164,0.549,0.393,0.628a0.828,0.828,0,0,0-.072.329c0.5,0.37.619,1.088,1.233,1.348a0.687,0.687,0,0,1,.261.081c0.418,0.766,1.42.859,1.857,1.6a1.144,1.144,0,0,1-.025.938,7.1,7.1,0,0,1-.311.919,1.119,1.119,0,0,0,.323,1.374c0.208,0.182.131,0.222-.035,0.355a4.783,4.783,0,0,0-1.638,1.466,0.377,0.377,0,0,1-.184.132,11.46,11.46,0,0,0-3.973,3.047,0.587,0.587,0,0,0-.358.381,0.514,0.514,0,0,1-.219.489c-0.172-.341-0.343-0.667-0.5-1a0.867,0.867,0,0,0-.269-0.37c-0.329-.227-0.654-0.432-0.3-0.9,0.1-.127-0.047-0.286-0.19-0.3-0.215-.025-0.5-0.173-0.63.1a0.63,0.63,0,0,1-.9.372c-0.146-.05-0.2.044-0.216,0.162a1.074,1.074,0,0,0,.72.683c0.105,0,.239-0.058.225,0.119a0.148,0.148,0,0,1-.205.13c-0.424-.166-0.575.012-0.527,0.449a0.631,0.631,0,0,1-.223-0.441c-0.081-.108-0.064-0.415-0.371-0.181-0.19.145-.21-0.069-0.2-0.211a2.918,2.918,0,0,0-.063-0.917,0.689,0.689,0,0,0-1.093-.462c-0.189.107-.357,0.25-0.552,0.343-0.114.055-.273,0.326-0.379,0.052-0.08-.206-0.392-0.514.057-0.689a1.764,1.764,0,0,0,.812-0.724c0.289-.424.277-0.668-0.21-0.891a1.151,1.151,0,0,1-.643-0.983,1.619,1.619,0,0,0-.115-0.49,2.233,2.233,0,0,1-.226-1.562,0.86,0.86,0,0,0-.634-0.954,0.2,0.2,0,0,0-.232.092c-0.115.125-.211,0.269-0.334,0.384a0.37,0.37,0,0,1-.509.032,0.308,0.308,0,0,1-.115-0.432c0.324-.411.018-0.683-0.221-0.912s-0.425-.349-0.163-0.7c0.157-.208.016-0.41-0.288-0.4a0.819,0.819,0,0,1-.459-0.643,0.18,0.18,0,0,1,.193-0.085c0.174-.031.353-0.037,0.24-0.3-0.06-.139.063-0.182,0.164-0.226a0.288,0.288,0,0,0,.237-0.255c-0.091-.41.259-0.393,0.44-0.4A1.675,1.675,0,0,0,382,237.442Zm-20.758-.223a0.819,0.819,0,0,0,.436-0.7c-0.017-.236.15-0.247,0.331-0.287a0.891,0.891,0,0,0,.861-0.322,1.6,1.6,0,0,0,.03-1.465,2.536,2.536,0,0,1,.228-3.041,2.449,2.449,0,0,0,.358-1.894,2.636,2.636,0,0,0-.234-0.747,0.435,0.435,0,0,1,.087-0.466c0.113-.168.259-0.029,0.372,0.012a1.543,1.543,0,0,0,1.488-.034,1.176,1.176,0,0,1,1.365.218,0.991,0.991,0,0,0,1.63-.348,3.445,3.445,0,0,1,1.16-1.161,0.458,0.458,0,0,1,.484-0.009,0.254,0.254,0,0,0,.389-0.239,0.323,0.323,0,0,1,.136-0.323c0.681-.272.992-1.009,1.717-1.291,0.087,0.19.071,0.548,0.388,0.548a1.328,1.328,0,0,0,.729.153,1.682,1.682,0,0,1-1.046.586,0.922,0.922,0,0,0-.766.707,0.285,0.285,0,0,0,.151.383c0.309,0.2.6,0.424,0.895,0.642a0.332,0.332,0,0,1,.168.426,0.4,0.4,0,0,0,.24.529,1.672,1.672,0,0,1,.751,1.492,0.5,0.5,0,0,1-.2.448,0.817,0.817,0,0,0-.213.635,0.32,0.32,0,0,0,.413.393,0.282,0.282,0,0,1,.361.125,0.286,0.286,0,0,1-.189.373,0.764,0.764,0,0,0-.434.7,0.362,0.362,0,0,1-.475.357,2.554,2.554,0,0,1-1.036-.218,0.679,0.679,0,0,0-1.012.348,10.657,10.657,0,0,0-1.007,1.467,0.176,0.176,0,0,1-.174.119,1.886,1.886,0,0,0-1.4,2.2,0.359,0.359,0,0,0,.1.152,1.6,1.6,0,0,1,.221,2.132,6.853,6.853,0,0,0-.533,1.618,0.632,0.632,0,0,1-.813.585c-0.277-.062-0.325.006-0.382,0.257a2.421,2.421,0,0,0,.173,1.308,1.146,1.146,0,0,1,.084.586,0.425,0.425,0,0,1-.414.305c-0.241.065-.187-0.179-0.2-0.274a1.453,1.453,0,0,0-.883-0.867,3.327,3.327,0,0,0-.158.437,1.064,1.064,0,0,1-.589.828,0.262,0.262,0,0,0-.163.4,1.516,1.516,0,0,1-.389,1.845,11.181,11.181,0,0,0-1.043.978,1.026,1.026,0,0,1-.384.182,0.891,0.891,0,0,1,.3-0.968,1.584,1.584,0,0,0,.44-1.606,0.77,0.77,0,0,0-.558-0.44,1.174,1.174,0,0,1-.65-0.927,5.362,5.362,0,0,0-.739-2.4,1.592,1.592,0,0,0-.508-0.521,3.887,3.887,0,0,1-1.023-1.058,0.248,0.248,0,0,1-.06-0.259c0.267-.712.038-1.476,0.238-2.194a2.38,2.38,0,0,1,.114-0.447,0.618,0.618,0,0,1,.464-0.46C361.12,236.723,361.132,237,361.239,237.219Zm4.108,11.343a2.361,2.361,0,0,1-.239.787c-0.056.118-.269,0.27-0.066,0.387a0.453,0.453,0,0,0,.632-0.032c0.11-.13.227-0.253,0.339-0.38a0.449,0.449,0,0,1,.632-0.163,0.482,0.482,0,0,1-.063.761,0.579,0.579,0,0,1-.209.171c-0.338.072-.232,0.262-0.1,0.435a0.456,0.456,0,0,1,.132.608,0.267,0.267,0,0,0,.2.4,1.484,1.484,0,0,1,.793.821c0.051,0.083.106,0.333-.211,0.283-0.221-.034-0.581-0.095-0.341.369,0.076,0.147-.094.206-0.211,0.235-0.209.052-.425,0.078-0.633,0.131a0.46,0.46,0,0,0-.283.134c-0.144.647-.56,0.316-0.9,0.264a0.379,0.379,0,0,0-.1.013,1.678,1.678,0,0,1,.04.5,5.026,5.026,0,0,1-1.019-.546,0.321,0.321,0,0,0-.546.184,2.651,2.651,0,0,1-.6,1.02,2.037,2.037,0,0,0-.362.637,0.239,0.239,0,0,1-.042.127,0.751,0.751,0,0,0-.5.807,1.163,1.163,0,0,0,.3.949,0.569,0.569,0,0,0,.766.162c-0.3.34-.427,0.772-0.716,1.093-0.467.52-.508,0.552,0.05,0.906,0.2,0.129.21,0.321,0.414,0.429l-1.131.184a1.347,1.347,0,0,1-.868.04c-0.414-.082-0.285-0.443-0.318-0.744a0.889,0.889,0,0,1-1.125-.455c-0.139-.245-0.33-0.083-0.477-0.016a0.46,0.46,0,0,0-.393.488,1.162,1.162,0,0,1-.836,1.448,1.885,1.885,0,0,0-1.251,1.173c-0.041.159-.168,0.348-0.3,0.283a0.765,0.765,0,0,1-.474-0.578,0.79,0.79,0,0,1,.09-0.751c0.28-.312,0-0.8-0.507-1-0.219-.085-0.44-0.123-0.238-0.426a0.16,0.16,0,0,0-.016-0.214,0.763,0.763,0,0,1-.278-0.986,0.364,0.364,0,0,0-.268-0.438,2.8,2.8,0,0,1-1.059-.7,3.148,3.148,0,0,0-1.126-.622,1.9,1.9,0,0,1-.723-0.622c-0.114-.1,0-0.19.07-0.269,0.3-.328.1-0.536-0.194-0.683-0.645-.321-0.685-0.5-0.118-0.968a1.792,1.792,0,0,1,1.482-.608,0.738,0.738,0,0,0,.754-0.355,1.112,1.112,0,0,1,.649-0.424c0.831-.24.976-0.479,0.8-1.3-0.106-.486.135-0.722,0.6-0.569a0.3,0.3,0,0,0,.37-0.061,0.37,0.37,0,0,0,.11-0.459,2.193,2.193,0,0,1-.318-1.715,0.55,0.55,0,0,0-.167-0.412,0.463,0.463,0,0,1,.295-0.791,2.53,2.53,0,0,1,1.968-.2,2.683,2.683,0,0,0,1.22.338,0.661,0.661,0,0,0,.4-0.067,1.176,1.176,0,0,1,1.231-.017,5.046,5.046,0,0,0,1.213.276,1.126,1.126,0,0,1,1.154,1.426c-0.024.119-.179,0.312,0.044,0.388a0.452,0.452,0,0,0,.517-0.085c0.191-.2.4-0.389,0.6-0.578A1.267,1.267,0,0,1,365.347,248.562Zm29.744-23.729a3.342,3.342,0,0,1,.192,1.256c-0.049.257-.134,0.3-0.36,0.242a3.647,3.647,0,0,0-.5-0.089c-0.122-.016-0.254-0.028-0.286.147a0.455,0.455,0,0,1-.594.352,1.1,1.1,0,0,0-.881.1,1.176,1.176,0,0,1-.7-0.226,1.075,1.075,0,0,0-1.3.6,2.3,2.3,0,0,0-2.046-1.267,1.986,1.986,0,0,1-1.674-1.01,1.445,1.445,0,0,0-.9-0.681,4.416,4.416,0,0,0-1.073-.6,2.649,2.649,0,0,1-.5-0.095,0.844,0.844,0,0,1-.825-1.044,0.957,0.957,0,0,0-.723-1,0.355,0.355,0,0,1-.294-0.311,0.426,0.426,0,0,1,.2-0.432,1.994,1.994,0,0,1,1.072-.449c0.885,0,.887-0.053,1.023-0.977,0.011-.075-0.022-0.163.078-0.185a2.806,2.806,0,0,0,1.113-.64,0.381,0.381,0,0,1,.4.022,1.443,1.443,0,0,0,1.234.079,0.717,0.717,0,0,1,.82.155,0.25,0.25,0,0,0,.4,0,0.261,0.261,0,0,0-.083-0.394c-0.235-.221-0.113-1.069.086-1.012,0.344,0.1.717-.378,1.021,0.106a0.686,0.686,0,0,0,.784.232,0.2,0.2,0,0,0,.184-0.171c-0.062-.626.265-0.278,0.455-0.172a3.406,3.406,0,0,0,1.485.306,0.281,0.281,0,0,0,.222-0.147,1.416,1.416,0,0,0-.1-1.483c-0.086-.083-0.332-0.111-0.185-0.287a0.7,0.7,0,0,1,.575-0.4c0.059,0,.112.06,0.17,0.069a0.94,0.94,0,0,0,.818-0.15c0.242-.24-0.082-0.4-0.181-0.585a1.118,1.118,0,0,1-.1-0.629A0.868,0.868,0,0,0,394,213.45a0.312,0.312,0,0,1-.035-0.423,0.661,0.661,0,0,1,.467-0.147c0.916-.05,1.861.054,2.52-0.854a1.073,1.073,0,0,0-.605-1.74,2.561,2.561,0,0,0,.82-0.878c0.126-.246.352,0.045,0.538-0.048,0.075-.037.178,0.112,0.184,0.226a1.549,1.549,0,0,0,.506,1.092,0.186,0.186,0,0,1,.047.285c-0.3.262-.1,0.484,0.068,0.668a1.019,1.019,0,0,1,.227.766,0.4,0.4,0,0,1-.506.4c-0.159-.024-0.352-0.166-0.431.077a0.387,0.387,0,0,0,.276.474,0.955,0.955,0,0,1,.563.606,0.58,0.58,0,0,1-.322.907,0.989,0.989,0,0,0-.649.771,0.312,0.312,0,0,0,.282.426,2.73,2.73,0,0,1,1.169.616,0.476,0.476,0,0,1,.188.5c-0.047.186-.262,0.116-0.4,0.153a4.518,4.518,0,0,1-.685.117,0.805,0.805,0,0,0-.885.786,0.871,0.871,0,0,1-.723.633,0.6,0.6,0,0,0-.275.976,2.853,2.853,0,0,1,.434,2.7,0.333,0.333,0,0,1-.173.252,1.066,1.066,0,0,0-.5,1.225,2.834,2.834,0,0,1-.108.949c-0.022.162-.137,0.225-0.309,0.135S395.342,224.943,395.091,224.833Zm-7.971-20.7a0.814,0.814,0,0,1-.378.265c-0.105.125-.274,0.292-0.082,0.422a0.856,0.856,0,0,1,.335,1.19,0.322,0.322,0,0,0,.08.42,1.455,1.455,0,0,1,.543.844,0.924,0.924,0,0,1-.551,1.151c-0.172.037-.493-0.081-0.463,0.222a1,1,0,0,0,.251.928c0.432,0.292.426,0.3,0,.624a1.762,1.762,0,0,0-.631,2.057c0.319,1.138.807,2.224,1.116,3.369,0.212,0.782.421,0.827,1.067,0.325a1.36,1.36,0,0,0,.5-0.533c0.037-.093.077-0.221,0.229-0.156a0.269,0.269,0,0,1,.205.223c0.05,0.443.128,0.884,0.153,1.328,0.009,0.164-.059.4-0.336,0.251a0.278,0.278,0,0,0-.415.154c-0.065.1-.092,0.231-0.161,0.331-0.206.3-.021,0.88-0.753,0.827a2.687,2.687,0,0,1-1.246-.062,0.63,0.63,0,0,0-.8.14,1.81,1.81,0,0,1-1.024.5c-0.232.032-.327,0.1-0.19,0.364a0.491,0.491,0,0,1-.458.737,1.618,1.618,0,0,0-1.274.418c-0.178.205-.311,0.122-0.333-0.154a0.527,0.527,0,0,0-.488-0.531,0.384,0.384,0,0,1-.376-0.4c0.04-.837-0.637-0.927-1.169-1.028a3.406,3.406,0,0,0-.948-0.241c-0.173.014-.183-0.207-0.177-0.328a1.4,1.4,0,0,0-.81-1.339c-0.251-.145-0.284-0.282-0.075-0.494a2.955,2.955,0,0,0,.8-2.069,31.492,31.492,0,0,0-.25-3.575,18.826,18.826,0,0,0-.487-1.954c-0.053-.323.05-0.4,0.33-0.432,0.385-.039.767-0.1,1.151-0.149a0.956,0.956,0,0,0,.965-1.036,1.106,1.106,0,0,1,1.379-1.144,5.533,5.533,0,0,1,.967.118,1.616,1.616,0,0,0,1.815-1.614,2.471,2.471,0,0,0-.119-0.908,0.25,0.25,0,0,1,0-.265,1.245,1.245,0,0,0,0-1.455c-0.109-.264-0.162-0.42.182-0.563,0.287-.12.44-0.46,0.754-0.591a0.463,0.463,0,0,1,.732.279,2.12,2.12,0,0,1,.177.987c-0.044.332,0.274,0.592,0.233,0.939-0.009.077,0.108,0.208,0.031,0.253-0.387.223-.117,0.639-0.3,0.934A0.286,0.286,0,0,0,387.12,204.132Zm-24.5,43.836c-0.941-.474-1.942-0.426-2.812-0.831a0.723,0.723,0,0,0-.614.136,1.387,1.387,0,0,1-1.442-.125,1.657,1.657,0,0,0-1.337-.17c-0.346.083-.683,0.2-1.024,0.3a0.642,0.642,0,0,1-.905-0.716,2.591,2.591,0,0,0-.15-1.314c-0.088-.189-0.03-0.29.183-0.309,0.123-.011.244-0.039,0.367-0.057a0.445,0.445,0,0,0,.469-0.3,0.519,0.519,0,0,0-.33-0.554c-0.054-.03-0.11-0.057-0.166-0.083-0.624-.289-0.624-0.289-0.184-0.841a0.5,0.5,0,0,0-.277-0.875,0.616,0.616,0,0,1-.474-0.449,7.164,7.164,0,0,0-.311-0.77c-0.149-.35-0.343-0.427-0.6-0.091a0.222,0.222,0,0,1-.313.089,1.012,1.012,0,0,0,.012-1.1,0.505,0.505,0,0,1,.053-0.529,1.506,1.506,0,0,0,.092-1.448,1.464,1.464,0,0,1,0-1.074c0.18-.477.072-0.609-0.44-0.645a0.769,0.769,0,0,1-.847-0.68,0.623,0.623,0,0,0-.474-0.518,1.3,1.3,0,0,1-1.081-1.436,11.034,11.034,0,0,1,.036-1.283,0.993,0.993,0,0,1,.656-0.838,1.314,1.314,0,0,1,1.33.482c0.163,0.244.295,0.507,0.445,0.758,0.273,0.457.392,0.463,0.7,0.02a1.517,1.517,0,0,0,.535.615c0.424,0.143.259-.375,0.507-0.442a0.245,0.245,0,0,1,.158.2c0.245,0.474.442,0.536,0.792,0.155,0.3-.323.432-0.112,0.614,0.086a5.908,5.908,0,0,1,1.094,2.175c0.125,0.357.228,0.473,0.626,0.24a3.935,3.935,0,0,1,2.129-.831,0.631,0.631,0,0,1,.616.164,0.514,0.514,0,0,0,.521.108,0.225,0.225,0,0,1,.286.084,0.192,0.192,0,0,1-.133.256,0.676,0.676,0,0,0-.332.791,0.237,0.237,0,0,1-.033.252,3.161,3.161,0,0,0-.62,2.334,1.255,1.255,0,0,1-.013.365c-0.411.989,0.333,1.492,0.927,1.963a2.918,2.918,0,0,1,1.055,1.668,6.309,6.309,0,0,1,.155.816,1.775,1.775,0,0,0,1.055,1.635,0.987,0.987,0,0,1-.06,1.454A1.009,1.009,0,0,0,362.625,247.968Zm6.815,1.364a0.688,0.688,0,0,1-.442-0.578c0.012-.116-0.165-0.117-0.267-0.119a0.232,0.232,0,0,0-.233.241,2.612,2.612,0,0,1,0,.5c-0.06.185,0.255,0.548-.236,0.563-0.007,0,0,.275-0.007.421-0.069.048,0,.239-0.178,0.174a1.069,1.069,0,0,0-.85-0.565,0.8,0.8,0,0,1-.239-0.6c-0.066-.189.025-0.526-0.223-0.54a1.022,1.022,0,0,0-.864.244,2.174,2.174,0,0,1-.588.551c0.111-.374.179-0.683,0.294-0.973,0.122-.311.034-0.385-0.287-0.4a1.861,1.861,0,0,0-1.751.687,2.567,2.567,0,0,1-.609.447,1.569,1.569,0,0,0-.046-0.932c-0.059-.137.042-0.187,0.139-0.246a7.269,7.269,0,0,0,1.628-1.467,1.477,1.477,0,0,0,.3-1.621,0.271,0.271,0,0,1,.141-0.41,0.784,0.784,0,0,0,.474-0.635c0.058-.438.273-0.281,0.485-0.124a0.92,0.92,0,0,1,.147.278c0.131,0.178-.113.621,0.329,0.553a0.73,0.73,0,0,0,.768-0.945c-0.073-.3-0.19-0.587-0.258-0.886-0.073-.322-0.159-0.611.382-0.668,0.691-.073.735-0.2,0.845-0.88a5.866,5.866,0,0,1,.654-1.814,1.894,1.894,0,0,0-.285-1.9,1.1,1.1,0,0,1-.113-1.214,1.123,1.123,0,0,1,1.6-.665c0.418,0.174.485,0.493,0.114,0.974a0.579,0.579,0,0,0-.024.637,0.219,0.219,0,0,0,.255.16c0.629-.175.608,0.421,0.849,0.7a0.145,0.145,0,0,1-.032.209c-0.425.264-.19,0.56-0.021,0.818a2.592,2.592,0,0,1,.423.951c0.08,0.411.271,0.443,0.54,0.131,0.133-.154.209-0.158,0.287,0.035s0.047,0.543.315,0.473a0.969,0.969,0,0,0,.7-0.552,0.526,0.526,0,0,1,.563-0.478,0.745,0.745,0,0,1,.7.525,0.544,0.544,0,0,0,.842.386c0.318-.141.345,0.067,0.287,0.243s-0.029.363-.074,0.538a0.958,0.958,0,0,0,.4,1.154,0.18,0.18,0,0,1,.067.277,7.717,7.717,0,0,0-.5,1.4,0.792,0.792,0,0,0,.851,1.1,0.305,0.305,0,0,1,.286.246,0.3,0.3,0,0,1-.109.44,0.264,0.264,0,0,0-.17.389,0.648,0.648,0,0,1-.24.568,0.707,0.707,0,0,0-.164.982,0.248,0.248,0,0,1-.013.3,0.5,0.5,0,0,0-.061.479c0.522,0.381.1,1,.441,1.431a0.65,0.65,0,0,1-.437-0.118,0.427,0.427,0,0,0-.467.123,0.306,0.306,0,0,0,.116.441c0.157,0.116.34,0.214,0.092,0.414-0.171.138-.285,0.354-0.523,0-0.227-.338-0.717-0.167-0.866.3a1.547,1.547,0,0,1-.9-1.22c0.015-.239-0.106-0.251-0.283-0.125-0.214.152-.435,0.293-0.653,0.438a0.478,0.478,0,0,1-.1-0.119,0.194,0.194,0,0,1,.013-0.283,0.176,0.176,0,0,0-.075-0.3,2,2,0,0,1-.979-1.441,1.621,1.621,0,0,1-.308-0.752,0.145,0.145,0,0,0-.094-0.087c-0.294.079-.442,0.38-0.747,0.467-0.158.044-.046,0.244,0.006,0.318,0.236,0.336-.15.433-0.227,0.645a0.1,0.1,0,0,1-.079.029c-0.432-.044-0.432-0.045-0.534.371C369.518,249.473,369.494,249.374,369.44,249.332Zm-8.325-30.161c0.1-.287.407-0.5-0.008-0.623a0.16,0.16,0,0,1-.067-0.1c0.314-.339-0.016-0.78.2-1.157a3.905,3.905,0,0,0,.612-1.485,1.306,1.306,0,0,0,0-.454,0.7,0.7,0,0,1,.687-0.942,1.676,1.676,0,0,1,1,.136,1.021,1.021,0,0,0,.978.035,0.525,0.525,0,0,1,.3-0.1c0.744,0.33,1.39-.1,2.072-0.242a0.326,0.326,0,0,1,.415.234,2.732,2.732,0,0,0,1.874,1.447,0.966,0.966,0,0,0,.874-0.219c0.464-.5,1.173-0.85,1.207-1.662a0.917,0.917,0,0,1,.346-0.677,0.419,0.419,0,0,0,.2-0.439,0.891,0.891,0,0,1,.428-0.974,0.393,0.393,0,0,1,.465-0.109,6.554,6.554,0,0,0,.935.269,0.469,0.469,0,0,0,.586-0.653,2.729,2.729,0,0,0-.515-0.976,1,1,0,0,1-.146-1.12,7.978,7.978,0,0,1,.933-1.969,9.59,9.59,0,0,1,.86-1.484,1.208,1.208,0,0,0,.182-0.839c0.025-.221.036-0.42,0.385-0.342a1.813,1.813,0,0,0,1.029-.44,0.25,0.25,0,0,1,.118.282,3.96,3.96,0,0,0,.686,1.787,5.769,5.769,0,0,1,.519,2,17.731,17.731,0,0,0,.439,1.785c0.208,0.651.084,1.375,0.262,2.05,0.15,0.568-.1,1.155,0,1.694a2.184,2.184,0,0,1-.8,2.029,5.931,5.931,0,0,0-.972,1.223c-0.1.18-.2,0.174-0.366,0.054a2.042,2.042,0,0,1-.568-0.769c-0.122-.225-0.257-0.451-0.473-0.053-0.13.238-.469,0.212-0.626,0.443-0.074.109-.113-0.019-0.166-0.059a1.3,1.3,0,0,0-1.816-.015,1.648,1.648,0,0,1-1.809.377c-0.187-.1-0.266.061-0.365,0.184-0.134.168-.259,0.316-0.429-0.007a0.971,0.971,0,0,0-1.547-.14c-0.214.234-.554,0.438-0.248,0.855a0.473,0.473,0,0,0,.582.237c0.428-.149.488,0.131,0.416,0.4a0.671,0.671,0,0,0,.227.883c0.132,0.086.182,0.238-.078,0.255a0.922,0.922,0,0,1-.867.014c-0.209-.172-0.37.144-0.547,0.239-0.212.114-.344,0.229-0.395-0.132a4.966,4.966,0,0,0-.219-0.75c-0.114-.364-0.5-0.514-0.7-0.215-0.562.807-1.393,0.682-2.179,0.719a3.186,3.186,0,0,0-.87.089c-0.319.1-.512,0.023-0.491-0.36,0.018-.314-0.016-0.607-0.458-0.381-0.143.073-.189-0.033-0.263-0.1a0.785,0.785,0,0,0-1.178-.123C361.589,218.882,361.406,219,361.115,219.171ZM362,228.046a1.67,1.67,0,0,0,.618-1.786,0.977,0.977,0,0,1,.056-0.352c0.037-.311.147-0.646-0.346-0.731a0.218,0.218,0,0,1-.146-0.355,0.226,0.226,0,0,0-.138-0.336,0.266,0.266,0,0,0-.326.09c-0.381.343-.62,0.166-0.894-0.207a1.961,1.961,0,0,1,.021-2.1,2.807,2.807,0,0,1,.547-1.222c0.519-.5.1-1.033,0.045-1.553a0.762,0.762,0,0,1-.062-0.154,1.086,1.086,0,0,1,1.349-.317,0.456,0.456,0,0,0,.657.2,2.382,2.382,0,0,0,.061.439c0.105,0.3.216,0.542,0.651,0.365a4.936,4.936,0,0,1,1.7-.141,1.7,1.7,0,0,0,1.43-.619,0.3,0.3,0,0,1,.338-0.187,0.343,0.343,0,0,1,.152.314,4.3,4.3,0,0,0,.154.479c0.249,0.711.251,0.714,0.922,0.321a0.4,0.4,0,0,1,.424-0.047,1.424,1.424,0,0,0,1.121-.27c0.229-.118.027-0.4-0.13-0.537a0.452,0.452,0,0,1-.176-0.549c0.177-.589-0.095-0.881-0.7-0.806a0.276,0.276,0,0,1-.313-0.133,0.245,0.245,0,0,1,.024-0.324,0.776,0.776,0,0,1,1.429.085,3.007,3.007,0,0,0,2.254,1.413,0.567,0.567,0,0,1,.578.285,0.683,0.683,0,0,1-.226.622,2.576,2.576,0,0,0-.635.835c-0.076.262-.051,0.4,0.22,0.488a3.187,3.187,0,0,1,.555.235,0.846,0.846,0,0,1,.406,1.132,2.244,2.244,0,0,0,.055,2.315,0.472,0.472,0,0,1-.062.538c-0.145.2-.278,0.132-0.43,0.041a0.426,0.426,0,0,0-.218-0.008c-0.575-.044-0.6-0.078-0.486-0.664,0.014-.075.057-0.171-0.018-0.211a0.293,0.293,0,0,0-.3.062,4.29,4.29,0,0,0-.874.671c-0.384.473-1.059,0.63-1.287,1.24a0.149,0.149,0,0,1-.17.106,2.128,2.128,0,0,0-1.827,1.319,0.773,0.773,0,0,1-1.311.234,1.579,1.579,0,0,0-1.817-.1,1.192,1.192,0,0,1-1.066-.084,0.617,0.617,0,0,0-.748.111c-0.194.211-.42-0.087-0.646-0.075A1.968,1.968,0,0,1,362,228.046Zm33.558-2.749c0.42,0.367.563,0.1,0.658-.257a2.84,2.84,0,0,0,.131-1.085,0.767,0.767,0,0,1,.472-0.973,0.236,0.236,0,0,0,.154-0.207,4.371,4.371,0,0,0,.078-2.188,2.132,2.132,0,0,0-.447-0.795c-0.279-.36-0.22-0.565.191-0.738a1.146,1.146,0,0,0,.835-0.943,0.388,0.388,0,0,1,.382-0.381c0.443-.075.885-0.149,1.324-0.241a0.429,0.429,0,0,1,.456.241c0.21,0.265.409,0.539,0.628,0.8,0.4,0.466.753,0.482,1.077-.018a0.412,0.412,0,0,1,.686-0.147,0.637,0.637,0,0,0,.869-0.077,2.533,2.533,0,0,1,1-.378,0.3,0.3,0,0,1,.341.252c0.035,0.189-.147.146-0.254,0.18a0.678,0.678,0,0,0-.155,1.165,0.746,0.746,0,0,1,.267.945,0.4,0.4,0,0,0,.329.562,1.724,1.724,0,0,1,.953.587,1.951,1.951,0,0,0,1.188.537c0.375,0.021.434,0.187,0.249,0.491a1.315,1.315,0,0,0-.139.34,0.475,0.475,0,0,0,.208.6A5.274,5.274,0,0,1,408.3,224c0.257,0.068.411,0.128,0.272,0.418a0.336,0.336,0,0,0-.061.172c0.129,0.648-.331.614-0.743,0.649a0.906,0.906,0,0,0-1.009.726,0.307,0.307,0,0,1-.5.2,2.218,2.218,0,0,0-1.24-.034,0.3,0.3,0,0,0-.257.176,0.41,0.41,0,0,1-.129.178c-0.571-.094-0.632.474-0.952,0.7a3.972,3.972,0,0,1-1.631.821,1.211,1.211,0,0,1-.869-0.031,0.87,0.87,0,0,0-1.049.4,0.3,0.3,0,0,1-.468.064,0.365,0.365,0,0,0-.564.047,0.536,0.536,0,0,1-.63-0.052,9.012,9.012,0,0,0-1.635-.408,0.615,0.615,0,0,1-.577-0.591,0.742,0.742,0,0,0-.215-0.5A1.641,1.641,0,0,1,395.557,225.3Zm28.793-14.48a2.985,2.985,0,0,0,1.221-1.157,0.658,0.658,0,0,1,.739-0.359,0.318,0.318,0,0,0,.423-0.232c0.3-.649.283-0.636-0.262-1.112-0.132-.114-0.5-0.286-0.071-0.556a0.669,0.669,0,0,0-.021-0.532c-0.04-.231-0.008-0.372.3-0.374,0.333,0,.333-0.036.568-0.587a0.7,0.7,0,0,1,.442.727,0.886,0.886,0,0,0,.207.646,4.288,4.288,0,0,1,.82,1.16,0.608,0.608,0,0,0,.553.293c0.656,0.069,1.194.567,1.9,0.477a0.363,0.363,0,0,1,.328.393,6.222,6.222,0,0,0,.713,2.4c0.115,0.228.067,0.337-.194,0.354a5.584,5.584,0,0,0-1.845.519,2.37,2.37,0,0,1-1.183.13,5.056,5.056,0,0,0-3,.855,16.4,16.4,0,0,0-3.35,2.813,9.67,9.67,0,0,0-1.125,1.842,0.632,0.632,0,0,1-.477.362,9.681,9.681,0,0,0-1.15.36,0.741,0.741,0,0,0-.327.617c-0.053.117-.023,0.324-0.179,0.332a0.429,0.429,0,0,1-.409-0.257c-0.116-.252-0.255-0.5-0.35-0.755a1.122,1.122,0,0,0-.72-0.719c-0.216-.076-0.417-0.252-0.528.128-0.049.169-.2,0.076-0.314,0.037-0.351-.119-0.7-0.231-1.058-0.346a0.618,0.618,0,0,1-.575-0.7c0.037-.311-0.294-0.306-0.475-0.419-0.215-.134-0.25.089-0.332,0.2s-0.122.316-.339,0.171c-0.238-.159-0.04-0.238.061-0.34a0.356,0.356,0,0,0-.034-0.533c-0.154-.2-0.092-0.284.117-0.419a9.813,9.813,0,0,0,3.272-3.042,0.5,0.5,0,0,1,.5-0.323,0.482,0.482,0,0,0,.478-0.422,0.739,0.739,0,0,1,.822-0.522,4.371,4.371,0,0,1,1.451-.128,1.83,1.83,0,0,0,.865.118,0.533,0.533,0,0,0,.384-0.129c0.176-.237.289-0.072,0.4,0.054a2.2,2.2,0,0,0,.335.291c0.462,0.366.817-.069,1.219-0.116a0.265,0.265,0,0,0,.138-0.164,2.039,2.039,0,0,1,.067-0.97c-0.027-.016-0.036-0.031-0.026-0.045A0.037,0.037,0,0,1,424.35,210.817ZM401.61,236.8a1.739,1.739,0,0,1-1,1.734,0.964,0.964,0,0,0-.366.983,6.488,6.488,0,0,0,.248,1.915,0.437,0.437,0,0,1-.326.617,22.232,22.232,0,0,0-2.957,1.334c-0.5.312-.99,0.633-1.5,0.925-0.162.093-.288,0.374-0.554,0.17a0.936,0.936,0,0,1-.446-0.763,4.453,4.453,0,0,1,.324-1.2,1.447,1.447,0,0,0,.107-1.2,1.676,1.676,0,0,0-1.07-1,0.3,0.3,0,0,1-.134-0.032,4.474,4.474,0,0,0-1.376-1.073,1.528,1.528,0,0,1,0-1.385,1.356,1.356,0,0,1,1.075-.315,3.582,3.582,0,0,1,.678.155,1.507,1.507,0,0,0,.957.017,2.111,2.111,0,0,1,1.28-.037,1.108,1.108,0,0,0,.921-0.2,1.224,1.224,0,0,1,.91-0.266,1.427,1.427,0,0,0,1.119-.3,0.457,0.457,0,0,0,.174-0.742,1.344,1.344,0,0,0-1.249-.858,0.205,0.205,0,0,1-.241-0.092c-0.055-.148.086-0.171,0.171-0.227l0.039-.024c0.605-.372.605-0.373,0.312-0.966a0.9,0.9,0,0,0-1.028-.236,4.98,4.98,0,0,1-1.166.291,0.559,0.559,0,0,1-.655-0.208,0.577,0.577,0,0,1,.318-0.693,1.318,1.318,0,0,1,.838-0.184,0.777,0.777,0,0,0,1.036-.556,0.575,0.575,0,0,1,.582-0.289c0.2-.048.1,0.173,0.144,0.267s0.055,0.2.178,0.152a2.262,2.262,0,0,0,.99-0.348,2.092,2.092,0,0,1,.877-0.405,0.337,0.337,0,0,1,.4.031,1.219,1.219,0,0,0,.906.374c0.27,0.061.623,0.2,0.553-.338-0.017-.123.14-0.166,0.229-0.2a1.055,1.055,0,0,0,.645-0.724c0.145-.375.332-0.651,0.831-0.389a0.4,0.4,0,0,0,.538-0.283c0.02-.081-0.043-0.2.105-0.2a0.229,0.229,0,0,1,.251.168,1.284,1.284,0,0,0,1.2,1.008,0.752,0.752,0,0,1,.439.513c0.038,0.115.019,0.152-.111,0.176-0.422.076-.35,0.257-0.116,0.511,0.281,0.306.562,0.625,0.864,0.894,0.388,0.347.344,0.971,0.872,1.193,0.061,0.025-.006.1-0.03,0.153a0.463,0.463,0,0,0,.41.684,0.2,0.2,0,0,1,.246.123,0.3,0.3,0,0,1-.056.247,0.99,0.99,0,0,1-1.27.464,2.471,2.471,0,0,1-1.922-1.095,1.431,1.431,0,0,0-1.884-.045,0.716,0.716,0,0,1-.936.252,0.311,0.311,0,0,0-.432.116,2.234,2.234,0,0,1-.8.733C401.5,236.25,401.665,236.624,401.61,236.8ZM376.038,250.5c0.167-.114.271,0.059,0.4,0.1s0.224,0.195.374,0.062a0.355,0.355,0,0,0,.076-0.424c-0.072-.2-0.31-0.39.066-0.59,0.168-.09-0.027-0.322-0.151-0.415a0.55,0.55,0,0,1-.221-0.818,0.312,0.312,0,0,0-.028-0.351,0.52,0.52,0,0,1,.11-0.77A4.266,4.266,0,0,0,377.26,246a0.618,0.618,0,0,0-.666-0.754,0.584,0.584,0,0,1-.526-0.766c0.253-.45.3-0.96,0.526-1.411a0.347,0.347,0,0,0-.122-0.518,0.861,0.861,0,0,1-.351-1.042c0.032-.242.192-0.274,0.3-0.114,0.307,0.464.673,0.124,0.982,0.069a1.308,1.308,0,0,1,.544-0.052,2.154,2.154,0,0,0,.853.136,0.336,0.336,0,0,1,.35.355,0.425,0.425,0,0,0,.492.379,0.587,0.587,0,0,1,.383.122,1.187,1.187,0,0,0,1.585-.166c0.068-.069.112-0.206,0.252-0.136a0.488,0.488,0,0,1,.338.352,2.438,2.438,0,0,1-.025.5,1.7,1.7,0,0,0,.174,1.161c0.261,0.414.171,0.937,0.416,1.359a0.789,0.789,0,0,0,.311.381c0.625,0.326.625,0.358,0.184,0.92a0.942,0.942,0,0,1-.188.2,1.287,1.287,0,0,0-.71.448,4,4,0,0,0,.319,1.194c0.373-.235.708-0.449,1.046-0.658,0.484-.3.787-0.18,0.873,0.373a8.371,8.371,0,0,1,.047.965,0.276,0.276,0,0,1-.158.263,0.622,0.622,0,0,0-.123.064c-0.246.219-.485,0.464-0.729,0.659-0.177.141-.538-0.3-0.953-0.145,0.711,0.416.05,0.937,0.152,1.413a0.207,0.207,0,0,1-.143.1c-0.457.022-.6,0.546-1.036,0.621a0.285,0.285,0,0,0-.175.473c0.231,0.3.208,0.481-.141,0.63a0.782,0.782,0,0,0-.086.355c-0.211-.105-0.471-0.337-0.63.1-0.055.15-.21,0.088-0.312,0a0.387,0.387,0,0,0-.415-0.14c-0.389.308-.93-0.006-1.314,0.373a0.875,0.875,0,0,1-1.02-.257,0.654,0.654,0,0,0-.855-0.336c-0.4.143-.835-0.208-1.232,0.081a0.375,0.375,0,0,1-.169-0.138,0.387,0.387,0,0,0-.543-0.252,0.319,0.319,0,0,1-.329-0.268,2.844,2.844,0,0,0-.592-1.415,0.125,0.125,0,0,1,.019-0.177,0.613,0.613,0,0,1,.393.252c0.262,0.156.526,0.408,0.671-.131,0.08-.3.262-0.112,0.368-0.006,0.33,0.329.522,0.305,0.923-.1,0.305-.309.161-0.512-0.128-0.7a0.282,0.282,0,0,1-.063-0.066A0.106,0.106,0,0,1,376.038,250.5Zm22.139-19.548a1.464,1.464,0,0,0-.3.993,0.567,0.567,0,0,1-.731.672,1.9,1.9,0,0,0-1.009.15,1.177,1.177,0,0,0-.617.988,0.772,0.772,0,0,0,.829.5,3.833,3.833,0,0,0,1.34-.3,0.95,0.95,0,0,1,.693-0.019,0.453,0.453,0,0,1,.265.412c0.065,0.174-.1.209-0.194,0.273a2.457,2.457,0,0,0-.289.164c-0.109.093-.4,0.066-0.261,0.341,0.1,0.2.167,0.488,0.489,0.407a0.853,0.853,0,0,1,.812.292,0.688,0.688,0,0,1,.356.706,0.831,0.831,0,0,1-.825.456,1.977,1.977,0,0,0-1.487.331,0.5,0.5,0,0,1-.3.126c-1.1-.263-2.234.319-3.336-0.125a1.538,1.538,0,0,0-1.3.291,1.719,1.719,0,0,0-.3.977,0.354,0.354,0,0,1-.3-0.472c0.024-.122.045-0.313-0.092-0.335-0.4-.062-0.256-0.339-0.266-0.557a2.494,2.494,0,0,0-.151-0.74,0.327,0.327,0,0,0-.347-0.268c-0.37.063-.476-0.122-0.51-0.436a0.962,0.962,0,0,0-.452-0.693,0.465,0.465,0,0,1-.129-0.788,2.915,2.915,0,0,0,.356-1.632,0.234,0.234,0,0,0-.1-0.193c-0.443-.05-0.617-0.617-1.145-0.546a0.778,0.778,0,0,1-.492-0.472,0.5,0.5,0,0,0-.9.122,6.539,6.539,0,0,1-.451.887c-0.347.55-.692,0.538-1-0.017A1.884,1.884,0,0,1,385.79,231c0.075-.295.194-0.807-0.464-0.786-0.169.006-.317-0.1-0.127-0.3,0.043-.045.072-0.1,0.117-0.147,0.173-.162-0.2-0.517.135-0.553a5.135,5.135,0,0,1,1.632-.235c0.722,0.15.807,0.06,1.048-.663a1.066,1.066,0,0,1,1.029-.993,1.42,1.42,0,0,0,.611-0.615,0.713,0.713,0,0,0,.119-0.136,1.06,1.06,0,0,1,.363.5,1.531,1.531,0,0,0,1.337.992,1.609,1.609,0,0,1,.941.426,7.578,7.578,0,0,0,1.758,1.2,1.014,1.014,0,0,1,.279.181,1.655,1.655,0,0,0,1.641.49,0.835,0.835,0,0,1,.708.209,1.419,1.419,0,0,0,1.167.286C398.189,230.815,398.2,230.868,398.177,230.949Zm11,5.038c0.3-.517.184-0.785-0.409-0.95-0.231-.064-0.2-0.2-0.063-0.335s0.2-.338.043-0.385c-0.645-.189-0.649-0.9-1.1-1.244-0.133-.1-0.218-0.261-0.342-0.377-0.209-.193-0.4-0.336-0.133-0.665a1.263,1.263,0,0,0-.63-1.125,1.121,1.121,0,0,1-1.051-.781,0.43,0.43,0,0,0-.654-0.3,2.852,2.852,0,0,1-.928.369,1.02,1.02,0,0,0-.612.63,0.883,0.883,0,0,1-.485.566,0.556,0.556,0,0,0-.452.47c0,0.1-.05.117-0.149,0.084a2.015,2.015,0,0,1-.7-0.22,1.127,1.127,0,0,0-1.462.023,1.9,1.9,0,0,1-1,.471c0.025-.382-0.161-0.467-0.5-0.37-0.136.038-.371,0.24-0.413,0.008a0.468,0.468,0,0,1,.264-0.563,0.556,0.556,0,0,0,.2-0.113,0.387,0.387,0,0,0,.139-0.483,0.312,0.312,0,0,0-.453-0.076,1.151,1.151,0,0,1-1.339-.177,1.171,1.171,0,0,0-1.017-.166,1.022,1.022,0,0,1-.9-0.246c-0.53-.452-1.223-0.666-1.746-1.135a3.2,3.2,0,0,0-1.862-.944,0.532,0.532,0,0,1-.545-0.514,0.814,0.814,0,0,1,.877-0.568,1.032,1.032,0,0,1,.723.25,0.237,0.237,0,0,0,.212.036c0.306-.4.722-0.1,1.075-0.177a0.524,0.524,0,0,0,.423-0.146c0.323-.66.868-0.235,1.23-0.161a0.946,0.946,0,0,1,.612.952,0.425,0.425,0,0,0,.4.5,4.187,4.187,0,0,0,1.155.282,7.192,7.192,0,0,1,1.25.379c0.015,0,.033.026,0.038,0.023,0.463-.291,1.1.235,1.516-0.335a0.691,0.691,0,0,1,.974-0.155,1.442,1.442,0,0,0,1.212-.219,2.566,2.566,0,0,0,1.643-1.241,0.217,0.217,0,0,1,.247-0.073,0.382,0.382,0,0,0,.309-0.068,1.224,1.224,0,0,1,1.574-.25,0.557,0.557,0,0,0,.679-0.476,0.4,0.4,0,0,1,.606-0.322,2.082,2.082,0,0,0,.593.112c0.413,0.027.7,0.135,0.561,0.638-0.055.2,0.128,0.247,0.26,0.324a0.4,0.4,0,0,0,.509-0.069,3.5,3.5,0,0,1,.935-0.673,0.66,0.66,0,0,1,1,.681,3.5,3.5,0,0,0,.091,1.054,1.47,1.47,0,0,1-.08,1.125,1.435,1.435,0,0,0,.109,1.246c0.05,0.1.2,0.2,0.06,0.321a0.339,0.339,0,0,1-.358.028c-0.814-.416-1.82-0.292-2.554-0.979-0.378-.355-0.433-0.282-0.484.242a3.153,3.153,0,0,0,.437,1.976,32.077,32.077,0,0,0,1.857,2.822,1.537,1.537,0,0,1,.066,1.76,0.448,0.448,0,0,1-.627.1C409.88,235.9,409.458,236.1,409.179,235.987Zm-31.387-14.052a1.51,1.51,0,0,1,.793.212,1.779,1.779,0,0,0,1.541-.194c0.4-.161.769-0.4,1.153-0.6a0.865,0.865,0,0,1,.8-0.049c0.361,0.167.683,0.4,1.044,0.576a0.708,0.708,0,0,1,.268.741,0.923,0.923,0,0,0,.812,1.093,8.715,8.715,0,0,1,2.089.9,0.887,0.887,0,0,1,.43.414,2.458,2.458,0,0,0,1.987,1.186,5.987,5.987,0,0,1,.82.155,0.269,0.269,0,0,1,.145.488,0.819,0.819,0,0,1-.716.467,1.559,1.559,0,0,0-.913,1.258c-0.01.328-.167,0.449-0.428,0.37a3.87,3.87,0,0,0-1.838.139c-0.3.052-.321-0.055-0.409-0.242a11.409,11.409,0,0,0-.724-1.891,4.737,4.737,0,0,1-.692-1.74,1.064,1.064,0,0,0-1.612-.545c-0.155.125-.22,0.21-0.024,0.341a1.344,1.344,0,0,1,.14.122c0.195,0.171.456,0.333,0.256,0.639a0.831,0.831,0,0,1-.949.145,0.506,0.506,0,0,0-.623-0.122,2.781,2.781,0,0,1-2.936-.233,0.576,0.576,0,0,0-.665.011,10.8,10.8,0,0,0-1.56,1.237,0.423,0.423,0,0,0-.165.445,2.147,2.147,0,0,1,.049.366c0.018,0.668-.314.911-0.842,0.53a1.569,1.569,0,0,0-1.689-.107,0.6,0.6,0,0,1-.816-0.155,3.077,3.077,0,0,1-.587-0.509c-0.06-.137-0.379-0.026-0.268-0.278a0.622,0.622,0,0,1,.486-0.441,2.8,2.8,0,0,0,1.71-1.111,0.426,0.426,0,0,0,.117-0.382,1.012,1.012,0,0,1,.242-0.845,3.152,3.152,0,0,0,.43-1.109,1,1,0,0,1,1.135-.974,2.9,2.9,0,0,0,1.526-.286A0.55,0.55,0,0,1,377.792,221.935Zm-25.634,39.311a0.333,0.333,0,0,1-.323.444,1.112,1.112,0,0,0-.68.9c0.118,0.222.011,0.254-.092,0.389-0.193.252,0.1,0.627,0.552,0.749a1.2,1.2,0,0,0-.237,1.1c0.06,0.272.312,0.609-.284,0.529a0.457,0.457,0,0,0-.159.16,0.267,0.267,0,0,1-.049-0.064c-0.051-.158-0.051-0.419-0.223-0.415a0.488,0.488,0,0,0-.34.447,1.24,1.24,0,0,0-.014.138c-0.029.186,0.112,0.444-.134,0.537a0.708,0.708,0,0,1-.521-0.289c-0.394-.135-0.6-0.628-1.1-0.549a0.346,0.346,0,0,1-.2-0.1,1.064,1.064,0,0,0-1.324.018c-0.065.041-.117,0.12-0.2,0.073-0.459-.271-0.591-0.036-0.727.38a0.93,0.93,0,0,1-1.009.713,0.627,0.627,0,0,0-.263.073,1.213,1.213,0,0,1-.249.121,5.527,5.527,0,0,0-2.468,1.477c-0.136.1-.326,0.242-0.469,0a0.321,0.321,0,0,1,.194-0.534,1.156,1.156,0,0,0,.735-0.654c0.365-.92.661-1.867,1.082-2.767a4.413,4.413,0,0,0,.2-1.91,1.083,1.083,0,0,1,.6-0.942c0.67-.465,1.6-0.6,1.96-1.477a0.5,0.5,0,0,1,.6-0.21c0.6,0.032.714-.039,0.7-0.606a1,1,0,0,1,.741-1.115,3.035,3.035,0,0,0,.965-0.841,6.411,6.411,0,0,1,1.33-.727c0.246-.145.386,0.1,0.483,0.238a1.243,1.243,0,0,0,.665.461c1.294,0.471,1.377.867,0.418,1.836a4.435,4.435,0,0,0-.479.618,0.352,0.352,0,0,0,.121.448c0.157,0.208.239,0.4-.08,0.547a0.192,0.192,0,0,0-.1.093,0.889,0.889,0,0,0-.336.5A0.659,0.659,0,0,0,352.158,261.246Zm42-46.165a0.73,0.73,0,0,1-.554.085,0.577,0.577,0,0,0-.766.207c-0.434.405-.436,0.424-0.018,0.855a0.317,0.317,0,0,1,.085.1,0.552,0.552,0,0,1,.055.558c-0.191.289-.372-0.073-0.55,0.024-0.064.508-.064,0.507-0.6,0.3-0.157-.062-0.321-0.11-0.475-0.177a0.509,0.509,0,0,0-.812.324,0.122,0.122,0,0,1-.212.062,1.176,1.176,0,0,1-.579-0.739c-0.054-.4-0.1-0.793-0.122-1.191a0.429,0.429,0,0,0-.239-0.4c-0.3-.17-0.535-0.255-0.689.182a1.374,1.374,0,0,1-.695.656c-0.317.185-.34-0.161-0.368-0.294-0.159-.759-0.515-1.447-0.742-2.18-0.108-.352-0.219-0.7-0.351-1.049a1.627,1.627,0,0,1,.564-2.082c0.474-.365.478-0.591-0.017-0.9a0.579,0.579,0,0,1-.214-0.569c-0.011-.23.207-0.2,0.345-0.2a0.442,0.442,0,0,0,.461-0.368,1.511,1.511,0,0,1,.186-0.37,0.566,0.566,0,0,1,.583-0.423c0.4,0.057.814,0.064,0.867,0.591a0.411,0.411,0,0,0,.5.45,0.24,0.24,0,0,1,.251.271,7.507,7.507,0,0,0,.228.764c0.009,0.3.251,0.314,0.47,0.323a0.332,0.332,0,0,0,.4-0.353c-0.031-.379.174-0.323,0.425-0.31a10.98,10.98,0,0,0,1.32-.055,4.12,4.12,0,0,1,1.245-.01,0.175,0.175,0,0,1,.178.168,0.452,0.452,0,0,0,.019.182,3.807,3.807,0,0,0,.286.911c0.267,0.314.581,0.005,0.871,0.009a9.382,9.382,0,0,1,1.166.226c0.337,0.047.407,0.849,0.126,1.176a1.6,1.6,0,0,1-1.45.706c-0.347-.03-0.734.124-1.132,0.11a0.5,0.5,0,0,0-.522.687,3.372,3.372,0,0,1,.194,1.12A1.041,1.041,0,0,0,394.161,215.081Zm29.727,12.072-2.934,1.86a4.706,4.706,0,0,0-1.468,1.33,0.838,0.838,0,0,0-.139.522,0.721,0.721,0,0,1-.184.592,0.83,0.83,0,0,0,.031.718,0.373,0.373,0,0,0,.406-0.053c0.081-.065.181-0.047,0.161,0.033a1.388,1.388,0,0,1-.231.518,0.236,0.236,0,0,1-.366-0.035,1.267,1.267,0,0,0-.681-0.268,0.706,0.706,0,0,1-.693-0.663,0.255,0.255,0,0,0-.325-0.238,2.4,2.4,0,0,0-1.163.229,1,1,0,0,1-1.3-.212,1.692,1.692,0,0,0-1.36-.636,4.192,4.192,0,0,1-1.042-.221,1.272,1.272,0,0,1-.737-1.689,1.258,1.258,0,0,0,.082-1.08c-0.154-.62-0.149-0.634.468-0.774a0.683,0.683,0,0,0,.536-0.385,1.117,1.117,0,0,1,.917-0.617,1.732,1.732,0,0,0,1.214-.448,0.122,0.122,0,0,1,.169,0,8.5,8.5,0,0,0,1.695.36c0.26,0.109.293-.026,0.289-0.226a1.087,1.087,0,0,1,.849-0.978,0.769,0.769,0,0,1,.963.354,0.341,0.341,0,0,0,.163.155,0.944,0.944,0,0,1,.923.324c0.248,0.27.692-.1,1.064-0.087a0.745,0.745,0,0,0,.381-0.156,1.326,1.326,0,0,1,1.675.257,0.35,0.35,0,0,0,.275.236,0.541,0.541,0,0,1,.183.715C423.462,226.857,423.43,227.055,423.888,227.153Zm-15.773-1.641c0.227-.144.661-0.011,0.63-0.307-0.044-.412.159-0.762,0.138-1.149a0.272,0.272,0,0,0-.113-0.187c-0.55.077-.8-0.62-1.377-0.508-0.349.067-.361-0.2-0.29-0.455a1.093,1.093,0,0,0,.232-0.845,1.021,1.021,0,0,0-.826-0.2,3.751,3.751,0,0,1-1.256-.8,1.36,1.36,0,0,0-.322-0.246c-0.533-.013-0.48-0.308-0.349-0.65a0.437,0.437,0,0,0-.178-0.6,0.708,0.708,0,0,1-.143-0.118,0.6,0.6,0,0,1-.229-0.735,0.873,0.873,0,0,1,.843-0.208c0.042,0,.089-0.009.1,0.058,0.108,0.595.612,0.545,1.035,0.621a3,3,0,0,0,.838.241,0.884,0.884,0,0,0,.8-0.36,1.012,1.012,0,0,1,.944-0.456,3.82,3.82,0,0,0,1.2-.4,2.468,2.468,0,0,1-.833,1.172c-0.106.165-.228,0.237-0.072,0.453a3.357,3.357,0,0,1,.242.642,0.508,0.508,0,0,0,.5.282,0.358,0.358,0,0,0,.318-0.334,0.736,0.736,0,0,1,1.073-.368,2.367,2.367,0,0,0,.911.322,0.76,0.76,0,0,1,.75.958c-0.023.215-.041,0.43-0.074,0.643-0.052.34-.3,0.749,0.349,0.8a0.5,0.5,0,0,1,.174.3,0.643,0.643,0,0,0,1.005.467,0.35,0.35,0,0,1,.385-0.07,1.54,1.54,0,0,0,1.551-.062,1.453,1.453,0,0,1,1.545.576,0.514,0.514,0,0,1-.148.754,0.957,0.957,0,0,0-.583.773c0,0.132-.109.123-0.205,0.1a4.522,4.522,0,0,1-1.519-.313c-0.156-.1-0.328-0.171-0.43.116a0.606,0.606,0,0,1-.589.291,1.734,1.734,0,0,0-1.568.883,0.94,0.94,0,0,1-.712.267c-0.071.023-.082-0.053-0.1-0.116-0.317-1.226-1.029-1.435-2.008-.591a3.265,3.265,0,0,1-.392.325c-0.142.089-.333,0.04-0.293-0.134C409.269,225.508,408.622,225.607,408.115,225.512Zm6.314-7.667c0.169,0.078.161-.183,0.258-0.286,0.078-.084.1-0.25,0.274-0.174a0.227,0.227,0,0,1,.177.242,0.717,0.717,0,0,0,.648.772c0.449,0.182.919,0.312,1.382,0.459a0.252,0.252,0,0,0,.334-0.031,0.439,0.439,0,0,1,.773.146c0.166,0.314.307,0.641,0.464,0.96a0.639,0.639,0,0,0,.177.265c0.5,0.372.686,0.309,0.875-.27a0.613,0.613,0,0,1,.233-0.524,4.973,4.973,0,0,1,1.206-.372c0.081-.007.206,0.052,0.157,0.111-0.325.394,0.1,0.691,0.139,1.032a4.842,4.842,0,0,0,.339,1.1,7.025,7.025,0,0,0,.418.876,9.532,9.532,0,0,0,.947,2.142,0.965,0.965,0,0,1,.079.49,0.315,0.315,0,0,1-.063.343c-0.137.083-.216-0.066-0.316-0.133a1.544,1.544,0,0,0-1.514.02,1.414,1.414,0,0,1-1.106.243,1.365,1.365,0,0,0-1.133-.364,1.125,1.125,0,0,0-1.072-.536c-0.1.008-.109-0.061-0.129-0.145a1.474,1.474,0,0,0-1.842-1.138,4.7,4.7,0,0,1-.842.218,7.681,7.681,0,0,0-1.755-.025,0.332,0.332,0,0,1-.167-0.133c0.189-.3-0.21-0.368-0.236-0.588s-0.427-.03-0.4-0.283a5.377,5.377,0,0,1,.244-1.4,1.608,1.608,0,0,1,.452-0.738,0.222,0.222,0,0,0,.063-0.329,5.021,5.021,0,0,0-.542-0.949c-0.249-.192-0.137-0.456.2-0.507a0.793,0.793,0,0,0,.91-0.526C414.1,217.667,414.24,217.75,414.429,217.845Zm-52.539,7.82c-0.17.368-.158,0.634,0.334,0.721,0.234,0.042.21,0.171,0.161,0.429a2.11,2.11,0,0,1-.639,1.124c-0.184.19-.074,0.369,0.2,0.41a1.277,1.277,0,0,1,1.335,1.466,2.279,2.279,0,0,1-.476,1.646,1.751,1.751,0,0,0-.493,1.069,0.254,0.254,0,0,1-.365.268,5.843,5.843,0,0,0-1.791-.057,1.363,1.363,0,0,1-1.61-1.126,3.629,3.629,0,0,1,.075-1.808,0.7,0.7,0,0,0,.022-0.495,0.846,0.846,0,0,1,.2-1,0.457,0.457,0,0,0-.084-0.727c-0.4-.276-0.252-0.539.018-0.73a1.021,1.021,0,0,0,.28-1.165,0.383,0.383,0,0,0-.218-0.277c-0.805-.1-0.621-0.83-0.731-1.273a4.456,4.456,0,0,1-.186-1.863,0.263,0.263,0,0,0-.026-0.18,2.215,2.215,0,0,1-.238-1.594,2.92,2.92,0,0,0-.112-1.232,0.462,0.462,0,0,1,.09-0.535c0.057,0.241.081,0.5,0.453,0.308,0.174-.088.282,0.14,0.383,0.271,0.432,0.563.855,0.548,1.232-.057a5.992,5.992,0,0,1,1.033-1.623c0.23,0.277.227,0.276,0.107,0.558a1.5,1.5,0,0,0-.021.588,2.135,2.135,0,0,0,.411,1.139,1.012,1.012,0,0,1-.35,1.347,0.221,0.221,0,0,0-.087.106,10.95,10.95,0,0,1-.617,2.009,0.762,0.762,0,0,0,.2.639,0.583,0.583,0,0,1,.138.675c-0.119.226,0.046,0.306,0.253,0.286a0.873,0.873,0,0,1,.5.055c0.137,0.068.253,0.084,0.207,0.316-0.055.272,0.114,0.426,0.42,0.324Zm51.3,12.418a22.722,22.722,0,0,1-3.514,1.276c-0.3.069-.605,0.062-0.9,0.11q-1.146.183-2.28,0.435a28.536,28.536,0,0,0-4.278,1.2c-0.371.147-.727,0.334-1.088,0.507-0.206.1-.324,0.1-0.383-0.178a9.843,9.843,0,0,1-.241-1.78,1.019,1.019,0,0,1,.636-1.14,1.2,1.2,0,0,0,.642-1.195c-0.087-.831.519-1.193,0.925-1.7a0.257,0.257,0,0,1,.329-0.045,0.833,0.833,0,0,0,.956-0.252,1.094,1.094,0,0,1,1.731.075c0.683,0.98,1.709.994,2.717,1.089a5.675,5.675,0,0,1,.886-0.209c0.1,0.022.278-.026,0.293,0.079,0.064,0.468.429,0.332,0.685,0.333a1.055,1.055,0,0,1,.955.459,0.676,0.676,0,0,0,.673.315,1.61,1.61,0,0,1,1.268.454A0.1,0.1,0,0,1,413.191,238.083Zm-39.375-13.6a1.545,1.545,0,0,1-.008-1.7,1.117,1.117,0,0,0-.646-1.6c-0.643-.248-0.638-0.311-0.164-0.83a1.9,1.9,0,0,0,.5-0.654,0.593,0.593,0,0,0-.524-0.878,4.91,4.91,0,0,1-1.577-.523c-0.446-.2-0.46-0.532-0.058-0.938,0.146,0.313.25,0.591,0.646,0.161a4.975,4.975,0,0,1,.877-0.324,3.184,3.184,0,0,0,.558-0.326,0.982,0.982,0,0,1,1.445.124c0.175,0.213.307,0.3,0.479,0.01a2.824,2.824,0,0,1,.562-0.382c0.1-.1.195-0.053,0.248,0.071,0.024,0.056.036,0.119,0.065,0.172,0.419,0.783.9,0.82,1.376,0.108,0.4-.6.392-0.586,0.991-0.175a0.993,0.993,0,0,1,.49.776,0.909,0.909,0,0,0,1.109.992,2.9,2.9,0,0,1,.928.264,0.394,0.394,0,0,1,.238.4,0.686,0.686,0,0,0,.612.78,0.839,0.839,0,0,1,.3,1,0.118,0.118,0,0,1-.155.052,1.942,1.942,0,0,0-1.635.427,4.532,4.532,0,0,1-.926.413,1.3,1.3,0,0,1-1.1-.1,1.261,1.261,0,0,0-1.21-.071,3.266,3.266,0,0,1-1.485.268,1.266,1.266,0,0,0-1.377,1.211A3.036,3.036,0,0,1,373.816,224.485Zm34.65,4.993c0.652,0.828,1.664.686,2.491,1.026a1.067,1.067,0,0,0,.688.078,6.242,6.242,0,0,1,1.522.3c0.157,0,.312.069,0.469,0.072a1.387,1.387,0,0,1,1.134.567,1.316,1.316,0,0,0,1.6.277,1.649,1.649,0,0,1,.715-0.223c0.332-.011.561,0.039,0.581,0.421,0.017,0.328.308,0.325,0.518,0.4a0.37,0.37,0,0,1,.241.361c0.222,0.755-.36.806-0.773,1.019-0.239.124-.487,0.23-0.731,0.346a2.888,2.888,0,0,0-1.38,1.312,2.728,2.728,0,0,1-1.278,1.274,1.583,1.583,0,0,0-.452.7c-0.226.307-.428,0.421-0.772,0.15a1.141,1.141,0,0,0-.793-0.284,1.332,1.332,0,0,1-1.1-.471,0.565,0.565,0,0,1-.191-0.821,1.313,1.313,0,0,0-.179-1.495c-0.736-1.088-1.5-2.154-2.136-3.309A2.458,2.458,0,0,1,408.466,229.478Zm-25.1-24.017a4.328,4.328,0,0,0-1.852-.01,1.124,1.124,0,0,0-.759.942c-0.026.135,0,.282-0.034,0.413a0.763,0.763,0,0,1-.787.732,5.563,5.563,0,0,0-1.146.162c-0.264.053-.411,0.008-0.442-0.287a3.7,3.7,0,0,0-.726-1.773,2.171,2.171,0,0,1-.29-1.241,0.674,0.674,0,0,1,.641-0.5,0.631,0.631,0,0,1,.707.233c0.112,0.146.085,0.474,0.353,0.4a0.957,0.957,0,0,0,.669-0.456c0.108-.222.178-0.425,0.475-0.124,0.243,0.247.463,0.094,0.605-.2a1.043,1.043,0,0,1,.223-0.534c0.5-.388.7-0.373,1.264,0.165a0.586,0.586,0,0,0,1.018-.133,2.92,2.92,0,0,0,.356-1.462c0.008-.172.03-0.266,0.227-0.224a0.461,0.461,0,0,0,.311-0.042c0.509-.242.58-0.219,0.716,0.32a0.848,0.848,0,0,1-.1.944,0.465,0.465,0,0,0,0,.559,1.677,1.677,0,0,1-.484,1.882A1.044,1.044,0,0,1,383.37,205.461Z" transform="translate(-341 -192)"/>
</svg>
