<svg id="Odisha_Janata_Party" data-name="Odisha Janata Party" xmlns="http://www.w3.org/2000/svg" width="162.438" height="162.438" viewBox="0 0 162.438 162.438">
  <defs>
    <style>
      .cls-1 {
        fill: #fff;
        stroke: #acacac;
        stroke-width: 2px;
      }

      .cls-2 {
        fill-rule: evenodd;
      }
    </style>
  </defs>
  <circle id="Ellipse_1_copy" data-name="Ellipse 1 copy" class="cls-1" cx="81.219" cy="81.219" r="80.219"/>
  <path class="cls-2" d="M72.891,50.063L59.3,48.837,56.068,87.1l-0.791.188a14.466,14.466,0,0,1-.962-3.131q-1.5-20.332-2.852-40.673a2.613,2.613,0,0,1,.459-1.809Q57.939,35.45,64.09,29.356a10.784,10.784,0,0,1,2.221-1.11L58.33,45.608l26.756,2.245,0.339-4.073a23.765,23.765,0,0,0,2.563-4.462c0.1-.3-1.926-1.311-3.276-2.192l1.242-2.647-0.966-.7c-1.086,1.414-2.557,2.679-3.185,4.272-1.748,4.436-3.985,6.865-8.338,8.031-1.944-3.123-4.045-6.256-5.884-9.535-1.313-2.342-.394-4.835,1.936-6.343,1.822-1.179,3.61-2.408,5.424-3.6a2.6,2.6,0,0,1,1.216-.614q3.721,0.094,7.437.353c3.564,0.247,5.165,2.187,4.362,5.708-0.518,2.271-.575,4.12,1.138,6,0.6,0.653.553,2.274,0.236,3.276-0.67,2.123-1.711,4.131-2.791,6.626,5.284,0.421,10.162.867,15.051,1.143a5.385,5.385,0,0,0,2.556-.989c3.985-2.224,7.961-2.689,11.646.427,3.033,2.564,6.693,2.334,10.227,2.741a37.4,37.4,0,0,0,6.806.448c3.356-.235,5.021,1.5,6.209,4.609-0.875,0-1.658.064-2.427-.01-6.7-.642-13.4-1.372-20.109-1.911a6.958,6.958,0,0,0-3.628.928c-5.452,2.964-9.528,7.554-14.13,11.555-4.348,3.781-5.857,7.832-6.54,12.956-0.451,3.383-.683,6.452.6,9.908,1.43,3.858,1.9,8.032,3.731,11.9,1.1,2.316.691,5.316,1.085,7.991a5.266,5.266,0,0,0,1.021,2.406,12.161,12.161,0,0,1,2.965,9.932c-0.6,5.477,1.391,11.3,2.678,16.882a27.9,27.9,0,0,0,3.313,7.149c2.827,4.981,7.339,7.165,12.977,7.257,1.574,0.025,3.149,0,5.2,0-1.441,2.689-2.562,4.948-3.87,7.094a2.465,2.465,0,0,1-1.885.795c-5.021-.117-10.046-0.258-15.054-0.612a2.788,2.788,0,0,1-1.85-2c0.664-5.648-1.834-9.643-5.637-13.641-5.816-6.116-8.583-13.9-9.91-22.162-0.069-.431-0.182-0.855-0.276-1.29a1.639,1.639,0,0,0-.685.156c-3.506,6.143-7.034,12.273-10.469,18.454a27.122,27.122,0,0,0-3.156,15.041c0.118,1.944,1.506,3.984,2.764,5.643,1.586,2.091,1.254,3.48-.832,4.872L59.259,152.3c0.709-.79,1.418-1.673,2.223-2.459a17.06,17.06,0,0,0,5.044-11.361c0.534-6.589,3.553-12.248,6.862-17.013-2.866-6.554-5.836-12.63-8.164-18.941-1.388-3.761-1.817-7.881-2.552-11.863a3.435,3.435,0,0,1,.579-2.3c4.708-6.927,7.444-14.35,6.1-22.864C68.5,60.131,69.968,55.235,72.891,50.063Zm19.149,44c-1.5-1.793-2.782-3.3-4.033-4.824-1.607-1.96-3.456-2.458-6.025-1.8A64.576,64.576,0,0,1,71.62,89.093c-1.974.169-2.523,1.1-2.862,2.744C66.2,104.277,72.1,114.5,84.246,118.368a3.283,3.283,0,0,0,2.7-.568,12.533,12.533,0,0,1,8.384-2.959c0.875-.03,1.747-0.116,2.765-0.186l-4.367-6.662,2.282,0.259c1.089-5.988-2.792-9.621-6.286-13.565Zm30.42,62.22c-1.331-.3-2.613-0.624-3.909-0.878a18.419,18.419,0,0,1-13.274-10.141,40.146,40.146,0,0,1-3.42-8.938c-1.166-4.821-1.84-9.76-2.693-14.484H89.2c0.1,0.922.13,1.673,0.268,2.4a41.118,41.118,0,0,0,12.55,23.257,7.168,7.168,0,0,1,2.59,6.414c-0.148,1.64-.028,3.3-0.028,5.692,4.689,0,8.856-.141,13.008.051A4.328,4.328,0,0,0,122.46,156.284ZM115.992,50.943c-5.086-4.305-11-3.781-12.787,1.181-1.732,4.814-5.1,7.805-9.206,10.331-2.619,1.609-4.517,1.1-6.659-1.108a70.234,70.234,0,0,0-7.977-7.09,3.386,3.386,0,0,0-5.032.868c-1.4,1.88-1.734,4.063.186,5.6A162.832,162.832,0,0,0,87.7,70.4a5.081,5.081,0,0,0,4.643-.327c3.348-2.556,6.3-5.621,9.45-8.44,1.737-1.555,3.494-3.105,5.366-4.493C110.015,55.021,112.983,53.042,115.992,50.943ZM74.737,122.5c-3.1,4.255-5.878,9.172-6.39,14.739-0.554,6.018-2.355,11.155-6.98,15.116l13.294,11.706,0.769-.3a10.851,10.851,0,0,0-.68-2.36c-0.982-1.79-2.85-3.436-3.019-5.263-0.42-4.553-.641-9.248,1.5-13.582,2.4-4.875,4.85-9.729,7.333-14.7Zm10.057-1.26L70.944,112.5l-0.51.3L81.6,127.4Zm16.344-3.422c-5.056-2.31-10.846-1.371-13.149,1.987C92.442,120.03,97.014,121.827,101.138,117.822ZM65.892,99.207l0.4-.049,0.984-9.768H64.055Zm94.88-31.936-6.715,3.323,3.622,11.248,7.358-1.735c0.652,6,1.286,11.838,1.963,18.058h-7.809c-0.516,4.413-.992,8.488-1.508,12.9l7.524,1.641c-2.035,5.734-3.981,11.214-6.022,16.965-2.079-.8-3.963-1.623-5.918-2.214a2.438,2.438,0,0,0-2.138.4c-2.39,3.382-4.625,6.873-6.976,10.432l5.7,4.42-12.664,13.064L131,148.431c24.928-21,33.5-46.9,21.1-76.884C141.522,45.937,120.544,33.093,92.2,32.286V23l17.29,2.3c-0.424,2.473-.8,4.666-1.18,6.874l13,4.426,3.539-6.761,14.824,10.138-4.295,5.805,10.657,10.146,5.9-4.283C154.851,56.8,157.708,61.853,160.772,67.272ZM58.286,150.559l-5.17,8.244L38.906,147.4l5.6-6.153-6.776-8.29-6.518,4.56-8.462-15.96,7.493-3.68-2.073-7.49-8.112,1.532L19,93.787h7.848l0.99-9.516L19.6,82.5l5.864-17.167,7.356,2.9,4.77-8.163-6.427-4.157L42.944,42.564l6.32,6.8C34.07,63.114,27.3,80.815,28.808,101.645,30.336,122.74,40.993,138.492,58.286,150.559ZM83.721,170l0.774-9.763h16.111c0.433,3.169.871,6.368,1.336,9.763H83.721Z" transform="translate(-11.281 -15.281)"/>
</svg>
