<svg id="ORHERS" xmlns="http://www.w3.org/2000/svg" width="162.438" height="162.438" viewBox="0 0 162.438 162.438">
  <defs>
    <style>
      .cls-1, .cls-2 {
        fill: #fff;
      }

      .cls-1 {
        stroke: #acacac;
        stroke-width: 2px;
      }

      .cls-2, .cls-3 {
        fill-rule: evenodd;
      }

      .cls-3 {
        fill: #1e2930;
      }
    </style>
  </defs>
  <circle id="Ellipse_1_copy" data-name="Ellipse 1 copy" class="cls-1" cx="81.219" cy="81.219" r="80.219"/>
  <path class="cls-2" d="M90.424,79.531c0.063,0.7-.246.881-0.929,0.94a9.83,9.83,0,0,0-5.923,2.252c-1.368,1.2-2.725.736-3.243-1.017-0.211-.715-0.31-1.466-0.46-2.2l-0.126-.123a38.632,38.632,0,0,1-.091-4.232c0-.114.007-0.228,0.019-0.341,0.188-1.755.365-3.511,0.561-5.265a2.2,2.2,0,0,1,.032-0.324,4.919,4.919,0,0,0-.029-1.934c-0.059-3.425-.495-6.857-0.207-10.267,0.33-3.916-.054-7.852.5-11.751a10.365,10.365,0,0,1,1.181-3.5,0.523,0.523,0,0,1,.452-0.317,8.393,8.393,0,0,1,2.312-2.136c2.138-1.112,3.933-.545,5.038,1.629l0.523,1.031a1.593,1.593,0,0,1,.26,1.295c0.083,1.242.169,2.483,0.165,3.73-0.007,1.9.01,3.8,0.165,5.7a33.514,33.514,0,0,1-.3,5.381A33.53,33.53,0,0,0,90.3,63.77a71.959,71.959,0,0,1,.16,11.974c-0.08,1.052.125,2.094,0.1,3.144A0.768,0.768,0,0,1,90.424,79.531Z" transform="translate(-11.281 -15.281)"/>
  <path class="cls-3" d="M160,99.621c-0.179,1.454-.3,2.919-0.547,4.362-0.543,3.15-1.15,6.29-1.756,9.565L135.96,107.62a46.138,46.138,0,0,0,.3-23.979,44.209,44.209,0,0,0-4.9-11.822L108.888,94.97l38.973,39.2c-1.591,1.981-3.025,3.916-4.611,5.717a66.654,66.654,0,0,1-36.328,21.58c-2.986.665-6.065,0.913-9.1,1.358-0.254.037-.5,0.114-0.753,0.173H87.929c-1.444-.181-2.9-0.311-4.33-0.554-2.361-.4-4.713-0.859-7.063-1.319-0.708-.139-1.4-0.363-2.17-0.567l5.486-21.792a45.348,45.348,0,0,0,35.974-4.717L92.472,111.025l-39.166,39.5c-1.967-1.624-3.874-3.08-5.649-4.685a67.22,67.22,0,0,1-21.139-36.462c-0.676-3.124-.908-6.345-1.348-9.521-0.044-.317-0.114-0.63-0.171-0.945V91.3c0.18-1.663.337-3.329,0.545-4.988a64.9,64.9,0,0,1,2.2-10.524l21.642,5.533a46.137,46.137,0,0,0,4.132,36.746L76.879,94.306l-39-39.25a67.347,67.347,0,0,1,73.141-25.461c-1.8,7.326-3.571,14.568-5.357,21.855a45.267,45.267,0,0,0-35.717,4.137l22.706,23.5q9.814-9.894,19.572-19.73c6.495-6.552,12.986-13.108,19.652-19.837,2.693,2.364,5.434,4.538,7.91,6.984a66.759,66.759,0,0,1,18.689,33.982c0.653,3.01.91,6.107,1.353,9.163,0.046,0.315.116,0.627,0.175,0.941v9.029Zm-28.26-58.84L92.57,80.227,68.593,55.4a46.142,46.142,0,0,1,36.464-5.011c1.652-6.746,3.291-13.436,4.95-20.212A66.521,66.521,0,0,0,38.945,55.031l39.048,39.3L53.377,119.485a47.048,47.048,0,0,1-5.051-37.563L28.37,76.815a67.258,67.258,0,0,0,24.887,72.52l39.2-39.552,24.776,24.391a46.151,46.151,0,0,1-36.783,5.638l-5.044,20.039c8.746,2.747,24.034,3.962,38.954-1.338a66.9,66.9,0,0,0,32.292-24.235q-9.81-9.882-19.506-19.648-9.719-9.78-19.489-19.6L131.527,70.44a46.765,46.765,0,0,1,5.464,36.589l19.892,5.417A67.194,67.194,0,0,0,131.74,40.781ZM80.979,94.258L41.776,54.83A62.452,62.452,0,0,1,72.435,33.189a64.977,64.977,0,0,1,35.042-1.379c-1.217,5.566-2.412,11.035-3.628,16.6a47.151,47.151,0,0,0-27.414,1.475A46.374,46.374,0,0,0,65.42,55.527l27.79,27.29,38.933-39.059a65.319,65.319,0,0,1,23.35,65.494l-16.373-3.971a48.685,48.685,0,0,0-7.213-37.3l-26.6,27.226L144,134.141A64.038,64.038,0,0,1,78.158,158.32l3.954-16.39c13.7,2.744,26.317.285,37.951-7.709l-27.314-27.2L53.389,146.7a65.3,65.3,0,0,1-23.6-66.929l16.39,3.946a49.054,49.054,0,0,0-.508,20.1,48.077,48.077,0,0,0,7.677,18.551Z" transform="translate(-11.281 -15.281)"/>
</svg>
