<svg xmlns="http://www.w3.org/2000/svg" width="18" height="15" viewBox="0 0 18 15">
  <defs>
    <style>
      .cls-1 {
        fill: #fff;
        fill-rule: evenodd;
      }
    </style>
  </defs>
  <path id="WHITE_Photo_galley_icon" data-name="WHITE_Photo galley icon" class="cls-1" d="M85.726,1834.44c0-.36-0.016-0.68,0-1a1.479,1.479,0,0,1,1.454-1.42c1.321-.03,2.644-0.02,3.965-0.02h8.08a2.305,2.305,0,0,1,.693.09,1.488,1.488,0,0,1,1.073,1.5c0.007,3.07.008,6.15,0,9.22a1.535,1.535,0,0,1-1.47,1.54c-0.255.01-.512,0.02-0.767,0.01a0.172,0.172,0,0,0-.221.21c0.011,0.32.01,0.64-.008,0.96A1.561,1.561,0,0,1,97,1847q-6.183,0-12.366-.01A1.545,1.545,0,0,1,83,1845.33q0-4.59,0-9.18a1.617,1.617,0,0,1,.806-1.5,1.813,1.813,0,0,1,.942-0.21h0.978Zm-1.448,8.42c0.069-.06.1-0.09,0.132-0.12l2.371-2.22a0.448,0.448,0,0,1,.749-0.01c0.3,0.26.587,0.54,0.88,0.81,0.9,0.83,1.8,1.66,2.7,2.48a0.439,0.439,0,0,0,.645.04,0.46,0.46,0,0,0-.078-0.68l-1.181-1.08c-0.17-.16-0.338-0.32-0.512-0.48,1.027-.95,2.034-1.88,3.043-2.82a0.468,0.468,0,0,1,.781.02l3.286,3.42c0.041,0.04.087,0.08,0.16,0.15v-1.33c0-1.63,0-3.26,0-4.9,0-.33-0.076-0.41-0.415-0.41-0.2,0-.4-0.01-0.6-0.01H85.115c-0.171,0-.341,0-0.511.01a0.281,0.281,0,0,0-.325.34c0,2.18,0,4.35,0,6.53v0.26Zm14.268,0.24h0.728c0.364,0,.447-0.09.447-0.46q0-4.47,0-8.96c0-.31-0.081-0.4-0.386-0.4-0.341-.01-0.682-0.01-1.023-0.01H87.546a0.819,0.819,0,0,0-.315.03,0.373,0.373,0,0,0-.222.21c-0.026.3-.011,0.6-0.011,0.92h9.49a5.371,5.371,0,0,1,.805.05,1.588,1.588,0,0,1,1.252,1.66q0,3.33,0,6.65v0.31Zm-10.474-4.96a1.358,1.358,0,0,1,1.367-1.36,1.391,1.391,0,0,1,1.349,1.39,1.37,1.37,0,0,1-1.38,1.34A1.345,1.345,0,0,1,88.073,1838.14Z" transform="translate(-83 -1832)"/>
</svg>
