<svg xmlns="http://www.w3.org/2000/svg" xmlns:xlink="http://www.w3.org/1999/xlink" width="32" height="36" viewBox="0 0 32 36">
  <defs>
    <style>
      .cls-1 {
        fill-rule: evenodd;
        fill: url(#linear-gradient);
      }
    </style>
    <linearGradient id="linear-gradient" x1="1459" y1="3558" x2="1459" y2="3522" gradientUnits="userSpaceOnUse">
      <stop offset="0" stop-color="#ff0006"/>
      <stop offset="1" stop-color="#ff7c00"/>
    </linearGradient>
  </defs>
  <path id="PISCES" class="cls-1" d="M1475,3537.86c-3.73-4.43-3.8-4.44-9.33-.91-0.19-.13-0.38-0.25-0.57-0.38,1.39-1.99,2.78-3.98,4.19-5.98-3.77-3.04-8.62-2.62-12.39,1.01,0.42,0.71,1.18,1.49,1.02,1.86-0.26.58-1.42,1.4-1.73,1.24-2.14-1.1-3.28.4-4.7,1.42-1.44,1.04-3.01,1.92-4.75,3.02a11.19,11.19,0,0,1-.82-9.01c0.19-.61.64-1.53,0.4-1.81-1.74-1.98-.23-2.82,1.26-3.32a58.148,58.148,0,0,1,10.03-2.9C1465.27,3521,1475.02,3529.06,1475,3537.86Zm-2.95,3.2c0.11,2.55.3,5.1,0.3,7.65,0,1.51-.29,3.03-0.53,5.3-4.9,3.06-11.12,5.48-17.48,2.91-6.3-2.53-11.1-7.16-11.34-15.06,3.21,4.33,3.21,4.33,9.71,1.6-1.33,1.91-2.67,3.82-4.04,5.77,3.51,3.04,8.02,2.7,12.58-1.12-0.45-.59-1.22-1.17-1.18-1.7a2.2,2.2,0,0,1,1.4-1.3c2.7,1.26,4.04-.96,5.82-2.05,1.23-.75,2.47-1.47,3.71-2.21Z" transform="translate(-1443 -3522)"/>
</svg>
