<svg xmlns="http://www.w3.org/2000/svg" width="23" height="21" viewBox="0 0 23 21">
  <defs>
    <style>
      .cls-1 {
        fill: #b3b3b3;
        fill-rule: evenodd;
      }
    </style>
  </defs>
  <path id="print" class="cls-1" d="M514.225,495.213c-0.776,0-1.479,0-2.182,0A1.828,1.828,0,0,1,510,493.185q0-3.55,0-7.1a1.8,1.8,0,0,1,2-1.966c0.717,0,1.435,0,2.224,0v-0.481q0-1.83,0-3.662a0.819,0.819,0,0,1,.964-0.973h12.622a0.819,0.819,0,0,1,.964.973q0,1.83,0,3.661v0.482c0.766,0,1.5,0,2.224,0a1.8,1.8,0,0,1,2,1.965q0,3.573,0,7.147a1.814,1.814,0,0,1-2,1.982c-0.718.01-1.436,0-2.228,0V495.7c0,1.117,0,2.235,0,3.352a0.807,0.807,0,0,1-.94.951q-6.334,0-12.667,0a0.807,0.807,0,0,1-.941-0.95c0-1.118,0-2.235,0-3.353v-0.482Zm12.985,3.273v-6.132H515.79v6.132h11.42Zm0.037-17.95H515.78v3.547h11.467v-3.547Zm-0.233,7.994h0.9c0.029,0,.059,0,0.089,0a0.777,0.777,0,0,0,.774-0.755,0.763,0.763,0,0,0-.743-0.74c-0.672-.019-1.345-0.02-2.017,0a0.764,0.764,0,0,0-.731.752,0.772,0.772,0,0,0,.745.738C526.355,488.543,526.685,488.53,527.014,488.53Z" transform="translate(-510 -479)"/>
</svg>
