<svg xmlns="http://www.w3.org/2000/svg" width="24" height="22" viewBox="0 0 24 22">
  <defs>
    <style>
      .cls-1 {
        fill: #21428f;
        fill-rule: evenodd;
      }
    </style>
  </defs>
  <path id="print_articil_page" data-name="print_articil page" class="cls-1" d="M1235.41,788.36v-4.31a0.877,0.877,0,0,1,1.07-1.049h13.03a0.887,0.887,0,0,1,1.08,1.081v4.241c0.13,0.013.25,0.035,0.37,0.036,0.72,0,1.43-.006,2.15,0a1.83,1.83,0,0,1,1.88,1.841q0.015,3.951,0,7.9a1.878,1.878,0,0,1-2.05,1.875c-0.73.014-1.46,0.007-2.2,0.011a0.752,0.752,0,0,0-.15.04v4.031a0.828,0.828,0,0,1-.95.933q-6.63,0-13.26,0a0.837,0.837,0,0,1-.97-0.966v-4.024c-0.18-.009-0.35-0.019-0.51-0.023-0.78-.019-1.57.011-2.34-0.067a1.742,1.742,0,0,1-1.55-1.7c-0.01-2.7-.02-5.392,0-8.088a1.828,1.828,0,0,1,1.82-1.762c0.42-.012.84,0,1.26,0h1.32Zm13.55,15.054v-6.425h-11.92v6.425h11.92Zm-11.92-18.828v3.745h11.92v-3.745h-11.92Zm11.75,6.825c-0.34,0-.69-0.012-1.03,0a0.817,0.817,0,0,0-.81.787,0.8,0.8,0,0,0,.82.78q1.005,0.02,2.01,0a0.8,0.8,0,0,0,.81-0.783,0.813,0.813,0,0,0-.82-0.783C1249.44,791.4,1249.12,791.411,1248.79,791.411Zm-5.77,9.243c1.11,0,2.22,0,3.32,0a0.783,0.783,0,0,1,.91.768,0.8,0.8,0,0,1-.93.8c-2.21,0-4.43,0-6.64,0a0.8,0.8,0,1,1,.02-1.569C1240.81,800.652,1241.91,800.654,1243.02,800.654Zm-0.04-.922c-1.11,0-2.22,0-3.32,0a0.783,0.783,0,0,1-.91-0.768,0.8,0.8,0,0,1,.93-0.8c2.21,0,4.43,0,6.64,0a0.8,0.8,0,1,1-.02,1.569C1245.19,799.734,1244.09,799.732,1242.98,799.732Z" transform="translate(-1231 -783)"/>
</svg>
