<svg xmlns="http://www.w3.org/2000/svg" width="19" height="22" viewBox="0 0 19 22">
  <defs>
    <style>
      .cls-1 {
        fill: #a1a1a1;
        fill-rule: evenodd;
      }
    </style>
  </defs>
  <path id="gray" class="cls-1" d="M1116.42,751.08h-0.51c-1.44,0-2.88.011-4.32-.014a0.743,0.743,0,0,1-.57-0.3,0.7,0.7,0,0,1,.2-0.575q4.41-4.475,8.84-8.924c0.35-.357.54-0.357,0.9,0,2.96,2.976,5.93,5.953,8.88,8.942a0.661,0.661,0,0,1,.17.58,0.685,0.685,0,0,1-.54.277c-1.44.023-2.88,0.013-4.32,0.013h-0.52v11.19c0,0.613-.12.729-0.72,0.729h-6.75c-0.62,0-.74-0.126-0.74-0.764V751.08Z" transform="translate(-1111 -741)"/>
</svg>
