<svg id="Group_229" data-name="Group 229" xmlns="http://www.w3.org/2000/svg" xmlns:xlink="http://www.w3.org/1999/xlink" width="59.804" height="59.803" viewBox="0 0 59.804 59.803">
  <defs>
    <clipPath id="clip-path">
      <rect id="Rectangle_100" data-name="Rectangle 100" width="59.804" height="59.803" fill="none"/>
    </clipPath>
  </defs>
  <g id="Group_228" data-name="Group 228" transform="translate(0 0)" clip-path="url(#clip-path)">
    <path id="Path_456" data-name="Path 456" d="M59.8,29.9A29.9,29.9,0,1,1,29.9,0,29.9,29.9,0,0,1,59.8,29.9" transform="translate(0 0)" fill="#35208a"/>
    <path id="Path_457" data-name="Path 457" d="M34.983,16.615c2.673,3.094,5.224,6.3,7.706,9.545,3.106,4.066,6.152,8.2,8.905,12.515A36.665,36.665,0,0,1,54.3,43.448c.253.57.9,1.72.2,2.171a6.309,6.309,0,0,1-1.736.653c-.931.26-1.879.458-2.828.639-2.652.506-5.334.861-8.016,1.173A155.979,155.979,0,0,1,22.733,49.33c-.256,0-.244.394.011.4a149.766,149.766,0,0,0,17.572-1.053c2.846-.306,5.689-.663,8.509-1.148A23.614,23.614,0,0,0,54.233,46.2a1.264,1.264,0,0,0,.858-1.777,17.423,17.423,0,0,0-2.018-4.085,143.424,143.424,0,0,0-8.745-12.609A118.307,118.307,0,0,0,35.81,17.207c-.233-.244-.47-.48-.713-.714-.079-.076-.184.042-.115.121" transform="translate(-9.139 -6.675)" fill="#fff"/>
    <path id="Path_458" data-name="Path 458" d="M34.772,16.955A4.216,4.216,0,0,0,31.7,14.074a2.541,2.541,0,0,0-2.62,1.047,2.047,2.047,0,0,0-.14,2.351,1.96,1.96,0,0,0,1.886.908,1.714,1.714,0,0,0,1.361-1.261,3.143,3.143,0,0,1-.282,2.891c-.575.995-1.945,1.49-3.155,1.926-.147.054-.293.106-.433.158l-.035.013c-1.6.592-3.589,1.33-4.314,3.337a7.654,7.654,0,0,0-.283,2.992,5.63,5.63,0,0,1-.306,2.684l-.034.083a5.454,5.454,0,0,1-1.62,2.088A9.264,9.264,0,0,0,20.191,35c-.609.953-1.262,2.554.091,5.444l.147.314c.324.689.658,1.4.944,2.113a4.27,4.27,0,0,1,.419,1.776A3.417,3.417,0,0,1,20.151,47.3a1.145,1.145,0,0,1-.237.076,1.654,1.654,0,0,0,.153-1.384,1.757,1.757,0,0,0-1.431-1.148,2.038,2.038,0,0,0-1.927.757,2.36,2.36,0,0,0-.413,1.864,2.728,2.728,0,0,0,1.195,1.782,4.084,4.084,0,0,0,2.167.622,3.776,3.776,0,0,0,1.348-.243,5.753,5.753,0,0,0,3.266-5.139,9.276,9.276,0,0,0-1.282-4.047,12.363,12.363,0,0,1-.973-2.318c-.34-1.29.394-2.1,1.619-3.316a7.4,7.4,0,0,0,2.011-2.721,7.731,7.731,0,0,0,.477-3.667,3.708,3.708,0,0,1,.569-2.773A5.755,5.755,0,0,1,28.916,24.5c.23-.081.467-.164.7-.252l.181-.07a12.034,12.034,0,0,0,2.939-1.452,5.781,5.781,0,0,0,2.04-5.771" transform="translate(-6.588 -5.684)" fill="#fa8d61"/>
    <path id="Path_459" data-name="Path 459" d="M19.818,39.707C24,41.924,28.4,43.766,32.7,45.726c6.885,3.135,13.789,6.227,20.685,9.336q2.38,1.073,4.761,2.141c.718.322,1.3-.761.574-1.084q-6.537-2.928-13.085-5.832c-6.926-3.083-13.842-6.191-20.8-9.2-1.589-.687-3.176-1.374-4.8-1.976-.347-.128-.535.431-.222.6" transform="translate(-7.968 -15.845)" fill="#96cbeb"/>
    <path id="Path_460" data-name="Path 460" d="M23.748,38.917a2.58,2.58,0,0,0-.915-.024c-.57.014-1.141.023-1.711.03-.654.008-1.334-.041-1.984.027a.161.161,0,0,0-.086.037.183.183,0,0,0-.023.02s-.008.007-.011.011a.153.153,0,0,0-.033.15c.1.347.611.7.849.946a23.834,23.834,0,0,0,2.187,2.292c.981.763,1.274-.579,1.582-1.23s1.268-1.848.145-2.26" transform="translate(-7.692 -15.752)" fill="#fff"/>
    <path id="Path_461" data-name="Path 461" d="M81.746,63.96c-1.022.193-2.035.412-3.04.68a.7.7,0,0,0-.369,1.029c.588,1.035,1.245,2.022,1.933,2.994.221.311.762.092.625-.295-.306-.866-.632-1.722-1-2.562.767-.147,1.533-.3,2.3-.435.931-.167.477-1.585-.453-1.41" transform="translate(-31.713 -25.919)" fill="#fa8d61"/>
    <path id="Path_462" data-name="Path 462" d="M74.957,63.582c.7-.146,1.406-.282,2.113-.387.935-.139.876-1.626-.062-1.48a25.147,25.147,0,0,0-3.236.715A.7.7,0,0,0,73.4,63.46a35.569,35.569,0,0,0,1.933,2.994c.221.311.762.092.625-.3-.307-.871-.636-1.731-1-2.576" transform="translate(-29.712 -25.011)" fill="#fa8d61"/>
    <path id="Path_463" data-name="Path 463" d="M39.843,18.084c-.076-.209-.258-.325-.25-.576a.866.866,0,0,1,.608-.715c.77-.273,1.2.394,1.419,1.015a.129.129,0,0,0,.252-.034A1.361,1.361,0,0,0,39.907,16.6a1.086,1.086,0,0,0-.595,1.017c.024.237.219.67.516.5a.032.032,0,0,0,.015-.036" transform="translate(-15.933 -6.668)" fill="#35208a"/>
    <path id="Path_464" data-name="Path 464" d="M19.152,68.1a.56.56,0,0,0-.761.109.8.8,0,0,0-.139.942,1.324,1.324,0,0,0,2.127.09c.092-.107-.024-.284-.158-.2-.431.257-.9.585-1.409.285-.629-.373-.33-1.1.321-1.18.018,0,.037-.028.018-.043" transform="translate(-7.361 -27.559)" fill="#35208a"/>
    <path id="Path_465" data-name="Path 465" d="M41.441,26.159a1.16,1.16,0,0,1-.1.523c-.068.138-.23.243-.256.391a.114.114,0,0,0,.108.142c.211,0,.35-.265.423-.436a1.01,1.01,0,0,0,.061-.652.123.123,0,0,0-.24.033" transform="translate(-16.653 -10.555)" fill="#35208a"/>
    <path id="Path_466" data-name="Path 466" d="M43.09,24.928c.012.2.091.375.088.573,0,.167-.122.358-.036.511a.092.092,0,0,0,.1.041c.225-.042.241-.4.228-.585a.661.661,0,0,0-.3-.586.052.052,0,0,0-.077.045" transform="translate(-17.465 -10.084)" fill="#35208a"/>
    <path id="Path_467" data-name="Path 467" d="M26.491,63.42c-.049.281.106.58.086.877a2.3,2.3,0,0,1-.431,1.068c-.068.109.078.2.166.128a1.515,1.515,0,0,0,.512-1.083c.024-.3.006-.841-.3-1a.023.023,0,0,0-.033.014" transform="translate(-10.591 -25.7)" fill="#35208a"/>
    <path id="Path_468" data-name="Path 468" d="M27.4,65.443c-.058.242-.062.491-.139.73a4.927,4.927,0,0,1-.363.731.128.128,0,0,0,.2.154,1.777,1.777,0,0,0,.422-1.615.063.063,0,0,0-.12,0" transform="translate(-10.896 -26.508)" fill="#35208a"/>
    <path id="Path_469" data-name="Path 469" d="M75.174,21.558a.083.083,0,0,0-.029-.07c-.177-.335-.818-.4-1.139-.463-.524-.1-1.056-.167-1.587-.236-.087-.011-.174-.026-.26-.036-.035,0-.1-.034-.09-.018a1.63,1.63,0,0,1-.16-.368c-.22-.512-.432-1.028-.655-1.538-.114-.259-.228-.517-.351-.771-.076-.157-.162-.451-.337-.527-.387-.169-.657.787-.76,1.017-.246.551-.477,1.109-.716,1.663-.05.116-.134.451-.239.53a2.57,2.57,0,0,1-.5.026c-.236.019-.472.037-.707.059a6.221,6.221,0,0,0-1.2.19c-.233.069-.651.181-.615.5.03.266.438.517.621.663a7.836,7.836,0,0,0,1,.673,4.77,4.77,0,0,1,.5.266c.187.142.1.29.046.481-.106.4-.215.806-.313,1.212-.08.33-.157.662-.208,1a1.338,1.338,0,0,0-.017.7c.243.517,1.176-.388,1.4-.561q.424-.326.83-.675c.133-.114.264-.23.393-.348.073-.067.257-.321.351-.336.152-.026.561.47.684.576.279.241.567.472.859.7a2.846,2.846,0,0,0,1.359.768c.458.041.24-.653.179-.927-.145-.652-.357-1.29-.551-1.93-.041-.137-.1-.278-.124-.42s-.027-.144.1-.222c.253-.153.561-.247.827-.381.426-.215,1.279-.6,1.4-1.135a.092.092,0,0,0,.01-.064" transform="translate(-26.68 -7.098)" fill="#fff896"/>
    <path id="Path_470" data-name="Path 470" d="M32.735,80.412c-.721-.063-1.456-.055-2.186-.047q.31-.305.617-.613a4.482,4.482,0,0,0,.894-1.039.2.2,0,0,0-.275-.275,4.522,4.522,0,0,0-1.056.877c-.213.2-.424.41-.635.617,0-.3,0-.593,0-.89a4.491,4.491,0,0,0-.1-1.369.2.2,0,0,0-.387,0,4.511,4.511,0,0,0-.127,1.369c-.006.295-.01.59-.012.884q-.312-.317-.627-.631A4.482,4.482,0,0,0,27.8,78.4a.2.2,0,0,0-.275.275,4.519,4.519,0,0,0,.877,1.055c.2.213.41.424.616.635-.3,0-.593,0-.89,0a4.491,4.491,0,0,0-1.369.1.2.2,0,0,0,0,.388,4.53,4.53,0,0,0,1.369.127c.288.006.577.01.865.012-.533.5-1.069,1.009-1.544,1.556a.3.3,0,0,0,.425.424c.549-.46,1.058-.981,1.565-1.5-.021.725-.042,1.455.008,2.171a.3.3,0,0,0,.6,0c.062-.714.055-1.442.047-2.166.5.527,1,1.059,1.542,1.529a.3.3,0,0,0,.424-.424c-.461-.549-.981-1.059-1.5-1.565.726.02,1.455.041,2.172-.009a.3.3,0,0,0,0-.6" transform="translate(-10.789 -31.425)" fill="#fff"/>
    <path id="Path_471" data-name="Path 471" d="M56.283,8.989a.775.775,0,0,0,.53-.219.749.749,0,0,0-.53-1.279.772.772,0,0,0-.53.219.749.749,0,0,0,.53,1.279" transform="translate(-22.509 -3.036)" fill="#fff"/>
    <path id="Path_472" data-name="Path 472" d="M61.642,26.784l.029-.01a.779.779,0,0,0,.387-.267.706.706,0,0,0,.159-.451.773.773,0,0,0-.546-.717l-.029-.01a.754.754,0,1,0,0,1.454" transform="translate(-24.599 -10.253)" fill="#fff"/>
    <path id="Path_473" data-name="Path 473" d="M87.885,31.839a1.436,1.436,0,0,0,.269.125.728.728,0,0,0,.9-.9,1.4,1.4,0,0,0-.125-.269.77.77,0,0,0-1.193-.153.782.782,0,0,0-.223.537.77.77,0,0,0,.376.656" transform="translate(-35.47 -12.333)" fill="#fff"/>
    <path id="Path_474" data-name="Path 474" d="M82.343,46.772a1.207,1.207,0,0,0,.476-.115.743.743,0,0,0,.076-1.245.571.571,0,0,0-.257-.136l-.2-.027-.1-.012a.763.763,0,0,0-.543.225.767.767,0,0,0,0,1.085.739.739,0,0,0,.543.225" transform="translate(-33.065 -18.335)" fill="#fff"/>
    <path id="Path_475" data-name="Path 475" d="M93.434,65.861c.007-.031.013-.061.02-.092.275-1.206-1.72-1.214-1.443,0,.007.031.014.061.021.092a.733.733,0,0,0,1.4,0" transform="translate(-37.284 -26.29)" fill="#fff"/>
    <path id="Path_476" data-name="Path 476" d="M76.222,74.558a.748.748,0,0,0,.335.188.612.612,0,1,0,0-1.18.768.768,0,0,0-.335.188.581.581,0,0,0,0,.8" transform="translate(-30.829 -29.808)" fill="#fff"/>
    <path id="Path_477" data-name="Path 477" d="M53.386,88.005l-.06-.012a.72.72,0,0,0-.686.181.735.735,0,0,0-.206.5.7.7,0,0,0,.892.679l.06-.011.165-.07a.52.52,0,0,0,.194-.178.659.659,0,0,0,.149-.419.825.825,0,0,0-.095-.35.693.693,0,0,0-.414-.318" transform="translate(-21.253 -35.659)" fill="#fff"/>
    <path id="Path_478" data-name="Path 478" d="M19.059,79.747a.738.738,0,0,0,.506-.209.715.715,0,0,0,0-1.012.715.715,0,0,0-1.012,0,.716.716,0,0,0,0,1.012.745.745,0,0,0,.506.209" transform="translate(-7.435 -31.744)" fill="#fff"/>
    <path id="Path_479" data-name="Path 479" d="M8.394,51.833l.053-.066.124-.161.05-.119a.765.765,0,0,0,.059-.382.74.74,0,0,0-.2-.493L8.335,50.5a.7.7,0,0,0-.352-.1.89.89,0,0,0-.661.234l-.066.052a.806.806,0,0,0-.235.569.818.818,0,0,0,.235.569.807.807,0,0,0,.569.235.781.781,0,0,0,.569-.235" transform="translate(-2.845 -20.431)" fill="#fff"/>
    <path id="Path_480" data-name="Path 480" d="M19.569,48.63a.774.774,0,0,0,.529-.219.749.749,0,0,0-.529-1.279.773.773,0,0,0-.53.219.749.749,0,0,0,.53,1.279" transform="translate(-7.628 -19.104)" fill="#fff"/>
    <path id="Path_481" data-name="Path 481" d="M28.774,16.363a.081.081,0,0,1-.015-.024l.076.18,0-.015.027.2a.088.088,0,0,1,0-.028l-.027.2,0-.013-.074.176c.006-.012.013-.023.02-.035a.737.737,0,0,0,0-.73.719.719,0,0,0-.624-.358.819.819,0,0,0-.569.243.8.8,0,0,0-.235.592.778.778,0,0,0,.378.659.764.764,0,0,0,1.045-.274.765.765,0,0,0,0-.771" transform="translate(-11.086 -6.45)" fill="#fff"/>
    <path id="Path_482" data-name="Path 482" d="M49.491,41.045a.847.847,0,0,0,.142-.472.768.768,0,0,0-.215-.52.813.813,0,0,0-.52-.215.866.866,0,0,0-.472.142.779.779,0,1,0,1.066,1.066" transform="translate(-19.474 -16.147)" fill="#fff"/>
    <path id="Path_483" data-name="Path 483" d="M39.353,64a.105.105,0,0,1,.02-.011l-.171.072a1.474,1.474,0,0,0,.194-.083.734.734,0,0,0,.146-1.138.725.725,0,0,0-1.138.146.844.844,0,0,0-.111.406A.7.7,0,0,0,39.353,64" transform="translate(-15.52 -25.383)" fill="#fff"/>
    <path id="Path_484" data-name="Path 484" d="M56,63.279a.8.8,0,0,0,0-1.6.8.8,0,0,0,0,1.6" transform="translate(-22.385 -25)" fill="#f7b9e7"/>
    <path id="Path_485" data-name="Path 485" d="M15.7,31.15a.886.886,0,0,0,.608-.252.86.86,0,0,0,0-1.217.861.861,0,0,0-1.217,0,.86.86,0,0,0,0,1.217.894.894,0,0,0,.608.252" transform="translate(-6.015 -11.929)" fill="#f7b9e7"/>
    <path id="Path_486" data-name="Path 486" d="M71.413,85.375l.033-.043c.029-.068.057-.137.086-.2a.648.648,0,0,0,.015-.341.811.811,0,0,0-.235-.491,1.021,1.021,0,0,0-.378-.221.648.648,0,0,0-.341-.015.627.627,0,0,0-.318.1l-.044.032a.869.869,0,0,0-.31.31.858.858,0,0,0-.118.436.864.864,0,0,0,.863.864.859.859,0,0,0,.436-.118.869.869,0,0,0,.31-.31" transform="translate(-28.293 -34.065)" fill="#f7b9e7"/>
    <path id="Path_487" data-name="Path 487" d="M69.8,11.151a.853.853,0,0,0,0-1.706.853.853,0,0,0,0,1.706" transform="translate(-27.958 -3.828)" fill="#f7b9e7"/>
    <path id="Path_488" data-name="Path 488" d="M95.2,52.317a.879.879,0,0,0,.6-.25.853.853,0,0,0,0-1.206.853.853,0,0,0-1.206,0,.853.853,0,0,0,0,1.206.885.885,0,0,0,.6.25" transform="translate(-38.242 -20.514)" fill="#f7b9e7"/>
    <path id="Path_489" data-name="Path 489" d="M53.321,79.282a.857.857,0,0,0,0-1.713.857.857,0,0,0,0,1.713" transform="translate(-21.277 -31.441)" fill="#f7b9e7"/>
  </g>
</svg>
