<svg xmlns="http://www.w3.org/2000/svg" xmlns:xlink="http://www.w3.org/1999/xlink" width="39" height="40" viewBox="0 0 39 40">
  <defs>
    <style>
      .cls-1 {
        fill-rule: evenodd;
        fill: url(#linear-gradient);
      }
    </style>
    <linearGradient id="linear-gradient" x1="1361.5" y1="3463" x2="1361.5" y2="3423" gradientUnits="userSpaceOnUse">
      <stop offset="0" stop-color="#ff0006"/>
      <stop offset="1" stop-color="#ff7c00"/>
    </linearGradient>
  </defs>
  <path id="SCORPIO" class="cls-1" d="M1371.3,3442.3c-0.04.62-.08,1.23-0.09,1.3,2.66,0.07,5.32-.27,7.71.38,1.09,0.3,1.64,2.54,2.08,4.29-2.17-4.49-5.45-3.98-9.11-2.1-0.76,2.67.51,3.57,3.49,3.71,4.52,0.22,6.11,3.26,4.18,7.3a9.671,9.671,0,0,1-9.68,5.78c1.51-1.27,3.01-2.53,5.08-4.26-1.92-.32-3.11-0.51-5.21-0.85,2.29-.69,3.87-1.1,5.39-1.66,0.7-.26,1.73-0.77,1.8-1.27a2.373,2.373,0,0,0-1.09-1.99c-2.68-1.17-5.52-3.05-8.21-2.91-3.54.19-7.01,2-10.46,3.22a1.666,1.666,0,0,0-.73,1.51,2.512,2.512,0,0,0,1.44,1.4,19.326,19.326,0,0,1,4.56,1.65c-1.02.28-2.04,0.56-3.7,1.02,1.88,1.57,3.36,2.81,4.82,4.03-4.95.7-10.73-4.08-10.54-8.91,0.11-2.77,2.47-4,4.66-3.97,3.55,0.05,4.48-1.49,4.39-4.53a17.029,17.029,0,0,1,.57-3.34c-3.38-.3-6.63-4.62-10.27.53,1.86-5.13,3.35-5.28,10.57-1.67,0.2-1.06.39-2.05,0.59-3.04l-0.05.1a7.81,7.81,0,0,0-2.19-9.15,7.682,7.682,0,0,0-8.65-1.52c-6.07,2.49-6.19,7.4-4.75,12.99,0.66-.33,1.45-0.73,2.23-1.13,0.18,0.09.35,0.18,0.53,0.26-0.87,1.32-1.51,2.87-2.65,3.89a3.35,3.35,0,0,1-5.32-1.26c-3.05-8.17,4.42-18.96,13.22-19.11,5.72-.09,9.66,2.56,11.97,8.33,1.12,2.8,1.95,5.72,2.91,8.58h-0.01l0.6,2.49Zm-7.76-4.38c-1.07,1.99-1.76.47-2.47-.28-2.95-3.1-3.52-3.18-7.25-.89,1.31-3.49,4.72-4.29,7.24-1.67,0.88,0.92,1.61,1.97,2.42,2.96Zm-10.96,10.68c0.08-2.93,1.87-5.57,4.01-5.82,1.85-.21,4.28,1.31,4.6,2.9-1.71-.31-3.65-1.25-5.04-0.75C1354.67,3445.46,1353.7,3447.37,1352.58,3448.6Zm18.21-8.7c-1.14-3.17,1.12-5.02,3.31-5.97,2.31-1.01,4.76-.1,6.1,2.78-4.94-2.46-5.08-2.41-9.42,3.19h0.01Zm0.59,2.49c-0.21-3.31,2.9-3.52,4.74-4,1.39-.37,3.32,1.24,4.88,2.65-3.84-3.03-6.62.38-9.71,1.25C1371.3,3442.3,1371.38,3442.39,1371.38,3442.39Z" transform="translate(-1342 -3423)"/>
</svg>
