<svg xmlns="http://www.w3.org/2000/svg" width="14" height="12" viewBox="0 0 14 12">
  <defs>
    <style>
      .cls-1 {
        fill: #fff;
        fill-rule: evenodd;
      }
    </style>
  </defs>
  <path id="CAMERA" class="cls-1" d="M353.422,241.98a7.138,7.138,0,0,1,.076-0.87A1.316,1.316,0,0,1,354.814,240q2.173-.009,4.346,0a1.391,1.391,0,0,1,1.391,1.477c0,0.152,0,.3,0,0.5,0.123,0,.228,0,0.333,0,0.61,0.012,1.223-.016,1.828.049a1.532,1.532,0,0,1,1.284,1.55q0.009,3.414,0,6.827a1.554,1.554,0,0,1-1.49,1.59q-5.506.011-11.014,0A1.553,1.553,0,0,1,350,250.4q-0.009-3.4,0-6.8a1.593,1.593,0,0,1,1.611-1.624C352.214,241.972,352.814,241.98,353.422,241.98Zm6.992,5a3.42,3.42,0,1,0-3.408,3.621A3.5,3.5,0,0,0,360.414,246.983Zm-1.165.017A2.252,2.252,0,1,1,357,244.619,2.312,2.312,0,0,1,359.249,247Z" transform="translate(-350 -240)"/>
</svg>
