<svg xmlns="http://www.w3.org/2000/svg" width="8.969" height="9" viewBox="0 0 8.969 9">
  <defs>
    <style>
      .cls-1 {
        fill: #fff;
        fill-rule: evenodd;
      }
    </style>
  </defs>
  <path id="W_Article_page_time" data-name="W_Article page time" class="cls-1" d="M358.477,631a4.5,4.5,0,1,1,4.5-4.471A4.5,4.5,0,0,1,358.477,631ZM362,626.515a3.507,3.507,0,1,0-3.526,3.5A3.522,3.522,0,0,0,362,626.515Zm-3.882-.884c0-.322,0-0.644,0-0.966a0.385,0.385,0,0,1,.3-0.415,0.377,0.377,0,0,1,.458.395c0,0.551.006,1.1,0,1.651a0.453,0.453,0,0,0,.155.365q0.577,0.563,1.14,1.142a0.37,0.37,0,0,1-.17.642,0.457,0.457,0,0,1-.346-0.1q-0.723-.692-1.412-1.416a0.613,0.613,0,0,1-.12-0.367C358.1,626.252,358.112,625.941,358.113,625.631Z" transform="translate(-354 -622)"/>
</svg>
