<svg xmlns="http://www.w3.org/2000/svg" width="10.25" height="8.312" viewBox="0 0 10.25 8.312">
  <defs>
    <style>
      .cls-1 {
        fill: #585858;
        fill-rule: evenodd;
      }
    </style>
  </defs>
  <path id="TWITER" class="cls-1" d="M473.12,293.824a4.358,4.358,0,0,1-1.21.332,2.085,2.085,0,0,0,.924-1.16,4.214,4.214,0,0,1-1.331.508,2.1,2.1,0,0,0-3.632,1.435,2.139,2.139,0,0,0,.049.479,5.942,5.942,0,0,1-4.327-2.2,2.1,2.1,0,0,0,.645,2.806,2.057,2.057,0,0,1-.948-0.259v0.024a2.108,2.108,0,0,0,1.681,2.062,2.077,2.077,0,0,1-.55.069,1.8,1.8,0,0,1-.4-0.036,2.119,2.119,0,0,0,1.961,1.463,4.215,4.215,0,0,1-2.6.895,3.948,3.948,0,0,1-.5-0.029,5.975,5.975,0,0,0,9.195-5.031c0-.093,0-0.183-0.007-0.272A4.164,4.164,0,0,0,473.12,293.824Z" transform="translate(-462.875 -292.844)"/>
</svg>
