<svg xmlns="http://www.w3.org/2000/svg" xmlns:xlink="http://www.w3.org/1999/xlink" width="61" height="55" viewBox="0 0 61 55">
  <defs>
    <style>
      .cls-1 {
        fill: #fff700;
        filter: url(#filter);
      }

      .cls-1, .cls-2, .cls-4 {
        fill-rule: evenodd;
      }

      .cls-3 {
        fill: #ffff8c;
      }

      .cls-4 {
        fill: #7b0505;
      }

      .cls-5 {
        font-size: 12.42px;
        fill: #fff;
        font-family: "Open Sans";
        font-weight: 800;
      }
    </style>
    <filter id="filter" x="1695" y="76" width="61" height="55" filterUnits="userSpaceOnUse">
      <feGaussianBlur result="blur" stdDeviation="2.667" in="SourceAlpha"/>
      <feComposite result="composite"/>
      <feComposite result="composite-2"/>
      <feComposite result="composite-3"/>
      <feFlood result="flood" flood-color="#ffffbe"/>
      <feComposite result="composite-4" operator="in" in2="composite-3"/>
      <feBlend result="blend" mode="screen" in2="SourceGraphic"/>
      <feBlend result="blend-2" in="SourceGraphic"/>
      <feGaussianBlur result="blur-2" stdDeviation="2.667" in="SourceAlpha"/>
      <feFlood result="flood-2" flood-color="#ffffbe"/>
      <feComposite result="composite-6" operator="out" in2="blur-2"/>
      <feComposite result="composite-5" operator="in" in2="SourceAlpha"/>
      <feBlend result="blend-3" mode="screen" in2="blend-2"/>
    </filter>
  </defs>
  <path class="cls-1" d="M1721.06,110.724h-14.22a2.6,2.6,0,0,1-2.84-2.787V94.224a2.585,2.585,0,0,1,2.87-2.793h9.9V89.9a4.744,4.744,0,0,1,1.53-3.541A4.8,4.8,0,0,1,1721.65,85q3.33-.027,6.66,0a4.882,4.882,0,0,1,4.9,4.821v1.616h0.64c3.11,0,6.23,0,9.34,0a2.6,2.6,0,0,1,2.82,2.752V108a2.615,2.615,0,0,1-2.81,2.726c-4.56,0-9.12-.006-13.68.01-0.46,0-.63-0.1-0.6-0.566a12.312,12.312,0,0,0,0-1.488,2.563,2.563,0,0,0-2.48-2.452c-0.95-.036-1.89-0.032-2.83,0a2.574,2.574,0,0,0-2.54,2.561C1721.05,109.4,1721.06,110.018,1721.06,110.724Zm10.17-19.314V89.973a2.924,2.924,0,0,0-3.09-3.048c-2.11-.013-4.23-0.016-6.34,0a2.857,2.857,0,0,0-2.78,1.747,6.012,6.012,0,0,0-.23,2.736h12.44Zm-10.17,20.618v1.837a2.607,2.607,0,0,0,2.69,2.632q1.26,0.012,2.52,0a2.585,2.585,0,0,0,2.66-2.546c0.02-.629,0-1.259,0-1.924h15.71a3.727,3.727,0,0,1,.04.478c0,2.156.01,4.313,0,6.469a1.919,1.919,0,0,1-2.11,2.03q-17.565,0-35.12,0a1.943,1.943,0,0,1-2.14-2.113v-6.863h15.75Zm1.34-.665c0-.855-0.01-1.71,0-2.564a1.207,1.207,0,0,1,1.26-1.281q1.335-.038,2.67,0a1.2,1.2,0,0,1,1.27,1.228q0.03,2.615,0,5.231a1.187,1.187,0,0,1-1.21,1.229c-0.93.044-1.86,0.046-2.78,0a1.2,1.2,0,0,1-1.21-1.328C1722.39,113.04,1722.4,112.2,1722.4,111.364Z" transform="translate(-1695 -76)"/>
  <path id="Shape_1_copy_2" data-name="Shape 1 copy 2" class="cls-2" d="M1721.06,110.724h-14.22a2.6,2.6,0,0,1-2.84-2.787V94.224a2.585,2.585,0,0,1,2.87-2.793h9.9V89.9a4.744,4.744,0,0,1,1.53-3.541A4.8,4.8,0,0,1,1721.65,85q3.33-.027,6.66,0a4.882,4.882,0,0,1,4.9,4.821v1.616h0.64c3.11,0,6.23,0,9.34,0a2.6,2.6,0,0,1,2.82,2.752V108a2.615,2.615,0,0,1-2.81,2.726c-4.56,0-9.12-.006-13.68.01-0.46,0-.63-0.1-0.6-0.566a12.312,12.312,0,0,0,0-1.488,2.563,2.563,0,0,0-2.48-2.452c-0.95-.036-1.89-0.032-2.83,0a2.574,2.574,0,0,0-2.54,2.561C1721.05,109.4,1721.06,110.018,1721.06,110.724Zm10.17-19.314V89.973a2.924,2.924,0,0,0-3.09-3.048c-2.11-.013-4.23-0.016-6.34,0a2.857,2.857,0,0,0-2.78,1.747,6.012,6.012,0,0,0-.23,2.736h12.44Zm-10.17,20.618v1.837a2.607,2.607,0,0,0,2.69,2.632q1.26,0.012,2.52,0a2.585,2.585,0,0,0,2.66-2.546c0.02-.629,0-1.259,0-1.924h15.71a3.727,3.727,0,0,1,.04.478c0,2.156.01,4.313,0,6.469a1.919,1.919,0,0,1-2.11,2.03q-17.565,0-35.12,0a1.943,1.943,0,0,1-2.14-2.113v-6.863h15.75Zm1.34-.665c0-.855-0.01-1.71,0-2.564a1.207,1.207,0,0,1,1.26-1.281q1.335-.038,2.67,0a1.2,1.2,0,0,1,1.27,1.228q0.03,2.615,0,5.231a1.187,1.187,0,0,1-1.21,1.229c-0.93.044-1.86,0.046-2.78,0a1.2,1.2,0,0,1-1.21-1.328C1722.39,113.04,1722.4,112.2,1722.4,111.364Z" transform="translate(-1695 -76)"/>
  <circle class="cls-3" cx="51.5" cy="20.5" r="9.5"/>
  <path class="cls-4" d="M1750.8,103.546h-1.01c-0.71,0-1.42,0-2.12,0a0.4,0.4,0,0,1-.28-0.1q-2.7-2.271-5.42-4.536a0.362,0.362,0,0,1-.14-0.307q0.015-.515,0-1.03c0-.138.05-0.169,0.18-0.168,0.84,0.005,1.68-.014,2.52.007a2.118,2.118,0,0,0,2.07-1.506c0.06-.174-0.05-0.139-0.14-0.14h-5.35c-0.22,0-.22,0-0.11-0.2,0.25-.429.51-0.855,0.75-1.289a0.259,0.259,0,0,1,.27-0.153c1.46,0,2.91,0,4.37,0,0.26,0,.27,0,0.17-0.249a2.163,2.163,0,0,0-1.51-1.364,1.8,1.8,0,0,0-.4-0.03h-3.14c-0.2,0-.2,0-0.11-0.174,0.26-.446.52-0.892,0.77-1.34a0.2,0.2,0,0,1,.19-0.122q4.83,0,9.64,0a0.41,0.41,0,0,1,.07.016c-0.08.149-.16,0.291-0.25,0.432-0.2.347-.4,0.691-0.59,1.042a0.257,0.257,0,0,1-.26.145c-0.74-.006-1.48,0-2.22,0h-0.22a0.12,0.12,0,0,0,.03.142,4.091,4.091,0,0,1,.54,1.339,0.179,0.179,0,0,0,.22.165c0.84,0,1.68,0,2.52,0h0.24c-0.14.244-.26,0.457-0.38,0.669-0.16.264-.32,0.525-0.46,0.794a0.281,0.281,0,0,1-.29.177c-0.53-.011-1.06,0-1.59-0.008a0.223,0.223,0,0,0-.27.2,3.836,3.836,0,0,1-3.55,3.107l5.28,4.426A0.093,0.093,0,0,1,1750.8,103.546Z" transform="translate(-1695 -76)"/>
  <text id="_2022-23" data-name="2022-23" class="cls-5" transform="translate(11.985 28.698) scale(0.565 0.79)">2022-23</text>
</svg>
