<svg id="UTKAL_DIBASA" data-name="UTKAL DIBASA" xmlns="http://www.w3.org/2000/svg" width="132" height="36" viewBox="0 0 132 36">
  <defs>
    <style>
      .cls-1 {
        fill: #fff;
      }

      .cls-1, .cls-2, .cls-3, .cls-4 {
        fill-rule: evenodd;
      }

      .cls-2 {
        fill: #7b0505;
      }

      .cls-3 {
        fill: #00ff5a;
      }

      .cls-4 {
        fill: #ffd200;
      }
    </style>
  </defs>
  <path class="cls-1" d="M1164.5,103.63c-0.21,0-.42,0-0.63,0a1.715,1.715,0,0,1-.42-0.024c-0.26-.069-0.5-0.169-0.75-0.256a0.649,0.649,0,0,1-.46-0.978,1.076,1.076,0,0,0,.1-0.387c0.01-.621,0-1.242,0-1.836-0.06-.1-0.12-0.2-0.19-0.292-0.12-.171-0.25-0.338-0.39-0.532a1.165,1.165,0,0,0,.14-1.08,6.861,6.861,0,0,1-.02-1.283,0.6,0.6,0,0,0,.08-0.042,2.656,2.656,0,0,1,.39.278c0.17,0.179.41,0.185,0.46-.05a1.45,1.45,0,0,1,.65-0.841,2.212,2.212,0,0,0,.32-0.35,0.281,0.281,0,0,0,.1-0.2,1.262,1.262,0,0,1,.22-0.707,0.277,0.277,0,0,1,.17-0.167,1.044,1.044,0,0,1,.47-0.049,0.9,0.9,0,0,0,.67-0.073,0.169,0.169,0,0,1,.11-0.023,5.144,5.144,0,0,1,1.54.287c0.5,0.291.75,0.161,1.01-.446a1.107,1.107,0,0,0,.08-0.246,0.5,0.5,0,0,1,.35-0.481,2.754,2.754,0,0,1,.1-0.555,0.278,0.278,0,0,1,.24-0.086,4.06,4.06,0,0,1,.43.144c0.2,0.057.3-.038,0.25-0.234a1.5,1.5,0,0,0-.2-0.377,1.748,1.748,0,0,1,.09-1.466c0.15-.184.28-0.189,0.41,0.005a0.147,0.147,0,0,0,.25.049,0.159,0.159,0,0,0,.01-0.275c-0.11-.09-0.23-0.173-0.35-0.265a1.372,1.372,0,0,1,.12-0.1,0.423,0.423,0,0,0,.21-0.5c-0.06-.29.04-0.375,0.31-0.351,0.18-.268.36-0.53,0.55-0.819-0.03-.03-0.09-0.093-0.15-0.164a0.993,0.993,0,0,1-.18-0.248c-0.1-.234-0.02-0.359.23-0.391a0.78,0.78,0,0,0,.14-0.045,0.756,0.756,0,0,1-.17-0.4,2.492,2.492,0,0,1,.4-0.819,0.91,0.91,0,0,1,.52-0.192,0.845,0.845,0,0,0,.7-0.523,0.911,0.911,0,0,1,.8-0.582,3,3,0,0,0,.49-0.13,0.733,0.733,0,0,0,.42-0.486,0.28,0.28,0,0,0-.09-0.163,2.536,2.536,0,0,1-.27-0.2,0.431,0.431,0,0,1-.05-0.276,0.3,0.3,0,0,1,.23-0.047,6.806,6.806,0,0,1,.72.307,0.488,0.488,0,0,1,.28.466,0.293,0.293,0,0,0,.28.318,1.169,1.169,0,0,1,.34.1,1.665,1.665,0,0,0,1.28.1,2.142,2.142,0,0,0,.53-0.343,1,1,0,0,1,.38-0.152c0.68-.062,1.36-0.111,2.03-0.15a3.477,3.477,0,0,1,.42.068,0.442,0.442,0,0,0,.29-0.044,1.4,1.4,0,0,1,.97-0.256,0.273,0.273,0,0,1,.16.206,2.978,2.978,0,0,1,.03.518,0.421,0.421,0,0,0,.31.463,2.87,2.87,0,0,0-.68,1.379,1.139,1.139,0,0,1-.18.242,1.274,1.274,0,0,1-.21.135l0.09,0.1a1.13,1.13,0,0,0,.26-0.154,0.371,0.371,0,0,1,.53-0.042,2.959,2.959,0,0,0,.52.241,0.483,0.483,0,0,1,.38.351,0.156,0.156,0,0,0,.09.106,0.171,0.171,0,0,0,.13-0.086,5.017,5.017,0,0,0,.18-0.534,0.354,0.354,0,0,1,.28-0.287,0.683,0.683,0,0,0,.27-0.1,0.59,0.59,0,0,1,.71-0.023c0.15,0.069.3,0.14,0.45,0.224a1.067,1.067,0,0,0,.8.147,0.31,0.31,0,0,1,.39.145,0.268,0.268,0,0,0,.25.053c0.17-.071.33-0.185,0.5-0.27a0.339,0.339,0,0,1,.21-0.04,0.185,0.185,0,0,1,.08.151,0.332,0.332,0,0,1-.17.126c-0.22.071-.16,0.257-0.16,0.4a0.329,0.329,0,0,0,.2.211,3.745,3.745,0,0,0,.62.071,0.2,0.2,0,0,0,.14-0.05,4.444,4.444,0,0,0,.78-1.257,0.538,0.538,0,0,0-.11-0.505,0.417,0.417,0,0,1,.17-0.68,0.442,0.442,0,0,1-.1-0.492,0.534,0.534,0,0,0-.21-0.648,2.433,2.433,0,0,1-.22-0.2c0.16-.118.31-0.225,0.5-0.357V84a0.565,0.565,0,0,1,.47.3,0.974,0.974,0,0,0,.6.381,1.64,1.64,0,0,1,1.05.6,3,3,0,0,0,.74.631,0.24,0.24,0,0,0,.2-0.039,0.363,0.363,0,0,1,.56.03,1.137,1.137,0,0,0,.27.13c0.21,0.1.43,0.191,0.63,0.306,0.18,0.1.33,0.226,0.5,0.341a0.427,0.427,0,0,0,.07-0.056v0.644a0.936,0.936,0,0,1,.25-0.031,0.749,0.749,0,0,1,.38.119,0.982,0.982,0,0,0,.69.324,1.713,1.713,0,0,1,.31.057,0.643,0.643,0,0,1,.51.977,1.158,1.158,0,0,0-.07.366,0.3,0.3,0,0,0,.33.3,0.245,0.245,0,0,0,.31-0.243,0.337,0.337,0,0,1,.15-0.178,2.723,2.723,0,0,0,.37-0.3c0.39-.034.47,0.033,0.51,0.413a1.028,1.028,0,0,0,1.03,1.017,2.672,2.672,0,0,1,.31.061,0.3,0.3,0,0,1,.23.362,0.78,0.78,0,0,0,.11.652c0.09,0.17.03,0.241-.12,0.336a0.931,0.931,0,0,1-.82.08c0.02,0.085.03,0.131,0.05,0.212a4.635,4.635,0,0,1-.68.1,2.309,2.309,0,0,0-1.44.61,5.686,5.686,0,0,0-1.35,1.558,1.47,1.47,0,0,0-.04,1.463c0.23,0.5.47,1,.68,1.506a3.529,3.529,0,0,1,.12.623h-0.73v0.07c0.13,0.012.26,0.027,0.4,0.035,0.1,0.006.21,0,.31,0.005,0.26,0.015.34,0.148,0.23,0.378-0.02.034-.04,0.068-0.07,0.123l0.32,0.037a1.3,1.3,0,0,1-.17.168c-0.52.372-1.07,0.724-1.57,1.121a1.515,1.515,0,0,0-.43.617,0.387,0.387,0,0,0,.42.477,2.124,2.124,0,0,0,.23-0.029,1.866,1.866,0,0,1-.25.329c-0.39.278-.78,0.548-1.18,0.805a1.774,1.774,0,0,0-.8.743,10.111,10.111,0,0,1-.69,1.1,0.29,0.29,0,0,1-.51.033,0.5,0.5,0,0,0-.64-0.22,0.419,0.419,0,0,1,.48.365,0.27,0.27,0,0,1-.19.33c-0.9.3-1.81,0.616-2.72,0.9a15.591,15.591,0,0,0-5.58,2.784c-0.64.537-1.29,1.062-1.91,1.611-0.23.2-.39,0.455-0.61,0.669a1.156,1.156,0,0,1-.38.263,0.284,0.284,0,0,1-.39-0.169,2.621,2.621,0,0,0-.19-0.29c-0.03.154-.05,0.233-0.07,0.339h-0.45c0,0.3.21,0.312,0.44,0.311-0.21.15-.39,0.279-0.58,0.413-0.02-.077-0.05-0.177-0.1-0.329-0.24.19-.45,0.371-0.68,0.519a0.792,0.792,0,0,1-.32.048,1.729,1.729,0,0,1-.12.643,2.208,2.208,0,0,1-.56.459,1.413,1.413,0,0,1,.03.193,0.222,0.222,0,0,1-.23.267,4.575,4.575,0,0,0-.5.012,4.112,4.112,0,0,0-.77.147,0.582,0.582,0,0,1-.66-0.111,0.528,0.528,0,0,0-.36-0.115,0.834,0.834,0,0,1-1.04-.723,3.978,3.978,0,0,0-.31-0.722c-0.11-.214-0.21-0.2-0.45.021,0.1,0.165.2,0.331,0.32,0.535a0.741,0.741,0,0,1-.53-0.769,0.88,0.88,0,0,1-.47-0.64,1.284,1.284,0,0,0-.18-0.34l-0.08-.007c-0.04.121-.07,0.245-0.12,0.362s-0.12.234-.2,0.392c-0.05-.118-0.08-0.185-0.12-0.277-0.13.179,0.02,0.553-.39,0.508,0.11-.231.06-0.316-0.27-0.426a1.588,1.588,0,0,1,.08.456,1.532,1.532,0,0,1-.24.412c-0.24-.225-0.49-0.6-0.91-0.241,0.04,0.166.08,0.318,0.12,0.513,0.06-.115.09-0.2,0.13-0.286,0.22,0.068.16,0.189,0.1,0.263a3.494,3.494,0,0,1,.23.564,1.2,1.2,0,0,1-.32.191c0.03,0.159-.11.179-0.27,0.22a4.246,4.246,0,0,0-.62.231,0.645,0.645,0,0,0-.15.2c-0.11-.064-0.22-0.127-0.33-0.206a0.208,0.208,0,0,0-.34.063c-0.1.157-.2,0.32-0.32,0.473-0.08.113-.2,0.2-0.27,0.322a2.693,2.693,0,0,0-.19.418h0.28v0.375l0.36,0.034c-0.18.261-.33,0.491-0.51,0.748a0.677,0.677,0,0,1,.17.128,0.34,0.34,0,0,1,.11.216,0.21,0.21,0,0,1-.16.119c-0.21.055-.43,0.082-0.65,0.144-0.24.07-.31,0.043-0.37-0.2v-0.023a1.485,1.485,0,0,0-.72-0.348,0.243,0.243,0,0,0-.09.173,0.816,0.816,0,0,1-.64.8,1.836,1.836,0,0,0-.47.476,0.417,0.417,0,0,1-.22-0.621,0.407,0.407,0,0,0-.2-0.513,0.7,0.7,0,0,1-.18-0.405,0.222,0.222,0,0,1-.16-0.3c0.07-.29-0.25-0.231-0.38-0.424-0.27.322-.53,0.62-0.78,0.92a0.131,0.131,0,0,0-.04.105c0.22,0.249,0,.4-0.13.564-0.01.018-.02,0.041-0.03,0.062-0.01.006,0,.015,0,0.037l0.4,0.058a0.357,0.357,0,0,1-.09.147,1.11,1.11,0,0,0-.43.543,0.263,0.263,0,0,0,.08.409,0.58,0.58,0,0,1,.09.077c-0.02.2-.04,0.344-0.04,0.49,0,0.248-.05.3-0.29,0.238-0.21-.056-0.23.113-0.28,0.233a1.419,1.419,0,0,0-.02.332,4.812,4.812,0,0,1-.61-0.351,2.324,2.324,0,0,0-.99-0.3,0.185,0.185,0,0,0-.13.086,2.52,2.52,0,0,1-1.22.664,1.465,1.465,0,0,0-.45.272c-0.18.138-.35,0.294-0.54,0.458-0.05-.083-0.08-0.134-0.12-0.2a0.492,0.492,0,0,0-.13.084,1.329,1.329,0,0,1-1.21.467c-0.29.007-.58-0.028-0.88-0.044,0.04-.143.08-0.3,0.12-0.469l0.26-.02c0.01-.077.03-0.158,0.04-0.239a0.433,0.433,0,0,1,.03-0.18,0.793,0.793,0,0,0,.22-0.665c0.07-.3.17-0.588,0.25-0.882a0.378,0.378,0,0,0,.04-0.1c-0.25-.262.02-0.511,0.09-0.707a1.034,1.034,0,0,1,.62-0.37c0.15-.05.26-0.058,0.25-0.25-0.01-.134.07-0.16,0.19-0.116,0.06,0.022.12,0.037,0.18,0.059a0.226,0.226,0,0,0,.32-0.147,2.506,2.506,0,0,1,.36-0.568,2.159,2.159,0,0,1,.65-0.644,0.753,0.753,0,0,1,.31-0.226,0.431,0.431,0,0,0,.12-0.22,0.705,0.705,0,0,1-.38-0.521c0.27,0.253.36,0.073,0.51-.1a1.8,1.8,0,0,1,.55-0.306,0.612,0.612,0,0,0,.17-0.055,0.631,0.631,0,0,1,.47-0.349,0.438,0.438,0,0,0,.15-0.249,3.291,3.291,0,0,0,.06-0.444,0.375,0.375,0,0,1,.35-0.378,0.206,0.206,0,0,0,.22-0.268,3.937,3.937,0,0,0-.11-0.478c-0.05-.173-0.13-0.339-0.17-0.514s-0.03-.376-0.33-0.37a1.426,1.426,0,0,0,.13-0.239,0.516,0.516,0,0,0,.01-0.324,0.369,0.369,0,0,1-.09-0.447,0.652,0.652,0,0,0-.04-0.647,0.307,0.307,0,0,1,.07-0.157c0.06-.092.12-0.181,0.18-0.271a0.659,0.659,0,0,0-.26-0.148,0.421,0.421,0,0,1-.44-0.4,2.134,2.134,0,0,0-.13-0.323c-0.08.06-.14,0.1-0.19,0.137a0.152,0.152,0,0,1-.04-0.066,5.233,5.233,0,0,1,.09-1.85,0.2,0.2,0,0,0-.18-0.294,1.006,1.006,0,0,1-.25-0.035,0.306,0.306,0,0,1-.17-0.2,0.27,0.27,0,0,0-.2-0.3c-0.09-.034-0.18-0.077-0.26-0.113a0.626,0.626,0,0,1-.37-0.994,5.232,5.232,0,0,1,.6-0.725c0.22,0.257.4,0.473,0.59,0.688,0.3-.253.31-0.262,0.65-0.017a0.984,0.984,0,0,0,.77.237,0.321,0.321,0,0,1,.23.145c0.2,0.309.39,0.629,0.59,0.963,0.2-.139.37-0.254,0.54-0.372a0.649,0.649,0,0,1,.78-0.012,5.085,5.085,0,0,0,.48.228,0.511,0.511,0,0,0,.06.628c0.26-.16.52-0.305,0.75-0.472a0.253,0.253,0,0,0,.11-0.231,1.327,1.327,0,0,1-.04-0.763A1.275,1.275,0,0,0,1164.5,103.63Z" transform="translate(-1110 -84)"/>
  <path class="cls-2" d="M1169.19,107.679a0.239,0.239,0,0,1,.03-0.085,0.415,0.415,0,0,0-.11-0.543,7.968,7.968,0,0,1-1.16-1.564c-0.16-.271-0.31-0.539-0.46-0.814a0.226,0.226,0,0,0-.18-0.153,0.383,0.383,0,0,1-.35-0.311,0.124,0.124,0,0,0-.03-0.079,0.41,0.41,0,0,1,.02-0.493,0.223,0.223,0,0,0,.03-0.194,10.773,10.773,0,0,1-.57-3.079,0.179,0.179,0,0,0-.08-0.126c-0.08-.052-0.18-0.081-0.26-0.13a0.119,0.119,0,0,1,0-.217,0.034,0.034,0,0,1,.01-0.007,0.464,0.464,0,0,0,.35-0.548,10.739,10.739,0,0,1,.55-2.806,0.233,0.233,0,0,0-.03-0.181,0.4,0.4,0,0,1-.03-0.465,0.421,0.421,0,0,0,.05-0.106,0.347,0.347,0,0,1,.32-0.3,0.255,0.255,0,0,0,.21-0.168,10.435,10.435,0,0,1,1.74-2.519,0.19,0.19,0,0,0,.04-0.213,0.978,0.978,0,0,1-.08-0.231,0.115,0.115,0,0,1,.15-0.155,0.153,0.153,0,0,1,.05.015,0.4,0.4,0,0,0,.55-0.114,9.868,9.868,0,0,1,2.38-1.605,0.233,0.233,0,0,0,.15-0.185,0.374,0.374,0,0,1,.31-0.346,0.27,0.27,0,0,0,.09-0.037,0.381,0.381,0,0,1,.47.026,0.214,0.214,0,0,0,.23.02,10.446,10.446,0,0,1,3.04-.556,0.139,0.139,0,0,0,.15-0.1,2.086,2.086,0,0,1,.12-0.245,0.12,0.12,0,0,1,.22,0,0.012,0.012,0,0,0,.01.012,0.456,0.456,0,0,0,.54.351,10.151,10.151,0,0,1,2.81.549,0.248,0.248,0,0,0,.19-0.042,0.371,0.371,0,0,1,.44-0.023,0.509,0.509,0,0,0,.14.053,0.354,0.354,0,0,1,.28.32,0.25,0.25,0,0,0,.16.207,10.4,10.4,0,0,1,2.52,1.729,0.169,0.169,0,0,0,.22.045,1.081,1.081,0,0,1,.23-0.076,0.113,0.113,0,0,1,.15.152,0.061,0.061,0,0,1-.01.041,0.418,0.418,0,0,0,.12.577,9.82,9.82,0,0,1,1.6,2.359,0.222,0.222,0,0,0,.18.152,0.384,0.384,0,0,1,.35.311,0.23,0.23,0,0,0,.03.08,0.424,0.424,0,0,1-.02.492,0.223,0.223,0,0,0-.03.194,10.773,10.773,0,0,1,.57,3.079,0.178,0.178,0,0,0,.08.126c0.08,0.052.18,0.081,0.26,0.13a0.119,0.119,0,0,1,0,.218,0.053,0.053,0,0,1-.01.006,0.464,0.464,0,0,0-.35.548,10.738,10.738,0,0,1-.55,2.806,0.2,0.2,0,0,0,.02.167,0.4,0.4,0,0,1,.03.492,0.589,0.589,0,0,0-.05.133,0.328,0.328,0,0,1-.3.252,0.308,0.308,0,0,0-.23.184,10.256,10.256,0,0,1-1.72,2.5,0.182,0.182,0,0,0-.04.237,1.361,1.361,0,0,1,.07.2c0.03,0.129-.03.194-0.16,0.164a0.109,0.109,0,0,1-.03-0.007,0.428,0.428,0,0,0-.58.118,9.682,9.682,0,0,1-2.36,1.6,0.238,0.238,0,0,0-.15.186,0.364,0.364,0,0,1-.3.34,0.474,0.474,0,0,0-.1.042,0.38,0.38,0,0,1-.47-0.027,0.207,0.207,0,0,0-.22-0.024,10.367,10.367,0,0,1-3.05.561,0.142,0.142,0,0,0-.15.1c-0.04.084-.08,0.167-0.12,0.245a0.121,0.121,0,0,1-.22,0s-0.01-.008-0.01-0.012a0.45,0.45,0,0,0-.53-0.349,10.145,10.145,0,0,1-2.82-.55,0.289,0.289,0,0,0-.21.049,0.35,0.35,0,0,1-.41.022,0.723,0.723,0,0,0-.15-0.06,0.355,0.355,0,0,1-.28-0.321,0.237,0.237,0,0,0-.15-0.2,10.437,10.437,0,0,1-2.53-1.736,0.168,0.168,0,0,0-.22-0.044,1.266,1.266,0,0,1-.23.076A0.113,0.113,0,0,1,1169.19,107.679Zm6.49-9.176c0.19-.147.19-0.148,0.1-0.341-0.08-.169-0.15-0.339-0.24-0.5a2.3,2.3,0,0,0-1.1-1.09,0.165,0.165,0,0,1-.1-0.222,3.667,3.667,0,0,0-.06-1.581,19.985,19.985,0,0,0-.89-2.376,0.859,0.859,0,0,0-.47-0.444,0.271,0.271,0,0,0-.29.014c-0.34.217-.69,0.411-1.01,0.643a9.092,9.092,0,0,0-2.66,3.028,0.28,0.28,0,0,0-.02.28,0.938,0.938,0,0,0,.51.5c0.55,0.221,1.1.448,1.66,0.662a4.066,4.066,0,0,0,2.27.254,0.175,0.175,0,0,1,.2.121,3.3,3.3,0,0,0,.33.5,3.37,3.37,0,0,0,1.27.837c0.19,0.083.19,0.083,0.32-.126q-2.475-2.466-4.94-4.934c0.06-.063.11-0.12,0.17-0.18C1172.38,95.2,1174.02,96.85,1175.68,98.5Zm2.66,0.01c1.65-1.653,3.3-3.3,4.93-4.942,0.06,0.05.12,0.1,0.2,0.176q-2.475,2.483-4.95,4.951c0.12,0.173.12,0.177,0.31,0.087,0.23-.108.45-0.214,0.67-0.34a2.176,2.176,0,0,0,.93-1,0.172,0.172,0,0,1,.23-0.1,3.669,3.669,0,0,0,1.59-.064,19.3,19.3,0,0,0,2.37-.888,0.885,0.885,0,0,0,.44-0.472,0.281,0.281,0,0,0-.02-0.28,9.186,9.186,0,0,0-3.67-3.668,0.313,0.313,0,0,0-.21-0.044,0.866,0.866,0,0,0-.57.507c-0.23.59-.47,1.179-0.7,1.774a3.926,3.926,0,0,0-.22,2.171,0.176,0.176,0,0,1-.12.2,3.779,3.779,0,0,0-.58.4,3.272,3.272,0,0,0-.75,1.18C1178.13,98.355,1178.13,98.355,1178.34,98.514Zm-0.02,2.988c-0.19.142-.19,0.143-0.1,0.336,0.08,0.173.16,0.347,0.25,0.515a2.317,2.317,0,0,0,1.09,1.078,0.162,0.162,0,0,1,.11.208,3.228,3.228,0,0,0,.07,1.662c0.27,0.782.58,1.55,0.88,2.32a0.835,0.835,0,0,0,.44.427,0.328,0.328,0,0,0,.33-0.013,9.31,9.31,0,0,0,1.68-1.192,8.949,8.949,0,0,0,1.98-2.5,0.208,0.208,0,0,0,.03-0.169,0.848,0.848,0,0,0-.51-0.583c-0.56-.224-1.12-0.451-1.68-0.667a4.046,4.046,0,0,0-2.27-.255,0.182,0.182,0,0,1-.2-0.119,4.377,4.377,0,0,0-.41-0.6,3.515,3.515,0,0,0-1.19-.744c-0.18-.084-0.18-0.084-0.32.12q2.475,2.468,4.94,4.932c-0.06.067-.11,0.126-0.17,0.193C1181.61,104.8,1179.97,103.15,1178.32,101.5Zm-2.83-.187c-0.13-.189-0.13-0.193-0.31-0.1-0.22.106-.44,0.208-0.65,0.331a2.152,2.152,0,0,0-.96,1.021,0.17,0.17,0,0,1-.22.1,3.587,3.587,0,0,0-1.54.045,17.444,17.444,0,0,0-2.44.914,0.8,0.8,0,0,0-.39.389,0.378,0.378,0,0,0,0,.409,9.244,9.244,0,0,0,3.52,3.548,0.453,0.453,0,0,0,.66-0.07,0.955,0.955,0,0,0,.24-0.332c0.25-.588.49-1.178,0.71-1.773a3.927,3.927,0,0,0,.22-2.171,0.18,0.18,0,0,1,.12-0.2,3.616,3.616,0,0,0,.51-0.335,3.374,3.374,0,0,0,.83-1.263c0.09-.195.09-0.195-0.14-0.33-1.64,1.642-3.29,3.291-4.92,4.922-0.06-.043-0.12-0.091-0.2-0.15Q1173.02,103.775,1175.49,101.314Zm3.47-.957c0.07,0.03.14,0.06,0.21,0.087a2.751,2.751,0,0,0,2.09.165,0.138,0.138,0,0,1,.18.069,3.611,3.611,0,0,0,1.33,1.181c0.72,0.344,1.46.66,2.19,0.975a0.775,0.775,0,0,0,.38.037,0.48,0.48,0,0,0,.48-0.4,13.065,13.065,0,0,0,.31-1.866,9.166,9.166,0,0,0-.32-3.083,0.456,0.456,0,0,0-.52-0.4,1.059,1.059,0,0,0-.41.072c-0.52.21-1.04,0.431-1.55,0.658a4.243,4.243,0,0,0-1.8,1.358c-0.15.208-.16,0.2-0.41,0.123-0.03-.01-0.06-0.016-0.09-0.025a2.3,2.3,0,0,0-1.25.035c-0.28.078-.55,0.19-0.82,0.286a1.7,1.7,0,0,0,.04.234h7v0.271h-7.01C1178.98,100.218,1178.97,100.283,1178.96,100.357Zm-3.95-.223h-7V99.862h7c0.01-.079.02-0.144,0.03-0.225-0.19-.072-0.38-0.148-0.58-0.212a2.4,2.4,0,0,0-1.71-.036,0.176,0.176,0,0,1-.22-0.089,3.407,3.407,0,0,0-1.29-1.153c-0.73-.348-1.47-0.667-2.2-0.985a0.779,0.779,0,0,0-.67.056,0.271,0.271,0,0,0-.13.149,9.116,9.116,0,0,0-.05,5.1,0.436,0.436,0,0,0,.48.405,1.029,1.029,0,0,0,.43-0.061c0.49-.192.97-0.4,1.44-0.608a4.483,4.483,0,0,0,2.04-1.543,0.24,0.24,0,0,1,.2-0.036c0.14,0.026.28,0.09,0.42,0.109a3.537,3.537,0,0,0,1.84-.374C1175.03,100.284,1175.02,100.219,1175.01,100.134Zm1.85,8.867v-7.008c-0.08-.011-0.14-0.02-0.23-0.031-0.07.212-.16,0.42-0.22,0.633a2.33,2.33,0,0,0-.02,1.645,0.18,0.18,0,0,1-.09.227,3.853,3.853,0,0,0-1.34,1.636c-0.27.582-.52,1.173-0.76,1.766a1.341,1.341,0,0,0-.07.447,0.424,0.424,0,0,0,.33.475,9.134,9.134,0,0,0,1.95.337,9.013,9.013,0,0,0,3.23-.37,0.227,0.227,0,0,0,.13-0.113,0.845,0.845,0,0,0,.03-0.788c-0.25-.561-0.49-1.124-0.73-1.686a3.616,3.616,0,0,0-1.17-1.548,0.459,0.459,0,0,1-.22-0.616,3.056,3.056,0,0,0-.32-2.047l-0.23.037v7h-0.27Zm0.28-11.011c0.18,0.094.25,0.012,0.3-.143s0.1-.287.15-0.433a2.347,2.347,0,0,0,.04-1.59,0.228,0.228,0,0,1,.1-0.314,3.474,3.474,0,0,0,1.19-1.376c0.32-.657.59-1.336,0.88-2.006a0.9,0.9,0,0,0,0-.738,0.268,0.268,0,0,0-.18-0.163,10.016,10.016,0,0,0-1.68-.327,9.04,9.04,0,0,0-3.42.293,0.448,0.448,0,0,0-.39.505,1.265,1.265,0,0,0,.07.432q0.21,0.543.45,1.072c0.18,0.4.37,0.81,0.58,1.2a3.6,3.6,0,0,0,1.09,1.15,0.167,0.167,0,0,1,.07.212,2.975,2.975,0,0,0,.25,2.28l0.23-.039V91h0.27V97.99ZM1177.6,100a0.6,0.6,0,0,0-1.2-.006,0.614,0.614,0,0,0,.6.6A0.607,0.607,0,0,0,1177.6,100Z" transform="translate(-1110 -84)"/>
  <path class="cls-3" d="M1200.08,103.885a0.483,0.483,0,0,0,.12-0.023c1.37-.969,1.36-0.963,2.39.44,0.2,0.277.26,0.449-.07,0.649a1.98,1.98,0,0,0-.5.444,1.293,1.293,0,0,0-.19,1.471,1.193,1.193,0,0,0,1.29.581,1.536,1.536,0,0,0,1.6-1.7c0-.55.02-1.1-0.01-1.648a0.418,0.418,0,0,1,.53-0.507c0.55,0.024,1.1.028,1.65,0,0.41-.021.5,0.161,0.5,0.532-0.01,2.1-.02,4.2,0,6.294,0.01,0.449-.16.582-0.56,0.526a0.712,0.712,0,0,0-.08,0,4.293,4.293,0,0,1-1.84-.079c-0.51-.281-0.04-1.1-0.27-1.714a3.918,3.918,0,0,1-2.88.447,3.046,3.046,0,0,1-2.51-2.29,1.84,1.84,0,0,0-.43-0.84,6.144,6.144,0,0,1-1.44-6.584c0.76-2.364,2.62-3.5,4.97-3.907a9.715,9.715,0,0,1,4.96.377,5.55,5.55,0,0,1,3.83,5.06,9.214,9.214,0,0,1-.57,4.343c-0.16.43-.34,0.526-0.76,0.292a6.47,6.47,0,0,1-1.72-.88c-0.42-.479.21-1.117,0.26-1.715a6.546,6.546,0,0,0-.13-2.376c-0.5-1.7-1.95-2.6-4.17-2.605-2.18,0-3.72.929-4.19,2.591A3.848,3.848,0,0,0,1200.08,103.885Zm11.1-10.019c-0.3.329-.48,0.532-0.66,0.727-0.94.983-.94,0.982-2,0.227a7.274,7.274,0,0,0-9.27.344,0.693,0.693,0,0,1-1.18-.089c-1.08-1.19-1.1-1.17.21-2.121a9.688,9.688,0,0,1,12.47.669A2.394,2.394,0,0,0,1211.18,93.866Zm30.81,3.584c0-1.381,0-1.381-1.42-1.381-1.22,0-1.22,0-1.37,1.316a7.077,7.077,0,0,0-3.78-1.532,6.6,6.6,0,0,0-6.88,3.745,5.178,5.178,0,0,0,1.27,6.2c0.59,0.446.6,0.677,0.04,1.1-0.27.2-.72,0.4-0.46,0.89,0.27,0.512.24,1.218,1.09,1.341,1.15,0.168,2.29.491,3.44,0.692,2.45,0.428,4.83,1.28,7.38,1.138,0.55-.031.7-0.145,0.7-0.707C1241.98,105.984,1241.99,101.716,1241.99,97.449Zm-3.31,10.814c-1.69-.411-3.4-0.775-5.29-1.2,0.94-.807,1.73-1.53,2.57-2.189,0.48-.375.6-0.661,0.08-1.086-0.49-.407-0.83-1.271-1.38-1.249-0.48.018-.93,0.751-1.4,1.168a1.233,1.233,0,0,1-.11.1c-0.87.8-1.42,0.7-2.04-.365a3.326,3.326,0,0,1,1.21-4.272,5.351,5.351,0,0,1,6.77,1.248,0.97,0.97,0,0,1,.16.633c0,2.247-.01,4.495.01,6.742C1239.27,108.273,1239.17,108.382,1238.68,108.263Zm-12.16-7.344a5.509,5.509,0,0,0-4.08-4.691,9.386,9.386,0,0,0-4.37-.273c-2.47.42-4.39,1.6-5.12,4.124a6.043,6.043,0,0,0,1.81,6.609,1.127,1.127,0,0,1,.45.569c0.4,1.819,2.44,2.668,4.14,2.413,0.67-.1.93-0.01,0.81,0.688-0.08.443,0.08,0.632,0.56,0.591a11.269,11.269,0,0,1,1.57,0,0.407,0.407,0,0,0,.52-0.5c-0.02-.748-0.01-1.5-0.01-2.247h-0.03a23.9,23.9,0,0,0-.02-2.395,2.849,2.849,0,0,0-2.1-2.642,4.593,4.593,0,0,0-4.41.638c-0.33.254-.48,0.264-0.63-0.139a3.632,3.632,0,0,1,2.03-4.88,5.583,5.583,0,0,1,3.97.034,3.313,3.313,0,0,1,2.17,2.734,10.478,10.478,0,0,1,.02,1.94c-0.01.6-.72,1.192-0.22,1.7a5.773,5.773,0,0,0,1.66.835,0.552,0.552,0,0,1,.07.033c0.38,0.277.56,0.095,0.7-.28A9.463,9.463,0,0,0,1226.52,100.919Zm-7.58,4.267a1.157,1.157,0,1,1-1.32,1.153A1.1,1.1,0,0,1,1218.94,105.186Z" transform="translate(-1110 -84)"/>
  <path class="cls-4" d="M1117.41,91.008a9.788,9.788,0,0,1,4,.669,6.923,6.923,0,0,1,4.33,6.484,9.891,9.891,0,0,1-.95,5.053,0.616,0.616,0,0,0,.11.783c0.63,0.708,1.22,1.452,1.84,2.163,0.2,0.23.17,0.339-.06,0.5-0.67.463-1.33,0.943-1.98,1.429a0.286,0.286,0,0,1-.48-0.084c-0.82-1.14-1.64-2.279-2.49-3.4a0.506,0.506,0,0,1,.05-0.637,9.507,9.507,0,0,0,.94-6.173,4.523,4.523,0,0,0-4.07-3.874,6.686,6.686,0,0,0-3.43.312,4,4,0,0,0-2.22,5c0.12,0.332.21,0.466,0.53,0.154,0.9-.864.91-0.85,1.67,0.133a2.844,2.844,0,0,1,.66.92c0.09,0.424-.47.506-0.71,0.776a2.26,2.26,0,0,0,2.74,3.58,1.153,1.153,0,0,0,.55-0.843,0.74,0.74,0,0,0-.23-0.757c-0.26-.193-0.42.141-0.54,0.288-0.39.481-.69,0.417-1.05-0.038a10.675,10.675,0,0,0-1.04-1.044,0.282,0.282,0,0,1,0-.486c1.06-1.027,2.1-2.06,3.14-3.1a0.285,0.285,0,0,1,.49.015q0.7,0.757,1.44,1.489c0.17,0.178.23,0.336-.01,0.476-0.54.314-.4,0.595-0.09,1.054a3.567,3.567,0,0,1-.79,4.744,5.8,5.8,0,0,1-6.59-.147,4.331,4.331,0,0,1-1.38-3.622,0.9,0.9,0,0,0-.22-0.7c-2.77-3.113-1.98-9.358,3.16-10.758A8.943,8.943,0,0,1,1117.41,91.008Zm39.52,13.313c0,0.85-.02,1.7,0,2.551a0.355,0.355,0,0,1-.43.445c-0.59-.02-1.18-0.027-1.77,0-0.39.019-.48-0.137-0.48-0.514,0.02-1.422.01-2.846,0.01-4.269a2.885,2.885,0,0,0-.1-0.877,0.548,0.548,0,0,0-.49-0.438,0.592,0.592,0,0,0-.63.325,2,2,0,0,0-.18.967c0,1.441-.02,2.883,0,4.324,0.01,0.355-.08.5-0.44,0.482-0.59-.027-1.18-0.025-1.77,0-0.35.014-.46-0.114-0.46-0.477,0.02-1.422.01-2.846,0.01-4.269,0-.148,0-0.3-0.01-0.443-0.02-.391-0.02-0.825-0.51-0.9a0.765,0.765,0,0,0-.84.75,9.474,9.474,0,0,0-.01,3.143,10.5,10.5,0,0,0,.25,1.47c0.07,0.3,0,.447-0.3.5-0.6.1-1.19,0.221-1.79,0.342a0.344,0.344,0,0,1-.48-0.326,17.872,17.872,0,0,1-.42-4.892,0.75,0.75,0,0,0-.17-0.654c-1.9-1.9-1.96-5.96.26-8.257a7.862,7.862,0,0,1,5.95-2.3,8.448,8.448,0,0,1,5.45,1.6,6.279,6.279,0,0,1,2.36,4.485,11.835,11.835,0,0,1-.12,3.145c-0.06.434-.17,0.668-0.67,0.471a12.466,12.466,0,0,0-1.81-.518c-0.41-.09-0.44-0.311-0.37-0.67a5.824,5.824,0,0,0,.01-2.2,4.116,4.116,0,0,0-3.61-3.366,5.761,5.761,0,0,0-4.66.951,3.749,3.749,0,0,0-1.28,4.05c0.1,0.345.23,0.245,0.45,0.121a2.935,2.935,0,0,1,3.66.361c0.27,0.239.37,0.032,0.52-.1a2.931,2.931,0,0,1,3.36-.371,3.029,3.029,0,0,1,1.49,2.865c0.03,0.831.01,1.664,0.01,2.5h0.01Zm-13.95-6.933a6.367,6.367,0,0,0-2.76-5.065,7.582,7.582,0,0,0-3.62-1.252,9.823,9.823,0,0,0-5.87,1.006c-3.75,2.072-4.04,7.223-1.83,9.47a0.672,0.672,0,0,1,.17.5,3.357,3.357,0,0,0,1.07,2.454c0.24,0.207.18,0.332,0,.52-0.57.61-1.12,1.236-1.7,1.843a0.525,0.525,0,0,0-.12.682,13.485,13.485,0,0,1,.55,1.38,0.7,0.7,0,0,0,.63.5c0.76,0.115,1.51.258,2.27,0.392,2.16,0.384,4.32.765,6.48,1.157a0.409,0.409,0,0,0,.57-0.42,10.4,10.4,0,0,1,.28-1.465,0.413,0.413,0,0,0-.4-0.616c-1.46-.257-2.91-0.541-4.37-0.817-0.95-.181-1.91-0.364-2.94-0.562a12.148,12.148,0,0,1,1.42-1.365c-0.15.782,0.25,0.828,0.75,0.779,0.28-.027.57,0,0.86,0,1.08,0,1.08,0,1.08-1.145,0-1.22,0-2.44.02-3.659a0.785,0.785,0,0,1,.63-0.941c0.54-.07.83,0.228,0.84,0.935,0.03,1.441.03,2.883,0.02,4.325-0.01.347,0.07,0.5,0.44,0.491,0.66-.022,1.32-0.013,1.98,0a0.309,0.309,0,0,0,.37-0.385c-0.01-1.756.02-3.512-.02-5.267a2.589,2.589,0,0,0-1.33-2.266,3.242,3.242,0,0,0-3.92.4c-0.15.181-.24,0.175-0.42,0a2.6,2.6,0,0,0-3.33-.49c-0.31.169-.4,0.174-0.44-0.23a3.7,3.7,0,0,1,2-3.776,6.086,6.086,0,0,1,4.28-.51,4.143,4.143,0,0,1,3.46,3.712,6.587,6.587,0,0,1-.1,1.931,0.385,0.385,0,0,0,.35.531c0.66,0.164,1.31.343,1.95,0.561,0.38,0.128.46-.024,0.52-0.364A11.9,11.9,0,0,0,1142.98,97.388Zm-10.69,3.255a1.223,1.223,0,0,1-.01,2.326,1.03,1.03,0,0,1-.85-1.248A0.864,0.864,0,0,1,1132.29,100.643Z" transform="translate(-1110 -84)"/>
</svg>
