<svg id="Group_223" data-name="Group 223" xmlns="http://www.w3.org/2000/svg" xmlns:xlink="http://www.w3.org/1999/xlink" width="59.804" height="59.803" viewBox="0 0 59.804 59.803">
  <defs>
    <clipPath id="clip-path">
      <rect id="Rectangle_97" data-name="Rectangle 97" width="59.804" height="59.803" fill="none"/>
    </clipPath>
  </defs>
  <g id="Group_222" data-name="Group 222" transform="translate(0 0)" clip-path="url(#clip-path)">
    <path id="Path_307" data-name="Path 307" d="M59.8,29.9A29.9,29.9,0,1,1,29.9,0,29.9,29.9,0,0,1,59.8,29.9" transform="translate(0 0)" fill="#35208a"/>
    <path id="Path_308" data-name="Path 308" d="M57.88,65.661a.332.332,0,0,0-.032-.064.341.341,0,0,0-.04-.056c-1.644-2.446-4.881-1.979-7.385-2.762q.025-2.917.326-5.818a.3.3,0,0,0-.373-.285l-7.561,1.811a.3.3,0,0,0-.216.284,16.752,16.752,0,0,1-.141,2.868c-.155,1.1-.265,2.36-1.47,2.772a37.469,37.469,0,0,1-5.293,1.111,5.7,5.7,0,0,0-3.784,1.926c-.885,1.275-.249,2.491.857,3.344a10.33,10.33,0,0,0,4.267,1.729,33.893,33.893,0,0,0,5.714.623c3.619.13,7.555.272,11.061-.784a6.472,6.472,0,0,0,3.858-2.713,4.091,4.091,0,0,0,.212-3.985" transform="translate(-12.765 -22.969)" fill="#ffb07f"/>
    <path id="Path_309" data-name="Path 309" d="M52.477,30.845c-.845-4.025-2.484-8.618-6.673-10.193-3.872-1.455-8.732-.3-12.037,1.972A9.9,9.9,0,0,0,29.6,27.972c-.732,2.749.6,4.983,1.961,7.266,1.561,2.609,2.26,5.912,4.547,8.047,1.9,1.772,4.584,2.3,7.075,2.622a5.634,5.634,0,0,0,4.364-.946,9.765,9.765,0,0,0,2.956-3.8c1.648-3.2,2.67-6.717,1.975-10.32" transform="translate(-11.913 -8.109)" fill="#ffb07f"/>
    <path id="Path_310" data-name="Path 310" d="M49.859,60.771a9.939,9.939,0,0,0,2.634.7,3.631,3.631,0,0,0,2.084-.537,7.827,7.827,0,0,0,3.212-2.79.157.157,0,0,0-.271-.158,7.773,7.773,0,0,1-2.928,2.563,3.484,3.484,0,0,1-2.427.539c-.758-.134-1.489-.392-2.237-.566a.129.129,0,0,0-.068.249" transform="translate(-20.173 -23.474)" fill="#fa8d61"/>
    <path id="Path_311" data-name="Path 311" d="M42.18,71.406a10.26,10.26,0,0,0,3.582,1.318,11.334,11.334,0,0,1,1.974.38c.956.373.975,1.091,1.3,1.917.032.08.178.111.194,0a2.117,2.117,0,0,0-1.76-2.347c-.863-.221-1.757-.26-2.62-.5-.885-.249-1.739-.674-2.642-.846a.045.045,0,0,0-.034.081" transform="translate(-17.088 -28.91)" fill="#fa8d61"/>
    <path id="Path_312" data-name="Path 312" d="M65.346,71.384c-.849.179-1.681.546-2.517.792s-1.708.466-2.565.69c-.48.125-1.162.178-1.5.581a2.439,2.439,0,0,0-.4,1.625.11.11,0,0,0,.216.029c.123-.335.13-.709.263-1.038.237-.59.436-.583.94-.727.662-.191,1.332-.352,2-.536a11.277,11.277,0,0,0,3.588-1.37.025.025,0,0,0-.02-.046" transform="translate(-23.653 -28.934)" fill="#fa8d61"/>
    <path id="Path_313" data-name="Path 313" d="M39.076,42.854c.04,1.191,1.659,3.165,3,2.684,1.75-.63.96-3.049.32-4.187a.174.174,0,0,0-.3.176,5.54,5.54,0,0,1,.641,1.645c.17.873-.123,2.3-1.345,2.068-1.2-.223-1.532-1.659-2.256-2.409a.033.033,0,0,0-.056.023" transform="translate(-15.839 -16.726)" fill="#35208a"/>
    <path id="Path_314" data-name="Path 314" d="M43.24,49.224a1.507,1.507,0,0,0,.125-.86c-.027-.206-.347-.219-.334,0a4.34,4.34,0,0,1-.049.791c-.016.137.2.187.257.07" transform="translate(-17.422 -19.538)" fill="#35208a"/>
    <path id="Path_315" data-name="Path 315" d="M44.857,49.063a2.026,2.026,0,0,0-.081-.562.845.845,0,0,0-.2-.486.134.134,0,0,0-.221.058,1.008,1.008,0,0,0,.092.482c.048.18.065.37.121.547a.148.148,0,0,0,.29-.039" transform="translate(-17.974 -19.448)" fill="#35208a"/>
    <path id="Path_316" data-name="Path 316" d="M54.2,37.272c.051,1.055.876,2.3.187,3.331-.567.848-1.64.4-2.174-.181a4.988,4.988,0,0,1-.991-1.882c-.067-.213-.4-.123-.336.092.388,1.234,1.606,3.492,3.268,2.64,1.269-.651.944-3.176.1-4.023a.033.033,0,0,0-.056.023" transform="translate(-20.624 -15.095)" fill="#35208a"/>
    <path id="Path_317" data-name="Path 317" d="M57.532,43.72a1.4,1.4,0,0,0-.117-.092,1.632,1.632,0,0,1-.175-.117,2.575,2.575,0,0,1-.289-.275c-.153-.159-.366.072-.236.235a1.725,1.725,0,0,0,.324.3c.056.042.114.081.174.118a.792.792,0,0,0,.213.081c.16.046.226-.165.106-.252" transform="translate(-22.972 -17.504)" fill="#35208a"/>
    <path id="Path_318" data-name="Path 318" d="M56.473,44.833c-.1-.153-.211-.3-.308-.453-.081-.13-.145-.343-.291-.407a.134.134,0,0,0-.194.078c-.041.182.1.35.2.5a2.6,2.6,0,0,0,.365.463c.117.112.326-.034.232-.179" transform="translate(-22.566 -17.818)" fill="#35208a"/>
    <path id="Path_319" data-name="Path 319" d="M47.838,46.017a5.415,5.415,0,0,1,.4,2.012c0,.348-.275.994-.051,1.306.39.545,1.735.18,2.194-.073a.142.142,0,0,0-.109-.257,2.759,2.759,0,0,1-1.3.22c-.673-.2-.386-.847-.394-1.314a5.226,5.226,0,0,0-.447-2.017c-.071-.162-.353-.046-.289.122" transform="translate(-19.386 -18.571)" fill="#35208a"/>
    <path id="Path_320" data-name="Path 320" d="M47.674,53.8a4.669,4.669,0,0,0,4.038.2,4.165,4.165,0,0,0,2.024-2.526c.025-.106-.114-.207-.2-.114-.67.766-.91,1.764-1.886,2.278-1.312.69-2.615.058-3.958.077a.046.046,0,0,0-.023.084" transform="translate(-19.315 -20.803)" fill="#35208a"/>
    <path id="Path_321" data-name="Path 321" d="M60.512,47.577A2.512,2.512,0,1,0,58,45.065a2.54,2.54,0,0,0,2.512,2.512" transform="translate(-23.508 -17.248)" fill="#e0435b"/>
    <path id="Path_322" data-name="Path 322" d="M41.194,55.407a2.2,2.2,0,1,0-2.2-2.2,2.228,2.228,0,0,0,2.2,2.2" transform="translate(-15.803 -20.672)" fill="#e0435b"/>
    <path id="Path_323" data-name="Path 323" d="M54.232,35.745c-.4-.756-.15-1.251.1-2a5.488,5.488,0,0,0,.32-1.546,5.041,5.041,0,0,0-1.079-2.814c-1.169-1.818-1.711-3.911-2.929-5.722a20.082,20.082,0,0,0-4.537-4.706,12.8,12.8,0,0,0-4.92-2.7,6.725,6.725,0,0,0-5.96,1.194c-1.974-.464-4.85.983-6.246,1.962a11.937,11.937,0,0,0-4.862,7.49,33.414,33.414,0,0,0-.362,5.127,26.891,26.891,0,0,0,.212,5.263,10.35,10.35,0,0,0,1.695,4.383,10.088,10.088,0,0,0,1.7,1.8c.347.3.7.585,1.038.894a6.928,6.928,0,0,1,.582.578c.422.492.209.955-.071,1.434a3.987,3.987,0,0,0-.215,4.068,3.525,3.525,0,0,0,1.612,1.287,10.954,10.954,0,0,1,2.442,1.025c.193.155.541.237.38.652-.065.167-.35.321-.464.463a1.024,1.024,0,0,0-.27.617c-.01.681.736.94,1.295.963a5.849,5.849,0,0,0,2.829-.815A7.114,7.114,0,0,0,38.9,52.92a2.613,2.613,0,0,0,.539-2.424,8.709,8.709,0,0,0-.569-1.137,2.21,2.21,0,0,1-.049-1.835,6.386,6.386,0,0,0,.789-2.91,3.892,3.892,0,0,0-1.257-2.35,6.147,6.147,0,0,0-2.074-1.147,12.329,12.329,0,0,1-2.653-.759c-1.745-1.066,1.009-3.138-.107-4.606a3.214,3.214,0,0,0-.907-.62,1.613,1.613,0,0,1-.692-1.013,3.112,3.112,0,0,1,.9-2.765c1.224-1.343,2.805-2.188,3.778-3.777a8.739,8.739,0,0,0,1.267-4.389c1.128,1.375,2.846,2.58,4.6,2.325-.021,1.843.23,3.876,1.842,5.017a6.843,6.843,0,0,1,1.471,1.111,3.169,3.169,0,0,1,.714,1.978c0,1.257-.84,2.285-1.212,3.441a6.28,6.28,0,0,0,.2,3.413,6.75,6.75,0,0,1-.579,4.442A1.624,1.624,0,0,0,44.753,46c.12.417.348.469.659.685.892.618.3,1.16-.014,1.911a1.765,1.765,0,0,0-.093,1.309,2.139,2.139,0,0,0,2.367,1.308,4.692,4.692,0,0,0,2.746-1.792c.548.574,1.491.16,2.014-.441a9.357,9.357,0,0,0,1.853-4.022c.7-2.923,1.347-6.408-.052-9.214" transform="translate(-9.616 -6.503)" fill="#966"/>
    <path id="Path_324" data-name="Path 324" d="M49.3,22.2a4.683,4.683,0,0,0,2.469,3.883c.965.52,2.171.436,3.073,1.057,1.107.762.3,2.07.5,3.155.369,2.029,2.406,3.329,3.161,5.2a4.884,4.884,0,0,1,.064,3.7,13.807,13.807,0,0,0-1.176,2.982c-.337,2.253,1.593,5.366-.555,7.132-.168.138.072.375.238.238,1.517-1.247,1.111-3.338.8-5.022a6.16,6.16,0,0,1,.522-4.151,6.63,6.63,0,0,0,.865-2.9c0-2.3-1.537-3.815-2.781-5.56a4.569,4.569,0,0,1-.761-1.5,4.951,4.951,0,0,1,.076-1.83,1.763,1.763,0,0,0-.94-1.854c-1.1-.62-2.4-.5-3.457-1.283a4.933,4.933,0,0,1-1.9-3.284c-.017-.109-.2-.083-.192.026" transform="translate(-19.982 -8.96)" fill="#35208a"/>
    <path id="Path_325" data-name="Path 325" d="M61.253,27.448c1.412.24,2.181,2.225,2.372,3.47.183,1.19-.374,2.386-.085,3.545a8.793,8.793,0,0,0,1.7,2.7,8.984,8.984,0,0,1,1.538,3.5,5.576,5.576,0,0,1-.812,4,4.671,4.671,0,0,0-.779,3.115,7.093,7.093,0,0,1-.2,3.624A5.522,5.522,0,0,1,63.926,53.1c-.422.459-1.3,1.348-2.014,1.166a.16.16,0,0,0-.085.309c.76.241,1.576-.493,2.093-.988a5.883,5.883,0,0,0,1.474-2.306,6.033,6.033,0,0,0,.219-2.844,5.428,5.428,0,0,1-.024-2.24,9.151,9.151,0,0,1,.931-1.811,6.259,6.259,0,0,0,.006-5.629A13.667,13.667,0,0,0,64.769,36a4.649,4.649,0,0,1-.906-1.622,5.862,5.862,0,0,1,.13-2.027,5.889,5.889,0,0,0-.661-3.293c-.422-.8-1.075-1.724-2.066-1.712-.058,0-.076.1-.014.106" transform="translate(-24.812 -11.082)" fill="#35208a"/>
    <path id="Path_326" data-name="Path 326" d="M69.445,39.24A7.942,7.942,0,0,1,71.3,43.758a15.051,15.051,0,0,0,.03,2.269c.137.767.434,1.5.57,2.266a11.356,11.356,0,0,1-2.4,8.931c-.109.143.129.324.249.192A11.1,11.1,0,0,0,72.3,48.695c-.114-.859-.406-1.653-.591-2.494a26.344,26.344,0,0,1-.112-2.949,6.3,6.3,0,0,0-2.007-4.125c-.076-.061-.214.019-.147.113" transform="translate(-28.141 -15.851)" fill="#35208a"/>
    <path id="Path_327" data-name="Path 327" d="M39.583,24.671c.844,3.547-2.274,5.853-4.524,7.994-1.531,1.456-3.938,4.283-2.238,6.456a4.234,4.234,0,0,0,1.065.786,1.6,1.6,0,0,1,.592.719,2.07,2.07,0,0,1-.114.639c-.1.453-.22.9-.3,1.353a4.432,4.432,0,0,0,.406,3.264,3.022,3.022,0,0,0,2.665,1.2,3.818,3.818,0,0,1,2.127.5,2.808,2.808,0,0,1,1.15,2.116c.033.836-.481,1.429-.674,2.2a2.189,2.189,0,0,0,.312,1.607,3.107,3.107,0,0,1,.532,2.319,2.815,2.815,0,0,1-1.54,1.851c-.143.072-.043.317.111.262a2.857,2.857,0,0,0,1.8-2.221,2.768,2.768,0,0,0-.1-1.38c-.286-.834-1.034-1.513-.751-2.464a9.684,9.684,0,0,0,.64-1.744,3.029,3.029,0,0,0-.228-1.487,2.97,2.97,0,0,0-2.352-1.825,16.545,16.545,0,0,1-2.193-.212,2.429,2.429,0,0,1-1.626-1.964,6.529,6.529,0,0,1,.228-2.747c.117-.508.409-1.183.151-1.692a2.062,2.062,0,0,0-.925-.727,2.369,2.369,0,0,1-1.119-2.611c.307-1.674,1.625-3.029,2.821-4.145,2.186-2.041,5.495-4.681,4.323-8.11a.118.118,0,0,0-.227.062" transform="translate(-13.067 -9.941)" fill="#35208a"/>
    <path id="Path_328" data-name="Path 328" d="M30.538,40.85C29.168,42.443,27.979,44.8,28.9,46.9a4.1,4.1,0,0,0,.811,1.123,1.562,1.562,0,0,1,.463,1.5c-.017.164-.034.325-.042.491A5.58,5.58,0,0,0,30.76,52.9a4.292,4.292,0,0,0,2.232,1.907c1.245.529,2.507,1.132,2.574,2.674.029.659-.274,1.269-.2,1.932a4.107,4.107,0,0,0,.318,1.116c.449,1.1,1.585,3.082-.234,3.6-.152.043-.13.3.039.285A1.533,1.533,0,0,0,36.8,62.843c.024-1.024-.664-1.912-.96-2.851-.37-1.173.329-2.292-.14-3.466a3.5,3.5,0,0,0-2.126-1.843,4.372,4.372,0,0,1-2.845-2.721,5.564,5.564,0,0,1-.252-1.947c.021-.5.256-1.139.034-1.628-.178-.392-.606-.6-.878-.923a3.511,3.511,0,0,1-.737-2.217c-.02-1.644.931-2.987,1.694-4.361.017-.029-.024-.064-.048-.037" transform="translate(-11.583 -16.554)" fill="#35208a"/>
    <path id="Path_329" data-name="Path 329" d="M34.518,68.973a1.944,1.944,0,0,0-.333,2.076,3.572,3.572,0,0,0,1.583,1.941c.183.111.346-.172.167-.285A3.322,3.322,0,0,1,34.5,70.964a3.527,3.527,0,0,1,.084-1.953.038.038,0,0,0-.063-.037" transform="translate(-13.798 -27.953)" fill="#35208a"/>
    <path id="Path_330" data-name="Path 330" d="M58.138,29.933a.416.416,0,0,0-.108-.373.409.409,0,0,0-.257-.167.363.363,0,0,0-.3.118,1.281,1.281,0,0,0-.233.6h0a2.009,2.009,0,0,0,0-.517,1.737,1.737,0,0,0-.04-.234.182.182,0,0,0-.175-.136.573.573,0,0,0-.23.043.367.367,0,0,0-.169.145c-.1.146,0,.335.1.45a1.839,1.839,0,0,0,.219.194l.027.021a1.937,1.937,0,0,0-.2-.093.63.63,0,0,0-.428-.026.272.272,0,0,0-.148.107.333.333,0,0,0-.041.192.294.294,0,0,0,.227.252.671.671,0,0,0,.44-.034,1.21,1.21,0,0,0,.125-.061,1.844,1.844,0,0,0-.147.15,1.687,1.687,0,0,0-.138.181.332.332,0,0,0-.064.205.366.366,0,0,0,.26.313.378.378,0,0,0,.4-.059.475.475,0,0,0,.095-.4,2.112,2.112,0,0,0-.043-.291c.012.026.024.052.038.077a.777.777,0,0,0,.41.4c.288.087.479-.362.293-.557a.716.716,0,0,0-.247-.152,1.036,1.036,0,0,0-.367-.075c.109-.018.218-.039.326-.064.141-.032.316-.062.378-.212" transform="translate(-22.761 -11.847)" fill="#fff"/>
    <path id="Path_331" data-name="Path 331" d="M50.425,34.211a.418.418,0,0,0-.108-.373.409.409,0,0,0-.257-.167.364.364,0,0,0-.3.118,1.288,1.288,0,0,0-.233.6h0a1.983,1.983,0,0,0,0-.517,1.74,1.74,0,0,0-.04-.234.182.182,0,0,0-.175-.136.573.573,0,0,0-.23.043.367.367,0,0,0-.169.145c-.1.146,0,.335.1.45a1.788,1.788,0,0,0,.219.194l.027.021a1.938,1.938,0,0,0-.2-.093.63.63,0,0,0-.428-.026.272.272,0,0,0-.148.107.333.333,0,0,0-.041.192.3.3,0,0,0,.227.252.671.671,0,0,0,.44-.034,1.209,1.209,0,0,0,.125-.061,1.942,1.942,0,0,0-.146.15,1.619,1.619,0,0,0-.139.181.331.331,0,0,0-.063.205.365.365,0,0,0,.26.313.379.379,0,0,0,.4-.059.478.478,0,0,0,.095-.4,2.184,2.184,0,0,0-.043-.291c.012.026.024.051.038.077a.781.781,0,0,0,.41.4c.288.087.479-.362.293-.557a.708.708,0,0,0-.247-.152,1.008,1.008,0,0,0-.367-.075c.109-.019.218-.04.326-.064.141-.031.317-.062.379-.212" transform="translate(-19.634 -13.581)" fill="#fff"/>
    <path id="Path_332" data-name="Path 332" d="M41.3,36.157a.418.418,0,0,0-.108-.373.409.409,0,0,0-.257-.167.364.364,0,0,0-.3.118,1.286,1.286,0,0,0-.232.6h0a2.009,2.009,0,0,0,0-.517,1.738,1.738,0,0,0-.04-.234.182.182,0,0,0-.175-.136.573.573,0,0,0-.23.043.369.369,0,0,0-.169.144c-.1.147,0,.335.1.45a1.788,1.788,0,0,0,.219.194l.027.021a1.938,1.938,0,0,0-.2-.093.63.63,0,0,0-.428-.026.269.269,0,0,0-.148.107.337.337,0,0,0-.042.192.3.3,0,0,0,.227.252.671.671,0,0,0,.44-.034,1.21,1.21,0,0,0,.125-.061,1.846,1.846,0,0,0-.147.15,1.688,1.688,0,0,0-.138.181.336.336,0,0,0-.064.205.368.368,0,0,0,.261.313.378.378,0,0,0,.4-.059.475.475,0,0,0,.095-.4,2.207,2.207,0,0,0-.043-.291c.012.026.024.052.038.077a.777.777,0,0,0,.41.4c.288.087.479-.362.293-.557a.715.715,0,0,0-.247-.152,1.037,1.037,0,0,0-.368-.075c.109-.018.218-.039.326-.064.141-.032.316-.062.378-.212" transform="translate(-15.935 -14.369)" fill="#fff"/>
    <path id="Path_333" data-name="Path 333" d="M32.958,35.951a.416.416,0,0,0-.108-.373.409.409,0,0,0-.257-.167.363.363,0,0,0-.3.118,1.281,1.281,0,0,0-.233.6h0a2.009,2.009,0,0,0,0-.517,1.738,1.738,0,0,0-.04-.234.182.182,0,0,0-.175-.136.573.573,0,0,0-.23.043.367.367,0,0,0-.169.145c-.1.146,0,.335.1.45a1.788,1.788,0,0,0,.219.194l.027.021a1.938,1.938,0,0,0-.2-.093.63.63,0,0,0-.428-.026.272.272,0,0,0-.148.107.333.333,0,0,0-.041.192.294.294,0,0,0,.227.252.671.671,0,0,0,.44-.034,1.209,1.209,0,0,0,.125-.061,1.845,1.845,0,0,0-.147.15,1.769,1.769,0,0,0-.138.181.332.332,0,0,0-.064.205.366.366,0,0,0,.26.313.378.378,0,0,0,.4-.059.475.475,0,0,0,.095-.4,2.09,2.09,0,0,0-.043-.291c.012.026.024.051.038.077a.777.777,0,0,0,.41.4c.288.087.479-.362.293-.557a.705.705,0,0,0-.247-.152,1.024,1.024,0,0,0-.367-.076c.109-.018.218-.039.326-.064.141-.032.316-.062.378-.212" transform="translate(-12.555 -14.286)" fill="#fff"/>
    <path id="Path_334" data-name="Path 334" d="M25.962,31.272a.418.418,0,0,0-.108-.373.409.409,0,0,0-.257-.167.364.364,0,0,0-.3.118,1.294,1.294,0,0,0-.233.6h0a2.009,2.009,0,0,0,0-.517,1.837,1.837,0,0,0-.04-.234.182.182,0,0,0-.175-.136.573.573,0,0,0-.23.043.369.369,0,0,0-.169.144c-.1.146,0,.335.1.45a1.794,1.794,0,0,0,.219.194l.027.021a1.938,1.938,0,0,0-.2-.093.63.63,0,0,0-.428-.026.269.269,0,0,0-.148.107.337.337,0,0,0-.042.192.3.3,0,0,0,.227.252.671.671,0,0,0,.44-.034,1.209,1.209,0,0,0,.125-.061,1.844,1.844,0,0,0-.147.15,1.688,1.688,0,0,0-.138.181.336.336,0,0,0-.064.205.368.368,0,0,0,.261.313.378.378,0,0,0,.4-.059.475.475,0,0,0,.095-.4,2.193,2.193,0,0,0-.043-.291c.012.026.024.052.038.077a.777.777,0,0,0,.41.4c.288.087.479-.362.293-.557a.715.715,0,0,0-.247-.152,1.037,1.037,0,0,0-.368-.075c.109-.018.218-.039.326-.064.141-.032.316-.062.378-.212" transform="translate(-9.719 -12.389)" fill="#fff"/>
    <path id="Path_335" data-name="Path 335" d="M65.623,24.482a.418.418,0,0,0-.108-.373.409.409,0,0,0-.257-.167.364.364,0,0,0-.3.118,1.293,1.293,0,0,0-.233.6h0a2.009,2.009,0,0,0,0-.517,1.739,1.739,0,0,0-.04-.234.182.182,0,0,0-.175-.136.573.573,0,0,0-.23.043.369.369,0,0,0-.169.144c-.1.147,0,.335.1.45a1.788,1.788,0,0,0,.219.194l.027.021a1.938,1.938,0,0,0-.2-.093.63.63,0,0,0-.428-.026.269.269,0,0,0-.148.107.332.332,0,0,0-.041.192.294.294,0,0,0,.227.252.671.671,0,0,0,.44-.034,1.209,1.209,0,0,0,.125-.061,1.846,1.846,0,0,0-.147.15,1.687,1.687,0,0,0-.138.181.332.332,0,0,0-.064.205.366.366,0,0,0,.26.313.378.378,0,0,0,.4-.059.474.474,0,0,0,.095-.4,2.182,2.182,0,0,0-.043-.291c.012.026.024.051.038.077a.777.777,0,0,0,.41.4c.288.087.479-.362.293-.557a.705.705,0,0,0-.247-.152,1.025,1.025,0,0,0-.368-.076c.109-.018.218-.039.326-.064.141-.032.316-.062.378-.212" transform="translate(-25.795 -9.637)" fill="#fff"/>
    <path id="Path_336" data-name="Path 336" d="M62.114,27.292a.593.593,0,0,0-.153-.53.587.587,0,0,0-.366-.239.521.521,0,0,0-.432.169,1.837,1.837,0,0,0-.331.859h0a2.83,2.83,0,0,0,.005-.737,2.515,2.515,0,0,0-.058-.334.259.259,0,0,0-.249-.194.828.828,0,0,0-.326.061.531.531,0,0,0-.241.206c-.142.209,0,.477.145.641a2.617,2.617,0,0,0,.313.277l.038.029a2.925,2.925,0,0,0-.289-.132.9.9,0,0,0-.609-.036.385.385,0,0,0-.211.152.477.477,0,0,0-.059.274.419.419,0,0,0,.324.358.95.95,0,0,0,.626-.049,1.633,1.633,0,0,0,.178-.086,2.533,2.533,0,0,0-.209.214,2.365,2.365,0,0,0-.2.258.473.473,0,0,0-.091.292.522.522,0,0,0,.372.445.537.537,0,0,0,.564-.083.676.676,0,0,0,.135-.571,3.05,3.05,0,0,0-.061-.415c.017.037.035.074.054.109a1.1,1.1,0,0,0,.584.573c.41.124.682-.514.417-.793a1.009,1.009,0,0,0-.351-.216,1.479,1.479,0,0,0-.523-.107c.156-.026.31-.056.464-.09.2-.045.451-.09.539-.3" transform="translate(-24.031 -10.654)" fill="#fff"/>
    <path id="Path_337" data-name="Path 337" d="M46.07,34.715a.6.6,0,0,0-.153-.531.588.588,0,0,0-.367-.238.521.521,0,0,0-.432.169,1.837,1.837,0,0,0-.331.859h0a2.83,2.83,0,0,0,.005-.737,2.533,2.533,0,0,0-.058-.334.259.259,0,0,0-.249-.194.828.828,0,0,0-.326.061.531.531,0,0,0-.241.206c-.142.209,0,.477.145.641a2.572,2.572,0,0,0,.313.277l.038.029a2.924,2.924,0,0,0-.289-.132.9.9,0,0,0-.609-.036.385.385,0,0,0-.211.152.476.476,0,0,0-.059.274.419.419,0,0,0,.324.358.95.95,0,0,0,.626-.049,1.633,1.633,0,0,0,.178-.086,2.534,2.534,0,0,0-.209.214,2.365,2.365,0,0,0-.2.258.469.469,0,0,0-.091.292.522.522,0,0,0,.372.445.537.537,0,0,0,.564-.083.676.676,0,0,0,.135-.571,3.065,3.065,0,0,0-.061-.415c.017.037.035.074.054.11a1.1,1.1,0,0,0,.584.572c.41.124.682-.514.417-.793a1.009,1.009,0,0,0-.351-.216,1.479,1.479,0,0,0-.523-.107c.156-.026.31-.056.464-.09.2-.045.451-.09.539-.3" transform="translate(-17.528 -13.663)" fill="#fff"/>
    <path id="Path_338" data-name="Path 338" d="M37.27,35.513a.6.6,0,0,0-.153-.53.587.587,0,0,0-.367-.239.521.521,0,0,0-.432.169,1.837,1.837,0,0,0-.331.859h0a2.83,2.83,0,0,0,.005-.737,2.55,2.55,0,0,0-.058-.334.259.259,0,0,0-.249-.194.828.828,0,0,0-.326.061.531.531,0,0,0-.241.206c-.142.209,0,.477.145.641a2.572,2.572,0,0,0,.313.277l.038.029a2.872,2.872,0,0,0-.29-.132.9.9,0,0,0-.608-.036.383.383,0,0,0-.211.152.477.477,0,0,0-.059.274.419.419,0,0,0,.324.358.95.95,0,0,0,.626-.049,1.633,1.633,0,0,0,.178-.086,2.534,2.534,0,0,0-.209.214,2.365,2.365,0,0,0-.2.258.469.469,0,0,0-.091.292.524.524,0,0,0,.372.445.538.538,0,0,0,.564-.084.676.676,0,0,0,.135-.571,3.065,3.065,0,0,0-.061-.415c.017.037.035.074.054.11a1.1,1.1,0,0,0,.584.572c.41.124.682-.514.417-.793a1.015,1.015,0,0,0-.351-.216,1.479,1.479,0,0,0-.523-.107c.156-.026.31-.056.464-.09.2-.045.451-.089.539-.3" transform="translate(-13.961 -13.987)" fill="#fff"/>
    <path id="Path_339" data-name="Path 339" d="M29.547,33.035a.6.6,0,0,0-.153-.53.587.587,0,0,0-.367-.239.52.52,0,0,0-.432.169,1.837,1.837,0,0,0-.331.859h0a2.83,2.83,0,0,0,.005-.737,2.55,2.55,0,0,0-.058-.334.259.259,0,0,0-.249-.194.828.828,0,0,0-.326.061.531.531,0,0,0-.241.206c-.142.209,0,.477.145.641a2.572,2.572,0,0,0,.313.277l.038.029a2.873,2.873,0,0,0-.29-.132.9.9,0,0,0-.608-.036.388.388,0,0,0-.211.152.477.477,0,0,0-.059.274.419.419,0,0,0,.323.358.95.95,0,0,0,.626-.049,1.633,1.633,0,0,0,.178-.086,2.534,2.534,0,0,0-.209.214,2.366,2.366,0,0,0-.2.258.469.469,0,0,0-.091.292.522.522,0,0,0,.372.445.537.537,0,0,0,.564-.083.676.676,0,0,0,.135-.571,3.064,3.064,0,0,0-.061-.415c.017.037.035.074.054.11a1.1,1.1,0,0,0,.584.572c.41.124.682-.514.417-.793a1.009,1.009,0,0,0-.351-.216,1.479,1.479,0,0,0-.523-.107c.156-.026.31-.056.464-.09.2-.045.451-.089.539-.3" transform="translate(-10.831 -12.982)" fill="#fff"/>
    <path id="Path_340" data-name="Path 340" d="M54.211,31.5a.593.593,0,0,0-.153-.53.587.587,0,0,0-.366-.239.521.521,0,0,0-.432.169,1.837,1.837,0,0,0-.331.859h0a2.83,2.83,0,0,0,.005-.737,2.532,2.532,0,0,0-.058-.334.259.259,0,0,0-.249-.194.828.828,0,0,0-.326.061.531.531,0,0,0-.241.206c-.142.209,0,.477.145.641a2.572,2.572,0,0,0,.313.277l.038.029a2.926,2.926,0,0,0-.289-.132.9.9,0,0,0-.609-.036.385.385,0,0,0-.211.152.481.481,0,0,0-.059.274.419.419,0,0,0,.324.358.95.95,0,0,0,.626-.049,1.633,1.633,0,0,0,.178-.086,2.533,2.533,0,0,0-.209.214,2.365,2.365,0,0,0-.2.258.473.473,0,0,0-.091.292.522.522,0,0,0,.372.445.537.537,0,0,0,.564-.083.676.676,0,0,0,.135-.571,3.05,3.05,0,0,0-.061-.415c.017.037.035.074.054.109a1.1,1.1,0,0,0,.584.573c.41.124.682-.514.417-.793A1.009,1.009,0,0,0,53.731,32a1.479,1.479,0,0,0-.523-.107c.156-.026.31-.056.464-.09.2-.045.451-.09.539-.3" transform="translate(-20.828 -12.361)" fill="#fff"/>
    <path id="Path_341" data-name="Path 341" d="M83.373,25.107a.083.083,0,0,0-.029-.07c-.177-.335-.818-.4-1.139-.463-.525-.1-1.056-.167-1.587-.236-.087-.011-.174-.026-.26-.036-.035,0-.1-.034-.09-.018a1.629,1.629,0,0,1-.16-.368c-.22-.512-.432-1.028-.655-1.538-.113-.259-.228-.517-.351-.771-.076-.157-.162-.451-.337-.527-.387-.169-.657.787-.76,1.017-.246.551-.477,1.109-.716,1.663-.05.117-.134.451-.239.531a2.617,2.617,0,0,1-.5.026c-.236.019-.472.037-.707.059a6.208,6.208,0,0,0-1.2.19c-.234.069-.652.181-.615.5.03.266.438.517.621.663a7.913,7.913,0,0,0,.995.673,4.722,4.722,0,0,1,.5.266c.187.142.1.29.046.481-.106.4-.215.806-.313,1.212-.08.33-.157.662-.208,1a1.338,1.338,0,0,0-.017.7c.243.517,1.176-.388,1.4-.561q.424-.326.83-.675c.133-.114.264-.23.393-.348.073-.067.257-.321.351-.336.152-.026.561.47.684.576.279.241.567.472.859.7a2.849,2.849,0,0,0,1.359.768c.458.041.24-.653.179-.927-.145-.652-.357-1.29-.551-1.93-.042-.137-.1-.278-.125-.42s-.027-.144.1-.222c.253-.153.561-.247.827-.381.426-.215,1.279-.6,1.4-1.135a.092.092,0,0,0,.01-.064" transform="translate(-30.004 -8.536)" fill="#f7b9e7"/>
    <path id="Path_342" data-name="Path 342" d="M22.066,71.627c-.721-.063-1.456-.055-2.186-.047q.31-.305.617-.613a4.47,4.47,0,0,0,.894-1.039.2.2,0,0,0-.275-.275,4.519,4.519,0,0,0-1.055.877q-.319.307-.635.617c0-.3,0-.593,0-.89a4.491,4.491,0,0,0-.1-1.369.2.2,0,0,0-.387,0,4.511,4.511,0,0,0-.127,1.369c-.006.295-.01.59-.012.884q-.312-.317-.627-.631a4.482,4.482,0,0,0-1.039-.894.2.2,0,0,0-.275.275,4.5,4.5,0,0,0,.877,1.055c.2.213.41.424.616.635-.3,0-.593,0-.89,0a4.492,4.492,0,0,0-1.369.1.2.2,0,0,0,0,.388,4.53,4.53,0,0,0,1.369.127c.288.006.577.01.865.012-.533.5-1.069,1.008-1.544,1.556a.3.3,0,0,0,.425.424c.549-.461,1.058-.981,1.565-1.5-.021.725-.042,1.455.008,2.171a.3.3,0,0,0,.6,0c.062-.714.055-1.442.047-2.166.5.527,1,1.059,1.541,1.529a.3.3,0,0,0,.425-.424c-.461-.549-.981-1.059-1.5-1.565.725.021,1.455.042,2.172-.008a.3.3,0,0,0,0-.6" transform="translate(-6.465 -27.864)" fill="#fff"/>
    <path id="Path_343" data-name="Path 343" d="M36.845,8.7a.668.668,0,0,0,0-1.335.668.668,0,0,0,0,1.335" transform="translate(-14.673 -2.984)" fill="#fff"/>
    <path id="Path_344" data-name="Path 344" d="M50.479,12.055l.123-.061a.538.538,0,0,0,0-.922l-.123-.061a.621.621,0,0,0-.61,0,.6.6,0,0,0,0,1.044.623.623,0,0,0,.61,0" transform="translate(-20.092 -4.431)" fill="#fff"/>
    <path id="Path_345" data-name="Path 345" d="M68.345,11.845c.024.038.048.077.074.114a.675.675,0,0,0,.285.246.622.622,0,0,0,.357.067.535.535,0,0,0,.322-.154.669.669,0,0,0,.144-.247.6.6,0,0,0-.056-.431.657.657,0,0,0-.246-.286c-.037-.025-.076-.049-.114-.073a.565.565,0,0,0-.679.087.571.571,0,0,0-.087.679" transform="translate(-27.671 -4.46)" fill="#fff"/>
    <path id="Path_346" data-name="Path 346" d="M82.914,46.931l.124-.058a.675.675,0,0,0,0-1.166l-.124-.058a.742.742,0,0,0-.749,1.281.744.744,0,0,0,.749,0" transform="translate(-33.155 -18.462)" fill="#fff"/>
    <path id="Path_347" data-name="Path 347" d="M89.51,66.436a.686.686,0,0,0,0-1.372.686.686,0,0,0,0,1.372" transform="translate(-36.012 -26.372)" fill="#fff"/>
    <path id="Path_348" data-name="Path 348" d="M78.677,81.874a.731.731,0,0,0,.5-.208.709.709,0,0,0-.5-1.21.731.731,0,0,0-.5.208.709.709,0,0,0,.5,1.21" transform="translate(-31.603 -32.612)" fill="#fff"/>
    <path id="Path_349" data-name="Path 349" d="M48.744,93.845a1.45,1.45,0,0,0,.216-.287.737.737,0,0,0-1.015-1.015,1.389,1.389,0,0,0-.287.217.767.767,0,0,0,.542,1.31.763.763,0,0,0,.543-.225" transform="translate(-19.226 -37.471)" fill="#fff"/>
    <path id="Path_350" data-name="Path 350" d="M29.327,82.95a.769.769,0,0,0,.527-.218.746.746,0,0,0-.527-1.273.767.767,0,0,0-.527.219.745.745,0,0,0,.527,1.272" transform="translate(-11.585 -33.018)" fill="#fff"/>
    <path id="Path_351" data-name="Path 351" d="M9.332,63.723h0l.2.027h0l.179.076a.746.746,0,0,0-.378-.1.772.772,0,0,0-.388.106.773.773,0,1,0,.39-.106" transform="translate(-3.471 -25.828)" fill="#fff"/>
    <path id="Path_352" data-name="Path 352" d="M19.264,49.148a.7.7,0,0,0,0-1.4.7.7,0,0,0,0,1.4" transform="translate(-7.534 -19.353)" fill="#fff"/>
    <path id="Path_353" data-name="Path 353" d="M8.369,33.542l.024,0A.774.774,0,0,0,8.934,33l.008-.023A.763.763,0,0,0,8,32.036l-.023.008a.777.777,0,0,0-.541.541l0,.024a.758.758,0,0,0,.932.932" transform="translate(-3.003 -12.972)" fill="#fff"/>
    <path id="Path_354" data-name="Path 354" d="M26.239,22.5l.093-.018a.613.613,0,0,0,0-1.173l-.093-.018a.621.621,0,1,0,0,1.21" transform="translate(-10.327 -8.622)" fill="#fff"/>
    <path id="Path_355" data-name="Path 355" d="M9.859,48.395a.842.842,0,0,0,0-1.684.842.842,0,0,0,0,1.684" transform="translate(-3.666 -18.933)" fill="#fff896"/>
    <path id="Path_356" data-name="Path 356" d="M79.027,60.892a.844.844,0,0,0,.579-.24.818.818,0,0,0,0-1.158.818.818,0,0,0-1.158,0,.818.818,0,0,0,0,1.158.85.85,0,0,0,.579.24" transform="translate(-31.7 -24.017)" fill="#fff896"/>
    <path id="Path_357" data-name="Path 357" d="M93.021,34.287a.844.844,0,0,0,.579-.24.819.819,0,0,0,0-1.159.82.82,0,0,0-1.158,0,.836.836,0,0,0-.24.58.827.827,0,0,0,.24.579.85.85,0,0,0,.579.24" transform="translate(-37.372 -13.233)" fill="#fff896"/>
    <path id="Path_358" data-name="Path 358" d="M56.757,7.121a.731.731,0,0,0,0-1.461.731.731,0,0,0,0,1.461" transform="translate(-22.719 -2.294)" fill="#fff896"/>
    <path id="Path_359" data-name="Path 359" d="M63.253,92.641a.808.808,0,0,0,.555-.23.785.785,0,0,0,0-1.111.785.785,0,0,0-1.111,0,.785.785,0,0,0,0,1.111.816.816,0,0,0,.555.23" transform="translate(-25.32 -36.913)" fill="#fff896"/>
    <path id="Path_360" data-name="Path 360" d="M33.832,91.48a.8.8,0,0,0,0-1.594.8.8,0,0,0,0,1.594" transform="translate(-13.401 -36.434)" fill="#fff896"/>
  </g>
</svg>
