<svg xmlns="http://www.w3.org/2000/svg" width="24" height="23" viewBox="0 0 24 23">
  <defs>
    <style>
      .cls-1 {
        fill: #828282;
        fill-rule: evenodd;
      }
    </style>
  </defs>
  <path id="comment" class="cls-1" d="M1086.28,500v-0.539c0-1.36,0-2.721.01-4.081a0.341,0.341,0,0,0-.34-0.423,3.359,3.359,0,0,1-2.95-3.58V480.632a3.364,3.364,0,0,1,3.45-3.626q8.535-.013,17.07,0a3.4,3.4,0,0,1,3.48,3.619v10.745a3.393,3.393,0,0,1-3.47,3.619q-4.86.009-9.71,0a1.71,1.71,0,0,0-1.08.343c-1.98,1.456-3.97,2.893-5.96,4.336C1086.64,499.761,1086.5,499.852,1086.28,500Zm1.43-2.831c0.21-.139.33-0.216,0.45-0.3,1.41-1.023,2.81-2.057,4.24-3.059a1.525,1.525,0,0,1,.83-0.273c3.4-.018,6.8-0.009,10.2-0.013a1.983,1.983,0,0,0,2.15-2.249V480.736a1.984,1.984,0,0,0-2.18-2.253q-8.4,0-16.79,0a1.985,1.985,0,0,0-2.2,2.274v5.83c0,1.6-.01,3.193,0,4.79a1.958,1.958,0,0,0,2.04,2.146c0.31,0.007.62,0,.92,0a2.852,2.852,0,0,1,.34.052v3.591Zm1.72-10.379v-1.478h0.45c3.41,0,6.82.007,10.23-.009,0.39,0,.49.123,0.48,0.515-0.03.972-.01,0.972-0.95,0.972h-10.21Zm11.13-4.556v1.384h-11.12v-1.384h11.12Zm-11.13,7.638v-1.393h11.12v1.393h-11.12Z" transform="translate(-1083 -477)"/>
</svg>
