<svg xmlns="http://www.w3.org/2000/svg" width="17" height="25" viewBox="0 0 17 25">
  <defs>
    <style>
      .cls-1 {
        fill: #6e6e6e;
        fill-rule: evenodd;
      }
    </style>
  </defs>
  <path id="SAVE" class="cls-1" d="M1146,1085.5c0,3.8-.01,7.61,0,11.41a0.972,0.972,0,0,1-.46,1.01,0.844,0.844,0,0,1-.99-0.26c-2.24-1.95-4.5-3.88-6.74-5.83a0.389,0.389,0,0,0-.62,0q-3.375,2.925-6.75,5.84a0.813,0.813,0,0,1-.98.25,0.979,0.979,0,0,1-.46-1.01v-22.82a0.872,0.872,0,0,1,1.03-1.09h14.94c0.79,0,1.03.26,1.03,1.13v11.37Zm-15.43,9.89c0.18-.15.31-0.25,0.43-0.35,1.95-1.68,3.89-3.36,5.84-5.04a0.813,0.813,0,0,1,1.33,0c1.94,1.68,3.88,3.35,5.82,5.03,0.13,0.11.27,0.22,0.43,0.35V1074.7h-13.85v20.69Z" transform="translate(-1129 -1073)"/>
</svg>
