<svg id="BSP" xmlns="http://www.w3.org/2000/svg" width="162.438" height="162.438" viewBox="0 0 162.438 162.438">
  <defs>
    <style>
      .cls-1 {
        fill: #fff;
        stroke: #acacac;
        stroke-width: 2px;
      }

      .cls-2 {
        fill-rule: evenodd;
      }
    </style>
  </defs>
  <circle id="Ellipse_1_copy" data-name="Ellipse 1 copy" class="cls-1" cx="81.219" cy="81.219" r="80.219"/>
  <path class="cls-2" d="M156.085,93.6a1.892,1.892,0,0,0-.492.557,2.226,2.226,0,0,0-.011,1.026,1.289,1.289,0,0,0,.711.133c0.452,0.019.907-.018,1.357,0.012a0.453,0.453,0,0,1,.338.264,1.607,1.607,0,0,1-.124.989,1.851,1.851,0,0,1-1.844.693,1.273,1.273,0,0,0-1.543,1.237q-0.129,2.053-.261,4.106a0.783,0.783,0,0,1-.029.323c-0.914,1.515-.545,3.387-1.355,4.931a0.751,0.751,0,0,0-.079.395c0.187,1.97-1.03,3.678-1.024,5.629a5.057,5.057,0,0,1-.627,1.663,7.137,7.137,0,0,0-.669,1.73c-0.138,1.259-.956,2.158-1.487,3.2a10.216,10.216,0,0,1-2.3,2.982,11.026,11.026,0,0,1-4.819,2.608,4.948,4.948,0,0,1-2.081.016c-1.681-.339-3.423-0.667-4.543-2.166a8.845,8.845,0,0,1-1.273-2.321,23.132,23.132,0,0,1-1.381-7.477,0.718,0.718,0,0,1,.976-0.768c1.666,0.218,3.336.426,5.01,0.559,1.03,0.082,1.2.355,1.015,1.347a22.972,22.972,0,0,0-.447,4.248,2.3,2.3,0,0,0,1.123,1.349,1.062,1.062,0,0,0,1.323-.489,6.431,6.431,0,0,0,1.878-3.709c0.255-2.46.312-4.942,0.411-7.417,0.09-2.251.184-4.505,0.163-6.756-0.012-1.365-.254-2.727-0.364-4.093-0.059-.745-0.07-1.5-0.081-2.244a1.425,1.425,0,0,0-1-1.408c-0.847-.33-1.7-0.655-2.553-0.956-0.83-.292-1.6-0.454-2.069.639-0.168.391-.466,0.251-0.682-0.159a14.289,14.289,0,0,0-1.989-3.362c-0.662-.684-1.843-0.858-2.794-1.255a1.328,1.328,0,0,1-.156,0c-1.07-.83-2.37-0.571-3.568-0.708a3.512,3.512,0,0,0-2.8.708,8.043,8.043,0,0,1-1.369.96,1.434,1.434,0,0,0-.756,2.165,14.345,14.345,0,0,1,.58,2.1c0.039,0.154-.008.332,0.034,0.485,0.362,1.315.769,2.619,1.095,3.943,0.309,1.255.517,2.536,0.812,3.795,0.1,0.424.388,0.8,0.488,1.226,0.289,1.228.557,2.462,0.773,3.7,0.159,0.911.188,1.843,0.338,2.756,0.181,1.1.486,2.191,0.63,3.3,0.173,1.335.121,2.706,0.372,4.022a20.581,20.581,0,0,0,1.187,4,19.585,19.585,0,0,1,1.791,6,10.738,10.738,0,0,0,1.336,4.985,0.408,0.408,0,0,1,.1.219c-0.183,1.1.755,1.719,1.12,2.582a1.793,1.793,0,0,1-.082,2.107c-0.306.359-.207,0.664,0.307,0.719,1.032,0.111,2.063.267,3.1,0.3,0.63,0.021,1.269-.237,1.9-0.217a8.524,8.524,0,0,1,2.739.344,12.894,12.894,0,0,0,3.66.386,11.753,11.753,0,0,1,1.248.245l-0.039.242c-1.115,0-2.233-.033-3.346.018a5.372,5.372,0,0,0-1.181.366,3.41,3.41,0,0,1-.709.152c-1.275.1-2.562,0.107-3.822,0.3a5.077,5.077,0,0,0-1.5.827l-0.188-.218c0.057-.268.114-0.535,0.184-0.867a2.263,2.263,0,0,0-.558-0.091c-1.247.13-2.49,0.343-3.739,0.4a8.191,8.191,0,0,1-2.206-.3,2.091,2.091,0,0,0-2.352.527,1.164,1.164,0,0,1-.674.209c-0.646.092-1.3,0.158-1.944,0.233a0.7,0.7,0,0,1-.379.024c-0.819-.558-1.72-0.263-2.592-0.3a7.46,7.46,0,0,1-1.291-.3q-2.013-.476-4.025-0.947a0.6,0.6,0,0,0-.238-0.042c-1.336.27-2.671,0.546-4.043,0.829,0.357,1.258,1.754.1,2.045,1.243-0.6,0-1.278.041-1.946-.008a31.463,31.463,0,0,0-4.361-.342c-1.441.1-2.854-.25-4.224-0.129-0.912.08-1.913-.469-2.835,0.267a2.177,2.177,0,0,1-1.57.076c-0.873-.192-1.7-0.58-2.57-0.8a17.644,17.644,0,0,0-2.359-.379,0.68,0.68,0,0,0-.8.616,0.633,0.633,0,0,1-.478.384,3.02,3.02,0,0,1-1.64-.265c-0.9-.747-1.886-0.415-2.837-0.536-0.808-.1-1.607-0.271-2.413-0.393a8.482,8.482,0,0,0-1.753-.2c-1.782.11-3.56,0.294-5.338,0.455-0.5.045-1,.128-1.5,0.159-0.958.059-.958,0.049-1.1,0.983-2.435-.713-5,0.254-7.559-0.647l0.546,0.637-0.06.228c-0.9-.066-1.8-0.067-2.687-0.215-0.825-.138-1.838.545-2.462-0.526a7.444,7.444,0,0,1-3.906.729,2.706,2.706,0,0,0-.931.155c-0.466.182-.869,0.384-1.046-0.344a0.689,0.689,0,0,0-.517-0.207,42.194,42.194,0,0,0-4.5-.039,19.82,19.82,0,0,0-5.3.7,16.838,16.838,0,0,1-5.945.526c-0.4,0-.806,0-1.257,0l-0.175-.741c-0.882-.085-1.727-0.173-2.574-0.243a0.622,0.622,0,0,0-.83.527,0.926,0.926,0,0,1-.731.436c-2.061.034-4.123,0.016-6.184,0.015-0.783,0-1.568.034-2.347-.021A1.462,1.462,0,0,1,28,142.475a1.75,1.75,0,0,1,.592-0.448c1.027-.173,2.061-0.333,3.1-0.407s2.093,0,3.133-.072a25.544,25.544,0,0,0,2.671-.411,0.508,0.508,0,0,0,.23-0.348,2,2,0,0,0-.542-0.5,6.088,6.088,0,0,1-1.422-.771c-1.1-1.155-.7-2.48-0.288-3.805a13.019,13.019,0,0,0,.417-2.109c0.154-1.11-.1-2.307.8-3.247a1.372,1.372,0,0,0,.083-0.807,9.258,9.258,0,0,1-.044-1.5c0.176-1.113.462-2.208,0.66-3.317,0.21-1.178-.351-2.216-0.609-3.318a14.8,14.8,0,0,1-.586-4.275,18.564,18.564,0,0,1,1.16-3.824,12.875,12.875,0,0,0,.856-4.152c-0.051-1.792.336-3.592,0.422-5.394a10.691,10.691,0,0,0-.251-3.43,14.817,14.817,0,0,1-.187-3.63c-0.02-1.359.1-2.729-.019-4.077a12.567,12.567,0,0,1,.813-4.749c0.391-1.33.788-2.658,1.177-3.989a1.749,1.749,0,0,0,.029-0.332,0.756,0.756,0,0,0-1.109.318A10.963,10.963,0,0,0,37.357,88.7a32.663,32.663,0,0,0-.462,4.984c0.031,0.4.162,0.789,0.191,1.187s-0.02.773-.028,1.16c-0.019.933-.047,1.866-0.048,2.8,0,0.681.063,1.363,0.046,2.043-0.019.775-.07,1.551-0.152,2.322-0.181,1.7-.333,3.414-0.607,5.1-0.222,1.368-.7,2.7-0.889,4.067a25.47,25.47,0,0,0-.061,3.418c0,1.1.078,2.21-.011,3.3a3.046,3.046,0,0,1-.664,1.276c-0.593.867-1.217,1.713-1.846,2.554a0.614,0.614,0,0,1-.43.274,0.649,0.649,0,0,1-.4-0.416,13.879,13.879,0,0,1-.186-4.4c0.351-2.1,1.537-3.835,2.127-5.813a6.747,6.747,0,0,0,.188-0.932,2.091,2.091,0,0,1,.066-0.721c0.668-1.051.4-2.211,0.454-3.337q0.106-2.144.276-4.283c0.065-.8.229-1.589,0.289-2.388,0.041-.546-0.038-1.1-0.029-1.65s0.054-1.113.09-1.669c0.043-.669.133-1.337,0.132-2.006,0-1.882-.105-3.767-0.042-5.646,0.044-1.3-.163-2.632.47-3.913a23.68,23.68,0,0,0,.8-2.77c0.245-.709.642-1.363,0.944-2.053a10.425,10.425,0,0,1,.438-1.208c0.545-.909,1.13-1.8,1.742-2.663,0.587-.831,1.217-1.631,1.847-2.429,0.211-.267.49-0.479,0.723-0.731,0.653-.7,1.261-1.457,1.958-2.114a12.172,12.172,0,0,1,1.749-1.29c1.486-.963,3-1.879,4.481-2.854,0.575-.379,1.07-0.878,1.617-1.3,1.523-1.178,3-2.427,4.6-3.49a40.786,40.786,0,0,1,3.95-2.093c1.917-.989,3.832-1.981,5.758-2.953a18.06,18.06,0,0,1,1.987-.882,18.65,18.65,0,0,0,4.8-2.138,8.55,8.55,0,0,1,2.627-.921c0.815-.236,1.647-0.418,2.479-0.587,0.471-.1.962-0.091,1.433-0.187,0.372-.076.723-0.25,1.09-0.353a3.579,3.579,0,0,1,.936-0.187c3.59,0,7.181,0,10.771.042a6.176,6.176,0,0,1,1.507.4,2.612,2.612,0,0,0,.535.169c1.359,0.066,2.721.079,4.076,0.179,0.843,0.062,1.676.252,2.514,0.377a6.476,6.476,0,0,0,1.033.119,30.57,30.57,0,0,1,7,.749c2.327,0.51,4.7.8,7.045,1.236,1.357,0.252,2.685.745,4.048,0.859,1.57,0.131,3.156.689,4.746,0.1a1.117,1.117,0,0,0,.414-0.216c1.907-1.94,4.13-2.164,6.593-1.309a22.188,22.188,0,0,0,3.531,1,2.076,2.076,0,0,0,1.588-.575,2.6,2.6,0,0,1,2.8-.554,11.488,11.488,0,0,1,6.749,5.293,16.643,16.643,0,0,1,2.026,5.1,4.24,4.24,0,0,0,1.1,1.651,9.387,9.387,0,0,1,1.884,4.612,33.044,33.044,0,0,1,.646,3.382c0.071,0.662-.2,1.355-0.2,2.034a1.669,1.669,0,0,0,.371,1.222c0.956,0.358.86,1.264,1.1,1.931,0.356,0.971.437,2.041,0.727,3.042a4.063,4.063,0,0,1,.157,1.871,20.552,20.552,0,0,0-.043,3.656c0.028,1,.179,1.993.183,2.989,0,0.727.1,1.246,0.979,1.2A1.2,1.2,0,0,1,156.085,93.6Zm-86.513-.853a10.027,10.027,0,0,0-.244,1.284,4.21,4.21,0,0,0,.04,1.871,4.841,4.841,0,0,1,.435,2.2,5.527,5.527,0,0,0,.111.857l0.293,0.023L70.652,97.6l0.191-.144a2.793,2.793,0,0,0,2.536,1.632c0.809,0.124.981,0.015,0.951-.818-0.027-.747-0.136-1.492-0.155-2.239-0.011-.42-0.23-1.117.428-1.111s0.486,0.744.508,1.183c0.05,0.97.016,1.945,0.016,2.943l0.8,0.138c0.223,2.123.607,3.478,1.641,3.717a1.787,1.787,0,0,1,.015-0.793c0.727-.376.565-1.033,0.6-1.632,0.068-1.113.066-1.114,1.141-.707a2.3,2.3,0,0,0-.013-0.707c-0.135-.377-0.22-0.747.271-0.808a1.054,1.054,0,0,1,.492.664c0.179,0.633.275,1.29,0.421,2.019,0.709-.381,1.26-0.506,1.747.228l0.185-3.334a0.549,0.549,0,0,1,.469.279c0.086,0.638.126,1.282,0.224,1.918a1.385,1.385,0,0,0,.31.46,1.029,1.029,0,0,0,.288-0.417c-0.007-.481-0.1-0.961-0.123-1.442-0.023-.425,0-0.853,0-1.319,0.624,0.215,1.118.346,1.575,0.555,0.474,0.216.694,0.08,0.82-.4,0.095-.361.243-0.707,0.4-1.156l0.505,0.79,0.236-.006a3.577,3.577,0,0,0,.07-0.736c-0.056-.529-0.192-1.05-0.236-1.579a8.356,8.356,0,0,0-.043-1.621c-0.576-1.934-1.245-3.84-1.856-5.764a4.235,4.235,0,0,1-.085-0.923l0.272-.07c0.166,0.263.355,0.514,0.493,0.791,0.483,0.968.942,1.949,1.429,2.916a2.178,2.178,0,0,0,.4.437c0.132-.144.267-0.285,0.395-0.432,0.069-.079.126-0.168,0.345-0.463l0.922,1.916a1.052,1.052,0,0,1,.777.488c0.277,1.531.485,3.076,0.688,4.62,0.1,0.777.066,1.58,0.234,2.339,0.237,1.067.7,2.086,0.893,3.157a12.139,12.139,0,0,0,1.393,3.941c0.19,0.335.375,0.673,0.557,1.013a2.6,2.6,0,0,0,.476.868,13.915,13.915,0,0,0,1.531.913,10.207,10.207,0,0,0,.933,1.315,1.042,1.042,0,0,1,.117,1.514,0.961,0.961,0,0,0-.254.477c0.088,1.412.573,1.915,2,2.216,0.782,0.164,1.551.387,2.326,0.583,0,0.085,0,.169,0,0.254l-0.858.425,0.532,0.437c-0.008.059-.017,0.119-0.025,0.179H97.232c-0.09.718-.17,1.257-0.22,1.8a1.077,1.077,0,0,0,.054.62c0.6,0.212,1.226.343,1.837,0.524,0.31,0.093.6,0.237,0.905,0.358-0.294.193-.582,0.4-0.888,0.57a0.7,0.7,0,0,1-.311-0.035c-0.564-.058-1.127-0.114-1.979-0.2,0.5,0.878.887,1.569,1.283,2.255a0.219,0.219,0,0,0,.154.031c1.576-.016,3.159.048,4.723-0.095,0.55-.051,1.026-0.436,1.454.209a0.442,0.442,0,0,0,.379.022c0.775-.3,1.543-0.614,2.34-0.935-0.2-.483-0.383-0.976-0.619-1.441a1.021,1.021,0,0,0-.453-0.313c-0.422-.219-0.864-0.4-1.273-0.643a2.235,2.235,0,0,1-.445-0.481,2.942,2.942,0,0,1,.736-0.387c0.9-.185,1.807-0.3,2.7-0.487a1.4,1.4,0,0,0,.475-0.427,1.985,1.985,0,0,0-.55-0.4,3.131,3.131,0,0,0-.7.028,1.65,1.65,0,0,1-.753-0.1,9.228,9.228,0,0,1-1.06-.837c0.05-.038.178-0.147,0.317-0.241,0.305-.21.615-0.412,0.923-0.618l-0.962-.427a0.323,0.323,0,0,1-.076-0.025,1.853,1.853,0,0,1-.685-0.646,1.012,1.012,0,0,1,.342-0.88,8.891,8.891,0,0,1,1.666-.6,4.576,4.576,0,0,0,1.134-.352,31.631,31.631,0,0,0,2.58-1.9,3.866,3.866,0,0,0,.958-1.152c0.458-.865.166-1.273-0.8-1.345a1.008,1.008,0,0,1-.514-0.448c0.312-.5.529-1.165,1.311-1.063,0.072,0.46.138,0.888,0.205,1.315a4.254,4.254,0,0,0,.77-1.067c0.195-.36.122-0.547-0.3-0.728a9.1,9.1,0,0,1-1.357-.865c0.958-.719,1.828-1.375,2.7-2.024a0.421,0.421,0,0,1,.288-0.1c0.916,0.243,1.131-.517,1.433-1.063,0.422-.762.755-1.573,1.11-2.328a1.715,1.715,0,0,1-.52-0.084c-0.061-.823-0.579-0.484-1-0.463a0.8,0.8,0,0,1-.625-0.206,0.871,0.871,0,0,1,.1-0.648c0.223-.5.43-1.084,1.178-0.676l0.136-.275-0.785-.447c0.476-.631.474-1.557,1.452-1.645a0.556,0.556,0,0,0,.277-0.379,6.033,6.033,0,0,0,.43-2.107,5.021,5.021,0,0,1,.611-3.349,3.684,3.684,0,0,1,.52-0.583,2.187,2.187,0,0,1,.058.833,1.265,1.265,0,0,0,.283,1.548,1.314,1.314,0,0,1,.364.755c0.068,0.538.109,1.123,0.778,1.129a1.173,1.173,0,0,0,1.257-.91,3.8,3.8,0,0,1,.72-1.432,0.864,0.864,0,0,0-.171-1.434c-0.766-.632-1.54-1.254-2.333-1.852a1.248,1.248,0,0,0-.8-0.341c-0.911.185-1.809,0.447-2.7,0.721-1.063.328-2.112,0.7-3.17,1.043a0.714,0.714,0,0,1-.4,0,2.915,2.915,0,0,1-.47-0.231,1.393,1.393,0,0,1,.257-0.444,3.9,3.9,0,0,0,1.443-3.362,34.483,34.483,0,0,0-1.153-5.191,13.357,13.357,0,0,1-.515-3.243,7.066,7.066,0,0,0-1.2-4.612,11.98,11.98,0,0,1-1.738-4.125,7.367,7.367,0,0,0-.925-2.189c-0.751-1.1-1.676-2.077-2.484-3.139-0.854-1.123-1.667-2.254-3.166-2.586-0.623-.138-0.68-0.489-0.251-0.98,0.08-.09.14-0.2,0.256-0.364-0.96-.183-0.818-0.652-0.365-1.146a6.282,6.282,0,0,1,.753-0.574,3.915,3.915,0,0,0,.344-0.348,1.039,1.039,0,0,0-.421-0.287,2.9,2.9,0,0,0-1.46.791,0.835,0.835,0,0,1-1.108.455,4.242,4.242,0,0,0-3.166.756,4.686,4.686,0,0,1-1.191.644,1.156,1.156,0,0,1-.56-0.247,1.524,1.524,0,0,1,.355-0.521,3.111,3.111,0,0,1,.8-0.214l-1.091-1.184c-0.419.314-.92,0.636-1.358,1.031a17.224,17.224,0,0,1-1.584,1.538,1.278,1.278,0,0,1-1.2-.077c-0.39-.3-0.235-0.772.207-1.071a2.3,2.3,0,0,0,.55-0.474c0.284-.37.526-0.772,0.786-1.161L91.9,55.87l-1.338.383,0.411-1.5a10.773,10.773,0,0,1-1.554.665c-0.744.176-1.518,0.222-2.267,0.383a6.037,6.037,0,0,0-1.078.442c-0.6.261-1.2,0.542-1.81,0.782-0.478.188-.984,0.3-1.461,0.492-0.708.282-1.353,1.118-2.175,0.167a1.221,1.221,0,0,0-.645.143,2.892,2.892,0,0,1-1.01.342,1.188,1.188,0,0,0-1.375.545,1.273,1.273,0,0,1-.874.556,3.719,3.719,0,0,1-1.4-.3,0.643,0.643,0,0,1-.3-0.541,0.849,0.849,0,0,1,1.387-.378c0.11,0.108.229,0.207,0.351,0.316a4.276,4.276,0,0,0,.387-0.222,8.011,8.011,0,0,1,3.04-1.847,0.354,0.354,0,0,0,.218-0.1,4.091,4.091,0,0,0,.222-0.475,1.088,1.088,0,0,0-.539-0.191c-0.626.273-1.235,0.593-1.833,0.928a2.443,2.443,0,0,1-1.963.524,3.78,3.78,0,0,0-3.643.569,7.273,7.273,0,0,1-1.844.929c-0.889.345-1.809,0.6-2.712,0.915a0.619,0.619,0,0,0-.3.256c-0.337.577-.771,0.372-1.265,0.095a6.971,6.971,0,0,1,1.5-.9c1.122-.526,2.251-1.037,3.373-1.564a1.582,1.582,0,0,0,.061-0.459,86.445,86.445,0,0,0-21.5,12.3,1.7,1.7,0,0,0-.292.489l0.158,0.167a5.725,5.725,0,0,1,.7-0.4,1.073,1.073,0,0,1,.436.019,1.22,1.22,0,0,1-.2.422,7.708,7.708,0,0,1-.841.629A28.766,28.766,0,0,0,47.473,72.1c-1.164.97-2.232,2.057-3.37,3.06a1.843,1.843,0,0,1-.776.185l0.334-.651,0.149-.289c-0.7.083-2.013,1.661-4.26,5.078l0.882,0.461c-0.545.379-.971,0.647-1.364,0.959a1.66,1.66,0,0,0-.536.623C38.149,82.5,37.81,83.5,37.47,84.5a2.3,2.3,0,0,0-.054.522,2.55,2.55,0,0,0,.647-0.745c1.214-1.487,2.413-2.989,3.684-4.426a19.61,19.61,0,0,1,2.34-2.215c1.613-1.308,3.287-2.539,4.918-3.825a28.463,28.463,0,0,1,2.236-1.85c0.574-.363,1.152-1.058,2.118-0.56-0.155.183-.273,0.338-0.406,0.476-0.685.711-1.9,0.943-1.97,2.218a0.416,0.416,0,0,1-.268.262c-1.083.295-1.168,1.386-1.61,2.149-0.282.487-.425,0.749-1,0.552a0.585,0.585,0,0,0-.527.236,7.3,7.3,0,0,0-.3,1.449c-0.053.49-.283,0.577-0.714,0.478a1.085,1.085,0,0,0-1.377,1.017,2.153,2.153,0,0,1-.4.71,1.465,1.465,0,0,0-.292.362c-0.128.73-.2,1.47-0.331,2.2a6.026,6.026,0,0,1-.378,1.394,1.625,1.625,0,0,1-.645.375,1.38,1.38,0,0,0-.6.413,12.035,12.035,0,0,0-.746,6.672,1.084,1.084,0,0,1-.155.453,1.225,1.225,0,0,1-.364-0.343,10.518,10.518,0,0,1-.4-1.292,1.26,1.26,0,0,1-.059-0.761c0.4-.74-0.17-1.236-0.275-2.018-0.736,1.523-1.037,7.593-.3,10.954a2.842,2.842,0,0,0,1.164-.489c0.4-.5.644-0.364,0.782,0.076a1.67,1.67,0,0,1,.017,1.211,1.754,1.754,0,0,0,.053,1.9c0.576,0.869-.249.812-0.516,0.979-0.486.3-.671-0.167-0.752-0.535-0.151-.684-0.224-1.385-0.359-2.074a3.329,3.329,0,0,0-.28-0.655l-0.224.04c0.133,5.223.079,10.424-1.793,15.455a2.931,2.931,0,0,0,.822-0.151c0.578-.137,1.317-0.528,1.7-0.306a1.778,1.778,0,0,1,.666,1.593c-0.417.843-.194,1.1,0.652,1.2a1.158,1.158,0,0,1-1.606.37,2.288,2.288,0,0,0-.726.02,1.522,1.522,0,0,0,.33.718,5,5,0,0,0,1.72.469c1.008,0.031,1.417.113,1.746,0.749a4.228,4.228,0,0,0-3.711,1.561c0.745,0.775,1.438,1.48,2.111,2.2a1.229,1.229,0,0,1,.364.622,1.262,1.262,0,0,0,1.187,1.113c0.279,0.074.548,0.188,0.822,0.285a7.256,7.256,0,0,1-1.829.406,1.985,1.985,0,0,0-1.6,1.67,1.038,1.038,0,0,0,.473.5,5.743,5.743,0,0,0,.67.382,2.947,2.947,0,0,1-.676.4c-0.49.137-.731,0.6-0.37,0.947a5.018,5.018,0,0,0,1.213.707,5.417,5.417,0,0,0,.728.235,10.99,10.99,0,0,0-1.793,1.1,5.134,5.134,0,0,0-.77,1.327,8.1,8.1,0,0,0,1.4.732,15.327,15.327,0,0,0,2.068.317l-3.768,1.885,1.188,1.245c0.156-.113.323-0.245,0.5-0.361,1.315-.868,1.886-0.841,3.226.048a0.911,0.911,0,0,0,.806.085,2.948,2.948,0,0,1,2.965-.484,1.6,1.6,0,0,0,.54-0.464,1.253,1.253,0,0,0-.464-0.461c-0.768.007-1.534,0.1-2.3,0.147a4.309,4.309,0,0,1-.963-0.048,0.462,0.462,0,0,1-.3-0.3,0.7,0.7,0,0,1,.322-0.389,1.04,1.04,0,0,1,.477-0.043,5.9,5.9,0,0,0,3.234-1,0.557,0.557,0,0,0,.2-0.464,0.748,0.748,0,0,0-.326-0.484c-0.968-.489-1.967-0.916-2.924-1.425a2.947,2.947,0,0,1-.666-0.755,3.692,3.692,0,0,1,.968-0.341c0.487-.031.856-0.03,0.729-0.708a0.843,0.843,0,0,1,.565-0.437c0.6-.093,1.223-0.05,1.82-0.156A1.641,1.641,0,0,0,50.338,129a0.4,0.4,0,0,0-.366-0.153,0.926,0.926,0,0,1-1.232-.2,0.754,0.754,0,0,1-.138-0.626,3.535,3.535,0,0,1,.969-0.39c0.541-.152,1.092-0.269,1.638-0.4l0.067-.322-3.853-2.018a1.463,1.463,0,0,1,.467-0.221,12.519,12.519,0,0,0,1.937-.007,10.748,10.748,0,0,0,2.256-.725,1.6,1.6,0,0,0,.373-0.738,6.846,6.846,0,0,1-.665-0.209,5.211,5.211,0,0,1-.582-0.341l1.158-.575c-0.8-.427-1.72.239-2.132-0.851a2.921,2.921,0,0,1,.639-0.12,1.9,1.9,0,0,0,1.809-.839c0.228-.329.612-0.55,0.826-0.885,0.29-.453.475-0.973,0.723-1.455a4.718,4.718,0,0,1,.554-0.938c0.682-.791,1.479-1.494,2.088-2.337,0.9-1.248,1.614-2.64,2.546-3.863,0.43-.565.752-0.907-0.067-1.445l0.944-.558c-0.712-.812-1.206-0.111-1.842.136a1.778,1.778,0,0,1,.16-0.833c0.252-.532.585-1.029,0.8-1.576,0.424-1.094.8-2.208,1.17-3.321,0.092-.277.077-0.588,0.146-0.875a12.159,12.159,0,0,1,.524-1.938c0.3-.695.784-1.3,1.1-1.992,0.346-.742.561-1.545,0.9-2.294,0.258-.578.666-1.09,0.912-1.672,0.356-.843.569-1.751,0.95-2.581S66,90.259,66.454,89.474l0.208,0.1a0.948,0.948,0,0,1,.025.38c-0.517,1.3-1.072,2.589-1.564,3.9a6.781,6.781,0,0,0-.221,1.336l0.235,0.094a1.725,1.725,0,0,0,.574-0.477c0.225-.542.3-1.149,0.549-1.678a15.421,15.421,0,0,1,1-1.62l0.366,0.183c-0.45,1.329-.907,2.656-1.343,3.991a1.013,1.013,0,0,0-.061.729,0.81,0.81,0,0,0,.731.137,1.122,1.122,0,0,0,.553-0.575C68.009,94.824,68.329,93.572,69.572,92.751Zm55.981-27.258a2.525,2.525,0,0,0,.148-1.2,1.5,1.5,0,0,1-.024-1.736c0.861-1.878.969-1.958-.586-3.694a3.483,3.483,0,0,0-1.8-.724,23.552,23.552,0,0,0-3.44-.554,19.022,19.022,0,0,0-3.133.127c-1.458.143-2.911,0.34-4.358,0.565a1.969,1.969,0,0,0-.68.5c0.051,0.081.1,0.162,0.155,0.243,0.784-.128,1.564-0.308,2.353-0.371,1.168-.093,2.341-0.11,3.513-0.144,0.29-.009.582,0.069,0.872,0.058a10.591,10.591,0,0,1,5.258.758,2.3,2.3,0,0,1,1.121,2.336,3.426,3.426,0,0,1-1.652,2.163,2.243,2.243,0,0,0-.967,1.386c-0.066.726-.217,1.123-0.843,1.115-0.322,1.455-.7,2.829-0.916,4.228-0.207,1.35.251,2.758-.21,4.109a5.659,5.659,0,0,1-.511-1.938c-0.012-1.676.1-3.352,0.129-5.029a1.829,1.829,0,0,0-.27-0.649l-0.347.046-0.093,5.193L119,72.274a3.7,3.7,0,0,1-.334-2.461c0.2-1.358.289-2.733,0.38-4.1a0.641,0.641,0,0,0-.411-0.473,1,1,0,0,0-.537.419,3.571,3.571,0,0,0-.333.624l-0.234-.044a3.246,3.246,0,0,1-.106-0.8,13.648,13.648,0,0,1,.367-2.308,20.2,20.2,0,0,1,1-2.406,4.278,4.278,0,0,1,.4-0.614,2.043,2.043,0,0,0-.744-0.376c-1.366-.023-2.735-0.037-4.1.04-1.48.083-2.955,0.269-4.551,0.421,0.076-.446.108-0.632,0.147-0.861a3.519,3.519,0,0,0-.611,0,6.01,6.01,0,0,1-3.313.014c-0.425-.154-0.7.136-0.466,0.6a2.034,2.034,0,0,0,.618.692,11.25,11.25,0,0,1,1.69,1.113c1.028,1.07,1.956,2.237,2.913,3.376a0.81,0.81,0,0,0,1.125.246,2.5,2.5,0,0,1,.99-0.023l0.087,0.386-2.206.885a3,3,0,0,0,.476.37c0.692,0.274.834,0.585,0.2,1.143-0.442.391-.17,0.737,0.276,0.918a0.68,0.68,0,0,1,.438.954,2.288,2.288,0,0,0,.3,1.07,2.384,2.384,0,0,1,.4,1.051c-0.3.757,0.292,0.825,0.654,1.053a2.429,2.429,0,0,0,.774.146,2.471,2.471,0,0,0-.248.637,1.192,1.192,0,0,0,.105.783c0.7,0.346.412,0.767,0.072,1.068a0.68,0.68,0,0,0-.1,1.09c0.32,0.461.49,1.024,0.776,1.513a1.213,1.213,0,0,0,.568.511c1.174,0.424,1.425,1.172.734,2.242a2.356,2.356,0,0,0-.26.672q-0.251.951-.469,1.91a1.536,1.536,0,0,0-.113.895,1.165,1.165,0,0,0,.889.478,6.673,6.673,0,0,0,5.524-5.74c0.178-2.142.281-4.294,0.319-6.444a14.185,14.185,0,0,1,1.065-4.044,1.822,1.822,0,0,1,.383-0.525,15,15,0,0,1,1.022,1.5,1.347,1.347,0,0,1-.265,1.955c0.463,0.46,1.184.77,0.586,1.426a0.879,0.879,0,0,0-.036,1.228,2.444,2.444,0,0,1,.341,1.019,8.67,8.67,0,0,1-.11,1.432c-0.034.333-.086,0.664-0.131,1l-0.778-.167-0.11.216,1.3,0.838-0.515.629c0.087,0.094.138,0.153,0.194,0.208,0.213,0.209.428,0.416,0.643,0.624-0.27.148-.536,0.306-0.812,0.443-0.375.187-.758,0.359-1.138,0.538,0.025,0.1.05,0.2,0.076,0.294h2.361a2.843,2.843,0,0,1-1,1.182,6.534,6.534,0,0,1-1.351.459c0.419,1.733,1.646,2.6,2.65,3.641a1.6,1.6,0,0,0,.684.529c1.413,0.276,2.839.489,4.259,0.733a0.607,0.607,0,0,1,.4.18c0.146,0.732.774,0.751,1.291,0.932a6.962,6.962,0,0,1,4.118,3.158c0.1,0.184.175,0.383,0.262,0.575l0.341-.214a1.931,1.931,0,0,0-.024-0.894,1.142,1.142,0,0,1-.007-1.271A1.258,1.258,0,0,0,137.032,89a1.853,1.853,0,0,1-.488-0.509,3.253,3.253,0,0,0-.342-0.4c-0.481-.383-0.988-0.735-1.456-1.133a0.518,0.518,0,0,1-.117-0.47,1,1,0,0,1,.585-0.344,3.223,3.223,0,0,1,.781.146,0.468,0.468,0,0,0,.2-0.075c-0.049-.239-0.095-0.461-0.148-0.718a1.575,1.575,0,0,1,1.5,1.622,0.685,0.685,0,0,0,.338.5c0.661,0.266,1.35.459,2.019,0.7a0.958,0.958,0,0,0,1.264-.409,1.059,1.059,0,0,0-.249-1.454,1.115,1.115,0,0,1-.465-0.52c0.038-1.207-.978-1.29-1.691-1.5a1.033,1.033,0,0,1-.931-1.226,1.1,1.1,0,0,0-1.149-1.349,1.553,1.553,0,0,1-.472-0.355c-0.964-.7-1.8-1.67-3.2-1.385a5.726,5.726,0,0,1-1.2-.056,4.374,4.374,0,0,0,1.263-.912c0.307-.552.538-0.493,0.918-0.151,0.428,0.383.856,0.619,1.2-.105a1.079,1.079,0,0,1,.372-0.2c-0.075,1.125.757,1.04,1.408,1.216a4.591,4.591,0,0,1,.98.355,0.908,0.908,0,0,1,.458.5,3.587,3.587,0,0,0,1.1,1.981c0.821,0.8,1.653,1.592,2.456,2.411a5.419,5.419,0,0,1,1.339,1.568,18.94,18.94,0,0,1,.684,3.055,0.771,0.771,0,0,0,.758.786A1.117,1.117,0,0,1,145.3,91a3.013,3.013,0,0,0,.41.542c1.009,0.6,2.016,1.22,3.068,1.737a1.553,1.553,0,0,0,1.905-.641c-0.461-.061-0.741-0.078-1.011-0.139a1.114,1.114,0,0,1-.656-0.246,7.284,7.284,0,0,1-.3-1.7c-0.042-.853-0.083-1.742,1.049-2.185a3.107,3.107,0,0,0-.539-0.283c-0.571-.117-1.155-0.182-1.713-0.34a1.982,1.982,0,0,1-.59-0.482,2.623,2.623,0,0,1,.521-0.38c0.682-.276,1.377-0.52,2.065-0.776-1.627-1.765-1.627-1.765-1.038-2.568l-0.653-.364,0.855-.769-1.941-.095a1.677,1.677,0,0,1,.428-0.537c0.592-.137,1.2-0.221,1.8-0.322a7.616,7.616,0,0,0,1.54-.289,1.034,1.034,0,0,0,.4-0.8,0.777,0.777,0,0,0-.555-0.465c-0.923-.119-1.855-0.16-2.782-0.241-0.221-.019-0.439-0.085-0.781-0.154l1.028-1.138-0.134-.194h-1.9c-0.192-.5-0.357-0.927-0.518-1.353a1.922,1.922,0,0,1-.331-0.978,2.833,2.833,0,0,1,.951-0.82,11.544,11.544,0,0,1,1.34-.9c0.719-.381.393-0.943,0.341-1.48a1.726,1.726,0,0,1,.089-0.72c0.225-.635-0.081-0.739-0.623-0.766a4.228,4.228,0,0,1-1.385-.281c-0.328-.136-0.615-0.58-0.116-0.783,0.691-.281.514-0.731,0.407-1.194a4.781,4.781,0,0,0-.41-1.292c-0.343-.6-0.79-1.146-1.274-1.829l1.874-.324-0.018-.226-2.651-1.973c0.521-1.01.5-.979-0.367-1.62-0.417-.309-0.512-0.97-1.1-1.143a0.6,0.6,0,0,1,.066-0.347,0.611,0.611,0,0,0-.084-0.99c-0.607-.5-1.258-0.939-1.895-1.4-0.286-.206-0.584-0.4-0.968-0.656l0.967-.527a1.866,1.866,0,0,0-.7-0.328,9.47,9.47,0,0,0-1.949.4,0.914,0.914,0,0,0-.26.815c0.543,0.661,1.182,1.242,1.781,1.857a1.057,1.057,0,0,1,.351.455,0.775,0.775,0,0,1-.488.43,8.331,8.331,0,0,1-1.508-.011A12.816,12.816,0,0,0,135.948,60c-0.589.018-.953-0.124-0.89-0.844-0.9.161-1.021-.513-1.21-1.113a1.563,1.563,0,0,1-.69.331,10.277,10.277,0,0,1-2.684-.979c-0.526-.339-0.707-0.469-1.026.1a0.62,0.62,0,0,1-.4.306,0.96,0.96,0,0,1-.4-0.445,2.069,2.069,0,0,1-.077-0.6l-1.614.39a1.443,1.443,0,0,1-.16,1.877c0.755,0.385,1.457.762,2.177,1.1a0.711,0.711,0,0,1,.38,1,3.984,3.984,0,0,1-2.1,2.31,0.793,0.793,0,0,0-.55.978,2.181,2.181,0,0,1-.637,1.2A1.156,1.156,0,0,1,125.553,65.494ZM74.322,139.927a8.187,8.187,0,0,1,.939-0.177c1.281-.084,2.562-0.194,3.844-0.209,2.2-.025,4.4-0.119,6.588.065,2.005,0.169,4,.417,6.019.429a4.882,4.882,0,0,0,.7-0.114,4.449,4.449,0,0,0-.434-0.613,2.086,2.086,0,0,1-.233-2.9,3.945,3.945,0,0,0,.714-1.53c0.19-1.381.226-2.784,0.358-4.174,0.053-.552.229-1.091,0.291-1.642a5.813,5.813,0,0,0,.065-1.754c-0.317-1.557-.792-3.09-0.058-4.654a0.791,0.791,0,0,0,.031-0.322c0-2.05-.006-4.1-0.019-6.152-0.006-.952.407-1.9-0.158-2.863a5.336,5.336,0,0,1-.476-1.7c-0.153-.8-0.246-1.618-0.352-2.335-1.072.134-2.04,0.264-3.011,0.372-0.32.036-.651-0.023-0.969,0.023-1.717.25-3.433,0.507-5.145,0.786a6.406,6.406,0,0,0-1.865.438,21.907,21.907,0,0,0-2.394,1.58,6.239,6.239,0,0,0-2.024,2.062,41.155,41.155,0,0,1-3.226,4.325c-0.08.1-.213,0.167-0.3,0.267a5.271,5.271,0,0,0-1.039,1.225,10.063,10.063,0,0,0-.527,4.992,8.4,8.4,0,0,1,.047,2.512,4.3,4.3,0,0,0,.225,2.359,2.923,2.923,0,0,1,.363,1.057c-0.172,1.156.452,2.087,0.721,3.117,0.354,1.352,1.148,2.578,1.055,4.064A5.963,5.963,0,0,0,74.322,139.927Zm44.215-.28c0.037-.074.073-0.149,0.11-0.223a0.96,0.96,0,0,0-.229-0.434,1.107,1.107,0,0,1-.775-1.4c0.043-1.2.282-2.4,0.4-3.6a5.775,5.775,0,0,0-.068-1.363c-0.086-.6-0.259-1.2-0.343-1.8-0.2-1.423-.321-2.859-0.559-4.275-0.169-1-.547-1.973-0.7-2.978-0.243-1.576-.054-3.2-1.036-4.659a34.911,34.911,0,0,1-1.851-3.584c-0.3-.58-1.053-0.805-1.311-0.366a16.958,16.958,0,0,0-1.658,3.224,22.255,22.255,0,0,0-.73,3.951,5.257,5.257,0,0,1-1.142,3.037,0.96,0.96,0,0,0-.115.527c-0.061.81-.088,1.624-0.172,2.431-0.078.743-.3,1.479-0.3,2.219-0.008,1.352.069,2.706,0.17,4.055a9.7,9.7,0,0,0,.363,1.7,22.027,22.027,0,0,1,.684,2.565,5.115,5.115,0,0,1-.484,1.677,9.8,9.8,0,0,0,2.862-.78c1.7-1.129,3.279-1.448,5.092-.334A5.755,5.755,0,0,0,118.537,139.647Zm31.654-35.419-0.223-.149a9.545,9.545,0,0,0,1.207-.3,0.736,0.736,0,0,0,.435-0.461,4.505,4.505,0,0,0-.511-1.356c-0.583-.937-0.606-0.912.324-1.47a3.008,3.008,0,0,0,.494-0.478c-0.2-.152-0.41-0.3-0.6-0.458a4.752,4.752,0,0,1-1.019-.9,1.616,1.616,0,0,0-1.136-.9,15.508,15.508,0,0,1-2.216-.639c-0.568-.187-0.8-0.023-0.773.584a1.583,1.583,0,0,1-.528,1.724,0.545,0.545,0,0,0-.111.43c0.059,0.566.194,1.139-.517,1.43a0.419,0.419,0,0,0-.111.363,14.472,14.472,0,0,1-.055,4.248c-0.174,2.4-.139,4.808-0.2,7.214-0.046,1.677-.1,3.354-0.187,5.03a1.24,1.24,0,0,1-.351.508c-0.652.841-1.363,1.643-1.941,2.533a2.813,2.813,0,0,1-2.35,1.2c-0.984-.184-1.935-0.95-1.753-1.611a3.461,3.461,0,0,0-.347-1.954,1.552,1.552,0,0,1,.242-1.513c0.576-.617.517-0.927,0-1.643-0.86-1.19-1.949-1.206-3.275-1.3a5.331,5.331,0,0,1,.284,1.187c0,0.393-.2.782-0.232,1.179a2.758,2.758,0,0,0,.183.775c0.056,0.228.113,0.456,0.154,0.688,0.173,0.978.327,1.961,0.523,2.935a0.761,0.761,0,0,0,.372.41,2.849,2.849,0,0,1,1.229,1.715,1.762,1.762,0,0,0,2.084,1.2,3.3,3.3,0,0,1,.393.027c0.838-.017,1.683.015,2.513-0.084a1.654,1.654,0,0,0,1.179-.541,2.065,2.065,0,0,1,1.8-1.142,0.778,0.778,0,0,0,.486-0.347c0.663-1.364,1.309-2.736,1.927-4.121a1.68,1.68,0,0,0,.2-1.035,1.415,1.415,0,0,1,.367-1.566c1.223-1.146,1.15-2.647,1-4.072-0.163-1.553.062-2.8,1.617-3.644a5.866,5.866,0,0,0-.682-0.562c-0.653-.39-0.661-0.5-0.02-0.972a1.548,1.548,0,0,0,.206-0.219,2.817,2.817,0,0,1-.225-0.764A8.814,8.814,0,0,1,150.191,104.228ZM51.063,140.476a6.088,6.088,0,0,0,.908.041c1.157-.146,2.308-0.345,3.467-0.463,0.641-.066,1.3.02,1.94-0.03a0.711,0.711,0,0,0,.531-0.393c0.021-.9-0.057-1.805-0.055-2.708,0-1.894.072-3.788,0.042-5.681a15.856,15.856,0,0,0-.3-3.063,32.234,32.234,0,0,0-1.1-3.718,5.147,5.147,0,0,0-.844-1.429,0.713,0.713,0,0,0-.7-0.1,2.117,2.117,0,0,0-1.1,1.7,9.757,9.757,0,0,1-1.442,4.992,3.455,3.455,0,0,0-.693,1.693,5.414,5.414,0,0,1-.4,2.092,5,5,0,0,0,.122,3.642A2.931,2.931,0,0,1,51.063,140.476Zm73.862-6.912a4.673,4.673,0,0,1-.695.522c-0.494.245-1.031,0.4-1.512,0.669a1.166,1.166,0,0,0-.614.644,0.9,0.9,0,0,0,1.07.739c1.029-.106,2.026.312,3.113-0.284a24.946,24.946,0,0,1,3.968-1.365,0.538,0.538,0,0,0,.313-0.4,0.626,0.626,0,0,0-.354-0.433c-0.869-.235-1.751-0.418-2.626-0.633a3.928,3.928,0,0,1-.553-0.228,2.86,2.86,0,0,1,.358-0.556,1.009,1.009,0,0,1,.55-0.318c1.218-.084,1.684-1.107,2.443-1.858l-0.715-.539,0.948-.735c-0.413-.326-0.78-0.6-1.126-0.9-0.215-.185-0.4-0.41-0.593-0.617,0.189-.164.38-0.325,0.566-0.493,0.158-.143.311-0.293,0.428-0.4-0.534-.251-0.968-0.472-1.416-0.66a1.2,1.2,0,0,0-.747-0.193c-0.722.4-1.1-.168-1.546-0.5a0.636,0.636,0,0,1-.139-0.6,2.614,2.614,0,0,1,.884-0.912,1.488,1.488,0,0,0,.82-1.591c-0.23.023-.446,0.054-0.662,0.063a0.988,0.988,0,0,1-.582-0.025c-0.658-.789-1.438-0.534-2.217-0.316a2.336,2.336,0,0,0-1.239.426,2.516,2.516,0,0,1-1.193,1.116c-0.566.368-1.079,0.819-1.615,1.234,0,0.077.006,0.154,0.008,0.231h3.469c0.023,0.119.046,0.238,0.068,0.357-0.337.166-.69,0.307-1.009,0.5a5.251,5.251,0,0,0-1.2.869c-0.4.455-.21,0.732,0.415,0.8a11.168,11.168,0,0,1,1.186.25c-0.009.055-.019,0.111-0.028,0.166l1.033-.214c0.038,0.1.077,0.206,0.115,0.31l-1.645.787a6.47,6.47,0,0,0,1.343.141,1.935,1.935,0,0,1,.547.221,1.312,1.312,0,0,1-.336.474c-0.568.277-1.166,0.493-1.746,0.748-0.262.115-.506,0.269-0.9,0.481a4.333,4.333,0,0,1,1.424.806c0.541,0.8,1.154.529,1.832,0.381a1.905,1.905,0,0,1,.738.161C124.177,132.727,124.135,132.817,124.925,133.564Zm-30.069,3.612a4.085,4.085,0,0,1,1.52-1,66.491,66.491,0,0,1,6.712.007c1.434,0.081,1.834-.14,1.869-1.629a0.98,0.98,0,0,1,.188-0.652c0.763-.655.776-0.64-0.089-1.208-0.11-.072-0.222-0.139-0.332-0.207a2.532,2.532,0,0,0,.046-0.269c0.016-.3.026-0.608,0.038-0.913-0.309.084-.616,0.173-0.926,0.249-0.247.061-.5,0.105-0.746,0.157-0.045-.129-0.089-0.258-0.133-0.387,0.622-.363,1.265-0.7,1.858-1.1a1.761,1.761,0,0,0,.82-0.875,17.652,17.652,0,0,0-.019-2.72,1.6,1.6,0,0,0-1.409-1.27c-1.256.023-2.511,0.033-3.765,0.086a1.891,1.891,0,0,0-.776.288,16.321,16.321,0,0,0-1.513.921,1.122,1.122,0,0,0-.463.633,0.791,0.791,0,0,0,.453.5c0.409,0.19.886,0.243,1.278,0.457,0.76,0.414.343,1.111,0.251,1.676a1.033,1.033,0,0,1-.733.363c-0.913.12-1.833,0.182-2.883,0.278l0.675,0.958-1.026.09-0.125.236,1.413,1.045a0.771,0.771,0,0,0-.289,1.377,2.822,2.822,0,0,1,.231,1.078c-1.293-.282-1.713.744-2.405,1.427ZM119.5,117.613a2.3,2.3,0,0,1,.337.915c-0.12.674,0.165,0.73,0.711,0.691a11.658,11.658,0,0,1,1.752.044c0.5,0.04.594,0.265,0.276,0.7a4.453,4.453,0,0,0-.392.907,6.268,6.268,0,0,0,4.949-2.426l-0.922.1a2.663,2.663,0,0,1-.144-0.913,1.684,1.684,0,0,1,.491-0.748,7.674,7.674,0,0,1,.863-0.655c-0.378-.39.07-1.449-1.008-1.191,0.128-.53,1.02-0.6.654-1.332l-1.787.472c-0.03-.06-0.06-0.121-0.089-0.181a12.832,12.832,0,0,0,1.313-.724,2.126,2.126,0,0,0,.423-0.656,5.853,5.853,0,0,0-.727.132c-0.329.1-.647,0.241-0.969,0.364l-0.1-.237a0.729,0.729,0,0,1,.272-0.244,1.79,1.79,0,0,0,1.476-1.321,1.927,1.927,0,0,0-.029-0.8c-0.213.031-.427,0.06-0.639,0.094s-0.4.07-.821,0.144l0.921-1.114-1.65.272-0.036-.247c0.459-.266.932-0.511,1.374-0.8,0.679-.448.339-1.135,0.283-1.711a2.454,2.454,0,0,0-.9-0.285,1.106,1.106,0,0,1-.176-0.1v-0.7c-0.637-.08-1.231-0.166-1.827-0.226-0.308-.031-0.619-0.017-0.929-0.023a7,7,0,0,0,.2-0.939,1.922,1.922,0,0,0-.081-0.759,2.045,2.045,0,0,0-1.144.117,1.88,1.88,0,0,0-.184.953,3.665,3.665,0,0,1-.231,1.153c-0.247.44-.177,0.565,0.259,0.775a1.592,1.592,0,0,1,.669.829,1.94,1.94,0,0,1-.066.834,2.038,2.038,0,0,0-.783.643,0.708,0.708,0,0,1-.7.592,2.567,2.567,0,0,0-.825.584c0.348,0.049.7,0.1,1.045,0.141,0.044,0,.094-0.066.142-0.067,0.282-.007.563,0,0.845,0a2.807,2.807,0,0,1-.627.582c-0.527.251-1.091,0.425-1.64,0.63l0.105,0.423,3.133-.535c0.021,0.075.041,0.15,0.061,0.226l-0.827.365c-0.827.361-1.665,0.7-2.471,1.1a2.281,2.281,0,0,0-.555.648,2.563,2.563,0,0,0,.868.586,4.926,4.926,0,0,0,1.26-.155c0.5-.057,1.008-0.091,1.659-0.148l-0.675,1.351,2.2-.542,0.1,0.339A17.944,17.944,0,0,1,119.5,117.613Zm-50.936,5.993a1.494,1.494,0,0,0,1.532-1.13c0.276-.837.481-1.7,0.707-2.551,0.143-.54-0.19-0.789-0.766-0.693a8.68,8.68,0,0,1-1.416.016,3.027,3.027,0,0,1,1.359-.6c1.022-.16,1.233-0.376,1.253-1.472l-1.424-.064-0.018-.236a7.9,7.9,0,0,1,.806-0.2c0.709-.1,1.421-0.183,2.133-0.266a0.81,0.81,0,0,0,.785-1.139c-0.3-.926-0.431-1.66.808-1.907a2.506,2.506,0,0,0,.115-0.833,1.789,1.789,0,0,0-.469-0.016c-0.233.808-1,.656-1.534,0.814-0.585.173-1.1,0.214-.706,1.022a0.472,0.472,0,0,1-.1.441,5.188,5.188,0,0,1-1.741,1.062c-1.288.233-2.622,0.2-3.932,0.323a3.028,3.028,0,0,0-.861.371c0.263,0.2.518,0.413,0.793,0.593a2.294,2.294,0,0,0,.488.176c-0.075.151-.113,0.222-0.146,0.3-0.113.249-.224,0.5-0.335,0.748,0.254,0.033.51,0.056,0.762,0.1,0.56,0.1,1.118.218,1.677,0.328l-0.052.237-4.133.992c0.218,0.984.218,0.984-1.776,1.485l-0.043.226,2.086,0.3c-0.01.135-.019,0.27-0.028,0.406H60.5l-0.007.282a1.629,1.629,0,0,0,.4.175c0.713,0.1,1.43.174,2.142,0.28a0.7,0.7,0,0,1,.475.214c0.2,1.081,1.008.718,1.656,0.733,0.21,0,.421,0,0.631.011,0.773,0.03,1.518.054,1.794-.94a1.366,1.366,0,0,1,.591-0.636,0.706,0.706,0,0,1,.57.005,0.84,0.84,0,0,1,.028.484A3.212,3.212,0,0,1,68.563,123.606Zm-1.6,11.05-0.061-.17c0.417-.252.84-0.495,1.248-0.762a2.2,2.2,0,0,0,.348-0.361c-0.123-.116-0.25-0.226-0.366-0.348a1.384,1.384,0,0,1-.473-0.547A2.075,2.075,0,0,1,68.2,131.7c0.071-.077.313,0,0.377-0.075,0.239-.284.437-0.6,0.651-0.909a3.36,3.36,0,0,0-.871-0.393,9.5,9.5,0,0,0-1.67-.052,0.993,0.993,0,0,0-.709.25c-0.737,1.115-2.1,1.009-3.065,1.654-0.172.114-.33,0.251-0.495,0.378a1.3,1.3,0,0,0,.47.34c0.656,0.07,1.32.07,1.978,0.121a4.6,4.6,0,0,1,.7.161l0.026,0.24-1.773.678-0.31.723a2.229,2.229,0,0,0-.573-0.34,2.789,2.789,0,0,0-1.053-.105,1.519,1.519,0,0,0-.549.473,1.7,1.7,0,0,0,.639.435c0.775,0.057,1.557.011,2.335,0.045a1.334,1.334,0,0,1,.492.277,1.127,1.127,0,0,1-.352.462c-1,.2-1.632.627-1.314,1.81a2.509,2.509,0,0,1-.05.791l0.274,0.053c0.141-.245.291-0.486,0.423-0.736,0.671-1.281,1.568-1.835,2.593-1.654a14.157,14.157,0,0,0,3.632-.248,0.616,0.616,0,0,0,.229-0.195l-0.281-.635,0.69-.753-0.1-.166ZM139.1,91.631c0.854-.907,1.014-0.92,1.516-0.3,0.766,0.95,1.58,1.862,2.4,2.769a0.528,0.528,0,0,0,.482.074,1.02,1.02,0,0,1,1.534.519,0.858,0.858,0,0,0,.511.354,48.105,48.105,0,0,0,4.922,1.282,36.952,36.952,0,0,0,4.627.256,3.89,3.89,0,0,0,.832-0.149c0-.083,0-0.167,0-0.25a38.253,38.253,0,0,1-16.193-7.053,10.185,10.185,0,0,0-.611,1.39A4.231,4.231,0,0,0,139.1,91.631Zm-76.14,34.818,0.052,0.445a7.706,7.706,0,0,1,.95.008c0.386,0.048.766,0.153,1.148,0.234a4.073,4.073,0,0,0-.925.5,4.927,4.927,0,0,0-.636.933,3.219,3.219,0,0,0,.666.355,4.935,4.935,0,0,0,3.521-.674c1.073-.532,1.083-0.5.8-1.65a1.736,1.736,0,0,1,0-.4,1.115,1.115,0,0,0-1.707-1.042,5.635,5.635,0,0,1-.748.245Q64.521,125.925,62.961,126.449Zm48.428-68.78A1.407,1.407,0,0,0,111,57.255a6.931,6.931,0,0,0-4.1.106,3.52,3.52,0,0,1-1.074.09c-1.078.083-2.158,0.151-3.232,0.266a1.736,1.736,0,0,0-.592.356l0.171,0.264A33.575,33.575,0,0,0,111.389,57.669Zm12.2,29.361a7.847,7.847,0,0,0-1.993-.89c-0.818-.112-1.241.631-1.811,1.407,0.67,0,1.15-.022,1.626.009a0.962,0.962,0,0,1,.662.205c0.244,0.7.54,0.426,0.847,0.095C123.134,87.627,123.316,87.37,123.59,87.03Zm-22.635,52.586c0.456-.088.833-0.166,1.211-0.232s0.942-.031.839-0.612a2.952,2.952,0,0,0-.667-1.354,1.144,1.144,0,0,0-.969.324A8.269,8.269,0,0,0,100.955,139.616Zm4.5-16.631a1.543,1.543,0,0,0-.738.329,2.185,2.185,0,0,1-2.328.985,1.912,1.912,0,0,0-.707.317c0.039,0.1.078,0.2,0.118,0.3a2.617,2.617,0,0,1,1.327-.187,1.845,1.845,0,0,0,1.307-.036C105.571,124.631,105.929,124.178,105.459,122.985Zm24.9,14.839c0.058,0.087.116,0.174,0.173,0.261,0.441,0,.883.023,1.322,0,0.926-.06,1.2-0.454.84-1.325a3.241,3.241,0,0,0-.794-0.807Zm-33.876.782c0.533,0.172.956,0.317,1.386,0.442a0.587,0.587,0,0,0,.4.009,1.508,1.508,0,0,0,.609-0.461,2.331,2.331,0,0,0-.611-1.228,1.432,1.432,0,0,0-1.132.292A3.222,3.222,0,0,0,96.482,138.606Zm-25.577.718a1.188,1.188,0,0,0,.566.032,1.7,1.7,0,0,0,.838-0.729c0.068-.459-0.383-0.639-0.84-0.608a4.976,4.976,0,0,1-.719.042c-0.7-.057-0.692.608-0.993,0.957,0.308,0.108.615,0.222,0.926,0.32A0.581,0.581,0,0,0,70.905,139.324Zm-29.874-.575a5.023,5.023,0,0,1-.709-0.456,2.371,2.371,0,0,0-.57-0.638,1.237,1.237,0,0,0-.933.234,0.818,0.818,0,0,0-.065.781A1.508,1.508,0,0,0,41.031,138.749Zm25.359-.195a1.664,1.664,0,0,0-.33.191c-0.159.164-.3,0.345-0.449,0.519a1.672,1.672,0,0,0,.678.192c1.426-.286,1.423-0.3.793-1.577-0.056-.113-0.1-0.234-0.172-0.422l-0.875.311ZM113.7,107.611c-0.593.67-1.111,1.211-1.562,1.8a0.732,0.732,0,0,0,.187.627,0.626,0.626,0,0,0,.581.041A2.978,2.978,0,0,0,113.7,107.611Zm12.735,29.574a2.423,2.423,0,0,0,.567.914,4.662,4.662,0,0,0,1.29.208,2.939,2.939,0,0,0-.095-0.983C127.731,136.351,127.1,137.059,126.431,137.185Zm-20,2.2a3.388,3.388,0,0,0,.739-0.854,8.311,8.311,0,0,0-.87-1.241,2.216,2.216,0,0,0-.781.9A3.44,3.44,0,0,0,106.427,139.383ZM118.51,95.374l-0.166-.185a4.134,4.134,0,0,0,.853-0.424,1.714,1.714,0,0,0,.3-0.618,1.445,1.445,0,0,0-.726-0.135,3.985,3.985,0,0,0-.961,1.262,4.777,4.777,0,0,0-.13,1.421l0.305,0.044Q118.25,96.056,118.51,95.374ZM44.492,141.641a1.74,1.74,0,0,0,2.764,0H44.492Zm4.824-2.609q0-.212,0-0.423c-0.856-.109-1.711-0.232-2.569-0.308a0.545,0.545,0,0,0-.336.364,0.442,0.442,0,0,0,.25.35C47.542,139.043,48.429,139.032,49.316,139.032ZM45.747,72.106l0.273,0.386,3.133-2.265A8.116,8.116,0,0,0,45.747,72.106Zm-3.3,66.864c1.532,0.268,1.968.144,2.213-.6A1.6,1.6,0,0,0,42.447,138.97ZM150.776,92.908L151,93.08a2.359,2.359,0,0,0,.663-0.752,1.017,1.017,0,0,0-.517-0.678,5.852,5.852,0,0,0-1.19-.386c0.039,0.391.06,0.594,0.081,0.808h0.742v0.836Zm-26.389,44.007a3.656,3.656,0,0,0-.763,1.057,0.941,0.941,0,0,0,.683.547,1.138,1.138,0,0,0,.7-0.677A2.608,2.608,0,0,0,124.387,136.915ZM100.8,124.735c-0.78-.263-1.558-0.533-2.343-0.782a1.225,1.225,0,0,0-.427.021,0.786,0.786,0,0,0,.125.334A2.533,2.533,0,0,0,100.8,124.735ZM65.56,111.779l-2.3,1.336,0.12,0.211C64.351,113.188,65.636,112.329,65.56,111.779ZM94.6,127.007a1.72,1.72,0,0,0-.623-2.262ZM116.542,104.5l-0.284-.062c-0.252.651-.836,1.23-0.182,2.077Q116.309,105.509,116.542,104.5Zm2.905-6.14c0.218-.624.437-1.249,0.693-1.979A1.481,1.481,0,0,0,119.447,98.362Zm-2.422,3.37c0.489-.488.839-0.824,1.16-1.185a0.56,0.56,0,0,0-.239-0.344A1.546,1.546,0,0,0,117.025,101.732ZM73.485,56.021l0.142,0.323,1.872-.834-0.144-.327Zm8.571-.36-0.121.311a0.857,0.857,0,0,0,1.042.538,0.963,0.963,0,0,0,.2-0.46Zm12.881,82.2-1.754.247a1.973,1.973,0,0,0,.844.581A2.794,2.794,0,0,0,94.938,137.857ZM84.04,40.591a2.99,2.99,0,0,1-1.312,5.663c-1.9.081-3.81,0.106-5.714,0.171a0.584,0.584,0,0,1-.746-0.674c0.017-3.425.011-6.851,0.015-10.277a1.968,1.968,0,0,1,.078-0.333c1.567,0,3.148-.024,4.729.01a18.937,18.937,0,0,1,2.548.221c1.927,0.305,2.451,3.319,1.085,4.571C84.509,40.141,84.3,40.345,84.04,40.591Zm-5.862,4.222c1.381,0,2.616.029,3.848-.009A1.64,1.64,0,0,0,83.7,43.109a1.538,1.538,0,0,0-1.5-1.735c-1.3-.08-2.618-0.02-3.975-0.02-0.017.335-.039,0.6-0.041,0.862C78.175,43.049,78.178,43.882,78.178,44.812Zm0-8.068c0,0.887.021,1.644-.007,2.4a0.6,0.6,0,0,0,.744.756c1.173-.077,2.351-0.095,3.524-0.179a1.259,1.259,0,0,0,1.108-1.507,1.243,1.243,0,0,0-1.166-1.46C81.014,36.716,79.648,36.745,78.176,36.745Zm14.871-1.6c0.809,0,1.619.006,2.428,0,0.435,0,.79-0.012.756,0.627-0.029.552-.076,0.979-0.757,0.978q-2.266-.006-4.533,0a1.464,1.464,0,0,0-1.73,1.468,1.527,1.527,0,0,0,1.71,1.525c1.044,0.036,2.088.094,3.13,0.16a2.521,2.521,0,0,1,2.414,1.786c0.6,1.638.128,3.573-1.229,4.191a7.28,7.28,0,0,1-2.565.522c-1.425.082-2.859,0-4.288,0.032-0.626.016-.776-0.239-0.779-0.82a0.666,0.666,0,0,1,.807-0.806c1.51,0.029,3.022.022,4.532,0.011a1.545,1.545,0,0,0,1.781-1.776A1.523,1.523,0,0,0,92.962,41.5c-1.125-.035-2.256-0.039-3.371-0.172-1.5-.179-2.317-1.178-2.4-2.862a2.965,2.965,0,0,1,2.112-3c1.234-.212,2.485-0.318,3.729-0.471Zm5.917-.046c2.4,0.255,4.716-.353,6.981.366a2.616,2.616,0,0,1,1.829,2.508,11.655,11.655,0,0,1-.044,1.953,3.209,3.209,0,0,1-3.088,2.381c-1.211.016-2.423,0-3.77,0,0,1.051.02,2.071-.012,3.09a1.362,1.362,0,0,1-.259.918,3.876,3.876,0,0,1-1.423.022,0.641,0.641,0,0,1-.2-0.472C98.962,42.335,98.964,38.8,98.964,35.1Zm1.937,5.761c0.855,0,1.694.029,2.531-.005,2.369-.1,2.769-1.237,2.283-3.058a1.628,1.628,0,0,0-1.109-.987,34.6,34.6,0,0,0-3.7-.047v4.1Zm14.136,101.048c1.036-.6,1.609-0.487,2.09.336Zm-75.071-29.2a6.375,6.375,0,0,0,.793-0.877,1,1,0,0,0,.069-0.714,0.978,0.978,0,0,1,.706-1.332,5.8,5.8,0,0,0,.85-0.417c0.456-.218.835-0.192,0.782,0.432a9.873,9.873,0,0,1-.38,2.369,1.481,1.481,0,0,1-1.127.539c-0.476.031-.975-0.286-1.413,0.17A1.323,1.323,0,0,1,39.966,112.709Zm54.924-6.893-1.805-1.425a2.7,2.7,0,0,0-.477-3.1A1.879,1.879,0,0,1,92.3,100.7a0.479,0.479,0,0,1,.248-0.136,1.264,1.264,0,0,1,.561.392c0.615,1.174,1.217,2.358,1.763,3.566A4.1,4.1,0,0,1,94.889,105.816Zm-38.08,7.772a4.536,4.536,0,0,1-.6.807,18.875,18.875,0,0,1-1.712,1.217,0.615,0.615,0,0,1-.5-0.176,2.223,2.223,0,0,1,.125-1.171,1.629,1.629,0,0,1,.971-0.5A14.673,14.673,0,0,1,56.809,113.588ZM42.79,94.562a4.106,4.106,0,0,1,.088.959,18.832,18.832,0,0,1-.434,1.967,0.508,0.508,0,0,1-.378.312,0.611,0.611,0,0,1-.367-0.361A3.708,3.708,0,0,1,42.79,94.562Zm-0.248,9.819-0.57,1.264-1.311-1.3a2.031,2.031,0,0,1,.853-0.544A2.841,2.841,0,0,1,42.542,104.381Zm49.313-7.164c-0.1-.747-0.208-1.494-0.305-2.242a5.607,5.607,0,0,1-.069-0.8,3.537,3.537,0,0,1,.11-0.6,1.351,1.351,0,0,1,.514.486c0.048,1.041.024,2.086,0.024,3.13Zm3.069,9.8,1.791-.643c-0.485,1.036.4,1.065,1.026,1.444-1.162.58-1.793-.743-2.745-0.414Zm4.9,5.264a10.335,10.335,0,0,1-1.424-.018,1.336,1.336,0,0,1-.645-0.4,0.505,0.505,0,0,1,.051-0.412,1.72,1.72,0,0,1,.64,0,13.966,13.966,0,0,1,1.374.293,0.912,0.912,0,0,1,.29.313ZM65.488,60.6a3.894,3.894,0,0,1-.6.68,14.89,14.89,0,0,1-1.4.742,1.075,1.075,0,0,1-.425.007,1.026,1.026,0,0,1,.15-0.465,15.462,15.462,0,0,1,1.529-1.1A1.749,1.749,0,0,1,65.488,60.6Zm-24.23,46.146c0.4,0.426.817,0.835,1.178,1.292a1.141,1.141,0,0,1-.161.544,2,2,0,0,1-.437-0.234,3.878,3.878,0,0,1-.55-0.6,7.855,7.855,0,0,1-.419-0.717Zm51.754-6.8a1.149,1.149,0,0,1-.89-1.438,0.406,0.406,0,0,1,.214-0.29,0.359,0.359,0,0,1,.323.129C92.8,98.873,92.9,99.41,93.011,99.944ZM68.145,90.972a1.311,1.311,0,0,1,.3-1.717,0.441,0.441,0,0,1,.434,0,0.449,0.449,0,0,1,.1.424C68.769,90.061,68.508,90.418,68.145,90.972ZM42.092,114.024a1.9,1.9,0,0,1-1.869-.279A1.218,1.218,0,0,1,42.092,114.024ZM91.35,90.781c0.155,0.6.3,1.112,0.408,1.633a0.374,0.374,0,0,1-.24.257,0.456,0.456,0,0,1-.34-0.128A1.475,1.475,0,0,1,91.35,90.781ZM73.716,59.51a4.541,4.541,0,0,1-.559.522,2.832,2.832,0,0,1-.589.24,4.983,4.983,0,0,1-.638.154,0.423,0.423,0,0,1-.079-0.2,6.488,6.488,0,0,1,.534-0.384,3.786,3.786,0,0,1,.667-0.41A1.905,1.905,0,0,1,73.716,59.51Zm64.418,7.821c0.748,0.333,1.506.648,2.237,1.017a0.6,0.6,0,0,1,.227.532,1.389,1.389,0,0,1-.458.48c-0.161.145-.334,0.275-0.5,0.412a5.376,5.376,0,0,0,.558.359,2.274,2.274,0,0,1,1.541,1.4,2.971,2.971,0,0,0,.369.613c0.129,0.232.24,0.475,0.359,0.713a1.979,1.979,0,0,1-1,.295c-0.981-.515-1.561-0.01-2.18.636a1.03,1.03,0,0,1-.824.341,1.7,1.7,0,0,1-.6-0.772,7.364,7.364,0,0,0-.42-0.9,0.692,0.692,0,0,1,.118-1.112c0.527-.29.5-0.508,0.205-0.934a0.653,0.653,0,0,1,.007-0.613,1.042,1.042,0,0,1,.618-0.232,4.735,4.735,0,0,1,.728-0.009,4.5,4.5,0,0,0-.351-1.122,5.059,5.059,0,0,0-.869-0.863Zm-20,10.926-0.42-4.747,0.341-.067a2.952,2.952,0,0,1,.183.5c0.2,1.135.4,2.27,0.554,3.412a3.17,3.17,0,0,1-.163.94Zm-0.416-11.73a1.861,1.861,0,0,1,.132,2.436C117.809,68.2,117.768,67.442,117.718,66.527ZM133.382,86.8a2.161,2.161,0,0,1-.031-0.826,1,1,0,0,1,1.307-.579ZM126.9,75.744l-1.148-.324a2.9,2.9,0,0,1,.1-0.337c0.39,0.074.777,0.17,1.164,0.262Z" transform="translate(-11.281 -15.281)"/>
</svg>
