<svg id="CIP-ML" xmlns="http://www.w3.org/2000/svg" width="162.438" height="162.438" viewBox="0 0 162.438 162.438">
  <defs>
    <style>
      .cls-1 {
        fill: #fff;
        stroke: #acacac;
        stroke-width: 2px;
      }

      .cls-2 {
        fill: #1e2930;
        fill-rule: evenodd;
      }
    </style>
  </defs>
  <circle id="Ellipse_1_copy" data-name="Ellipse 1 copy" class="cls-1" cx="81.219" cy="81.219" r="80.219"/>
  <path class="cls-2" d="M49.885,152.95v-0.9c0-6.291.017-12.583-.021-18.874,0-.825.265-1,1.018-0.975,1.731,0.054,3.464.037,5.2,0.033a7.139,7.139,0,0,0,.925-0.12q0-.129,0-0.258a7.145,7.145,0,0,0-.859-0.083,5.192,5.192,0,0,1-3.512-1.432,7.509,7.509,0,0,1-2.265-3.064,6.207,6.207,0,0,1-.473-2.142c-0.034-7.2-.057-14.4.008-21.595A6.27,6.27,0,0,1,51.626,99.4a9.722,9.722,0,0,1,2.243-1.807,5.113,5.113,0,0,1,2.14-.641c1.327-.1,2.667-0.025,4-0.029,0.214,0,.428-0.031.722-0.054-0.545-1.461-1.09-2.826-1.564-4.214-0.719-2.105-1.365-4.235-2.088-6.339-0.6-1.744-1.282-3.459-1.894-5.2-0.464-1.321-.86-2.666-1.313-3.991-0.46-1.344-.964-2.672-1.428-4.015-0.342-.99-0.639-2-0.98-2.986s-0.732-1.991-1.083-2.992c-0.317-.9-0.6-1.819-0.916-2.72-0.488-1.374-1.018-2.734-1.491-4.114-0.341-.994-0.6-2.015-0.93-3.014-0.3-.926-0.647-1.838-0.976-2.755-0.335-.933-0.668-1.867-1.011-2.8-0.367-1-.75-1.986-1.116-2.983-0.177-.48-0.331-0.969-0.5-1.454q-0.775-2.28-1.551-4.56c-0.266-.779-0.562-1.549-0.808-2.334a1.119,1.119,0,0,1,1.041-1.589,6.042,6.042,0,0,0,1.134-.4c0.207,0.588.409,1.1,0.566,1.628s0.408,0.475.811,0.24c2.445-1.424,4.87-2.887,7.364-4.219,2.121-1.133,4.3-2.17,6.506-3.13,1.542-.671,3.173-1.138,4.762-1.7,1.019-.361,2.022-0.774,3.058-1.081,1.192-.353,2.415-0.6,3.618-0.921,0.828-.22,1.639-0.5,2.469-0.716,0.753-.192,1.523-0.315,2.282-0.484,0.922-.205,1.84-0.43,2.761-0.64,0.788-.179,1.571-0.4,2.368-0.509,1.337-.189,2.688-0.281,4.026-0.462a72.531,72.531,0,0,1,11.363-.343,14.847,14.847,0,0,1,3.747.726,44.18,44.18,0,0,1,4.643,1.638c3.106,1.3,6.243,2.575,8.659,5.046,1.039,1.062,2.229,2.123,1.808,3.848a7.916,7.916,0,0,1-.9,2.177c-1.509,2.5-.256,4.245,1.783,5.233,1.436,0.7,3.144.811,4.675,1.344a55.61,55.61,0,0,1,5.268,2.166,8.661,8.661,0,0,1,1.9,1.46c2.286,2.014,2.773,4.664,2.618,7.53a10.985,10.985,0,0,1-.094,1.523c-0.2,1.016-.459,2.021-0.707,3.028-0.132.536-.32,1.06-0.432,1.6-0.3,1.435-.546,2.879-0.855,4.311-0.208.967-.56,1.907-0.714,2.88a36.39,36.39,0,0,0-.528,4.713c-0.029,1.135.347,2.274,0.405,3.418,0.041,0.8-.207,1.611-0.223,2.418-0.023,1.231.034,2.465,0.078,3.7,0.007,0.218.145,0.429,0.168,0.65,0.147,1.421.233,2.849,0.432,4.262,0.148,1.046.546,2.064,0.63,3.11a17.11,17.11,0,0,1-.147,3.234,9.377,9.377,0,0,1-.5,1.909,3.907,3.907,0,0,1-.567,1.088,3.8,3.8,0,0,1-.747.6,2.379,2.379,0,0,1-.589-0.87,4.479,4.479,0,0,1,.5-3.085c1.522-2.32.161-4.6-2.645-4.88-1.655-.168-3.27-0.015-4.9-0.034-2.4-.028-4.812-0.145-7.2-0.374a6.341,6.341,0,0,1-2.616-.934c-1.479-.91-1.67-2.334-0.634-3.794,0.709-1,1.473-1.96,2.226-2.954a2.526,2.526,0,0,0-2.217-1.095c-0.565.045-1.144-.055-1.7,0.021-1.542.211-3.077,0.48-4.615,0.725-0.14.022-.281,0.035-0.42,0.061-1.359.259-2.715,0.529-4.076,0.776-0.873.159-1.759,0.25-2.626,0.434-0.918.2-1.82,0.468-2.729,0.7-0.589.152-1.176,0.315-1.771,0.44-0.816.171-1.646,0.28-2.457,0.47-0.832.195-1.646,0.463-2.473,0.682-0.669.178-1.342,0.336-2.016,0.494-1.18.276-2.38,0.488-3.539,0.834a33.615,33.615,0,0,0-3.4,1.25c-1.113.468-2.2,1-3.279,1.543q-3.3,1.662-6.586,3.368c-0.921.477-1.822,0.995-2.7,1.476,0.286,0.756.525,1.379,0.759,2q0.91,2.428,1.819,4.856a2.753,2.753,0,0,1,.16.29,24.52,24.52,0,0,1,.409,6.43,0.738,0.738,0,0,1-.56.415c-1.476.035-2.953,0-4.43,0.028-0.519.008-.612-0.238-0.605-0.679,0.018-1.19.07-2.386-.019-3.569a3.945,3.945,0,0,0-.586-1.754c-0.841-1.32-3.24-1.038-3.991.009a3.5,3.5,0,0,0-.588,1.909c-0.042,6.319-.06,12.64.008,18.959a2.609,2.609,0,0,0,1.655,2.687,2.846,2.846,0,0,0,2.788-.668,3.585,3.585,0,0,0,.709-1.764c0.1-1.61.046-3.229,0.023-4.844a0.56,0.56,0,0,1,.674-0.7q2.129,0.043,4.26,0c0.5-.009.711,0.124,0.7,0.665a43.208,43.208,0,0,1-.063,5.009,12.725,12.725,0,0,1-1.279,4.352c-0.93,1.748-2.534,2.456-4.167,3.146a4.952,4.952,0,0,1-1.8.034c-0.011.12-.021,0.24-0.032,0.359a7.341,7.341,0,0,0,.961.123q12.012,0,24.025-.017,19.083,0,38.166.022c6.644,0,13.289.01,19.933-.014,0.684,0,.927.144,0.924,0.877q-0.042,9.522,0,19.045a0.7,0.7,0,0,1-.865.854q-45.751-.025-91.5-0.016C50.435,152.984,50.239,152.967,49.885,152.95Zm33.9-97.777c0.654-.621,1.34-1.211,1.951-1.87a0.739,0.739,0,0,1,1.3-.024c1.045,1.107,2.144,2.163,3.228,3.233q2.882,2.843,5.772,5.677l-0.046.345c-1.216.236-2.423,0.558-3.65,0.685a7.35,7.35,0,0,1-3.809-.878A22.921,22.921,0,0,1,85.368,60.4a1.075,1.075,0,0,0-1.577.041c-0.645.664-1.281,1.337-1.979,2.067-0.5-.624-1.118-1.308-1.712-0.708-0.626.633,0.212,1.171,0.672,1.7-0.41.351-.769,0.709-1.177,1a9.568,9.568,0,0,0-3.038,3.16,1.725,1.725,0,0,0,.307,1.928,1.256,1.256,0,0,0,1.585.457,2.79,2.79,0,0,0,1.389-.834c1.008-1.35,1.905-2.782,2.918-4.291a1.648,1.648,0,0,0,.173.314,0.884,0.884,0,0,0,1.372.278,0.9,0.9,0,0,0-.331-1.311c-0.731-.59-0.2-0.914.206-1.265a16.768,16.768,0,0,0,7.27,4.107,10.114,10.114,0,0,0,8-1.273c1.22,1.193,2.4,2.329,3.557,3.48,0.555,0.55.965,1.042,1.939,0.484,1.189-.68,1.574-1.906.576-2.858-1.14-1.087-2.309-2.143-3.466-3.213a12.312,12.312,0,0,0,1.255-1.611,19.035,19.035,0,0,0,1.239-2.663,13.688,13.688,0,0,0,.725-2.841,14.119,14.119,0,0,0,.009-2.885,6.51,6.51,0,0,0-.458-2.246,14.712,14.712,0,0,0-3.92-5.585,34,34,0,0,0-2.921-2.464,41.953,41.953,0,0,0-4.4-2.166,11.1,11.1,0,0,0-1.368-.441L92.13,41a26.819,26.819,0,0,1,2.309,1.688A18.159,18.159,0,0,1,99.1,48.486a10.555,10.555,0,0,1,1.349,4.719c-0.041,1.5.178,3.021-.435,4.447-0.355.827-.825,1.6-1.248,2.413L88.67,50.008l4.18-3.941a7.849,7.849,0,0,1-1.019-.093c-1.029-.24-2.052-0.507-3.078-0.764a8.093,8.093,0,0,0-1.338-.316,1.543,1.543,0,0,0-1.065.208c-2.135,2.092-4.225,4.229-6.33,6.356Zm49.672,86,0.146,0.012c0.188,0.694.393,1.384,0.557,2.084,0.181,0.77.308,1.552,0.49,2.322,0.112,0.477.294,0.937,0.428,1.41a16.9,16.9,0,0,1,.664,2.51c0.132,1.107.468,1.524,1.573,1.524,0.483,0,.966-0.018,1.448.005a0.534,0.534,0,0,0,.661-0.633c-0.01-5.212,0-10.425-.012-15.638a0.92,0.92,0,0,0-1.009-.993c-0.34-.01-0.685.03-1.021-0.008-0.642-.072-0.832.191-0.82,0.819,0.039,2.1.028,4.193,0.028,6.289,0,0.285-.041.57-0.079,1.065a2.135,2.135,0,0,1-.3-0.391c-0.261-1.008-.53-2.014-0.764-3.028-0.172-.743-0.286-1.5-0.446-2.246a9.526,9.526,0,0,0-.486-1.884,1.366,1.366,0,0,0-.913-0.592,8.846,8.846,0,0,0-1.613-.025c-1.225,0-1.453.221-1.453,1.409v13.854c0,2.018,0,1.989,2.009,2.013a0.7,0.7,0,0,0,.863-0.872c-0.041-2.634-.029-5.269-0.029-7.9C133.386,141.906,133.435,141.538,133.461,141.171Zm-58.877.959a9.9,9.9,0,0,0,.965-2.268,18.119,18.119,0,0,0,.029-3.224,1.863,1.863,0,0,0-.253-0.852c-0.892-1.519-2.435-1.827-3.991-1.993-1.011-.108-2.044.009-3.065-0.032a0.632,0.632,0,0,0-.778.783c0.026,2.324.011,4.648,0.011,6.972q0,4.335,0,8.672c0,0.375-.121.9,0.521,0.836,1.835-.171,3.689.347,5.523-0.341a3.509,3.509,0,0,0,2.43-3.18c0-.879-0.007-1.758,0-2.636A3.483,3.483,0,0,0,74.584,142.13Zm20.932,8.449a7.2,7.2,0,0,1-.255-1.217c-0.026-1.359-.035-2.719,0-4.078a2.862,2.862,0,0,0-.884-2.154c-0.387-.389-0.43-0.629-0.018-1.033a2.817,2.817,0,0,0,.9-2.223c-0.045-.933.087-1.882-0.043-2.8a4.562,4.562,0,0,0-.769-1.857c-0.835-1.224-2.289-1.161-3.534-1.409a14.784,14.784,0,0,0-2.888-.036,1.022,1.022,0,0,0-1.242,1.268c0,4.532.025,9.063-.01,13.594-0.019,2.531.039,2.408,2.416,2.414a0.7,0.7,0,0,0,.866-0.873c-0.039-1.755,0-3.512-.021-5.268a0.564,0.564,0,0,1,.677-0.7A1.066,1.066,0,0,1,92,145.46c0,1.331-.051,2.665.027,3.991a2.923,2.923,0,0,0,.573,1.5C92.895,151.344,95.169,150.928,95.516,150.579Zm24.99-8.183c0,1.558-.04,3.117.018,4.673a5.772,5.772,0,0,0,.41,2,2.84,2.84,0,0,0,2.98,1.975,10.993,10.993,0,0,0,1.7-.032,4.988,4.988,0,0,0,1.919-.784,4.3,4.3,0,0,0,1.415-3.393c0.114-2.885.066-5.778,0.017-8.666a6.694,6.694,0,0,0-.446-2.188,2.683,2.683,0,0,0-.991-1.32,5.536,5.536,0,0,0-3.2-.916,3.8,3.8,0,0,0-3.816,3.813V142.4Zm-17.147-8.623c-1.366,0-2.528-.049-3.681.034a1.145,1.145,0,0,0-.807.714c-0.219,1.084-.309,2.2-0.437,3.3-0.142,1.214-.273,2.429-0.411,3.643-0.006.055-.036,0.107-0.047,0.162-0.249,1.192-.541,2.378-0.734,3.579-0.2,1.259-.3,2.534-0.463,3.8a1.278,1.278,0,0,1-.188.37c-0.546,1.058-.208,1.66.932,1.661,0.4,0,.8.021,1.191-0.009a0.68,0.68,0,0,0,.5-0.207,6.212,6.212,0,0,0,.443-1.58c0.121-1.389.089-1.391,1.5-1.393a2.338,2.338,0,0,1,.759.017,0.861,0.861,0,0,1,.5.48c0.188,0.771.276,1.565,0.467,2.334a0.72,0.72,0,0,0,.553.342c0.65,0.043,1.305.025,1.958,0.013a0.688,0.688,0,0,0,.657-1.069,7.514,7.514,0,0,1-.347-1.4c-0.062-.358-0.01-0.737-0.079-1.094-0.224-1.161-.529-2.309-0.71-3.476-0.2-1.279-.294-2.573-0.435-3.861a1.57,1.57,0,0,0-.037-0.165c-0.248-1.122-.53-2.237-0.733-3.367C103.545,135.684,103.477,134.756,103.359,133.773Zm-22.413,7.2a1.207,1.207,0,0,1-.13-0.31c-0.014-.481-0.019-0.962-0.019-1.443,0-2.2,0-2.2,2.209-2.2,2.269,0,2.25,0,2.219-2.3a0.793,0.793,0,0,0-.946-0.95c-1.872.029-3.745,0.008-5.617,0.01a1,1,0,0,0-1.124,1.145c0,5.1.016,10.192-.012,15.288,0,0.706.257,0.854,0.9,0.839,1.588-.037,3.177-0.012,4.766-0.012,2.068,0,2.049,0,2.039-2.059,0-.58-0.159-0.815-0.771-0.788-0.991.042-1.987,0.037-2.978-.007a0.858,0.858,0,0,1-.649-0.4c-0.052-1.291-.03-2.585-0.03-3.948h1.564c2.119,0,2.1,0,2.074-2.109a0.637,0.637,0,0,0-.808-0.754C82.727,141,81.823,140.974,80.946,140.974Zm27.525,3.011V149c0,2.064,0,2.064,2.047,2.037a1.021,1.021,0,0,0,1.195-1.239c0-1.076,0-2.152,0-3.228q0-4.374,0-8.748c0-.394-0.077-0.8.557-0.812a2.834,2.834,0,0,0,1.734-.238,3.52,3.52,0,0,0,.122-1.805c0.005-.2-0.011-0.4,0-0.595a0.494,0.494,0,0,0-.6-0.6c-2.3.01-4.6-.008-6.894,0.011a0.933,0.933,0,0,0-.991,1.013c-0.011.311,0,.623,0,0.934,0.005,1.044.251,1.288,1.305,1.291a6.5,6.5,0,0,0,.765,0c0.6-.07.778,0.181,0.769,0.773C108.452,139.851,108.471,141.918,108.471,143.985ZM56.708,148.2V135.848c0-2.117,0-2.117-2.093-2.076a1,1,0,0,0-1.152,1.2q0,7.437,0,14.873a1.01,1.01,0,0,0,1.241,1.191c1.5,0,3.009,0,4.514,0,1.92,0,1.88,0,1.929-1.921,0.02-.786-0.26-0.964-0.981-0.929C59.041,148.237,57.913,148.2,56.708,148.2Zm61.839-5.716V135.6c0-1.827,0-1.827-1.832-1.826-1.175,0-1.4.216-1.4,1.373,0,4.5.027,9.005-.011,13.508-0.022,2.592.133,2.38,2.441,2.394a0.668,0.668,0,0,0,.809-0.836C118.53,147.635,118.547,145.058,118.547,142.481Zm-56.252.047c0,2.576-.007,5.152.011,7.728a1.1,1.1,0,0,0,.241.707,15.064,15.064,0,0,0,2.532-.041,1.019,1.019,0,0,0,.448-0.8q0.041-7.684.013-15.37a0.928,0.928,0,0,0-1.022-.979c-0.34-.012-0.681,0-1.021,0-1,.008-1.2.205-1.2,1.2Q62.29,138.75,62.295,142.528Zm49.78-23.547a3.092,3.092,0,0,0,.411-0.876c0.173-1.427.185-2.881,0.456-4.286a37.636,37.636,0,0,0,.8-5.229,21.82,21.82,0,0,1,.739-3.5,1.542,1.542,0,0,0,.022-0.168c0.138-1.407.263-2.816,0.418-4.222a25.14,25.14,0,0,1,.437-3.031A1.2,1.2,0,0,1,116.271,97c2.156-.059,4.315-0.046,6.472,0a1.193,1.193,0,0,1,.583.589,1.064,1.064,0,0,1,.015.5q0,16.361.019,32.723c0,0.807-.233,1.022-1,0.977-1.075-.064-2.156-0.016-3.235-0.016-1.172,0-1.4-.222-1.4-1.361q0.006-8.5.01-17c0-.311-0.054-0.622-0.1-1.091a1.409,1.409,0,0,0-.277.326c-0.154,1.269-.266,2.544-0.455,3.807-0.217,1.457-.5,2.9-0.755,4.355,0,0.027-.017.054-0.02,0.082-0.14,1.3-.277,2.6-0.421,3.895a14.08,14.08,0,0,1-.461,3.441,8.48,8.48,0,0,0-.332,2.519,0.962,0.962,0,0,1-1.065,1.03c-1.221-.012-2.442,0-3.663,0a1.179,1.179,0,0,1-1.3-1.272c-0.119-1.3-.2-2.609-0.408-3.9-0.173-1.057-.514-2.086-0.78-3.127a0.586,0.586,0,0,1-.012-0.084c-0.131-1.267-.211-2.542-0.405-3.8-0.184-1.192-.488-2.366-0.739-3.548a3.118,3.118,0,0,1-.059-0.332c-0.127-1.32-.249-2.641-0.382-3.961a0.477,0.477,0,0,0-.341-0.358,7.867,7.867,0,0,0-.1.9c0,6.034-.014,12.069.035,18.1a1.186,1.186,0,0,1-1.407,1.391,27.126,27.126,0,0,0-2.809-.013,0.877,0.877,0,0,1-1.015-1.034q0.011-16.362,0-32.723a0.922,0.922,0,0,1,1.032-1.042c2.1-.013,4.2.01,6.3-0.014a0.615,0.615,0,0,1,.715.687c0.2,1.344.489,2.676,0.742,4.012,0.01,0.056.022,0.111,0.028,0.167,0.139,1.3.226,2.609,0.43,3.9,0.183,1.153.494,2.285,0.748,3.426a1.617,1.617,0,0,1,.038.164c0.135,1.232.224,2.47,0.414,3.693,0.186,1.194.511,2.366,0.7,3.559a22.623,22.623,0,0,1,.147,2.26ZM70.34,114.412q0-8.118,0-16.237c0-1.16.041-1.2,1.189-1.205,1.647,0,3.3-.047,4.94.012a22.286,22.286,0,0,1,4.682.395,6.07,6.07,0,0,1,4.143,2.962,14.791,14.791,0,0,1,1.171,3.457c0.636,2.424.333,4.836,0.267,7.229a10.61,10.61,0,0,1-1.274,4.519,5.459,5.459,0,0,1-3.053,2.6,14.635,14.635,0,0,0-1.911.431c-1.24.62-2.529,0.314-3.8,0.384-0.656.036-.593,0.46-0.593,0.893q0,5.271,0,10.542c0,1.373,0,1.373-1.361,1.373-1.164,0-2.331-.052-3.492.017-0.785.047-.935-0.241-0.931-0.966C70.353,125.35,70.34,119.881,70.34,114.412Zm5.767-6.513c0,1.558.022,3.117-.011,4.674a0.65,0.65,0,0,0,.8.792c0.652-.025,1.306-0.006,1.959,0a1.714,1.714,0,0,0,1.921-1.867c0.019-2.379.048-4.76-.027-7.137a1.66,1.66,0,0,0-.895-1.493c-0.995-.561-1.981-0.195-2.958-0.33-0.575-.079-0.808.174-0.795,0.777C76.129,104.839,76.107,106.369,76.107,107.9Zm52.05,6.524q0-8.115,0-16.232a0.991,0.991,0,0,1,1.194-1.222c1.192,0,2.384,0,3.577,0a1.014,1.014,0,0,1,1.261,1.24c0,8.98.011,17.96-.017,26.94,0,0.807.2,1.064,1.029,1.041,2.156-.058,4.314-0.019,6.472-0.019,1.055,0,1.317.251,1.319,1.273,0,1.048,0,2.1,0,3.144a0.972,0.972,0,0,1-1.148,1.179c-4.2,0-8.4-.01-12.6.011a0.93,0.93,0,0,1-1.092-1.122C128.165,125.245,128.157,119.834,128.157,114.423ZM90.019,131.768v-0.98q0-16.32,0-32.64c0-1.18,0-1.18,1.213-1.179s2.442,0.025,3.662-.012a0.622,0.622,0,0,1,.782.718c0,0.17,0,.34,0,0.51q0,16.193,0,32.384c0,1.2,0,1.2-1.2,1.2C93.029,131.767,91.585,131.768,90.019,131.768ZM70.637,145.786c0-.566.019-1.133,0-1.7s0.276-.678.748-0.646a1.307,1.307,0,0,1,1.35,1.461c0,0.765.016,1.53,0,2.294-0.018.732-.438,0.983-1.335,1.017-0.8.03-.781-0.434-0.761-0.982C70.65,146.75,70.636,146.268,70.637,145.786Zm0-6.994a2.529,2.529,0,0,1,.005-0.507c0.1-.489-0.382-1.279.692-1.276a1.19,1.19,0,0,1,1.373,1.329,4.913,4.913,0,0,1-.45,1.974,1.7,1.7,0,0,1-1.192.232,0.8,0.8,0,0,1-.409-0.571A6.915,6.915,0,0,1,70.636,138.792ZM92,139.07c0,0.452.009,0.9,0,1.354a0.919,0.919,0,0,1-.942.967c-0.723.085-1.1-.092-1.03-0.942a21.879,21.879,0,0,0,.009-2.79c-0.035-.817.528-0.645,0.974-0.634,0.429,0.01,1.04-.225,1,0.607C91.979,138.111,92,138.591,92,139.07Zm33.732,3.442c0,1.5-.047,3,0.017,4.5,0.045,1.058-.8,1.323-1.678,1.168a0.494,0.494,0,0,1-.294-0.341,15.172,15.172,0,0,1-.276-2.165q-0.051-3.4,0-6.8a4.967,4.967,0,0,1,.3-1.628,0.842,0.842,0,0,1,1.128-.6,1.507,1.507,0,0,1,.763,1.024C125.778,139.282,125.731,140.9,125.732,142.512Zm-24.753-3.44a0.6,0.6,0,0,1,.2.126c0.159,1.23.3,2.462,0.469,3.691a6.323,6.323,0,0,0,.31,1.359c0.28,0.74.06,1.107-.743,1.114-0.2,0-.4,0-0.595,0-0.54.017-.619-0.233-0.459-0.7a6.076,6.076,0,0,0,.306-1.27c0.155-1.376.272-2.756,0.41-4.134A0.546,0.546,0,0,1,100.979,139.072Z" transform="translate(-11.281 -15.281)"/>
</svg>
