<svg xmlns="http://www.w3.org/2000/svg" width="11" height="22.031" viewBox="0 0 11 22.031">
  <defs>
    <style>
      .cls-1 {
        fill: #3c51a5;
        fill-rule: evenodd;
      }
    </style>
  </defs>
  <path id="facebook_ic_articil_page" data-name="facebook_ic_articil page" class="cls-1" d="M1119.18,805h-3.93V794.985H1112v-3.9h3.24v-0.543c0.03-1.173-.01-2.354.1-3.518a4.347,4.347,0,0,1,3.83-3.951,17.54,17.54,0,0,1,3.83.081v3.5c-0.29,0-.58,0-0.86,0-0.51.01-1.03,0.014-1.54,0.04a1.316,1.316,0,0,0-1.41,1.325c-0.06,1-.02,2-0.02,3.051h3.72c-0.16,1.315-.32,2.576-0.48,3.881h-3.23V805Z" transform="translate(-1112 -782.969)"/>
</svg>
