<svg xmlns="http://www.w3.org/2000/svg" xmlns:xlink="http://www.w3.org/1999/xlink" width="38" height="39" viewBox="0 0 38 39">
  <defs>
    <style>
      .cls-1 {
        fill-rule: evenodd;
        fill: url(#linear-gradient);
      }
    </style>
    <linearGradient id="linear-gradient" x1="1459" y1="3267" x2="1459" y2="3228" gradientUnits="userSpaceOnUse">
      <stop offset="0" stop-color="#ff0006"/>
      <stop offset="1" stop-color="#ff7c00"/>
    </linearGradient>
  </defs>
  <path id="GEMENI" class="cls-1" d="M1444.34,3258.84c-0.52.14-1.03,0.29-1.86,0.52,0.97-3.44,5.12-6.07,2.23-10.21,0.89-.57,1.64-1.06,3.04-1.97a32.5,32.5,0,0,1-3.6.68c-2.26.11-4.76,0.54-3.36-3.3,0.39-1.06-.42-2.55-0.8-4.48,1.34-1.74,2.61-4.2,1.09-7.25a2.4,2.4,0,0,1,.68-1.99c2.86-2.87,10.1-3.72,13.7-1.72,1.62,0.9,3.53,7.18,3.1,9.37-0.61,3.09-2.19,5.58-3.8,8.24-0.81,1.34.5,3.94,0.81,5.77-2.79,1.58-5.88,3.33-8.96,5.07C1445.85,3258,1445.09,3258.42,1444.34,3258.84Zm28.12-.96c-3.41-1.8-6.83-3.61-10.37-5.48,0.52-1.32,1.25-3.19,2.05-5.23-4.46-3.55-4.95-8.55-4.53-13.59,0.27-3.29,5.75-6.23,9.23-5.45,1.44,0.31,2.91.52,4.33,0.89,3.92,1.02,3.36,4.15,3.52,7.08a21.154,21.154,0,0,0,1.31,4.55,22.036,22.036,0,0,0-.65,3.85c0,3.54-.3,3.87-3.93,3.33a7.9,7.9,0,0,0-2.65-.21c0.82,0.44,1.63.89,2.57,1.4-1.94,2.62-.99,4.86.57,7.2,0.61,0.92.51,2.29,0.74,3.45C1473.92,3259.08,1473.19,3258.48,1472.46,3257.88Zm-28.12.96c0.75-.42,1.51-0.84,2.27-1.27,2.74-1.05,5.52-2.02,8.22-3.19,2.45-1.07,3.47.43,3.62,2.23,0.28,3.32.08,6.68,0.08,10.38-1.53-.28-2.67-0.49-3.92-0.72,0.09-1.62.16-3,.24-4.38-0.15-.05-0.29-0.09-0.44-0.14-0.5,1.26-.99,2.51-1.62,4.11-1.59-.55-3.08-1.08-5.02-1.75,1.13-1.76,2.07-3.22,3.01-4.68-0.12-.1-0.23-0.19-0.34-0.29-1.31,1.22-2.62,2.45-4.09,3.82C1444.99,3261.94,1442.57,3261.52,1444.34,3258.84Zm28.12-.96c0.73,0.6,1.46,1.2,2.19,1.79-0.81,1.16-1.61,2.33-2.52,3.64-1.85-1.75-3.29-3.11-4.73-4.47-0.13.14-.27,0.28-0.4,0.42,1.03,1.44,2.07,2.89,3.33,4.66-1.77.74-3.31,1.37-5,2.07-0.77-1.91-1.41-3.53-2.06-5.15-0.11.04-.22,0.07-0.32,0.1,0.19,1.68.38,3.36,0.6,5.26-1.4.28-2.53,0.52-3.68,0.75-1.06-6.1-.6-10.69,1.59-13.35C1465.03,3254.99,1468.74,3256.43,1472.46,3257.88Z" transform="translate(-1440 -3228)"/>
</svg>
