<svg xmlns="http://www.w3.org/2000/svg" width="22" height="20" viewBox="0 0 22 20">
  <defs>
    <style>
      .cls-1 {
        fill-rule: evenodd;
      }
    </style>
  </defs>
  <path class="cls-1" d="M441.8,425.43v0.217q0,3.768,0,7.536a0.739,0.739,0,0,1-.837.817H425.028a0.737,0.737,0,0,1-.83-0.808V425.43h-0.551A1.616,1.616,0,0,1,422,423.785a1.48,1.48,0,0,1,.485-1.078q2.022-1.872,4.049-3.739,2.264-2.088,4.526-4.176a2.747,2.747,0,0,1,3.234-.459,4.836,4.836,0,0,1,.924.718q4.151,3.819,8.29,7.649a1.519,1.519,0,0,1,.368,1.729,1.623,1.623,0,0,1-1.48,1C442.207,425.432,442.018,425.43,441.8,425.43Zm-1.472,7.139v-0.21q0-3.784,0-7.568a0.733,0.733,0,0,1,.8-0.787c0.374,0,.747.007,1.12,0a0.368,0.368,0,0,0,.258-0.11c0.073-.1-0.033-0.18-0.109-0.25q-1.482-1.365-2.963-2.733-2.763-2.549-5.529-5.1a1.448,1.448,0,0,0-.408-0.272,1.27,1.27,0,0,0-1.448.3q-1.389,1.29-2.786,2.574-2.832,2.611-5.662,5.227a0.792,0.792,0,0,0-.121.253,0.882,0.882,0,0,0,.267.1c0.356,0.012.712,0,1.068,0a0.749,0.749,0,0,1,.853.839q0,3.759,0,7.518v0.208h3.661v-0.205c0-1.107-.006-2.215,0-3.322a3.966,3.966,0,0,1,.089-0.8,3.667,3.667,0,0,1,4.644-2.658,3.593,3.593,0,0,1,2.6,3.424c0,1.119,0,2.237,0,3.356v0.2h3.661Zm-5.151,0a0.268,0.268,0,0,0,.017-0.062c0-1.224.021-2.448-.01-3.672a2.2,2.2,0,0,0-4.38.2c0,1.124,0,2.247,0,3.371,0,0.053.006,0.106,0.01,0.163h4.363Z" transform="translate(-422 -414)"/>
</svg>
