<svg id="ORHERS" xmlns="http://www.w3.org/2000/svg" width="164.438" height="164.438" viewBox="0 0 164.438 164.438">
  <defs>
    <style>
      .cls-1, .cls-2, .cls-3 {
        fill: #fff;
      }

      .cls-1 {
        stroke: #acacac;
        stroke-width: 4px;
      }

      .cls-3, .cls-4, .cls-5, .cls-6 {
        fill-rule: evenodd;
      }

      .cls-4 {
        fill: #209c54;
      }

      .cls-5 {
        fill: #f6961e;
      }

      .cls-6 {
        fill: #1e2930;
      }
    </style>
  </defs>
  <circle id="Ellipse_1_copy" data-name="Ellipse 1 copy" class="cls-1" cx="82.219" cy="82.219" r="80.219"/>
  <ellipse class="cls-2" cx="81.906" cy="80.219" rx="78.969" ry="78.344"/>
  <path class="cls-3" d="M90.424,79.531c0.063,0.7-.246.881-0.929,0.94a9.83,9.83,0,0,0-5.923,2.252c-1.368,1.2-2.725.736-3.243-1.017-0.211-.715-0.31-1.466-0.46-2.2l-0.126-.123a38.632,38.632,0,0,1-.091-4.232c0-.114.007-0.228,0.019-0.341,0.188-1.755.365-3.511,0.561-5.265a2.2,2.2,0,0,1,.032-0.324,4.919,4.919,0,0,0-.029-1.934c-0.059-3.425-.495-6.857-0.207-10.267,0.33-3.916-.054-7.852.5-11.751a10.365,10.365,0,0,1,1.181-3.5,0.523,0.523,0,0,1,.452-0.317,8.393,8.393,0,0,1,2.312-2.136c2.138-1.112,3.933-.545,5.038,1.629l0.523,1.031a1.593,1.593,0,0,1,.26,1.295c0.083,1.242.169,2.483,0.165,3.73-0.007,1.9.01,3.8,0.165,5.7a33.514,33.514,0,0,1-.3,5.381A33.53,33.53,0,0,0,90.3,63.77a71.959,71.959,0,0,1,.16,11.974c-0.08,1.052.125,2.094,0.1,3.144A0.768,0.768,0,0,1,90.424,79.531Z" transform="translate(-10.281 -14.281)"/>
  <path class="cls-4" d="M167.028,122.409c-9.785,26.987-32.616,46.812-60.414,51.712-24.936,4.395-47.184-2.054-66.389-18.992A78.989,78.989,0,0,1,18.568,123.3c-0.171-.451-0.3-0.921-0.444-1.382C18.124,121.914,147.992,122.16,167.028,122.409Z" transform="translate(-10.281 -14.281)"/>
  <path class="cls-5" d="M18.755,69.5C29.887,41.936,49.743,25.015,78.413,18.954a68.194,68.194,0,0,1,21.041-1.038q34.575,3.5,56.041,31.411A77.237,77.237,0,0,1,166.58,69.608a0.845,0.845,0,0,1-.817,1.262S18.311,70.6,18.755,69.5Z" transform="translate(-10.281 -14.281)"/>
  <path class="cls-6" d="M105.384,96.644c16.675,7.031,25.6,19.32,26.616,37.357h-6.3c-0.379-11.595-5.283-20.891-14.928-27.551a32.532,32.532,0,0,0-21.312-5.644,33.722,33.722,0,0,0-31.179,33.176H52c1.008-18.032,9.957-30.337,26.706-37.374-6.743-5.216-10.25-11.95-9.672-20.462a21.858,21.858,0,0,1,7.405-15.121A22.994,22.994,0,1,1,105.384,96.644Zm3.426-18.836A16.813,16.813,0,1,0,91.994,94.522,16.761,16.761,0,0,0,108.81,77.808Z" transform="translate(-10.281 -14.281)"/>
</svg>
