<svg id="JMM" xmlns="http://www.w3.org/2000/svg" width="162.438" height="162.438" viewBox="0 0 162.438 162.438">
  <defs>
    <style>
      .cls-1 {
        fill: #027621;
        stroke: #acacac;
        stroke-width: 2px;
      }

      .cls-2 {
        fill: #fff;
        fill-rule: evenodd;
      }
    </style>
  </defs>
  <circle id="Ellipse_1_copy" data-name="Ellipse 1 copy" class="cls-1" cx="81.219" cy="81.219" r="80.219"/>
  <path class="cls-2" d="M89.145,78.049V52.229l-5.925,2.546L92.482,34l9.337,20.876-5.8-2.616V77.912c1.285-.347,2.736-0.241,3.49-1.021,5.532-5.72,11.613-5.506,17.891-2.291,6.766,3.464,11.546,9.551,16.041,16.135a128.519,128.519,0,0,0,10.611,13.071,15.045,15.045,0,0,0,8.751,4.943,2.8,2.8,0,0,0,2.161-.826c1.559-1.587,3.748-1.753,5.161-.167a4.084,4.084,0,0,1-.185,5.286,3.24,3.24,0,0,1-2.253.878c-8.054.061-16.109,0.037-24.164,0.037q-52.886,0-105.772.041c-1.855,0-3.09-.584-3.585-2.617a3.577,3.577,0,0,1,1.5-4.251c1.644-.959,3.1-0.569,4.483.951a2.827,2.827,0,0,0,2.413.6c4.469-.95,8-3.946,11.068-7.526a126.324,126.324,0,0,0,8.53-11.293c4.9-7.229,10.353-13.591,18.2-16.431,5.456-1.975,10.508-1.283,14.973,3.3C86.153,77.571,87.648,77.562,89.145,78.049Zm-2.838,30.986c0-4.173.063-8.093-.03-12.008-0.039-1.669.225-2.881,1.653-3.677a2.733,2.733,0,0,0,1.207-1.8c0.17-1.7.057-3.431,0.057-5.392-1.58,0-2.955-.087-4.317.024a3.554,3.554,0,0,1-3.241-1.543,8.787,8.787,0,0,0-3.88-2.482c-3.329-1.064-6.39.286-9.276,2.087-4.37,2.727-7.545,6.986-10.918,11.058-3.391,4.095-7.185,7.754-10.835,11.563a28.713,28.713,0,0,1-2.707,2.166H86.307Zm54.087-.008A83.311,83.311,0,0,1,125.545,92.98c-3.153-4.315-6.821-8.017-11.522-10.065-3.354-1.461-6.967-2.154-9.713.847-2.107,2.3-4.228,2.556-6.732,2.408a10.857,10.857,0,0,0-1.67.176c0,1.406.049,2.68-.013,3.945-0.068,1.367.062,2.554,1.32,3.179s1.53,1.779,1.5,3.292c-0.085,4.05-.029,8.1-0.029,12.265h41.711Zm-42.533.023,0.158-.352c-1.7-1.137-3.4-2.292-5.121-3.386a0.989,0.989,0,0,0-.923.053c-1.684,1.083-3.341,2.221-5.006,3.341l0.13,0.344H97.861Z" transform="translate(-11.281 -15.281)"/>
  <path class="cls-2" d="M129.519,133.094c1.1-3.1,2.068-5.634,2.888-8.214a2.163,2.163,0,0,1,2.539-1.82c2.164,0.144,4.345.059,6.517,0.013A1.3,1.3,0,0,1,143,124.614c-0.026,4.822-.013,9.645-0.016,14.467a0.929,0.929,0,0,1-.028.4c-1.2,2.318-3.275.666-4.9,1.076-0.989.249-1.585-.225-1.564-1.426A65.379,65.379,0,0,0,136.13,130q-0.53,1.479-1.059,2.957c-0.517,1.446-1.018,2.9-1.551,4.336-1.205,3.248-1.217,3.135-4.636,3.32-1.788.1-2.564-.533-3.068-2.237a48.315,48.315,0,0,0-3.332-8.307c0,2.847-.087,5.7.033,8.539,0.069,1.621-.456,2.073-2.026,2.034-4.515-.111-4.516-0.046-4.518-4.559,0-3.751.038-7.5-.028-11.252-0.024-1.32.443-1.8,1.722-1.754a53.209,53.209,0,0,0,5.924-.015c1.82-.14,2.721.5,3.222,2.326C127.479,127.816,128.466,130.151,129.519,133.094Zm-35.533-3.223c-1.091,3.068-2.243,6.115-3.243,9.213a1.9,1.9,0,0,1-2.11,1.553c-4.149.044-4.148,0.087-5.536-3.863a56.422,56.422,0,0,0-2.843-7.045c0,2.973-.063,5.948.027,8.918,0.044,1.462-.382,2.029-1.886,1.989-5.452-.145-4.584.749-4.633-4.608-0.033-3.681.034-7.364-.058-11.042-0.034-1.369.318-1.968,1.745-1.914,2.234,0.084,4.476.089,6.71,0.008a1.915,1.915,0,0,1,2.157,1.542c0.888,2.621,1.882,5.2,3.04,8.367,1.135-3.139,2.153-5.708,2.974-8.341a1.866,1.866,0,0,1,2.1-1.567c2.236,0.046,4.477.072,6.711-.016,1.116-.044,1.568.334,1.564,1.454-0.017,4.885-.027,9.771,0,14.657,0.007,1.171-.516,1.432-1.57,1.466-4.7.156-4.7,0.185-4.7-4.556q0-3.074,0-6.148ZM47.3,133.817c0.031,1.9.7,2.989,2.5,2.717,1.755-.265,1.814-1.719,1.838-3.066,0.05-2.873.073-5.748,0.011-8.621-0.028-1.285.4-1.723,1.685-1.777,6-.252,6.009-0.29,5.991,5.823-0.006,2-.033,4.009-0.161,6.006a5.51,5.51,0,0,1-3.893,5.066,16.459,16.459,0,0,1-11.575-.022,5.75,5.75,0,0,1-3.584-3.991c-0.3-1.02,0-1.538,1.045-1.622C43.115,134.172,45.071,134,47.3,133.817Zm61.062,1.759h0.784c2.915,0,3.86,1.3,2.907,4.144a1.7,1.7,0,0,1-1.278.846,31.11,31.11,0,0,1-4.894-.024,2.373,2.373,0,0,1-1.27-1.258,4.747,4.747,0,0,1-.05-1.372c-0.268-1.8.364-2.644,2.234-2.338a9.866,9.866,0,0,0,1.567.012v-0.01Zm-42.023-.013h0.588c3,0,3.818,1.087,3,4.133a1.443,1.443,0,0,1-1.028.851,29.037,29.037,0,0,1-4.89.008,2.056,2.056,0,0,1-1.363-1.389C62.147,135.684,62.311,135.569,66.34,135.563Z" transform="translate(-11.281 -15.281)"/>
</svg>
