<svg id="Group_221" data-name="Group 221" xmlns="http://www.w3.org/2000/svg" xmlns:xlink="http://www.w3.org/1999/xlink" width="59.804" height="59.803" viewBox="0 0 59.804 59.803">
  <defs>
    <clipPath id="clip-path">
      <rect id="Rectangle_95" data-name="Rectangle 95" width="59.804" height="59.803" fill="none"/>
    </clipPath>
    <clipPath id="clip-path-2">
      <path id="Path_287" data-name="Path 287" d="M44.184,32.5c-2.2.024-4.62-.052-6.714.718a7.021,7.021,0,0,0-4.1,3.97c-.932,2.316-.3,4.8.353,7.106a28.264,28.264,0,0,0,2.788,6.77,8.839,8.839,0,0,0,2,2.573,5.975,5.975,0,0,0,2.938,1.013c1.965.256,4.574.288,6.289-.851a8.266,8.266,0,0,0,2.284-2.835,25.071,25.071,0,0,0,1.729-3.642A35.812,35.812,0,0,0,53,43.382a12.9,12.9,0,0,0,.545-4.456,7.064,7.064,0,0,0-2.93-4.879A10.591,10.591,0,0,0,44.451,32.5h-.267" transform="translate(-32.9 -32.501)" fill="none"/>
    </clipPath>
  </defs>
  <g id="Group_216" data-name="Group 216" transform="translate(0 0)">
    <g id="Group_215" data-name="Group 215" clip-path="url(#clip-path)">
      <path id="Path_259" data-name="Path 259" d="M59.8,29.9A29.9,29.9,0,1,1,29.9,0,29.9,29.9,0,0,1,59.8,29.9" transform="translate(0 0)" fill="#35208a"/>
      <path id="Path_260" data-name="Path 260" d="M55.054,32.277c-.164-.542-.395-1.056-.528-1.608-.154-.637-.237-1.289-.341-1.936a7.714,7.714,0,0,0-1.063-3.158,5.877,5.877,0,0,0-5-2.584c-.626.031-.9-.023-1.229-.6a4.169,4.169,0,0,0-3.33-2.35,5.456,5.456,0,0,0-3.191.7,3.582,3.582,0,0,1-1.318.591,5.116,5.116,0,0,1-1.992-.5c-1.87-.645-3.675-.8-5.245.558a12.443,12.443,0,0,1-1.229,1.1,6.044,6.044,0,0,1-1.678.659,8,8,0,0,0-2.741,1.3,5.706,5.706,0,0,0-2.341,5.291,4.668,4.668,0,0,0,.431,1.416c.133.268.321.485.469.739.277.48.088.765-.08,1.213A15.834,15.834,0,0,0,23.581,37.2a6.231,6.231,0,0,0,2.407,5.866,6.4,6.4,0,0,0,2.848,6.786,7.38,7.38,0,0,0,1.869.742,2.445,2.445,0,0,1,1.406.871c.269.354.495.736.782,1.079a3.243,3.243,0,0,0,1.252,1c.72.283,1.528-.061,2.175.4.509.366.837.928,1.306,1.337a3.132,3.132,0,0,0,1.764.71,3.356,3.356,0,0,0,1.71-.246c.182-.083.344-.221.527-.295.551-.224.546-.1.963.011A1.809,1.809,0,0,0,43.7,55.4c1.559-.58,1.9-2.5,3.224-3.385.535-.357,1.129-.621,1.633-1.026.691-.554.828-1.4,1.425-2s1.458-.922,2.055-1.572a5.606,5.606,0,0,0,1.2-2.179,7.087,7.087,0,0,0,.216-2.711A6.157,6.157,0,0,1,53.884,39a10.972,10.972,0,0,0,1.352-3.334,7.587,7.587,0,0,0-.183-3.392" transform="translate(-9.544 -8.109)" fill="#fa8d61"/>
      <path id="Path_261" data-name="Path 261" d="M64.7,34.45a.266.266,0,0,0,0-.057.263.263,0,0,0-.011-.064,2.543,2.543,0,0,0-2.682-2.3,2.628,2.628,0,0,0-2.233,2.7,2.186,2.186,0,0,0,.726,1.682,2.336,2.336,0,0,0,1.768,1.023A2.853,2.853,0,0,0,64.7,34.45" transform="translate(-24.228 -12.979)" fill="#ffb07f"/>
      <path id="Path_262" data-name="Path 262" d="M35.288,32.043a2.54,2.54,0,0,0-2.777,2.292.286.286,0,0,0-.009.058.3.3,0,0,0,0,.056,2.865,2.865,0,0,0,2.345,2.983,2.152,2.152,0,0,0,1.769-.923,2.291,2.291,0,0,0,.813-1.773,2.642,2.642,0,0,0-2.14-2.693" transform="translate(-13.173 -12.979)" fill="#ffb07f"/>
      <path id="Path_263" data-name="Path 263" d="M64.4,35.209a1.62,1.62,0,0,0-.982-1.346,1.443,1.443,0,0,0-1.6.387,1.727,1.727,0,0,0-.159,2.03l.47.494a1.107,1.107,0,0,0,1.6-.014,1.85,1.85,0,0,0,.666-1.55" transform="translate(-24.883 -13.687)" fill="#ff9f63"/>
      <path id="Path_264" data-name="Path 264" d="M34.113,35.209a1.62,1.62,0,0,1,.982-1.346,1.443,1.443,0,0,1,1.6.387,1.727,1.727,0,0,1,.159,2.03l-.47.494a1.107,1.107,0,0,1-1.6-.014,1.85,1.85,0,0,1-.666-1.55" transform="translate(-13.824 -13.687)" fill="#ff9f63"/>
      <path id="Path_265" data-name="Path 265" d="M53.542,38.925a7.06,7.06,0,0,0-2.93-4.879A10.854,10.854,0,0,0,44.184,32.5a20.344,20.344,0,0,0-6.714.718,7.024,7.024,0,0,0-4.1,3.969c-.932,2.316-.3,4.8.353,7.107a28.284,28.284,0,0,0,2.788,6.77,8.833,8.833,0,0,0,2,2.573,5.966,5.966,0,0,0,2.938,1.014c1.964.256,4.573.288,6.289-.851a8.266,8.266,0,0,0,2.284-2.835,25.039,25.039,0,0,0,1.729-3.642A35.725,35.725,0,0,0,53,43.381a12.885,12.885,0,0,0,.545-4.456" transform="translate(-13.335 -13.173)" fill="#ffb07f"/>
      <path id="Path_266" data-name="Path 266" d="M51.4,62.645a10.382,10.382,0,0,0,.568-2.1,6.073,6.073,0,0,0-.338-3.714A3.081,3.081,0,0,0,49.1,55.393a25.953,25.953,0,0,0-2.973-.086c-2.05.024-4.452.409-5.249,2.574a5.2,5.2,0,0,0,.076,2.94,4.92,4.92,0,0,0,.715,2.06A4.777,4.777,0,0,0,44.6,63.895c1.965.256,4.573.288,6.289-.851a4.293,4.293,0,0,0,.508-.4" transform="translate(-16.488 -22.415)" fill="#ffc9a8"/>
      <path id="Path_267" data-name="Path 267" d="M37.919,49.683a1.093,1.093,0,1,1,1.093-1.093,1.105,1.105,0,0,1-1.093,1.093" transform="translate(-14.926 -19.252)" fill="#35208a"/>
      <path id="Path_268" data-name="Path 268" d="M61.151,49.683a1.093,1.093,0,1,1,1.093-1.093,1.105,1.105,0,0,1-1.093,1.093" transform="translate(-24.343 -19.252)" fill="#35208a"/>
      <path id="Path_269" data-name="Path 269" d="M49.756,59.986a8.319,8.319,0,0,0,1.28-.549c.491-.336.627-.959.092-1.311a.373.373,0,0,0-.443.058l-.065.056a.252.252,0,0,0-.039.3c.125.227.3.177-.059.341-.048.022-.1.042-.147.061a1.188,1.188,0,0,0-.863-.14c-.369.066-1,.349-.972.8a.35.35,0,0,0,.009.056,1.464,1.464,0,0,1-.492.014.376.376,0,0,0,.011-.07c.029-.45-.6-.733-.972-.8a1.163,1.163,0,0,0-.906.168.8.8,0,0,1-.379-.273.935.935,0,0,0-.008-.255c-.018-.045-.04-.123-.092-.145l-.03-.013a.276.276,0,0,0-.362.095c-.4.57.127,1.089.661,1.27a9.256,9.256,0,0,0,2.193.778,7.233,7.233,0,0,1,.062.753,3,3,0,0,0,.031.778c-.049,0-.1,0-.147,0A5.1,5.1,0,0,1,45.3,60.786c-.125-.1-.29.118-.169.219,1.684,1.406,4.59,1.921,6.012-.162.085-.125-.1-.263-.206-.159a3.711,3.711,0,0,1-2.477,1.269,1.961,1.961,0,0,0,.063-.843,6.781,6.781,0,0,0-.068-.687l.062,0a4.329,4.329,0,0,0,1.239-.433" transform="translate(-18.276 -23.54)" fill="#35208a"/>
      <path id="Path_270" data-name="Path 270" d="M60.632,35.831a2.555,2.555,0,0,1,.592,1.966c-.008.151.214.171.256.034a2.133,2.133,0,0,0-.7-2.144.1.1,0,0,0-.144.144" transform="translate(-24.565 -14.454)" fill="#35208a"/>
      <path id="Path_271" data-name="Path 271" d="M62.843,37.578a4.1,4.1,0,0,1,.2.845c.014.268-.085.535-.052.794.01.075.106.141.168.069a1.665,1.665,0,0,0-.157-1.8c-.062-.076-.18.006-.158.092" transform="translate(-25.471 -15.182)" fill="#35208a"/>
      <path id="Path_272" data-name="Path 272" d="M41.366,34.477c-.576.034-.746,1.009-.465,1.4a.129.129,0,0,0,.234-.1,1.153,1.153,0,0,1-.046-.672,3.563,3.563,0,0,1,.318-.558.048.048,0,0,0-.041-.071" transform="translate(-16.524 -13.975)" fill="#35208a"/>
      <path id="Path_273" data-name="Path 273" d="M42.5,35.589c-.274.109-.256.6-.216.837a1.307,1.307,0,0,0,.6.933.117.117,0,0,0,.141-.183,1.562,1.562,0,0,1-.475-.825c-.044-.242.081-.53-.012-.746a.036.036,0,0,0-.041-.017" transform="translate(-17.131 -14.425)" fill="#35208a"/>
      <path id="Path_274" data-name="Path 274" d="M71.519,41.857c.075.593.395,1.095.429,1.717a4.109,4.109,0,0,1-.478,2.059.132.132,0,0,0,.228.134,3.687,3.687,0,0,0,.532-2.092,2.567,2.567,0,0,0-.638-1.848c-.024-.02-.078-.011-.073.03" transform="translate(-28.962 -16.95)" fill="#35208a"/>
      <path id="Path_275" data-name="Path 275" d="M73.3,45.789a7.091,7.091,0,0,0-.352,1.474,6.612,6.612,0,0,1-.892,1.655c-.081.122.1.259.2.155a4.426,4.426,0,0,0,.94-1.636,2.337,2.337,0,0,0,.152-1.648.028.028,0,0,0-.049,0" transform="translate(-29.198 -18.554)" fill="#35208a"/>
      <path id="Path_276" data-name="Path 276" d="M27.039,42.678c-1.443.947-1.594,3.349-.907,4.769.065.136.3.039.247-.1a4.408,4.408,0,0,1-.3-2.484,6.516,6.516,0,0,1,1-2.135c.017-.029-.018-.067-.047-.047" transform="translate(-10.432 -17.297)" fill="#35208a"/>
      <path id="Path_277" data-name="Path 277" d="M28.777,46.622a3.416,3.416,0,0,0,.71,3.592c.1.1.291-.033.2-.157a3.911,3.911,0,0,1-.7-3.378.109.109,0,0,0-.21-.058" transform="translate(-11.57 -18.867)" fill="#35208a"/>
      <path id="Path_278" data-name="Path 278" d="M48.862,27.827a3.522,3.522,0,0,0,.436-.6,3.176,3.176,0,0,1,.838-.783,3.511,3.511,0,0,1,1.961-.506c.142,0,.186-.237.035-.257A3.187,3.187,0,0,0,50,26.206c-.489.317-1.227.946-1.221,1.585a.052.052,0,0,0,.087.036" transform="translate(-19.77 -10.4)" fill="#35208a"/>
      <path id="Path_279" data-name="Path 279" d="M53.031,28.077c.488-.091.887-.41,1.408-.462a3.137,3.137,0,0,1,1.467.25c.144.056.241-.179.105-.249a2.8,2.8,0,0,0-1.609-.269,1.909,1.909,0,0,0-1.416.672.04.04,0,0,0,.045.058" transform="translate(-21.475 -11.076)" fill="#35208a"/>
      <path id="Path_280" data-name="Path 280" d="M35.978,27.882a1.844,1.844,0,0,1,2.35-1.439c.134.03.238-.172.1-.235a1.914,1.914,0,0,0-2.647,1.648.1.1,0,0,0,.2.027" transform="translate(-14.502 -10.563)" fill="#35208a"/>
      <path id="Path_281" data-name="Path 281" d="M48.109,73.378c.161.549,1.041.787,1.543.865a2.922,2.922,0,0,0,1.973-.361.134.134,0,0,0-.136-.232,3.041,3.041,0,0,1-1.951.28c-.51-.106-.9-.517-1.386-.6a.035.035,0,0,0-.043.043" transform="translate(-19.499 -29.725)" fill="#35208a"/>
      <path id="Path_282" data-name="Path 282" d="M53.675,74.9c1.179.034,2.844-.813,2.983-2.127.012-.112-.143-.131-.2-.053a4.65,4.65,0,0,1-1.05,1.352,2.906,2.906,0,0,1-1.738.563.133.133,0,0,0,0,.265" transform="translate(-21.704 -29.457)" fill="#35208a"/>
      <path id="Path_283" data-name="Path 283" d="M64.937,65.351c.186.2.64-.057.824-.164a1.522,1.522,0,0,0,.709-.749.117.117,0,0,0-.194-.113,3.532,3.532,0,0,1-.681.66,2.166,2.166,0,0,1-.424.185c-.106.036-.185.044-.238.145a.031.031,0,0,0,0,.036" transform="translate(-26.318 -26.06)" fill="#35208a"/>
      <path id="Path_284" data-name="Path 284" d="M35.206,64.857a1.968,1.968,0,0,0,.006,1.514,1.333,1.333,0,0,0,.979.769.132.132,0,0,0,.07-.255,1.167,1.167,0,0,1-.887-.975,3.742,3.742,0,0,0-.114-1.054.032.032,0,0,0-.055,0" transform="translate(-14.209 -26.282)" fill="#35208a"/>
    </g>
  </g>
  <g id="Group_218" data-name="Group 218" transform="translate(19.565 19.327)">
    <g id="Group_217" data-name="Group 217" clip-path="url(#clip-path-2)">
      <path id="Path_285" data-name="Path 285" d="M63.163,55.47a1.722,1.722,0,1,1,1.722-1.722,1.741,1.741,0,0,1-1.722,1.722" transform="translate(-44.468 -40.415)" fill="#e0435b"/>
      <path id="Path_286" data-name="Path 286" d="M34.825,55.47a1.722,1.722,0,1,1,1.722-1.722,1.741,1.741,0,0,1-1.722,1.722" transform="translate(-32.982 -40.415)" fill="#e0435b"/>
    </g>
  </g>
  <g id="Group_220" data-name="Group 220" transform="translate(0 0)">
    <g id="Group_219" data-name="Group 219" clip-path="url(#clip-path)">
      <path id="Path_288" data-name="Path 288" d="M23.042,67.526a.083.083,0,0,0-.029-.07c-.177-.335-.818-.4-1.139-.463-.524-.1-1.056-.167-1.587-.236-.087-.011-.174-.026-.26-.036-.035,0-.1-.034-.09-.018a1.659,1.659,0,0,1-.161-.368c-.219-.512-.431-1.028-.655-1.538-.114-.259-.228-.517-.351-.771-.076-.157-.162-.451-.337-.527-.387-.169-.657.787-.76,1.017-.246.551-.477,1.109-.716,1.663-.05.116-.134.451-.239.53a2.617,2.617,0,0,1-.5.026c-.236.019-.472.037-.707.059a6.221,6.221,0,0,0-1.2.19c-.233.069-.651.181-.615.5.03.266.438.517.621.663a7.871,7.871,0,0,0,.995.673,4.723,4.723,0,0,1,.5.266c.187.142.1.29.046.481-.107.4-.215.806-.313,1.212-.08.33-.157.662-.208,1a1.338,1.338,0,0,0-.017.7c.243.517,1.176-.388,1.4-.561q.424-.326.83-.675c.133-.114.264-.23.393-.348.073-.067.257-.321.351-.336.152-.026.561.47.684.576.279.241.567.472.859.7a2.846,2.846,0,0,0,1.359.768c.458.041.24-.653.179-.927-.145-.652-.357-1.29-.551-1.93-.042-.137-.1-.279-.124-.42s-.027-.144.1-.222c.253-.153.561-.247.827-.381.426-.215,1.279-.6,1.4-1.135a.092.092,0,0,0,.01-.064" transform="translate(-5.55 -25.73)" fill="#fff896"/>
      <path id="Path_289" data-name="Path 289" d="M86.419,40.55c-.721-.063-1.456-.055-2.186-.047q.31-.305.617-.613a4.482,4.482,0,0,0,.894-1.039.2.2,0,0,0-.275-.275,4.51,4.51,0,0,0-1.056.877c-.213.2-.424.41-.635.617,0-.3,0-.593,0-.89a4.492,4.492,0,0,0-.1-1.369.2.2,0,0,0-.388,0,4.53,4.53,0,0,0-.127,1.369c-.006.295-.01.59-.012.884q-.312-.317-.627-.631a4.467,4.467,0,0,0-1.039-.894.2.2,0,0,0-.275.275,4.51,4.51,0,0,0,.877,1.056c.2.213.41.424.616.635-.3,0-.593,0-.89,0a4.491,4.491,0,0,0-1.369.1.2.2,0,0,0,0,.388,4.53,4.53,0,0,0,1.369.127c.288.006.577.01.865.012-.533.5-1.069,1.008-1.544,1.556a.3.3,0,0,0,.424.424c.549-.461,1.059-.981,1.565-1.5-.021.725-.042,1.455.008,2.171a.3.3,0,0,0,.6,0c.062-.714.055-1.442.047-2.166.5.527,1,1.059,1.541,1.529a.3.3,0,0,0,.425-.424c-.461-.549-.981-1.059-1.5-1.565.726.021,1.455.042,2.172-.008a.3.3,0,0,0,0-.6" transform="translate(-32.549 -15.268)" fill="#fff"/>
      <path id="Path_290" data-name="Path 290" d="M53.572,7l-.023-.05a.623.623,0,0,0-1.076,0L52.451,7a.649.649,0,1,0,1.121,0" transform="translate(-21.224 -2.691)" fill="#fff"/>
      <path id="Path_291" data-name="Path 291" d="M67.586,18.081a.093.093,0,0,1-.01-.017l.08.19a.174.174,0,0,1-.008-.03c.01.07.019.14.028.211a.123.123,0,0,1,0-.021.8.8,0,0,0-.231-.557.811.811,0,0,0-.451-.216.752.752,0,0,0-.5.093l-.159.123a.787.787,0,0,0-.2.347.894.894,0,0,0-.007.492.8.8,0,0,0,.368.478.771.771,0,0,0,.712.04.761.761,0,0,0,.423-.423.771.771,0,0,0-.04-.712" transform="translate(-26.789 -7.147)" fill="#fff"/>
      <path id="Path_292" data-name="Path 292" d="M85.143,24.417a.763.763,0,0,0,.522-.216.739.739,0,0,0,0-1.044.737.737,0,0,0-1.044,0,.737.737,0,0,0,0,1.044.768.768,0,0,0,.522.216" transform="translate(-34.211 -9.299)" fill="#fff"/>
      <path id="Path_293" data-name="Path 293" d="M81.774,59.542a.788.788,0,0,0,.538-.223.761.761,0,0,0-.538-1.3.786.786,0,0,0-.539.223.761.761,0,0,0,.539,1.3" transform="translate(-32.837 -23.517)" fill="#fff"/>
      <path id="Path_294" data-name="Path 294" d="M84.35,76.826a.754.754,0,0,0,.517-.214.731.731,0,0,0,0-1.033.731.731,0,0,0-1.034,0,.731.731,0,0,0,0,1.033.759.759,0,0,0,.517.214" transform="translate(-33.893 -30.548)" fill="#fff"/>
      <path id="Path_295" data-name="Path 295" d="M67.847,79.871a.067.067,0,0,1,.018-.006l-.188.026.1-.014a.524.524,0,0,0,.263-.084l.026-.014-.165.07.018-.005-.182.024h.01a.827.827,0,0,0,.343-.093.668.668,0,0,0,.278-.324.691.691,0,0,0-.14-.742.742.742,0,0,0-1.252.3.724.724,0,0,0,.036.459.675.675,0,0,0,.288.337.682.682,0,0,0,.543.071" transform="translate(-27.14 -31.808)" fill="#fff"/>
      <path id="Path_296" data-name="Path 296" d="M57.855,93.059,57.833,93a.71.71,0,0,0-.309-.4.688.688,0,0,0-.428-.08.671.671,0,0,0-.582.659c0,.021,0,.041,0,.061a.682.682,0,0,0,.774.671.685.685,0,0,0,.568-.852" transform="translate(-22.906 -37.499)" fill="#fff"/>
      <path id="Path_297" data-name="Path 297" d="M40.73,86.4a.737.737,0,0,0,.5-.209.713.713,0,0,0,0-1.007.712.712,0,0,0-1.007,0,.713.713,0,0,0,0,1.007.742.742,0,0,0,.5.209" transform="translate(-16.22 -34.443)" fill="#fff"/>
      <path id="Path_298" data-name="Path 298" d="M9.308,62.746a.708.708,0,0,0,.257-.573.752.752,0,0,0-.209-.5l-.144-.111a.766.766,0,0,0-.749,0,.768.768,0,0,0-.183.159.805.805,0,0,0-.213.514.738.738,0,0,0,.213.514.729.729,0,0,0,.514.213l.193-.026a.72.72,0,0,0,.321-.187" transform="translate(-3.27 -24.912)" fill="#fff"/>
      <path id="Path_299" data-name="Path 299" d="M18.9,47.306a.764.764,0,0,0,0-1.528.764.764,0,0,0,0,1.528" transform="translate(-7.36 -18.555)" fill="#fff"/>
      <path id="Path_300" data-name="Path 300" d="M13.6,29.221a.811.811,0,0,0,.556-.23.787.787,0,0,0,0-1.112.787.787,0,0,0-1.112,0,.787.787,0,0,0,0,1.112.819.819,0,0,0,.556.23" transform="translate(-5.192 -11.207)" fill="#fff"/>
      <path id="Path_301" data-name="Path 301" d="M36.185,17.236a.769.769,0,0,0,.527-.218.746.746,0,0,0-.527-1.273.769.769,0,0,0-.527.218.746.746,0,0,0,.527,1.273" transform="translate(-14.365 -6.382)" fill="#fff"/>
      <path id="Path_302" data-name="Path 302" d="M22.694,16.74a1.669,1.669,0,0,0,.228-.17,1.174,1.174,0,0,0,.121-.143.772.772,0,0,0,.056-.9l.062.146,0-.014a.578.578,0,0,0-.41-.41l-.015,0,.146.062a.764.764,0,0,0-.836,0,1.3,1.3,0,0,0-.212.169,2.374,2.374,0,0,0-.172.226l-.077.18a.574.574,0,0,0-.013.3.72.72,0,0,0,.208.434.905.905,0,0,0,.334.194.76.76,0,0,0,.583-.076" transform="translate(-8.737 -6.155)" fill="#f7b9e7"/>
      <path id="Path_303" data-name="Path 303" d="M10.469,51.356a.635.635,0,0,0,0-1.268.635.635,0,0,0,0,1.268" transform="translate(-3.995 -20.302)" fill="#f7b9e7"/>
      <path id="Path_304" data-name="Path 304" d="M28.693,86.9l.021.121.08.191A.61.61,0,0,0,29,87.43a.76.76,0,0,0,.483.171.953.953,0,0,0,.4-.109.793.793,0,0,0,.366-.477l.021-.121a.834.834,0,0,0,0-.436.823.823,0,0,0-.211-.362.82.82,0,0,0-1.159,0,.82.82,0,0,0-.211.8" transform="translate(-11.618 -34.801)" fill="#f7b9e7"/>
      <path id="Path_305" data-name="Path 305" d="M93.308,59.148l-.009-.029a.769.769,0,0,0-.27-.391.713.713,0,0,0-.456-.161.778.778,0,0,0-.726.552l-.009.029a.762.762,0,1,0,1.469,0" transform="translate(-37.213 -23.739)" fill="#f7b9e7"/>
      <path id="Path_306" data-name="Path 306" d="M75.992,28.311a.769.769,0,0,0,.527-.218.745.745,0,0,0-.527-1.271.769.769,0,0,0-.527.218.745.745,0,0,0,.527,1.272" transform="translate(-30.499 -10.871)" fill="#f7b9e7"/>
    </g>
  </g>
</svg>
