<svg id="Group_225" data-name="Group 225" xmlns="http://www.w3.org/2000/svg" xmlns:xlink="http://www.w3.org/1999/xlink" width="59.804" height="59.803" viewBox="0 0 59.804 59.803">
  <defs>
    <clipPath id="clip-path">
      <rect id="Rectangle_98" data-name="Rectangle 98" width="59.804" height="59.803" fill="none"/>
    </clipPath>
  </defs>
  <g id="Group_224" data-name="Group 224" transform="translate(0 0)" clip-path="url(#clip-path)">
    <path id="Path_361" data-name="Path 361" d="M59.8,29.9A29.9,29.9,0,1,1,29.9,0,29.9,29.9,0,0,1,59.8,29.9" transform="translate(0 0)" fill="#35208a"/>
    <path id="Path_362" data-name="Path 362" d="M68.572,35.887a6.781,6.781,0,0,0-1.634-1.863,13.336,13.336,0,0,0-2.392-1.911,11.267,11.267,0,0,0-6.086-1.188A28.356,28.356,0,0,0,51.347,32a.079.079,0,0,0-.068.046l-.313.631a.1.1,0,0,0,.082.143c2.219.164,4.424.123,6.646.15,2.243.029,4.431.522,5.676,2.554.644,1.052,1.471,3.13,3.018,3.109,1.175-.015.551-1.424.092-2.216.54.4,1.271.9,1.822.708.532-.184.456-.822.269-1.238" transform="translate(-20.653 -12.532)" fill="#fff"/>
    <path id="Path_363" data-name="Path 363" d="M37.181,32.046A.077.077,0,0,0,37.113,32,28.379,28.379,0,0,0,30,30.924a11.262,11.262,0,0,0-6.086,1.188,13.381,13.381,0,0,0-2.392,1.911,6.8,6.8,0,0,0-1.634,1.864c-.167.371-.271.966.169,1.2.542.292,1.358-.262,1.923-.674-.455.79-1.086,2.212.078,2.219,1.56.009,2.378-2.04,3.03-3.111,1.207-1.981,3.334-2.508,5.524-2.552,2.272-.045,4.528.015,6.8-.153a.1.1,0,0,0,.081-.143l-.313-.63" transform="translate(-8.003 -12.532)" fill="#fff"/>
    <path id="Path_364" data-name="Path 364" d="M50.367,16.362h0a.087.087,0,0,0-.049,0,1.969,1.969,0,0,0-.978.925c.234-.847.4-1.946-.283-2.122-.482-.125-.864.592-1.044.922a3.9,3.9,0,0,0-.4,1.095c-.087-.618-.272-1.233-.767-1.314-.821-.134-.806,1.279-.841,1.771a10.309,10.309,0,0,0,1.808,6.607c.409.583.718.622,1.171.018a8.1,8.1,0,0,0,1.267-2.687,19.333,19.333,0,0,0,.565-3.5c.045-.5.283-1.588-.45-1.715" transform="translate(-18.637 -6.141)" fill="#fff"/>
    <path id="Path_365" data-name="Path 365" d="M80.291,58.483a.16.16,0,0,0-.153-.093H68.273c-.008,0-.013,0-.02,0h-.007a.17.17,0,0,0-.045.009.124.124,0,0,0-.082.08c-.823,2.592,3.717,3.78,6.085,3.78s6.908-1.187,6.086-3.78" transform="translate(-27.571 -23.667)" fill="#fa8d61"/>
    <path id="Path_366" data-name="Path 366" d="M68.094,57.585a.163.163,0,0,0-.109.125c-.332,1.72,4.273,1.479,5.439,1.507a25,25,0,0,0,4.609-.235c.686-.112,2.178-.261,2.373-.969.447-1.622-10.721-1.716-12.311-.429" transform="translate(-27.549 -22.982)" fill="#96cbeb"/>
    <path id="Path_367" data-name="Path 367" d="M80.427,51.928a31.736,31.736,0,0,0-3.29-4.825c-1.251-1.67-2.564-3.309-3.9-4.939a.32.32,0,0,0-.48,0,59.537,59.537,0,0,0-4.721,9.748c-.1.271.414.381.524.116a73.822,73.822,0,0,1,4.677-9.64h-.48c1.287,1.576,2.558,3.161,3.777,4.772s2.224,3.338,3.523,4.891c.119.141.453.056.366-.124" transform="translate(-27.573 -17.046)" fill="#fff"/>
    <path id="Path_368" data-name="Path 368" d="M77.942,53.243c-.265-3.665-1.151-7.291-1.465-10.956-.024-.275-.561-.277-.537,0,.313,3.658.937,7.321,1.538,10.956.038.23.482.246.464,0" transform="translate(-30.78 -17.056)" fill="#fff"/>
    <path id="Path_369" data-name="Path 369" d="M50.132,19.464c-.625.326-.7,1.118-.717,1.739A4.884,4.884,0,0,1,48.3,24.491a13.887,13.887,0,0,1-1.963,1.77,13.92,13.92,0,0,1-1.963-1.77,4.669,4.669,0,0,1-1.113-3.155,2.026,2.026,0,0,0-.629-1.81c-1.368-.912-2.065,1.492-2.079,2.406a4.938,4.938,0,0,0,1.828,3.858,6.7,6.7,0,0,0,3.82,1.187.362.362,0,0,0,.064.005l.073,0,.071,0a.351.351,0,0,0,.063-.005,6.777,6.777,0,0,0,3.735-1.125,4.928,4.928,0,0,0,1.914-3.92c-.01-.9-.63-3.18-1.993-2.468" transform="translate(-16.439 -7.832)" fill="#96cbeb"/>
    <path id="Path_370" data-name="Path 370" d="M51.748,29.37c-.268-.568-.872-.6-1.419-.524a.317.317,0,0,0-.071.011.283.283,0,0,0-.077.024,8.259,8.259,0,0,0-2.092,1.447c-.411.293-.78.67-1.161,1-.38-.334-.751-.711-1.161-1a8.2,8.2,0,0,0-2.092-1.447.3.3,0,0,0-.076-.024.317.317,0,0,0-.071-.011c-.529-.078-1.128-.055-1.4.489a1.372,1.372,0,0,0,.472,1.621,5.183,5.183,0,0,0,4.247.908.225.225,0,0,0,.086-.037.233.233,0,0,0,.086.037,5.175,5.175,0,0,0,4.247-.908,1.376,1.376,0,0,0,.487-1.586" transform="translate(-17.026 -11.679)" fill="#fa8d61"/>
    <path id="Path_371" data-name="Path 371" d="M11.845,58.483A.16.16,0,0,1,12,58.39H23.863a.171.171,0,0,1,.02,0h.007a.165.165,0,0,1,.045.009.124.124,0,0,1,.082.08c.823,2.592-3.717,3.78-6.085,3.78s-6.909-1.187-6.086-3.78" transform="translate(-4.761 -23.667)" fill="#fa8d61"/>
    <path id="Path_372" data-name="Path 372" d="M23.987,57.585a.163.163,0,0,1,.109.125c.332,1.72-4.273,1.479-5.439,1.507a25,25,0,0,1-4.609-.235c-.686-.112-2.178-.261-2.373-.969-.447-1.622,10.721-1.716,12.311-.429" transform="translate(-4.727 -22.982)" fill="#96cbeb"/>
    <path id="Path_373" data-name="Path 373" d="M11.678,51.928a31.732,31.732,0,0,1,3.29-4.825c1.252-1.67,2.565-3.309,3.9-4.939a.32.32,0,0,1,.48,0,59.633,59.633,0,0,1,4.721,9.748c.1.271-.414.381-.525.116a73.742,73.742,0,0,0-4.676-9.64h.48c-1.288,1.576-2.559,3.161-3.777,4.772s-2.225,3.338-3.523,4.891c-.118.141-.453.056-.366-.124" transform="translate(-4.728 -17.046)" fill="#fff"/>
    <path id="Path_374" data-name="Path 374" d="M21.26,53.243c.265-3.665,1.151-7.291,1.465-10.956.024-.275.561-.277.537,0-.313,3.658-.936,7.321-1.537,10.956-.038.23-.483.246-.465,0" transform="translate(-8.617 -17.056)" fill="#fff"/>
    <path id="Path_375" data-name="Path 375" d="M48.883,28.924a6.193,6.193,0,0,0-.043.645q-.007.473-.015.946c-.012.765-.01,1.53-.01,2.3q0,3.1.007,6.191c0,4.508.024,9.016.012,13.524,0,1.585-.089,3.189-.021,4.773a.857.857,0,0,0,1.713,0c.12-1.355.053-2.745.058-4.1q.012-3.151.007-6.3,0-6.715-.045-13.431c0-.891,0-1.782-.02-2.673q-.011-.524-.022-1.047c0-.136,0-.273-.008-.409,0-.087-.01-.169-.017-.256-.022-.255.011.106-.023-.152a.787.787,0,0,0-1.572,0" transform="translate(-19.775 -11.417)" fill="#fff"/>
    <path id="Path_376" data-name="Path 376" d="M51.42,76.854l-.012-.008-.007-.007a5.934,5.934,0,0,0-1.4-.688c-1.093-.459-.727-1.21-.88-2.106a1.984,1.984,0,0,0-1.842-1.463,3.517,3.517,0,0,0-2.882.59,1.516,1.516,0,0,0-.47.874,4.169,4.169,0,0,0-.021.766,1.628,1.628,0,0,1-.067.594,1.333,1.333,0,0,1-.9.78c-.771.306-1.76.694-1.949,1.623-.168.825.667,1.228,1.292,1.52a10.708,10.708,0,0,0,6.072.709c1.413-.221,5.181-1.263,3.067-3.183" transform="translate(-16.606 -29.391)" fill="#fff"/>
    <path id="Path_377" data-name="Path 377" d="M46.506,78.558a4.7,4.7,0,0,0,3.13.059.149.149,0,0,0-.079-.288,6.254,6.254,0,0,1-2.975-.048.143.143,0,0,0-.076.276" transform="translate(-18.81 -31.728)" fill="#35208a"/>
    <path id="Path_378" data-name="Path 378" d="M42.058,81.587c.9,1.534,3.564,1.672,5.114,1.646a9.225,9.225,0,0,0,3-.486,4.326,4.326,0,0,0,2.153-1.373c.059-.091-.054-.181-.139-.139a18.522,18.522,0,0,1-2.221,1.231,8.842,8.842,0,0,1-2.653.432c-1.721.048-3.833-.149-5.121-1.415a.087.087,0,0,0-.136.105" transform="translate(-17.042 -32.923)" fill="#35208a"/>
    <path id="Path_379" data-name="Path 379" d="M50.763,29.275a.322.322,0,0,0-.007-.034.391.391,0,0,0,0-.044c-.158-.852-.943-1.728-1.886-1.38a2.078,2.078,0,0,0-1.041,2.267,1.634,1.634,0,0,0,1.7,1.534c1.073-.127,1.32-1.463,1.235-2.343" transform="translate(-19.375 -11.243)" fill="#96cbeb"/>
    <path id="Path_380" data-name="Path 380" d="M48.534,19.959a10.713,10.713,0,0,0,.481,4.261c.045.118.248.115.239-.033-.042-.7-.228-1.4-.306-2.1s-.085-1.419-.153-2.127a.131.131,0,0,0-.261,0" transform="translate(-19.658 -8.039)" fill="#35208a"/>
    <path id="Path_381" data-name="Path 381" d="M51.2,19.787a11.812,11.812,0,0,0-.109,1.985c-.029.752-.126,1.509-.113,2.26,0,.147.237.191.266.036a14.523,14.523,0,0,0,.169-2.145,8.5,8.5,0,0,0-.048-2.136.087.087,0,0,0-.166,0" transform="translate(-20.661 -7.995)" fill="#35208a"/>
    <path id="Path_382" data-name="Path 382" d="M47.736,29.334a.883.883,0,0,0-.175.4c-.023.123-.061.317.082.381s.21-.1.224-.218a2.442,2.442,0,0,1,.114-.419c.039-.133-.15-.259-.244-.142" transform="translate(-19.269 -11.871)" fill="#35208a"/>
    <path id="Path_383" data-name="Path 383" d="M52.2,29.509a1.358,1.358,0,0,1,.165.456.158.158,0,0,0,.309-.042.789.789,0,0,0-.31-.578c-.1-.077-.22.068-.164.164" transform="translate(-21.152 -11.886)" fill="#35208a"/>
    <path id="Path_384" data-name="Path 384" d="M31.615,32.117a12.105,12.105,0,0,0-5.621.99c-1.06.453-2.975,1.45-2.683,2.9.2.973,1.686,1.6,2.16.454a.918.918,0,0,0-1.355-1.126c-.178.133,0,.436.176.3a.6.6,0,0,1,.8.177c.462.623-.476.993-.938.828-.833-.3-.491-1.421-.083-1.884a6.214,6.214,0,0,1,2.485-1.511c1.648-.613,3.412-.548,5.068-1.049a.039.039,0,0,0-.01-.076" transform="translate(-9.436 -13)" fill="#35208a"/>
    <path id="Path_385" data-name="Path 385" d="M63.282,32.193c.99.3,2.062.312,3.077.511a10.884,10.884,0,0,1,3,.985,5.449,5.449,0,0,1,1.308.893c.533.53,1.04,1.824-.064,2.122-1.4.376-.773-1.713-.023-1.1.172.141.421-.105.247-.246-.646-.524-1.4.016-1.422.794-.028,1.029,1.308,1.151,1.876.5,1.259-1.448-.99-2.9-2.094-3.422a11.993,11.993,0,0,0-5.894-1.11.039.039,0,0,0-.01.076" transform="translate(-25.639 -13)" fill="#35208a"/>
    <path id="Path_386" data-name="Path 386" d="M49.074,72.869a1.614,1.614,0,0,0,1.546.029.132.132,0,0,0-.066-.243c-.239,0-.469.089-.712.09a6.056,6.056,0,0,1-.709-.089c-.121-.013-.145.157-.058.213" transform="translate(-19.87 -29.449)" fill="#35208a"/>
    <path id="Path_387" data-name="Path 387" d="M28.094,15.667a.083.083,0,0,0-.029-.07c-.177-.334-.818-.4-1.139-.463-.524-.1-1.056-.167-1.587-.236-.087-.011-.174-.026-.26-.036-.035,0-.1-.034-.09-.018a1.629,1.629,0,0,1-.16-.368c-.22-.512-.432-1.028-.655-1.538-.113-.259-.228-.517-.351-.771-.076-.157-.162-.451-.337-.527-.387-.169-.657.787-.76,1.017-.246.551-.477,1.109-.716,1.663-.05.116-.134.451-.239.53a2.57,2.57,0,0,1-.5.026c-.236.019-.472.037-.707.059a6.221,6.221,0,0,0-1.2.19c-.233.069-.651.181-.615.5.03.266.438.517.621.663a7.872,7.872,0,0,0,.995.673,4.721,4.721,0,0,1,.5.266c.187.142.1.29.046.481-.107.4-.215.806-.313,1.212-.08.33-.157.662-.208,1a1.338,1.338,0,0,0-.017.7c.243.517,1.176-.388,1.4-.561q.424-.326.83-.675c.133-.114.264-.23.393-.348.073-.067.257-.321.351-.336.152-.026.561.47.684.576.279.241.567.472.859.7a2.848,2.848,0,0,0,1.359.768c.458.041.24-.653.179-.927-.145-.652-.357-1.29-.551-1.93-.042-.137-.1-.278-.125-.42s-.027-.144.1-.222c.253-.153.561-.247.827-.381.426-.215,1.279-.6,1.4-1.135a.091.091,0,0,0,.01-.064" transform="translate(-7.598 -4.71)" fill="#fff896"/>
    <path id="Path_388" data-name="Path 388" d="M72.039,75.74c-.721-.063-1.456-.055-2.186-.047q.31-.305.617-.613a4.482,4.482,0,0,0,.894-1.039.2.2,0,0,0-.275-.275,4.51,4.51,0,0,0-1.056.877q-.319.307-.635.617,0-.445,0-.89A4.491,4.491,0,0,0,69.3,73a.2.2,0,0,0-.387,0,4.511,4.511,0,0,0-.127,1.369c-.006.295-.01.59-.012.884q-.312-.317-.627-.631a4.482,4.482,0,0,0-1.039-.894.2.2,0,0,0-.275.275,4.5,4.5,0,0,0,.877,1.055c.2.213.41.424.616.635-.3,0-.593,0-.89,0a4.491,4.491,0,0,0-1.369.1.2.2,0,0,0,0,.388,4.53,4.53,0,0,0,1.369.127c.288.006.577.01.865.012-.532.5-1.069,1.008-1.544,1.556a.3.3,0,0,0,.425.424c.549-.461,1.058-.981,1.565-1.5-.021.725-.042,1.455.008,2.171a.3.3,0,0,0,.6,0c.062-.714.055-1.442.047-2.166.5.527,1,1.059,1.541,1.529a.3.3,0,0,0,.425-.424c-.461-.549-.981-1.059-1.5-1.565.726.021,1.455.042,2.172-.008a.3.3,0,0,0,0-.6" transform="translate(-26.72 -29.532)" fill="#fff"/>
    <path id="Path_389" data-name="Path 389" d="M58.7,49.491a.738.738,0,0,0,.737-.737.745.745,0,0,0-.216-.521.736.736,0,0,0-1.042,0,.737.737,0,0,0,0,1.042.766.766,0,0,0,.521.216" transform="translate(-23.495 -19.463)" fill="#fff"/>
    <path id="Path_390" data-name="Path 390" d="M72.376,11.79a.853.853,0,0,0,.583.007.671.671,0,0,0,.388-.3.654.654,0,0,0,.065-.5,1.024,1.024,0,0,0-.156-.325,1.142,1.142,0,0,0-.3-.259.765.765,0,0,0-.58-.076.726.726,0,0,0-.488.436.718.718,0,0,0,0,.58.565.565,0,0,0,.156.242.756.756,0,0,0,.332.193" transform="translate(-29.114 -4.181)" fill="#fff"/>
    <path id="Path_391" data-name="Path 391" d="M89.035,28.753l.018-.058a.664.664,0,1,0-1.28,0c.006.02.012.039.018.058a.657.657,0,0,0,.622.474.668.668,0,0,0,.622-.474" transform="translate(-35.566 -11.29)" fill="#fff"/>
    <path id="Path_392" data-name="Path 392" d="M89.373,42.192l.1.007c.782.059.783-1.276,0-1.216l-.1.008a.6.6,0,0,0,0,1.2" transform="translate(-35.99 -16.611)" fill="#fff"/>
    <path id="Path_393" data-name="Path 393" d="M27.118,73.8v-.063a.777.777,0,0,0-.221-.532.753.753,0,0,0-1.286.532V73.8a.775.775,0,0,0,.221.532.753.753,0,0,0,1.286-.532" transform="translate(-10.381 -29.583)" fill="#fff"/>
    <path id="Path_394" data-name="Path 394" d="M8.168,42.4a.786.786,0,0,0,.541-.224.764.764,0,0,0-.541-1.3.788.788,0,0,0-.541.224A.764.764,0,0,0,8.168,42.4" transform="translate(-3.001 -16.565)" fill="#fff"/>
    <path id="Path_395" data-name="Path 395" d="M56.042,11.382a.4.4,0,0,1,.046-.012.757.757,0,0,0,.453-.351l-.117.15a.033.033,0,0,1,.01-.01l-.147.114.006,0,.145-.113a.539.539,0,0,0,.149-.231.665.665,0,0,0,.036-.469.931.931,0,0,0-.194-.333.744.744,0,0,0-.441-.215.788.788,0,0,0-.779.39.75.75,0,0,0-.1.372.731.731,0,0,0,.158.447.746.746,0,0,0,.775.265" transform="translate(-22.337 -4.014)" fill="#fff"/>
    <path id="Path_396" data-name="Path 396" d="M60.733,93.382l.011-.01-.162.125a.127.127,0,0,1,.025-.014l-.191.081a.094.094,0,0,1,.026-.007.812.812,0,0,0,.48-.37.8.8,0,0,0-.288-1.1.83.83,0,0,0-.62-.081.937.937,0,0,0-.413.243.824.824,0,0,0-.235.567.8.8,0,0,0,.8.8l.213-.029a.793.793,0,0,0,.353-.206" transform="translate(-24.062 -37.282)" fill="#fff"/>
    <path id="Path_397" data-name="Path 397" d="M85.719,73.42l.1.1a.716.716,0,0,0,.426.2.7.7,0,0,0,.473-.088.8.8,0,0,0,.266-.266l.075-.177a.561.561,0,0,0,.014-.3.715.715,0,0,0-.2-.426l-.1-.1a.769.769,0,0,0-.522-.216.738.738,0,0,0-.522,1.26" transform="translate(-34.659 -29.249)" fill="#fff"/>
    <path id="Path_398" data-name="Path 398" d="M34.441,41.642l.013-.024a.69.69,0,1,0-1.191,0l.014.024a.68.68,0,0,0,1.164,0" transform="translate(-13.445 -16.449)" fill="#fff"/>
    <path id="Path_399" data-name="Path 399" d="M71.733,23.845l-.02.084c-.268,1.171,1.672,1.178,1.4,0-.007-.028-.012-.056-.019-.084a.712.712,0,0,0-1.363,0" transform="translate(-29.057 -9.46)" fill="#f7b9e7"/>
    <path id="Path_400" data-name="Path 400" d="M41.53,55.705l.024.012a.793.793,0,0,0,.487.091.717.717,0,0,0,.439-.211l.015-.017a.768.768,0,0,0,.217-.523.82.82,0,0,0-.217-.524l-.015-.017-.155-.12a.563.563,0,0,0-.284-.09.78.78,0,0,0-.487.09l-.024.012a.755.755,0,0,0,0,1.295" transform="translate(-16.685 -22.009)" fill="#f7b9e7"/>
    <path id="Path_401" data-name="Path 401" d="M15.931,73.364a.293.293,0,0,1,.028-.048l-.125.161q.09-.109.173-.223l-.118.151a.379.379,0,0,1,.031-.031l-.143.111a.225.225,0,0,1,.037-.021l-.161.068.015,0a.661.661,0,0,0,.428-.382.674.674,0,0,0-.033-.588.822.822,0,0,0-.428-.373.865.865,0,0,0-.549-.046,1.15,1.15,0,0,0-.271.109.823.823,0,0,0-.165,1.282.844.844,0,0,0,.577.238.806.806,0,0,0,.7-.4" transform="translate(-5.843 -29.23)" fill="#f7b9e7"/>
    <path id="Path_402" data-name="Path 402" d="M39.026,91.225a.862.862,0,0,0,.591-.245.836.836,0,0,0,0-1.182.836.836,0,0,0-1.182,0,.836.836,0,0,0,0,1.182.867.867,0,0,0,.591.245" transform="translate(-15.479 -36.299)" fill="#f7b9e7"/>
    <path id="Path_403" data-name="Path 403" d="M67.308,69.425l0-.032a.86.86,0,0,0-.236-.569.8.8,0,0,0-1.138,0,.9.9,0,0,0-.236.569c0,.011,0,.021,0,.032A.812.812,0,0,0,65.93,70a.808.808,0,0,0,1.141,0,.792.792,0,0,0,.237-.571" transform="translate(-26.627 -27.801)" fill="#f7b9e7"/>
    <path id="Path_404" data-name="Path 404" d="M15.924,24.877a.876.876,0,0,0,.6-.249.849.849,0,0,0,0-1.2.85.85,0,0,0-1.2,0,.851.851,0,0,0,0,1.2.883.883,0,0,0,.6.249" transform="translate(-6.11 -9.395)" fill="#f7b9e7"/>
    <path id="Path_405" data-name="Path 405" d="M38.842,9.688V9.53a.834.834,0,0,0-.237-.571.809.809,0,0,0-1.144,0,.84.84,0,0,0-.237.571v.158a.834.834,0,0,0,.237.571.809.809,0,0,0,1.144,0,.84.84,0,0,0,.237-.571" transform="translate(-15.088 -3.535)" fill="#f7b9e7"/>
  </g>
</svg>
