<svg xmlns="http://www.w3.org/2000/svg" width="10.25" height="9.781" viewBox="0 0 10.25 9.781">
  <defs>
    <style>
      .cls-1 {
        fill: #585858;
        fill-rule: evenodd;
      }
    </style>
  </defs>
  <path id="INSTA" class="cls-1" d="M501.01,294.79h2.195v6.6H501.01v-6.6Zm1.112-3.181a1.143,1.143,0,1,0-.029,2.28h0.014A1.144,1.144,0,1,0,502.122,291.609Zm6.471,3.027a2.18,2.18,0,0,0-1.979,1.089V294.79h-2.195v6.6h2.195V297.7a1.5,1.5,0,0,1,.073-0.535,1.2,1.2,0,0,1,1.126-.8c0.794,0,1.112.6,1.112,1.492v3.53h2.195v-3.783C511.12,295.579,510.037,294.636,508.593,294.636Z" transform="translate(-500.875 -291.594)"/>
</svg>
