<svg id="NBSP" xmlns="http://www.w3.org/2000/svg" width="162.438" height="162.438" viewBox="0 0 162.438 162.438">
  <defs>
    <style>
      .cls-1 {
        fill: #fff;
        stroke: #acacac;
        stroke-width: 2px;
      }

      .cls-2 {
        fill: #010101;
        fill-rule: evenodd;
        opacity: 0.9;
      }
    </style>
  </defs>
  <circle id="Ellipse_1_copy" data-name="Ellipse 1 copy" class="cls-1" cx="81.219" cy="81.219" r="80.219"/>
  <path id="NBSP-2" data-name="NBSP" class="cls-2" d="M39.273,113.015V95.338l12.914,17.677h7.534V82.488H51.855V99.293L39.5,82.488h-8.09v30.527h7.867Zm47.19,0a8.793,8.793,0,0,0,6.593-2.38,8.129,8.129,0,0,0,2.324-5.911,7.936,7.936,0,0,0-1.638-4.973,6.143,6.143,0,0,0-4.078-2.492,6.261,6.261,0,0,0,3.654-2.369,7.309,7.309,0,0,0,1.459-4.626,7.509,7.509,0,0,0-2.29-5.464q-2.29-2.313-6.581-2.313H68.7v30.527H86.463Zm-9.9-12.046h7.911a3.247,3.247,0,0,1,2.235.716,2.6,2.6,0,0,1-.011,3.776,3.324,3.324,0,0,1-2.224.693H76.563v-5.185Zm0-11.621h7.643A2.892,2.892,0,0,1,86.15,90a2.391,2.391,0,0,1,.022,3.475,2.905,2.905,0,0,1-1.967.637H76.563v-4.76Zm37.893,24.226q5.98,0,9.293-2.751a9.11,9.11,0,0,0,3.312-7.388,8,8,0,0,0-1.761-5.3,9.487,9.487,0,0,0-4.235-2.972,40.627,40.627,0,0,0-5.018-1.39,39.118,39.118,0,0,1-4.335-1.13q-1.793-.6-1.792-1.616,0-2.124,3.293-2.125a13.277,13.277,0,0,1,8.9,3.232l4.218-5.9a18.235,18.235,0,0,0-12.293-4.192q-5.576,0-8.782,2.8a9.177,9.177,0,0,0-1.948,11.612,7.586,7.586,0,0,0,3.158,2.893,27.6,27.6,0,0,0,4.1,1.549,33.207,33.207,0,0,0,4.124.949,12.209,12.209,0,0,1,3.215.9,1.788,1.788,0,0,1,1.288,1.526,1.985,1.985,0,0,1-1.154,1.8,6.539,6.539,0,0,1-3.169.644,13.1,13.1,0,0,1-9.719-4.069L101,108.78q5.153,4.772,13.461,4.794h0Zm27.815-.559V102.757h7.364a10.272,10.272,0,0,0,7.719-2.894,10.689,10.689,0,0,0-.006-14.47,10.29,10.29,0,0,0-7.737-2.905H134.4v30.527h7.867Zm0-23.667h6.235a4.128,4.128,0,0,1,2.715.894,2.952,2.952,0,0,1,1.084,2.4,2.9,2.9,0,0,1-1.073,2.38,4.184,4.184,0,0,1-2.726.871h-6.235V89.348Z" transform="translate(-11.281 -15.281)"/>
</svg>
