<svg xmlns="http://www.w3.org/2000/svg" width="23" height="14" viewBox="0 0 23 14">
  <defs>
    <style>
      .cls-1 {
        fill: #828a90;
        fill-rule: evenodd;
        opacity: 0.7;
      }
    </style>
  </defs>
  <path class="cls-1" d="M650.684,453.886l-10.775,7.895a0.7,0.7,0,0,1-.807,0l-10.775-7.895a1.817,1.817,0,0,0-.32,1.021v10.184a1.97,1.97,0,0,0,2.021,1.91h18.954a1.971,1.971,0,0,0,2.022-1.91V454.907A1.817,1.817,0,0,0,650.684,453.886Zm-1.7-.888H630.028a2.07,2.07,0,0,0-.592.093l10.069,7.386,10.07-7.386A2.072,2.072,0,0,0,648.982,453Z" transform="translate(-628 -453)"/>
</svg>
