<svg id="Group_245" data-name="Group 245" xmlns="http://www.w3.org/2000/svg" xmlns:xlink="http://www.w3.org/1999/xlink" width="59.804" height="59.803" viewBox="0 0 59.804 59.803">
  <defs>
    <clipPath id="clip-path">
      <rect id="Rectangle_105" data-name="Rectangle 105" width="59.804" height="59.803" fill="none"/>
    </clipPath>
  </defs>
  <g id="Group_244" data-name="Group 244" transform="translate(0 0)" clip-path="url(#clip-path)">
    <path id="Path_591" data-name="Path 591" d="M59.8,29.9A29.9,29.9,0,1,1,29.9,0,29.9,29.9,0,0,1,59.8,29.9" transform="translate(0 0)" fill="#35208a"/>
    <path id="Path_592" data-name="Path 592" d="M58.436,32.752a.239.239,0,0,0-.034-.044l-1.507-1.9a.207.207,0,0,0-.207-.055l-3.177.915a.214.214,0,0,0,.056.419c.913-.007,1.3.852,2.015,1.23a2.563,2.563,0,0,0,1.489.223c.329-.036,1.752-.123,1.365-.784" transform="translate(-21.628 -12.46)" fill="#fa8d61"/>
    <path id="Path_593" data-name="Path 593" d="M48.621,17.883a2.566,2.566,0,0,1-1.77-1.456.271.271,0,0,0-.294-.166l-.015,0h0a.362.362,0,0,0-.063.011,1.848,1.848,0,0,1-2.3-1.207.335.335,0,0,0-.486-.2c-1.037.715-2.814,1.839-3.845.473a.336.336,0,0,0-.571,0,4.025,4.025,0,0,1-.91,1.125c-.47.35-1.367.54-1.61-.233a.334.334,0,0,0-.553-.146,7.739,7.739,0,0,0-1.581,6.833.339.339,0,0,0,.407.231l12.655-2.149a.325.325,0,0,0,.231-.231,14.116,14.116,0,0,1,.9-2.4.336.336,0,0,0-.2-.486" transform="translate(-13.941 -6.007)" fill="#fa8d61"/>
    <path id="Path_594" data-name="Path 594" d="M54.923,29.429a10.282,10.282,0,0,0-3.678-2.544,1.55,1.55,0,0,1-.818-.469c-.2-.245-.377-.521-.577-.771A14.839,14.839,0,0,0,47.843,23.6a12.88,12.88,0,0,0-18.61,2.342,15.109,15.109,0,0,0-2.4,4.822A15.656,15.656,0,0,0,26.4,33.54,3.461,3.461,0,0,1,26.03,35.4c-.508.608-1.474.4-2.037.929a1.212,1.212,0,0,0-.109,1.562c.987,1.506,3.673,1,5.127.419-.076.946-1.986,1.325-1.555,2.5.325.883,1.745.2,2.323.054a8.3,8.3,0,0,0,3.085-1.293A7.061,7.061,0,0,0,35.1,36.421c.48-1.246.535-2.577.956-3.827a6.028,6.028,0,0,1,2.14-2.832,11.96,11.96,0,0,1,6.927-2.15,12.138,12.138,0,0,1,2.02.124,1.645,1.645,0,0,1,1.34.758,3.692,3.692,0,0,1,.147,1.4,7.558,7.558,0,0,0,1.642,4.156.164.164,0,0,0,.256-.033l.624-1.1a.875.875,0,0,0,.938.147c.617-.206.833-.73,1.151-1.242a1.666,1.666,0,0,1,1.329-.8.955.955,0,0,0,.608-.281c.346-.423.02-.949-.254-1.3" transform="translate(-9.587 -8.372)" fill="#96cbeb"/>
    <path id="Path_595" data-name="Path 595" d="M35.009,38.287a4.527,4.527,0,0,0-3.52-2.069,5.1,5.1,0,0,0-4.964,2.436c-.05.391-.088.783-.121,1.176a3.458,3.458,0,0,1-.374,1.858c-.509.608-1.474.4-2.038.929a1.212,1.212,0,0,0-.108,1.562c.987,1.506,3.672,1,5.127.419-.076.946-1.985,1.325-1.554,2.5.325.883,1.745.2,2.323.054a8.313,8.313,0,0,0,3.085-1.293A7.061,7.061,0,0,0,35.1,42.713a13.9,13.9,0,0,0,.583-2.336,4.911,4.911,0,0,0-.672-2.089" transform="translate(-9.586 -14.663)" fill="#fff"/>
    <path id="Path_596" data-name="Path 596" d="M31.981,45.008a1.11,1.11,0,1,1,1.11-1.11,1.123,1.123,0,0,1-1.11,1.11" transform="translate(-12.512 -17.343)" fill="#35208a"/>
    <path id="Path_597" data-name="Path 597" d="M37.433,45.954a1.786,1.786,0,1,1,1.786-1.786,1.807,1.807,0,0,1-1.786,1.786" transform="translate(-14.448 -17.178)" fill="#96cbeb"/>
    <path id="Path_598" data-name="Path 598" d="M45.936,35.659c-.287-.4-.695-1.371-1.3-1.346-.585.023-1.285.9-1.583,1.317-.516.718-1.2,2.509-.272,3.164.836.588,1.3-.824,1.67-1.3.426-.545.987-.177,1.5-.487s.233-.96-.017-1.346" transform="translate(-17.155 -13.908)" fill="#fa8d61"/>
    <path id="Path_599" data-name="Path 599" d="M67.31,34.906a5.865,5.865,0,0,0,.53,2.328,4.278,4.278,0,0,0,.544,1.187.81.81,0,0,0,.4.278c-.537-1.03-.816-2.876-1.262-3.849-.048-.105-.2-.047-.208.056" transform="translate(-27.282 -14.103)" fill="#35208a"/>
    <path id="Path_600" data-name="Path 600" d="M68.879,34.484c.112.494.833.885,1.195,1.215a14.326,14.326,0,0,0,1.42,1.311.154.154,0,0,0,.21-.209,8.109,8.109,0,0,0-1.447-1.425c-.35-.307-.851-.928-1.345-.934a.034.034,0,0,0-.032.042" transform="translate(-27.918 -13.96)" fill="#35208a"/>
    <path id="Path_601" data-name="Path 601" d="M43.9,37.864c.31-.252.437-.752.668-1.082a4.979,4.979,0,0,1,1.147-1.148c.178-.131.01-.432-.176-.3A4.75,4.75,0,0,0,44.38,36.5c-.242.347-.64.9-.539,1.349a.036.036,0,0,0,.06.016" transform="translate(-17.763 -14.308)" fill="#35208a"/>
    <path id="Path_602" data-name="Path 602" d="M44.839,38.565a6.866,6.866,0,0,0,.863-.726c.328-.247.715-.4,1.041-.647a.155.155,0,0,0-.119-.282,3.23,3.23,0,0,0-1.086.648,2.358,2.358,0,0,0-.828.907c-.026.077.066.132.13.1" transform="translate(-18.12 -14.958)" fill="#35208a"/>
    <path id="Path_603" data-name="Path 603" d="M57.438,33.45a1.253,1.253,0,0,0,.43.572,1,1,0,0,0,.624.307.138.138,0,0,0,.1-.233,4.389,4.389,0,0,0-.487-.351c-.158-.13-.271-.3-.426-.434a.144.144,0,0,0-.238.139" transform="translate(-23.279 -13.487)" fill="#35208a"/>
    <path id="Path_604" data-name="Path 604" d="M58.829,33.09a4.513,4.513,0,0,0,.686.551c.2.148.429.4.689.4a.123.123,0,0,0,.117-.154c-.076-.238-.351-.363-.544-.5A4.849,4.849,0,0,0,59,32.871a.14.14,0,0,0-.169.219" transform="translate(-23.829 -13.318)" fill="#35208a"/>
    <path id="Path_605" data-name="Path 605" d="M38.05,18.783a4.464,4.464,0,0,0-.938,3.438.137.137,0,0,0,.262,0c.117-.571.1-1.155.232-1.728s.414-1.089.542-1.654a.059.059,0,0,0-.1-.056" transform="translate(-15.02 -7.606)" fill="#35208a"/>
    <path id="Path_606" data-name="Path 606" d="M40.808,18.525a3.163,3.163,0,0,0-.667,2.521.141.141,0,0,0,.269,0c.091-.406.072-.824.175-1.233s.3-.772.427-1.17a.123.123,0,0,0-.2-.119" transform="translate(-16.247 -7.494)" fill="#35208a"/>
    <path id="Path_607" data-name="Path 607" d="M44.862,17.588l-.057-.007a.148.148,0,0,0-.131.075,3.382,3.382,0,0,0-.362.946,1.679,1.679,0,0,0-.063.915.126.126,0,0,0,.227.03,3.547,3.547,0,0,0,.182-.849c.073-.317.191-.617.293-.925a.151.151,0,0,0-.039-.147c-.015-.015-.027-.035-.05-.037" transform="translate(-17.917 -7.126)" fill="#35208a"/>
    <path id="Path_608" data-name="Path 608" d="M48.275,16.568a2.711,2.711,0,0,0-1.019,1.876c-.015.191.275.219.327.044a4.777,4.777,0,0,1,.338-.958c.151-.282.36-.516.536-.78a.134.134,0,0,0-.182-.182" transform="translate(-19.154 -6.707)" fill="#35208a"/>
    <path id="Path_609" data-name="Path 609" d="M51.012,17.295a2.769,2.769,0,0,0-.464.869c-.086.253-.24.646-.081.888a.116.116,0,0,0,.18.023c.174-.183.149-.477.218-.714a4.913,4.913,0,0,1,.384-.886c.073-.142-.123-.321-.235-.181" transform="translate(-20.428 -6.99)" fill="#35208a"/>
    <path id="Path_610" data-name="Path 610" d="M53.612,18.241a1.282,1.282,0,0,0-.62,1.276.132.132,0,0,0,.237.031c.1-.191.1-.413.192-.61a4,4,0,0,1,.34-.548c.062-.1-.058-.2-.149-.149" transform="translate(-21.466 -7.388)" fill="#35208a"/>
    <path id="Path_611" data-name="Path 611" d="M55.474,19.053a2.14,2.14,0,0,0-.524.77.144.144,0,0,0,.249.145,2.166,2.166,0,0,0,.373-.858.059.059,0,0,0-.1-.056" transform="translate(-22.267 -7.716)" fill="#35208a"/>
    <path id="Path_612" data-name="Path 612" d="M56.906,20.087a1.63,1.63,0,0,0-.252.364.664.664,0,0,0-.152.4.1.1,0,0,0,.145.083.677.677,0,0,0,.241-.373,1.616,1.616,0,0,0,.143-.418c.009-.067-.083-.091-.125-.052" transform="translate(-22.901 -8.134)" fill="#35208a"/>
    <path id="Path_613" data-name="Path 613" d="M34.957,30.4a1.549,1.549,0,0,1,1.419-.881,1.624,1.624,0,0,1,1.295,1.052c.089.171.319.044.29-.123-.283-1.651-2.776-1.677-3.286-.167-.057.169.192.264.281.118" transform="translate(-14.051 -11.828)" fill="#35208a"/>
    <path id="Path_614" data-name="Path 614" d="M39.962,31.563c.47-.13.851-.494,1.371-.23.567.288.515.876.4,1.393a.152.152,0,0,0,.253.147,1.28,1.28,0,0,0-.421-1.835c-.467-.266-1.633-.217-1.623.506a.02.02,0,0,0,.024.018" transform="translate(-16.188 -12.521)" fill="#35208a"/>
    <path id="Path_615" data-name="Path 615" d="M38.928,25.9a2.814,2.814,0,0,1,1.743-.838,1.249,1.249,0,0,1,.968.541,1.5,1.5,0,0,1,.164.954.139.139,0,0,0,.256.07c.461-.651-.222-1.545-.844-1.788a1.981,1.981,0,0,0-2.343,1.006c-.015.033.02.083.056.056" transform="translate(-15.755 -10.025)" fill="#35208a"/>
    <path id="Path_616" data-name="Path 616" d="M43.706,27.791a1.29,1.29,0,0,1,1.542.054,1.011,1.011,0,0,1,.277.74,3.443,3.443,0,0,1-.224.713.141.141,0,0,0,.2.157c.321-.151.406-.642.386-.962a1.367,1.367,0,0,0-.43-.926,1.308,1.308,0,0,0-.96-.315,1.222,1.222,0,0,0-.508.14,1.016,1.016,0,0,0-.324.361c-.016.022.015.053.037.037" transform="translate(-17.699 -11.045)" fill="#35208a"/>
    <path id="Path_617" data-name="Path 617" d="M46.64,30.944c.416-.068.9-.262,1.208.162a.732.732,0,0,1,.087.636c-.067.219-.24.328-.368.5a.151.151,0,0,0,.13.225c.681-.084.777-1.136.429-1.581-.3-.388-1.375-.656-1.515.024a.023.023,0,0,0,.029.029" transform="translate(-18.893 -12.362)" fill="#35208a"/>
    <path id="Path_618" data-name="Path 618" d="M46.947,22.756a3.9,3.9,0,0,0,.658-.107,1.25,1.25,0,0,1,.77.177.883.883,0,0,1,.238,1.265c-.153.181.108.445.263.262a1.22,1.22,0,0,0-.137-1.682,1.436,1.436,0,0,0-.975-.34c-.281,0-.719.069-.869.333a.062.062,0,0,0,.052.092" transform="translate(-19.004 -9.052)" fill="#35208a"/>
    <path id="Path_619" data-name="Path 619" d="M49.872,25.581c.448,0,.944-.081,1.283.294a.8.8,0,0,1,.2.564,1.456,1.456,0,0,1-.183.489c-.056.139.123.237.234.18.492-.256.344-1.059.057-1.407a1.335,1.335,0,0,0-1.641-.287.09.09,0,0,0,.045.166" transform="translate(-20.179 -10.234)" fill="#35208a"/>
    <path id="Path_620" data-name="Path 620" d="M52.556,28.388a.793.793,0,0,1,.894.448.707.707,0,0,1-.507.887.182.182,0,0,0,.1.351,1.057,1.057,0,0,0,.764-1.315,1,1,0,0,0-1.312-.611.13.13,0,0,0,.065.24" transform="translate(-21.251 -11.378)" fill="#35208a"/>
    <path id="Path_621" data-name="Path 621" d="M54.782,22.709c.451.112,1.009.093,1.33.5a.69.69,0,0,1-.155,1.028.156.156,0,0,0,.12.283c.567-.108.67-.846.457-1.3a1.644,1.644,0,0,0-1.752-.717.107.107,0,0,0,0,.205" transform="translate(-22.174 -9.109)" fill="#35208a"/>
    <path id="Path_622" data-name="Path 622" d="M56.933,25.845c.052.1.114.093.221.126a.929.929,0,0,1,.537.385.763.763,0,0,1,.084.585,2.226,2.226,0,0,1-.3.516.152.152,0,0,0,.17.221c.589-.2.632-1.094.307-1.531a1.077,1.077,0,0,0-.7-.429c-.028,0-.4-.024-.321.127" transform="translate(-23.072 -10.423)" fill="#35208a"/>
    <path id="Path_623" data-name="Path 623" d="M57.691,28.935a.5.5,0,0,1,.34.61c-.106.286-.37.242-.6.3a.166.166,0,0,0-.039.3c.378.268.927-.189,1.012-.558a.777.777,0,0,0-.672-.921c-.168-.014-.171.22-.037.273" transform="translate(-23.23 -11.617)" fill="#35208a"/>
    <path id="Path_624" data-name="Path 624" d="M61.385,25.664a3.743,3.743,0,0,1,.988.47.764.764,0,0,1,.282.451.352.352,0,0,1-.416.41.174.174,0,0,0-.087.321c.566.252,1.011-.432.814-.935a1.492,1.492,0,0,0-1.566-.828.061.061,0,0,0-.014.109" transform="translate(-24.869 -10.347)" fill="#35208a"/>
    <path id="Path_625" data-name="Path 625" d="M62.134,28.53c.433.014.489.636.127.808a.7.7,0,0,1-.536.01c-.15-.053-.321-.062-.335.139a.184.184,0,0,0,.092.161.962.962,0,0,0,1.346-.391.779.779,0,0,0-.693-1.06.167.167,0,0,0,0,.333" transform="translate(-24.882 -11.429)" fill="#35208a"/>
    <path id="Path_626" data-name="Path 626" d="M38.625,65.894a.239.239,0,0,0,.034.044l1.507,1.9a.206.206,0,0,0,.207.055l3.177-.915a.214.214,0,0,0-.056-.419c-.913.007-1.3-.852-2.015-1.23a2.563,2.563,0,0,0-1.489-.223c-.329.036-1.752.123-1.365.784" transform="translate(-15.629 -26.382)" fill="#fa8d61"/>
    <path id="Path_627" data-name="Path 627" d="M42.088,77a2.565,2.565,0,0,1,1.769,1.456.271.271,0,0,0,.294.166l.015,0h0a.361.361,0,0,0,.063-.011,1.848,1.848,0,0,1,2.3,1.207.335.335,0,0,0,.486.2c1.037-.715,2.813-1.839,3.845-.473a.336.336,0,0,0,.571,0,4.025,4.025,0,0,1,.91-1.125c.471-.35,1.367-.54,1.61.232a.334.334,0,0,0,.554.146,7.741,7.741,0,0,0,1.581-6.833.338.338,0,0,0-.407-.231L43.025,73.876a.325.325,0,0,0-.231.231,14.214,14.214,0,0,1-.9,2.4.335.335,0,0,0,.2.486" transform="translate(-16.964 -29.071)" fill="#fa8d61"/>
    <path id="Path_628" data-name="Path 628" d="M24.055,57.1a10.281,10.281,0,0,0,3.678,2.544,1.55,1.55,0,0,1,.818.469c.2.245.377.521.577.771a14.838,14.838,0,0,0,2.006,2.048,12.88,12.88,0,0,0,18.61-2.342,15.109,15.109,0,0,0,2.4-4.822,15.648,15.648,0,0,0,.426-2.778,3.462,3.462,0,0,1,.375-1.858c.508-.608,1.474-.4,2.037-.929a1.212,1.212,0,0,0,.109-1.562c-.987-1.506-3.673-1-5.127-.419.076-.946,1.986-1.325,1.555-2.5-.325-.883-1.745-.2-2.323-.054a8.3,8.3,0,0,0-3.085,1.293,7.061,7.061,0,0,0-2.235,3.143c-.48,1.246-.535,2.577-.956,3.827a6.023,6.023,0,0,1-2.14,2.832,11.956,11.956,0,0,1-6.927,2.15,12.138,12.138,0,0,1-2.02-.124,1.645,1.645,0,0,1-1.34-.758,3.692,3.692,0,0,1-.147-1.4,7.558,7.558,0,0,0-1.642-4.156.164.164,0,0,0-.256.033l-.624,1.1a.873.873,0,0,0-.938-.148c-.617.206-.833.73-1.151,1.242a1.666,1.666,0,0,1-1.329.8.955.955,0,0,0-.608.281c-.346.422-.02.949.254,1.3" transform="translate(-9.587 -18.354)" fill="#96cbeb"/>
    <path id="Path_629" data-name="Path 629" d="M57.357,54.533a4.527,4.527,0,0,0,3.52,2.069,5.1,5.1,0,0,0,4.964-2.436c.05-.391.088-.783.121-1.176a3.458,3.458,0,0,1,.374-1.858c.509-.608,1.474-.4,2.038-.929a1.213,1.213,0,0,0,.108-1.563c-.987-1.505-3.672-1-5.127-.418.076-.946,1.986-1.325,1.554-2.5-.325-.883-1.745-.2-2.323-.054A8.313,8.313,0,0,0,59.5,46.964a7.061,7.061,0,0,0-2.234,3.143,13.886,13.886,0,0,0-.583,2.336,4.911,4.911,0,0,0,.672,2.089" transform="translate(-22.976 -18.354)" fill="#fff"/>
    <path id="Path_630" data-name="Path 630" d="M67.072,54.044a1.11,1.11,0,1,1-1.11,1.11,1.123,1.123,0,0,1,1.11-1.11" transform="translate(-26.736 -21.906)" fill="#35208a"/>
    <path id="Path_631" data-name="Path 631" d="M60.7,52.177a1.786,1.786,0,1,1-1.786,1.786A1.807,1.807,0,0,1,60.7,52.177" transform="translate(-23.877 -21.149)" fill="#96cbeb"/>
    <path id="Path_632" data-name="Path 632" d="M51.96,61.757c.287.4.695,1.371,1.3,1.346.585-.023,1.286-.9,1.583-1.317.516-.718,1.2-2.509.272-3.164-.836-.588-1.3.824-1.67,1.3-.426.545-.987.177-1.5.487s-.233.96.017,1.346" transform="translate(-20.937 -23.705)" fill="#fa8d61"/>
    <path id="Path_633" data-name="Path 633" d="M32.24,62.947a13.356,13.356,0,0,0-1.233-3.824c-.068-.133-.329.044-.239.306S31.882,62.675,32.032,63c.049.105.206.046.208-.056" transform="translate(-12.464 -23.946)" fill="#35208a"/>
    <path id="Path_634" data-name="Path 634" d="M29.746,64.315c-.113-.494-.834-.885-1.2-1.215a14.325,14.325,0,0,0-1.42-1.311.154.154,0,0,0-.209.209,8.142,8.142,0,0,0,1.446,1.425c.351.307.852.928,1.346.934a.034.034,0,0,0,.033-.042" transform="translate(-10.903 -25.036)" fill="#35208a"/>
    <path id="Path_635" data-name="Path 635" d="M55.325,60.948c-.31.252-.437.752-.668,1.082a4.968,4.968,0,0,1-1.147,1.148c-.178.131-.01.432.176.3a4.742,4.742,0,0,0,1.16-1.167c.242-.346.64-.9.539-1.348a.036.036,0,0,0-.06-.016" transform="translate(-21.659 -24.7)" fill="#35208a"/>
    <path id="Path_636" data-name="Path 636" d="M54.293,60.862a6.866,6.866,0,0,0-.863.726c-.328.247-.715.4-1.041.648a.155.155,0,0,0,.119.281,3.23,3.23,0,0,0,1.086-.648,2.358,2.358,0,0,0,.828-.907c.027-.077-.066-.132-.13-.1" transform="translate(-21.207 -24.666)" fill="#35208a"/>
    <path id="Path_637" data-name="Path 637" d="M42.315,66.4a1.249,1.249,0,0,0-.43-.572,1,1,0,0,0-.624-.307.138.138,0,0,0-.1.233,4.445,4.445,0,0,0,.487.351c.158.13.271.3.426.434a.143.143,0,0,0,.237-.139" transform="translate(-16.67 -26.556)" fill="#35208a"/>
    <path id="Path_638" data-name="Path 638" d="M40.689,66.666A4.542,4.542,0,0,0,40,66.115c-.2-.148-.429-.4-.689-.4a.123.123,0,0,0-.117.154c.075.238.35.363.544.5a4.849,4.849,0,0,0,.778.517.14.14,0,0,0,.169-.219" transform="translate(-15.885 -26.635)" fill="#35208a"/>
    <path id="Path_639" data-name="Path 639" d="M61.77,79.361a4.462,4.462,0,0,0,.937-3.438.136.136,0,0,0-.261,0c-.117.571-.1,1.155-.233,1.728S61.8,78.74,61.673,79.3a.059.059,0,0,0,.1.056" transform="translate(-24.997 -30.735)" fill="#35208a"/>
    <path id="Path_640" data-name="Path 640" d="M59.12,80.229a3.165,3.165,0,0,0,.667-2.521.141.141,0,0,0-.269,0c-.091.406-.072.824-.175,1.233s-.3.772-.427,1.17a.124.124,0,0,0,.205.119" transform="translate(-23.878 -31.457)" fill="#35208a"/>
    <path id="Path_641" data-name="Path 641" d="M55.191,81.6l.057.007a.148.148,0,0,0,.131-.075,3.382,3.382,0,0,0,.362-.946,1.679,1.679,0,0,0,.063-.915.126.126,0,0,0-.227-.03,3.547,3.547,0,0,0-.182.849c-.073.317-.191.617-.293.925a.15.15,0,0,0,.039.147c.015.015.027.036.05.038" transform="translate(-22.332 -32.255)" fill="#35208a"/>
    <path id="Path_642" data-name="Path 642" d="M51.459,82.6a2.711,2.711,0,0,0,1.019-1.876c.015-.191-.275-.219-.327-.044a4.777,4.777,0,0,1-.338.958,9.334,9.334,0,0,1-.536.78.134.134,0,0,0,.182.182" transform="translate(-20.776 -32.653)" fill="#35208a"/>
    <path id="Path_643" data-name="Path 643" d="M48.964,82a2.769,2.769,0,0,0,.464-.869c.086-.253.24-.646.081-.888a.116.116,0,0,0-.18-.023c-.174.183-.149.478-.218.714a4.913,4.913,0,0,1-.384.886c-.073.142.123.321.235.181" transform="translate(-19.745 -32.501)" fill="#35208a"/>
    <path id="Path_644" data-name="Path 644" d="M46.4,81.382a1.281,1.281,0,0,0,.62-1.276.131.131,0,0,0-.237-.032c-.1.191-.1.413-.192.61a4,4,0,0,1-.34.548c-.061.1.058.2.149.149" transform="translate(-18.739 -32.431)" fill="#35208a"/>
    <path id="Path_645" data-name="Path 645" d="M44.658,80.831a2.143,2.143,0,0,0,.524-.769.144.144,0,0,0-.249-.146,2.166,2.166,0,0,0-.373.858.059.059,0,0,0,.1.057" transform="translate(-18.061 -32.365)" fill="#35208a"/>
    <path id="Path_646" data-name="Path 646" d="M43.3,79.881a1.63,1.63,0,0,0,.252-.364.664.664,0,0,0,.152-.4.1.1,0,0,0-.145-.083.676.676,0,0,0-.241.372,1.628,1.628,0,0,0-.143.419c-.009.067.083.091.125.052" transform="translate(-17.499 -32.031)" fill="#35208a"/>
    <path id="Path_647" data-name="Path 647" d="M63.363,69.158a1.551,1.551,0,0,1-1.419.881,1.624,1.624,0,0,1-1.295-1.052c-.089-.171-.319-.044-.29.122.283,1.651,2.776,1.677,3.286.167.057-.169-.193-.265-.281-.119" transform="translate(-24.464 -27.93)" fill="#35208a"/>
    <path id="Path_648" data-name="Path 648" d="M59.045,67.621c-.47.13-.851.494-1.371.23-.567-.288-.515-.876-.4-1.393a.153.153,0,0,0-.253-.147,1.281,1.281,0,0,0,.421,1.835c.467.266,1.633.217,1.623-.506a.02.02,0,0,0-.024-.018" transform="translate(-23.015 -26.859)" fill="#35208a"/>
    <path id="Path_649" data-name="Path 649" d="M59.36,73.338a2.814,2.814,0,0,1-1.743.838,1.25,1.25,0,0,1-.968-.541,1.5,1.5,0,0,1-.164-.954.139.139,0,0,0-.256-.07c-.461.651.222,1.545.844,1.788a1.981,1.981,0,0,0,2.343-1.006c.015-.033-.02-.083-.056-.056" transform="translate(-22.73 -29.406)" fill="#35208a"/>
    <path id="Path_650" data-name="Path 650" d="M55.34,71.26a1.29,1.29,0,0,1-1.542-.054,1.013,1.013,0,0,1-.277-.74,3.442,3.442,0,0,1,.224-.713.141.141,0,0,0-.2-.157c-.321.151-.406.642-.386.962a1.367,1.367,0,0,0,.43.926,1.308,1.308,0,0,0,.96.315,1.222,1.222,0,0,0,.508-.14,1.016,1.016,0,0,0,.324-.361c.016-.022-.015-.053-.037-.037" transform="translate(-21.544 -28.203)" fill="#35208a"/>
    <path id="Path_651" data-name="Path 651" d="M52.759,68.276c-.416.068-.9.262-1.208-.162a.732.732,0,0,1-.087-.636c.067-.219.24-.328.368-.5a.151.151,0,0,0-.13-.225c-.681.084-.777,1.136-.429,1.581.3.388,1.375.656,1.515-.024a.023.023,0,0,0-.029-.029" transform="translate(-20.703 -27.054)" fill="#35208a"/>
    <path id="Path_652" data-name="Path 652" d="M52.076,76.388a3.9,3.9,0,0,0-.658.107,1.25,1.25,0,0,1-.77-.177.883.883,0,0,1-.238-1.265c.153-.181-.108-.445-.263-.262a1.22,1.22,0,0,0,.137,1.682,1.436,1.436,0,0,0,.975.34c.281,0,.719-.069.869-.333a.062.062,0,0,0-.052-.092" transform="translate(-20.215 -30.29)" fill="#35208a"/>
    <path id="Path_653" data-name="Path 653" d="M49.368,73.7c-.448,0-.944.081-1.283-.294a.8.8,0,0,1-.2-.564,1.432,1.432,0,0,1,.183-.489c.055-.139-.123-.237-.234-.18-.492.256-.344,1.058-.058,1.407a1.335,1.335,0,0,0,1.641.287.09.09,0,0,0-.045-.166" transform="translate(-19.256 -29.249)" fill="#35208a"/>
    <path id="Path_654" data-name="Path 654" d="M47.042,70.809a.793.793,0,0,1-.894-.448.706.706,0,0,1,.507-.886.183.183,0,0,0-.1-.352,1.057,1.057,0,0,0-.763,1.315,1,1,0,0,0,1.312.611.13.13,0,0,0-.065-.24" transform="translate(-18.543 -28.015)" fill="#35208a"/>
    <path id="Path_655" data-name="Path 655" d="M44.469,76.462c-.452-.112-1.009-.093-1.33-.5a.69.69,0,0,1,.155-1.028.155.155,0,0,0-.12-.282c-.567.107-.67.846-.457,1.3a1.645,1.645,0,0,0,1.753.718.108.108,0,0,0,0-.206" transform="translate(-17.273 -30.258)" fill="#35208a"/>
    <path id="Path_656" data-name="Path 656" d="M42.791,73.378c-.052-.1-.114-.093-.221-.126a.929.929,0,0,1-.537-.385.763.763,0,0,1-.084-.585,2.226,2.226,0,0,1,.3-.516.152.152,0,0,0-.17-.221c-.589.2-.632,1.094-.307,1.531a1.077,1.077,0,0,0,.7.429c.028,0,.4.024.321-.127" transform="translate(-16.848 -28.996)" fill="#35208a"/>
    <path id="Path_657" data-name="Path 657" d="M42.121,70.568a.5.5,0,0,1-.34-.61c.106-.286.37-.242.6-.3a.166.166,0,0,0,.039-.3c-.377-.268-.927.189-1.012.558a.777.777,0,0,0,.672.921c.168.014.171-.22.037-.273" transform="translate(-16.779 -28.082)" fill="#35208a"/>
    <path id="Path_658" data-name="Path 658" d="M38.052,73.644a3.743,3.743,0,0,1-.988-.47.764.764,0,0,1-.282-.451.352.352,0,0,1,.416-.41.173.173,0,0,0,.087-.321c-.566-.252-1.011.432-.814.935a1.492,1.492,0,0,0,1.566.828.06.06,0,0,0,.014-.109" transform="translate(-14.764 -29.158)" fill="#35208a"/>
    <path id="Path_659" data-name="Path 659" d="M37.417,70.959c-.433-.014-.489-.636-.127-.808a.7.7,0,0,1,.536-.01c.15.054.321.062.335-.139a.184.184,0,0,0-.092-.161.962.962,0,0,0-1.347.391.779.779,0,0,0,.694,1.06.167.167,0,0,0,0-.333" transform="translate(-14.864 -28.257)" fill="#35208a"/>
    <path id="Path_660" data-name="Path 660" d="M14.96,46.626a.083.083,0,0,0-.029-.07c-.177-.335-.818-.4-1.139-.463-.524-.1-1.056-.167-1.587-.236-.087-.011-.174-.026-.26-.036-.035,0-.1-.034-.09-.018a1.63,1.63,0,0,1-.16-.368c-.22-.512-.432-1.028-.655-1.538-.113-.259-.228-.517-.351-.771-.076-.157-.162-.451-.337-.527-.387-.169-.657.787-.76,1.017-.246.551-.477,1.109-.716,1.663-.05.116-.134.451-.239.53a2.57,2.57,0,0,1-.5.026c-.236.019-.472.037-.707.059a6.254,6.254,0,0,0-1.2.19c-.234.069-.652.181-.615.505.03.265.438.516.621.662a7.914,7.914,0,0,0,.995.673,4.721,4.721,0,0,1,.5.266c.187.142.1.29.046.481-.106.4-.215.806-.313,1.212-.08.33-.157.662-.208,1a1.338,1.338,0,0,0-.017.7c.243.517,1.176-.388,1.4-.561q.424-.326.83-.675.2-.17.393-.348c.073-.067.257-.321.351-.336.152-.026.561.47.684.576.279.241.567.472.859.7a2.848,2.848,0,0,0,1.359.768c.458.041.24-.653.179-.927-.145-.652-.357-1.29-.551-1.929-.042-.138-.1-.279-.125-.42s-.027-.144.1-.222c.253-.153.561-.247.827-.381.426-.215,1.279-.6,1.4-1.135a.091.091,0,0,0,.01-.064" transform="translate(-2.274 -17.258)" fill="#fff896"/>
    <path id="Path_661" data-name="Path 661" d="M80.537,74.915c-.721-.063-1.456-.055-2.186-.047q.31-.305.617-.613a4.482,4.482,0,0,0,.894-1.039.2.2,0,0,0-.275-.275,4.522,4.522,0,0,0-1.056.877c-.213.2-.424.41-.635.617,0-.3,0-.593,0-.89a4.492,4.492,0,0,0-.1-1.369.2.2,0,0,0-.388,0,4.53,4.53,0,0,0-.127,1.369c-.006.295-.01.59-.012.884q-.312-.317-.627-.631A4.482,4.482,0,0,0,75.6,72.9a.2.2,0,0,0-.275.275,4.51,4.51,0,0,0,.877,1.056c.2.213.41.424.616.635-.3,0-.593,0-.89,0a4.491,4.491,0,0,0-1.369.1.2.2,0,0,0,0,.388,4.53,4.53,0,0,0,1.369.127c.288.006.577.01.865.012-.533.5-1.069,1.008-1.544,1.556a.3.3,0,0,0,.425.424c.549-.461,1.058-.981,1.565-1.5-.021.725-.042,1.455.008,2.171a.3.3,0,0,0,.6,0c.062-.714.055-1.442.047-2.166.5.527,1,1.059,1.541,1.529a.3.3,0,0,0,.425-.424c-.461-.549-.981-1.059-1.5-1.565.726.021,1.455.042,2.172-.008a.3.3,0,0,0,0-.6" transform="translate(-30.165 -29.197)" fill="#fff"/>
    <path id="Path_662" data-name="Path 662" d="M17.715,21.892a2.654,2.654,0,0,0,.166-.215l-.108.139a.928.928,0,0,0,.212-.333.656.656,0,0,0-.3-.727.827.827,0,0,0-.85,0,.726.726,0,0,0-.2,1.064.727.727,0,0,0,1.081.073" transform="translate(-6.681 -8.365)" fill="#fff"/>
    <path id="Path_663" data-name="Path 663" d="M21.884,37.185a.879.879,0,0,0,.443-.111.827.827,0,0,0,.351-.474l-.145.247.032-.032a.524.524,0,0,0,0-.729l-.032-.032.145.247a.742.742,0,0,0-.633-.569c-.056-.008-.105-.014-.161-.017a.734.734,0,0,0-.519,1.253.73.73,0,0,0,.519.215" transform="translate(-8.572 -14.477)" fill="#fff"/>
    <path id="Path_664" data-name="Path 664" d="M35.306,8.613l.225-.157a.534.534,0,0,0,0-.922l-.225-.157a.707.707,0,0,0-.723,0,.716.716,0,0,0,0,1.236.707.707,0,0,0,.723,0" transform="translate(-13.874 -2.95)" fill="#fff"/>
    <path id="Path_665" data-name="Path 665" d="M62.538,6.8l.1.008c.768.059.769-1.254,0-1.194l-.1.008a.59.59,0,0,0,0,1.179" transform="translate(-25.118 -2.276)" fill="#fff"/>
    <path id="Path_666" data-name="Path 666" d="M65.78,21.5a.764.764,0,0,0,0-1.528.764.764,0,0,0,0,1.528" transform="translate(-26.363 -8.094)" fill="#fff"/>
    <path id="Path_667" data-name="Path 667" d="M49.444,11.193a.69.69,0,0,0,.473-.2.669.669,0,0,0-.473-1.141.692.692,0,0,0-.473.2.669.669,0,0,0,.473,1.141" transform="translate(-19.77 -3.995)" fill="#fff"/>
    <path id="Path_668" data-name="Path 668" d="M78.908,27.93l.041-.008-.18.024a.365.365,0,0,1,.084,0l-.175-.024a.842.842,0,0,0,.368,0c.013,0,.026-.009.039-.011l-.16.021h.029a.573.573,0,0,0,.547-.416.72.72,0,0,0-.168-.682.981.981,0,0,0-.425-.238.69.69,0,1,0,0,1.33" transform="translate(-31.63 -10.772)" fill="#fff"/>
    <path id="Path_669" data-name="Path 669" d="M91,40.119a.77.77,0,0,0,.431.121.758.758,0,0,0,.751-.751.8.8,0,0,0-.791-.815.812.812,0,0,0-.548.227.8.8,0,0,0-.227.548.775.775,0,0,0,.384.67" transform="translate(-36.731 -15.676)" fill="#fff"/>
    <path id="Path_670" data-name="Path 670" d="M80.615,47.8a.677.677,0,0,0,.428-.291.848.848,0,0,0,.081-.608.774.774,0,0,0-.51-.51.727.727,0,0,0-.768.262.734.734,0,0,0-.057.812.746.746,0,0,0,.825.335" transform="translate(-32.302 -18.791)" fill="#fff"/>
    <path id="Path_671" data-name="Path 671" d="M87.715,59.529a.74.74,0,0,0,.509-.211.719.719,0,0,0,0-1.018.719.719,0,0,0-1.018,0,.719.719,0,0,0,0,1.018.746.746,0,0,0,.509.211" transform="translate(-35.261 -23.545)" fill="#fff"/>
    <path id="Path_672" data-name="Path 672" d="M66.937,87.631l-.012-.024a.586.586,0,1,0-.8.8l.024.012a.591.591,0,0,0,.7-.09.6.6,0,0,0,.09-.7" transform="translate(-26.686 -35.394)" fill="#fff"/>
    <path id="Path_673" data-name="Path 673" d="M45.912,93.949a.815.815,0,0,0,.558-.231.79.79,0,0,0,0-1.117.79.79,0,0,0-1.117,0,.79.79,0,0,0,0,1.117.819.819,0,0,0,.558.231" transform="translate(-18.289 -37.44)" fill="#fff"/>
    <path id="Path_674" data-name="Path 674" d="M37.036,84.968l0-.015c-.027.062-.053.125-.079.188l.006-.012-.123.159.01-.008-.159.122L36.7,85.4l-.187.079.012,0-.208.028h.014a.815.815,0,0,0,.552-.229.8.8,0,0,0,.215-.448.743.743,0,0,0-.093-.5.8.8,0,0,0-.467-.359.835.835,0,0,0-1.023.583.824.824,0,0,0,.079.606.787.787,0,0,0,1.076.282.759.759,0,0,0,.361-.47" transform="translate(-14.387 -34.024)" fill="#fff"/>
    <path id="Path_675" data-name="Path 675" d="M18.792,82.373a.837.837,0,0,0,.574-.238.812.812,0,0,0,0-1.149.811.811,0,0,0-1.149,0,.812.812,0,0,0,0,1.149.845.845,0,0,0,.574.238" transform="translate(-7.287 -32.729)" fill="#fff"/>
    <path id="Path_676" data-name="Path 676" d="M21.6,67.266a.79.79,0,0,0,0-1.579.79.79,0,0,0,0,1.579" transform="translate(-8.445 -26.625)" fill="#fff"/>
    <path id="Path_677" data-name="Path 677" d="M46.213,56.957a.747.747,0,0,0,.347-.382c.028-.066.05-.13.071-.2a.631.631,0,0,0-.771-.771c-.068.021-.133.044-.2.071a.753.753,0,0,0-.382.347.7.7,0,0,0,.107.827.709.709,0,0,0,.827.106" transform="translate(-18.318 -22.528)" fill="#fff"/>
    <path id="Path_678" data-name="Path 678" d="M27.679,27.485a.057.057,0,0,1,.017,0l-.219.03h.031l.221-.03a1.754,1.754,0,0,0,.207-.087l-.2.083.01,0a1.02,1.02,0,0,0,.362-.211.81.81,0,0,0,.225-.47.825.825,0,0,0-.391-.816.875.875,0,0,0-1.064.14.793.793,0,0,0-.225.472.782.782,0,0,0,.1.523.979.979,0,0,0,.294.294.822.822,0,0,0,.632.083" transform="translate(-10.801 -10.478)" fill="#fff896"/>
    <path id="Path_679" data-name="Path 679" d="M52.725,44.783a.943.943,0,0,0,.868.494.806.806,0,0,0,.647-.313.655.655,0,0,0,.151-.3.711.711,0,0,0-.033-.417.671.671,0,0,0-.262-.307l-.01-.007.133.1a.131.131,0,0,1-.022-.023l.11.143a2.4,2.4,0,0,0-.17-.219l.123.159a.422.422,0,0,1-.027-.045l.082.194A.278.278,0,0,1,54.3,44.2l.03.222c-.012-.1-.032-.2-.048-.3a.844.844,0,0,0-1.151-.553.81.81,0,0,0-.451.451.643.643,0,0,0-.074.328.849.849,0,0,0,.117.431" transform="translate(-21.324 -17.632)" fill="#fff896"/>
    <path id="Path_680" data-name="Path 680" d="M76.619,65.42a.863.863,0,0,0,.592-.246.838.838,0,0,0,0-1.185.838.838,0,0,0-1.185,0,.838.838,0,0,0,0,1.185.87.87,0,0,0,.592.246" transform="translate(-30.716 -25.837)" fill="#fff896"/>
    <path id="Path_681" data-name="Path 681" d="M11.24,66.46a.764.764,0,0,0,0-1.528.764.764,0,0,0,0,1.528" transform="translate(-4.257 -26.319)" fill="#fff896"/>
    <path id="Path_682" data-name="Path 682" d="M88.832,26.056a.9.9,0,0,0,.619-.256.875.875,0,0,0,0-1.238.876.876,0,0,0-1.238,0,.875.875,0,0,0,0,1.238.911.911,0,0,0,.619.256" transform="translate(-35.651 -9.852)" fill="#fff896"/>
  </g>
</svg>
