<svg xmlns="http://www.w3.org/2000/svg" xmlns:xlink="http://www.w3.org/1999/xlink" width="34" height="34" viewBox="0 0 34 34">
  <defs>
    <style>
      .cls-1 {
        fill-rule: evenodd;
        fill: url(#linear-gradient);
      }
    </style>
    <linearGradient id="linear-gradient" x1="1459" y1="3460" x2="1459" y2="3426" gradientUnits="userSpaceOnUse">
      <stop offset="0" stop-color="#ff0006"/>
      <stop offset="1" stop-color="#ff7c00"/>
    </linearGradient>
  </defs>
  <path id="SAGITTARIOUS" class="cls-1" d="M1476,3453.81c-3.88.31-5.19,2.64-5.71,6.18-2.29-5.22-6.6-4.92-10.93-4.71-3.27.16-6.54,0.09-9.81,0.25a5.91,5.91,0,0,0-2.67.88c-1.84,1.15-1.94,1.19-4.24-.95,3,0.3,3.25-1.62,3.43-3.56,0.09-.88.11-1.77,0.13-2.66,0.13-3.84,1.57-6.82,5.41-8.32a21.052,21.052,0,0,0,2.75-1.62c-2.13-1.9-4.07-3.63-6.11-5.44-0.32.75-.79,1.84-1.51,3.51-1.63-3.9-3.05-7.31-4.74-11.37,4.06,1.63,7.55,3.03,11.55,4.64-1.55.67-2.62,1.14-3.58,1.56,1.95,1.85,3.83,3.64,5.82,5.53-0.12.19,0.08-.03,0.17-0.29,2.16-6.09,6.9-7.72,12.87-7.62,1.18,0.02,2.39-1.23,4.11-2.18,0.8,0.57,1.34,1.71-.37,3.33a3.054,3.054,0,0,0-.74,2.02c-0.18,5.11-.35,10.22-0.34,15.33a4.63,4.63,0,0,0,1.26,2.7A30.184,30.184,0,0,0,1476,3453.81Zm-18.64-11.89c-7.07,1.8-9.39,6.44-9.46,12.41h18.2C1466.02,3447.63,1459.81,3445.94,1457.36,3441.92Zm13.42-10.15c-6.26.16-11,2.45-12.61,9.38,4.09,2.58,5.96,8.56,12.61,8.88v-18.26Z" transform="translate(-1442 -3426)"/>
</svg>
