<svg id="Group_227" data-name="Group 227" xmlns="http://www.w3.org/2000/svg" xmlns:xlink="http://www.w3.org/1999/xlink" width="59.804" height="59.803" viewBox="0 0 59.804 59.803">
  <defs>
    <clipPath id="clip-path">
      <rect id="Rectangle_99" data-name="Rectangle 99" width="59.804" height="59.803" fill="none"/>
    </clipPath>
  </defs>
  <g id="Group_226" data-name="Group 226" transform="translate(0 0)" clip-path="url(#clip-path)">
    <path id="Path_406" data-name="Path 406" d="M59.8,29.9A29.9,29.9,0,1,1,29.9,0,29.9,29.9,0,0,1,59.8,29.9" transform="translate(0 0)" fill="#35208a"/>
    <path id="Path_407" data-name="Path 407" d="M56.049,24.319c-.159-2.07-1.755-4.018-3.135-5.458-1.149-1.2-2.572-2.714-4.35-2.656-.3.01-1.094.02-1.181.432-.093.442.885.859,1.11,1.1A2.689,2.689,0,0,1,49.42,19.3a5.811,5.811,0,0,1-.433,1.873,2.353,2.353,0,0,0,.116,1.871,7.6,7.6,0,0,0,1.521,1.927c.324.322.659.63,1,.934.194.174.82.549.882.789.112.437-2.206.4-2.57.409a4.87,4.87,0,0,0-1.067.112c-.656.171-1.154.576-1.887.362a6.588,6.588,0,0,1-1.7-1.2,7,7,0,0,1-1.465-1.34c-.554-.677-1.166-.961-1.861-.313a7.792,7.792,0,0,0-.862,1.035A6.856,6.856,0,0,0,38.347,25c-1.389-.162-2.689-.292-3.876.6l-.032.026a8.321,8.321,0,0,0-.664-1.052c0-.005-.009-.008-.013-.012a.094.094,0,0,0-.008-.015,1.059,1.059,0,0,0-1.686-.1,8.3,8.3,0,0,1-1.442,1.111c-.523.273-1,.6-1.518.884a1.971,1.971,0,0,1-2.181-.159,2.8,2.8,0,0,0-.838-.335c-.765-.187-1.566-.206-2.323-.426a1.694,1.694,0,0,1-.563-.223c-.23-.182-.258-.1-.047-.291a9.591,9.591,0,0,1,1.091-.735,14.509,14.509,0,0,0,2.026-1.6A3.28,3.28,0,0,0,27.322,21c.162-.986-.54-2.05-.166-3.013a3.542,3.542,0,0,1,1.3-1.4,5.8,5.8,0,0,0,.852-.441c.324-.295.121-.549-.219-.714-1.6-.77-3.106.241-4.395,1.117a13.093,13.093,0,0,0-4.443,4.619,3.8,3.8,0,0,0-.382,2.6,6.669,6.669,0,0,0,1.58,2.566,15.7,15.7,0,0,0,2.643,2.526,4.943,4.943,0,0,0,3.162,1.267,7.679,7.679,0,0,0,3.1-1.407,14.649,14.649,0,0,0,1.462-1.081,4.271,4.271,0,0,1,.915-.687.774.774,0,0,1,.48-.07,10.958,10.958,0,0,0-1.465,2.74c-.395.088-.789.175-1.179.282a7.057,7.057,0,0,0-3.163,1.7c-.963.951-1.489,2.242-2.413,3.223a4.128,4.128,0,0,1-1.7,1.1c-.447.149-.508.007-.827-.285a2.2,2.2,0,0,0-.856-.554.551.551,0,0,0-.672.672,3.194,3.194,0,0,0,1.229,1.612A2.242,2.242,0,0,0,24.21,37.2a7.61,7.61,0,0,0,3.231-3.107,5.65,5.65,0,0,1,3.171-2.556c.193-.058.388-.11.583-.159a19.683,19.683,0,0,0-.539,3.468A9.789,9.789,0,0,0,26,38.582a13.476,13.476,0,0,1-1.123,1.662A5.643,5.643,0,0,1,23.31,41.3a1.291,1.291,0,0,1-1.453.043,1.651,1.651,0,0,0-1.5-.125c-.448.2-.346.831,0,1.056a3.441,3.441,0,0,0,2.969.736,6.9,6.9,0,0,0,3.092-2.195,16,16,0,0,1,2.4-3.033,8.263,8.263,0,0,1,1.774-1.1c-.005.888.024,1.774.075,2.65q.023.4.054.8A15.547,15.547,0,0,0,27.4,43.055a9.3,9.3,0,0,1-2.9,2.351,1.776,1.776,0,0,1-1.736-.03,8.158,8.158,0,0,0-1.932-.575c-.438-.055-.658.586-.356.86a8.355,8.355,0,0,0,1.829,1.151,2.852,2.852,0,0,0,1.684.439,7.149,7.149,0,0,0,3.51-1.968c1-.918,1.782-2.038,2.851-2.895.177-.142.359-.274.543-.4a29.426,29.426,0,0,0,1.09,5.269c.573,1.827,1.552,3.7,3.392,4.506a4.273,4.273,0,0,0,1.336.325,2.535,2.535,0,0,0-.064.662,1.948,1.948,0,0,0,1.376,1.927,1.1,1.1,0,0,0,.61-.045,2.8,2.8,0,0,0,1.781,1.426,1.411,1.411,0,0,0,.6-.009,1.067,1.067,0,0,0,.185.3,2.184,2.184,0,0,0,2.632.253,1.084,1.084,0,0,0,.34-.525,1.958,1.958,0,0,0,1.419.114c.819-.25,1.882-1.155,1.735-2.125v-.006c.84.046,1.509-.886,1.92-1.5a2.664,2.664,0,0,0,.294-2.8,1.185,1.185,0,0,0-1.2-.556,15.53,15.53,0,0,0-2.679.83.137.137,0,0,0-.032.246,3.126,3.126,0,0,0,1.811.6,2.922,2.922,0,0,0-1.41,1.8,1.074,1.074,0,0,0,.029.488c-.947.093-2.09.363-2.446,1.311a2.341,2.341,0,0,0-2.022-.306A2.706,2.706,0,0,0,39.793,53a1.612,1.612,0,0,0-.34.012,4.916,4.916,0,0,0-.495-1.37,2.362,2.362,0,0,0,1.025-1.163c.885-2.188.527-4.615.619-6.906,0-.034,0-.069.005-.1.09.062.18.123.268.19,1.133.856,1.943,2.008,2.993,2.947a7.441,7.441,0,0,0,3.422,1.921,2.629,2.629,0,0,0,1.667-.375,8.466,8.466,0,0,0,1.94-1.234c.409-.381-.039-.9-.49-.842a8.221,8.221,0,0,0-1.969.651,1.647,1.647,0,0,1-1.667-.073,9.626,9.626,0,0,1-2.9-2.358,15.354,15.354,0,0,0-3.157-2.724c.083-1.122.193-2.242.322-3.36a7.37,7.37,0,0,1,1.348.838,13.953,13.953,0,0,1,2.444,2.977A6.9,6.9,0,0,0,47.8,44.2a3.325,3.325,0,0,0,3.18-.673c.338-.225.454-.862,0-1.056a1.564,1.564,0,0,0-1.411.092,2.675,2.675,0,0,1-.7.307,1.763,1.763,0,0,1-.945-.336,5.245,5.245,0,0,1-1.553-1.068,18.612,18.612,0,0,1-1.127-1.657,10.381,10.381,0,0,0-3.989-3.366q.087-.669.177-1.336c.081-.587.173-1.173.263-1.758a6.548,6.548,0,0,1,2.178,2.159,7.474,7.474,0,0,0,3.163,2.966,2.287,2.287,0,0,0,2.082.165,3.223,3.223,0,0,0,1.217-1.623.551.551,0,0,0-.671-.672,2.032,2.032,0,0,0-.763.476c-.165.15-.4.458-.57.482-.551.081-1.435-.6-1.811-.937-1.035-.943-1.586-2.282-2.548-3.289a6.139,6.139,0,0,0-2.031-1.371c.021-.146.042-.292.062-.438a15.4,15.4,0,0,0,.216-3.752,2.9,2.9,0,0,0-.061-.331,2.264,2.264,0,0,1,.711.155,3.617,3.617,0,0,1,.521.6A14.434,14.434,0,0,0,44.658,29.2a10.192,10.192,0,0,0,2.525,1.749c1.863.81,4.135-.747,5.556-1.83,1.519-1.159,3.473-2.672,3.31-4.8" transform="translate(-8.016 -6.141)" fill="#96cbeb"/>
    <path id="Path_408" data-name="Path 408" d="M77.338,33.957a2.565,2.565,0,0,1-1.527.126c-.2-.046-.29.268-.086.313a2.774,2.774,0,0,0,1.694-.146c.175-.074.1-.365-.081-.293" transform="translate(-30.647 -13.759)" fill="#35208a"/>
    <path id="Path_409" data-name="Path 409" d="M66.925,39.357a6.306,6.306,0,0,1-.419-2.759c.017-.2-.294-.2-.313,0a5.369,5.369,0,0,0,.479,2.866c.068.139.307.042.253-.107" transform="translate(-26.819 -14.774)" fill="#35208a"/>
    <path id="Path_410" data-name="Path 410" d="M67.161,53.6c.125-.14.018-.372-.011-.534a2.607,2.607,0,0,0-.131-.775.114.114,0,0,0-.194,0,1.5,1.5,0,0,0,.064.94c.006.021.152.5.273.369" transform="translate(-27.062 -21.174)" fill="#35208a"/>
    <path id="Path_411" data-name="Path 411" d="M62.49,50.9c.178.008.3-.246.391-.373.071-.1.14-.207.208-.311a1.348,1.348,0,0,0,.121-.279l-.071.092.018-.012-.113.015-.058-.056.122-.16-.015,0a.123.123,0,0,0-.086.208l.011.01a.128.128,0,0,0,.211-.055.2.2,0,0,0-.02-.16.143.143,0,0,0-.127-.073.184.184,0,0,0-.178.12,3.087,3.087,0,0,1-.2.388c-.095.153-.342.444-.247.631a.04.04,0,0,0,.034.02" transform="translate(-25.307 -20.164)" fill="#35208a"/>
    <path id="Path_412" data-name="Path 412" d="M68.428,63.121c.058-.193.093-.392.134-.589a.938.938,0,0,0,.046-.507.117.117,0,0,0-.193-.051.972.972,0,0,0-.161.516c-.037.2-.077.395-.1.6-.015.159.228.181.271.037" transform="translate(-27.625 -25.106)" fill="#35208a"/>
    <path id="Path_413" data-name="Path 413" d="M61.519,58.629c.177-.01.279-.272.369-.4.147-.208.362-.381.491-.6a.137.137,0,0,0-.186-.185,1.92,1.92,0,0,0-.591.7c-.027.046-.277.5-.083.485" transform="translate(-24.906 -23.278)" fill="#35208a"/>
    <path id="Path_414" data-name="Path 414" d="M67.077,70.215a3.307,3.307,0,0,0-.032-.508,1.5,1.5,0,0,0-.084-.442c-.059-.139-.24-.046-.253.069a1.539,1.539,0,0,0,.056.445,3.3,3.3,0,0,0,.109.463.1.1,0,0,0,.2-.027" transform="translate(-27.037 -28.047)" fill="#35208a"/>
    <path id="Path_415" data-name="Path 415" d="M60.153,66.587a3.44,3.44,0,0,0,.174-.843,1.839,1.839,0,0,0,.133-.773.1.1,0,0,0-.161-.042c-.207.171-.234.536-.281.789a1.711,1.711,0,0,0-.034.847.093.093,0,0,0,.168.022" transform="translate(-24.296 -26.307)" fill="#35208a"/>
    <path id="Path_416" data-name="Path 416" d="M44.134,35.563A.606.606,0,1,1,44.786,35a.614.614,0,0,1-.652.558" transform="translate(-17.661 -13.924)" fill="#35208a"/>
    <path id="Path_417" data-name="Path 417" d="M54.5,36.369a.606.606,0,1,1,.652-.558.613.613,0,0,1-.652.558" transform="translate(-21.864 -14.251)" fill="#35208a"/>
    <path id="Path_418" data-name="Path 418" d="M48,32.859l.023.013a.129.129,0,0,0,.133,0,1.412,1.412,0,0,1,.947-.343,1.587,1.587,0,0,1,.941.534.138.138,0,0,0,.216-.167,1.435,1.435,0,0,0-2.264-.232.134.134,0,0,0-.021.16c-.012-.018.016.029.024.034" transform="translate(-19.437 -13.06)" fill="#35208a"/>
    <path id="Path_419" data-name="Path 419" d="M40.155,40.25c.9,1.232,2.855,1.38,4.243,1.571a24.023,24.023,0,0,0,2.765.221,7.887,7.887,0,0,0,2.843-.271c.2-.071.114-.391-.088-.319a11.81,11.81,0,0,1-5.07.1c-1.453-.173-3.438-.307-4.473-1.469-.1-.117-.315.04-.22.17" transform="translate(-16.266 -16.229)" fill="#35208a"/>
    <path id="Path_420" data-name="Path 420" d="M38.583,48.5a5.715,5.715,0,0,0,2.219.935,13.491,13.491,0,0,0,5.365.348,7.352,7.352,0,0,0,2.486-.636c.13-.07.033-.237-.092-.219-.888.127-1.739.451-2.642.558a13.524,13.524,0,0,1-2.368.07,13.28,13.28,0,0,1-2.543-.4c-.792-.2-1.572-.631-2.37-.756-.051-.008-.1.054-.055.1" transform="translate(-15.631 -19.618)" fill="#35208a"/>
    <path id="Path_421" data-name="Path 421" d="M38.522,56.264a9.239,9.239,0,0,0,4.668,1.381,9.528,9.528,0,0,0,4.829-.662c.133-.07.034-.244-.095-.225-.8.122-1.569.406-2.382.505a12.3,12.3,0,0,1-4.751-.356c-.758-.209-1.463-.557-2.213-.777-.084-.025-.118.087-.056.133" transform="translate(-15.601 -22.75)" fill="#35208a"/>
    <path id="Path_422" data-name="Path 422" d="M39.37,64.319c.274.471.929.489,1.418.564a21.512,21.512,0,0,0,7.435-.179c.2-.043.115-.345-.086-.31a24.171,24.171,0,0,1-4.583.4,11.315,11.315,0,0,1-4.106-.576c-.059-.025-.106.054-.078.1" transform="translate(-15.955 -26.028)" fill="#35208a"/>
    <path id="Path_423" data-name="Path 423" d="M41.819,72.222a11.757,11.757,0,0,0,3.831.429,12.5,12.5,0,0,0,1.747-.211q.519-.1,1.028-.246c.169-.049.337-.1.5-.157q.351.014.233-.273c-.1.051-.048.2.055.206h.046a.125.125,0,0,0,.118-.089l.018-.053a.144.144,0,0,0-.1-.175c-.4-.08-.833.189-1.217.291a11.907,11.907,0,0,1-2.168.363,13.2,13.2,0,0,1-4.018-.369.146.146,0,0,0-.077.281" transform="translate(-16.908 -29.038)" fill="#35208a"/>
    <path id="Path_424" data-name="Path 424" d="M51.815,80.453c.1-.171.145-.365.235-.54a3.634,3.634,0,0,0,.278-.486.132.132,0,0,0-.193-.148,1.209,1.209,0,0,0-.348.521,1.424,1.424,0,0,0-.159.6.1.1,0,0,0,.187.051" transform="translate(-20.926 -32.126)" fill="#35208a"/>
    <path id="Path_425" data-name="Path 425" d="M56.13,82.518a3.541,3.541,0,0,0,.13-.417,1.814,1.814,0,0,1,.22-.434c.112-.166-.158-.323-.268-.157a1.366,1.366,0,0,0-.285.982.112.112,0,0,0,.2.026" transform="translate(-22.661 -33.01)" fill="#35208a"/>
    <path id="Path_426" data-name="Path 426" d="M60.459,82.721a5.572,5.572,0,0,0-.2-.812.153.153,0,0,0-.295.081,5.5,5.5,0,0,0,.234.8.136.136,0,0,0,.262-.073" transform="translate(-24.302 -33.156)" fill="#35208a"/>
    <path id="Path_427" data-name="Path 427" d="M64.412,79c.16.14.325.275.49.41a1.377,1.377,0,0,0,.469.329.127.127,0,0,0,.142-.184c-.084-.173-.294-.291-.441-.41s-.317-.256-.48-.379c-.135-.1-.307.123-.181.234" transform="translate(-26.09 -31.917)" fill="#35208a"/>
    <path id="Path_428" data-name="Path 428" d="M66.652,75.195a1.355,1.355,0,0,0,1-.422.132.132,0,0,0-.147-.191,3.192,3.192,0,0,0-.4.213,2.518,2.518,0,0,1-.482.145.13.13,0,0,0,.034.255" transform="translate(-26.965 -30.228)" fill="#35208a"/>
    <path id="Path_429" data-name="Path 429" d="M21.393,31.01a2.749,2.749,0,0,0,1.659.39c.207-.016.208-.343,0-.324a2.581,2.581,0,0,1-1.506-.326.151.151,0,0,0-.153.261" transform="translate(-8.642 -12.455)" fill="#35208a"/>
    <path id="Path_430" data-name="Path 430" d="M31.888,37.782A5.382,5.382,0,0,0,32.744,35c.008-.2-.3-.2-.313,0a6.217,6.217,0,0,1-.782,2.64.139.139,0,0,0,.24.14" transform="translate(-12.821 -14.126)" fill="#35208a"/>
    <path id="Path_431" data-name="Path 431" d="M25.479,51.446c.212-.043.247-.379.281-.552a1.239,1.239,0,0,0,.015-.767.114.114,0,0,0-.2,0,.971.971,0,0,0-.075.416,5.268,5.268,0,0,1-.081.537c-.008.038-.09.395.054.366" transform="translate(-10.293 -20.296)" fill="#35208a"/>
    <path id="Path_432" data-name="Path 432" d="M29.878,48.674c.092-.188-.158-.478-.253-.627-.04-.063-.083-.125-.122-.189s-.048-.121-.077-.178c-.043-.087-.084-.136-.186-.139a.145.145,0,0,0-.127.073.2.2,0,0,0-.019.16.129.129,0,0,0,.211.056l.011-.01c.074-.065.02-.222-.086-.208l-.015,0,.122.16-.058.056-.114-.015c-.041-.027,0,.085,0,.087a.662.662,0,0,0,.092.143c.07.1.14.207.212.309.088.123.2.349.374.34a.041.041,0,0,0,.034-.02" transform="translate(-11.788 -19.27)" fill="#35208a"/>
    <path id="Path_433" data-name="Path 433" d="M24.537,60.934c-.021-.2-.064-.4-.1-.595a.976.976,0,0,0-.167-.514.117.117,0,0,0-.193.051.937.937,0,0,0,.051.507c.043.2.08.4.14.588.044.141.288.125.271-.037" transform="translate(-9.749 -24.235)" fill="#35208a"/>
    <path id="Path_434" data-name="Path 434" d="M30.836,56.386c.113-.161-.115-.454-.2-.582a1.723,1.723,0,0,0-.52-.57.136.136,0,0,0-.185.185,2.423,2.423,0,0,0,.287.329,3.769,3.769,0,0,1,.284.367c.029.042.24.411.338.272" transform="translate(-12.123 -22.381)" fill="#35208a"/>
    <path id="Path_435" data-name="Path 435" d="M25.971,68.078a3.24,3.24,0,0,0,.1-.464,1.538,1.538,0,0,0,.051-.446.137.137,0,0,0-.267-.036,1.517,1.517,0,0,0-.069.444,3.265,3.265,0,0,0-.024.476.1.1,0,0,0,.2.027" transform="translate(-10.443 -27.172)" fill="#35208a"/>
    <path id="Path_436" data-name="Path 436" d="M32.706,64.324a1.736,1.736,0,0,0-.043-.846c-.051-.255-.08-.617-.289-.787a.1.1,0,0,0-.161.043,1.836,1.836,0,0,0,.141.771,3.458,3.458,0,0,0,.183.841.093.093,0,0,0,.168-.022" transform="translate(-13.051 -25.4)" fill="#35208a"/>
    <path id="Path_437" data-name="Path 437" d="M51.77,11.493a.083.083,0,0,0-.029-.07c-.177-.335-.818-.4-1.139-.463-.524-.1-1.056-.167-1.587-.236-.087-.011-.174-.026-.26-.036-.035,0-.1-.034-.09-.018a1.63,1.63,0,0,1-.16-.368c-.22-.512-.432-1.028-.655-1.538-.113-.259-.228-.517-.351-.771-.076-.157-.162-.451-.337-.527-.387-.169-.657.787-.76,1.017-.246.551-.477,1.109-.716,1.663-.05.117-.134.451-.239.531a2.617,2.617,0,0,1-.5.026c-.236.019-.472.037-.707.059a6.207,6.207,0,0,0-1.2.19c-.234.069-.652.181-.615.5.03.266.438.517.621.663a7.835,7.835,0,0,0,1,.673,4.77,4.77,0,0,1,.5.266c.187.142.1.29.046.481-.106.4-.215.806-.313,1.212-.08.33-.157.662-.208,1a1.338,1.338,0,0,0-.017.7c.243.517,1.176-.388,1.4-.561q.424-.326.83-.675c.133-.114.264-.23.393-.348.073-.067.257-.321.351-.336.152-.026.561.47.684.576.279.241.567.472.859.7a2.848,2.848,0,0,0,1.359.768c.458.041.24-.653.179-.927-.145-.652-.357-1.29-.551-1.93-.042-.137-.1-.278-.125-.42s-.027-.144.1-.222c.253-.153.561-.247.827-.381.426-.215,1.279-.6,1.4-1.135a.092.092,0,0,0,.01-.064" transform="translate(-17.194 -3.018)" fill="#f7b9e7"/>
    <path id="Path_438" data-name="Path 438" d="M34.234,81.126c-.721-.063-1.456-.055-2.186-.047q.31-.305.617-.613a4.47,4.47,0,0,0,.894-1.039.2.2,0,0,0-.275-.275,4.51,4.51,0,0,0-1.056.877q-.319.307-.635.617,0-.445,0-.89a4.491,4.491,0,0,0-.1-1.369.2.2,0,0,0-.388,0,4.53,4.53,0,0,0-.127,1.369c-.006.295-.01.59-.012.884q-.312-.317-.627-.631a4.482,4.482,0,0,0-1.039-.894.2.2,0,0,0-.275.275,4.5,4.5,0,0,0,.877,1.055c.2.213.41.424.616.635-.3,0-.593,0-.89,0a4.492,4.492,0,0,0-1.369.1.2.2,0,0,0,0,.388,4.53,4.53,0,0,0,1.369.127c.288.006.577.01.865.012-.532.5-1.069,1.008-1.544,1.556a.3.3,0,0,0,.425.424c.549-.46,1.058-.981,1.565-1.5-.021.725-.042,1.455.008,2.171a.3.3,0,0,0,.6,0c.062-.714.055-1.442.047-2.166.5.527,1,1.059,1.541,1.529a.3.3,0,0,0,.425-.424c-.461-.549-.981-1.059-1.5-1.565.726.021,1.455.042,2.172-.008a.3.3,0,0,0,0-.6" transform="translate(-11.397 -31.715)" fill="#fff"/>
    <path id="Path_439" data-name="Path 439" d="M38.688,7.381a.738.738,0,0,0,.506-.209.716.716,0,0,0,0-1.012.715.715,0,0,0-1.012,0,.716.716,0,0,0,0,1.012.743.743,0,0,0,.506.209" transform="translate(-15.391 -2.412)" fill="#fff"/>
    <path id="Path_440" data-name="Path 440" d="M59.82,23.138l.073.043c.844.5.844-1.279,0-.781l-.073.043a.406.406,0,0,0,0,.7" transform="translate(-24.167 -9.043)" fill="#fff"/>
    <path id="Path_441" data-name="Path 441" d="M67.425,11.1a1.125,1.125,0,0,0,.235-.1.752.752,0,0,0,0-1.3,1.157,1.157,0,0,0-.235-.1.762.762,0,0,0-.76.2.781.781,0,0,0,0,1.1.769.769,0,0,0,.76.2" transform="translate(-26.928 -3.872)" fill="#fff"/>
    <path id="Path_442" data-name="Path 442" d="M87.542,30.781a.909.909,0,0,0,.39-.212.744.744,0,0,0,0-1.063.908.908,0,0,0-.39-.212.771.771,0,1,0,0,1.487" transform="translate(-35.088 -11.86)" fill="#fff"/>
    <path id="Path_443" data-name="Path 443" d="M78.135,46.507a1.134,1.134,0,0,0,.294-.045.787.787,0,0,0,.39-.268.714.714,0,0,0,.161-.454.885.885,0,0,0-.1-.378.78.78,0,0,0-.448-.344,1.133,1.133,0,0,0-.294-.045.767.767,0,0,0-.542,1.309.759.759,0,0,0,.542.225" transform="translate(-31.359 -18.228)" fill="#fff"/>
    <path id="Path_444" data-name="Path 444" d="M88.951,57.417a.772.772,0,0,0,0-1.543.772.772,0,0,0,0,1.543" transform="translate(-35.752 -22.647)" fill="#fff"/>
    <path id="Path_445" data-name="Path 445" d="M82.152,72.39a.481.481,0,0,0,.407-.223A.579.579,0,0,0,82.64,72a.809.809,0,0,0,.025-.149c-.011.079-.013.1-.007.061,0-.118.007-.144.027-.077a.613.613,0,0,0-.428-.753.828.828,0,0,0-.615.09.965.965,0,0,0-.391.5.911.911,0,0,0-.021.527.859.859,0,0,0,.417.526.791.791,0,0,0,.549.072.685.685,0,0,0,.461-.413.677.677,0,0,0,0-.548.728.728,0,0,0-.461-.412l-.016-.006.17.071a.224.224,0,0,1-.042-.024l.143.111a.193.193,0,0,1-.022-.022l.11.143a.378.378,0,0,1-.048-.08l.07.165a.358.358,0,0,1-.017-.062c.008.06.017.121.024.181a.384.384,0,0,1,0-.083c-.008.059-.016.118-.024.177a.377.377,0,0,1,.016-.063l-.065.155a.309.309,0,0,1,.031-.055l-.1.129a.209.209,0,0,1,.033-.032l-.127.1a.207.207,0,0,1,.04-.023l-.147.062a.88.88,0,0,0,.326-.187l-.507.065a.4.4,0,0,1-.1-.1.179.179,0,0,1,.015.027s-.037-.09-.02-.045c.006.014.013.065,0,0s-.011.02,0-.043,0-.019,0-.007a.52.52,0,0,0,.03-.055c.02-.035.005-.008-.009,0-.189.16-.027.455.191.462" transform="translate(-32.913 -28.803)" fill="#fff"/>
    <path id="Path_446" data-name="Path 446" d="M59.947,91.136a1.527,1.527,0,0,0,.158-.158.813.813,0,0,0,.222-.535.77.77,0,0,0-.222-.535.76.76,0,0,0-.535-.222l-.2.027a.753.753,0,0,0-.334.194,1.528,1.528,0,0,0-.158.158.8.8,0,0,0-.221.535.769.769,0,0,0,.221.535.759.759,0,0,0,.535.221.823.823,0,0,0,.535-.221" transform="translate(-23.775 -36.353)" fill="#fff"/>
    <path id="Path_447" data-name="Path 447" d="M22.535,74.236l.054-.044a.679.679,0,0,0,0-.959l-.054-.044a.74.74,0,1,0,0,1.047" transform="translate(-8.622 -29.589)" fill="#fff"/>
    <path id="Path_448" data-name="Path 448" d="M6.74,63.063a.312.312,0,0,1-.014-.029l.077.181a.308.308,0,0,1-.011-.03.757.757,0,0,0-.827-.54.717.717,0,0,0-.432.208.847.847,0,0,0-.221.532.386.386,0,0,0,0,.064.782.782,0,0,0,.379.661.766.766,0,0,0,1.048-.275.785.785,0,0,0,0-.773" transform="translate(-2.153 -25.389)" fill="#fff"/>
    <path id="Path_449" data-name="Path 449" d="M16.277,47.425a.834.834,0,0,0,.571-.237.822.822,0,0,0,.237-.571.813.813,0,0,0-.237-.571.807.807,0,0,0-1.143,0,.808.808,0,0,0,0,1.143.84.84,0,0,0,.571.237" transform="translate(-6.27 -18.567)" fill="#fff"/>
    <path id="Path_450" data-name="Path 450" d="M12.428,31.339a.779.779,0,0,0,.533-.221.754.754,0,0,0-.533-1.288.778.778,0,0,0-.533.221.755.755,0,0,0,.533,1.289" transform="translate(-4.731 -12.091)" fill="#fff"/>
    <path id="Path_451" data-name="Path 451" d="M38.265,24.718l.011-.048a.749.749,0,0,0-.921-.921l-.048.011a.777.777,0,0,0-.544.544.779.779,0,0,0,.958.958.777.777,0,0,0,.544-.544" transform="translate(-14.89 -9.617)" fill="#fff896"/>
    <path id="Path_452" data-name="Path 452" d="M89.341,45.985a.823.823,0,0,0,.564-.234.8.8,0,0,0,0-1.127.8.8,0,0,0-1.127,0,.8.8,0,0,0,0,1.127.828.828,0,0,0,.564.234" transform="translate(-35.889 -17.993)" fill="#fff896"/>
    <path id="Path_453" data-name="Path 453" d="M74.416,87.929l.038-.041a.889.889,0,0,0,.247-.6.862.862,0,0,0-.247-.6.852.852,0,0,0-.6-.248.916.916,0,0,0-.6.248l-.042.037a.85.85,0,0,0,0,1.2.848.848,0,0,0,1.2,0" transform="translate(-29.576 -35.038)" fill="#fff896"/>
    <path id="Path_454" data-name="Path 454" d="M35.421,71.81a.853.853,0,0,0,0-1.706.853.853,0,0,0,0,1.706" transform="translate(-14.023 -28.415)" fill="#fff896"/>
    <path id="Path_455" data-name="Path 455" d="M5.637,49.19a.835.835,0,0,0,0-1.669.835.835,0,0,0,0,1.669" transform="translate(-1.958 -19.262)" fill="#fff896"/>
  </g>
</svg>
