<svg xmlns="http://www.w3.org/2000/svg" width="22" height="23" viewBox="0 0 22 23">
  <defs>
    <style>
      .cls-1 {
        fill: #424242;
        fill-rule: evenodd;
      }
    </style>
  </defs>
  <path id="SHARE" class="cls-1" d="M1081.39,1081.97q2.76-1.515,5.51-3.01c0.27-.14.53-0.3,0.8-0.43a0.316,0.316,0,0,0,.19-0.45,4.031,4.031,0,0,1,2.96-4.95,4.143,4.143,0,0,1,5.03,2.99,4.116,4.116,0,0,1-7.01,3.68c-0.07-.06-0.13-0.14-0.22-0.23-0.43.23-.86,0.46-1.28,0.69q-2.5,1.365-5.02,2.73a0.353,0.353,0,0,0-.22.5,3.577,3.577,0,0,1-.01,2.05,0.289,0.289,0,0,0,.15.41q3.12,1.695,6.23,3.39c0.05,0.02.09,0.04,0.07,0.03a10.843,10.843,0,0,1,1.39-.99,3.962,3.962,0,0,1,4.46.4,3.74,3.74,0,0,1,1.44,4.09,3.843,3.843,0,0,1-3.21,3.02,4.054,4.054,0,0,1-4.76-4.97,0.315,0.315,0,0,0-.14-0.44q-3.135-1.7-6.27-3.41a0.293,0.293,0,0,0-.1-0.03,4.221,4.221,0,0,1-6.24.21,3.993,3.993,0,0,1,.09-5.61A4.223,4.223,0,0,1,1081.39,1081.97Zm13.22-4.93a2.74,2.74,0,1,0-2.74,2.7A2.73,2.73,0,0,0,1094.61,1077.04Zm0,14.93a2.741,2.741,0,1,0-2.78,2.65A2.723,2.723,0,0,0,1094.61,1091.97Zm-16.46-10.16a2.681,2.681,0,1,0,2.74,2.7A2.706,2.706,0,0,0,1078.15,1081.81Z" transform="translate(-1074 -1073)"/>
</svg>
