<svg xmlns="http://www.w3.org/2000/svg" width="13" height="12" viewBox="0 0 13 12">
  <defs>
    <style>
      .cls-1 {
        fill: #585858;
        fill-rule: evenodd;
      }
    </style>
  </defs>
  <path id="teligram" class="cls-1" d="M616.3,300.539l5.45-6.322-0.014-.017a0.466,0.466,0,0,0-.065.039l-5.847,4.815c-0.357.294-.715,0.587-1.07,0.883a0.185,0.185,0,0,1-.2.035q-1.615-.535-3.234-1.066a0.4,0.4,0,0,1-.314-0.357,0.393,0.393,0,0,1,.259-0.4l8.166-4.107q1.954-.982,3.908-1.967a0.452,0.452,0,0,1,.5-0.006,0.419,0.419,0,0,1,.154.458c-0.161,1.014-.312,2.029-0.469,3.043-0.147.957-.3,1.915-0.446,2.873q-0.2,1.274-.391,2.547c-0.055.358-.108,0.717-0.17,1.074a0.4,0.4,0,0,1-.586.328q-1.157-.378-2.312-0.76l-3.223-1.059C616.366,300.568,616.34,300.556,616.3,300.539Zm-0.54.655,2.178,0.716c-0.021.033-.036,0.06-0.055,0.085l-1.373,1.8a0.418,0.418,0,0,1-.468.189,0.368,0.368,0,0,1-.294-0.342c0-.8,0-1.6,0-2.408A0.15,0.15,0,0,1,615.76,301.194Z" transform="translate(-611 -292)"/>
</svg>
