<svg xmlns="http://www.w3.org/2000/svg" width="21.593" height="17.719" viewBox="0 0 21.593 17.719">
  <defs>
    <style>
      .cls-1 {
        fill: #b3b3b3;
        fill-rule: evenodd;
      }
    </style>
  </defs>
  <path id="twitter" class="cls-1" d="M418.826,496.124a9.532,9.532,0,0,0,6.354-1.914,4.911,4.911,0,0,1-2.572-.941,4.532,4.532,0,0,1-1.556-2.186h1.818a4.778,4.778,0,0,1-3.409-4.439l1.844,0.5,0.06-.116a4.534,4.534,0,0,1-1.741-2.677,4.442,4.442,0,0,1,.5-3.195,12.762,12.762,0,0,0,9.221,4.65,4.644,4.644,0,0,1,.874-3.789,4.466,4.466,0,0,1,6.4-.615,0.751,0.751,0,0,0,.865.213c0.746-.286,1.5-0.544,2.281-0.824a5.1,5.1,0,0,1-1.651,2.275c0.236-.038.475-0.063,0.708-0.117,0.262-.06.518-0.143,0.775-0.223,0.239-.074.475-0.157,0.712-0.237l0.1,0.108c-0.577.588-1.129,1.2-1.741,1.752a1.132,1.132,0,0,0-.458.95A12.657,12.657,0,0,1,418.826,496.124Z" transform="translate(-418.813 -480.344)"/>
</svg>
