<svg xmlns="http://www.w3.org/2000/svg" width="13" height="15" viewBox="0 0 13 15">
  <defs>
    <style>
      .cls-1 {
        fill: #fff;
        fill-rule: evenodd;
      }
    </style>
  </defs>
  <path class="cls-1" d="M357.639,1047.01a2.194,2.194,0,0,1-1.591-.66,0.219,0.219,0,0,0-.322-0.04q-1.938,1.17-3.884,2.34a0.3,0.3,0,0,0-.171.36,5.562,5.562,0,0,1,0,1.04,0.235,0.235,0,0,0,.112.28q1.994,1.2,3.98,2.4a0.2,0.2,0,0,0,.282-0.06,2.316,2.316,0,0,1,3.868,1.14,2.525,2.525,0,0,1-1.777,3.14,2.389,2.389,0,0,1-2.837-2.12,3.406,3.406,0,0,1,.016-0.74,0.232,0.232,0,0,0-.108-0.27q-2.022-1.2-4.038-2.43a0.235,0.235,0,0,0-.326.07,2.337,2.337,0,0,1-3.8-1.47,2.553,2.553,0,0,1,1.077-2.6,2.23,2.23,0,0,1,2.695.15,0.294,0.294,0,0,0,.422.04q1.945-1.185,3.9-2.35a0.274,0.274,0,0,0,.163-0.34,2.486,2.486,0,0,1,1.986-2.85,2.383,2.383,0,0,1,2.655,1.95A2.457,2.457,0,0,1,357.639,1047.01Z" transform="translate(-347 -1042)"/>
</svg>
