<svg xmlns="http://www.w3.org/2000/svg" xmlns:xlink="http://www.w3.org/1999/xlink" preserveAspectRatio="xMidYMid" width="59" height="54" viewBox="0 0 59 54">
  <defs>
    <style>
      .cls-1 {
        fill: #734700;
      }

      .cls-1, .cls-2, .cls-3, .cls-5, .cls-6, .cls-7, .cls-8 {
        fill-rule: evenodd;
      }

      .cls-2 {
        fill: #e8c68f;
      }

      .cls-3 {
        fill: #ff3100;
      }

      .cls-4 {
        fill: #660405;
      }

      .cls-5 {
        fill: #ff9d26;
      }

      .cls-6 {
        fill: #6a3a00;
      }

      .cls-7 {
        fill: #ffaf52;
      }

      .cls-8 {
        fill: #459d0f;
      }
    </style>
  </defs>
  <g>
    <path d="M12.743,31.719 C12.455,31.719 12.171,31.722 11.887,31.718 C11.700,31.715 11.503,31.735 11.327,31.687 C10.987,31.592 10.659,31.455 10.326,31.338 C9.642,31.097 9.458,30.688 9.714,30.006 C9.777,29.838 9.839,29.656 9.841,29.480 C9.854,28.635 9.847,27.789 9.847,26.981 C9.762,26.848 9.683,26.712 9.592,26.583 C9.428,26.350 9.257,26.123 9.065,25.859 C9.439,25.440 9.348,24.941 9.251,24.390 C9.152,23.824 9.229,23.226 9.229,22.643 C9.266,22.624 9.302,22.605 9.339,22.586 C9.513,22.711 9.713,22.812 9.856,22.965 C10.083,23.208 10.406,23.216 10.478,22.897 C10.599,22.364 10.943,22.056 11.340,21.752 C11.507,21.624 11.636,21.443 11.770,21.276 C11.835,21.195 11.928,21.080 11.912,21.000 C11.835,20.623 12.083,20.351 12.197,20.039 C12.231,19.944 12.341,19.837 12.437,19.812 C12.640,19.758 12.871,19.696 13.064,19.745 C13.388,19.826 13.672,19.799 13.958,19.645 C14.003,19.620 14.066,19.602 14.113,19.614 C14.789,19.779 15.509,19.623 16.166,20.005 C16.848,20.401 17.172,20.222 17.529,19.398 C17.575,19.291 17.609,19.177 17.637,19.063 C17.716,18.748 17.788,18.431 18.130,18.401 C18.151,18.142 18.141,17.916 18.193,17.704 C18.239,17.514 18.382,17.437 18.591,17.535 C18.765,17.616 18.950,17.677 19.135,17.732 C19.398,17.809 19.541,17.680 19.464,17.413 C19.411,17.232 19.305,17.064 19.208,16.900 C18.943,16.449 19.007,15.308 19.326,14.904 C19.524,14.654 19.703,14.648 19.871,14.911 C19.973,15.073 20.070,15.084 20.207,14.978 C20.361,14.858 20.362,14.727 20.217,14.604 C20.071,14.481 19.917,14.369 19.756,14.243 C19.818,14.186 19.860,14.136 19.913,14.102 C20.164,13.937 20.255,13.733 20.193,13.419 C20.116,13.024 20.247,12.909 20.613,12.942 C20.855,12.577 21.091,12.220 21.352,11.827 C21.306,11.779 21.206,11.686 21.122,11.581 C21.036,11.473 20.938,11.363 20.894,11.236 C20.784,10.918 20.886,10.778 21.217,10.734 C21.283,10.725 21.347,10.690 21.396,10.672 C21.305,10.472 21.124,10.265 21.167,10.130 C21.291,9.738 21.458,9.338 21.705,9.015 C21.834,8.846 22.161,8.802 22.409,8.754 C22.848,8.669 23.175,8.475 23.347,8.042 C23.538,7.562 23.906,7.311 24.422,7.249 C24.642,7.223 24.856,7.135 25.071,7.072 C25.402,6.975 25.512,6.682 25.632,6.411 C25.654,6.361 25.577,6.242 25.517,6.188 C25.406,6.089 25.244,6.037 25.160,5.923 C25.090,5.828 25.076,5.669 25.095,5.547 C25.100,5.509 25.308,5.452 25.394,5.483 C25.725,5.604 26.051,5.743 26.365,5.902 C26.614,6.027 26.738,6.259 26.732,6.537 C26.726,6.810 26.881,6.915 27.114,6.969 C27.270,7.006 27.441,7.024 27.573,7.103 C28.126,7.433 28.718,7.384 29.291,7.245 C29.549,7.182 29.756,6.924 30.000,6.778 C30.156,6.684 30.333,6.588 30.509,6.572 C31.416,6.487 32.325,6.420 33.234,6.367 C33.416,6.356 33.601,6.446 33.787,6.460 C33.918,6.469 34.093,6.474 34.180,6.400 C34.563,6.074 35.020,6.047 35.479,6.051 C35.557,6.052 35.680,6.224 35.699,6.331 C35.741,6.561 35.729,6.801 35.740,7.037 C35.751,7.303 35.787,7.557 36.156,7.667 C35.482,8.159 35.553,8.937 35.240,9.544 C35.178,9.664 35.096,9.781 34.998,9.872 C34.916,9.947 34.796,9.980 34.694,10.032 C34.740,10.087 34.786,10.141 34.832,10.196 C34.951,10.127 35.094,10.081 35.185,9.986 C35.416,9.744 35.635,9.764 35.901,9.929 C36.116,10.062 36.354,10.166 36.592,10.256 C36.833,10.348 37.044,10.448 37.101,10.734 C37.113,10.792 37.185,10.879 37.228,10.878 C37.288,10.877 37.377,10.818 37.399,10.762 C37.492,10.524 37.578,10.282 37.642,10.035 C37.696,9.826 37.801,9.695 38.015,9.643 C38.138,9.613 38.283,9.590 38.372,9.511 C38.689,9.227 39.005,9.332 39.325,9.479 C39.530,9.573 39.734,9.670 39.927,9.785 C40.264,9.985 40.613,10.071 41.004,9.984 C41.209,9.939 41.400,9.942 41.526,10.182 C41.561,10.249 41.767,10.291 41.858,10.254 C42.092,10.157 42.301,10.002 42.529,9.886 C42.615,9.842 42.729,9.812 42.817,9.832 C42.868,9.843 42.940,9.993 42.918,10.037 C42.879,10.113 42.782,10.180 42.695,10.208 C42.403,10.305 42.475,10.558 42.487,10.747 C42.493,10.851 42.638,11.007 42.746,11.034 C43.014,11.100 43.297,11.110 43.575,11.130 C43.639,11.135 43.732,11.109 43.768,11.063 C44.183,10.534 44.587,10.000 44.812,9.352 C44.909,9.074 44.799,8.874 44.668,8.664 C44.415,8.259 44.474,8.006 44.893,7.738 C44.736,7.539 44.655,7.353 44.758,7.068 C44.873,6.747 44.803,6.410 44.476,6.187 C44.380,6.121 44.301,6.032 44.178,5.920 C44.399,5.760 44.603,5.614 44.851,5.434 C44.851,5.340 44.851,5.183 44.851,5.000 C45.166,5.016 45.355,5.191 45.487,5.411 C45.676,5.725 45.967,5.817 46.293,5.929 C46.805,6.105 47.357,6.199 47.701,6.752 C47.922,7.106 48.343,7.340 48.689,7.610 C48.736,7.647 48.883,7.606 48.952,7.557 C49.270,7.332 49.416,7.343 49.707,7.598 C49.805,7.683 49.949,7.716 50.071,7.775 C50.354,7.911 50.644,8.034 50.916,8.191 C51.151,8.325 51.364,8.498 51.586,8.654 C51.619,8.629 51.652,8.604 51.684,8.579 C51.684,8.861 51.684,9.144 51.684,9.456 C51.825,9.435 51.924,9.397 52.011,9.414 C52.189,9.448 52.419,9.460 52.522,9.576 C52.780,9.865 53.085,9.984 53.452,10.016 C53.589,10.028 53.728,10.055 53.861,10.094 C54.608,10.312 54.800,10.692 54.553,11.424 C54.499,11.584 54.457,11.756 54.457,11.923 C54.456,12.197 54.642,12.318 54.897,12.335 C55.127,12.351 55.289,12.286 55.306,12.005 C55.311,11.919 55.431,11.829 55.515,11.762 C55.682,11.631 55.860,11.516 56.010,11.356 C56.531,11.310 56.638,11.400 56.694,11.918 C56.786,12.774 57.157,13.145 58.075,13.302 C58.212,13.326 58.352,13.345 58.484,13.385 C58.724,13.459 58.864,13.679 58.801,13.878 C58.691,14.218 58.798,14.494 58.942,14.765 C59.064,14.997 58.985,15.093 58.791,15.222 C58.451,15.449 58.096,15.446 57.680,15.330 C57.711,15.447 57.728,15.509 57.757,15.618 C57.450,15.665 57.148,15.749 56.846,15.749 C56.074,15.749 55.465,16.134 54.904,16.579 C54.168,17.162 53.581,17.892 53.097,18.700 C52.706,19.353 52.737,20.016 53.045,20.691 C53.356,21.371 53.675,22.048 53.956,22.740 C54.057,22.989 54.060,23.278 54.114,23.589 C53.752,23.589 53.447,23.589 53.142,23.589 C53.139,23.621 53.136,23.652 53.133,23.684 C53.314,23.700 53.495,23.720 53.675,23.731 C53.815,23.739 53.955,23.730 54.094,23.738 C54.441,23.758 54.546,23.939 54.397,24.253 C54.375,24.300 54.349,24.345 54.310,24.420 C54.448,24.437 54.560,24.450 54.739,24.470 C54.645,24.566 54.586,24.645 54.511,24.699 C53.806,25.206 53.079,25.684 52.402,26.225 C52.147,26.429 51.950,26.755 51.826,27.064 C51.697,27.388 52.010,27.710 52.384,27.715 C52.455,27.716 52.526,27.698 52.696,27.675 C52.552,27.870 52.481,28.032 52.357,28.122 C51.839,28.500 51.312,28.868 50.774,29.218 C50.354,29.492 49.933,29.719 49.702,30.229 C49.462,30.760 49.091,31.231 48.776,31.727 C48.594,32.015 48.345,32.034 48.093,31.771 C47.881,31.549 47.696,31.275 47.244,31.472 C47.614,31.504 47.846,31.616 47.882,31.970 C47.904,32.193 47.861,32.342 47.635,32.418 C46.418,32.826 45.207,33.256 43.984,33.644 C41.279,34.501 38.682,35.562 36.493,37.433 C35.640,38.163 34.773,38.878 33.935,39.625 C33.634,39.893 33.409,40.245 33.127,40.536 C32.984,40.683 32.804,40.812 32.617,40.894 C32.389,40.995 32.206,40.894 32.093,40.664 C32.036,40.549 31.951,40.449 31.829,40.269 C31.788,40.478 31.766,40.587 31.738,40.730 C31.541,40.730 31.343,40.730 31.137,40.730 C31.137,41.147 31.415,41.154 31.729,41.155 C31.445,41.358 31.202,41.534 30.947,41.717 C30.916,41.612 30.876,41.475 30.816,41.268 C30.486,41.527 30.207,41.774 29.898,41.975 C29.780,42.052 29.593,42.025 29.474,42.040 C29.431,42.318 29.464,42.671 29.316,42.915 C29.162,43.171 28.834,43.323 28.558,43.540 C28.565,43.577 28.607,43.690 28.608,43.803 C28.609,44.006 28.527,44.160 28.292,44.166 C28.067,44.172 27.839,44.153 27.617,44.183 C27.270,44.229 26.916,44.272 26.587,44.382 C26.246,44.496 25.981,44.496 25.706,44.232 C25.594,44.124 25.382,44.067 25.219,44.075 C24.359,44.114 24.067,43.904 23.828,43.091 C23.728,42.751 23.568,42.426 23.409,42.108 C23.263,41.817 23.133,41.831 22.811,42.137 C22.941,42.361 23.074,42.588 23.236,42.865 C22.805,42.795 22.383,42.088 22.527,41.818 C22.161,41.640 21.986,41.335 21.900,40.947 C21.864,40.783 21.741,40.638 21.658,40.484 C21.622,40.481 21.585,40.478 21.549,40.475 C21.494,40.640 21.449,40.808 21.382,40.968 C21.313,41.131 21.223,41.286 21.113,41.502 C21.046,41.341 21.007,41.249 20.955,41.124 C20.790,41.368 20.987,41.876 20.429,41.816 C20.585,41.501 20.511,41.385 20.078,41.236 C20.119,41.457 20.209,41.667 20.177,41.856 C20.146,42.040 19.991,42.203 19.865,42.418 C19.541,42.110 19.201,41.598 18.644,42.089 C18.696,42.315 18.744,42.522 18.805,42.787 C18.875,42.631 18.924,42.521 18.979,42.398 C19.264,42.491 19.191,42.655 19.111,42.756 C19.234,43.043 19.361,43.276 19.418,43.524 C19.429,43.571 19.163,43.681 18.988,43.783 C19.029,44.000 18.835,44.027 18.629,44.083 C18.344,44.162 18.065,44.274 17.796,44.398 C17.714,44.435 17.671,44.558 17.591,44.669 C17.451,44.581 17.293,44.495 17.150,44.388 C16.960,44.248 16.817,44.286 16.695,44.473 C16.554,44.689 16.422,44.910 16.271,45.118 C16.159,45.271 16.003,45.396 15.903,45.555 C15.802,45.717 15.745,45.906 15.650,46.125 C15.820,46.125 15.911,46.125 16.027,46.125 C16.027,46.299 16.027,46.455 16.027,46.635 C16.170,46.649 16.291,46.661 16.501,46.682 C16.266,47.036 16.058,47.350 15.827,47.699 C15.885,47.741 15.988,47.793 16.057,47.874 C16.128,47.957 16.199,48.067 16.204,48.168 C16.207,48.220 16.072,48.307 15.987,48.329 C15.700,48.405 15.402,48.442 15.118,48.526 C14.794,48.621 14.703,48.584 14.619,48.252 C14.617,48.242 14.617,48.231 14.614,48.221 C14.579,48.098 13.747,47.676 13.650,47.748 C13.585,47.796 13.526,47.904 13.528,47.983 C13.547,48.592 13.181,48.852 12.673,49.073 C12.421,49.183 12.258,49.494 12.048,49.721 C11.658,49.457 11.603,49.356 11.741,48.876 C11.832,48.558 11.762,48.365 11.475,48.177 C11.329,48.081 11.285,47.829 11.233,47.626 C11.068,47.557 10.967,47.453 11.021,47.223 C11.115,46.829 10.692,46.909 10.513,46.646 C10.144,47.084 9.801,47.490 9.463,47.898 C9.432,47.936 9.398,48.020 9.415,48.041 C9.703,48.380 9.417,48.580 9.239,48.809 C9.215,48.840 9.202,48.881 9.173,48.939 C9.364,48.968 9.534,48.994 9.729,49.023 C9.679,49.116 9.663,49.200 9.618,49.222 C9.301,49.379 9.199,49.670 9.044,49.962 C8.896,50.241 8.950,50.361 9.149,50.518 C9.216,50.570 9.276,50.630 9.268,50.623 C9.244,50.893 9.210,51.092 9.212,51.290 C9.215,51.628 9.141,51.699 8.825,51.613 C8.547,51.538 8.512,51.767 8.450,51.931 C8.410,52.035 8.432,52.162 8.422,52.383 C8.116,52.208 7.836,52.088 7.606,51.906 C7.207,51.591 6.723,51.607 6.271,51.501 C6.224,51.489 6.141,51.565 6.096,51.618 C5.661,52.120 5.073,52.334 4.461,52.522 C4.243,52.589 4.047,52.749 3.860,52.893 C3.615,53.080 3.390,53.293 3.131,53.516 C3.068,53.403 3.030,53.334 2.984,53.251 C2.922,53.287 2.837,53.310 2.801,53.364 C2.406,53.958 1.786,53.985 1.174,54.000 C0.787,54.010 0.399,53.962 0.000,53.940 C0.048,53.745 0.101,53.532 0.157,53.302 C0.274,53.292 0.388,53.282 0.510,53.271 C0.766,52.356 1.020,51.451 1.272,50.545 C1.282,50.508 1.295,50.444 1.278,50.431 C1.049,50.259 1.264,50.090 1.265,49.920 C1.269,49.451 1.660,49.319 1.930,49.080 C1.983,49.033 2.064,48.990 2.132,48.991 C2.413,48.996 2.623,48.945 2.585,48.588 C2.582,48.557 2.704,48.482 2.768,48.482 C2.860,48.483 2.954,48.528 3.043,48.566 C3.310,48.681 3.432,48.561 3.516,48.314 C3.574,48.147 3.644,47.959 3.768,47.843 C4.136,47.493 4.348,47.004 4.832,46.749 C5.082,46.618 5.261,46.350 5.458,46.157 C5.280,45.868 4.871,45.861 4.919,45.411 C5.283,45.754 5.404,45.510 5.610,45.273 C5.782,45.073 6.087,44.986 6.337,44.856 C6.410,44.818 6.552,44.826 6.567,44.782 C6.670,44.465 6.947,44.418 7.201,44.307 C7.300,44.264 7.368,44.093 7.400,43.967 C7.450,43.772 7.455,43.565 7.482,43.363 C7.520,43.083 7.637,42.876 7.956,42.849 C8.175,42.830 8.292,42.711 8.250,42.484 C8.209,42.265 8.160,42.047 8.099,41.834 C8.031,41.598 7.912,41.372 7.877,41.133 C7.839,40.871 7.798,40.648 7.439,40.604 C7.506,40.482 7.579,40.399 7.598,40.305 C7.628,40.157 7.688,39.920 7.619,39.863 C7.389,39.677 7.447,39.472 7.492,39.256 C7.555,38.957 7.699,38.659 7.438,38.375 C7.418,38.353 7.498,38.231 7.541,38.161 C7.618,38.036 7.702,37.915 7.783,37.792 C7.665,37.721 7.551,37.597 7.430,37.590 C7.064,37.568 6.893,37.387 6.836,37.041 C6.814,36.902 6.735,36.773 6.666,36.601 C6.551,36.683 6.480,36.733 6.403,36.787 C6.381,36.750 6.353,36.725 6.352,36.698 C6.304,35.854 6.230,35.008 6.472,34.179 C6.539,33.950 6.459,33.825 6.241,33.779 C6.126,33.754 5.989,33.784 5.894,33.731 C5.797,33.678 5.672,33.551 5.676,33.461 C5.686,33.236 5.597,33.121 5.404,33.048 C5.284,33.003 5.169,32.943 5.050,32.894 C4.412,32.631 4.210,32.154 4.556,31.542 C4.756,31.189 5.073,30.903 5.364,30.555 C5.660,30.905 5.906,31.198 6.153,31.491 C6.562,31.148 6.571,31.136 7.023,31.468 C7.338,31.699 7.651,31.858 8.061,31.791 C8.152,31.776 8.304,31.892 8.366,31.988 C8.637,32.409 8.886,32.844 9.157,33.299 C9.427,33.110 9.655,32.954 9.881,32.793 C10.228,32.548 10.569,32.549 10.930,32.776 C11.125,32.898 11.347,32.979 11.576,33.087 C11.431,33.373 11.414,33.682 11.657,33.942 C12.004,33.723 12.343,33.526 12.661,33.299 C12.748,33.237 12.844,33.048 12.810,32.984 C12.627,32.639 12.722,32.293 12.754,31.946 C12.759,31.894 12.750,31.840 12.743,31.719 Z" class="cls-1"/>
    <path d="M12.743,30.719 C12.455,30.719 12.171,30.722 11.887,30.718 C11.700,30.715 11.503,30.735 11.327,30.687 C10.987,30.592 10.659,30.455 10.326,30.338 C9.642,30.097 9.458,29.688 9.714,29.006 C9.777,28.838 9.839,28.656 9.841,28.480 C9.854,27.635 9.847,26.789 9.847,25.981 C9.762,25.848 9.683,25.712 9.592,25.583 C9.428,25.350 9.257,25.123 9.065,24.859 C9.439,24.440 9.348,23.941 9.251,23.390 C9.152,22.824 9.229,22.226 9.229,21.643 C9.266,21.624 9.302,21.605 9.339,21.586 C9.513,21.711 9.713,21.812 9.856,21.965 C10.083,22.208 10.406,22.216 10.478,21.897 C10.599,21.364 10.943,21.056 11.340,20.752 C11.507,20.624 11.636,20.443 11.770,20.276 C11.835,20.195 11.928,20.080 11.912,20.000 C11.835,19.623 12.083,19.351 12.197,19.039 C12.231,18.944 12.341,18.837 12.437,18.812 C12.640,18.758 12.871,18.696 13.064,18.745 C13.388,18.826 13.672,18.799 13.958,18.645 C14.003,18.620 14.066,18.602 14.113,18.614 C14.789,18.779 15.509,18.623 16.166,19.005 C16.848,19.401 17.172,19.222 17.529,18.398 C17.575,18.291 17.609,18.177 17.637,18.063 C17.716,17.748 17.788,17.431 18.130,17.401 C18.151,17.142 18.141,16.916 18.193,16.704 C18.239,16.514 18.382,16.437 18.591,16.535 C18.765,16.616 18.950,16.677 19.135,16.732 C19.398,16.809 19.541,16.680 19.464,16.413 C19.411,16.232 19.305,16.064 19.208,15.900 C18.943,15.449 19.007,14.308 19.326,13.904 C19.524,13.654 19.703,13.648 19.871,13.911 C19.973,14.073 20.070,14.084 20.207,13.978 C20.361,13.858 20.362,13.727 20.217,13.604 C20.071,13.481 19.917,13.369 19.756,13.243 C19.818,13.186 19.860,13.136 19.913,13.102 C20.164,12.937 20.255,12.733 20.193,12.419 C20.116,12.024 20.247,11.909 20.613,11.942 C20.855,11.577 21.091,11.220 21.352,10.827 C21.306,10.779 21.206,10.686 21.122,10.581 C21.036,10.473 20.938,10.363 20.894,10.236 C20.784,9.918 20.886,9.778 21.217,9.734 C21.283,9.725 21.347,9.690 21.396,9.672 C21.305,9.472 21.124,9.265 21.167,9.130 C21.291,8.738 21.458,8.338 21.705,8.015 C21.834,7.846 22.161,7.802 22.409,7.754 C22.848,7.669 23.175,7.475 23.347,7.042 C23.538,6.562 23.906,6.311 24.422,6.249 C24.642,6.223 24.856,6.135 25.071,6.072 C25.402,5.975 25.512,5.682 25.632,5.411 C25.654,5.361 25.577,5.242 25.517,5.188 C25.406,5.089 25.244,5.037 25.160,4.923 C25.090,4.828 25.076,4.669 25.095,4.547 C25.100,4.509 25.308,4.452 25.394,4.483 C25.725,4.604 26.051,4.743 26.365,4.902 C26.614,5.027 26.738,5.259 26.732,5.537 C26.726,5.810 26.881,5.915 27.114,5.969 C27.270,6.006 27.441,6.024 27.573,6.103 C28.126,6.433 28.718,6.384 29.291,6.245 C29.549,6.182 29.756,5.924 30.000,5.778 C30.156,5.684 30.333,5.588 30.509,5.572 C31.416,5.487 32.325,5.420 33.234,5.367 C33.416,5.356 33.601,5.446 33.787,5.460 C33.918,5.469 34.093,5.474 34.180,5.400 C34.563,5.074 35.020,5.047 35.479,5.051 C35.557,5.052 35.680,5.224 35.699,5.331 C35.741,5.561 35.729,5.801 35.740,6.037 C35.751,6.303 35.787,6.557 36.156,6.667 C35.482,7.159 35.553,7.937 35.240,8.544 C35.178,8.664 35.096,8.781 34.998,8.872 C34.916,8.947 34.796,8.980 34.694,9.032 C34.740,9.087 34.786,9.141 34.832,9.196 C34.951,9.127 35.094,9.081 35.185,8.986 C35.416,8.744 35.635,8.764 35.901,8.929 C36.116,9.062 36.354,9.166 36.592,9.256 C36.833,9.348 37.044,9.448 37.101,9.734 C37.113,9.792 37.185,9.879 37.228,9.878 C37.288,9.877 37.377,9.818 37.399,9.762 C37.492,9.524 37.578,9.282 37.642,9.035 C37.696,8.826 37.801,8.695 38.015,8.643 C38.138,8.613 38.283,8.590 38.372,8.511 C38.689,8.227 39.005,8.332 39.325,8.479 C39.530,8.573 39.734,8.670 39.927,8.785 C40.264,8.985 40.613,9.071 41.004,8.984 C41.209,8.939 41.400,8.942 41.526,9.182 C41.561,9.249 41.767,9.291 41.858,9.254 C42.092,9.157 42.301,9.002 42.529,8.886 C42.615,8.842 42.729,8.812 42.817,8.832 C42.868,8.843 42.940,8.993 42.918,9.037 C42.879,9.113 42.782,9.180 42.695,9.208 C42.403,9.305 42.475,9.558 42.487,9.747 C42.493,9.851 42.638,10.007 42.746,10.034 C43.014,10.100 43.297,10.110 43.575,10.130 C43.639,10.135 43.732,10.109 43.768,10.063 C44.183,9.534 44.587,9.000 44.812,8.352 C44.909,8.074 44.799,7.874 44.668,7.664 C44.415,7.259 44.474,7.006 44.893,6.738 C44.736,6.539 44.655,6.353 44.758,6.068 C44.873,5.747 44.803,5.410 44.476,5.187 C44.380,5.121 44.301,5.032 44.178,4.920 C44.399,4.760 44.603,4.614 44.851,4.434 C44.851,4.340 44.851,4.183 44.851,4.000 C45.166,4.016 45.355,4.191 45.487,4.411 C45.676,4.725 45.967,4.817 46.293,4.929 C46.805,5.105 47.357,5.199 47.701,5.752 C47.922,6.106 48.343,6.340 48.689,6.610 C48.736,6.647 48.883,6.606 48.952,6.557 C49.270,6.332 49.416,6.343 49.707,6.598 C49.805,6.683 49.949,6.716 50.071,6.775 C50.354,6.911 50.644,7.034 50.916,7.191 C51.151,7.325 51.364,7.498 51.586,7.654 C51.619,7.629 51.652,7.604 51.684,7.579 C51.684,7.861 51.684,8.144 51.684,8.456 C51.825,8.435 51.924,8.397 52.011,8.414 C52.189,8.448 52.419,8.460 52.522,8.576 C52.780,8.865 53.085,8.984 53.452,9.016 C53.589,9.028 53.728,9.055 53.861,9.094 C54.608,9.312 54.800,9.692 54.553,10.424 C54.499,10.584 54.457,10.756 54.457,10.923 C54.456,11.197 54.642,11.318 54.897,11.335 C55.127,11.351 55.289,11.286 55.306,11.005 C55.311,10.919 55.431,10.829 55.515,10.762 C55.682,10.631 55.860,10.516 56.010,10.356 C56.531,10.310 56.638,10.400 56.694,10.918 C56.786,11.774 57.157,12.145 58.075,12.302 C58.212,12.326 58.352,12.345 58.484,12.385 C58.724,12.459 58.864,12.679 58.801,12.878 C58.691,13.218 58.798,13.494 58.942,13.765 C59.064,13.997 58.985,14.093 58.791,14.222 C58.451,14.449 58.096,14.446 57.680,14.330 C57.711,14.447 57.728,14.509 57.757,14.618 C57.450,14.665 57.148,14.749 56.846,14.749 C56.074,14.749 55.465,15.134 54.904,15.579 C54.168,16.162 53.581,16.892 53.097,17.700 C52.706,18.353 52.737,19.016 53.045,19.691 C53.356,20.371 53.675,21.048 53.956,21.740 C54.057,21.989 54.060,22.278 54.114,22.589 C53.752,22.589 53.447,22.589 53.142,22.589 C53.139,22.621 53.136,22.652 53.133,22.684 C53.314,22.700 53.495,22.720 53.675,22.731 C53.815,22.739 53.955,22.730 54.094,22.738 C54.441,22.758 54.546,22.939 54.397,23.253 C54.375,23.300 54.349,23.345 54.310,23.420 C54.448,23.437 54.560,23.450 54.739,23.470 C54.645,23.566 54.586,23.645 54.511,23.699 C53.806,24.206 53.079,24.684 52.402,25.225 C52.147,25.429 51.950,25.755 51.826,26.064 C51.697,26.388 52.010,26.710 52.384,26.715 C52.455,26.716 52.526,26.698 52.696,26.675 C52.552,26.870 52.481,27.032 52.357,27.122 C51.839,27.500 51.312,27.868 50.774,28.218 C50.354,28.492 49.933,28.719 49.702,29.229 C49.462,29.760 49.091,30.231 48.776,30.727 C48.594,31.015 48.345,31.034 48.093,30.771 C47.881,30.549 47.696,30.275 47.244,30.472 C47.614,30.504 47.846,30.616 47.882,30.970 C47.904,31.193 47.861,31.342 47.635,31.418 C46.418,31.826 45.207,32.256 43.984,32.644 C41.279,33.501 38.682,34.562 36.493,36.433 C35.640,37.163 34.773,37.878 33.935,38.625 C33.634,38.893 33.409,39.245 33.127,39.536 C32.984,39.683 32.804,39.812 32.617,39.894 C32.389,39.995 32.206,39.894 32.093,39.664 C32.036,39.549 31.951,39.449 31.829,39.269 C31.788,39.478 31.766,39.587 31.738,39.730 C31.541,39.730 31.343,39.730 31.137,39.730 C31.137,40.147 31.415,40.154 31.729,40.155 C31.445,40.358 31.202,40.534 30.947,40.717 C30.916,40.612 30.876,40.475 30.816,40.268 C30.486,40.527 30.207,40.774 29.898,40.975 C29.780,41.052 29.593,41.025 29.474,41.040 C29.431,41.318 29.464,41.671 29.316,41.915 C29.162,42.171 28.834,42.323 28.558,42.540 C28.565,42.577 28.607,42.690 28.608,42.803 C28.609,43.006 28.527,43.160 28.292,43.166 C28.067,43.172 27.839,43.153 27.617,43.183 C27.270,43.229 26.916,43.272 26.587,43.382 C26.246,43.496 25.981,43.496 25.706,43.232 C25.594,43.124 25.382,43.067 25.219,43.075 C24.359,43.114 24.067,42.904 23.828,42.091 C23.728,41.751 23.568,41.426 23.409,41.108 C23.263,40.817 23.133,40.831 22.811,41.137 C22.941,41.361 23.074,41.588 23.236,41.865 C22.805,41.795 22.383,41.088 22.527,40.818 C22.161,40.640 21.986,40.335 21.900,39.947 C21.864,39.783 21.741,39.638 21.658,39.484 C21.622,39.481 21.585,39.478 21.549,39.475 C21.494,39.640 21.449,39.808 21.382,39.968 C21.313,40.131 21.223,40.286 21.113,40.502 C21.046,40.341 21.007,40.249 20.955,40.124 C20.790,40.368 20.987,40.876 20.429,40.816 C20.585,40.501 20.511,40.385 20.078,40.236 C20.119,40.457 20.209,40.667 20.177,40.856 C20.146,41.040 19.991,41.203 19.865,41.418 C19.541,41.110 19.201,40.598 18.644,41.089 C18.696,41.315 18.744,41.522 18.805,41.787 C18.875,41.631 18.924,41.521 18.979,41.398 C19.264,41.491 19.191,41.655 19.111,41.756 C19.234,42.043 19.361,42.276 19.418,42.524 C19.429,42.571 19.163,42.681 18.988,42.783 C19.029,43.000 18.835,43.027 18.629,43.083 C18.344,43.162 18.065,43.274 17.796,43.398 C17.714,43.435 17.671,43.558 17.591,43.669 C17.451,43.581 17.293,43.495 17.150,43.388 C16.960,43.248 16.817,43.286 16.695,43.473 C16.554,43.689 16.422,43.910 16.271,44.118 C16.159,44.271 16.003,44.396 15.903,44.555 C15.802,44.717 15.745,44.906 15.650,45.125 C15.820,45.125 15.911,45.125 16.027,45.125 C16.027,45.299 16.027,45.455 16.027,45.635 C16.170,45.649 16.291,45.661 16.501,45.682 C16.266,46.036 16.058,46.350 15.827,46.699 C15.885,46.741 15.988,46.793 16.057,46.874 C16.128,46.957 16.199,47.067 16.204,47.168 C16.207,47.220 16.072,47.307 15.987,47.329 C15.700,47.405 15.402,47.442 15.118,47.526 C14.794,47.621 14.703,47.584 14.619,47.252 C14.617,47.242 14.617,47.231 14.614,47.221 C14.579,47.098 13.747,46.676 13.650,46.748 C13.585,46.796 13.526,46.904 13.528,46.983 C13.547,47.592 13.181,47.852 12.673,48.073 C12.421,48.183 12.258,48.494 12.048,48.721 C11.658,48.457 11.603,48.356 11.741,47.876 C11.832,47.558 11.762,47.365 11.475,47.177 C11.329,47.081 11.285,46.829 11.233,46.626 C11.068,46.557 10.967,46.453 11.021,46.223 C11.115,45.829 10.692,45.909 10.513,45.646 C10.144,46.084 9.801,46.490 9.463,46.898 C9.432,46.936 9.398,47.020 9.415,47.041 C9.703,47.380 9.417,47.580 9.239,47.809 C9.215,47.840 9.202,47.881 9.173,47.939 C9.364,47.968 9.534,47.994 9.729,48.023 C9.679,48.116 9.663,48.200 9.618,48.222 C9.301,48.379 9.199,48.670 9.044,48.962 C8.896,49.241 8.950,49.361 9.149,49.518 C9.216,49.570 9.276,49.630 9.268,49.623 C9.244,49.893 9.210,50.092 9.212,50.290 C9.215,50.628 9.141,50.699 8.825,50.613 C8.547,50.538 8.512,50.767 8.450,50.931 C8.410,51.035 8.432,51.162 8.422,51.383 C8.116,51.208 7.836,51.088 7.606,50.906 C7.207,50.591 6.723,50.607 6.271,50.501 C6.224,50.489 6.141,50.565 6.096,50.618 C5.661,51.120 5.073,51.334 4.461,51.522 C4.243,51.589 4.047,51.749 3.860,51.893 C3.615,52.080 3.390,52.293 3.131,52.516 C3.068,52.403 3.030,52.334 2.984,52.251 C2.922,52.287 2.837,52.310 2.801,52.364 C2.406,52.958 1.786,52.985 1.174,53.000 C0.787,53.010 0.399,52.962 0.000,52.940 C0.048,52.745 0.101,52.532 0.157,52.302 C0.274,52.292 0.388,52.282 0.510,52.271 C0.766,51.356 1.020,50.451 1.272,49.545 C1.282,49.508 1.295,49.444 1.278,49.431 C1.049,49.259 1.264,49.090 1.265,48.920 C1.269,48.451 1.660,48.319 1.930,48.080 C1.983,48.033 2.064,47.990 2.132,47.991 C2.413,47.996 2.623,47.945 2.585,47.588 C2.582,47.557 2.704,47.482 2.768,47.482 C2.860,47.483 2.954,47.528 3.043,47.566 C3.310,47.681 3.432,47.561 3.516,47.314 C3.574,47.147 3.644,46.959 3.768,46.843 C4.136,46.493 4.348,46.004 4.832,45.749 C5.082,45.618 5.261,45.350 5.458,45.157 C5.280,44.868 4.871,44.861 4.919,44.411 C5.283,44.754 5.404,44.510 5.610,44.273 C5.782,44.073 6.087,43.986 6.337,43.856 C6.410,43.818 6.552,43.826 6.567,43.782 C6.670,43.465 6.947,43.418 7.201,43.307 C7.300,43.264 7.368,43.093 7.400,42.967 C7.450,42.772 7.455,42.565 7.482,42.363 C7.520,42.083 7.637,41.876 7.956,41.849 C8.175,41.830 8.292,41.711 8.250,41.484 C8.209,41.265 8.160,41.047 8.099,40.834 C8.031,40.598 7.912,40.372 7.877,40.133 C7.839,39.871 7.798,39.648 7.439,39.604 C7.506,39.482 7.579,39.399 7.598,39.305 C7.628,39.157 7.688,38.920 7.619,38.863 C7.389,38.677 7.447,38.472 7.492,38.256 C7.555,37.957 7.699,37.659 7.438,37.375 C7.418,37.353 7.498,37.231 7.541,37.161 C7.618,37.036 7.702,36.915 7.783,36.792 C7.665,36.721 7.551,36.597 7.430,36.590 C7.064,36.568 6.893,36.387 6.836,36.041 C6.814,35.902 6.735,35.773 6.666,35.601 C6.551,35.683 6.480,35.733 6.403,35.787 C6.381,35.750 6.353,35.725 6.352,35.698 C6.304,34.854 6.230,34.008 6.472,33.179 C6.539,32.950 6.459,32.825 6.241,32.779 C6.126,32.754 5.989,32.784 5.894,32.731 C5.797,32.678 5.672,32.551 5.676,32.461 C5.686,32.236 5.597,32.121 5.404,32.048 C5.284,32.003 5.169,31.943 5.050,31.894 C4.412,31.631 4.210,31.154 4.556,30.542 C4.756,30.189 5.073,29.903 5.364,29.555 C5.660,29.905 5.906,30.198 6.153,30.491 C6.562,30.148 6.571,30.136 7.023,30.468 C7.338,30.699 7.651,30.858 8.061,30.791 C8.152,30.776 8.304,30.892 8.366,30.988 C8.637,31.409 8.886,31.844 9.157,32.299 C9.427,32.110 9.655,31.954 9.881,31.793 C10.228,31.548 10.569,31.549 10.930,31.776 C11.125,31.898 11.347,31.979 11.576,32.087 C11.431,32.373 11.414,32.682 11.657,32.942 C12.004,32.723 12.343,32.526 12.661,32.299 C12.748,32.237 12.844,32.048 12.810,31.984 C12.627,31.639 12.722,31.293 12.754,30.946 C12.759,30.894 12.750,30.840 12.743,30.719 Z" class="cls-2"/>
    <path d="M47.841,6.672 C47.808,6.846 47.757,6.898 47.578,6.844 C47.048,6.684 46.515,6.531 45.978,6.394 C45.815,6.352 45.797,6.289 45.825,6.136 C45.959,5.417 45.994,4.698 45.736,3.994 C45.570,3.541 45.317,3.147 44.933,2.846 C44.854,2.865 44.795,2.823 44.736,2.781 C43.695,2.039 42.549,1.915 41.331,2.181 C40.650,2.329 40.065,2.639 39.581,3.149 C39.179,3.573 38.958,4.062 38.965,4.652 C38.967,4.814 39.000,4.985 38.889,5.131 C38.889,5.182 38.878,5.236 38.890,5.285 C38.928,5.445 38.925,5.662 39.028,5.748 C39.165,5.862 39.299,5.650 39.435,5.588 C40.384,5.157 41.278,5.306 42.075,6.052 C42.656,5.438 43.380,5.243 44.186,5.408 C45.179,5.611 45.745,6.359 45.779,7.551 C45.815,8.771 45.789,9.994 45.799,11.215 C45.800,11.390 45.731,11.419 45.581,11.416 C45.098,11.409 44.613,11.405 44.130,11.418 C43.935,11.423 43.890,11.355 43.891,11.170 C43.899,10.176 43.897,9.182 43.893,8.188 C43.892,7.962 43.904,7.734 43.839,7.510 C43.777,7.294 43.647,7.173 43.425,7.159 C43.204,7.145 43.050,7.251 42.965,7.452 C42.858,7.706 42.859,7.978 42.857,8.246 C42.853,9.188 42.842,10.131 42.863,11.072 C42.870,11.370 42.773,11.434 42.503,11.420 C42.102,11.398 41.698,11.391 41.299,11.422 C41.006,11.445 40.970,11.330 40.974,11.075 C40.987,10.060 40.980,9.046 40.979,8.031 C40.979,7.866 40.977,7.702 40.938,7.538 C40.890,7.340 40.805,7.194 40.586,7.163 C40.365,7.132 40.207,7.224 40.095,7.408 C39.923,7.692 39.886,8.012 39.877,8.333 C39.853,9.226 39.950,10.110 40.149,10.980 C40.193,11.173 40.148,11.236 39.968,11.267 C39.513,11.346 39.059,11.433 38.606,11.523 C38.448,11.555 38.364,11.523 38.325,11.345 C38.069,10.179 37.917,9.004 38.012,7.806 C38.023,7.673 38.036,7.552 37.919,7.438 C37.227,6.760 36.932,5.910 36.887,4.956 C36.883,4.864 36.863,4.773 36.851,4.682 C36.915,4.214 36.930,3.739 37.085,3.285 C37.634,1.682 38.801,0.756 40.364,0.300 C41.766,-0.110 43.180,-0.063 44.587,0.312 C44.656,0.330 44.727,0.340 44.798,0.353 C45.275,0.563 45.762,0.746 46.189,1.063 C47.256,1.855 47.799,2.936 47.965,4.234 C48.070,5.054 47.994,5.864 47.841,6.672 ZM35.289,6.829 C34.784,6.664 34.269,6.529 33.755,6.396 C33.602,6.357 33.560,6.304 33.596,6.143 C33.666,5.832 33.711,5.515 33.682,5.193 C33.619,5.116 33.615,5.024 33.607,4.930 C33.496,3.544 32.718,2.585 31.366,2.223 C30.128,1.891 28.931,1.999 27.843,2.724 C27.020,3.271 26.640,4.053 26.734,5.058 C26.755,5.286 26.841,5.249 26.989,5.181 C27.427,4.980 27.880,4.892 28.368,4.973 C28.730,5.034 29.037,5.193 29.288,5.442 C29.475,5.627 29.592,5.590 29.772,5.438 C30.430,4.881 31.191,4.848 31.986,5.042 C32.076,5.064 32.163,5.102 32.210,5.193 C33.102,5.598 33.475,6.303 33.456,7.273 C33.434,8.381 33.446,9.489 33.456,10.597 C33.458,10.804 33.396,10.856 33.198,10.851 C32.704,10.837 32.209,10.835 31.716,10.852 C31.503,10.859 31.465,10.781 31.467,10.588 C31.475,9.615 31.470,8.642 31.468,7.668 C31.468,7.513 31.459,7.360 31.417,7.207 C31.345,6.949 31.165,6.830 30.918,6.826 C30.667,6.821 30.493,6.953 30.418,7.203 C30.369,7.364 30.357,7.528 30.357,7.694 C30.357,8.647 30.346,9.600 30.361,10.552 C30.366,10.805 30.287,10.862 30.053,10.852 C29.621,10.834 29.187,10.825 28.757,10.854 C28.471,10.873 28.391,10.773 28.436,10.512 C28.446,10.455 28.437,10.395 28.437,10.275 C28.061,10.629 27.729,10.942 27.353,11.296 C28.033,11.422 28.656,11.539 29.278,11.653 C30.440,11.865 31.602,12.076 32.764,12.288 C32.926,12.317 33.038,12.341 32.972,12.577 C32.857,12.983 32.788,13.403 32.718,13.820 C32.692,13.977 32.646,14.032 32.482,14.003 C30.418,13.642 28.353,13.286 26.288,12.930 C26.207,12.916 26.126,12.899 26.045,12.893 C25.822,12.874 25.679,12.779 25.600,12.549 C25.481,12.209 25.331,11.879 25.180,11.552 C25.110,11.399 25.125,11.300 25.247,11.175 C25.736,10.672 26.211,10.155 26.704,9.629 C26.016,9.141 25.779,8.437 25.733,7.643 C25.728,7.556 25.708,7.484 25.646,7.420 C25.032,6.785 24.726,6.014 24.654,5.140 C24.651,5.111 24.632,5.083 24.621,5.054 C24.612,4.229 24.710,3.429 25.092,2.680 C25.658,1.574 26.550,0.845 27.699,0.445 C29.607,-0.217 31.506,-0.153 33.337,0.704 C34.672,1.329 35.395,2.459 35.669,3.898 C35.751,4.327 35.742,4.762 35.787,5.193 C35.719,5.671 35.705,6.156 35.609,6.632 C35.567,6.838 35.513,6.902 35.289,6.829 ZM27.463,7.898 C27.533,8.201 27.788,8.400 28.087,8.396 C28.359,8.393 28.551,8.211 28.630,7.897 C28.686,7.670 28.681,7.445 28.624,7.222 C28.536,6.880 28.286,6.710 27.939,6.744 C27.600,6.777 27.413,7.059 27.418,7.557 C27.430,7.653 27.435,7.778 27.463,7.898 ZM22.577,11.979 C22.410,12.105 22.346,12.048 22.244,11.913 C21.660,11.127 21.070,10.344 20.476,9.566 C20.368,9.426 20.356,9.324 20.451,9.161 C21.132,8.001 21.317,6.727 21.261,5.404 C21.258,5.333 21.230,5.263 21.214,5.193 C21.138,5.112 21.134,5.006 21.113,4.906 C20.762,3.237 19.719,2.297 18.033,2.101 C17.145,1.997 16.294,2.084 15.487,2.486 C14.744,2.856 14.323,3.473 14.147,4.274 C14.125,4.372 14.141,4.485 14.041,4.553 C13.947,5.036 14.036,5.495 14.211,5.945 C14.269,6.095 14.324,6.112 14.445,5.998 C14.639,5.814 14.851,5.649 15.051,5.472 C15.164,5.372 15.241,5.362 15.346,5.502 C15.605,5.849 15.875,6.189 16.161,6.515 C16.298,6.671 16.264,6.727 16.105,6.831 C15.589,7.168 15.245,7.621 15.216,8.271 C15.170,9.274 15.763,9.897 16.768,9.880 C17.119,9.873 17.467,9.841 17.769,9.624 C18.086,9.396 18.186,8.906 17.977,8.604 C17.900,8.492 17.821,8.438 17.713,8.566 C17.707,8.574 17.698,8.581 17.690,8.587 C17.499,8.738 17.336,9.038 17.120,9.012 C16.932,8.989 16.773,8.714 16.602,8.550 C16.431,8.386 16.270,8.208 16.086,8.060 C15.887,7.902 15.879,7.797 16.077,7.614 C16.811,6.934 17.530,6.237 18.246,5.537 C18.390,5.396 18.474,5.357 18.631,5.527 C18.960,5.883 19.311,6.220 19.662,6.554 C19.783,6.669 19.821,6.743 19.666,6.859 C19.534,6.956 19.361,7.061 19.319,7.198 C19.272,7.356 19.491,7.451 19.579,7.584 C20.460,8.920 19.908,10.680 18.392,11.283 C17.296,11.719 16.176,11.711 15.080,11.285 C13.867,10.814 13.226,9.730 13.296,8.324 C13.307,8.100 13.259,7.939 13.108,7.772 C12.417,7.008 12.107,6.079 12.005,5.069 C11.959,3.668 12.324,2.434 13.343,1.414 C14.071,0.686 14.966,0.371 15.925,0.167 C16.305,0.086 16.690,0.028 17.080,0.025 C17.285,-0.005 17.489,-0.006 17.694,0.025 C18.679,0.105 19.660,0.199 20.565,0.652 C22.123,1.432 22.996,2.708 23.262,4.423 C23.282,4.556 23.305,4.688 23.326,4.820 C23.362,5.848 23.302,6.862 22.951,7.843 C22.849,8.126 22.729,8.398 22.596,8.664 C22.521,8.815 22.530,8.912 22.648,9.042 C23.120,9.561 23.572,10.097 24.042,10.618 C24.172,10.762 24.195,10.839 24.012,10.962 C23.525,11.288 23.045,11.626 22.577,11.979 Z" class="cls-3"/>
    <circle cx="32" cy="27" r="10" class="cls-4"/>
    <path d="M39.181,36.553 C39.089,36.508 38.996,36.471 38.913,36.419 C38.822,36.362 38.754,36.365 38.663,36.432 C38.029,36.893 37.348,37.274 36.629,37.586 C36.302,37.728 35.962,37.840 35.631,37.972 C35.584,37.990 35.548,38.040 35.513,38.080 C35.495,38.100 35.487,38.131 35.479,38.158 C35.433,38.312 35.349,38.422 35.176,38.438 C35.136,38.442 35.094,38.451 35.058,38.468 C34.829,38.572 34.632,38.531 34.453,38.356 C34.423,38.327 34.355,38.318 34.310,38.326 C33.490,38.486 32.664,38.574 31.829,38.547 C31.504,38.537 31.180,38.509 30.856,38.494 C30.817,38.493 30.764,38.518 30.739,38.548 C30.669,38.634 30.614,38.732 30.548,38.821 C30.466,38.931 30.359,38.916 30.308,38.787 C30.269,38.687 30.230,38.587 30.204,38.484 C30.186,38.414 30.147,38.397 30.084,38.387 C29.005,38.218 27.977,37.886 26.995,37.411 C26.936,37.383 26.878,37.348 26.816,37.330 C26.766,37.315 26.700,37.300 26.659,37.321 C26.450,37.429 26.255,37.437 26.067,37.279 C26.052,37.266 26.032,37.256 26.013,37.249 C25.808,37.173 25.712,37.022 25.715,36.807 C25.717,36.713 25.669,36.663 25.593,36.613 C24.657,35.988 23.826,35.246 23.114,34.373 C23.036,34.276 22.962,34.243 22.845,34.283 C22.768,34.310 22.685,34.328 22.604,34.331 C22.559,34.333 22.498,34.308 22.471,34.274 C22.448,34.245 22.452,34.180 22.467,34.140 C22.518,34.012 22.630,33.883 22.621,33.763 C22.612,33.646 22.479,33.540 22.404,33.427 C21.820,32.559 21.365,31.628 21.031,30.637 C21.013,30.584 20.953,30.543 20.907,30.504 C20.883,30.484 20.847,30.478 20.816,30.467 C20.679,30.418 20.579,30.339 20.566,30.181 C20.563,30.144 20.553,30.107 20.538,30.074 C20.429,29.834 20.465,29.623 20.654,29.435 C20.678,29.410 20.685,29.352 20.677,29.313 C20.519,28.535 20.442,27.748 20.447,26.954 C20.449,26.593 20.484,26.231 20.509,25.870 C20.514,25.802 20.508,25.757 20.443,25.719 C20.351,25.666 20.264,25.603 20.178,25.540 C20.072,25.463 20.084,25.351 20.204,25.304 C20.300,25.266 20.396,25.227 20.496,25.204 C20.585,25.184 20.606,25.132 20.618,25.050 C20.752,24.185 21.002,23.352 21.339,22.545 C21.446,22.288 21.571,22.038 21.682,21.782 C21.699,21.744 21.700,21.683 21.681,21.647 C21.568,21.438 21.566,21.242 21.724,21.055 C21.740,21.037 21.750,21.013 21.759,20.990 C21.835,20.793 21.980,20.704 22.187,20.707 C22.276,20.709 22.332,20.668 22.384,20.590 C23.012,19.647 23.760,18.809 24.640,18.093 C24.726,18.023 24.754,17.959 24.721,17.855 C24.693,17.769 24.675,17.679 24.669,17.589 C24.665,17.548 24.688,17.489 24.719,17.465 C24.750,17.442 24.812,17.440 24.852,17.452 C24.922,17.473 24.994,17.503 25.052,17.547 C25.174,17.639 25.265,17.611 25.385,17.525 C25.933,17.130 26.516,16.788 27.134,16.515 C27.543,16.335 27.965,16.183 28.380,16.015 C28.421,15.998 28.459,15.961 28.485,15.924 C28.512,15.885 28.521,15.833 28.539,15.787 C28.589,15.661 28.663,15.572 28.811,15.554 C28.912,15.542 29.011,15.506 29.109,15.475 C29.230,15.436 29.335,15.458 29.426,15.545 C29.537,15.651 29.654,15.682 29.813,15.647 C30.484,15.500 31.167,15.441 31.853,15.434 C32.275,15.429 32.699,15.469 33.121,15.496 C33.195,15.501 33.242,15.494 33.281,15.423 C33.330,15.334 33.390,15.249 33.455,15.171 C33.485,15.135 33.544,15.100 33.585,15.105 C33.625,15.110 33.674,15.159 33.693,15.201 C33.738,15.302 33.763,15.412 33.808,15.513 C33.824,15.549 33.870,15.589 33.907,15.595 C34.842,15.737 35.736,16.023 36.607,16.386 C36.803,16.468 36.990,16.572 37.185,16.656 C37.234,16.678 37.309,16.686 37.353,16.664 C37.554,16.561 37.742,16.548 37.923,16.704 C37.941,16.720 37.965,16.730 37.988,16.738 C38.190,16.816 38.295,16.960 38.287,17.179 C38.283,17.280 38.341,17.329 38.419,17.381 C39.355,18.006 40.185,18.749 40.896,19.623 C40.966,19.709 41.031,19.749 41.143,19.708 C41.223,19.678 41.310,19.665 41.396,19.658 C41.438,19.655 41.501,19.670 41.522,19.700 C41.547,19.736 41.552,19.801 41.538,19.845 C41.513,19.922 41.475,19.997 41.429,20.065 C41.359,20.169 41.377,20.250 41.449,20.349 C41.980,21.082 42.401,21.875 42.736,22.715 C42.822,22.932 42.894,23.156 42.978,23.374 C42.994,23.414 43.036,23.447 43.071,23.477 C43.092,23.495 43.123,23.501 43.150,23.510 C43.313,23.557 43.429,23.646 43.445,23.830 C43.448,23.870 43.460,23.911 43.477,23.948 C43.577,24.175 43.526,24.367 43.358,24.541 C43.330,24.572 43.321,24.639 43.330,24.685 C43.487,25.505 43.578,26.332 43.549,27.168 C43.538,27.493 43.511,27.817 43.497,28.142 C43.495,28.181 43.522,28.233 43.553,28.258 C43.639,28.327 43.736,28.383 43.825,28.448 C43.930,28.525 43.919,28.638 43.800,28.686 C43.671,28.738 43.498,28.748 43.421,28.840 C43.343,28.934 43.362,29.106 43.336,29.244 C43.200,29.956 42.986,30.646 42.719,31.319 C42.605,31.608 42.461,31.886 42.338,32.172 C42.316,32.224 42.306,32.303 42.330,32.350 C42.434,32.558 42.435,32.749 42.280,32.932 C42.265,32.950 42.254,32.974 42.245,32.997 C42.169,33.190 42.028,33.287 41.819,33.280 C41.723,33.277 41.669,33.325 41.615,33.406 C40.991,34.342 40.248,35.174 39.375,35.885 C39.278,35.965 39.247,36.038 39.287,36.155 C39.313,36.232 39.325,36.315 39.338,36.396 C39.356,36.498 39.271,36.578 39.181,36.553 ZM29.857,26.560 C29.955,26.362 29.953,26.332 29.776,26.239 C29.522,26.107 29.268,25.971 29.003,25.863 C28.546,25.677 28.074,25.593 27.580,25.706 C27.363,25.755 27.359,25.751 27.254,25.552 C26.920,24.920 26.449,24.409 25.854,24.022 C25.266,23.640 24.657,23.291 24.062,22.920 C23.736,22.716 23.403,22.602 23.026,22.760 C22.987,22.776 22.944,22.812 22.927,22.850 C22.599,23.549 22.372,24.281 22.215,25.036 C22.078,25.696 22.007,26.364 22.028,27.036 C22.044,27.563 22.111,28.090 22.160,28.616 C22.164,28.657 22.196,28.706 22.230,28.731 C22.524,28.948 22.839,28.968 23.188,28.869 C23.957,28.650 24.735,28.467 25.485,28.181 C26.063,27.960 26.569,27.633 26.998,27.187 C27.201,26.978 27.197,26.979 27.462,27.113 C27.742,27.254 28.044,27.317 28.355,27.323 C28.827,27.333 29.286,27.246 29.739,27.125 C29.799,27.109 29.835,27.088 29.831,27.020 C29.827,26.968 29.830,26.915 29.830,26.851 C27.301,26.515 24.780,26.179 22.256,25.842 C22.270,25.740 22.282,25.650 22.295,25.552 C24.825,25.889 27.342,26.225 29.857,26.560 ZM34.149,27.425 C34.047,27.631 34.050,27.652 34.227,27.750 C34.395,27.843 34.564,27.937 34.739,28.017 C35.291,28.269 35.859,28.426 36.470,28.272 C36.601,28.239 36.674,28.282 36.734,28.401 C37.067,29.059 37.555,29.582 38.170,29.979 C38.751,30.355 39.351,30.703 39.940,31.069 C40.260,31.268 40.590,31.388 40.963,31.233 C41.010,31.214 41.062,31.174 41.082,31.130 C41.407,30.426 41.638,29.692 41.793,28.933 C41.927,28.277 41.997,27.613 41.976,26.946 C41.960,26.418 41.892,25.892 41.845,25.366 C41.842,25.333 41.825,25.292 41.800,25.273 C41.543,25.080 41.257,25.001 40.942,25.087 C40.364,25.244 39.787,25.404 39.212,25.571 C38.750,25.705 38.300,25.871 37.880,26.111 C37.526,26.313 37.222,26.575 36.942,26.868 C36.813,27.003 36.806,27.005 36.636,26.923 C36.614,26.912 36.592,26.900 36.570,26.889 C36.271,26.739 35.952,26.670 35.618,26.666 C35.167,26.660 34.730,26.750 34.293,26.852 C34.165,26.883 34.174,26.960 34.167,27.049 C34.158,27.162 34.244,27.145 34.308,27.153 C36.328,27.423 38.349,27.692 40.370,27.962 C40.508,27.980 40.646,27.998 40.784,28.017 C41.104,28.059 41.424,28.102 41.751,28.145 C41.738,28.246 41.726,28.334 41.713,28.433 C39.186,28.096 36.665,27.761 34.149,27.425 ZM33.444,17.280 C33.107,19.810 32.771,22.332 32.435,24.851 C32.649,24.945 32.659,24.944 32.760,24.764 C32.849,24.603 32.937,24.441 33.015,24.274 C33.275,23.715 33.435,23.140 33.279,22.519 C33.248,22.393 33.289,22.322 33.404,22.264 C34.067,21.925 34.597,21.433 34.996,20.808 C35.371,20.221 35.718,19.616 36.089,19.026 C36.288,18.708 36.383,18.385 36.238,18.023 C36.221,17.980 36.183,17.933 36.142,17.914 C35.444,17.586 34.713,17.358 33.958,17.202 C33.298,17.066 32.631,16.995 31.960,17.016 C31.432,17.032 30.906,17.099 30.379,17.147 C30.346,17.149 30.304,17.165 30.285,17.189 C30.085,17.453 30.012,17.747 30.102,18.071 C30.262,18.649 30.410,19.230 30.591,19.801 C30.715,20.195 30.868,20.582 31.040,20.958 C31.240,21.397 31.559,21.756 31.909,22.084 C31.984,22.154 32.006,22.221 31.953,22.311 C31.925,22.357 31.904,22.406 31.881,22.454 C31.744,22.749 31.677,23.060 31.674,23.386 C31.671,23.837 31.755,24.275 31.865,24.710 C31.886,24.793 31.920,24.831 32.004,24.825 C32.048,24.821 32.093,24.822 32.148,24.820 C32.485,22.291 32.821,19.770 33.157,17.242 C33.257,17.255 33.345,17.267 33.444,17.280 ZM31.569,29.139 C31.362,29.042 31.341,29.046 31.243,29.223 C31.153,29.389 31.062,29.555 30.983,29.726 C30.724,30.286 30.569,30.862 30.728,31.482 C30.758,31.601 30.714,31.666 30.611,31.718 C29.940,32.061 29.404,32.557 29.002,33.190 C28.622,33.790 28.268,34.406 27.891,35.007 C27.699,35.313 27.632,35.625 27.766,35.966 C27.783,36.009 27.821,36.058 27.861,36.075 C28.156,36.199 28.448,36.334 28.753,36.428 C29.203,36.567 29.658,36.703 30.121,36.790 C30.600,36.880 31.089,36.925 31.576,36.962 C32.267,37.016 32.954,36.955 33.637,36.842 C33.666,36.837 33.701,36.822 33.718,36.800 C33.908,36.552 33.996,36.270 33.913,35.966 C33.721,35.257 33.523,34.550 33.308,33.848 C33.078,33.099 32.692,32.441 32.102,31.914 C32.020,31.841 31.997,31.766 32.054,31.665 C32.184,31.429 32.272,31.179 32.306,30.910 C32.380,30.335 32.267,29.781 32.122,29.230 C32.116,29.205 32.075,29.176 32.046,29.171 C31.988,29.161 31.927,29.167 31.857,29.166 C31.519,31.700 31.183,34.221 30.847,36.747 C30.748,36.733 30.660,36.722 30.561,36.708 C30.898,34.178 31.234,31.657 31.569,29.139 ZM39.907,21.146 C37.864,22.711 35.844,24.258 33.822,25.807 C33.838,25.833 33.860,25.856 33.867,25.882 C33.903,26.006 33.979,26.005 34.083,25.968 C34.241,25.912 34.405,25.869 34.564,25.815 C35.189,25.601 35.743,25.289 36.093,24.699 C36.143,24.613 36.217,24.600 36.305,24.628 C36.391,24.655 36.477,24.685 36.564,24.708 C37.264,24.890 37.966,24.868 38.664,24.706 C39.311,24.555 39.953,24.381 40.600,24.229 C40.939,24.149 41.191,23.971 41.336,23.652 C41.355,23.610 41.362,23.548 41.347,23.506 C41.273,23.310 41.192,23.117 41.109,22.925 C40.733,22.055 40.225,21.266 39.616,20.543 C39.092,19.921 38.500,19.371 37.838,18.898 C37.799,18.870 37.740,18.842 37.697,18.849 C37.376,18.903 37.119,19.055 36.959,19.348 C36.581,20.039 36.194,20.725 35.832,21.424 C35.507,22.050 35.375,22.725 35.410,23.429 C35.416,23.561 35.370,23.625 35.246,23.659 C34.939,23.743 34.672,23.901 34.433,24.108 C34.077,24.416 33.813,24.797 33.573,25.197 C33.459,25.389 33.461,25.390 33.639,25.558 C35.659,24.011 37.682,22.463 39.717,20.906 C39.777,20.982 39.835,21.055 39.907,21.146 ZM30.192,28.198 C30.170,28.163 30.150,28.141 30.142,28.115 C30.103,27.994 30.033,27.977 29.917,28.022 C29.765,28.082 29.604,28.119 29.448,28.171 C28.823,28.382 28.269,28.695 27.916,29.282 C27.863,29.371 27.791,29.389 27.696,29.361 C27.558,29.320 27.420,29.280 27.280,29.248 C26.735,29.120 26.184,29.113 25.640,29.229 C24.926,29.380 24.220,29.567 23.509,29.729 C23.137,29.813 22.829,29.970 22.666,30.335 C22.647,30.378 22.640,30.441 22.657,30.482 C22.807,30.838 22.948,31.198 23.121,31.542 C23.497,32.291 23.970,32.976 24.526,33.604 C25.026,34.170 25.580,34.676 26.197,35.111 C26.224,35.130 26.264,35.145 26.294,35.140 C26.587,35.095 26.846,34.976 26.995,34.711 C27.394,34.004 27.791,33.295 28.167,32.575 C28.495,31.947 28.629,31.269 28.594,30.559 C28.587,30.413 28.620,30.384 28.758,30.328 C28.962,30.243 29.172,30.162 29.355,30.041 C29.826,29.731 30.140,29.277 30.424,28.800 C30.542,28.601 30.539,28.599 30.363,28.432 C28.342,29.977 26.320,31.524 24.286,33.080 C24.225,33.003 24.167,32.930 24.107,32.854 C26.145,31.294 28.167,29.747 30.192,28.198 ZM33.198,28.807 C33.169,28.826 33.147,28.847 33.121,28.856 C32.989,28.899 32.989,28.976 33.033,29.092 C33.107,29.288 33.154,29.493 33.227,29.689 C33.440,30.259 33.748,30.761 34.288,31.083 C34.384,31.140 34.391,31.216 34.363,31.315 C34.311,31.496 34.262,31.679 34.224,31.864 C34.074,32.609 34.203,33.337 34.375,34.059 C34.500,34.582 34.643,35.100 34.770,35.622 C34.847,35.937 35.019,36.169 35.308,36.320 C35.386,36.361 35.450,36.369 35.527,36.333 C35.952,36.137 36.385,35.958 36.800,35.742 C37.470,35.393 38.077,34.949 38.640,34.447 C39.184,33.961 39.675,33.425 40.096,32.828 C40.124,32.788 40.149,32.730 40.142,32.685 C40.093,32.373 39.942,32.118 39.662,31.962 C38.974,31.581 38.286,31.197 37.588,30.834 C36.956,30.505 36.275,30.367 35.562,30.404 C35.439,30.410 35.380,30.363 35.335,30.249 C35.254,30.044 35.172,29.834 35.052,29.651 C34.743,29.173 34.284,28.858 33.805,28.572 C33.609,28.455 33.608,28.457 33.443,28.624 C34.990,30.647 36.536,32.671 38.097,34.714 C38.012,34.778 37.937,34.833 37.852,34.896 C36.293,32.857 34.746,30.833 33.198,28.807 ZM30.803,25.180 C30.831,25.164 30.850,25.147 30.872,25.140 C31.003,25.098 31.020,25.022 30.971,24.897 C30.898,24.706 30.852,24.504 30.781,24.312 C30.567,23.733 30.257,23.224 29.705,22.901 C29.619,22.851 29.609,22.775 29.637,22.688 C29.664,22.601 29.695,22.516 29.717,22.429 C29.899,21.733 29.878,21.035 29.717,20.340 C29.559,19.657 29.387,18.977 29.215,18.297 C29.151,18.043 28.995,17.851 28.774,17.710 C28.657,17.634 28.543,17.604 28.410,17.677 C28.328,17.723 28.235,17.746 28.148,17.784 C27.010,18.269 25.990,18.934 25.096,19.791 C24.653,20.216 24.248,20.673 23.898,21.178 C23.876,21.209 23.855,21.252 23.860,21.286 C23.908,21.609 24.062,21.864 24.349,22.030 C24.633,22.195 24.916,22.360 25.203,22.519 C25.790,22.846 26.370,23.187 27.015,23.398 C27.478,23.550 27.953,23.604 28.437,23.587 C28.588,23.581 28.611,23.607 28.669,23.747 C28.753,23.951 28.837,24.160 28.956,24.344 C29.265,24.821 29.727,25.133 30.204,25.421 C30.392,25.534 30.395,25.530 30.550,25.379 C30.554,25.374 30.555,25.364 30.559,25.351 C29.016,23.332 27.470,21.311 25.910,19.271 C25.991,19.210 26.065,19.153 26.148,19.091 C27.708,21.131 29.255,23.154 30.803,25.180 ZM32.642,27.078 C32.692,26.723 32.451,26.405 32.095,26.355 C31.732,26.304 31.412,26.544 31.362,26.905 C31.312,27.267 31.554,27.586 31.915,27.634 C32.279,27.683 32.592,27.444 32.642,27.078 Z" class="cls-5"/>
    <path d="M38.050,37.307 C37.964,37.251 37.876,37.204 37.799,37.143 C37.715,37.076 37.647,37.072 37.549,37.127 C36.867,37.514 36.147,37.815 35.398,38.043 C35.057,38.147 34.706,38.220 34.362,38.313 C34.313,38.326 34.272,38.371 34.232,38.407 C34.212,38.425 34.201,38.455 34.189,38.481 C34.127,38.628 34.031,38.728 33.857,38.725 C33.817,38.724 33.774,38.729 33.736,38.741 C33.497,38.818 33.306,38.755 33.148,38.561 C33.121,38.529 33.055,38.512 33.009,38.515 C32.177,38.581 31.346,38.574 30.519,38.453 C30.198,38.406 29.879,38.341 29.558,38.290 C29.520,38.284 29.464,38.303 29.436,38.331 C29.357,38.408 29.291,38.499 29.216,38.580 C29.122,38.680 29.017,38.653 28.981,38.518 C28.953,38.415 28.926,38.311 28.911,38.206 C28.902,38.135 28.865,38.113 28.803,38.096 C27.751,37.805 26.767,37.359 25.845,36.776 C25.790,36.741 25.737,36.700 25.677,36.674 C25.629,36.654 25.565,36.631 25.522,36.648 C25.302,36.732 25.107,36.718 24.939,36.539 C24.925,36.524 24.907,36.513 24.888,36.503 C24.693,36.404 24.615,36.243 24.643,36.030 C24.655,35.937 24.613,35.882 24.543,35.824 C23.684,35.097 22.942,34.265 22.335,33.316 C22.268,33.211 22.198,33.170 22.077,33.197 C21.998,33.214 21.914,33.223 21.833,33.217 C21.788,33.213 21.729,33.182 21.707,33.145 C21.687,33.114 21.698,33.049 21.718,33.012 C21.783,32.890 21.909,32.775 21.914,32.654 C21.918,32.537 21.798,32.417 21.736,32.296 C21.254,31.368 20.908,30.391 20.689,29.368 C20.677,29.314 20.622,29.266 20.581,29.222 C20.560,29.199 20.524,29.189 20.495,29.175 C20.364,29.111 20.273,29.021 20.279,28.862 C20.280,28.826 20.275,28.787 20.263,28.753 C20.182,28.502 20.242,28.296 20.451,28.131 C20.478,28.110 20.491,28.052 20.488,28.013 C20.419,27.221 20.432,26.431 20.527,25.643 C20.570,25.284 20.645,24.929 20.712,24.573 C20.724,24.505 20.724,24.460 20.663,24.415 C20.577,24.352 20.498,24.279 20.420,24.207 C20.324,24.119 20.349,24.009 20.473,23.975 C20.572,23.949 20.672,23.921 20.774,23.910 C20.865,23.899 20.891,23.850 20.913,23.771 C21.144,22.926 21.487,22.127 21.914,21.364 C22.050,21.120 22.202,20.886 22.342,20.645 C22.363,20.608 22.370,20.548 22.355,20.510 C22.267,20.290 22.287,20.095 22.466,19.927 C22.483,19.910 22.496,19.888 22.507,19.866 C22.605,19.680 22.760,19.607 22.965,19.634 C23.053,19.645 23.113,19.612 23.174,19.540 C23.905,18.674 24.743,17.927 25.699,17.315 C25.792,17.256 25.827,17.195 25.806,17.087 C25.788,16.999 25.781,16.907 25.784,16.818 C25.786,16.776 25.815,16.720 25.849,16.700 C25.882,16.681 25.943,16.686 25.983,16.703 C26.050,16.731 26.117,16.769 26.170,16.819 C26.281,16.924 26.374,16.907 26.503,16.835 C27.093,16.505 27.711,16.231 28.356,16.030 C28.783,15.898 29.219,15.795 29.650,15.675 C29.693,15.663 29.736,15.631 29.765,15.597 C29.796,15.560 29.812,15.511 29.835,15.467 C29.898,15.347 29.982,15.267 30.132,15.266 C30.233,15.265 30.335,15.241 30.436,15.221 C30.561,15.196 30.663,15.230 30.744,15.327 C30.841,15.445 30.955,15.488 31.116,15.472 C31.799,15.403 32.485,15.422 33.167,15.492 C33.587,15.535 34.003,15.623 34.420,15.698 C34.493,15.711 34.540,15.709 34.587,15.644 C34.646,15.561 34.715,15.483 34.789,15.413 C34.823,15.381 34.885,15.352 34.925,15.362 C34.965,15.371 35.007,15.426 35.021,15.470 C35.055,15.575 35.068,15.687 35.101,15.792 C35.112,15.830 35.153,15.875 35.189,15.885 C36.103,16.133 36.958,16.518 37.782,16.977 C37.968,17.081 38.142,17.205 38.326,17.312 C38.372,17.339 38.445,17.356 38.492,17.338 C38.704,17.259 38.892,17.268 39.053,17.443 C39.069,17.461 39.092,17.473 39.114,17.484 C39.306,17.585 39.394,17.740 39.361,17.957 C39.346,18.056 39.398,18.111 39.470,18.171 C40.328,18.899 41.069,19.731 41.676,20.680 C41.736,20.774 41.796,20.821 41.912,20.793 C41.994,20.773 42.083,20.769 42.168,20.772 C42.211,20.774 42.272,20.796 42.289,20.828 C42.310,20.867 42.308,20.932 42.289,20.974 C42.256,21.048 42.209,21.118 42.156,21.180 C42.074,21.275 42.083,21.358 42.143,21.465 C42.587,22.253 42.915,23.089 43.153,23.962 C43.214,24.187 43.260,24.417 43.319,24.643 C43.330,24.686 43.368,24.723 43.399,24.757 C43.418,24.777 43.448,24.787 43.475,24.798 C43.631,24.864 43.736,24.965 43.731,25.149 C43.729,25.190 43.737,25.232 43.749,25.271 C43.823,25.507 43.751,25.692 43.564,25.847 C43.532,25.874 43.516,25.940 43.519,25.986 C43.582,26.819 43.579,27.651 43.456,28.478 C43.408,28.800 43.344,29.119 43.293,29.440 C43.287,29.478 43.307,29.534 43.335,29.562 C43.413,29.640 43.503,29.706 43.584,29.781 C43.680,29.870 43.656,29.981 43.532,30.015 C43.398,30.051 43.225,30.042 43.138,30.125 C43.050,30.209 43.049,30.383 43.008,30.516 C42.792,31.209 42.501,31.870 42.160,32.508 C42.013,32.782 41.839,33.042 41.684,33.312 C41.656,33.362 41.637,33.439 41.656,33.488 C41.735,33.707 41.715,33.897 41.540,34.061 C41.523,34.077 41.510,34.100 41.498,34.121 C41.400,34.305 41.250,34.385 41.043,34.354 C40.948,34.340 40.888,34.381 40.825,34.456 C40.099,35.316 39.267,36.057 38.319,36.665 C38.213,36.733 38.174,36.803 38.200,36.923 C38.218,37.003 38.220,37.086 38.224,37.168 C38.230,37.272 38.137,37.341 38.050,37.307 ZM29.921,26.319 C30.041,26.134 30.042,26.104 29.876,25.992 C29.639,25.831 29.402,25.667 29.151,25.530 C28.719,25.293 28.259,25.156 27.756,25.212 C27.534,25.237 27.531,25.233 27.449,25.023 C27.189,24.357 26.779,23.795 26.232,23.344 C25.691,22.897 25.125,22.481 24.577,22.045 C24.276,21.806 23.958,21.655 23.566,21.768 C23.525,21.780 23.478,21.811 23.456,21.847 C23.052,22.504 22.743,23.206 22.501,23.938 C22.290,24.578 22.143,25.234 22.088,25.903 C22.045,26.430 22.051,26.960 22.040,27.489 C22.039,27.529 22.066,27.582 22.097,27.611 C22.364,27.859 22.675,27.915 23.033,27.856 C23.821,27.726 24.616,27.633 25.393,27.434 C25.992,27.280 26.532,27.012 27.009,26.618 C27.234,26.433 27.230,26.434 27.479,26.597 C27.741,26.769 28.034,26.866 28.342,26.907 C28.809,26.970 29.275,26.936 29.740,26.868 C29.801,26.859 29.839,26.842 29.842,26.774 C29.845,26.721 29.854,26.669 29.861,26.606 C27.387,25.984 24.920,25.364 22.451,24.744 C22.476,24.644 22.498,24.555 22.522,24.460 C24.997,25.082 27.460,25.701 29.921,26.319 ZM34.087,27.667 C33.962,27.859 33.963,27.881 34.127,27.998 C34.284,28.109 34.441,28.222 34.606,28.321 C35.125,28.635 35.672,28.855 36.297,28.771 C36.430,28.753 36.499,28.804 36.545,28.929 C36.800,29.621 37.226,30.196 37.792,30.660 C38.327,31.100 38.883,31.513 39.427,31.944 C39.723,32.178 40.036,32.335 40.425,32.223 C40.473,32.209 40.529,32.176 40.555,32.134 C40.957,31.472 41.270,30.769 41.510,30.032 C41.717,29.396 41.863,28.744 41.918,28.079 C41.962,27.553 41.954,27.023 41.966,26.494 C41.967,26.462 41.955,26.418 41.933,26.397 C41.700,26.176 41.424,26.065 41.101,26.115 C40.510,26.205 39.918,26.298 39.328,26.399 C38.853,26.479 38.387,26.594 37.943,26.785 C37.569,26.945 37.236,27.170 36.925,27.430 C36.781,27.550 36.774,27.550 36.615,27.449 C36.594,27.436 36.574,27.422 36.553,27.409 C36.273,27.226 35.964,27.121 35.633,27.079 C35.185,27.022 34.741,27.061 34.295,27.114 C34.164,27.129 34.164,27.207 34.147,27.294 C34.125,27.406 34.213,27.399 34.276,27.414 C36.252,27.912 38.229,28.409 40.207,28.906 C40.342,28.940 40.477,28.973 40.612,29.007 C40.925,29.086 41.238,29.165 41.558,29.245 C41.534,29.344 41.512,29.430 41.488,29.527 C39.015,28.905 36.549,28.285 34.087,27.667 ZM34.538,17.507 C33.916,19.982 33.296,22.450 32.676,24.914 C32.878,25.032 32.889,25.032 33.009,24.865 C33.116,24.715 33.222,24.564 33.318,24.407 C33.640,23.881 33.863,23.328 33.780,22.693 C33.763,22.565 33.812,22.499 33.932,22.454 C34.630,22.192 35.212,21.763 35.679,21.188 C36.119,20.648 36.532,20.086 36.968,19.541 C37.202,19.249 37.333,18.939 37.230,18.562 C37.218,18.518 37.185,18.467 37.147,18.443 C36.490,18.038 35.790,17.728 35.058,17.488 C34.418,17.278 33.763,17.131 33.093,17.076 C32.567,17.032 32.037,17.039 31.508,17.026 C31.475,17.025 31.431,17.036 31.410,17.058 C31.181,17.297 31.076,17.581 31.128,17.913 C31.221,18.505 31.303,19.100 31.417,19.688 C31.496,20.093 31.604,20.495 31.732,20.888 C31.881,21.347 32.157,21.740 32.468,22.105 C32.534,22.183 32.548,22.253 32.485,22.336 C32.453,22.378 32.426,22.425 32.398,22.470 C32.228,22.748 32.126,23.049 32.087,23.372 C32.032,23.820 32.066,24.264 32.125,24.709 C32.137,24.794 32.166,24.836 32.251,24.839 C32.295,24.841 32.339,24.846 32.394,24.851 C33.016,22.376 33.636,19.909 34.258,17.436 C34.355,17.461 34.441,17.482 34.538,17.507 ZM31.329,29.076 C31.135,28.956 31.113,28.958 30.996,29.123 C30.887,29.277 30.778,29.432 30.680,29.593 C30.359,30.119 30.140,30.675 30.227,31.309 C30.244,31.430 30.193,31.489 30.085,31.530 C29.379,31.794 28.790,32.226 28.319,32.810 C27.873,33.362 27.452,33.934 27.009,34.489 C26.783,34.771 26.682,35.073 26.775,35.427 C26.787,35.472 26.819,35.525 26.858,35.547 C27.137,35.703 27.412,35.870 27.703,35.998 C28.135,36.188 28.572,36.375 29.021,36.513 C29.487,36.657 29.968,36.757 30.448,36.850 C31.128,36.981 31.818,36.999 32.509,36.964 C32.538,36.963 32.575,36.952 32.594,36.932 C32.811,36.707 32.930,36.436 32.883,36.125 C32.773,35.399 32.656,34.674 32.522,33.952 C32.378,33.182 32.070,32.484 31.543,31.894 C31.470,31.812 31.456,31.735 31.524,31.641 C31.680,31.421 31.796,31.183 31.860,30.919 C31.999,30.356 31.950,29.793 31.868,29.230 C31.865,29.204 31.827,29.170 31.799,29.162 C31.742,29.146 31.681,29.144 31.612,29.136 C30.989,31.615 30.369,34.082 29.748,36.553 C29.651,36.528 29.565,36.507 29.468,36.482 C30.090,34.007 30.710,31.540 31.329,29.076 ZM40.520,22.082 C38.313,23.404 36.130,24.712 33.946,26.021 C33.959,26.050 33.978,26.074 33.982,26.102 C34.004,26.228 34.080,26.236 34.187,26.211 C34.350,26.173 34.518,26.150 34.682,26.113 C35.327,25.972 35.913,25.725 36.328,25.178 C36.387,25.099 36.462,25.094 36.547,25.132 C36.629,25.169 36.711,25.208 36.795,25.241 C37.470,25.501 38.170,25.559 38.882,25.477 C39.542,25.401 40.199,25.301 40.859,25.223 C41.205,25.182 41.476,25.034 41.655,24.734 C41.679,24.694 41.694,24.633 41.683,24.590 C41.632,24.387 41.574,24.186 41.513,23.985 C41.238,23.078 40.823,22.237 40.300,21.449 C39.850,20.772 39.324,20.158 38.720,19.614 C38.684,19.581 38.629,19.547 38.585,19.549 C38.261,19.565 37.988,19.688 37.796,19.961 C37.342,20.604 36.880,21.242 36.440,21.895 C36.046,22.480 35.839,23.136 35.793,23.839 C35.784,23.971 35.731,24.030 35.604,24.050 C35.290,24.098 35.006,24.225 34.745,24.403 C34.357,24.668 34.051,25.017 33.768,25.387 C33.632,25.565 33.635,25.567 33.792,25.753 C35.975,24.446 38.160,23.138 40.359,21.821 C40.410,21.904 40.459,21.983 40.520,22.082 ZM30.068,27.985 C30.050,27.948 30.032,27.924 30.027,27.897 C30.002,27.772 29.935,27.747 29.815,27.779 C29.657,27.821 29.492,27.840 29.332,27.874 C28.686,28.013 28.101,28.260 27.684,28.804 C27.621,28.886 27.547,28.896 27.455,28.857 C27.323,28.801 27.190,28.746 27.055,28.697 C26.528,28.509 25.982,28.439 25.428,28.492 C24.702,28.562 23.979,28.668 23.254,28.747 C22.875,28.788 22.551,28.910 22.348,29.254 C22.324,29.294 22.309,29.356 22.322,29.399 C22.430,29.769 22.530,30.143 22.663,30.505 C22.952,31.291 23.343,32.026 23.824,32.713 C24.257,33.332 24.750,33.897 25.314,34.400 C25.338,34.421 25.376,34.441 25.407,34.440 C25.703,34.428 25.974,34.339 26.152,34.093 C26.628,33.436 27.103,32.777 27.559,32.104 C27.956,31.517 28.166,30.858 28.212,30.150 C28.222,30.004 28.258,29.979 28.401,29.938 C28.613,29.878 28.831,29.820 29.027,29.721 C29.530,29.467 29.894,29.051 30.229,28.610 C30.370,28.425 30.367,28.423 30.211,28.237 C28.028,29.543 25.843,30.850 23.645,32.165 C23.594,32.082 23.545,32.003 23.493,31.920 C25.696,30.602 27.880,29.294 30.068,27.985 ZM32.985,28.931 C32.954,28.947 32.930,28.966 32.903,28.971 C32.767,28.999 32.759,29.076 32.789,29.196 C32.840,29.399 32.863,29.608 32.914,29.811 C33.061,30.402 33.310,30.935 33.810,31.316 C33.899,31.383 33.897,31.460 33.858,31.555 C33.785,31.730 33.716,31.906 33.658,32.085 C33.423,32.808 33.469,33.546 33.558,34.283 C33.623,34.817 33.706,35.348 33.774,35.881 C33.814,36.203 33.959,36.452 34.228,36.636 C34.301,36.685 34.364,36.700 34.444,36.674 C34.889,36.527 35.340,36.397 35.776,36.230 C36.481,35.960 37.135,35.588 37.752,35.152 C38.347,34.731 38.896,34.255 39.382,33.710 C39.414,33.673 39.446,33.618 39.444,33.573 C39.430,33.257 39.309,32.986 39.049,32.800 C38.409,32.343 37.769,31.884 37.117,31.444 C36.526,31.045 35.865,30.830 35.152,30.786 C35.029,30.778 34.977,30.725 34.945,30.606 C34.888,30.393 34.829,30.176 34.732,29.980 C34.478,29.471 34.059,29.106 33.615,28.767 C33.434,28.628 33.432,28.630 33.250,28.778 C34.556,30.963 35.863,33.149 37.182,35.356 C37.090,35.410 37.009,35.457 36.918,35.510 C35.601,33.306 34.293,31.120 32.985,28.931 ZM31.018,25.056 C31.047,25.043 31.068,25.029 31.091,25.024 C31.225,24.997 31.250,24.924 31.217,24.794 C31.165,24.596 31.142,24.390 31.094,24.191 C30.947,23.591 30.697,23.051 30.186,22.667 C30.106,22.607 30.104,22.531 30.142,22.447 C30.178,22.365 30.219,22.284 30.251,22.199 C30.510,21.528 30.569,20.832 30.488,20.124 C30.408,19.427 30.315,18.732 30.221,18.037 C30.186,17.778 30.053,17.569 29.850,17.403 C29.742,17.315 29.632,17.272 29.492,17.330 C29.405,17.366 29.310,17.379 29.219,17.406 C28.034,17.759 26.944,18.304 25.959,19.054 C25.471,19.425 25.016,19.834 24.611,20.296 C24.587,20.324 24.560,20.365 24.561,20.399 C24.572,20.725 24.697,20.996 24.963,21.194 C25.226,21.389 25.489,21.586 25.756,21.777 C26.302,22.168 26.840,22.573 27.456,22.855 C27.899,23.059 28.364,23.167 28.848,23.204 C28.998,23.216 29.019,23.244 29.060,23.390 C29.120,23.602 29.180,23.819 29.277,24.015 C29.530,24.525 29.954,24.887 30.395,25.227 C30.569,25.361 30.572,25.357 30.743,25.224 C30.748,25.220 30.750,25.211 30.755,25.198 C29.451,23.017 28.145,20.834 26.827,18.629 C26.914,18.578 26.995,18.530 27.084,18.477 C28.402,20.682 29.709,22.867 31.018,25.056 ZM32.629,27.150 C32.719,26.803 32.516,26.460 32.168,26.370 C31.812,26.278 31.468,26.480 31.377,26.833 C31.286,27.187 31.490,27.532 31.844,27.621 C32.199,27.710 32.537,27.508 32.629,27.150 Z" class="cls-6"/>
    <path d="M40.379,35.522 C40.282,35.489 40.185,35.465 40.096,35.424 C39.998,35.379 39.931,35.392 39.850,35.470 C39.283,36.011 38.657,36.478 37.986,36.882 C37.681,37.066 37.359,37.222 37.047,37.397 C37.004,37.421 36.975,37.475 36.945,37.520 C36.930,37.542 36.926,37.574 36.921,37.602 C36.896,37.760 36.828,37.880 36.659,37.919 C36.619,37.928 36.579,37.943 36.545,37.964 C36.332,38.097 36.131,38.083 35.931,37.933 C35.897,37.908 35.829,37.908 35.785,37.923 C34.994,38.189 34.186,38.385 33.355,38.469 C33.032,38.502 32.707,38.517 32.384,38.545 C32.345,38.549 32.295,38.581 32.275,38.614 C32.217,38.709 32.175,38.813 32.122,38.910 C32.055,39.030 31.946,39.029 31.879,38.908 C31.827,38.814 31.775,38.720 31.736,38.621 C31.709,38.555 31.668,38.543 31.604,38.541 C30.512,38.516 29.450,38.323 28.413,37.982 C28.351,37.961 28.289,37.934 28.225,37.924 C28.174,37.916 28.106,37.910 28.069,37.936 C27.876,38.071 27.683,38.105 27.476,37.973 C27.459,37.962 27.439,37.955 27.419,37.951 C27.205,37.902 27.090,37.765 27.065,37.551 C27.054,37.458 27.000,37.416 26.918,37.376 C25.908,36.880 24.986,36.254 24.165,35.482 C24.075,35.397 23.997,35.374 23.886,35.429 C23.814,35.465 23.734,35.494 23.654,35.508 C23.610,35.516 23.545,35.499 23.514,35.469 C23.488,35.444 23.483,35.379 23.493,35.337 C23.526,35.203 23.621,35.061 23.595,34.943 C23.571,34.828 23.426,34.740 23.336,34.639 C22.643,33.856 22.069,32.993 21.607,32.054 C21.582,32.005 21.517,31.972 21.466,31.939 C21.440,31.922 21.404,31.921 21.372,31.914 C21.229,31.884 21.119,31.819 21.086,31.663 C21.078,31.628 21.063,31.592 21.044,31.561 C20.904,31.337 20.912,31.124 21.074,30.913 C21.095,30.885 21.094,30.826 21.081,30.789 C20.821,30.038 20.642,29.268 20.541,28.481 C20.496,28.122 20.482,27.759 20.460,27.398 C20.456,27.330 20.444,27.286 20.374,27.257 C20.276,27.217 20.182,27.166 20.088,27.115 C19.973,27.052 19.971,26.940 20.083,26.877 C20.173,26.827 20.263,26.776 20.359,26.740 C20.445,26.708 20.458,26.654 20.460,26.571 C20.478,25.695 20.616,24.837 20.843,23.993 C20.916,23.724 21.007,23.459 21.083,23.191 C21.095,23.151 21.087,23.090 21.064,23.057 C20.924,22.865 20.896,22.671 21.029,22.465 C21.042,22.445 21.049,22.420 21.054,22.396 C21.103,22.191 21.236,22.083 21.441,22.059 C21.530,22.049 21.580,22.001 21.621,21.917 C22.120,20.899 22.750,19.970 23.528,19.144 C23.604,19.063 23.623,18.996 23.576,18.897 C23.538,18.816 23.508,18.728 23.489,18.641 C23.481,18.600 23.495,18.538 23.523,18.511 C23.551,18.484 23.611,18.474 23.654,18.480 C23.726,18.492 23.801,18.512 23.864,18.548 C23.997,18.623 24.083,18.584 24.191,18.482 C24.683,18.018 25.215,17.602 25.792,17.250 C26.173,17.017 26.572,16.811 26.960,16.590 C26.999,16.568 27.032,16.526 27.052,16.486 C27.074,16.443 27.077,16.391 27.088,16.343 C27.121,16.212 27.182,16.113 27.327,16.076 C27.426,16.050 27.519,16.002 27.612,15.958 C27.727,15.903 27.834,15.911 27.936,15.986 C28.059,16.077 28.180,16.091 28.332,16.036 C28.978,15.802 29.648,15.653 30.326,15.555 C30.744,15.494 31.169,15.479 31.592,15.449 C31.666,15.444 31.711,15.431 31.740,15.356 C31.778,15.261 31.825,15.169 31.880,15.083 C31.905,15.044 31.959,15.001 32.000,15.000 C32.040,15.000 32.095,15.043 32.119,15.082 C32.178,15.175 32.217,15.281 32.275,15.375 C32.295,15.409 32.346,15.443 32.383,15.443 C33.330,15.461 34.253,15.626 35.164,15.871 C35.369,15.926 35.569,16.004 35.773,16.063 C35.825,16.077 35.900,16.076 35.940,16.048 C36.127,15.919 36.311,15.882 36.510,16.013 C36.531,16.026 36.556,16.032 36.580,16.038 C36.791,16.088 36.913,16.217 36.934,16.436 C36.944,16.536 37.008,16.576 37.092,16.618 C38.102,17.114 39.023,17.741 39.843,18.513 C39.924,18.590 39.994,18.620 40.099,18.565 C40.175,18.525 40.260,18.500 40.343,18.482 C40.385,18.473 40.450,18.480 40.474,18.507 C40.504,18.539 40.517,18.603 40.509,18.648 C40.495,18.728 40.467,18.808 40.430,18.881 C40.374,18.993 40.403,19.071 40.487,19.160 C41.110,19.816 41.633,20.547 42.075,21.335 C42.190,21.539 42.290,21.751 42.403,21.956 C42.424,21.994 42.469,22.021 42.508,22.046 C42.531,22.061 42.563,22.064 42.591,22.068 C42.759,22.094 42.885,22.166 42.925,22.347 C42.934,22.386 42.951,22.425 42.973,22.460 C43.102,22.671 43.077,22.868 42.934,23.064 C42.909,23.097 42.909,23.166 42.924,23.209 C43.188,24.002 43.388,24.809 43.470,25.642 C43.502,25.966 43.517,26.291 43.546,26.614 C43.550,26.653 43.583,26.702 43.617,26.722 C43.712,26.779 43.815,26.821 43.912,26.874 C44.027,26.937 44.030,27.050 43.919,27.113 C43.798,27.182 43.627,27.215 43.563,27.316 C43.499,27.419 43.540,27.588 43.532,27.728 C43.492,28.452 43.371,29.164 43.195,29.866 C43.120,30.168 43.014,30.462 42.930,30.762 C42.915,30.817 42.916,30.896 42.945,30.940 C43.076,31.132 43.102,31.321 42.973,31.523 C42.960,31.543 42.953,31.568 42.947,31.592 C42.897,31.794 42.770,31.908 42.562,31.929 C42.466,31.939 42.419,31.993 42.376,32.081 C41.881,33.091 41.255,34.014 40.484,34.834 C40.398,34.926 40.377,35.003 40.432,35.113 C40.468,35.186 40.490,35.267 40.514,35.345 C40.545,35.444 40.472,35.534 40.379,35.522 ZM29.817,26.847 C29.889,26.638 29.882,26.608 29.694,26.540 C29.425,26.443 29.155,26.341 28.878,26.269 C28.401,26.145 27.922,26.124 27.448,26.301 C27.239,26.379 27.234,26.376 27.104,26.192 C26.690,25.609 26.155,25.165 25.514,24.860 C24.881,24.559 24.231,24.294 23.592,24.004 C23.242,23.846 22.897,23.777 22.544,23.982 C22.507,24.004 22.470,24.045 22.458,24.085 C22.225,24.822 22.096,25.577 22.041,26.346 C21.992,27.018 22.010,27.690 22.119,28.353 C22.206,28.874 22.341,29.387 22.459,29.902 C22.468,29.942 22.507,29.986 22.544,30.007 C22.864,30.183 23.179,30.161 23.511,30.017 C24.244,29.698 24.992,29.414 25.697,29.032 C26.241,28.736 26.700,28.345 27.066,27.847 C27.239,27.612 27.236,27.614 27.516,27.711 C27.813,27.814 28.120,27.837 28.430,27.802 C28.898,27.749 29.341,27.603 29.775,27.424 C29.833,27.400 29.865,27.374 29.852,27.307 C29.842,27.256 29.837,27.203 29.829,27.140 C27.278,27.140 24.734,27.140 22.188,27.140 C22.188,27.037 22.188,26.945 22.188,26.847 C24.740,26.847 27.280,26.847 29.817,26.847 ZM34.186,27.138 C34.111,27.356 34.118,27.377 34.306,27.450 C34.485,27.520 34.665,27.591 34.849,27.647 C35.429,27.824 36.013,27.905 36.599,27.671 C36.724,27.621 36.802,27.654 36.878,27.764 C37.294,28.372 37.847,28.826 38.508,29.139 C39.135,29.435 39.775,29.700 40.407,29.985 C40.751,30.140 41.094,30.216 41.443,30.013 C41.487,29.988 41.533,29.941 41.547,29.895 C41.777,29.155 41.909,28.397 41.962,27.624 C42.008,26.956 41.990,26.288 41.881,25.630 C41.795,25.109 41.659,24.596 41.542,24.081 C41.535,24.049 41.512,24.010 41.486,23.995 C41.206,23.837 40.912,23.797 40.611,23.924 C40.059,24.156 39.508,24.390 38.959,24.631 C38.519,24.825 38.095,25.050 37.711,25.343 C37.387,25.590 37.119,25.889 36.881,26.217 C36.770,26.368 36.764,26.371 36.585,26.312 C36.562,26.304 36.539,26.295 36.515,26.287 C36.198,26.178 35.873,26.152 35.542,26.192 C35.094,26.246 34.673,26.392 34.253,26.551 C34.130,26.598 34.149,26.673 34.154,26.763 C34.160,26.877 34.243,26.848 34.307,26.848 C36.346,26.849 38.384,26.848 40.423,26.848 C40.562,26.848 40.702,26.848 40.841,26.848 C41.164,26.848 41.487,26.848 41.817,26.848 C41.817,26.950 41.817,27.039 41.817,27.138 C39.267,27.138 36.724,27.138 34.186,27.138 ZM32.147,17.175 C32.147,19.728 32.147,22.272 32.147,24.813 C32.371,24.878 32.382,24.876 32.457,24.684 C32.525,24.513 32.591,24.340 32.646,24.164 C32.830,23.576 32.912,22.985 32.676,22.390 C32.628,22.270 32.660,22.193 32.765,22.120 C33.378,21.697 33.838,21.139 34.151,20.467 C34.446,19.836 34.710,19.190 34.999,18.556 C35.155,18.215 35.206,17.883 35.015,17.543 C34.992,17.503 34.948,17.461 34.905,17.447 C34.170,17.215 33.415,17.085 32.646,17.030 C31.975,16.982 31.304,17.000 30.641,17.109 C30.120,17.195 29.607,17.331 29.091,17.448 C29.059,17.455 29.019,17.475 29.004,17.502 C28.841,17.790 28.807,18.091 28.939,18.401 C29.173,18.952 29.398,19.509 29.652,20.051 C29.827,20.425 30.030,20.788 30.250,21.138 C30.506,21.547 30.870,21.861 31.260,22.140 C31.343,22.199 31.374,22.263 31.333,22.359 C31.312,22.408 31.298,22.460 31.282,22.510 C31.184,22.821 31.159,23.138 31.200,23.461 C31.256,23.909 31.397,24.332 31.563,24.748 C31.595,24.828 31.633,24.861 31.716,24.844 C31.760,24.835 31.804,24.829 31.858,24.821 C31.858,22.269 31.858,19.725 31.858,17.175 C31.959,17.175 32.047,17.175 32.147,17.175 ZM31.855,29.178 C31.637,29.109 31.616,29.116 31.543,29.304 C31.475,29.481 31.407,29.657 31.351,29.837 C31.169,30.426 31.091,31.018 31.330,31.612 C31.376,31.725 31.341,31.795 31.246,31.861 C30.626,32.289 30.160,32.851 29.846,33.533 C29.548,34.177 29.278,34.834 28.984,35.480 C28.834,35.809 28.809,36.126 28.986,36.447 C29.009,36.488 29.053,36.531 29.095,36.543 C29.404,36.626 29.712,36.722 30.026,36.775 C30.491,36.854 30.960,36.928 31.429,36.953 C31.916,36.979 32.407,36.959 32.895,36.932 C33.587,36.893 34.260,36.742 34.922,36.540 C34.950,36.532 34.983,36.512 34.997,36.488 C35.152,36.217 35.202,35.926 35.080,35.635 C34.796,34.958 34.506,34.283 34.200,33.616 C33.873,32.904 33.404,32.302 32.749,31.858 C32.659,31.797 32.626,31.725 32.669,31.617 C32.767,31.367 32.821,31.107 32.819,30.836 C32.816,30.256 32.632,29.722 32.415,29.195 C32.405,29.171 32.361,29.148 32.332,29.147 C32.273,29.145 32.213,29.158 32.144,29.166 C32.144,31.723 32.144,34.267 32.144,36.814 C32.044,36.814 31.955,36.814 31.855,36.814 C31.855,34.262 31.855,31.718 31.855,29.178 ZM39.064,20.154 C37.245,21.975 35.447,23.775 33.648,25.577 C33.668,25.601 33.692,25.621 33.703,25.646 C33.755,25.764 33.830,25.753 33.928,25.703 C34.078,25.626 34.234,25.562 34.385,25.487 C34.975,25.193 35.483,24.810 35.752,24.179 C35.791,24.088 35.862,24.064 35.954,24.081 C36.043,24.097 36.131,24.115 36.221,24.126 C36.939,24.214 37.632,24.099 38.302,23.846 C38.924,23.612 39.537,23.354 40.158,23.118 C40.484,22.994 40.710,22.784 40.811,22.449 C40.825,22.405 40.824,22.342 40.803,22.303 C40.704,22.118 40.598,21.938 40.491,21.758 C40.003,20.945 39.396,20.231 38.696,19.594 C38.094,19.047 37.435,18.580 36.717,18.199 C36.674,18.176 36.612,18.156 36.570,18.169 C36.260,18.264 36.024,18.450 35.904,18.761 C35.622,19.496 35.328,20.227 35.061,20.968 C34.822,21.631 34.781,22.317 34.908,23.011 C34.931,23.141 34.894,23.211 34.775,23.261 C34.483,23.384 34.239,23.576 34.029,23.813 C33.717,24.165 33.506,24.577 33.321,25.005 C33.232,25.211 33.236,25.212 33.434,25.354 C35.232,23.555 37.032,21.753 38.844,19.941 C38.914,20.008 38.980,20.073 39.064,20.154 ZM30.365,28.427 C30.340,28.395 30.317,28.376 30.305,28.351 C30.250,28.237 30.179,28.229 30.070,28.289 C29.927,28.368 29.772,28.426 29.625,28.499 C29.032,28.790 28.525,29.173 28.253,29.802 C28.212,29.897 28.143,29.925 28.045,29.909 C27.903,29.887 27.760,29.866 27.618,29.852 C27.061,29.798 26.514,29.864 25.990,30.050 C25.302,30.294 24.627,30.573 23.943,30.827 C23.586,30.959 23.301,31.156 23.188,31.539 C23.174,31.584 23.176,31.648 23.198,31.686 C23.393,32.019 23.581,32.358 23.798,32.676 C24.270,33.368 24.829,33.985 25.463,34.534 C26.034,35.029 26.649,35.457 27.318,35.807 C27.347,35.822 27.389,35.832 27.419,35.823 C27.703,35.740 27.944,35.588 28.057,35.306 C28.359,34.552 28.659,33.797 28.936,33.033 C29.178,32.367 29.221,31.677 29.094,30.979 C29.067,30.835 29.097,30.802 29.225,30.727 C29.416,30.617 29.614,30.508 29.779,30.365 C30.205,29.995 30.457,29.503 30.675,28.993 C30.766,28.780 30.763,28.778 30.566,28.636 C28.767,30.435 26.967,32.235 25.156,34.046 C25.085,33.978 25.018,33.913 24.948,33.846 C26.763,32.030 28.563,30.230 30.365,28.427 ZM33.426,28.633 C33.399,28.656 33.380,28.680 33.356,28.692 C33.231,28.752 33.241,28.829 33.300,28.938 C33.399,29.122 33.472,29.320 33.571,29.504 C33.857,30.041 34.229,30.498 34.807,30.745 C34.909,30.789 34.926,30.863 34.911,30.966 C34.884,31.152 34.859,31.340 34.847,31.529 C34.796,32.287 35.020,32.991 35.286,33.684 C35.479,34.186 35.689,34.681 35.884,35.182 C36.002,35.484 36.203,35.690 36.509,35.802 C36.592,35.833 36.657,35.832 36.728,35.787 C37.123,35.536 37.529,35.301 37.912,35.032 C38.530,34.598 39.073,34.078 39.565,33.505 C40.040,32.952 40.455,32.356 40.794,31.708 C40.817,31.665 40.834,31.604 40.821,31.561 C40.731,31.257 40.548,31.025 40.249,30.908 C39.517,30.620 38.785,30.331 38.045,30.063 C37.375,29.820 36.682,29.773 35.979,29.904 C35.858,29.927 35.795,29.888 35.734,29.780 C35.627,29.588 35.518,29.391 35.375,29.225 C35.005,28.793 34.509,28.541 33.997,28.320 C33.787,28.230 33.786,28.232 33.645,28.420 C35.445,30.221 37.245,32.023 39.062,33.842 C38.986,33.916 38.919,33.981 38.843,34.055 C37.029,32.239 35.228,30.437 33.426,28.633 ZM30.573,25.354 C30.598,25.335 30.615,25.316 30.636,25.306 C30.760,25.247 30.766,25.169 30.702,25.052 C30.604,24.872 30.532,24.678 30.436,24.497 C30.147,23.951 29.773,23.488 29.184,23.241 C29.092,23.202 29.072,23.128 29.087,23.038 C29.103,22.949 29.122,22.861 29.133,22.771 C29.221,22.057 29.108,21.368 28.857,20.701 C28.610,20.044 28.350,19.393 28.089,18.741 C27.992,18.498 27.813,18.329 27.575,18.218 C27.449,18.158 27.332,18.143 27.210,18.234 C27.135,18.290 27.045,18.325 26.964,18.374 C25.900,19.005 24.977,19.799 24.204,20.766 C23.821,21.246 23.480,21.753 23.199,22.300 C23.182,22.333 23.167,22.379 23.176,22.411 C23.266,22.725 23.453,22.958 23.759,23.085 C24.062,23.210 24.365,23.337 24.670,23.457 C25.296,23.703 25.916,23.965 26.582,24.089 C27.062,24.178 27.539,24.169 28.017,24.088 C28.166,24.062 28.193,24.085 28.268,24.216 C28.379,24.407 28.489,24.603 28.631,24.770 C29.001,25.202 29.500,25.450 30.010,25.672 C30.212,25.760 30.214,25.755 30.348,25.585 C30.352,25.580 30.351,25.570 30.353,25.556 C28.557,23.759 26.758,21.960 24.942,20.143 C25.014,20.072 25.081,20.006 25.154,19.933 C26.970,21.750 28.770,23.551 30.573,25.354 ZM32.647,26.993 C32.649,26.634 32.368,26.351 32.008,26.349 C31.642,26.346 31.357,26.626 31.355,26.991 C31.353,27.356 31.635,27.640 31.999,27.641 C32.366,27.641 32.644,27.362 32.647,26.993 Z" class="cls-7"/>
    <path d="M46.992,49.650 C46.992,50.260 46.970,50.871 47.000,51.478 C47.019,51.856 46.921,51.959 46.524,51.985 C45.134,52.077 43.811,51.726 42.469,51.475 C40.915,51.185 39.392,50.740 37.822,50.537 C37.753,50.528 37.713,50.499 37.666,50.466 C37.084,50.056 37.069,49.055 37.637,48.640 C38.070,48.324 38.056,48.324 37.639,48.053 C36.991,47.632 36.533,47.049 36.344,46.284 C35.916,44.553 36.245,42.960 37.438,41.654 C38.168,40.854 39.171,40.415 40.267,40.246 C41.942,39.986 43.479,40.279 44.847,41.381 C44.978,41.155 44.914,40.929 44.869,40.810 C44.695,40.342 44.918,40.317 45.273,40.331 C45.692,40.347 46.114,40.358 46.532,40.328 C46.896,40.301 47.003,40.416 47.001,40.790 C46.985,43.743 46.992,46.697 46.992,49.650 ZM44.601,43.580 C43.627,42.549 42.439,42.092 41.032,42.224 C39.660,42.354 38.610,43.213 38.321,44.424 C38.089,45.395 38.452,46.341 39.213,46.795 C39.435,46.928 39.590,46.923 39.781,46.732 C40.212,46.304 40.674,45.908 41.105,45.481 C41.284,45.303 41.388,45.321 41.545,45.503 C41.852,45.855 42.164,46.206 42.507,46.521 C42.769,46.762 42.701,46.890 42.461,47.088 C41.755,47.672 41.070,48.281 40.305,48.942 C41.779,49.276 43.173,49.583 44.561,49.912 C44.914,49.996 44.894,49.811 44.893,49.572 C44.889,47.824 44.883,46.075 44.898,44.327 C44.901,44.018 44.803,43.794 44.601,43.580 ZM33.982,48.140 C33.593,47.915 33.177,47.735 32.763,47.557 C32.531,47.457 32.476,47.349 32.579,47.102 C32.869,46.412 32.920,45.682 32.874,44.941 C32.794,43.662 32.068,42.732 30.844,42.379 C29.972,42.127 29.092,42.125 28.224,42.397 C26.565,42.915 25.774,44.739 26.499,46.334 C26.605,46.565 26.663,46.650 26.909,46.443 C27.933,45.579 29.642,45.421 30.815,46.063 C31.737,46.567 32.060,47.412 32.085,48.408 C32.099,48.939 32.088,49.471 32.088,50.002 C32.089,50.533 32.076,51.065 32.094,51.596 C32.103,51.871 32.037,51.991 31.736,51.976 C31.270,51.952 30.802,51.955 30.336,51.975 C30.064,51.987 29.967,51.886 29.998,51.626 C30.007,51.549 29.988,51.468 30.001,51.392 C30.077,50.957 29.913,50.884 29.498,50.960 C27.942,51.243 26.699,50.519 26.156,49.044 C26.102,48.898 26.013,48.811 25.908,48.720 C24.263,47.299 23.820,45.494 24.412,43.467 C24.994,41.472 26.519,40.547 28.480,40.240 C29.539,40.075 30.589,40.135 31.622,40.416 C33.550,40.942 34.673,42.221 34.973,44.185 C35.166,45.449 35.029,46.700 34.573,47.910 C34.446,48.249 34.311,48.329 33.982,48.140 ZM29.101,49.255 C29.767,49.253 30.162,48.911 30.152,48.348 C30.141,47.788 29.743,47.463 29.072,47.464 C28.402,47.466 28.009,47.804 28.019,48.370 C28.030,48.928 28.432,49.256 29.101,49.255 ZM22.017,48.165 C21.613,47.934 21.186,47.739 20.754,47.564 C20.489,47.457 20.457,47.342 20.559,47.079 C20.844,46.341 20.958,45.577 20.841,44.782 C20.640,43.419 19.827,42.550 18.481,42.304 C17.431,42.112 16.401,42.145 15.447,42.692 C14.150,43.434 13.692,45.173 14.444,46.497 C14.709,46.277 14.977,46.067 15.230,45.841 C15.401,45.689 15.516,45.716 15.636,45.898 C15.731,46.041 15.850,46.167 15.957,46.301 C16.141,46.533 16.424,46.744 16.480,47.004 C16.544,47.301 16.118,47.358 15.946,47.567 C15.649,47.929 15.563,48.331 15.738,48.746 C15.920,49.180 16.326,49.270 16.756,49.241 C17.141,49.214 17.470,49.049 17.772,48.812 C17.946,48.675 18.024,48.522 18.018,48.294 C18.003,47.732 18.026,47.168 18.007,46.606 C17.998,46.330 18.062,46.212 18.365,46.229 C18.815,46.255 19.268,46.255 19.718,46.229 C20.023,46.211 20.075,46.334 20.074,46.607 C20.063,48.280 20.063,49.953 20.073,51.626 C20.075,51.882 20.017,51.988 19.740,51.975 C19.274,51.954 18.806,51.954 18.340,51.976 C18.062,51.988 17.994,51.881 18.008,51.625 C18.027,51.284 18.013,50.941 18.013,50.524 C17.332,50.917 16.659,51.060 15.923,50.956 C14.764,50.792 13.974,50.117 13.724,48.979 C13.681,48.779 13.582,48.648 13.448,48.511 C12.012,47.033 11.685,45.267 12.287,43.357 C12.888,41.452 14.374,40.565 16.253,40.249 C17.310,40.072 18.366,40.123 19.404,40.369 C21.626,40.894 22.889,42.452 23.031,44.825 C23.095,45.898 22.924,46.940 22.546,47.949 C22.437,48.238 22.326,48.342 22.017,48.165 ZM21.803,39.864 C21.414,39.969 21.088,39.429 20.724,39.188 C18.495,37.710 15.847,37.871 13.696,39.671 C13.350,39.960 13.143,39.982 12.903,39.606 C12.854,39.529 12.777,39.469 12.712,39.402 C12.013,38.666 12.013,38.666 12.807,38.050 C14.260,36.923 15.772,36.385 16.851,36.383 C19.529,36.365 21.233,37.168 22.746,38.469 C22.955,38.650 22.941,38.756 22.753,38.935 C22.428,39.247 22.175,39.763 21.803,39.864 Z" class="cls-8"/>
  </g>
</svg>
