<svg xmlns="http://www.w3.org/2000/svg" width="20" height="18" viewBox="0 0 20 18">
  <defs>
    <style>
      .cls-1 {
        fill: #444;
        fill-rule: evenodd;
      }
    </style>
  </defs>
  <path id="weather" class="cls-1" d="M749.5,288.578a6.645,6.645,0,0,1,2.735-.96c0-.487,0-0.961,0-1.434a3.446,3.446,0,0,1,.028-0.593,0.751,0.751,0,0,1,.831-0.588,0.743,0.743,0,0,1,.691.722c0.007,0.584,0,1.168,0,1.753a0.133,0.133,0,0,0,.135.163,6.457,6.457,0,0,1,2.547.9c0.019,0.012.04,0.02,0.073,0.036l0.929-1.061c0.1-.114.2-0.229,0.3-0.341a0.8,0.8,0,0,1,1.131-.11,0.728,0.728,0,0,1,.058,1.067c-0.4.467-.809,0.929-1.224,1.4l0.317,0.369a5.777,5.777,0,0,1,1.079,1.9,0.179,0.179,0,0,0,.249.134c0.58-.1,1.161-0.206,1.744-0.293a0.76,0.76,0,0,1,.889.6,0.742,0.742,0,0,1-.647.867c-0.569.1-1.14,0.2-1.709,0.294-0.061.01-.121,0.025-0.166,0.034-0.028.4-.03,0.786-0.091,1.165-0.064.4-.189,0.792-0.279,1.189a0.308,0.308,0,0,0,.031.206q0.18,0.319.386,0.624a0.27,0.27,0,0,0,.166.111,3.2,3.2,0,0,1,2.9,2.672,0.2,0.2,0,0,0,.156.183,1.739,1.739,0,0,1,1.213,1.969,1.8,1.8,0,0,1-1.8,1.438q-4.986,0-9.973,0a3.153,3.153,0,0,1-3.078-4.073,0.225,0.225,0,0,0-.091-0.285c-0.365-.326-0.712-0.67-1.064-1.008-0.04-.039-0.073-0.083-0.116-0.133l-1.629.9a0.848,0.848,0,0,1-.575.122A0.771,0.771,0,0,1,745,297.9a0.728,0.728,0,0,1,.372-0.76c0.5-.283,1-0.558,1.5-0.836l0.157-.09c-0.129-.463-0.286-0.907-0.37-1.363s-0.094-.929-0.14-1.423l-0.94-.161c-0.316-.055-0.633-0.1-0.948-0.164a0.745,0.745,0,0,1-.631-0.819,0.754,0.754,0,0,1,.883-0.643c0.577,0.084,1.152.19,1.728,0.285,0.067,0.011.135,0.019,0.217,0.03a6.232,6.232,0,0,1,1.462-2.421l-0.822-.942c-0.133-.152-0.267-0.3-0.4-0.456a0.726,0.726,0,0,1,.076-1.1,0.806,0.806,0,0,1,1.116.142l1.118,1.279C749.42,288.5,749.455,288.535,749.5,288.578Zm10.433,9.214c0,0.054.006,0.075,0.008,0.1a0.526,0.526,0,1,1-1.037.141,3.489,3.489,0,0,0-5.418-2.222,3.1,3.1,0,0,0-.912.924l0.1,0.015a3.34,3.34,0,0,1,1.386.506,0.491,0.491,0,0,1-.087.881,0.575,0.575,0,0,1-.538-0.071,2.239,2.239,0,0,0-1.614-.293,2.127,2.127,0,0,0-1.733,2.623A2.227,2.227,0,0,0,752.334,302q4.865,0,9.729,0c0.052,0,.1,0,0.155,0a0.751,0.751,0,0,0,.7-0.982,0.722,0.722,0,0,0-.591-0.5,0.776,0.776,0,0,0-.8.329,0.54,0.54,0,0,1-.751.158,0.479,0.479,0,0,1-.1-0.727,5.008,5.008,0,0,1,.591-0.543,0.915,0.915,0,0,0,.293-0.207,0.805,0.805,0,0,0-.085-0.378,1.132,1.132,0,0,0-.076-0.184A2.216,2.216,0,0,0,759.929,297.792Zm-9.968-.188a3.236,3.236,0,0,1,1.217-.714,0.327,0.327,0,0,0,.215-0.188,4.585,4.585,0,0,1,6.349-1.925l0.16,0.087a4.734,4.734,0,0,0-2.777-5.48,5.119,5.119,0,0,0-6.52,2.049A4.69,4.69,0,0,0,749.961,297.6Z" transform="translate(-744 -285)"/>
</svg>
